<svg id="Layer_1" data-name="Layer 1" xmlns="http://www.w3.org/2000/svg" viewBox="0 0 24 24"><defs><style>.cls-1{fill:#666;}.cls-2{fill:none;}</style></defs><title>action_remove_offline</title><g id="edit_icon" data-name="edit icon"><path class="cls-1" d="M12,13.4l2.8,2.8a1,1,0,1,0,1.4-1.4L13.4,12l2.8-2.8a1,1,0,0,0-1.4-1.4L12,10.6,9.2,7.8a1,1,0,0,0-1.4,0,1.08,1.08,0,0,0-.3.7.91.91,0,0,0,.3.7L10.6,12,7.8,14.8a1.08,1.08,0,0,0-.3.7.91.91,0,0,0,.3.7,1,1,0,0,0,1.4,0Z"/><path class="cls-1" d="M17.07,23H6.94A1.94,1.94,0,0,1,5,21.07V2.93A1.94,1.94,0,0,1,6.94,1H17.07A1.94,1.94,0,0,1,19,2.93V21.07A1.94,1.94,0,0,1,17.07,23ZM18,4H6V20H18Z"/><rect class="cls-2" width="24" height="24"/><rect class="cls-2" width="24" height="24"/></g></svg>