<svg id="Layer_1" data-name="Layer 1" xmlns="http://www.w3.org/2000/svg" viewBox="0 0 24 24"><defs><style>.cls-1{fill:none;}.cls-2{fill:#666;}.cls-3{fill:#fff;}</style></defs><title>action_unreserve24</title><g id="edit_icon" data-name="edit icon"><rect class="cls-1" width="24" height="24"/><rect class="cls-1" width="24" height="24"/><path class="cls-2" d="M19.11,10H18V6A6,6,0,0,0,6,6v4H4.89a.91.91,0,0,0-.89.93V23.07a.91.91,0,0,0,.89.93H19.11a.91.91,0,0,0,.89-.93V10.93A.91.91,0,0,0,19.11,10ZM8,6a4,4,0,0,1,8,0v4H8Z"/><path class="cls-3" d="M13.41,17l3.29-3.29a1,1,0,1,0-1.41-1.41L12,15.59,8.71,12.29a1,1,0,1,0-1.41,1.41L10.59,17,7.29,20.29a1,1,0,1,0,1.41,1.41L12,18.41l3.29,3.29a1,1,0,1,0,1.41-1.41Z"/></g></svg>