<svg id="Layer_1" data-name="Layer 1" xmlns="http://www.w3.org/2000/svg" viewBox="0 0 24 24"><defs><style>.cls-1{fill:none;}.cls-2{fill:#666;}.cls-3{fill:#fff;}</style></defs><title>action_export</title><g id="edit_icon" data-name="edit icon"><rect class="cls-1" width="24" height="24"/><rect class="cls-1" width="24" height="24"/><path class="cls-2" d="M3,3V21a2,2,0,0,0,2,2H19a2,2,0,0,0,2-2V4L18,1H5A2,2,0,0,0,3,3Z"/><path class="cls-3" d="M7.16,11a1,1,0,0,0,1,1h4.42L6.45,18.15a1,1,0,0,0,1.43,1.43L14,13.46v4.37a1,1,0,0,0,2,0V10H8.16A1,1,0,0,0,7.16,11Z"/></g></svg>