<svg id="Layer_1" data-name="Layer 1" xmlns="http://www.w3.org/2000/svg" viewBox="0 0 32 32"><defs><style>.cls-1{fill:#333;}.cls-2{fill:none;}.cls-3{fill:#627783;}</style></defs><title>add</title><path class="cls-1" d="M30,25a1,1,0,0,0,0-2H25V18a1,1,0,0,0-2,0v5H18a1,1,0,0,0,0,2h5v5a1,1,0,0,0,2,0V25h5Z"/><path class="cls-2" d="M30,23H25V18a1,1,0,0,0-2,0v5H18a1,1,0,0,0,0,2h5v5a1,1,0,0,0,2,0V25h5A1,1,0,0,0,30,23Z"/><path class="cls-3" d="M21.5,26.5H18a2.5,2.5,0,0,1,0-5h3.5V19.751a6.472,6.472,0,0,1-1.087-.342,2.832,2.832,0,0,1-1.017-.773,3.475,3.475,0,0,1-.406-0.616L18.8,17.661l0.312-.256a5.832,5.832,0,0,0,1.235-1.415,8.561,8.561,0,0,0,1.075-2.782l0.062-.294,0.289-.082a0.88,0.88,0,0,0,.421-0.357,2.571,2.571,0,0,0,.4-1.006,2.17,2.17,0,0,0-.141-1.383l-0.1-.176,0.049-.2c0.02-.078.039-0.158,0.055-0.241a7.459,7.459,0,0,0,.1-1.842,12.129,12.129,0,0,0-.32-2.19A4.9,4.9,0,0,0,20.248,2.8,7.222,7.222,0,0,0,16,1.5a7.245,7.245,0,0,0-4.246,1.3,4.908,4.908,0,0,0-1.99,2.639,12.335,12.335,0,0,0-.326,2.2,7.491,7.491,0,0,0,.1,1.842C9.56,9.555,9.578,9.633,9.6,9.711l0.049,0.2-0.1.175A2.17,2.17,0,0,0,9.4,11.469a2.577,2.577,0,0,0,.4,1.01,0.881,0.881,0,0,0,.421.354l0.292,0.08,0.063,0.3a8.577,8.577,0,0,0,1.076,2.783,5.865,5.865,0,0,0,1.241,1.419L13.2,17.669l-0.189.359a3.429,3.429,0,0,1-.4.608,2.821,2.821,0,0,1-1.018.773,11.908,11.908,0,0,1-2.442.634,14.539,14.539,0,0,0-3.228.876,3.339,3.339,0,0,0-1.984,2.1A12.512,12.512,0,0,0,3.374,26.3a2.857,2.857,0,0,0-.075.587v1.329A2.313,2.313,0,0,0,5.583,30.5H21.551A2.5,2.5,0,0,1,21.5,30V26.5Z"/><path class="cls-3" d="M26.5,30a2.5,2.5,0,0,1-.05.5A2.285,2.285,0,0,0,28.7,28.218V26.889a2.268,2.268,0,0,0-.042-0.389H26.5V30Z"/></svg>