<?xml version="1.0" encoding="utf-8"?>
<!-- Generator: Adobe Illustrator 19.1.0, SVG Export Plug-In . SVG Version: 6.00 Build 0)  -->
<svg version="1.1" id="Layer_1" xmlns="http://www.w3.org/2000/svg" xmlns:xlink="http://www.w3.org/1999/xlink" x="0px" y="0px"
	 viewBox="0 0 24 24" style="enable-background:new 0 0 24 24;" xml:space="preserve">
<style type="text/css">
	.st0{fill:#FFFFFF;}
</style>
<g>
	<g>
		<path class="st0" d="M16.849,11.814v1.839c0.87,0.112,1.063,0.332,1.517,0.629l1.316-1.295l1.231,1.246L19.62,15.51
			c0.306,0.455,0.523,0.656,0.64,1.526h1.811v1.741h-1.797c-0.109,0.87-0.332,1.09-0.635,1.554l1.258,1.279l-1.246,1.231
			l-1.24-1.257c-0.465,0.312-0.692,0.534-1.563,0.649V24h-1.741v-1.767c-0.87-0.116-1.098-0.345-1.563-0.657l-1.27,1.249
			l-1.231-1.246l1.266-1.249c-0.303-0.464-0.517-0.684-0.627-1.554H9.886v-1.741h1.811c0.118-0.87,0.343-1.071,0.648-1.526
			l-1.285-1.307l1.246-1.231l1.286,1.303c0.454-0.297,0.647-0.51,1.517-0.622v-1.839H16.849 M15.979,20.57
			c1.448,0,2.627-1.179,2.627-2.627c0-1.448-1.179-2.626-2.627-2.626s-2.627,1.179-2.627,2.627
			C13.352,19.392,14.531,20.57,15.979,20.57"/>
	</g>
	<g>
		<path class="st0" d="M8.384,19.577c-0.338,0-0.738,0-1.18,0c0.448,0.053,0.901,0.089,1.363,0.089c0.094,0,0.184-0.015,0.278-0.018
			v-0.071C8.686,19.577,8.522,19.577,8.384,19.577z"/>
		<path class="st0" d="M10.882,15.92c0.043-0.108,0.087-0.206,0.13-0.303l-1.441-1.463l1.961-1.938
			c-0.044-0.124-0.072-0.208-0.072-0.208s-0.111-0.778,0.159-1.173c0.125-0.181,0.586-2.397,0.639-2.665
			c0,0,0.341-0.272,0.479-0.959c0.254-1.253-0.159-1.28-0.32-1.333c0,0-0.074-2.445-0.277-3.298
			c-0.251-1.057-0.828-2.518-3.287-2.579C7.786-0.024,6.465,0.278,6.154,0.418c-1.059,0.479-1.861,2.314-1.78,3.321
			C4.4,4.062,4.465,4.908,4.583,5.451c0.053,0.246,0.074,0.666,0.074,0.666S4.576,5.957,4.37,5.93
			c-0.37-0.047-0.374,1.44,0.053,2.026C4.85,8.543,5.063,9.022,5.063,9.022s0.213,1.28,0.586,1.706c0.374,0.427,0,1.226,0,1.439
			c0,0.214-0.694,1.385-1.386,1.706C3.81,14.082,1.579,14.779,0,15.796c1.814,2.047,4.343,3.44,7.202,3.78c0.442,0,0.843,0,1.18,0
			c0.138,0,0.304,0,0.463,0.001V15.92H10.882z"/>
	</g>
</g>
</svg>
