<?xml version="1.0" encoding="utf-8"?>
<!-- Generator: Adobe Illustrator 19.1.0, SVG Export Plug-In . SVG Version: 6.00 Build 0)  -->
<!DOCTYPE svg PUBLIC "-//W3C//DTD SVG 1.1//EN" "http://www.w3.org/Graphics/SVG/1.1/DTD/svg11.dtd">
<svg version="1.1" id="Layer_1" xmlns="http://www.w3.org/2000/svg" xmlns:xlink="http://www.w3.org/1999/xlink" x="0px" y="0px"
	 viewBox="0 0 24 24" enable-background="new 0 0 24 24" xml:space="preserve">
<g>
	<path fill="#83649B" d="M19.68,10.089h-2.44v-3.4h-0.77v3.4h-4.18v-5.52h-0.77v5.52H7.31v-3.4H6.54v3.4H4.32
		c-1.67,0-3.03,1.26-3.03,2.8v0.57c0.136,0.813,0.635,2.104,1.64,2.483v6.737c0,0.63,0.5,1.13,1.13,1.13h15.7
		c0.62,0,1.13-0.5,1.13-1.13v-6.725c1.29-0.471,1.784-2.368,1.81-2.465l0.01-0.59C22.71,11.349,21.35,10.089,19.68,10.089z
		 M19.89,22.679c0,0.07-0.06,0.13-0.13,0.13H4.06c-0.07,0-0.13-0.06-0.13-0.13v-2.53h15.96L19.89,22.679L19.89,22.679z M3.93,19.179
		v-3.186c0.648-0.146,1.042-0.593,1.35-0.984c0.35-0.44,0.55-0.67,0.98-0.67c0.42,0,0.62,0.23,0.97,0.67
		c0.37,0.47,0.84,1.05,1.76,1.05s1.39-0.58,1.76-1.05c0.35-0.44,0.55-0.67,0.98-0.67h0.36c0.42,0,0.62,0.23,0.97,0.67
		c0.38,0.47,0.84,1.05,1.76,1.05c0.93,0,1.39-0.58,1.76-1.05c0.35-0.44,0.56-0.67,0.98-0.67s0.63,0.23,0.98,0.67
		c0.309,0.393,0.699,0.842,1.35,0.986v3.184L3.93,19.179L3.93,19.179z"/>
	<path fill="#83649B" d="M7.876,4.6c0,0.738-0.443,1.336-0.989,1.336c-0.547,0-0.989-0.598-0.989-1.336s0.989-1.879,0.989-1.879
		S7.876,3.862,7.876,4.6z"/>
	<path fill="#83649B" d="M12.935,2.07c0,0.738-0.443,1.336-0.989,1.336c-0.546,0-0.989-0.598-0.989-1.336s0.989-1.879,0.989-1.879
		S12.935,1.332,12.935,2.07z"/>
	<path fill="#83649B" d="M17.995,4.6c0,0.738-0.443,1.336-0.989,1.336c-0.546,0-0.989-0.598-0.989-1.336s0.989-1.879,0.989-1.879
		S17.995,3.862,17.995,4.6z"/>
	<g>
		<rect x="3.93" y="18.679" fill="#83649B" width="15.96" height="0.5"/>
		<rect x="3.93" y="20.149" fill="#83649B" width="15.96" height="0.5"/>
	</g>
</g>
</svg>
