<?xml version="1.0" encoding="utf-8"?>
<!-- Generator: Adobe Illustrator 19.0.0, SVG Export Plug-In . SVG Version: 6.00 Build 0)  -->
<svg version="1.1" id="Layer_1" xmlns="http://www.w3.org/2000/svg" xmlns:xlink="http://www.w3.org/1999/xlink" x="0px" y="0px"
	 viewBox="0 0 24 24" enable-background="new 0 0 24 24" xml:space="preserve">
<path id="XMLID_120_" fill="#FFFFFF" d="M12,0C5.3726,0,0,5.3726,0,12c0,6.6274,5.3726,12,12,12s12-5.3726,12-12
	C24,5.3726,18.6274,0,12,0z M19.7707,8.238L9.4178,18.5909L4.229,13.4021c-0.5208-0.5208-0.5208-1.3646,0-1.8854
	c0.5208-0.5209,1.3646-0.5209,1.8854,0l3.3033,3.3033l8.4675-8.4674c0.5208-0.5209,1.3646-0.5209,1.8854,0
	C20.2915,6.8735,20.2915,7.7172,19.7707,8.238z"/>
</svg>
