<?xml version="1.0" encoding="utf-8"?>
<!-- Generator: Adobe Illustrator 19.1.0, SVG Export Plug-In . SVG Version: 6.00 Build 0)  -->
<svg version="1.1" id="Layer_1" xmlns="http://www.w3.org/2000/svg" xmlns:xlink="http://www.w3.org/1999/xlink" x="0px" y="0px"
	 viewBox="0 0 32 32" style="enable-background:new 0 0 32 32;" xml:space="preserve">
<style type="text/css">
	.st0{fill:#00AF9A;}
	.st1{fill:#FFFFFF;}
	.st2{fill:#00896D;}
	.st3{fill:#0072AA;stroke:#FFFFFF;stroke-miterlimit:10;}
</style>
<g>
	<g>
		<g>
			<path class="st0" d="M6.283,31.5c-1.93,0-3.5-1.57-3.5-3.5V4c0-1.93,1.57-3.5,3.5-3.5H21.49l6.293,6.293V28
				c0,1.93-1.57,3.5-3.5,3.5H6.283z"/>
			<path class="st1" d="M21.283,1l6,6v21c0,1.657-1.343,3-3,3h-18c-1.657,0-3-1.343-3-3V4c0-1.657,1.343-3,3-3H21.283 M21.697,0
				h-0.414h-15c-2.206,0-4,1.794-4,4v24c0,2.206,1.794,4,4,4h18c2.206,0,4-1.794,4-4V7V6.586L27.99,6.293l-6-6L21.697,0L21.697,0z"
				/>
		</g>
	</g>
	<polygon class="st2" points="21.283,1 21.283,7 27.283,7 	"/>
</g>
<g>
	<g>
		<path class="st1" d="M13.255,27.237l0.88-1.924l-2.411-1.114l3.383-7.317c2.369,0.388,4.788-0.825,5.845-3.102
			c1.258-2.743,0.064-5.999-2.679-7.257c-2.74-1.271-5.991-0.069-7.262,2.67c-1.052,2.286-0.404,4.904,1.428,6.454L7.453,26.446
			l2.668,1.234l0.723-1.558L13.255,27.237z M15.128,13.339c-1.024-0.471-1.477-1.685-1.005-2.709
			c0.472-1.024,1.69-1.469,2.714-0.997s1.477,1.685,0.997,2.714C17.362,13.371,16.152,13.811,15.128,13.339z"/>
	</g>
</g>
<g>
	<circle class="st3" cx="24.782" cy="25" r="6.5"/>
	<path class="st1" d="M29.116,25.623v-1.245h-1.288c-0.083-0.394-0.241-0.76-0.458-1.084l0.917-0.917l-0.881-0.881l-0.924,0.924
		c-0.323-0.211-0.686-0.365-1.077-0.445v-1.308H24.16v1.308c-0.391,0.079-0.754,0.233-1.077,0.445l-0.924-0.924l-0.881,0.881
		l0.917,0.917c-0.217,0.323-0.374,0.69-0.458,1.084h-1.288v1.245h1.278c0.078,0.401,0.233,0.773,0.448,1.103l-0.898,0.898
		l0.881,0.881l0.891-0.891c0.33,0.222,0.706,0.382,1.11,0.464v1.256h1.245v-1.256c0.404-0.082,0.779-0.242,1.11-0.464l0.891,0.891
		l0.881-0.881l-0.898-0.898c0.215-0.33,0.371-0.702,0.448-1.103L29.116,25.623z M24.782,26.894c-1.03,0-1.868-0.838-1.868-1.868
		c0-1.03,0.838-1.868,1.868-1.868s1.868,0.838,1.868,1.868C26.651,26.056,25.812,26.894,24.782,26.894z"/>
</g>
</svg>
