<?xml version="1.0" encoding="utf-8"?>
<!-- Generator: Adobe Illustrator 19.1.0, SVG Export Plug-In . SVG Version: 6.00 Build 0)  -->
<svg version="1.1" id="Layer_1" xmlns="http://www.w3.org/2000/svg" xmlns:xlink="http://www.w3.org/1999/xlink" x="0px" y="0px"
	 viewBox="0 0 48 48" enable-background="new 0 0 48 48" xml:space="preserve">
<path fill="#1A1718" d="M25,23H11l6,6.723v4.05c0,0.703,0.297,1.273,1,1.273s1-0.57,1-1.273v-4.05L25,23z"/>
<path fill="#262626" d="M45.333,11H42v-0.25c0-1.1-0.4-1-1.5-1s-1.5-0.1-1.5,1V11h-6V7.987C33,5.651,31.433,4,29.096,4H18.903
	C16.567,4,15,5.651,15,7.987V11H9v-0.25c0-1.1-0.4-1-1.5-1s-1.5-0.1-1.5,1V11H2.667C1.2,11,0,12.617,0,14.083v27.438
	C0,42.987,1.2,44,2.667,44h42.667C46.8,44,48,42.987,48,41.521V14.083C48,12.617,46.8,11,45.333,11z M18,7.987
	C18,7.121,18.037,7,18.904,7h10.193C29.963,7,30,7.121,30,7.987V11H18V7.987z"/>
<path fill="#FFFFFF" d="M34.5,18.75h-21l9,10.084v6.075c0,1.054,0.446,1.909,1.5,1.909s1.5-0.855,1.5-1.909v-6.075L34.5,18.75z"/>
</svg>
