<?xml version="1.0" encoding="utf-8"?>
<!-- Generator: Adobe Illustrator 19.1.0, SVG Export Plug-In . SVG Version: 6.00 Build 0)  -->
<!DOCTYPE svg PUBLIC "-//W3C//DTD SVG 1.1//EN" "http://www.w3.org/Graphics/SVG/1.1/DTD/svg11.dtd">
<svg version="1.1" id="Layer_1" xmlns="http://www.w3.org/2000/svg" xmlns:xlink="http://www.w3.org/1999/xlink" x="0px" y="0px"
	 viewBox="0 0 24 24" enable-background="new 0 0 24 24" xml:space="preserve">
<g>
	<rect x="5" y="12" fill="#004B71" width="1" height="2"/>
	<g>
		<path fill="#004B71" d="M19,14v-1v-1h-1h-5v-2h4V2H6v8h5v2H5v1h6h1h1h5v1h-5v8h11v-8H19z M7,9V3h9v6h-3h-1h-1H7z M23,21h-9v-6h9
			V21z"/>
		<path fill="#004B71" d="M0,22h11v-8H0V22z M1,15h9v6H1V15z"/>
	</g>
	<rect x="1" y="15" fill="#FFFFFF" width="9" height="6"/>
	<rect x="14" y="15" fill="#FFFFFF" width="9" height="6"/>
	<rect x="7" y="3" fill="#FFFFFF" width="9" height="6"/>
</g>
</svg>
