<?xml version="1.0" encoding="utf-8"?>
<!-- Generator: Adobe Illustrator 19.1.0, SVG Export Plug-In . SVG Version: 6.00 Build 0)  -->
<svg version="1.1" id="Layer_1" xmlns="http://www.w3.org/2000/svg" xmlns:xlink="http://www.w3.org/1999/xlink" x="0px" y="0px"
	 viewBox="0 0 32 32" style="enable-background:new 0 0 32 32;" xml:space="preserve">
<style type="text/css">
	.st0{fill:#0071C5;}
	.st1{fill:#FFFFFF;}
	.st2{fill:#005B93;}
</style>
<g>
	<g>
		<g id="Layer_1_2_">
			<g>
				<g>
					<g>
						<g>
							<path class="st0" d="M0.5,23.851c0,1.93,1.57,3.5,3.5,3.5h24c1.93,0,3.5-1.57,3.5-3.5V8.644l-6.293-6.293H4
								c-1.93,0-3.5,1.57-3.5,3.5V23.851z"/>
							<path class="st1" d="M31,8.851v15c0,1.657-1.343,3-3,3H4c-1.657,0-3-1.343-3-3v-18c0-1.657,1.343-3,3-3h21L31,8.851
								 M32,8.437l-0.293-0.293l-6-6l-0.293-0.293H25H4c-2.206,0-4,1.794-4,4l0,18c0,2.206,1.794,4,4,4h24c2.206,0,4-1.794,4-4v-15
								V8.437L32,8.437z"/>
						</g>
					</g>
					<polygon class="st2" points="31,8.851 25,8.851 25,2.851 					"/>
				</g>
			</g>
		</g>
	</g>
	<g>
		<g>
			<g>
				<g>
					<path class="st1" d="M21.872,23.929c-0.008-0.013-0.017-0.026-0.026-0.041c-0.018,0.013-0.036,0.025-0.052,0.036
						c-0.324,0.226-0.692,0.482-1.141,0.482c-0.147,0-0.288-0.028-0.42-0.083c-0.625-0.259-0.741-0.918-0.827-1.399
						c-0.001-0.005-0.002-0.01-0.003-0.015l-2.196,6.038l2.524-1.285l1.062,2.485l1.943-5.331
						C22.329,24.641,22.072,24.242,21.872,23.929z"/>
					<path class="st0" d="M20.793,30.398c-0.1,0-0.19-0.06-0.229-0.151l-0.957-2.239l-2.285,1.163
						c-0.091,0.047-0.201,0.033-0.279-0.035c-0.077-0.068-0.104-0.177-0.069-0.272l2.195-6.037c0.038-0.104,0.143-0.178,0.254-0.164
						c0.112,0.008,0.205,0.09,0.227,0.2c0.083,0.468,0.182,1.024,0.681,1.23c0.103,0.043,0.211,0.064,0.324,0.064
						c0.369,0,0.687-0.221,0.994-0.435c0.111-0.078,0.323-0.091,0.401,0.021c0.003,0.004,0.026,0.039,0.034,0.051l0,0
						c0.184,0.288,0.413,0.647,0.752,0.794c0.122,0.053,0.182,0.19,0.137,0.315l-1.943,5.331c-0.035,0.096-0.126,0.161-0.229,0.164
						C20.798,30.398,20.795,30.398,20.793,30.398z M19.731,27.414c0.028,0,0.058,0.005,0.085,0.015
						c0.065,0.024,0.118,0.073,0.145,0.137l0.813,1.903l1.653-4.534c-0.285-0.185-0.49-0.452-0.651-0.694
						c-0.31,0.208-0.678,0.417-1.123,0.417c-0.179,0-0.353-0.034-0.516-0.103c-0.411-0.17-0.639-0.477-0.774-0.802l-1.704,4.685
						l1.959-0.996C19.653,27.423,19.692,27.414,19.731,27.414z"/>
				</g>
				<g>
					<path class="st1" d="M26.124,24.324c-0.132,0.055-0.274,0.083-0.42,0.083c-0.449,0-0.817-0.256-1.141-0.483
						c-0.016-0.011-0.034-0.023-0.052-0.036c-0.009,0.014-0.018,0.028-0.026,0.041c-0.202,0.316-0.463,0.72-0.878,0.893l1.941,5.327
						l1.062-2.485l2.524,1.285l-2.186-6.009C26.863,23.419,26.743,24.068,26.124,24.324z"/>
					<path class="st0" d="M25.549,30.398c-0.002,0-0.005,0-0.007,0c-0.103-0.003-0.193-0.068-0.229-0.164l-1.941-5.326
						c-0.045-0.126,0.016-0.265,0.139-0.316c0.348-0.146,0.578-0.507,0.764-0.798c0.037-0.058,0.109-0.118,0.178-0.131
						c0.067-0.013,0.15-0.018,0.206,0.022l-0.095,0.239l0.146-0.202c0.308,0.214,0.625,0.435,0.994,0.435
						c0.113,0,0.222-0.021,0.324-0.063l0.096,0.23l-0.096-0.23c0.461-0.191,0.578-0.656,0.674-1.198
						c0.02-0.111,0.111-0.195,0.225-0.205c0.109-0.012,0.218,0.058,0.257,0.163l2.186,6.009c0.035,0.097,0.007,0.205-0.069,0.273
						c-0.077,0.068-0.188,0.082-0.279,0.035l-2.285-1.163l-0.957,2.239C25.739,30.339,25.648,30.398,25.549,30.398z M23.917,24.941
						l1.65,4.527l0.813-1.903c0.026-0.063,0.079-0.112,0.145-0.137c0.065-0.022,0.138-0.019,0.198,0.013l1.959,0.996l-1.698-4.668
						c-0.137,0.317-0.364,0.619-0.765,0.785c-0.163,0.068-0.337,0.103-0.516,0.103c-0.447,0-0.816-0.21-1.123-0.417
						C24.411,24.494,24.203,24.761,23.917,24.941z"/>
				</g>
			</g>
		</g>
		<g>
			<path class="st1" d="M28.96,18.764c0.141-0.529,1.04-0.976,1.04-1.55s-0.899-1.021-1.04-1.55
				c-0.146-0.547,0.404-1.383,0.127-1.862c-0.281-0.486-1.283-0.425-1.677-0.819c-0.394-0.394-0.334-1.396-0.82-1.677
				c-0.479-0.277-1.315,0.273-1.862,0.127c-0.529-0.141-0.976-1.04-1.55-1.04s-1.021,0.899-1.55,1.04
				c-0.547,0.146-1.383-0.404-1.862-0.127c-0.486,0.281-0.425,1.283-0.819,1.677c-0.394,0.394-1.396,0.334-1.677,0.82
				c-0.277,0.479,0.273,1.315,0.127,1.862c-0.141,0.529-1.04,0.976-1.04,1.55s0.899,1.021,1.04,1.55
				c0.146,0.547-0.404,1.383-0.127,1.862c0.281,0.486,1.283,0.425,1.677,0.819c0.394,0.394,0.334,1.396,0.82,1.677
				c0.479,0.277,1.315-0.273,1.862-0.127c0.529,0.141,0.976,1.04,1.55,1.04s1.021-0.899,1.55-1.04
				c0.547-0.146,1.383,0.404,1.862,0.127c0.486-0.281,0.425-1.283,0.819-1.677c0.394-0.394,1.396-0.334,1.677-0.82
				C29.364,20.148,28.814,19.311,28.96,18.764z"/>
		</g>
	</g>
</g>
</svg>
