<?xml version="1.0" encoding="utf-8"?>
<!-- Generator: Adobe Illustrator 19.1.0, SVG Export Plug-In . SVG Version: 6.00 Build 0)  -->
<svg version="1.1" id="Layer_1" xmlns="http://www.w3.org/2000/svg" xmlns:xlink="http://www.w3.org/1999/xlink" x="0px" y="0px"
	 viewBox="0 0 32 32" style="enable-background:new 0 0 32 32;" xml:space="preserve">
<style type="text/css">
	.st0{fill:#00AF9A;}
	.st1{fill:#FFFFFF;}
	.st2{fill:#00896D;}
	.st3{fill:#0072AA;}
</style>
<g>
	<g>
		<g>
			<g>
				<path class="st0" d="M0.5,23.219c0,1.93,1.57,3.5,3.5,3.5h24c1.93,0,3.5-1.57,3.5-3.5V8.012l-6.293-6.293H4
					c-1.93,0-3.5,1.57-3.5,3.5V23.219z"/>
				<path class="st1" d="M31,8.219v15c0,1.657-1.343,3-3,3H4c-1.657,0-3-1.343-3-3v-18c0-1.657,1.343-3,3-3h21L31,8.219 M32,7.805
					l-0.293-0.293l-6-6l-0.293-0.293H25H4c-2.206,0-4,1.794-4,4l0,18c0,2.206,1.794,4,4,4h24c2.206,0,4-1.794,4-4v-15V7.805
					L32,7.805z"/>
			</g>
		</g>
		<polygon class="st2" points="31,8.219 25,8.219 25,2.219 		"/>
	</g>
	<g>
		<g>
			<g>
				<path class="st1" d="M21.602,12.632c0.141-0.529,1.04-0.976,1.04-1.55c0-0.573-0.899-1.021-1.04-1.55
					c-0.146-0.547,0.404-1.383,0.127-1.862c-0.281-0.486-1.283-0.425-1.677-0.819c-0.394-0.394-0.334-1.396-0.82-1.677
					c-0.479-0.277-1.315,0.273-1.862,0.127c-0.529-0.141-0.976-1.04-1.55-1.04c-0.573,0-1.021,0.899-1.55,1.04
					c-0.547,0.146-1.383-0.404-1.862-0.127c-0.486,0.281-0.425,1.283-0.819,1.677c-0.394,0.394-1.396,0.334-1.677,0.82
					C9.636,8.15,10.186,8.986,10.04,9.533C9.899,10.062,9,10.509,9,11.083c0,0.573,0.899,1.021,1.04,1.55
					c0.146,0.547-0.404,1.383-0.127,1.862c0.281,0.486,1.283,0.425,1.677,0.819c0.394,0.394,0.334,1.396,0.82,1.677
					c0.479,0.277,1.315-0.273,1.862-0.127c0.529,0.141,0.976,1.04,1.55,1.04c0.573,0,1.021-0.899,1.55-1.04
					c0.547-0.146,1.383,0.404,1.862,0.127c0.486-0.281,0.425-1.283,0.819-1.677c0.394-0.394,1.396-0.334,1.677-0.82
					C22.006,14.015,21.456,13.179,21.602,12.632z"/>
			</g>
			<g>
				<path class="st1" d="M14.515,17.797c-0.008-0.013-0.017-0.026-0.026-0.041c-0.018,0.013-0.036,0.025-0.052,0.036
					c-0.324,0.226-0.692,0.482-1.141,0.482c-0.147,0-0.288-0.028-0.42-0.083c-0.625-0.259-0.741-0.918-0.827-1.399
					c-0.001-0.005-0.002-0.01-0.003-0.015L9.85,22.816l2.524-1.285l1.062,2.485l1.943-5.331
					C14.971,18.509,14.715,18.11,14.515,17.797z"/>
				<path class="st1" d="M18.767,18.192c-0.132,0.055-0.274,0.083-0.42,0.083c-0.449,0-0.817-0.256-1.141-0.483
					c-0.016-0.011-0.034-0.023-0.052-0.036c-0.009,0.014-0.018,0.028-0.026,0.041c-0.202,0.316-0.463,0.72-0.878,0.893l1.941,5.327
					l1.062-2.485l2.524,1.285l-2.186-6.009C19.506,17.287,19.386,17.936,18.767,18.192z"/>
			</g>
		</g>
	</g>
	<g>
		<g>
			<circle class="st3" cx="25" cy="24.281" r="6.5"/>
			<path class="st1" d="M25,31.281c-3.859,0-7-3.141-7-7s3.141-7,7-7s7,3.141,7,7S28.859,31.281,25,31.281z M25,18.281
				c-3.309,0-6,2.691-6,6s2.691,6,6,6s6-2.691,6-6S28.309,18.281,25,18.281z"/>
		</g>
		<g>
			<path class="st1" d="M29,24.856v-1.15h-1.189c-0.077-0.364-0.222-0.702-0.423-1l0.847-0.847l-0.813-0.813l-0.853,0.853
				c-0.298-0.195-0.633-0.337-0.994-0.41v-1.208h-1.15v1.208c-0.361,0.073-0.696,0.215-0.994,0.41l-0.853-0.853l-0.813,0.813
				l0.847,0.847c-0.2,0.299-0.345,0.637-0.423,1H21v1.15h1.18c0.072,0.37,0.215,0.714,0.414,1.019l-0.829,0.829l0.813,0.813
				l0.823-0.823c0.305,0.205,0.651,0.353,1.024,0.428v1.16h1.15v-1.16c0.373-0.076,0.719-0.224,1.024-0.428l0.823,0.823l0.813-0.813
				l-0.829-0.829c0.199-0.305,0.342-0.648,0.414-1.019L29,24.856z M25,26.029c-0.951,0-1.724-0.774-1.724-1.724
				c0-0.951,0.774-1.724,1.724-1.724c0.951,0,1.724,0.774,1.724,1.724C26.724,25.256,25.951,26.029,25,26.029z"/>
		</g>
	</g>
</g>
</svg>
