<?xml version="1.0" encoding="utf-8"?>
<!-- Generator: Adobe Illustrator 19.1.0, SVG Export Plug-In . SVG Version: 6.00 Build 0)  -->
<svg version="1.1" id="Layer_1" xmlns="http://www.w3.org/2000/svg" xmlns:xlink="http://www.w3.org/1999/xlink" x="0px" y="0px"
	 viewBox="0 0 48 48" enable-background="new 0 0 48 48" xml:space="preserve">
<g>
	<rect y="44" fill="#333333" width="48" height="4"/>
</g>
<g>
	<rect x="22" y="39" fill="#333333" width="4" height="9"/>
</g>
<g>
	<path fill="#FFFFFF" d="M11,10V4.4C11,2.884,10.75,1,12.267,1h22C37.322,1,37,2.884,37,4.4V10H11z"/>
	<path fill="#333333" d="M35,2c1.012,0,2,0.288,2,1.3V9H11V3.3C11,2.288,11.621,2,12.633,2H36 M36,0H12.267
		C10.244,0,9,0.911,9,2.933v5.5v1.833L11.472,12h25.667L39,10.267V8.433v-5.5C39,0.911,38.055,0,36.033,0"/>
	<path fill="#333333" d="M46,27.6c0,2.43-1.97,4.4-4.4,4.4H6.4C3.97,32,2,30.03,2,27.6V13.4C2,10.97,3.97,9,6.4,9h35.2
		c2.43,0,4.4,1.97,4.4,4.4V27.6z"/>
	<path fill="#FFFFFF" d="M37,16h-3.833c-1.008,0-1.833-0.693-1.833-1.5s0.825-1.5,1.833-1.5h3.667c1.008,0,1.833,0.76,1.833,1.567
		c0,0.807-0.742,1.45-1.75,1.45"/>
	<path fill="#FFFFFF" d="M13,40c-1.516,0-2-1.084-2-2.6V22h26v15.4c0,1.516-0.484,2.6-2,2.6H13z"/>
	<path fill="#333333" d="M37,22v15c0,1.012-0.255,2-1.267,2H12.267C11.255,39,11,38.012,11,37V22H37 M39,21h-2.167H11.167H9v1.733
		v16.133C9,40.082,10.318,41,11.533,41h24.933C37.682,41,39,40.082,39,38.867V22.733V21z"/>
	<rect x="15" y="26" fill="#333333" width="18" height="2"/>
	<rect x="15" y="31" fill="#333333" width="18" height="2"/>
</g>
</svg>
