<?xml version="1.0" encoding="utf-8"?>
<!-- Generator: Adobe Illustrator 19.1.0, SVG Export Plug-In . SVG Version: 6.00 Build 0)  -->
<svg version="1.1" id="Layer_1" xmlns="http://www.w3.org/2000/svg" xmlns:xlink="http://www.w3.org/1999/xlink" x="0px" y="0px"
	 viewBox="0 0 48 48" enable-background="new 0 0 48 48" xml:space="preserve">
<g>
	<path fill="#333333" d="M48,30.725c0,1.65-0.363,4.109-1.548,5.275L35.613,46.5C34.427,47.667,32.9,48,31.224,48H4.645
		C2.969,48,0,45.275,0,43.625V4.5C0,2.85,2.969,0,4.645,0h38.839C45.16,0,48,2.85,48,4.5V30.725z"/>
	<path fill="#2F292B" d="M33,26H7v18h26V26z M19,29h11v12H19V29z"/>
	<path fill="#FFFFFF" d="M33,23H7v19h26V23z M19,27h11v12H19V27z"/>
</g>
</svg>
