<?xml version="1.0" encoding="utf-8"?>
<!-- Generator: Adobe Illustrator 19.1.0, SVG Export Plug-In . SVG Version: 6.00 Build 0)  -->
<svg version="1.1" id="Layer_1" xmlns="http://www.w3.org/2000/svg" xmlns:xlink="http://www.w3.org/1999/xlink" x="0px" y="0px"
	 viewBox="0 0 48 48" enable-background="new 0 0 48 48" xml:space="preserve">
<g>
	<path fill="#333333" d="M36.83,19.439c-0.913-0.909-2.036-0.909-2.948,0L27,26.644V4.326C27,3.042,25.291,2,24,2
		c-1.288,0-3,1.042-3,2.326v22.247l-6.844-7.133c-0.913-0.909-2.233-0.909-3.143,0c-0.913,0.909-0.834,2.379,0.079,3.289
		l12.869,12.785L36.81,22.728C37.723,21.818,37.742,20.348,36.83,19.439"/>
	<path fill="#333333" d="M42,48H5.329c-1.288,0-2.334-1.216-2.334-2.5S4.04,43,5.329,43h37.343c1.288,0,2.334,1.097,2.334,2.381
		s-1.048,2.435-2.336,2.435"/>
</g>
</svg>
