<?xml version="1.0" encoding="utf-8"?>
<!-- Generator: Adobe Illustrator 19.1.0, SVG Export Plug-In . SVG Version: 6.00 Build 0)  -->
<svg version="1.1" id="Layer_1" xmlns="http://www.w3.org/2000/svg" xmlns:xlink="http://www.w3.org/1999/xlink" x="0px" y="0px"
	 viewBox="0 0 48 48" enable-background="new 0 0 48 48" xml:space="preserve">
<g>
	<g>
		<path fill="#333333" d="M8.316,37.656c-2.45,0-5.96-1.802-6.477-5.832c-0.084-0.653,0.311-1.259,0.879-1.356
			c0.577-0.096,1.1,0.355,1.183,1.009c0.374,2.92,3.094,3.897,4.634,3.78c1.322-0.111,3.77-1.505,3.77-4.532
			c0-0.66,0.467-1.195,1.042-1.195c0.575,0,1.042,0.535,1.042,1.195c0,4.367-3.316,6.714-5.702,6.915
			C8.565,37.651,8.441,37.656,8.316,37.656z"/>
	</g>
	<g>
		<path fill="#FFFFFF" d="M37.531,2C38.979,2,40,3.267,40,4.978V23H13V4.978C13,3.267,15.084,2,16.531,2H37.531z"/>
		<path fill="#333333" d="M44.5,11H9v17c0,1.515-0.758,2.821-2.218,3.021C7.403,31.585,8.595,32,9.5,32h35
			c1.934,0,3.5-1.691,3.5-3.625v-14C48,12.441,46.434,11,44.5,11z"/>
		<path fill="#FFFFFF" d="M39,17h-4.5c-0.963,0-1.5-0.538-1.5-1.5s0.537-1.5,1.5-1.5H39c0.962,0,1.5,0.538,1.5,1.5S39.962,17,39,17"
			/>
		<path fill="#333333" d="M36.5,4C37.466,4,38,3.909,38,4.875V11H15V4.875C15,3.909,15.534,4,16.5,4H36 M36,2H16.5
			C14.57,2,13,2.945,13,4.875v6V12h1.75h24.5H40v-1.125v-6C40,2.945,38.43,2,36.5,2"/>
		<path fill="#FFFFFF" d="M16.5,42c-1.447,0-3.5-0.455-3.5-2.166V23h27v16.834C40,41.545,38.947,42,37.5,42H16.5z"/>
		<path fill="#333333" d="M38,23v16.375C38,40.922,37.266,42,36,42H18c-1.547,0-3-1.078-3-2.625V23h24 M40,21h-0.993H15.04H13v1.875
			v16.5C13,42,15.609,44,18,44h18c2.297,0,4-1.953,4-4.625v-16.5V21z"/>
		<rect x="18" y="26" fill="#333333" width="17" height="2"/>
		<rect x="18" y="31" fill="#333333" width="17" height="2"/>
		<rect x="18" y="36" fill="#333333" width="17" height="2"/>
	</g>
	<path fill="#333333" d="M7,26.75C7,27.993,6.119,29,5.031,29H1.969C0.881,29,0,27.993,0,26.75V7.25C0,6.007,0.881,5,1.969,5h3.062
		C6.119,5,7,6.007,7,7.25V26.75z"/>
</g>
</svg>
