<?xml version="1.0" encoding="utf-8"?>
<!-- Generator: Adobe Illustrator 19.1.0, SVG Export Plug-In . SVG Version: 6.00 Build 0)  -->
<svg version="1.1" id="Layer_1" xmlns="http://www.w3.org/2000/svg" xmlns:xlink="http://www.w3.org/1999/xlink" x="0px" y="0px"
	 viewBox="0 0 48 48" enable-background="new 0 0 48 48" xml:space="preserve">
<g>
	<path fill="#333333" d="M3.273,6.318l20.726,18.673L44.727,6.261C43.83,5.674,43.442,5,42.289,5H5.711
		C4.558,5,4.171,5.73,3.273,6.318z"/>
	<path fill="#333333" d="M23.999,28.008c-0.181,0-0.362-0.062-0.507-0.191L1.429,8.513C0.551,9.518,0,10.817,0,12.257v24.577
		C0,39.988,2.557,43,5.711,43h36.577C45.443,43,48,39.988,48,36.834V12.257c0-1.44-0.551-2.739-1.43-3.744L24.506,27.817
		C24.36,27.946,24.18,28.008,23.999,28.008z"/>
</g>
</svg>
