<?xml version="1.0" encoding="utf-8"?>
<!-- Generator: Adobe Illustrator 19.1.0, SVG Export Plug-In . SVG Version: 6.00 Build 0)  -->
<svg version="1.1" id="Layer_1" xmlns="http://www.w3.org/2000/svg" xmlns:xlink="http://www.w3.org/1999/xlink" x="0px" y="0px"
	 viewBox="0 0 48 48" enable-background="new 0 0 48 48" xml:space="preserve">
<g>
	<path fill="#333333" d="M11.17,28.686c0.913,0.909,2.036,0.909,2.948,0L21,21.481v22.319c0,1.284,1.709,2.326,3,2.326
		c1.288,0,3-1.042,3-2.326V21.553l6.844,7.133c0.913,0.909,2.233,0.909,3.143,0c0.913-0.909,0.834-2.379-0.079-3.289L24.039,12.612
		L11.19,25.397C10.277,26.307,10.258,27.777,11.17,28.686"/>
	<path fill="#333333" d="M6,0h36.671c1.288,0,2.334,1.216,2.334,2.5S43.96,5,42.671,5H5.329C4.04,5,2.995,3.966,2.995,2.682
		s1.048-2.466,2.336-2.466"/>
</g>
</svg>
