<?xml version="1.0" encoding="utf-8"?>
<!-- Generator: Adobe Illustrator 17.1.0, SVG Export Plug-In . SVG Version: 6.00 Build 0)  -->
<!DOCTYPE svg PUBLIC "-//W3C//DTD SVG 1.1//EN" "http://www.w3.org/Graphics/SVG/1.1/DTD/svg11.dtd">
<svg version="1.1" id="Layer_1" xmlns="http://www.w3.org/2000/svg" xmlns:xlink="http://www.w3.org/1999/xlink" x="0px" y="0px"
	 viewBox="0 0 24 24" enable-background="new 0 0 24 24" xml:space="preserve">
<g>
	<rect fill="#DFE7EA" width="24" height="24"/>
</g>
<path fill="#333333" d="M16,5v4c0,2.209-1.791,4-4,4H8l-2.788,2.637C4.545,16.268,4,16.055,4,15.162V13c-2.209,0-4-1.791-4-4V5
	c0-2.209,1.791-4,4-4h8C14.209,1,16,2.791,16,5z M6,12.139L7.204,11H12c1.103,0,2-0.897,2-2V5c0-1.103-0.897-2-2-2H4
	C2.897,3,2,3.897,2,5v4c0,1.103,0.897,2,2,2h2V12.139z"/>
<path fill="#333333" d="M20,7h-2v2h2c1.103,0,2,0.897,2,2v4c0,1.103-0.897,2-2,2h-2v1.139L16.796,17H12c-1.103,0-2-0.897-2-2H8.796
	l-0.727,0.688C8.397,17.568,10.026,19,12,19h4l2.788,2.637C19.455,22.268,20,22.055,20,21.162V19c2.209,0,4-1.791,4-4v-4
	C24,8.791,22.209,7,20,7z"/>
</svg>
