<?xml version="1.0" encoding="utf-8"?>
<!-- Generator: Adobe Illustrator 17.1.0, SVG Export Plug-In . SVG Version: 6.00 Build 0)  -->
<!DOCTYPE svg PUBLIC "-//W3C//DTD SVG 1.1//EN" "http://www.w3.org/Graphics/SVG/1.1/DTD/svg11.dtd">
<svg version="1.1" id="Layer_1" xmlns="http://www.w3.org/2000/svg" xmlns:xlink="http://www.w3.org/1999/xlink" x="0px" y="0px"
	 viewBox="0 0 24 24" enable-background="new 0 0 24 24" xml:space="preserve">
<g>
	<rect x="0" fill="#BAC9CE" width="24" height="24"/>
</g>
<path fill="#333333" d="M16,5v4c0,2.209-1.791,4-4,4H8l-2.788,2.637C4.545,16.268,4,16.055,4,15.162V13c-2.209,0-4-1.791-4-4V5
	c0-2.209,1.791-4,4-4h8C14.209,1,16,2.791,16,5z M6,12.139L7.204,11H12c1.103,0,2-0.897,2-2V5c0-1.103-0.897-2-2-2H4
	C2.897,3,2,3.897,2,5v4c0,1.103,0.897,2,2,2h2V12.139z"/>
<path fill="#333333" d="M20,7h-2v2h2c1.103,0,2,0.897,2,2v4c0,1.103-0.897,2-2,2h-2v1.139L16.796,17H12c-1.103,0-2-0.897-2-2H8.796
	l-0.727,0.688C8.397,17.568,10.026,19,12,19h4l2.788,2.637C19.455,22.268,20,22.055,20,21.162V19c2.209,0,4-1.791,4-4v-4
	C24,8.791,22.209,7,20,7z"/>
<g>
	<g>
		<path fill="#333333" d="M26.468,84c-0.136,0-0.272-0.052-0.376-0.156l-6.779-6.779c-0.208-0.208-0.208-0.544,0-0.752
			c0.208-0.208,0.544-0.208,0.752,0l6.779,6.779c0.208,0.208,0.208,0.544,0,0.752C26.74,83.948,26.604,84,26.468,84z"/>
	</g>
	<g>
		<path fill="#333333" d="M12.733,79.468C7.366,79.468,3,75.101,3,69.734C3,64.367,7.366,60,12.733,60s9.734,4.367,9.734,9.734
			C22.468,75.101,18.1,79.468,12.733,79.468z M12.733,61.063c-4.78,0-8.67,3.89-8.67,8.671c0,4.781,3.89,8.671,8.67,8.671
			c4.782,0,8.671-3.89,8.671-8.671C21.405,64.953,17.515,61.063,12.733,61.063z"/>
	</g>
</g>
<path fill="#333333" d="M18.054,72.551c-0.088-0.593-0.897-1.097-1.673-1.461c0.001-0.001,0.002-0.002,0.003-0.003
	c-0.012-0.004-0.026-0.009-0.038-0.014c-0.631-0.293-1.231-0.492-1.394-0.569c-0.286-0.135-0.569-0.548-0.681-0.779
	c-0.021-0.059-0.04-0.111-0.053-0.15c-0.001-0.035-0.016-0.095-0.035-0.168c-0.009-0.134-0.011-0.393,0.092-0.547
	c0.023-0.035,0.069-0.21,0.12-0.425c0.087-0.267,0.134-0.555,0.134-0.555s0.113-0.259,0.339-0.576
	c0.225-0.317,0.224-1.122,0.028-1.096c-0.033,0.004-0.049,0.021-0.071,0.034c-0.024-0.023-0.049-0.036-0.073-0.044
	c0.006-0.077,0.016-0.175,0.031-0.248c0.063-0.294,0.095-1.792,0.067-1.964c-0.028-0.173-0.222-0.53-0.783-0.789
	c-0.087-0.04-0.357-0.096-0.675-0.138c-0.17-0.029-0.356-0.051-0.58-0.057c-0.046-0.001-0.096,0-0.145,0.001
	c-0.049-0.001-0.099-0.002-0.145-0.001c-0.224,0.006-0.41,0.028-0.58,0.057c-0.318,0.042-0.588,0.097-0.675,0.138
	c-0.561,0.26-0.754,0.616-0.783,0.789c-0.028,0.173,0.004,1.67,0.067,1.964c0.016,0.073,0.025,0.172,0.031,0.248
	c-0.024,0.009-0.049,0.021-0.073,0.044c-0.022-0.013-0.038-0.03-0.071-0.034c-0.196-0.026-0.197,0.779,0.028,1.096
	c0.226,0.317,0.339,0.576,0.339,0.576s0.048,0.288,0.134,0.555c0.051,0.215,0.097,0.391,0.12,0.425
	c0.103,0.154,0.101,0.413,0.092,0.547c-0.018,0.073-0.033,0.134-0.035,0.168c-0.014,0.039-0.032,0.091-0.053,0.15
	c-0.112,0.231-0.396,0.644-0.682,0.779c-0.163,0.077-0.764,0.276-1.394,0.569c-0.012,0.005-0.026,0.01-0.038,0.014
	c0.001,0.001,0.002,0.002,0.003,0.003c-0.776,0.364-1.586,0.868-1.673,1.461c-0.077,0.526-0.113,1.038-0.113,1.038
	c0,0.78,0.616,1.412,1.375,1.412h8.25c0.759,0,1.375-0.632,1.375-1.412C18.167,73.589,18.131,73.077,18.054,72.551z"/>
</svg>
