<?xml version="1.0" encoding="utf-8"?>
<!-- Generator: Adobe Illustrator 19.1.0, SVG Export Plug-In . SVG Version: 6.00 Build 0)  -->
<svg version="1.1" id="Layer_1" xmlns="http://www.w3.org/2000/svg" xmlns:xlink="http://www.w3.org/1999/xlink" x="0px" y="0px"
	 viewBox="0 0 24 24" style="enable-background:new 0 0 24 24;" xml:space="preserve">
<style type="text/css">
	.st0{fill:#FFFFFF;stroke:#666666;stroke-miterlimit:10;}
	.st1{fill:#CD3632;}
</style>
<g>
	<g>
		<path class="st0" d="M21,23H3c-1.105,0-2-0.895-2-2V3c0-1.105,0.895-2,2-2h18c1.105,0,2,0.895,2,2v18C23,22.105,22.105,23,21,23z"
			/>
	</g>
</g>
<g>
	<path class="st1" d="M18.032,15.978l-4.107-4.107l3.85-3.85c0.513-0.513,0.513-1.283,0-1.797s-1.283-0.513-1.797,0l-3.85,3.85
		L8.022,5.968c-0.513-0.513-1.283-0.513-1.797,0s-0.513,1.283,0,1.797l4.107,4.107l-4.363,4.363c-0.513,0.513-0.513,1.283,0,1.797
		c0.513,0.513,1.283,0.513,1.797,0l4.363-4.363l4.107,4.107c0.513,0.513,1.283,0.513,1.797,0
		C18.545,17.262,18.545,16.492,18.032,15.978z"/>
</g>
</svg>
