<svg id="measures" xmlns="http://www.w3.org/2000/svg" xmlns:xlink="http://www.w3.org/1999/xlink" viewBox="0 0 20 20"><defs><style>.cls-1{fill:none;clip-rule:evenodd;}.cls-2{fill:#fff;}.cls-3{fill:#9a9a9a;}.cls-4{clip-path:url(#clip-path);}</style><clipPath id="clip-path"><polyline class="cls-1" points="327.767 -477.301 327.639 -477.173 327.51 -477.044 327.896 -476.915 327.896 -477.301"/></clipPath></defs><title>specifications - forms - CUX2 March7</title><path class="cls-2" d="M10,19.5A9.56,9.56,0,0,1,.5,10,9.56,9.56,0,0,1,10,.5,9.56,9.56,0,0,1,19.5,10,9.56,9.56,0,0,1,10,19.5Z"/><path class="cls-3" d="M10,1a9,9,0,1,1-9,9,8.963,8.963,0,0,1,9-9m0-1A10,10,0,1,0,20,10,10.029,10.029,0,0,0,10,0h0Z"/><path class="cls-3" d="M11.4,10l2.8-2.8a0.99,0.99,0,1,0-1.4-1.4L10,8.6,7.2,5.8A0.99,0.99,0,1,0,5.8,7.2L8.6,10,5.8,12.8a0.967,0.967,0,0,0,0,1.4,1.08,1.08,0,0,0,.7.3,0.908,0.908,0,0,0,.7-0.3L10,11.4l2.8,2.8a1.08,1.08,0,0,0,.7.3,0.908,0.908,0,0,0,.7-0.3,0.967,0.967,0,0,0,0-1.4Z"/></svg>