<?xml version="1.0" encoding="utf-8"?>
<!-- Generator: Adobe Illustrator 19.1.0, SVG Export Plug-In . SVG Version: 6.00 Build 0)  -->
<svg version="1.1" id="Layer_1" xmlns="http://www.w3.org/2000/svg" xmlns:xlink="http://www.w3.org/1999/xlink" x="0px" y="0px"
	 viewBox="0 0 24 24" style="enable-background:new 0 0 24 24;" xml:space="preserve">
<style type="text/css">
	.st0{fill:#FFFFFF;}
	.st1{fill:#DCDCDC;}
	.st2{fill:#565656;}
</style>
<g>
	<g>
		<g>
			<path class="st0" d="M12,0.5C5.659,0.5,0.5,5.659,0.5,12c0,6.341,5.159,11.5,11.5,11.5c6.341,0,11.5-5.159,11.5-11.5
				C23.5,5.659,18.341,0.5,12,0.5z"/>
		</g>
		<g>
			<path class="st1" d="M12,23C5.935,23,1,18.065,1,12S5.935,1,12,1s11,4.935,11,11S18.065,23,12,23 M12,24c6.627,0,12-5.373,12-12
				S18.627,0,12,0S0,5.373,0,12S5.373,24,12,24L12,24z"/>
		</g>
	</g>
	<g>
		<g>
			<path class="st2" d="M12,8.721l-4.639,4.64c-0.195,0.195-0.195,0.512,0,0.707s0.512,0.195,0.707,0L12,10.135l3.933,3.933
				c0.195,0.195,0.512,0.195,0.707,0s0.195-0.512,0-0.707L12,8.721z"/>
		</g>
	</g>
</g>
</svg>
