<?xml version="1.0" encoding="utf-8"?>
<!-- Generator: Adobe Illustrator 19.1.0, SVG Export Plug-In . SVG Version: 6.00 Build 0)  -->
<svg version="1.1" id="Layer_1" xmlns="http://www.w3.org/2000/svg" xmlns:xlink="http://www.w3.org/1999/xlink" x="0px" y="0px"
	 viewBox="0 0 24 24" style="enable-background:new 0 0 24 24;" xml:space="preserve">
<style type="text/css">
	.st0{fill:#FFFFFF;}
	.st1{fill:#DCDCDC;}
	.st2{fill:#565656;}
</style>
<g>
	<g>
		<g>
			<path class="st0" d="M12,23.5C5.659,23.5,0.5,18.341,0.5,12C0.5,5.659,5.659,0.5,12,0.5c6.341,0,11.5,5.159,11.5,11.5
				C23.5,18.341,18.341,23.5,12,23.5z"/>
		</g>
		<g>
			<path class="st1" d="M12,1c6.065,0,11,4.935,11,11s-4.935,11-11,11S1,18.065,1,12S5.935,1,12,1 M12,0C5.373,0,0,5.373,0,12
				s5.373,12,12,12s12-5.373,12-12S18.627,0,12,0L12,0z"/>
		</g>
	</g>
	<g>
		<g>
			<path class="st2" d="M12,15.279l-4.639-4.64c-0.195-0.195-0.195-0.512,0-0.707s0.512-0.195,0.707,0L12,13.865l3.933-3.933
				c0.195-0.195,0.512-0.195,0.707,0s0.195,0.512,0,0.707L12,15.279z"/>
		</g>
	</g>
</g>
</svg>
