<?xml version="1.0" encoding="utf-8"?>
<!-- Generator: Adobe Illustrator 19.1.0, SVG Export Plug-In . SVG Version: 6.00 Build 0)  -->
<!DOCTYPE svg PUBLIC "-//W3C//DTD SVG 1.0//EN" "http://www.w3.org/TR/2001/REC-SVG-20010904/DTD/svg10.dtd">
<svg version="1.0" id="Layer_1" xmlns="http://www.w3.org/2000/svg" xmlns:xlink="http://www.w3.org/1999/xlink" x="0px" y="0px"
	 viewBox="0 0 24 24" enable-background="new 0 0 24 24" xml:space="preserve">
<g>
	<g>
		<path fill="#FFFFFF" d="M12,21.6c-2.5,0-4.9-1-6.7-2.8c-3.7-3.7-3.7-9.7,0-13.4C7.1,3.6,9.5,2.6,12,2.6s4.9,1,6.7,2.8
			c3.7,3.7,3.7,9.7,0,13.4C16.9,20.6,14.5,21.6,12,21.6z"/>
		<path fill="#0072AA" d="M12,3c2.4,0,4.7,0.9,6.4,2.6c3.5,3.5,3.5,9.2,0,12.8c-1.7,1.7-4,2.6-6.4,2.6s-4.7-0.9-6.4-2.6
			c-3.5-3.5-3.5-9.2,0-12.8C7.3,3.9,9.6,3,12,3 M12,2C9.4,2,6.9,3,4.9,4.9C1,8.8,1,15.2,4.9,19.1c2,2,4.5,2.9,7.1,2.9s5.1-1,7.1-2.9
			c3.9-3.9,3.9-10.3,0-14.2C17.1,3,14.6,2,12,2L12,2z"/>
	</g>
	<path fill="#0072AA" d="M17,11h-4V7c0-0.6-0.4-1-1-1s-1,0.4-1,1v4H7c-0.6,0-1,0.4-1,1s0.4,1,1,1h4v4c0,0.6,0.4,1,1,1s1-0.4,1-1v-4
		h4c0.6,0,1-0.4,1-1S17.6,11,17,11z"/>
</g>
</svg>
