<?xml version="1.0" encoding="utf-8"?>
<!-- Generator: Adobe Illustrator 19.2.1, SVG Export Plug-In . SVG Version: 6.00 Build 0)  -->
<svg version="1.1" id="Layer_1" xmlns="http://www.w3.org/2000/svg" xmlns:xlink="http://www.w3.org/1999/xlink" x="0px" y="0px"
	 viewBox="0 0 24 24" style="enable-background:new 0 0 24 24;" xml:space="preserve">
<style type="text/css">
	.st0{fill:#D66F28;}
	.st1{fill:#333333;}
</style>
<rect x="1" y="12" class="st0" width="8" height="6"/>
<rect x="15" y="12" class="st0" width="8" height="6"/>
<rect x="4" y="18" class="st1" width="2" height="6"/>
<rect x="18" y="18" class="st1" width="2" height="6"/>
<path class="st1" d="M18,5h-3h-1c-0.6,0-1-0.4-1-1V0h-2v4c0,0.6-0.4,1-1,1H9H6C4.9,5,4,5.9,4,7v5h2V7h3h2c0.6,0,1-0.4,1-1
	c0,0.6,0.4,1,1,1h2h3v5h2V7C20,5.9,19.1,5,18,5z"/>
</svg>
