<?xml version="1.0" encoding="utf-8"?>
<!-- Generator: Adobe Illustrator 20.1.0, SVG Export Plug-In . SVG Version: 6.00 Build 0)  -->
<!DOCTYPE svg PUBLIC "-//W3C//DTD SVG 1.1//EN" "http://www.w3.org/Graphics/SVG/1.1/DTD/svg11.dtd">
<svg version="1.1" id="Layer_1" xmlns="http://www.w3.org/2000/svg" xmlns:xlink="http://www.w3.org/1999/xlink" x="0px" y="0px"
	 viewBox="0 0 24 24" enable-background="new 0 0 24 24" xml:space="preserve">
<g>
	<path fill="#999999" d="M14.121,12l8.939-8.939c0.586-0.586,0.586-1.535,0-2.121s-1.535-0.586-2.121,0L12,9.879L3.061,0.939
		c-0.586-0.586-1.535-0.586-2.121,0s-0.586,1.535,0,2.121L9.879,12l-8.939,8.939c-0.586,0.586-0.586,1.535,0,2.121
		C1.232,23.354,1.616,23.5,2,23.5s0.768-0.146,1.061-0.439L12,14.121l8.939,8.939C21.232,23.354,21.616,23.5,22,23.5
		s0.768-0.146,1.061-0.439c0.586-0.586,0.586-1.535,0-2.121L14.121,12z"/>
</g>
</svg>
