<?xml version="1.0" encoding="utf-8"?>
<!-- Generator: Adobe Illustrator 19.1.0, SVG Export Plug-In . SVG Version: 6.00 Build 0)  -->
<!DOCTYPE svg PUBLIC "-//W3C//DTD SVG 1.1//EN" "http://www.w3.org/Graphics/SVG/1.1/DTD/svg11.dtd">
<svg version="1.1" id="Layer_1" xmlns="http://www.w3.org/2000/svg" xmlns:xlink="http://www.w3.org/1999/xlink" x="0px" y="0px"
	 viewBox="2 -2 28 28" enable-background="new 2 -2 28 28" xml:space="preserve">
<g>
	<g>
		<path fill="#FFFFFF" d="M16,25.5C8.556,25.5,2.5,19.444,2.5,12S8.556-1.5,16-1.5S29.5,4.556,29.5,12S23.444,25.5,16,25.5z"/>
		<path fill="#DCDCDC" d="M16-1c7.168,0,13,5.832,13,13s-5.832,13-13,13S3,19.168,3,12S8.832-1,16-1 M16-2C8.268-2,2,4.268,2,12
			s6.268,14,14,14s14-6.268,14-14S23.732-2,16-2L16-2z"/>
	</g>
	<path fill="#565656" d="M16.707,12l4.396-4.396c0.195-0.195,0.195-0.512,0-0.707s-0.512-0.195-0.707,0L16,11.293l-4.396-4.396
		c-0.195-0.195-0.512-0.195-0.707,0s-0.195,0.512,0,0.707L15.293,12l-4.396,4.396c-0.195,0.195-0.195,0.512,0,0.707
		c0.098,0.098,0.226,0.146,0.354,0.146s0.256-0.049,0.354-0.146l4.396-4.396l4.396,4.396c0.098,0.098,0.226,0.146,0.354,0.146
		s0.256-0.049,0.354-0.146c0.195-0.195,0.195-0.512,0-0.707L16.707,12z"/>
</g>
</svg>
