<?xml version="1.0" encoding="utf-8"?>
<!-- Generator: Adobe Illustrator 21.0.2, SVG Export Plug-In . SVG Version: 6.00 Build 0)  -->
<!DOCTYPE svg PUBLIC "-//W3C//DTD SVG 1.1//EN" "http://www.w3.org/Graphics/SVG/1.1/DTD/svg11.dtd">
<svg version="1.1" id="Layer_1" xmlns="http://www.w3.org/2000/svg" xmlns:xlink="http://www.w3.org/1999/xlink" x="0px" y="0px"
	 viewBox="0 0 24 24" style="enable-background:new 0 0 24 24;" xml:space="preserve">
<style type="text/css">
	.st0{fill:#666666;}
	.st1{fill:#0072AA;}
	.st2{fill:#FFFFFF;}
</style>
<path class="st0" d="M10.5,18.5l7.9-7.9c0.8-0.8,1.8-1.2,2.9-1.2c0.2,0,0.4,0,0.5,0.1C21.1,4.1,16.6,0,11,0C4.9,0,0,4.9,0,11
	c0,5.7,4.3,10.4,9.8,10.9L10.5,18.5z"/>
<g>
	<path class="st1" d="M23.2,15.5c1-1,1-2.7,0-3.8l0,0c-1-1-2.7-1-3.8,0l-0.9,0.9l3.8,3.8L23.2,15.5z"/>
	<polygon class="st1" points="11.9,19.3 11,24 15.7,23.1 21.3,17.4 17.6,13.6 	"/>
</g>
<g>
	<circle class="st2" cx="12" cy="5" r="1.8"/>
</g>
<path class="st2" d="M12.2,16.9c-0.9-0.4-0.6-1.3-0.6-1.3L13,8H8.1l-0.4,2h1.7c0,0-0.3,2.4-1,4.9c-0.6,2.4,0.9,3.2,2.3,3.4
	L12.2,16.9z"/>
</svg>
