<?xml version="1.0" encoding="utf-8"?>
<!-- Generator: Adobe Illustrator 21.0.2, SVG Export Plug-In . SVG Version: 6.00 Build 0)  -->
<!DOCTYPE svg PUBLIC "-//W3C//DTD SVG 1.1//EN" "http://www.w3.org/Graphics/SVG/1.1/DTD/svg11.dtd">
<svg version="1.1" id="Layer_1" xmlns="http://www.w3.org/2000/svg" xmlns:xlink="http://www.w3.org/1999/xlink" x="0px" y="0px"
	 viewBox="0 0 24 24" style="enable-background:new 0 0 24 24;" xml:space="preserve">
<style type="text/css">
	.st0{fill:#FFFFFF;}
	.st1{fill:#CCCCCC;}
	.st2{fill:#666666;}
	.st3{fill:#0072AA;}
</style>
<path class="st0" d="M10.5,15.3c0-0.9,0.6-1.7,1.3-2v-0.9c0-3.3,2.7-6,6-6h0.4c1,0,2,0.3,2.8,0.7V5l-4-4H5.2C4,1,3,1.8,3,3v18
	c0,1.2,1,2,2.3,2h5.3V15.3z"/>
<polygon class="st1" points="17,1 17,5 21,5 "/>
<g id="edit_icon_2_">
	<g id="edit_icon_2_2_">
	</g>
	<g id="trash_icon_2_">
		<g id="trash_2_">
		</g>
	</g>
	<g>
		<path class="st2" d="M10.5,23.3V23H5.3C4,23,3,22.2,3,21V3c0-1.2,1-2,2.3-2H17l4,4v2.2c0.4,0.2,0.7,0.4,1,0.7V4.5L17.5,0H5.3
			C3.6,0,2,1.3,2,3v18c0,1.7,1.6,3,3.3,3h5.4C10.5,23.8,10.5,23.6,10.5,23.3z"/>
		<path class="st3" d="M23.3,14.7h-0.7v-2.2c0-2.5-2-4.5-4.5-4.5h-0.4c-2.5,0-4.5,2-4.5,4.5v2.2h-0.7c-0.4,0-0.7,0.3-0.7,0.7v8
			c0,0.4,0.3,0.7,0.7,0.7h10.7c0.4,0,0.7-0.3,0.7-0.7v-8C24,15,23.7,14.7,23.3,14.7z M14.7,12.5c0-1.7,1.4-3.1,3.1-3.1h0.4
			c1.7,0,3.1,1.4,3.1,3.1v2.2h-6.7V12.5z"/>
	</g>
</g>
</svg>
