<?xml version="1.0" encoding="utf-8"?>
<!-- Generator: Adobe Illustrator 21.0.2, SVG Export Plug-In . SVG Version: 6.00 Build 0)  -->
<!DOCTYPE svg PUBLIC "-//W3C//DTD SVG 1.1//EN" "http://www.w3.org/Graphics/SVG/1.1/DTD/svg11.dtd">
<svg version="1.1" id="Layer_1" xmlns="http://www.w3.org/2000/svg" xmlns:xlink="http://www.w3.org/1999/xlink" x="0px" y="0px"
	 viewBox="0 0 24 24" style="enable-background:new 0 0 24 24;" xml:space="preserve">
<style type="text/css">
	.st0{fill:#FFFFFF;}
	.st1{fill:#666666;}
	.st2{fill:#CCCCCC;}
	.st3{fill:#0072AA;}
</style>
<g>
	<g>
		<path class="st0" d="M9,19.4c0-1.6,3.2-5.5,8-5.5c1.5,0,2.9,0.4,4,1V5l-4-4H5.3C4,1,3,1.8,3,3v18c0,1.2,1,2,2.3,2h6.3
			C9.9,21.8,9,20.2,9,19.4z"/>
	</g>
	<g>
		<path class="st1" d="M11.6,23H5.3C4,23,3,22.2,3,21V3c0-1.2,1-2,2.3-2H17l4,4v9.8c0.4,0.2,0.7,0.4,1,0.6V4.5L17.5,0H5.3
			C3.6,0,2,1.3,2,3v18c0,1.7,1.6,3,3.3,3h7.9C12.6,23.7,12,23.4,11.6,23z"/>
	</g>
	<polygon class="st2" points="17,1 17,5 21,5 	"/>
	<g>
		<path class="st0" d="M17,23.1c-3.9,0-6.1-3.2-6.2-3.7c0.1-0.5,2.3-3.7,6.2-3.7s6,3.1,6.2,3.7C23,20,20.9,23.1,17,23.1z"/>
		<path class="st3" d="M17,14.8c-4.4,0-7.1,3.6-7.1,4.6S12.6,24,17,24s7.1-3.6,7.1-4.6S21.4,14.8,17,14.8z M17,23.1
			c-3.9,0-6.1-3.2-6.2-3.7c0.1-0.5,2.3-3.7,6.2-3.7s6,3.1,6.2,3.7C23,20,20.9,23.1,17,23.1z"/>
		<path class="st3" d="M19.8,18.4c-0.2,0.6-0.7,1-1.3,1.1c-0.9,0.1-1.8-0.5-1.9-1.4c-0.1-0.8,0.4-1.6,1.1-1.8
			c-0.2-0.1-0.4-0.1-0.7-0.1c-1.7,0-3,1.4-3,3c0,1.7,1.4,3,3,3c1.6,0,3-1.3,2.9-3C19.9,19,19.8,18.7,19.8,18.4z"/>
	</g>
</g>
</svg>
