<?xml version="1.0" encoding="utf-8"?>
<!-- Generator: Adobe Illustrator 21.0.2, SVG Export Plug-In . SVG Version: 6.00 Build 0)  -->
<!DOCTYPE svg PUBLIC "-//W3C//DTD SVG 1.1//EN" "http://www.w3.org/Graphics/SVG/1.1/DTD/svg11.dtd">
<svg version="1.1" id="Layer_1" xmlns="http://www.w3.org/2000/svg" xmlns:xlink="http://www.w3.org/1999/xlink" x="0px" y="0px"
	 viewBox="0 0 24 24" style="enable-background:new 0 0 24 24;" xml:space="preserve">
<style type="text/css">
	.st0{fill:#FFFFFF;}
	.st1{fill:#CCCCCC;}
	.st2{fill:#0072AA;}
	.st3{fill:#666666;}
</style>
<path class="st0" d="M10.5,18.5l7.9-7.9C19.1,10,20,9.6,21,9.5V5l-4-4H5.3C4,1,3,1.8,3,3v18c0,1.2,1,2,2.3,2h4.4L10.5,18.5z"/>
<polygon class="st1" points="17,1 17,5 21,5 "/>
<g>
	<g>
		<path class="st2" d="M23.2,15.5c1-1,1-2.7,0-3.8l0,0c-1-1-2.7-1-3.8,0l-0.9,0.9l3.8,3.8L23.2,15.5z"/>
		<polygon class="st2" points="11.9,19.3 11,24 15.7,23.1 21.3,17.4 17.6,13.6 		"/>
	</g>
	<g>
		<path class="st0" d="M20.3,22.5C20.4,22.4,20.4,22.4,20.3,22.5L20.3,22.5z"/>
	</g>
	<g>
		<path class="st3" d="M9.6,23H5.3C4,23,3,22.2,3,21V3c0-1.2,1-2,2.3-2H17l4,4v4.5c0.1,0,0.2,0,0.3,0c0.2,0,0.4,0,0.7,0.1v-5L17.5,0
			H5.3C3.6,0,2,1.3,2,3v18c0,1.7,1.6,3,3.3,3h4.2L9.6,23z"/>
		<path class="st3" d="M21,19.9V21c0,1.2-1,2-2.3,2h-0.9l-1,1h1.9c1.7,0,3.3-1.3,3.3-3v-2.1L21,19.9z"/>
	</g>
</g>
</svg>
