<?xml version="1.0" encoding="utf-8"?>
<!-- Generator: Adobe Illustrator 21.0.2, SVG Export Plug-In . SVG Version: 6.00 Build 0)  -->
<!DOCTYPE svg PUBLIC "-//W3C//DTD SVG 1.1//EN" "http://www.w3.org/Graphics/SVG/1.1/DTD/svg11.dtd">
<svg version="1.1" id="Layer_1" xmlns="http://www.w3.org/2000/svg" xmlns:xlink="http://www.w3.org/1999/xlink" x="0px" y="0px"
	 viewBox="0 0 24 24" style="enable-background:new 0 0 24 24;" xml:space="preserve">
<style type="text/css">
	.st0{fill:#BC2424;}
</style>
<path class="st0" d="M12,0C5.4,0,0,5.4,0,12s5.4,12,12,12s12-5.4,12-12S18.6,0,12,0z M2.7,12c0-2.1,0.7-4,1.9-5.6l13,13
	c-1.6,1.2-3.5,1.9-5.6,1.9C6.9,21.3,2.7,17.1,2.7,12z M19.4,17.6l-13-13C8,3.4,9.9,2.7,12,2.7c5.1,0,9.3,4.2,9.3,9.3
	C21.3,14.1,20.6,16,19.4,17.6z"/>
</svg>
