<?xml version="1.0" encoding="utf-8"?>
<!-- Generator: Adobe Illustrator 21.0.2, SVG Export Plug-In . SVG Version: 6.00 Build 0)  -->
<!DOCTYPE svg PUBLIC "-//W3C//DTD SVG 1.1//EN" "http://www.w3.org/Graphics/SVG/1.1/DTD/svg11.dtd">
<svg version="1.1" id="Layer_1" xmlns="http://www.w3.org/2000/svg" xmlns:xlink="http://www.w3.org/1999/xlink" x="0px" y="0px"
	 viewBox="0 0 24 24" style="enable-background:new 0 0 24 24;" xml:space="preserve">
<style type="text/css">
	.st0{fill:#FFFFFF;}
	.st1{fill:#CCCCCC;}
	.st2{fill:#666666;}
	.st3{fill:#0072AA;}
</style>
<path class="st0" d="M8.3,19.4c0-2.1,3.6-6.1,8.6-6.1c1.5,0,2.9,0.4,4.1,1V5l-4-4H5.3C4,1,3,1.8,3,3v18c0,1.2,1,2,2.3,2h5.3
	C9.1,21.8,8.3,20.4,8.3,19.4z"/>
<polygon class="st1" points="17,1 17,5 21,5 "/>
<g>
	<path class="st0" d="M16.9,23.1c-3.9,0-6.1-3.2-6.2-3.7c0.1-0.5,2.3-3.7,6.2-3.7s6,3.1,6.2,3.7C22.9,20,20.8,23.1,16.9,23.1z"/>
	<path class="st2" d="M10.5,23H5.3C4,23,3,22.2,3,21V3c0-1.2,1-2,2.3-2H17l4,4v9.2c0.4,0.2,0.7,0.4,1,0.6V4.5L17.5,0H5.3
		C3.6,0,2,1.3,2,3v18c0,1.7,1.6,3,3.3,3h6.6C11.4,23.7,10.9,23.4,10.5,23z"/>
	<path class="st3" d="M16.9,14.8c-4.4,0-7.1,3.6-7.1,4.6s2.7,4.6,7.1,4.6s7.1-3.6,7.1-4.6S21.3,14.8,16.9,14.8z M16.9,23.1
		c-3.9,0-6.1-3.2-6.2-3.7c0.1-0.5,2.3-3.7,6.2-3.7s6,3.1,6.2,3.7C22.9,20,20.8,23.1,16.9,23.1z"/>
	<path class="st3" d="M19.7,18.4c-0.2,0.6-0.7,1-1.3,1.1c-0.9,0.1-1.8-0.5-1.9-1.4c-0.1-0.8,0.4-1.6,1.1-1.8
		c-0.2-0.1-0.4-0.1-0.7-0.1c-1.7,0-3,1.4-3,3c0,1.7,1.4,3,3,3c1.6,0,3-1.3,2.9-3C19.8,19,19.7,18.7,19.7,18.4z"/>
</g>
<path class="st2" d="M16.9,13.3C16.9,13.3,16.9,13.3,16.9,13.3C17,13.3,17,13.3,16.9,13.3c0.2,0,0.3,0,0.4,0
	c0.3-0.7,0.5-1.5,0.5-2.3c0-3.2-2.6-5.7-5.7-5.7S6.3,7.8,6.3,11c0,2.4,1.5,4.5,3.6,5.3C11.4,14.7,13.9,13.3,16.9,13.3z"/>
<path class="st0" d="M10.9,13.8l-2.6-2.6c-0.2-0.2-0.2-0.6,0-0.8c0.2-0.2,0.6-0.2,0.8,0l1.8,1.8l3.9-3.8c0.2-0.2,0.6-0.2,0.8,0
	s0.2,0.6,0,0.8L10.9,13.8z"/>
</svg>
