<?xml version="1.0" encoding="utf-8"?>
<!-- Generator: Adobe Illustrator 21.0.2, SVG Export Plug-In . SVG Version: 6.00 Build 0)  -->
<!DOCTYPE svg PUBLIC "-//W3C//DTD SVG 1.1//EN" "http://www.w3.org/Graphics/SVG/1.1/DTD/svg11.dtd">
<svg version="1.1" id="Layer_1" xmlns="http://www.w3.org/2000/svg" xmlns:xlink="http://www.w3.org/1999/xlink" x="0px" y="0px"
	 viewBox="0 0 24 24" style="enable-background:new 0 0 24 24;" xml:space="preserve">
<style type="text/css">
	.st0{fill:#FFFFFF;}
	.st1{fill:#CCCCCC;}
	.st2{fill:#0072AA;}
	.st3{fill:#666666;}
</style>
<g>
	<path class="st0" d="M12.3,22.4v-8.7h-0.8v-2.3c0-1.3,1-2.3,2.3-2.3h1c0.3-0.9,1.2-1.6,2.2-1.6h3.1c0.3,0,0.6,0.1,0.9,0.2V5l-4-4
		H5.3C4,1,3,1.8,3,3v18c0,1.2,1,2,2.3,2h7.1C12.3,22.8,12.3,22.6,12.3,22.4z"/>
	<polygon class="st1" points="17,1 17,5 21,5 	"/>
	<g>
		<path class="st2" d="M20,11h-3v-1h3V11z M20.1,9.1h-3.1c-0.4,0-0.9,0.4-0.9,0.8v0.8c0,0.4,0.5,0.8,0.9,0.8h3.1
			c0.4,0,0.9-0.4,0.9-0.8V9.9C21,9.4,20.5,9.1,20.1,9.1"/>
	</g>
	<path class="st3" d="M12.3,23H5.3C4,23,3,22.2,3,21V3c0-1.2,1-2,2.3-2H17l4,4v2.8c0.4,0.2,0.8,0.5,1,0.9V4.5L17.5,0H5.3
		C3.6,0,2,1.3,2,3v18c0,1.7,1.6,3,3.3,3h7.5C12.5,23.7,12.4,23.4,12.3,23z"/>
</g>
<path class="st2" d="M23.2,10.6h-9.4c-0.4,0-0.8,0.4-0.8,0.8V12h11v-0.6C24,11,23.6,10.6,23.2,10.6"/>
<path class="st2" d="M21.6,24h-6.3c-0.9,0-1.4-1.1-1.4-2v-9h9v9C23,22.9,22.5,24,21.6,24"/>
</svg>
