<?xml version="1.0" encoding="utf-8"?>
<!-- Generator: Adobe Illustrator 21.0.2, SVG Export Plug-In . SVG Version: 6.00 Build 0)  -->
<!DOCTYPE svg PUBLIC "-//W3C//DTD SVG 1.1//EN" "http://www.w3.org/Graphics/SVG/1.1/DTD/svg11.dtd">
<svg version="1.1" id="Layer_1" xmlns="http://www.w3.org/2000/svg" xmlns:xlink="http://www.w3.org/1999/xlink" x="0px" y="0px"
	 viewBox="0 0 24 24" style="enable-background:new 0 0 24 24;" xml:space="preserve">
<style type="text/css">
	.st0{fill:#FFFFFF;}
	.st1{fill:#666666;}
	.st2{fill:#CCCCCC;}
	.st3{fill:#0072AA;}
	.st4{opacity:0.5;}
</style>
<g>
	<path class="st0" d="M2,17.5c-0.8,0-1.5-0.7-1.5-1.5V2c0-0.8,0.7-1.5,1.5-1.5h9.2l3.3,3.3V16c0,0.8-0.7,1.5-1.5,1.5H2z"/>
	<path class="st1" d="M11,1l3,3v12c0,0.6-0.4,1-1,1H2c-0.6,0-1-0.4-1-1V2c0-0.6,0.4-1,1-1H11 M11.4,0H11H2C0.9,0,0,0.9,0,2v14
		c0,1.1,0.9,2,2,2h11c1.1,0,2-0.9,2-2V4V3.6l-0.3-0.3l-3-3L11.4,0L11.4,0z"/>
</g>
<path class="st2" d="M11,4V1l3,3C14,4,12,4,11,4z"/>
<g>
	<path class="st0" d="M11,23.5c-0.8,0-1.5-0.7-1.5-1.5V8c0-0.8,0.7-1.5,1.5-1.5h9.2l3.3,3.3V22c0,0.8-0.7,1.5-1.5,1.5H11z"/>
	<path class="st3" d="M20,7l3,3v12c0,0.6-0.4,1-1,1H11c-0.6,0-1-0.4-1-1V8c0-0.6,0.4-1,1-1H20 M20.4,6H20h-9C9.9,6,9,6.9,9,8v14
		c0,1.1,0.9,2,2,2h11c1.1,0,2-0.9,2-2V10V9.6l-0.3-0.3l-3-3L20.4,6L20.4,6z"/>
</g>
<g class="st4">
	<path class="st3" d="M20,10V7l3,3C23,10,21,10,20,10z"/>
</g>
</svg>
