<?xml version="1.0" encoding="utf-8"?>
<!-- Generator: Adobe Illustrator 21.0.2, SVG Export Plug-In . SVG Version: 6.00 Build 0)  -->
<!DOCTYPE svg PUBLIC "-//W3C//DTD SVG 1.1//EN" "http://www.w3.org/Graphics/SVG/1.1/DTD/svg11.dtd">
<svg version="1.1" id="Layer_1" xmlns="http://www.w3.org/2000/svg" xmlns:xlink="http://www.w3.org/1999/xlink" x="0px" y="0px"
	 viewBox="0 0 24 24" style="enable-background:new 0 0 24 24;" xml:space="preserve">
<style type="text/css">
	.st0{fill:#666666;}
	.st1{fill:#FFFFFF;}
	.st2{fill:#0072AA;}
</style>
<path class="st0" d="M8.4,19.4c0-2.1,3.6-6.1,8.6-6.1c1.7,0,3.2,0.5,4.4,1.1c0.4-1.1,0.6-2.2,0.6-3.4c0-6.1-4.9-11-11-11S0,4.9,0,11
	c0,5.6,4.2,10.2,9.5,10.9C8.8,21,8.4,20.1,8.4,19.4z"/>
<g>
	<circle class="st1" cx="12" cy="5" r="1.8"/>
</g>
<g>
	<path class="st1" d="M16.9,23.1c-3.9,0-6.1-3.2-6.2-3.7c0.1-0.5,2.3-3.7,6.2-3.7s6,3.1,6.2,3.7C22.9,20,20.8,23.1,16.9,23.1z"/>
	<path class="st2" d="M16.9,14.8c-4.4,0-7.1,3.6-7.1,4.6s2.7,4.6,7.1,4.6s7.1-3.6,7.1-4.6S21.3,14.8,16.9,14.8z M16.9,23.1
		c-3.9,0-6.1-3.2-6.2-3.7c0.1-0.5,2.3-3.7,6.2-3.7s6,3.1,6.2,3.7C22.9,20,20.8,23.1,16.9,23.1z"/>
	<path class="st2" d="M19.7,18.4c-0.2,0.6-0.7,1-1.3,1.1c-0.9,0.1-1.8-0.5-1.9-1.4c-0.1-0.8,0.4-1.6,1.1-1.8
		c-0.2-0.1-0.4-0.1-0.7-0.1c-1.7,0-3,1.4-3,3c0,1.7,1.4,3,3,3s3-1.3,2.9-3C19.8,19,19.7,18.7,19.7,18.4z"/>
</g>
<path class="st1" d="M9.1,17.5c0.6-0.9,1.5-1.8,2.6-2.6L13,8H8.1l-0.4,2h1.7c0,0-0.3,2.4-1,4.9C8.2,16.2,8.5,17,9.1,17.5z"/>
</svg>
