<?xml version="1.0" encoding="utf-8"?>
<!-- Generator: Adobe Illustrator 19.1.0, SVG Export Plug-In . SVG Version: 6.00 Build 0)  -->
<svg version="1.1" id="Layer_1" xmlns="http://www.w3.org/2000/svg" xmlns:xlink="http://www.w3.org/1999/xlink" x="0px" y="0px"
	 viewBox="0 0 48 48" enable-background="new 0 0 48 48" xml:space="preserve">
<g>
	<g>
		<path fill="#FFFFFF" d="M15.026,46.285c-0.512,0-1.043-0.39-1.046-1.033L14.064,35H13.04C6.836,35,0,31.279,0,25.077V12.303
			C0,6.101,5.536,2,11.738,2h24.707C42.647,2,47,6.101,47,12.303v12.773C47,31.279,42.647,35,36.445,35H25.633l-9.849,10.923
			C15.527,46.218,15.23,46.285,15.026,46.285z"/>
		<path fill="#733781" d="M15.026,47.02c-0.944,0-1.776-1.121-1.781-2.132L13.324,35H13.04C6.6,35,0,31.825,0,25.076V12.303
			C0,5.746,5.13,0,11.738,0h24.707C43.062,0,48,5.635,48,12.303v12.773C48,31.291,43.502,35,36.445,35H25.963l-9.631,11.044
			C16.095,46.318,15.601,47.02,15.026,47.02z M11.738,2C5.941,2,2,6.556,2,12.303v12.773C2,30.871,7.312,33,13.04,33h1.765
			l-0.09,12.125c0.001,0.214,0.162,0.368,0.263,0.413c0.055-0.036,0.146-0.107,0.253-0.229L25.303,33h11.142
			C42.72,33,46,30.496,46,25.076V12.303C46,6.459,42.238,2,36.445,2H11.738z"/>
	</g>
	<g>
		<g>
			<g>
				<circle fill="#004A70" cx="12.245" cy="17" r="3.306"/>
				<circle fill="#004A70" cx="24" cy="17" r="3.306"/>
				<circle fill="#004A70" cx="35.755" cy="17" r="3.306"/>
			</g>
		</g>
		<g>
			<g>
				<circle fill="#0072AA" cx="12.245" cy="16.163" r="3.306"/>
				<circle fill="#0072AA" cx="24" cy="16.163" r="3.306"/>
				<circle fill="#0072AA" cx="35.755" cy="16.163" r="3.306"/>
			</g>
		</g>
	</g>
</g>
</svg>
