<?xml version="1.0" encoding="utf-8"?>
<!-- Generator: Adobe Illustrator 19.1.0, SVG Export Plug-In . SVG Version: 6.00 Build 0)  -->
<!DOCTYPE svg PUBLIC "-//W3C//DTD SVG 1.1//EN" "http://www.w3.org/Graphics/SVG/1.1/DTD/svg11.dtd">
<svg version="1.1" id="Layer_1" xmlns="http://www.w3.org/2000/svg" xmlns:xlink="http://www.w3.org/1999/xlink" x="0px" y="0px"
	 viewBox="0 0 24 24" enable-background="new 0 0 24 24" xml:space="preserve">
<g id="configure_x5F_archiving">
	<path fill="#FFFFFF" d="M9.164,18.582l-5.371-5.371c-0.391-0.391-0.391-1.023,0-1.414s1.023-0.391,1.414,0l3.957,3.957l9.629-9.629
		c0.391-0.391,1.023-0.391,1.414,0s0.391,1.023,0,1.414L9.164,18.582z"/>
	<path fill="#333333" d="M0,0v24h24V0H0z M20.207,7.539L9.164,18.582l-5.371-5.371c-0.391-0.391-0.391-1.023,0-1.414
		s1.023-0.391,1.414,0l3.957,3.957l9.629-9.629c0.391-0.391,1.023-0.391,1.414,0S20.598,7.148,20.207,7.539z"/>
</g>
</svg>
