<?xml version="1.0" encoding="utf-8"?>
<!-- Generator: Adobe Illustrator 19.1.0, SVG Export Plug-In . SVG Version: 6.00 Build 0)  -->
<!DOCTYPE svg PUBLIC "-//W3C//DTD SVG 1.1//EN" "http://www.w3.org/Graphics/SVG/1.1/DTD/svg11.dtd">
<svg version="1.1" id="Layer_1" xmlns="http://www.w3.org/2000/svg" xmlns:xlink="http://www.w3.org/1999/xlink" x="0px" y="0px"
	 viewBox="0 0 24 24" enable-background="new 0 0 24 24" xml:space="preserve">
<g>
	<g>
		<path fill="#FFFFFF" d="M23.458,22.458c0,0.55-0.45,1-1,1H1.542c-0.55,0-1-0.45-1-1V1.542c0-0.55,0.45-1,1-1h20.917
			c0.55,0,1,0.45,1,1V22.458z"/>
		<path fill="none" stroke="#333333" stroke-miterlimit="10" d="M23.458,22.458c0,0.55-0.45,1-1,1H1.542c-0.55,0-1-0.45-1-1V1.542
			c0-0.55,0.45-1,1-1h20.917c0.55,0,1,0.45,1,1V22.458z"/>
	</g>
	<polygon fill="#333333" points="5.04,3.949 4.04,3.949 4.04,5.949 5.04,5.949 5.04,4.949 6.04,4.949 6.04,3.949 	"/>
	<polygon fill="#333333" points="19.04,19.949 20.04,19.949 20.04,17.949 19.04,17.949 19.04,18.949 18.04,18.949 18.04,19.949 	"/>
	<polygon fill="#333333" points="20.04,4.949 20.04,3.949 18.04,3.949 18.04,4.949 19.04,4.949 19.04,5.949 20.04,5.949 	"/>
	<polygon fill="#333333" points="4.04,18.949 4.04,19.949 6.04,19.949 6.04,18.949 5.04,18.949 5.04,17.949 4.04,17.949 	"/>
	<rect x="19.04" y="7.949" fill="#333333" width="1" height="3"/>
	<rect x="19.04" y="12.949" fill="#333333" width="1" height="3"/>
	<rect x="4.04" y="7.949" fill="#333333" width="1" height="3"/>
	<rect x="4.04" y="12.949" fill="#333333" width="1" height="3"/>
	<rect x="13.04" y="18.949" fill="#333333" width="3" height="1"/>
	<rect x="8.04" y="18.949" fill="#333333" width="3" height="1"/>
	<rect x="13.04" y="3.949" fill="#333333" width="3" height="1"/>
	<rect x="8.04" y="3.949" fill="#333333" width="3" height="1"/>
</g>
</svg>
