<?xml version="1.0" encoding="utf-8"?>
<!-- Generator: Adobe Illustrator 19.1.0, SVG Export Plug-In . SVG Version: 6.00 Build 0)  -->
<!DOCTYPE svg PUBLIC "-//W3C//DTD SVG 1.1//EN" "http://www.w3.org/Graphics/SVG/1.1/DTD/svg11.dtd">
<svg version="1.1" id="Layer_1" xmlns="http://www.w3.org/2000/svg" xmlns:xlink="http://www.w3.org/1999/xlink" x="0px" y="0px"
	 viewBox="0 0 24 24" enable-background="new 0 0 24 24" xml:space="preserve">
<g>
	<path fill="#333333" d="M11.095,8.543c-0.392,0.023-0.973,0.312-0.972,1.015c0.001,0.639,0.509,0.984,0.985,0.984h2.986
		c-2.287,1.421-4.005,3.513-4.751,5.861c-0.858,2.703-1.061,4.394-0.599,5.025c0.158,0.215,0.389,0.334,0.644,0.334h0.013
		c0.873,0,0.995-0.852,1.125-1.754c0.104-0.73,0.248-1.73,0.708-2.938c0.863-2.27,2.868-4.378,5.218-5.538l0.003,4.451
		c-0.033,0.274,0.043,0.533,0.216,0.728c0.13,0.147,0.372,0.323,0.792,0.324c0.611,0,0.989-0.474,0.989-0.913v-7.58L11.095,8.543z
		 M9.401,21.26L9.401,21.26v0.002V21.26z"/>
	<path fill="#333333" d="M22.662,15.639c0.858-2.704,1.06-4.395,0.599-5.025c-0.158-0.215-0.389-0.334-0.656-0.334
		c-0.873,0-0.995,0.852-1.125,1.754c-0.104,0.73-0.248,1.73-0.708,2.938c-0.863,2.27-2.868,4.378-5.218,5.538l-0.003-4.45
		c0.033-0.274-0.043-0.533-0.216-0.728c-0.13-0.147-0.372-0.323-0.792-0.324c-0.611,0-0.989,0.474-0.989,0.913V23.5h7.343
		l0.015-0.001c0.392-0.023,0.973-0.312,0.972-1.015c-0.001-0.639-0.509-0.984-0.985-0.984h-2.986
		C20.198,20.079,21.916,17.986,22.662,15.639z"/>
</g>
<g>
	<path fill="#333333" d="M13.053,23H4c-1.657,0-3-1.343-3-3V4c0-1.657,1.343-3,3-3h10l5,5v11.054c0.39-0.502,0.732-1.027,1-1.569V6
		V5.586l-0.293-0.293l-5-5L14.414,0H14H4C1.794,0,0,1.794,0,4v16c0,2.206,1.794,4,4,4h9.553l-0.5-0.5V23z"/>
</g>
<path fill="#FFFFFF" d="M11.064,8.045l7.387-0.002L19,7.969V6l-5-5H4C2.343,1,1,2.343,1,4v16c0,1.657,1.343,3,3,3h9.053l0,0v-7.078
	c0-0.68,0.569-1.413,1.489-1.413c0.607,0.001,0.97,0.269,1.167,0.493c0.111,0.125,0.19,0.269,0.248,0.421l-0.005-3.049
	c-1.934,1.159-3.527,2.97-4.251,4.875c-0.441,1.158-0.58,2.125-0.681,2.832c-0.133,0.922-0.314,2.183-1.62,2.183H9.388v-0.002
	c-0.415,0-0.796-0.196-1.047-0.538c-0.363-0.496-0.704-1.603,0.525-5.472c0.631-1.986,1.909-3.794,3.661-5.209h-1.42
	c-0.729,0-1.484-0.555-1.485-1.483C9.621,8.631,10.364,8.086,11.064,8.045z"/>
<path fill="#FFFFFF" d="M19,17.054"/>
</svg>
