<?xml version="1.0" encoding="utf-8"?>
<!-- Generator: Adobe Illustrator 19.2.1, SVG Export Plug-In . SVG Version: 6.00 Build 0)  -->
<svg version="1.1" id="Layer_1" xmlns="http://www.w3.org/2000/svg" xmlns:xlink="http://www.w3.org/1999/xlink" x="0px" y="0px"
	 viewBox="0 0 24 24" style="enable-background:new 0 0 24 24;" xml:space="preserve">
<style type="text/css">
	.st0{fill:#333333;}
</style>
<g>
	<path class="st0" d="M18.1,13.5c-0.4,0.4-0.4,1,0,1.4l2.1,2.1H18c-1.7,0-3.1-0.8-4-2.1c-0.3,0.7-0.6,1.3-1,1.9
		c1.3,1.3,3.1,2.1,5,2.1h2.2l-2.1,2.1c-0.4,0.4-0.4,1,0,1.4s1,0.4,1.4,0L24,18l-4.5-4.5C19.1,13.1,18.5,13.1,18.1,13.5z"/>
	<path class="st0" d="M5.9,10.5c0.4-0.4,0.4-1,0-1.4L3.8,7H6c1.7,0,3.1,0.8,4,2.1c0.3-0.7,0.6-1.3,1-1.9C9.8,5.8,8,5,6,5H3.8
		l2.1-2.1c0.4-0.4,0.4-1,0-1.4s-1-0.4-1.4,0L0,6l4.5,4.5C4.9,10.9,5.5,10.9,5.9,10.5z"/>
	<path class="st0" d="M13,12c0-2.8,2.2-5,5-5h2.2l-2.1,2.1c-0.4,0.4-0.4,1,0,1.4s1,0.4,1.4,0L24,6l-4.5-4.5c-0.4-0.4-1-0.4-1.4,0
		s-0.4,1,0,1.4L20.2,5H18c-3.9,0-7,3.1-7,7c0,2.8-2.2,5-5,5H3.8l2.1-2.1c0.4-0.4,0.4-1,0-1.4s-1-0.4-1.4,0L0,18l4.5,4.5
		c0.4,0.4,1,0.4,1.4,0s0.4-1,0-1.4L3.8,19H6C9.9,19,13,15.9,13,12z"/>
</g>
</svg>
