<?xml version="1.0" encoding="utf-8"?>
<!-- Generator: Adobe Illustrator 19.1.0, SVG Export Plug-In . SVG Version: 6.00 Build 0)  -->
<svg version="1.1" id="Layer_1" xmlns="http://www.w3.org/2000/svg" xmlns:xlink="http://www.w3.org/1999/xlink" x="0px" y="0px"
	 viewBox="0 0 32 32" style="enable-background:new 0 0 32 32;" xml:space="preserve">
<style type="text/css">
	.st0{fill:#0072AA;}
	.st1{fill:#FFFFFF;}
	.st2{fill:#004B71;}
	.st3{fill:none;}
</style>
<g>
	<g>
		<g>
			<g>
				<path class="st0" d="M7,31.5c-1.93,0-3.5-1.57-3.5-3.5V4c0-1.93,1.57-3.5,3.5-3.5h15.207L28.5,6.793V28c0,1.93-1.57,3.5-3.5,3.5
					H7z"/>
				<path class="st1" d="M22,1l6,6v21c0,1.657-1.343,3-3,3H7c-1.657,0-3-1.343-3-3V4c0-1.657,1.343-3,3-3H22 M22.414,0H22H7
					C4.794,0,3,1.794,3,4v24c0,2.206,1.794,4,4,4h18c2.206,0,4-1.794,4-4V7V6.586l-0.293-0.293l-6-6L22.414,0L22.414,0z"/>
			</g>
		</g>
		<polygon class="st2" points="22,1 22,7 28,7 		"/>
	</g>
	<g>
		<polygon class="st3" points="19.145,15.905 12.855,15.905 9.885,19.855 22.114,19.855 		"/>
	</g>
</g>
<g>
	<path class="st1" d="M12.671,19.729c0.082,0,0.15,0.031,0.209,0.094l0.584,0.633c-0.322,0.399-0.719,0.705-1.191,0.918
		c-0.471,0.213-1.035,0.319-1.695,0.319c-0.592,0-1.122-0.101-1.593-0.303c-0.471-0.201-0.874-0.482-1.207-0.842
		s-0.589-0.788-0.767-1.286c-0.178-0.499-0.267-1.044-0.267-1.634c0-0.598,0.099-1.145,0.297-1.642
		c0.198-0.497,0.477-0.925,0.836-1.284s0.789-0.639,1.29-0.839s1.053-0.3,1.658-0.3c0.592,0,1.107,0.094,1.549,0.283
		s0.82,0.439,1.137,0.751l-0.496,0.688c-0.029,0.044-0.066,0.083-0.113,0.115c-0.045,0.033-0.109,0.05-0.189,0.05
		c-0.084,0-0.17-0.033-0.258-0.099s-0.199-0.138-0.336-0.214c-0.135-0.077-0.307-0.149-0.514-0.215s-0.471-0.099-0.789-0.099
		c-0.375,0-0.719,0.065-1.031,0.195c-0.314,0.13-0.583,0.316-0.809,0.559c-0.226,0.242-0.401,0.536-0.528,0.883
		c-0.126,0.346-0.19,0.736-0.19,1.168c0,0.447,0.063,0.845,0.19,1.193s0.298,0.642,0.514,0.88s0.471,0.421,0.764,0.547
		c0.293,0.127,0.609,0.19,0.945,0.19c0.203,0,0.385-0.011,0.549-0.033c0.162-0.022,0.312-0.057,0.451-0.104
		c0.137-0.048,0.268-0.109,0.391-0.185c0.121-0.075,0.244-0.167,0.365-0.277c0.037-0.033,0.074-0.06,0.115-0.08
		C12.582,19.74,12.625,19.729,12.671,19.729z"/>
	<path class="st1" d="M18.843,15.099c-0.04,0.081-0.087,0.137-0.141,0.17c-0.053,0.033-0.116,0.049-0.189,0.049
		s-0.155-0.028-0.247-0.085c-0.092-0.057-0.2-0.12-0.325-0.19c-0.124-0.07-0.271-0.133-0.437-0.19
		c-0.167-0.057-0.364-0.085-0.591-0.085c-0.205,0-0.384,0.025-0.536,0.074s-0.28,0.118-0.385,0.206
		c-0.104,0.088-0.183,0.193-0.233,0.316c-0.052,0.123-0.077,0.258-0.077,0.404c0,0.187,0.052,0.343,0.156,0.467
		c0.104,0.125,0.243,0.231,0.415,0.319c0.173,0.088,0.369,0.167,0.589,0.236c0.219,0.07,0.444,0.144,0.673,0.223
		c0.229,0.079,0.454,0.17,0.674,0.274s0.416,0.237,0.588,0.396c0.173,0.159,0.312,0.354,0.416,0.586
		c0.104,0.23,0.156,0.512,0.156,0.841c0,0.359-0.062,0.696-0.184,1.01c-0.123,0.313-0.303,0.587-0.539,0.819
		c-0.237,0.233-0.525,0.416-0.866,0.55c-0.342,0.134-0.731,0.201-1.171,0.201c-0.253,0-0.502-0.024-0.748-0.074
		s-0.481-0.12-0.707-0.212s-0.437-0.201-0.632-0.33c-0.196-0.128-0.372-0.271-0.525-0.429l0.429-0.71
		c0.04-0.051,0.089-0.094,0.146-0.129s0.12-0.053,0.19-0.053c0.091,0,0.19,0.038,0.297,0.113s0.231,0.158,0.377,0.25
		c0.145,0.092,0.314,0.175,0.511,0.25s0.432,0.113,0.707,0.113c0.421,0,0.748-0.1,0.979-0.3c0.23-0.2,0.346-0.487,0.346-0.861
		c0-0.209-0.052-0.379-0.156-0.511s-0.243-0.243-0.415-0.333c-0.173-0.09-0.369-0.166-0.588-0.229
		c-0.22-0.062-0.443-0.13-0.671-0.203s-0.451-0.161-0.671-0.264c-0.221-0.104-0.416-0.237-0.589-0.402
		c-0.172-0.165-0.311-0.371-0.415-0.618c-0.104-0.248-0.157-0.553-0.157-0.916c0-0.29,0.059-0.572,0.174-0.847
		s0.284-0.519,0.506-0.731c0.222-0.213,0.494-0.383,0.816-0.512c0.323-0.128,0.691-0.192,1.105-0.192
		c0.469,0,0.902,0.073,1.297,0.22c0.396,0.146,0.733,0.352,1.013,0.616L18.843,15.099z"/>
	<path class="st1" d="M24.744,15.099c-0.04,0.081-0.087,0.137-0.141,0.17c-0.053,0.033-0.116,0.049-0.189,0.049
		s-0.155-0.028-0.247-0.085c-0.092-0.057-0.2-0.12-0.325-0.19c-0.124-0.07-0.271-0.133-0.437-0.19
		c-0.167-0.057-0.364-0.085-0.592-0.085c-0.205,0-0.384,0.025-0.536,0.074s-0.28,0.118-0.385,0.206
		c-0.104,0.088-0.183,0.193-0.233,0.316c-0.052,0.123-0.077,0.258-0.077,0.404c0,0.187,0.052,0.343,0.156,0.467
		c0.104,0.125,0.243,0.231,0.415,0.319c0.173,0.088,0.369,0.167,0.589,0.236s0.444,0.144,0.674,0.223
		c0.229,0.079,0.454,0.17,0.674,0.274s0.416,0.237,0.588,0.396c0.173,0.159,0.312,0.354,0.416,0.586
		c0.104,0.23,0.156,0.512,0.156,0.841c0,0.359-0.062,0.696-0.184,1.01c-0.123,0.313-0.303,0.587-0.539,0.819
		c-0.237,0.233-0.525,0.416-0.866,0.55c-0.342,0.134-0.731,0.201-1.172,0.201c-0.253,0-0.502-0.024-0.748-0.074
		s-0.481-0.12-0.707-0.212s-0.437-0.201-0.632-0.33c-0.196-0.128-0.372-0.271-0.525-0.429l0.429-0.71
		c0.04-0.051,0.089-0.094,0.146-0.129s0.12-0.053,0.19-0.053c0.091,0,0.19,0.038,0.297,0.113s0.231,0.158,0.377,0.25
		c0.145,0.092,0.314,0.175,0.511,0.25s0.432,0.113,0.707,0.113c0.422,0,0.748-0.1,0.979-0.3c0.23-0.2,0.346-0.487,0.346-0.861
		c0-0.209-0.052-0.379-0.156-0.511s-0.243-0.243-0.415-0.333c-0.173-0.09-0.369-0.166-0.589-0.229s-0.443-0.13-0.671-0.203
		s-0.451-0.161-0.671-0.264c-0.221-0.104-0.416-0.237-0.589-0.402c-0.172-0.165-0.311-0.371-0.415-0.618
		c-0.104-0.248-0.157-0.553-0.157-0.916c0-0.29,0.059-0.572,0.174-0.847s0.284-0.519,0.506-0.731
		c0.222-0.213,0.494-0.383,0.816-0.512c0.323-0.128,0.691-0.192,1.105-0.192c0.47,0,0.902,0.073,1.298,0.22
		c0.396,0.146,0.733,0.352,1.013,0.616L24.744,15.099z"/>
</g>
</svg>
