<?xml version="1.0" encoding="utf-8"?>
<!-- Generator: Adobe Illustrator 19.1.0, SVG Export Plug-In . SVG Version: 6.00 Build 0)  -->
<svg version="1.1" id="Layer_1" xmlns="http://www.w3.org/2000/svg" xmlns:xlink="http://www.w3.org/1999/xlink" x="0px" y="0px"
	 viewBox="0 0 32 32" style="enable-background:new 0 0 32 32;" xml:space="preserve">
<style type="text/css">
	.st0{fill:#00AF9A;}
	.st1{fill:#FFFFFF;}
	.st2{fill:#00896D;}
	.st3{fill:#00795A;}
</style>
<g>
	<g>
		<g>
			<g>
				<path class="st0" d="M7,31.5c-1.93,0-3.5-1.57-3.5-3.5V4c0-1.93,1.57-3.5,3.5-3.5h15.207L28.5,6.793V28c0,1.93-1.57,3.5-3.5,3.5
					H7z"/>
				<path class="st1" d="M22,1l6,6v21c0,1.657-1.343,3-3,3H7c-1.657,0-3-1.343-3-3V4c0-1.657,1.343-3,3-3H22 M22.414,0H22H7
					C4.794,0,3,1.794,3,4v24c0,2.206,1.794,4,4,4h18c2.206,0,4-1.794,4-4V7V6.586l-0.293-0.293l-6-6L22.414,0L22.414,0z"/>
			</g>
		</g>
		<polygon class="st2" points="22,1 22,7 28,7 		"/>
	</g>
	<g>
		<g>
			<g>
				<g>
					<g>
						<path class="st3" d="M24.603,19.306c0.141,0.653-0.29,1.187-0.958,1.187H8.848c-0.668,0-1.099-0.534-0.958-1.187l0.684-3.165
							c0.141-0.653,0.803-1.187,1.472-1.187h12.402c0.668,0,1.33,0.534,1.472,1.187L24.603,19.306z"/>
					</g>
					<g>
						<path class="st3" d="M10.046,15.257c-0.526,0-1.064,0.434-1.175,0.948l-0.685,3.164c-0.048,0.224-0.007,0.432,0.115,0.584
							c0.123,0.152,0.317,0.236,0.547,0.236h14.797c0.23,0,0.424-0.084,0.547-0.236c0.122-0.152,0.163-0.359,0.115-0.584
							l-0.685-3.164c-0.112-0.514-0.65-0.948-1.175-0.948H10.046z"/>
					</g>
				</g>
				<path class="st3" d="M9.264,21.115v3.014c0,0.838,0.681,1.519,1.519,1.519h10.928c0.838,0,1.519-0.681,1.519-1.519v-3.014H9.264
					z"/>
			</g>
			<g>
				<g>
					<path class="st3" d="M16.247,7.769c-3.126,0-5.669,2.543-5.669,5.669c0,0.297,0.03,0.586,0.074,0.87h3.66
						c-0.12-0.266-0.191-0.56-0.191-0.87c0-1.172,0.954-2.126,2.126-2.126s2.126,0.954,2.126,2.126c0,0.311-0.071,0.604-0.191,0.87
						h3.66c0.044-0.284,0.074-0.574,0.074-0.87C21.916,10.312,19.373,7.769,16.247,7.769z M18.539,11.77
						c0,0-0.145-0.264-0.295-0.437c-0.15-0.173-0.346-0.291-0.346-0.291l0.938-1.789c0,0,0.526,0.355,0.877,0.722
						c0.397,0.414,0.651,0.914,0.651,0.914L18.539,11.77z"/>
					<path class="st3" d="M15.347,14.308h1.685c0.228-0.221,0.372-0.527,0.372-0.87c0-0.671-0.544-1.215-1.215-1.215
						c-0.671,0-1.215,0.544-1.215,1.215C14.975,13.78,15.119,14.087,15.347,14.308z"/>
				</g>
			</g>
		</g>
	</g>
	<g>
		<g>
			<g>
				<g>
					<g>
						<path class="st1" d="M24.192,19.022c0.141,0.653-0.29,1.187-0.958,1.187H8.436c-0.668,0-1.099-0.534-0.958-1.187l0.684-3.165
							c0.141-0.653,0.803-1.187,1.472-1.187h12.402c0.668,0,1.33,0.534,1.472,1.187L24.192,19.022z"/>
					</g>
					<g>
						<path class="st1" d="M9.634,14.974c-0.526,0-1.064,0.434-1.175,0.948l-0.685,3.164C7.726,19.31,7.767,19.518,7.89,19.67
							c0.123,0.152,0.317,0.236,0.547,0.236h14.797c0.23,0,0.424-0.084,0.547-0.236c0.122-0.152,0.163-0.359,0.115-0.584
							l-0.685-3.164c-0.112-0.514-0.65-0.948-1.175-0.948H9.634z"/>
					</g>
				</g>
				<path class="st1" d="M8.852,20.831v3.014c0,0.838,0.681,1.519,1.519,1.519h10.928c0.838,0,1.519-0.681,1.519-1.519v-3.014H8.852
					z"/>
			</g>
			<g>
				<g>
					<path class="st1" d="M15.835,7.485c-3.126,0-5.669,2.543-5.669,5.669c0,0.297,0.03,0.586,0.074,0.87h3.66
						c-0.12-0.266-0.191-0.56-0.191-0.87c0-1.172,0.954-2.126,2.126-2.126s2.126,0.954,2.126,2.126c0,0.311-0.071,0.604-0.191,0.87
						h3.66c0.044-0.284,0.074-0.574,0.074-0.87C21.504,10.028,18.961,7.485,15.835,7.485z M18.127,11.486
						c0,0-0.145-0.264-0.295-0.437c-0.15-0.173-0.346-0.291-0.346-0.291l0.938-1.789c0,0,0.526,0.355,0.877,0.722
						c0.397,0.414,0.651,0.914,0.651,0.914L18.127,11.486z"/>
					<path class="st1" d="M14.935,14.024h1.685c0.228-0.221,0.372-0.527,0.372-0.87c0-0.671-0.544-1.215-1.215-1.215
						c-0.671,0-1.215,0.544-1.215,1.215C14.563,13.497,14.707,13.804,14.935,14.024z"/>
				</g>
			</g>
		</g>
	</g>
</g>
</svg>
