<?xml version="1.0" encoding="utf-8"?>
<!-- Generator: Adobe Illustrator 19.1.0, SVG Export Plug-In . SVG Version: 6.00 Build 0)  -->
<!DOCTYPE svg PUBLIC "-//W3C//DTD SVG 1.1//EN" "http://www.w3.org/Graphics/SVG/1.1/DTD/svg11.dtd">
<svg version="1.1" id="Layer_1" xmlns="http://www.w3.org/2000/svg" xmlns:xlink="http://www.w3.org/1999/xlink" x="0px" y="0px"
	 viewBox="0 0 24 24" enable-background="new 0 0 24 24" xml:space="preserve">
<g>
	<rect x="0.999" y="5.513" fill="#FFFFFF" width="19" height="14"/>
	<rect x="0.999" y="0.998" fill="#666666" width="19" height="4.015"/>
	<path fill="#333333" d="M18.999,0.513h-17c-1.1,0-2,0.9-2,2v2v1v4v1v4v1v3c0,1.1,0.9,2,2,2h3h1h13c1.1,0,2-0.9,2-2v-3v-1v-4v-1v-4
		v-1v-2C20.999,1.413,20.1,0.513,18.999,0.513z M0.999,5.513h4v4h-4V5.513z M10.999,10.513h4v4h-4V10.513z M9.999,14.513h-4v-4h4
		V14.513z M10.999,9.513v-4h4v4H10.999z M9.999,9.513h-4v-4h4V9.513z M0.999,10.513h4v4h-4V10.513z M1.999,19.513
		c-0.551,0-1-0.449-1-1v-3h4v4H1.999z M5.999,19.513v-4h4v4H5.999z M10.999,19.513v-4h4v4H10.999z M19.999,18.513
		c0,0.551-0.449,1-1,1h-3v-4h4V18.513z M19.999,14.513h-4v-4h4V14.513z M19.999,9.513h-4v-4h4V9.513z M15.999,4.513h-1h-4h-1h-4h-1
		h-4v-2c0-0.551,0.449-1,1-1h17c0.551,0,1,0.449,1,1v2H15.999z"/>
	<g>
		<g>
			<g>
				<path fill="#333333" d="M7.571,17.677c-0.401-0.401-0.622-0.934-0.622-1.5s0.221-1.1,0.622-1.501s0.934-0.622,1.501-0.622
					s1.1,0.221,1.501,0.622l2.465,2.465l7.095-7.095c0.401-0.401,0.934-0.622,1.501-0.622s1.1,0.221,1.501,0.622
					s0.622,0.934,0.622,1.501c0,0.567-0.221,1.1-0.622,1.501L13.039,23.145L7.571,17.677z"/>
				<g>
					<path fill="#FFFFFF" d="M21.634,9.666c0.481,0,0.962,0.184,1.329,0.551c0.734,0.734,0.734,1.925,0,2.659l-9.925,9.925
						l-5.296-5.295c-0.734-0.734-0.734-1.924,0-2.659c0.367-0.367,0.848-0.551,1.329-0.551c0.481,0,0.962,0.184,1.329,0.551
						l2.637,2.636l7.267-7.267C20.673,9.85,21.154,9.666,21.634,9.666L21.634,9.666z M21.634,9.181
						c-0.632,0-1.225,0.246-1.672,0.693l-6.924,6.924l-2.294-2.293c-0.447-0.447-1.041-0.693-1.672-0.693
						c-0.632,0-1.225,0.246-1.672,0.693s-0.693,1.041-0.693,1.672c0,0.632,0.246,1.226,0.693,1.672l5.296,5.295l0.343,0.343
						l0.343-0.343l9.925-9.926c0.447-0.447,0.693-1.041,0.693-1.672s-0.246-1.226-0.693-1.672
						C22.859,9.427,22.266,9.181,21.634,9.181L21.634,9.181z"/>
				</g>
			</g>
		</g>
	</g>
</g>
</svg>
