<svg id="Layer_1" data-name="Layer 1" xmlns="http://www.w3.org/2000/svg" viewBox="0 0 32 32"><defs><style>.cls-1{fill:#333;}.cls-2{fill:#666;}</style></defs><title>add</title><path class="cls-1" d="M26.121,24.707L25.414,24l0.707-.707,2.828-2.828a1,1,0,1,0-1.414-1.414l-2.828,2.828L24,22.586l-0.707-.707-2.828-2.828a1,1,0,0,0-1.414,1.414l2.828,2.828L22.586,24l-0.707.707-2.828,2.828a1,1,0,1,0,1.414,1.414l2.828-2.828L24,25.414l0.707,0.707,2.828,2.828a1,1,0,0,0,1.414-1.414Z"/><path class="cls-2" d="M26.3,30.187l-2.3-2.3-2.3,2.3a2.552,2.552,0,0,1-.391.315h5.107a2.223,2.223,0,0,0,.235-0.024A2.769,2.769,0,0,1,26.3,30.187Z"/><path class="cls-2" d="M17.813,30.187a2.753,2.753,0,0,1,0-3.889l2.3-2.3-2.3-2.3a2.753,2.753,0,0,1,0-3.889,2.723,2.723,0,0,1,1.685-.779,5.919,5.919,0,0,0,.853-1.044,8.561,8.561,0,0,0,1.075-2.782l0.062-.294,0.289-.082a0.88,0.88,0,0,0,.421-0.357,2.571,2.571,0,0,0,.4-1.006,2.17,2.17,0,0,0-.141-1.383l-0.1-.176,0.049-.2c0.02-.078.039-0.158,0.055-0.241a7.459,7.459,0,0,0,.1-1.842,12.129,12.129,0,0,0-.32-2.19A4.9,4.9,0,0,0,20.249,2.8a7.222,7.222,0,0,0-4.243-1.3A7.245,7.245,0,0,0,11.76,2.8,4.908,4.908,0,0,0,9.77,5.436a12.331,12.331,0,0,0-.326,2.2,7.491,7.491,0,0,0,.1,1.842C9.561,9.555,9.579,9.633,9.6,9.711l0.049,0.2-0.1.175A2.17,2.17,0,0,0,9.4,11.469a2.576,2.576,0,0,0,.4,1.01,0.881,0.881,0,0,0,.421.354l0.292,0.08,0.063,0.3a8.577,8.577,0,0,0,1.076,2.783,5.865,5.865,0,0,0,1.241,1.419l0.314,0.258-0.189.359a3.429,3.429,0,0,1-.4.608,2.821,2.821,0,0,1-1.018.773,11.907,11.907,0,0,1-2.442.634,14.539,14.539,0,0,0-3.228.876,3.339,3.339,0,0,0-1.984,2.1A12.512,12.512,0,0,0,3.375,26.3a2.857,2.857,0,0,0-.075.587v1.329A2.313,2.313,0,0,0,5.584,30.5H18.2A2.552,2.552,0,0,1,17.813,30.187Z"/></svg>