<?xml version="1.0" encoding="utf-8"?>
<!-- Generator: Adobe Illustrator 21.0.0, SVG Export Plug-In . SVG Version: 6.00 Build 0)  -->
<svg version="1.1" id="Layer_1" xmlns="http://www.w3.org/2000/svg" xmlns:xlink="http://www.w3.org/1999/xlink" x="0px" y="0px"
	 viewBox="0 0 24 24" style="enable-background:new 0 0 24 24;" xml:space="preserve">
<style type="text/css">
	.st0{fill:#9AB3C2;}
	.st1{fill:#004564;}
	.st2{fill:#FFFFFF;}
</style>
<g>
	<path class="st0" d="M4.333,0c0,7.664,0,16.083,0,23.744c5.126,0,10.22,0,15.347,0c0-7.68,0-16.098,0-23.744H4.333z M10.345,2.256
		c1.077,0,2.147,0,3.245,0c0,1.192,0,2.366,0,3.594c-1.089,0-2.15,0-3.245,0C10.345,4.656,10.345,3.472,10.345,2.256z M5.644,2.169
		c1.081,0,2.152,0,3.247,0c0,1.196,0,2.37,0,3.582c-1.073,0-2.143,0-3.247,0C5.644,4.567,5.644,3.383,5.644,2.169z M5.553,7.291
		c1.088,0,2.148,0,3.243,0c0,1.221,0,2.434,0,3.678c-1.075,0-2.145,0-3.243,0C5.553,9.75,5.553,8.548,5.553,7.291z M8.889,21.06
		c-1.087,0-2.147,0-3.243,0c0-1.221,0-2.433,0-3.678c1.074,0,2.145,0,3.243,0C8.889,18.601,8.889,19.803,8.889,21.06z M8.893,15.922
		c-1.078,0-2.148,0-3.25,0c0-1.188,0-2.373,0-3.585c1.075,0,2.136,0,3.25,0C8.893,13.538,8.893,14.712,8.893,15.922z M10.339,7.291
		c1.087,0,2.148,0,3.243,0c0,1.22,0,2.433,0,3.678c-1.074,0-2.145,0-3.243,0C10.339,9.751,10.339,8.548,10.339,7.291z
		 M10.423,12.332c1.091,0,2.152,0,3.246,0c0,1.196,0,2.381,0,3.595c-1.079,0-2.149,0-3.246,0
		C10.423,14.733,10.423,13.559,10.423,12.332z M13.675,21.061c-1.088,0-2.148,0-3.244,0c0-1.221,0-2.434,0-3.678
		c1.075,0,2.146,0,3.244,0C13.675,18.601,13.675,19.804,13.675,21.061z M15.128,2.253c1.076,0,2.137,0,3.251,0
		c0,1.202,0,2.376,0,3.585c-1.079,0-2.149,0-3.251,0C15.128,4.649,15.128,3.465,15.128,2.253z M18.378,7.21c0,1.229,0,2.431,0,3.669
		c-1.048,0-2.09,0-3.164,0c0-1.216,0-2.428,0-3.669C16.259,7.21,17.291,7.21,18.378,7.21z M18.367,21.139c-1.076,0-2.146,0-3.244,0
		c0-1.219,0-2.422,0-3.678c1.088,0,2.148,0,3.244,0C18.367,18.682,18.367,19.895,18.367,21.139z M18.38,15.923
		c-1.055,0-2.097,0-3.168,0c0-1.193,0-2.378,0-3.588c1.052,0,2.084,0,3.168,0C18.38,13.542,18.38,14.716,18.38,15.923z"/>
</g>
<g>
	<path class="st1" d="M19.68,23.536v-0.573c0-0.062-0.007-0.125-0.021-0.191l-0.006-0.038c-0.037-0.54-0.061-0.805-0.244-1.425
		c-0.114-0.385-0.376-0.661-0.822-0.866c-0.413-0.19-0.926-0.288-1.377-0.374c-0.407-0.078-0.786-0.151-1.071-0.278
		c-0.179-0.08-0.335-0.198-0.462-0.351c-0.066-0.079-0.128-0.173-0.182-0.277l-0.105-0.201l0.175-0.143
		c0.199-0.163,0.374-0.364,0.521-0.596c0.204-0.326,0.358-0.724,0.455-1.18l0.035-0.163l0.161-0.046
		c0.016-0.005,0.076-0.028,0.148-0.129c0.074-0.104,0.132-0.253,0.159-0.408c0.039-0.219,0.019-0.431-0.053-0.555l-0.058-0.1
		l0.03-0.112c0.008-0.031,0.016-0.064,0.022-0.097c0.045-0.224,0.06-0.486,0.045-0.781c-0.026-0.482-0.125-0.888-0.137-0.932
		c-0.1-0.397-0.404-0.799-0.835-1.105c-0.351-0.251-0.949-0.55-1.794-0.55c-0.846,0-1.444,0.298-1.797,0.549
		c-0.43,0.306-0.734,0.708-0.834,1.103c-0.012,0.046-0.112,0.449-0.139,0.936c-0.016,0.294-0.002,0.556,0.042,0.778l0.05,0.209
		l-0.058,0.099c-0.072,0.124-0.093,0.337-0.054,0.556c0.028,0.156,0.087,0.306,0.161,0.409c0.072,0.102,0.13,0.124,0.147,0.128
		l0.163,0.045l0.035,0.166c0.098,0.457,0.25,0.855,0.456,1.181c0.147,0.233,0.322,0.433,0.522,0.597l0.175,0.143l-0.105,0.201
		c-0.054,0.103-0.114,0.196-0.182,0.276c-0.127,0.152-0.282,0.27-0.462,0.35c-0.284,0.128-0.663,0.2-1.064,0.277
		c-0.457,0.087-0.968,0.185-1.382,0.375c-0.447,0.205-0.709,0.48-0.823,0.866c-0.18,0.615-0.204,0.875-0.241,1.405
		c-0.024,0.119-0.032,0.186-0.032,0.249v0.573c0.002,0.072,0.012,0.141,0.028,0.208h10.787C19.671,23.677,19.68,23.607,19.68,23.536
		z"/>
	<path class="st2" d="M19.86,24H8.668L8.62,23.805c-0.022-0.088-0.034-0.177-0.036-0.263l0-0.579c0-0.079,0.01-0.16,0.034-0.284
		c0.037-0.523,0.065-0.808,0.25-1.443c0.135-0.456,0.45-0.792,0.962-1.027c0.444-0.204,0.974-0.305,1.441-0.394
		c0.387-0.074,0.751-0.144,1.007-0.259c0.144-0.064,0.268-0.159,0.37-0.281c0.055-0.065,0.105-0.142,0.151-0.23l0.009-0.017
		l-0.014-0.011c-0.22-0.18-0.414-0.401-0.576-0.658c-0.221-0.351-0.385-0.776-0.489-1.264l-0.003-0.013l-0.01-0.003
		c-0.074-0.019-0.183-0.075-0.291-0.228c-0.095-0.133-0.168-0.315-0.203-0.51c-0.05-0.282-0.018-0.555,0.085-0.731l0.006-0.01
		l-0.028-0.119c-0.048-0.242-0.064-0.525-0.047-0.842c0.028-0.501,0.127-0.909,0.147-0.986c0.114-0.452,0.454-0.908,0.933-1.249
		c0.383-0.272,1.032-0.596,1.945-0.596c0.916,0,1.562,0.325,1.944,0.598c0.479,0.341,0.82,0.797,0.934,1.251
		c0.02,0.078,0.118,0.489,0.144,0.981c0.016,0.316,0,0.6-0.049,0.844c-0.007,0.037-0.016,0.076-0.026,0.113l-0.002,0.008
		l0.005,0.008c0.104,0.179,0.134,0.444,0.084,0.728c-0.035,0.194-0.107,0.375-0.203,0.511c-0.105,0.148-0.211,0.205-0.281,0.226
		l-0.018,0.005l-0.003,0.013c-0.103,0.485-0.267,0.91-0.489,1.264c-0.162,0.256-0.355,0.477-0.575,0.658l-0.014,0.011l0.008,0.016
		c0.047,0.089,0.098,0.167,0.152,0.231c0.101,0.123,0.225,0.217,0.37,0.282c0.255,0.115,0.62,0.185,1.007,0.259
		c0.472,0.09,0.999,0.19,1.443,0.394c0.512,0.235,0.826,0.571,0.961,1.026c0.19,0.641,0.217,0.932,0.254,1.47l0.003,0.021
		c0.016,0.08,0.024,0.157,0.024,0.235v0.573c0,0.087-0.01,0.176-0.031,0.265L19.86,24z M9.097,23.487h10.327v-0.524
		c0-0.045-0.005-0.09-0.015-0.138l-0.011-0.074c-0.036-0.534-0.058-0.774-0.234-1.37c-0.093-0.314-0.304-0.531-0.684-0.706
		c-0.387-0.178-0.882-0.272-1.318-0.355c-0.425-0.082-0.818-0.157-1.128-0.296c-0.217-0.097-0.404-0.239-0.554-0.422
		c-0.076-0.091-0.148-0.2-0.212-0.321l-0.201-0.386l0.335-0.275c0.178-0.146,0.335-0.326,0.467-0.534
		c0.189-0.301,0.33-0.671,0.421-1.097l0.066-0.314l0.287-0.082c0.007-0.006,0.018-0.018,0.032-0.038
		c0.051-0.073,0.095-0.187,0.116-0.305c0.034-0.192,0.005-0.333-0.022-0.381l-0.111-0.192l0.057-0.214
		c0.007-0.026,0.013-0.051,0.018-0.078c0.041-0.207,0.055-0.448,0.041-0.721c-0.024-0.454-0.119-0.84-0.129-0.883
		c-0.085-0.338-0.353-0.687-0.735-0.959c-0.321-0.229-0.866-0.502-1.646-0.502c-0.778,0-1.326,0.273-1.648,0.501
		c-0.381,0.271-0.649,0.62-0.733,0.956c-0.011,0.043-0.106,0.426-0.132,0.888c-0.014,0.271-0.002,0.51,0.037,0.709l0.073,0.304
		l-0.11,0.188c-0.028,0.047-0.057,0.189-0.023,0.381c0.022,0.118,0.065,0.233,0.117,0.305c0.013,0.019,0.023,0.03,0.03,0.036
		l0.291,0.08l0.067,0.318c0.092,0.429,0.233,0.798,0.422,1.098c0.132,0.21,0.29,0.39,0.467,0.535l0.337,0.276l-0.202,0.386
		c-0.063,0.121-0.135,0.23-0.213,0.323c-0.151,0.181-0.337,0.322-0.553,0.419c-0.31,0.14-0.703,0.215-1.119,0.295
		c-0.441,0.084-0.939,0.179-1.326,0.356c-0.38,0.174-0.591,0.392-0.684,0.706c-0.173,0.592-0.195,0.828-0.231,1.35l-0.004,0.033
		c-0.023,0.112-0.027,0.16-0.027,0.198V23.487z M16.637,16.598L16.637,16.598L16.637,16.598z"/>
</g>
</svg>
