<?xml version="1.0" encoding="utf-8"?>
<!-- Generator: Adobe Illustrator 19.1.0, SVG Export Plug-In . SVG Version: 6.00 Build 0)  -->
<svg version="1.1" id="Layer_1" xmlns="http://www.w3.org/2000/svg" xmlns:xlink="http://www.w3.org/1999/xlink" x="0px" y="0px"
	 viewBox="0 0 24 24" style="enable-background:new 0 0 24 24;" xml:space="preserve">
<style type="text/css">
	.st0{fill:#05A48A;}
	.st1{fill:#FFFFFF;}
	.st2{fill:#047A5B;}
	.st3{fill:#E59A2C;}
</style>
<g>
	<g>
		<g>
			<g>
				<g>
					<path class="st0" d="M17.777,23.615H4.566c-1.618,0-3.181-1.303-3.181-2.904V3.289c0-1.601,1.562-2.904,3.181-2.904h11.499
						l4.893,4.84v15.487C20.958,22.312,19.395,23.615,17.777,23.615z"/>
					<path class="st1" d="M17.777,24H4.566C2.667,24,1,22.463,1,20.711V3.289C1,1.537,2.666,0,4.566,0h11.657l5.12,5.064v15.647
						C21.342,22.463,19.677,24,17.777,24z M4.566,0.77c-1.463,0-2.795,1.201-2.795,2.519v17.423c0,1.318,1.332,2.518,2.795,2.518
						h13.212c1.463,0,2.795-1.201,2.795-2.518V5.385L15.907,0.77H4.566z"/>
				</g>
			</g>
		</g>
		<polygon class="st2" points="15.93,0.823 15.93,5.405 20.562,5.405 		"/>
	</g>
</g>
<g>
	<g>
		<g>
			<polygon class="st1" points="8.841,6.461 9.706,5.594 11.087,5.594 12.986,7.493 11.43,9.049 			"/>
			<path class="st2" d="M11.009,5.782l1.711,1.711L11.43,8.784L9.105,6.46l0.679-0.679L11.009,5.782 M11.164,5.407h-0.155H9.783
				H9.628L9.519,5.516L8.84,6.195L8.574,6.461L8.84,6.726l2.324,2.324l0.266,0.266l0.266-0.266l1.291-1.291l0.266-0.266
				l-0.266-0.266l-1.712-1.712L11.164,5.407L11.164,5.407z"/>
		</g>
		<g>
			<polygon class="st1" points="5.871,9.622 5.871,8.397 6.847,7.42 9.533,7.42 9.533,9.622 			"/>
			<path class="st2" d="M9.345,7.608v1.826H6.059V8.475l0.866-0.866L9.345,7.608 M9.72,7.233H9.345h-2.42H6.77L6.66,7.342
				L5.793,8.209L5.684,8.318v0.155v0.959v0.375h0.375h3.286H9.72V9.433V7.607V7.233L9.72,7.233z"/>
		</g>
		<g>
			<polygon class="st1" points="5.141,13.09 5.141,11.709 7.04,9.811 8.595,11.367 6.006,13.955 			"/>
			<path class="st2" d="M7.04,10.076l1.291,1.291l-2.324,2.324l-0.678-0.678v-1.226L7.04,10.076 M7.04,9.545L6.774,9.811
				l-1.712,1.712l-0.109,0.109v0.155v1.226v0.155l0.109,0.109l0.679,0.679l0.266,0.266l0.266-0.266l2.324-2.324l0.266-0.266
				l-0.266-0.266L7.306,9.81L7.04,9.545L7.04,9.545z"/>
		</g>
		<g>
			<polygon class="st1" points="7.943,16.924 6.967,15.949 6.967,13.264 9.168,13.264 9.168,16.924 			"/>
			<path class="st2" d="M8.98,13.451v3.286H8.021l-0.866-0.866v-2.42H8.98 M9.355,13.076H8.98H7.154H6.779v0.375v2.42v0.155
				l0.109,0.11l0.866,0.866l0.109,0.109h0.155h0.959h0.375v-0.375v-3.286v-0.374H9.355z"/>
		</g>
		<g>
			<polygon class="st1" points="11.256,17.655 9.357,15.757 10.913,14.201 13.502,16.789 12.636,17.655 			"/>
			<path class="st2" d="M10.913,14.465l2.324,2.324l-0.679,0.679h-1.225l-1.712-1.712L10.913,14.465 M10.913,13.935l-0.266,0.266
				l-1.291,1.291l-0.266,0.265l0.266,0.266l1.712,1.711l0.109,0.11h0.155h1.225h0.155l0.109-0.11l0.679-0.679l0.266-0.266
				l-0.266-0.265L11.178,14.2L10.913,13.935L10.913,13.935z"/>
		</g>
		<g>
			<polygon class="st1" points="12.81,15.83 12.81,13.629 16.471,13.629 16.471,14.854 15.495,15.83 			"/>
			<path class="st2" d="M16.284,13.816v0.959l-0.866,0.866h-2.42v-1.826L16.284,13.816 M16.659,13.441h-0.375h-3.286h-0.375v0.375
				v1.826v0.375h0.375h2.42h0.155l0.109-0.109l0.866-0.866l0.109-0.109v-0.155v-0.959L16.659,13.441L16.659,13.441z"/>
		</g>
		<g>
			<polygon class="st1" points="13.746,11.883 16.336,9.294 17.202,10.16 17.202,11.541 15.303,13.439 			"/>
			<path class="st2" d="M16.335,9.559l0.679,0.679v1.226l-1.712,1.711l-1.291-1.291L16.335,9.559 M16.335,9.029L16.07,9.295
				l-2.324,2.324l-0.266,0.266l0.266,0.266l1.291,1.291l0.266,0.265l0.266-0.265l1.712-1.712l0.109-0.109v-0.155v-1.227v-0.155
				l-0.109-0.109L16.6,9.294L16.335,9.029L16.335,9.029z"/>
		</g>
		<g>
			<polygon class="st1" points="13.175,9.986 13.175,6.325 14.4,6.325 15.375,7.301 15.375,9.986 			"/>
			<path class="st2" d="M14.322,6.512l0.866,0.866v2.42h-1.826V6.512H14.322 M14.477,6.137h-0.155h-0.959h-0.375v0.375v3.286v0.375
				h0.375h1.826h0.375V9.799v-2.42V7.223l-0.109-0.109l-0.867-0.866L14.477,6.137L14.477,6.137z"/>
		</g>
	</g>
</g>
<g>
	<g>
		<path class="st3" d="M20.89,23.113h-6.036c-1.1,0-2-0.9-2-2v-6.036c0-1.1,0.9-2,2-2h6.036c1.1,0,2,0.9,2,2v6.036
			C22.89,22.213,21.99,23.113,20.89,23.113z"/>
	</g>
	<g>
		<path class="st1" d="M20.765,23.487h-5.786c-1.381,0-2.5-1.119-2.5-2.5v-5.786c0-1.381,1.119-2.5,2.5-2.5h5.786
			c1.381,0,2.5,1.119,2.5,2.5v5.786C23.265,22.368,22.145,23.487,20.765,23.487z M13.228,14.951v6.286c0,0.828,0.672,1.5,1.5,1.5
			h6.286c0.828,0,1.5-0.672,1.5-1.5v-6.286c0-0.828-0.672-1.5-1.5-1.5h-6.286C13.9,13.451,13.228,14.123,13.228,14.951z"/>
	</g>
</g>
<g>
	<path class="st1" d="M14.246,19.551c0-0.061,0.011-0.119,0.034-0.173c0.022-0.055,0.054-0.102,0.094-0.141s0.087-0.071,0.141-0.094
		c0.054-0.024,0.112-0.036,0.175-0.036c0.062,0,0.12,0.012,0.175,0.036c0.054,0.023,0.101,0.055,0.141,0.094
		c0.04,0.039,0.072,0.086,0.096,0.141s0.035,0.113,0.035,0.173c0,0.062-0.011,0.121-0.035,0.175
		c-0.024,0.054-0.055,0.101-0.096,0.14c-0.04,0.04-0.087,0.07-0.141,0.092c-0.054,0.023-0.112,0.034-0.175,0.034
		c-0.063,0-0.121-0.011-0.175-0.034c-0.054-0.022-0.101-0.053-0.141-0.092c-0.04-0.039-0.071-0.085-0.094-0.14
		C14.257,19.672,14.246,19.614,14.246,19.551z"/>
	<path class="st1" d="M17.701,19.951c-0.088,0-0.15-0.021-0.185-0.062c-0.035-0.041-0.053-0.093-0.053-0.155l0.024-0.44
		c-0.145,0.215-0.307,0.386-0.487,0.512c-0.18,0.126-0.372,0.189-0.575,0.189c-0.126,0-0.24-0.023-0.342-0.069
		c-0.103-0.047-0.191-0.115-0.263-0.207c-0.073-0.092-0.129-0.208-0.168-0.35c-0.039-0.141-0.059-0.307-0.059-0.499
		c0-0.17,0.018-0.337,0.053-0.501c0.035-0.163,0.085-0.319,0.15-0.465c0.064-0.147,0.141-0.282,0.231-0.405
		c0.089-0.123,0.188-0.23,0.298-0.32s0.227-0.161,0.351-0.212c0.124-0.051,0.253-0.076,0.386-0.076c0.135,0,0.257,0.025,0.367,0.073
		c0.11,0.049,0.205,0.116,0.287,0.2l0.197-1.577h0.711l-0.537,4.364H17.701z M16.706,19.425c0.078,0,0.159-0.027,0.241-0.081
		c0.082-0.054,0.162-0.128,0.238-0.223c0.076-0.095,0.148-0.206,0.213-0.335c0.065-0.128,0.122-0.267,0.168-0.415l0.091-0.732
		c-0.066-0.072-0.143-0.123-0.229-0.152c-0.086-0.029-0.17-0.044-0.252-0.044c-0.129,0-0.247,0.04-0.352,0.12
		c-0.106,0.08-0.196,0.185-0.272,0.315c-0.075,0.129-0.133,0.274-0.175,0.436c-0.041,0.161-0.062,0.323-0.062,0.486
		c0,0.212,0.034,0.369,0.103,0.472C16.487,19.373,16.583,19.425,16.706,19.425z"/>
	<path class="st1" d="M20.806,19.692c-0.09,0.075-0.184,0.134-0.277,0.179c-0.094,0.045-0.193,0.077-0.296,0.096
		c-0.104,0.018-0.217,0.028-0.341,0.028c-0.174,0-0.33-0.03-0.468-0.09c-0.138-0.059-0.255-0.144-0.351-0.254
		c-0.096-0.11-0.169-0.242-0.219-0.396c-0.05-0.155-0.075-0.327-0.075-0.517c0-0.245,0.039-0.479,0.117-0.7
		c0.078-0.222,0.188-0.418,0.329-0.588c0.141-0.17,0.308-0.305,0.502-0.405c0.194-0.101,0.405-0.151,0.634-0.151
		c0.2,0,0.37,0.035,0.51,0.106c0.14,0.07,0.264,0.176,0.374,0.317l-0.232,0.277c-0.017,0.017-0.038,0.034-0.06,0.048
		s-0.048,0.022-0.075,0.022c-0.033,0-0.063-0.01-0.09-0.031c-0.028-0.021-0.059-0.043-0.096-0.066
		c-0.036-0.024-0.082-0.045-0.135-0.066c-0.054-0.02-0.124-0.031-0.21-0.031c-0.112,0-0.218,0.031-0.32,0.091
		s-0.191,0.147-0.269,0.258c-0.077,0.112-0.139,0.246-0.185,0.403c-0.046,0.156-0.069,0.329-0.069,0.519
		c0,0.221,0.049,0.392,0.147,0.512c0.098,0.12,0.23,0.181,0.396,0.181c0.112,0,0.205-0.017,0.278-0.048
		c0.073-0.032,0.135-0.068,0.186-0.106c0.051-0.038,0.097-0.073,0.137-0.106c0.04-0.032,0.083-0.048,0.131-0.048
		c0.024,0,0.047,0.006,0.069,0.019c0.022,0.013,0.043,0.029,0.06,0.048l0.185,0.223C20.993,19.526,20.898,19.618,20.806,19.692z"/>
</g>
</svg>
