<?xml version="1.0" encoding="utf-8"?>
<!-- Generator: Adobe Illustrator 21.0.0, SVG Export Plug-In . SVG Version: 6.00 Build 0)  -->
<svg version="1.1" id="Layer_1" xmlns="http://www.w3.org/2000/svg" xmlns:xlink="http://www.w3.org/1999/xlink" x="0px" y="0px"
	 viewBox="0 0 24 24" style="enable-background:new 0 0 24 24;" xml:space="preserve">
<style type="text/css">
	.st0{fill:#FFFFFF;}
	.st1{fill:#333333;}
</style>
<g>
	<rect x="0.57" y="3.692" class="st0" width="22.86" height="13.191"/>
	<path class="st1" d="M23.999,3.884c0-0.535-0.214-0.752-0.745-0.754C22.492,3.127,7.518,3.128,0.793,3.128
		C0.216,3.128,0,3.345,0,3.923C0,8.932,0,13.941,0.001,18.95c0,0.571,0.225,0.794,0.796,0.794c2.715,0.001,8.362,0,8.524,0
		c-0.096,0.675-0.181,1.298-0.274,1.919c-0.035,0.236-0.421,0.38-0.421,0.38L7.92,22.173l-0.007,0.094l0.233,0.066l7.697,0
		l0.239-0.073l-0.007-0.089c0,0-0.562-0.092-0.838-0.161c-0.094-0.023-0.23-0.107-0.244-0.182c-0.122-0.677-0.221-1.358-0.334-2.083
		c0.184,0,5.821,0.001,8.535,0c0.594,0,0.805-0.212,0.805-0.808C24,13.919,24,8.901,23.999,3.884z M23.259,16.594
		c0,0.087-0.071,0.158-0.158,0.158H0.898c-0.087,0-0.158-0.071-0.158-0.158V4.007c0-0.087,0.071-0.158,0.158-0.158h22.203
		c0.087,0,0.158,0.071,0.158,0.158V16.594z"/>
	<circle class="st0" cx="12" cy="18.411" r="0.556"/>
</g>
</svg>
