<?xml version="1.0" encoding="utf-8"?>
<!-- Generator: Adobe Illustrator 21.0.0, SVG Export Plug-In . SVG Version: 6.00 Build 0)  -->
<svg version="1.1" id="Layer_1" xmlns="http://www.w3.org/2000/svg" xmlns:xlink="http://www.w3.org/1999/xlink" x="0px" y="0px"
	 viewBox="0 0 24 24" style="enable-background:new 0 0 24 24;" xml:space="preserve">
<style type="text/css">
	.st0{fill:#FFFFFF;}
	.st1{fill:#333333;}
	.st2{fill:#EEB111;}
</style>
<g>
	<g>
		<g>
			<path class="st0" d="M17.168,23.525H3.358c-0.598,0-1.087-0.489-1.087-1.087V1.358c0-0.598,0.489-1.087,1.087-1.087h13.81
				c0.598,0,1.087,0.489,1.087,1.087v21.079C18.255,23.036,17.766,23.525,17.168,23.525z"/>
		</g>
		<g>
			<path class="st1" d="M17.168,23.796H3.358C2.609,23.796,2,23.187,2,22.438V1.358C2,0.609,2.609,0,3.358,0h13.81
				c0.749,0,1.358,0.609,1.358,1.358v21.08C18.526,23.187,17.917,23.796,17.168,23.796z M3.358,0.543
				c-0.449,0-0.815,0.366-0.815,0.815v21.08c0,0.449,0.366,0.815,0.815,0.815h13.81c0.449,0,0.815-0.366,0.815-0.815V1.358
				c0-0.449-0.366-0.815-0.815-0.815H3.358z"/>
		</g>
	</g>
	<g>
		<path class="st1" d="M18.255,2.479H2.272V1.318c0-0.598,0.489-1.087,1.087-1.087h13.81c0.598,0,1.087,0.489,1.087,1.087V2.479z"/>
	</g>
	<g>
		<g>
			<path class="st1" d="M18.255,21.276H2.272v1.161c0,0.598,0.489,1.087,1.087,1.087h13.81c0.598,0,1.087-0.489,1.087-1.087V21.276z
				"/>
		</g>
		<g>
			<circle class="st0" cx="10.263" cy="22.4" r="0.671"/>
		</g>
	</g>
	<g>
		<circle class="st0" cx="10.263" cy="1.355" r="0.272"/>
	</g>
</g>
<g>
	<g>
		<polygon class="st0" points="17.45,21.574 17.45,21.574 12.774,21.574 12.774,7.541 17.435,7.541 17.45,7.541 22.111,7.541 
			22.111,21.574 		"/>
		<path class="st1" d="M20.657,24h-6.252c-0.997,0-1.808-0.811-1.808-1.808V6.808C12.597,5.811,13.408,5,14.405,5h6.252
			c0.997,0,1.808,0.811,1.808,1.808v15.385C22.465,23.189,21.654,24,20.657,24z M14.405,5.353c-0.802,0-1.454,0.652-1.454,1.454
			v15.385c0,0.802,0.652,1.454,1.454,1.454h6.252c0.802,0,1.454-0.652,1.454-1.454V6.808c0-0.802-0.652-1.454-1.454-1.454H14.405z"
			/>
	</g>
	<path class="st0" d="M19.23,6.611h-3.398c-0.15,0-0.272-0.122-0.272-0.272v0c0-0.15,0.122-0.272,0.272-0.272h3.398
		c0.15,0,0.272,0.122,0.272,0.272v0C19.502,6.488,19.38,6.611,19.23,6.611z"/>
	<g>
		<path class="st1" d="M12.774,21.574v0.618c0,0.897,0.734,1.631,1.631,1.631h6.252c0.897,0,1.631-0.734,1.631-1.631v-0.618H12.774z
			"/>
		<circle class="st0" cx="17.531" cy="22.699" r="0.68"/>
	</g>
	<path class="st1" d="M12.774,7.541l0-0.746c0-0.897,0.734-1.631,1.631-1.631h6.252c0.897,0,1.631,0.734,1.631,1.631l0,0.746H12.774
		z"/>
	<path class="st0" d="M19.23,6.624h-3.398c-0.15,0-0.272-0.122-0.272-0.272v0c0-0.15,0.122-0.272,0.272-0.272h3.398
		c0.15,0,0.272,0.122,0.272,0.272v0C19.502,6.502,19.38,6.624,19.23,6.624z"/>
</g>
<g>
	<g>
		<circle class="st0" cx="15.08" cy="19.045" r="3.55"/>
	</g>
	<g>
		<path class="st2" d="M15.08,23.768c-4.834,0-7.414-3.954-7.414-4.723s2.58-4.723,7.414-4.723s7.414,3.954,7.414,4.723
			S19.914,23.768,15.08,23.768z M15.094,16.033c-1.669,0-3.027,1.352-3.027,3.012s1.358,3.012,3.027,3.012
			c1.653,0,2.996-1.352,2.996-3.012S16.747,16.033,15.094,16.033z M15.094,20.915c-1.015,0-1.841-0.838-1.841-1.869
			s0.826-1.869,1.841-1.869c0.124,0,0.232,0.05,0.302,0.141c0.155,0.201,0.075,0.503-0.026,0.886
			c-0.05,0.189-0.154,0.582-0.103,0.676c0.006,0,0.048,0.002,0.048,0.002c0.136,0,0.346-0.052,0.549-0.103
			c0.225-0.056,0.438-0.109,0.608-0.109c0.321,0,0.435,0.202,0.435,0.375C16.907,20.076,16.094,20.915,15.094,20.915z"/>
		<path class="st1" d="M15.08,24c-5.079,0-7.646-4.118-7.646-4.955c0-0.837,2.567-4.955,7.646-4.955s7.645,4.118,7.645,4.955
			C22.725,19.882,20.158,24,15.08,24z M15.08,14.554c-4.594,0-7.182,3.787-7.182,4.491s2.588,4.491,7.182,4.491
			c4.594,0,7.182-3.787,7.182-4.491S19.673,14.554,15.08,14.554z M15.094,22.289c-1.797,0-3.259-1.455-3.259-3.244
			s1.462-3.244,3.259-3.244c1.78,0,3.228,1.455,3.228,3.244S16.874,22.289,15.094,22.289z M15.094,16.265
			c-1.541,0-2.795,1.247-2.795,2.781s1.254,2.781,2.795,2.781c1.524,0,2.765-1.247,2.765-2.781S16.619,16.265,15.094,16.265z
			 M15.094,21.146c-1.143,0-2.072-0.943-2.072-2.101c0-1.159,0.93-2.101,2.072-2.101c0.197,0,0.37,0.082,0.485,0.231
			c0.225,0.292,0.128,0.661,0.015,1.088c-0.043,0.163-0.07,0.279-0.086,0.362c0.09-0.019,0.194-0.044,0.291-0.068
			c0.256-0.064,0.478-0.119,0.673-0.119c0.458,0,0.666,0.315,0.666,0.607C17.139,20.204,16.221,21.146,15.094,21.146z
			 M15.094,17.407c-0.887,0-1.609,0.735-1.609,1.638s0.722,1.638,1.609,1.638c0.872,0,1.581-0.735,1.581-1.638
			c0-0.097-0.066-0.144-0.203-0.144c-0.139,0-0.334,0.049-0.541,0.1c-0.244,0.06-0.454,0.112-0.616,0.112l-0.186-0.007l-0.066-0.117
			c-0.073-0.134-0.054-0.332,0.082-0.846c0.081-0.309,0.152-0.575,0.067-0.685C15.187,17.425,15.147,17.407,15.094,17.407z"/>
	</g>
</g>
</svg>
