<?xml version="1.0" encoding="utf-8"?>
<!-- Generator: Adobe Illustrator 19.1.0, SVG Export Plug-In . SVG Version: 6.00 Build 0)  -->
<svg version="1.1" id="Layer_1" xmlns="http://www.w3.org/2000/svg" xmlns:xlink="http://www.w3.org/1999/xlink" x="0px" y="0px"
	 viewBox="0 0 48 48" enable-background="new 0 0 48 48" xml:space="preserve">
<g>
	<g>
		<path fill="#666666" d="M3.273,6.318l20.726,18.673L44.727,6.261C43.83,5.674,43.442,5,42.289,5H5.711
			C4.558,5,4.171,5.73,3.273,6.318z"/>
		<path fill="#666666" d="M23.999,28.008c-0.181,0-0.362-0.062-0.507-0.191L1.429,8.513C0.551,9.518,0,10.817,0,12.257v24.577
			C0,39.988,2.557,43,5.711,43h36.577C45.443,43,48,39.988,48,36.834V12.257c0-1.44-0.551-2.739-1.43-3.744L24.506,27.817
			C24.36,27.946,24.18,28.008,23.999,28.008z"/>
	</g>
	<g>
		<path fill="#333333" d="M13,47v-4.277c-1-0.256-1.813-0.645-2.514-1.096l-3.024,2.989L3.34,40.442l3.035-2.96
			C5.944,36.792,5.585,36,5.342,35H1v-6h4.382c0.255-1,0.635-1.759,1.072-2.431l-3.071-3.107l4.175-4.122l3.042,3.117
			c0.662-0.421,1.4-0.774,2.4-1.017V17h6v4.441c1,0.246,1.739,0.615,2.405,1.041l3.133-3.098l4.122,4.176l-3.09,3.015
			C26.004,27.243,26.366,28,26.618,29H31v6h-4.342c-0.245,1-0.621,1.793-1.058,2.487l3.016,3.051l-4.174,4.122l-2.934-3.009
			C20.81,42.097,20,42.47,19,42.724V47H13z M16,26.98c-2.813,0-5.102,2.289-5.102,5.103s2.288,5.103,5.102,5.103
			s5.102-2.289,5.102-5.103S18.813,26.98,16,26.98z"/>
		<path fill="#FFFFFF" d="M18,18v4.226c2,0.258,2.443,0.764,3.486,1.446l3.024-2.975l2.828,2.864l-2.971,2.932
			C25.069,27.538,25.568,28,25.838,30H30v4h-4.13c-0.251,2-0.762,2.505-1.458,3.571l2.891,2.939l-2.863,2.828l-2.849-2.888
			C20.523,41.166,20,41.676,18,41.941V46h-4v-4.059c-2-0.266-2.523-0.792-3.591-1.509L7.49,43.303L4.662,40.44l2.908-2.869
			C6.874,36.505,6.382,36,6.13,34H2v-4h4.162c0.271-2,0.788-2.462,1.488-3.507L4.697,23.49l2.863-2.828l2.954,2.993
			C11.557,22.972,12,22.482,14,22.226V18H18 M16,38.119c3.328,0,6.036-2.708,6.036-6.036S19.328,26.048,16,26.048
			s-6.036,2.708-6.036,6.036S12.672,38.119,16,38.119 M20,16h-2.133h-3.733H12v2v2.714c0,0.168-0.885,0.368-1.289,0.586
			l-1.906-1.949l-1.282-1.3l-1.295,1.304l-2.855,2.845l-1.306,1.302l1.29,1.324l1.924,1.844C5.05,27.085,4.839,28,4.662,28H2H0
			v2.133v3.733V36h2h2.613c0.173,0,0.381,0.938,0.609,1.367L3.35,39.195l-1.299,1.282l1.303,1.295l2.845,2.855l1.302,1.306
			l1.324-1.289l1.764-1.846C11.03,43.041,12,43.262,12,43.446V46v2h2.133h3.733H20v-2v-2.553c0-0.181,0.961-0.399,1.399-0.638
			l1.796,1.84l1.282,1.299l1.295-1.303l2.855-2.845l1.306-1.302l-1.29-1.324l-1.877-1.795C27,36.948,27.211,36,27.387,36H30h2
			v-2.133v-3.733V28h-2h-2.66c-0.175,0-0.383-0.906-0.609-1.319l1.918-1.875l1.299-1.282l-1.303-1.295l-2.845-2.856l-1.302-1.307
			l-1.324,1.291l-1.874,1.955C20.893,21.089,20,20.887,20,20.716V18V16L20,16z M16,36.252c-2.299,0-4.169-1.87-4.169-4.169
			s1.87-4.169,4.169-4.169s4.169,1.87,4.169,4.169S18.299,36.252,16,36.252L16,36.252z"/>
	</g>
</g>
</svg>
