<?xml version="1.0" encoding="utf-8"?>
<!-- Generator: Adobe Illustrator 19.2.1, SVG Export Plug-In . SVG Version: 6.00 Build 0)  -->
<svg version="1.1" id="Layer_1" xmlns="http://www.w3.org/2000/svg" xmlns:xlink="http://www.w3.org/1999/xlink" x="0px" y="0px"
	 viewBox="0 0 24 24" style="enable-background:new 0 0 24 24;" xml:space="preserve">
<style type="text/css">
	.st0{fill:#B26828;}
	.st1{fill:#FFFFFF;}
	.st2{fill:#E59A2C;}
	.st3{fill:#DC8327;}
	.st4{fill:#333333;}
	.st5{fill:#DE3826;}
</style>
<g id="Layer_7">
</g>
<g id="Layer_7_1_">
</g>
<g>
	<g>
		<g>
			<path class="st0" d="M0.4,19.4V2.1c0-0.9,0.7-1.7,1.7-1.7h6.5c0.4,0,0.8,0.1,1.1,0.4l3,2.7c0.2,0.2,0.4,0.2,0.5,0.2h8.7
				c0.9,0,1.7,0.7,1.7,1.7v14.1H0.4z"/>
			<g>
				<path class="st1" d="M8.6,0.8c0.3,0,0.6,0.1,0.8,0.3l3,2.7c0.2,0.2,0.5,0.3,0.8,0.3h8.7c0.7,0,1.2,0.6,1.2,1.2V19H0.8v-17
					c0-0.7,0.6-1.3,1.2-1.3H8.6 M8.6,0H2.1C0.9,0,0,0.9,0,2.1v17v0.8h0.8h22.3H24V19V5.4c0-1.1-0.9-2.1-2.1-2.1h-8.7
					c0,0-0.1,0-0.3-0.2l-3-2.7l0,0l0,0C9.6,0.2,9.1,0,8.6,0L8.6,0z"/>
			</g>
		</g>
	</g>
	<g>
		<path class="st2" d="M1.7,18.2h20.7V6.6c0-0.5-0.4-0.8-0.8-0.8h-19C2,5.8,1.7,6.2,1.7,6.6V18.2z"/>
	</g>
	<g>
		<polygon class="st3" points="1.7,18.2 22.3,18.2 22.3,7.4 		"/>
	</g>
</g>
<g id="fave_icon_-_selected">
</g>
<g id="fave_icon_-_selected_1_">
</g>
<path class="st1" d="M22.4,24c-0.4,0-0.9-0.2-1.2-0.5l-1.9-1.9c-0.7,0.4-1.5,0.6-2.4,0.6c-2.9,0-5.2-2.3-5.2-5.2s2.4-5.2,5.2-5.2
	c2.9,0,5.2,2.3,5.2,5.2c0,0.8-0.2,1.6-0.6,2.4l1.9,1.9c0.3,0.3,0.5,0.7,0.5,1.2c0,0.4-0.2,0.8-0.5,1.1C23.2,23.8,22.8,24,22.4,24z
	 M17,15c-1.1,0-2,0.9-2,2c0,1.1,0.9,2,2,2c1.1,0,2-0.9,2-2C19,15.9,18.1,15,17,15z"/>
<path class="st4" d="M22.8,21.9l-2.4-2.4c0.5-0.7,0.8-1.6,0.8-2.5c0-2.3-1.9-4.2-4.2-4.2s-4.2,1.9-4.2,4.2s1.9,4.2,4.2,4.2
	c0.9,0,1.8-0.3,2.5-0.8l2.4,2.4c0.1,0.1,0.3,0.2,0.4,0.2s0.3-0.1,0.4-0.2C23.1,22.6,23.1,22.2,22.8,21.9z M14,17c0-1.6,1.3-3,3-3
	c1.6,0,3,1.3,3,3c0,1.6-1.3,3-3,3C15.3,20,14,18.6,14,17z"/>
<polygon class="st1" points="13,12 9,12 10,4 0,16 4,16 3,24 "/>
<polygon class="st5" points="5.1,15 2.1,15 8.6,7.3 7.9,13 10.9,13 4.4,20.7 "/>
</svg>
