<?xml version="1.0" encoding="utf-8"?>
<!-- Generator: Adobe Illustrator 19.1.0, SVG Export Plug-In . SVG Version: 6.00 Build 0)  -->
<!DOCTYPE svg PUBLIC "-//W3C//DTD SVG 1.1//EN" "http://www.w3.org/Graphics/SVG/1.1/DTD/svg11.dtd">
<svg version="1.1" id="Layer_1" xmlns="http://www.w3.org/2000/svg" xmlns:xlink="http://www.w3.org/1999/xlink" x="0px" y="0px"
	 viewBox="0 0 24 24" enable-background="new 0 0 24 24" xml:space="preserve">
<g>
	<path fill="#333333" d="M16.24,16.954c0.196-0.001,0.375-0.081,0.504-0.209c0.129-0.129,0.208-0.307,0.207-0.504
		c0-0.393-0.319-0.712-0.712-0.712h-2.308l0.799-0.799c2.914-2.914,5.441-1.608,7.05,0c0.278,0.278,0.729,0.278,1.007,0
		s0.278-0.729,0-1.007c-2.879-2.879-6.185-2.879-9.064,0l-0.799,0.799v-2.31c0-0.393-0.319-0.712-0.712-0.712
		S11.5,11.819,11.5,12.212v4.741L16.24,16.954z"/>
	<path fill="#FFFFFF" d="M23.998,18.048v4.741"/>
	<path fill="#333333" d="M18.76,18.046c-0.196,0.001-0.375,0.081-0.504,0.209c-0.129,0.129-0.208,0.307-0.207,0.504
		c0,0.393,0.319,0.712,0.712,0.712h2.308L20.27,20.27c-2.914,2.914-5.441,1.608-7.05,0c-0.278-0.278-0.729-0.278-1.007,0
		s-0.278,0.729,0,1.007c2.879,2.879,6.185,2.879,9.064,0l0.799-0.799v2.31c0,0.393,0.319,0.712,0.712,0.712s0.712-0.319,0.712-0.712
		v-4.741L18.76,18.046z"/>
</g>
<path fill="#333333" d="M22.241,3.403h-8.96c-0.142,0-0.28-0.068-0.49-0.233L9.659,0.404C9.332,0.143,8.919,0,8.499,0H1.76
	C0.789,0,0,0.789,0,1.76v18.209h11.825c0.015-0.016,0.021-0.038,0.036-0.054c0.227-0.228,0.531-0.354,0.855-0.354
	s0.628,0.126,0.857,0.355c0.02,0.02,0.041,0.033,0.061,0.053h5.115c-0.575-0.005-1.033-0.419-1.151-0.96H0.96V1.76
	c0-0.441,0.359-0.8,0.8-0.8h6.739c0.204,0,0.404,0.069,0.543,0.179l3.133,2.767c0.286,0.225,0.64,0.456,1.105,0.456h8.96
	c0.441,0,0.8,0.359,0.8,0.8v8.115c0.033,0.032,0.067,0.06,0.1,0.093c0.229,0.229,0.355,0.534,0.355,0.858
	c-0.001,0.323-0.127,0.628-0.356,0.856c-0.029,0.029-0.068,0.041-0.099,0.066v2.397h0.458l0.5,0.5v1.921H24h0.001V5.163
	C24.001,4.192,23.211,3.403,22.241,3.403z"/>
<path fill="#FFFFFF" d="M17.547,18.759c-0.002-0.322,0.124-0.628,0.354-0.857c0.228-0.228,0.531-0.354,0.854-0.355l4.285,0.001
	V15.15c-0.214,0.176-0.473,0.288-0.756,0.288c-0.324,0-0.628-0.126-0.857-0.355c-1.051-1.05-2.121-1.583-3.181-1.583
	c-1.029,0-2.074,0.515-3.106,1.528h1.101c0.668,0,1.212,0.544,1.212,1.212c0.002,0.322-0.124,0.628-0.354,0.857
	c-0.228,0.228-0.531,0.354-0.854,0.355H16.24l-4.74,0.001l-0.5-0.5v-4.741C11,11.543,11.544,11,12.212,11s1.212,0.543,1.212,1.212
	v1.104c1.494-1.474,3.163-2.252,4.831-2.252c1.651,0,3.302,0.767,4.785,2.213V5.162c0-0.441-0.359-0.8-0.8-0.8h-8.96
	c-0.465,0-0.819-0.231-1.105-0.456L9.042,1.139C8.903,1.029,8.703,0.96,8.499,0.96H1.76c-0.441,0-0.8,0.359-0.8,0.8v17.249h16.638
	C17.579,18.926,17.547,18.848,17.547,18.759z"/>
</svg>
