<?xml version="1.0" encoding="utf-8"?>
<!-- Generator: Adobe Illustrator 19.1.0, SVG Export Plug-In . SVG Version: 6.00 Build 0)  -->
<svg version="1.1" id="Layer_1" xmlns="http://www.w3.org/2000/svg" xmlns:xlink="http://www.w3.org/1999/xlink" x="0px" y="0px"
	 viewBox="0 0 48 48" enable-background="new 0 0 48 48" xml:space="preserve">
<g>
	<polygon fill="#333333" points="45,6 42,6 36,6 36,9 42,9 45,30 3,30 6,9 13,9 13,6 3,6 3,6 0,29.732 0,48 48,48 48,29.795 	"/>
</g>
<path fill="#333333" d="M14.993,11.661c0.639,0.637,1.488,0.637,2.127,0L22,6.617v15.625c0,0.899,1.096,1.628,2,1.628
	c0.902,0,2-0.729,2-1.628V6.667l4.829,4.994c0.639,0.637,1.582,0.637,2.219,0c0.639-0.637,0.593-1.666-0.046-2.302l-8.995-9.22
	l-9.004,9.22C14.366,9.995,14.354,11.025,14.993,11.661"/>
</svg>
