<?xml version="1.0" encoding="utf-8"?>
<!-- Generator: Adobe Illustrator 19.1.0, SVG Export Plug-In . SVG Version: 6.00 Build 0)  -->
<svg version="1.1" id="Layer_1" xmlns="http://www.w3.org/2000/svg" xmlns:xlink="http://www.w3.org/1999/xlink" x="0px" y="0px"
	 viewBox="0 0 24 24" style="enable-background:new 0 0 24 24;" xml:space="preserve">
<style type="text/css">
	.st0{fill:#9370B1;}
	.st1{fill:#FFFFFF;}
	.st2{fill:#7F5B8C;}
	.st3{fill:#E59A2C;}
	.st4{fill:#CF862D;}
	.st5{fill:#B9742E;}
</style>
<g>
	<g>
		<g>
			<g>
				<path class="st0" d="M17.777,23.615H4.566c-1.619,0-3.181-1.303-3.181-2.904V3.289c0-1.601,1.562-2.904,3.181-2.904h11.499
					l4.893,4.84v15.487C20.957,22.312,19.396,23.615,17.777,23.615z"/>
				<path class="st1" d="M17.777,24H4.565C2.666,24,1,22.463,1,20.711V3.289C1,1.537,2.666,0,4.565,0h11.657l5.12,5.064v15.647
					C21.342,22.463,19.676,24,17.777,24z M4.565,0.77c-1.463,0-2.795,1.2-2.795,2.519v17.423c0,1.318,1.332,2.518,2.795,2.518
					h13.212c1.463,0,2.795-1.2,2.795-2.518V5.385L15.906,0.77H4.565z"/>
			</g>
		</g>
	</g>
	<polygon class="st2" points="15.93,0.823 15.93,5.404 20.563,5.404 	"/>
</g>
<g>
	<polygon class="st2" points="4.421,10.682 11.276,7.263 17.921,10.6 11.121,14.04 	"/>
	<polygon class="st2" points="11.121,15.837 6.064,13.303 4.421,14.122 11.121,17.481 17.921,14.04 16.291,13.222 	"/>
	<polygon class="st2" points="11.121,19.175 6.064,16.64 4.421,17.46 11.121,20.818 17.921,17.378 16.291,16.56 	"/>
</g>
<g>
	<polygon class="st1" points="4.421,9.932 11.276,6.513 17.921,9.85 11.121,13.29 	"/>
	<polygon class="st1" points="11.121,15.087 6.064,12.553 4.421,13.372 11.121,16.731 17.921,13.29 16.291,12.472 	"/>
	<polygon class="st1" points="11.121,18.425 6.064,15.89 4.421,16.71 11.121,20.068 17.921,16.628 16.291,15.81 	"/>
</g>
<g>
	<g>
		<circle class="st3" cx="18.604" cy="19.087" r="4.5"/>
		<path class="st1" d="M18.604,23.963c-2.688,0-4.875-2.187-4.875-4.875s2.187-4.875,4.875-4.875s4.875,2.187,4.875,4.875
			S21.292,23.963,18.604,23.963z M18.604,14.963c-2.274,0-4.125,1.851-4.125,4.125s1.851,4.125,4.125,4.125s4.125-1.851,4.125-4.125
			S20.878,14.963,18.604,14.963z"/>
	</g>
</g>
<g>
	<g>
		<path class="st4" d="M17.253,21.907"/>
		<path class="st5" d="M20.05,18.397c0.225-0.36,0.353-0.78,0.405-1.275c0.015-0.09,0.015-0.18,0.022-0.27V16.23h-3.232l0.008,0.488
			c-0.008,0.352,0.037,0.675,0.127,0.99c0.158,0.547,0.39,0.93,0.743,1.215c0.12,0.09,0.18,0.217,0.18,0.345
			c0,0.135-0.06,0.27-0.188,0.368c-0.098,0.082-0.173,0.15-0.232,0.225c-0.428,0.518-0.623,1.14-0.63,2.025v0.435h3.225v-0.428
			c0.008-0.337-0.03-0.652-0.105-0.952c-0.158-0.593-0.413-1.013-0.795-1.328c-0.098-0.082-0.158-0.203-0.158-0.338
			c0-0.143,0.067-0.27,0.18-0.36C19.78,18.772,19.93,18.6,20.05,18.397z M19.008,19.417c0.008,0.03,0.015,0.06,0.022,0.09
			c0.045,0.188,0.158,0.353,0.33,0.495c0.27,0.217,0.45,0.518,0.562,0.945c0.037,0.135,0.105,0.54,0.113,0.592H17.68
			c0.008-0.023,0.045-0.293,0.068-0.405c0.082-0.405,0.217-0.713,0.427-0.968c0.053-0.06,0.113-0.12,0.18-0.172
			c0.36-0.293,0.45-0.795,0.21-1.193c-0.03-0.045-0.075-0.112-0.135-0.157c-0.3-0.225-0.502-0.548-0.63-1.013
			c-0.045-0.143-0.12-0.525-0.127-0.562h2.37c-0.008,0.03-0.068,0.353-0.098,0.48c-0.068,0.285-0.165,0.518-0.308,0.713
			c-0.098,0.127-0.217,0.248-0.345,0.36c-0.135,0.113-0.24,0.255-0.308,0.443C18.94,19.192,18.978,19.312,19.008,19.417z"/>
	</g>
</g>
<g>
	<g>
		<path class="st1" d="M16.993,21.69"/>
		<path class="st1" d="M19.79,18.18c0.225-0.36,0.353-0.78,0.405-1.275c0.015-0.09,0.015-0.18,0.022-0.27v-0.623h-3.232l0.008,0.488
			c-0.008,0.352,0.037,0.675,0.127,0.99c0.158,0.547,0.39,0.93,0.743,1.215c0.12,0.09,0.18,0.217,0.18,0.345
			c0,0.135-0.06,0.27-0.188,0.368c-0.098,0.082-0.173,0.15-0.232,0.225c-0.428,0.518-0.623,1.14-0.63,2.025v0.435h3.225v-0.428
			c0.008-0.337-0.03-0.652-0.105-0.952c-0.158-0.593-0.413-1.013-0.795-1.328c-0.098-0.082-0.158-0.203-0.158-0.338
			c0-0.143,0.067-0.27,0.18-0.36C19.52,18.555,19.67,18.383,19.79,18.18z M18.748,19.2c0.008,0.03,0.015,0.06,0.022,0.09
			c0.045,0.188,0.158,0.353,0.33,0.495c0.27,0.217,0.45,0.518,0.562,0.945c0.037,0.135,0.105,0.54,0.113,0.592H17.42
			c0.008-0.023,0.045-0.293,0.068-0.405c0.082-0.405,0.217-0.713,0.427-0.968c0.053-0.06,0.113-0.12,0.18-0.172
			c0.36-0.293,0.45-0.795,0.21-1.193c-0.03-0.045-0.075-0.112-0.135-0.157c-0.3-0.225-0.502-0.548-0.63-1.013
			c-0.045-0.143-0.12-0.525-0.127-0.562h2.37c-0.008,0.03-0.068,0.353-0.098,0.48c-0.068,0.285-0.165,0.518-0.308,0.713
			c-0.098,0.127-0.217,0.248-0.345,0.36c-0.135,0.113-0.24,0.255-0.308,0.443C18.68,18.975,18.718,19.095,18.748,19.2z"/>
	</g>
</g>
</svg>
