<?xml version="1.0" encoding="utf-8"?>
<!-- Generator: Adobe Illustrator 19.1.0, SVG Export Plug-In . SVG Version: 6.00 Build 0)  -->
<svg version="1.1" id="Layer_1" xmlns="http://www.w3.org/2000/svg" xmlns:xlink="http://www.w3.org/1999/xlink" x="0px" y="0px"
	 viewBox="0 0 24 24" style="enable-background:new 0 0 24 24;" xml:space="preserve">
<style type="text/css">
	.st0{fill:#9370B1;}
	.st1{fill:#FFFFFF;}
	.st2{fill:#7F5B8C;}
	.st3{opacity:0.82;}
	.st4{fill:#E59A2C;}
	.st5{fill:#B9742E;}
</style>
<g>
	<g>
		<g>
			<g>
				<path class="st0" d="M17.777,23.615H4.566c-1.619,0-3.181-1.303-3.181-2.904V3.289c0-1.601,1.562-2.904,3.181-2.904h11.499
					l4.893,4.84v15.487C20.957,22.312,19.396,23.615,17.777,23.615z"/>
				<path class="st1" d="M17.777,24H4.565C2.666,24,1,22.463,1,20.711V3.289C1,1.537,2.666,0,4.565,0h11.657l5.12,5.064v15.647
					C21.342,22.463,19.676,24,17.777,24z M4.565,0.77c-1.463,0-2.795,1.2-2.795,2.519v17.423c0,1.318,1.332,2.518,2.795,2.518
					h13.212c1.463,0,2.795-1.2,2.795-2.518V5.385L15.906,0.77H4.565z"/>
			</g>
		</g>
	</g>
	<polygon class="st2" points="15.93,0.823 15.93,5.404 20.563,5.404 	"/>
</g>
<g class="st3">
	<polygon class="st2" points="4.421,10.682 11.276,7.263 17.921,10.6 11.121,14.04 	"/>
	<polygon class="st2" points="11.121,15.837 6.064,13.303 4.421,14.122 11.121,17.481 17.921,14.04 16.291,13.222 	"/>
	<polygon class="st2" points="11.121,19.175 6.064,16.64 4.421,17.46 11.121,20.818 17.921,17.378 16.291,16.56 	"/>
</g>
<g>
	<polygon class="st1" points="4.421,9.932 11.276,6.513 17.921,9.85 11.121,13.29 	"/>
	<polygon class="st1" points="11.121,15.087 6.064,12.553 4.421,13.372 11.121,16.731 17.921,13.29 16.291,12.472 	"/>
	<polygon class="st1" points="11.121,18.425 6.064,15.89 4.421,16.71 11.121,20.068 17.921,16.628 16.291,15.81 	"/>
</g>
<g>
	<g>
		<circle class="st4" cx="18.604" cy="19.087" r="4.5"/>
		<path class="st1" d="M18.604,24.088c-2.757,0-5-2.243-5-5s2.243-5,5-5s5,2.243,5,5S21.361,24.088,18.604,24.088z M18.604,15.088
			c-2.206,0-4,1.794-4,4s1.794,4,4,4s4-1.794,4-4S20.811,15.088,18.604,15.088z"/>
	</g>
	<g>
		<polygon class="st5" points="17.766,21.741 17.671,21.832 15.939,20.099 16.684,19.354 17.706,20.376 20.762,17.316 
			21.504,18.058 		"/>
	</g>
	<g>
		<polygon class="st1" points="17.649,21.254 17.554,21.345 15.822,19.612 16.567,18.867 17.589,19.889 20.645,16.83 21.387,17.572 
					"/>
	</g>
</g>
</svg>
