<?xml version="1.0" encoding="utf-8"?>
<!-- Generator: Adobe Illustrator 19.1.0, SVG Export Plug-In . SVG Version: 6.00 Build 0)  -->
<!DOCTYPE svg PUBLIC "-//W3C//DTD SVG 1.1//EN" "http://www.w3.org/Graphics/SVG/1.1/DTD/svg11.dtd">
<svg version="1.1" id="Layer_1" xmlns="http://www.w3.org/2000/svg" xmlns:xlink="http://www.w3.org/1999/xlink" x="0px" y="0px"
	 viewBox="0 0 24 24" enable-background="new 0 0 24 24" xml:space="preserve">
<g>
	<path fill="#676767" d="M16.589,3H14.98V0.48C14.98,0.221,14.759,0,14.5,0H9.52C9.251,0,9.04,0.221,9.04,0.48V3H5.678
		C4.2,3,3,4.104,3,5.448v16.104C3,22.906,4.2,24,5.678,24h12.634C19.79,24,21,22.906,21,21.552V7.205L16.589,3z M10,11.48V0.96h4.02
		v10.52c0,0.269,0.211,0.48,0.48,0.48h1.436l-3.878,3.878L8.18,11.96h1.341C9.789,11.96,10,11.749,10,11.48z M20.04,21.552
		c0,0.826-0.778,1.488-1.728,1.488H5.678c-0.95,0-1.718-0.662-1.718-1.488V5.448c0-0.816,0.768-1.488,1.718-1.488H9.04V11H7.018
		c-0.192,0-0.365,0.115-0.442,0.298c-0.077,0.173-0.038,0.384,0.106,0.518l5.04,5.04C11.808,16.952,11.933,17,12.058,17
		s0.25-0.048,0.346-0.144l5.03-5.04c0.134-0.134,0.173-0.345,0.106-0.518C17.463,11.116,17.29,11,17.089,11h-2.108V3.96h1.244
		l3.816,3.677v13.915H20.04z"/>
</g>
</svg>
