<?xml version="1.0" encoding="utf-8"?>
<!-- Generator: Adobe Illustrator 19.1.0, SVG Export Plug-In . SVG Version: 6.00 Build 0)  -->
<svg version="1.1" id="Layer_1" xmlns="http://www.w3.org/2000/svg" xmlns:xlink="http://www.w3.org/1999/xlink" x="0px" y="0px"
	 viewBox="0 0 32 32" style="enable-background:new 0 0 32 32;" xml:space="preserve">
<style type="text/css">
	.st0{fill:#00AF9A;}
	.st1{fill:#FFFFFF;}
	.st2{fill:#00896D;}
	.st3{fill:#0072AA;}
</style>
<g>
	<g>
		<g>
			<g>
				<g>
					<path class="st0" d="M5.545,31.5c-1.93,0-3.5-1.57-3.5-3.5V4c0-1.93,1.57-3.5,3.5-3.5h15.207l6.293,6.293V28
						c0,1.93-1.57,3.5-3.5,3.5H5.545z"/>
					<path class="st1" d="M20.545,1l6,6v21c0,1.657-1.343,3-3,3h-18c-1.657,0-3-1.343-3-3V4c0-1.657,1.343-3,3-3H20.545 M20.959,0
						h-0.414h-15c-2.206,0-4,1.794-4,4v24c0,2.206,1.794,4,4,4h18c2.206,0,4-1.794,4-4V7V6.586l-0.293-0.293l-6-6L20.959,0L20.959,0
						z"/>
				</g>
			</g>
			<polygon class="st2" points="20.545,1 20.545,7 26.545,7 			"/>
		</g>
		<rect x="4.723" y="6" class="st1" width="13.322" height="1"/>
		<rect x="4.723" y="9" class="st1" width="19.124" height="1"/>
		<rect x="4.723" y="26" class="st1" width="19.124" height="1"/>
		<g>
			<g>
				<path class="st1" d="M4.723,12.72v10.124h10.124V12.72H4.723z M14.252,22.249H5.318v-8.935h8.935V22.249z"/>
			</g>
			<g>
				<polygon class="st1" points="14.252,19.351 14.252,22.249 5.318,22.249 5.318,21.958 12.461,16.757 				"/>
			</g>
			<g>
				<path class="st1" d="M7.331,16.749c-0.673,0-1.221-0.548-1.221-1.221c0-0.673,0.548-1.221,1.221-1.221s1.221,0.548,1.221,1.221
					S8.004,16.749,7.331,16.749z"/>
			</g>
		</g>
	</g>
	<g>
		<g>
			<circle class="st3" cx="23.455" cy="24.922" r="6.5"/>
			<path class="st1" d="M23.455,31.922c-3.859,0-7-3.141-7-7s3.141-7,7-7s7,3.141,7,7S27.314,31.922,23.455,31.922z M23.455,18.922
				c-3.309,0-6,2.691-6,6s2.691,6,6,6s6-2.691,6-6S26.764,18.922,23.455,18.922z"/>
		</g>
		<g>
			<g>
				<g>
					<g>
						<g>
							<g>
								<path class="st1" d="M24.584,24.385c0.177-0.238,0.282-0.533,0.282-0.852c0-0.788-0.639-1.427-1.427-1.427
									c-0.788,0-1.427,0.639-1.427,1.427c0,0.788,0.639,1.427,1.427,1.427c0.135,0,0.265-0.019,0.389-0.054l1.239,4.625
									l0.554-1.271L24.584,24.385z M22.8,23.533c0-0.353,0.286-0.64,0.64-0.64c0.353,0,0.64,0.287,0.64,0.64
									c0,0.353-0.287,0.64-0.64,0.64C23.086,24.173,22.8,23.886,22.8,23.533z"/>
							</g>
							<g>
								<path class="st1" d="M22.164,24.992l-0.876,3.267l0.555,1.271l1.103-4.117C22.651,25.334,22.386,25.189,22.164,24.992z"/>
							</g>
						</g>
						<g>
							<polygon class="st1" points="23.996,20.314 23.996,21.692 23.758,21.692 23.758,21.968 23.153,21.968 23.153,21.692 
								22.915,21.692 22.915,20.314 							"/>
						</g>
					</g>
				</g>
			</g>
		</g>
	</g>
</g>
</svg>
