<?xml version="1.0" encoding="utf-8"?>
<!-- Generator: Adobe Illustrator 19.1.0, SVG Export Plug-In . SVG Version: 6.00 Build 0)  -->
<svg version="1.1" id="Layer_1" xmlns="http://www.w3.org/2000/svg" xmlns:xlink="http://www.w3.org/1999/xlink" x="0px" y="0px"
	 viewBox="0 0 48 48" enable-background="new 0 0 48 48" xml:space="preserve">
<g>
	<g>
		<g>
			<path fill="#333333" d="M37.5,48h-27C7.192,48,4,45.308,4,42V6c0-3.308,3.192-6,6.5-6H34l10,10v32C44,45.308,40.808,48,37.5,48z
				 M10.5,2C8.019,2,6,3.519,6,6v36c0,2.481,2.019,4,4.5,4h27c2.481,0,4.5-1.519,4.5-4V10l-8-8H10.5z"/>
		</g>
	</g>
	<polygon fill="#666666" points="34,2 34,10 42,10 	"/>
</g>
<path fill="#333333" d="M35.245,22H26v-9.177C26,12.369,24.417,12,24,12s-2,0.369-2,0.823V22h-9.245C12.338,22,12,23.545,12,24
	s0.338,2,0.755,2H22v9.177C22,35.631,23.583,36,24,36s2-0.369,2-0.823V26h9.245C35.662,26,36,24.455,36,24S35.662,22,35.245,22z"/>
</svg>
