<?xml version="1.0" encoding="utf-8"?>
<!-- Generator: Adobe Illustrator 19.1.0, SVG Export Plug-In . SVG Version: 6.00 Build 0)  -->
<svg version="1.1" id="Layer_1" xmlns="http://www.w3.org/2000/svg" xmlns:xlink="http://www.w3.org/1999/xlink" x="0px" y="0px"
	 viewBox="0 0 48 48" enable-background="new 0 0 48 48" xml:space="preserve">
<g>
	<g>
		<g>
			<path fill="#1C6135" d="M33.352,1.5c0,0-19.137-0.656-22.605-0.656S5.795,4.242,5.42,6.211S5.382,44.426,5.382,44.426
				l3.825,2.994l30.201-0.179l3.155-3.694l0.188-33.516L33.352,1.5z"/>
			<g>
				<path fill="#FFFFFF" d="M37.5,48h-27C7.192,48,4,45.308,4,42V6c0-3.308,3.192-6,6.5-6H34l10,10v32C44,45.308,40.808,48,37.5,48z
					 M10.5,2C8.019,2,6,3.519,6,6v36c0,2.481,2.019,4,4.5,4h27c2.481,0,4.5-1.519,4.5-4V10l-8-8H10.5z"/>
			</g>
		</g>
		<polygon fill="#134B25" points="34,2 34,10 42,10 		"/>
	</g>
	<g>
		<g>
			<path fill="#134B25" d="M15.064,31.979c0.636,0.633,1.463,0.633,2.098,0L22,26.961v15.544c0,0.894,1.101,1.62,2,1.62
				c0.897,0,2-0.726,2-1.62V27.011l4.811,4.968c0.636,0.633,1.577,0.633,2.211,0c0.636-0.633,0.592-1.657-0.044-2.291l-8.957-8.905
				l-8.946,8.905C14.44,30.322,14.429,31.346,15.064,31.979"/>
			<path fill="#134B25" d="M11,13h26.111c0.905,0,1.639,1.083,1.639,2.243S38.012,17,37.107,17H10.885
				C9.98,17,9.25,16.56,9.25,15.399s0.556-2.217,1.46-2.217"/>
		</g>
		<path fill="#FFFFFF" d="M15.064,29.979c0.636,0.633,1.463,0.633,2.098,0L22,24.961v15.544c0,0.894,1.101,1.62,2,1.62
			c0.897,0,2-0.726,2-1.62V25.011l4.811,4.968c0.636,0.633,1.577,0.633,2.211,0c0.636-0.633,0.592-1.657-0.044-2.291l-8.957-8.905
			l-8.946,8.905C14.44,28.322,14.429,29.346,15.064,29.979"/>
		<path fill="#FFFFFF" d="M11,11h26.111c0.905,0,1.639,1.083,1.639,2.243S38.012,15,37.107,15H10.885
			C9.98,15,9.25,14.56,9.25,13.399s0.556-2.217,1.46-2.217"/>
	</g>
</g>
</svg>
