<?xml version="1.0" encoding="utf-8"?>
<!-- Generator: Adobe Illustrator 19.1.0, SVG Export Plug-In . SVG Version: 6.00 Build 0)  -->
<svg version="1.1" id="Layer_1" xmlns="http://www.w3.org/2000/svg" xmlns:xlink="http://www.w3.org/1999/xlink" x="0px" y="0px"
	 viewBox="0 0 48 48" enable-background="new 0 0 48 48" xml:space="preserve">
<g>
	<g>
		<path fill="#FFFFFF" d="M33.352,1.5c0,0-19.137-0.656-22.605-0.656S5.795,4.242,5.42,6.211S5.382,44.426,5.382,44.426l3.825,2.994
			l30.201-0.179l3.155-3.694l0.188-33.516L33.352,1.5z"/>
		<g>
			<path fill="#333333" d="M37.5,48h-27C7.192,48,4,45.308,4,42V6c0-3.308,3.192-6,6.5-6H34l10,10v32C44,45.308,40.808,48,37.5,48z
				 M10.5,2C8.019,2,6,3.519,6,6v36c0,2.481,2.019,4,4.5,4h27c2.481,0,4.5-1.519,4.5-4V10l-8-8H10.5z"/>
		</g>
	</g>
	<polygon fill="#666666" points="34,2 34,10 42,10 	"/>
</g>
<g>
	<path fill="#BE2126" d="M32.184,35.25c-0.817,0-1.588-0.319-2.167-0.898L24,28.334l-6.018,6.018
		c-0.579,0.579-1.349,0.898-2.167,0.898s-1.588-0.319-2.167-0.898c-0.58-0.579-0.899-1.349-0.899-2.167s0.319-1.588,0.899-2.168
		L19.666,24l-6.016-6.017c-0.58-0.579-0.899-1.349-0.899-2.167s0.319-1.588,0.899-2.168c0.58-0.579,1.349-0.898,2.167-0.898
		s1.586,0.319,2.167,0.899L24,19.666l6.018-6.018c0.58-0.579,1.349-0.899,2.167-0.899s1.586,0.319,2.167,0.899
		s0.899,1.349,0.899,2.167s-0.319,1.588-0.899,2.168L28.334,24l6.016,6.018c0.58,0.579,0.899,1.349,0.899,2.167
		s-0.319,1.588-0.899,2.168C33.772,34.931,33.001,35.25,32.184,35.25z"/>
	<path fill="#FFFFFF" d="M32.184,13.5c0.592,0,1.184,0.226,1.637,0.679c0.905,0.905,0.905,2.369,0,3.274L27.274,24l6.547,6.547
		c0.905,0.905,0.905,2.368,0,3.274c-0.451,0.451-1.044,0.678-1.637,0.678c-0.593,0-1.185-0.227-1.637-0.678L24,27.274l-6.547,6.548
		c-0.451,0.451-1.044,0.678-1.637,0.678c-0.593,0-1.185-0.227-1.637-0.678c-0.905-0.905-0.905-2.368,0-3.274L20.726,24l-6.547-6.548
		c-0.905-0.905-0.905-2.368,0-3.274c0.453-0.453,1.045-0.679,1.637-0.679s1.184,0.226,1.637,0.679L24,20.726l6.547-6.548
		C31,13.726,31.592,13.5,32.184,13.5 M32.184,12c-1.018,0-1.976,0.397-2.697,1.118L24,18.605l-5.487-5.487
		C17.792,12.397,16.834,12,15.816,12s-1.976,0.397-2.697,1.118C12.397,13.839,12,14.797,12,15.816c0,1.018,0.397,1.977,1.118,2.698
		L18.605,24l-5.487,5.487C12.397,30.208,12,31.166,12,32.185c0,1.018,0.397,1.976,1.118,2.698C13.839,35.603,14.797,36,15.816,36
		c1.019,0,1.977-0.397,2.698-1.118L24,29.395l5.487,5.487C30.207,35.603,31.165,36,32.184,36c1.019,0,1.977-0.397,2.698-1.118
		C35.603,34.161,36,33.203,36,32.185c0-1.018-0.397-1.976-1.118-2.698L29.395,24l5.487-5.487C35.603,17.792,36,16.834,36,15.816
		c0-1.018-0.397-1.976-1.118-2.698C34.161,12.397,33.203,12,32.184,12L32.184,12z"/>
</g>
</svg>
