<?xml version="1.0" encoding="utf-8"?>
<!-- Generator: Adobe Illustrator 19.1.0, SVG Export Plug-In . SVG Version: 6.00 Build 0)  -->
<svg version="1.1" id="Layer_1" xmlns="http://www.w3.org/2000/svg" xmlns:xlink="http://www.w3.org/1999/xlink" x="0px" y="0px"
	 viewBox="0 0 48 48" enable-background="new 0 0 48 48" xml:space="preserve">
<g>
	<g>
		<polygon fill="#333333" points="45,6 42,6 36,6 36,9 42,9 45,30 3,30 6,9 13,9 13,6 3,6 3,6 0,29.732 0,48 48,48 48,29.795 		"/>
	</g>
</g>
<path fill="#333333" d="M33.128,12.348c-0.639-0.637-1.548-0.637-2.187,0L26,17.393V1.767c0-0.899-1.096-1.628-2-1.628
	c-0.902,0-2,0.729-2,1.628v15.575l-4.768-4.994c-0.639-0.637-1.552-0.637-2.189,0c-0.639,0.637-0.578,1.666,0.061,2.302l9.002,9.22
	l9.007-9.22C33.752,14.014,33.767,12.985,33.128,12.348"/>
</svg>
