<?xml version="1.0" encoding="utf-8"?>
<!-- Generator: Adobe Illustrator 19.1.0, SVG Export Plug-In . SVG Version: 6.00 Build 0)  -->
<svg version="1.1" id="Layer_1" xmlns="http://www.w3.org/2000/svg" xmlns:xlink="http://www.w3.org/1999/xlink" x="0px" y="0px"
	 viewBox="0 0 32 32" style="enable-background:new 0 0 32 32;" xml:space="preserve">
<style type="text/css">
	.st0{fill:#9370B1;}
	.st1{fill:#FFFFFF;}
	.st2{fill:#7E5A8B;}
	.st3{fill:#00A389;stroke:#FFFFFF;stroke-miterlimit:10;}
	.st4{fill:none;stroke:#FFFFFF;stroke-width:1.5;stroke-miterlimit:10;}
</style>
<g>
	<g>
		<g>
			<g>
				<g>
					<path class="st0" d="M23.633,31.487H6.018c-2.158,0-4.241-1.737-4.241-3.872V4.385c0-2.135,2.083-3.872,4.241-3.872H21.35
						l6.524,6.453v20.649C27.874,29.75,25.791,31.487,23.633,31.487z"/>
					<path class="st1" d="M23.633,32H6.018c-2.532,0-4.754-2.049-4.754-4.385V4.385C1.264,2.049,3.485,0,6.018,0H21.56l6.827,6.752
						v20.863C28.387,29.951,26.166,32,23.633,32z M6.018,1.027c-1.951,0-3.727,1.601-3.727,3.358v23.23
						c0,1.757,1.776,3.358,3.727,3.358h17.616c1.951,0,3.727-1.601,3.727-3.358V7.18l-6.221-6.153H6.018z"/>
				</g>
			</g>
		</g>
		<polygon class="st2" points="21.171,1.097 21.171,7.206 27.347,7.206 		"/>
	</g>
	<g>
		<polygon class="st2" points="5.825,14.243 14.965,9.684 23.825,14.133 14.759,18.72 		"/>
		<polygon class="st2" points="14.759,21.116 8.016,17.737 5.825,18.83 14.759,23.307 23.825,18.721 21.652,17.629 		"/>
		<polygon class="st2" points="14.759,25.567 8.016,22.187 5.825,23.28 14.759,27.758 23.825,23.171 21.652,22.079 		"/>
	</g>
	<g>
		<polygon class="st1" points="5.825,13.243 14.965,8.684 23.825,13.133 14.759,17.72 		"/>
		<polygon class="st1" points="14.759,20.116 8.016,16.737 5.825,17.83 14.759,22.307 23.825,17.721 21.652,16.629 		"/>
		<polygon class="st1" points="14.759,24.567 8.016,21.187 5.825,22.28 14.759,26.758 23.825,22.171 21.652,21.079 		"/>
	</g>
	<circle class="st3" cx="24.736" cy="25.45" r="6"/>
	<g>
		<g>
			<line class="st4" x1="24.736" y1="22.922" x2="24.736" y2="27.978"/>
			<g>
				<polygon class="st1" points="27.014,23.227 22.458,23.227 24.736,20.95 				"/>
			</g>
			<g>
				<polygon class="st1" points="27.014,27.673 22.458,27.673 24.736,29.95 				"/>
			</g>
		</g>
	</g>
</g>
</svg>
