<?xml version="1.0" encoding="utf-8"?>
<!-- Generator: Adobe Illustrator 20.1.0, SVG Export Plug-In . SVG Version: 6.00 Build 0)  -->
<!DOCTYPE svg PUBLIC "-//W3C//DTD SVG 1.1//EN" "http://www.w3.org/Graphics/SVG/1.1/DTD/svg11.dtd">
<svg version="1.1" id="Layer_1" xmlns="http://www.w3.org/2000/svg" xmlns:xlink="http://www.w3.org/1999/xlink" x="0px" y="0px"
	 viewBox="0 0 24 24" enable-background="new 0 0 24 24" xml:space="preserve">
<g>
	<path fill="#FFFFFF" d="M20.263,8.27c-0.587-0.587-1.538-0.587-2.126,0l-4.658,4.657V1.503C13.48,0.673,12.807,0,11.977,0
		s-1.503,0.673-1.503,1.503V12.88L5.863,8.27c-0.587-0.587-1.538-0.587-2.126,0s-0.587,1.538,0,2.126L12,18.658l8.263-8.262
		C20.85,9.808,20.85,8.857,20.263,8.27z"/>
	<path fill="#FFFFFF" d="M22.5,24h-21C0.672,24,0,23.328,0,22.5v0C0,21.672,0.672,21,1.5,21h21c0.828,0,1.5,0.672,1.5,1.5v0
		C24,23.328,23.328,24,22.5,24z"/>
</g>
</svg>
