<?xml version="1.0" encoding="utf-8"?>
<!-- Generator: Adobe Illustrator 19.1.0, SVG Export Plug-In . SVG Version: 6.00 Build 0)  -->
<svg version="1.1" id="Layer_1" xmlns="http://www.w3.org/2000/svg" xmlns:xlink="http://www.w3.org/1999/xlink" x="0px" y="0px"
	 viewBox="0 0 24 24" style="enable-background:new 0 0 24 24;" xml:space="preserve">
<style type="text/css">
	.st0{fill:#333333;}
</style>
<g id="BCbUfj_1_">
</g>
<path d="M68.031,44.531"/>
<g>
	<path class="st0" d="M18.256,19.812c-0.002,0.584-0.005,1.168-0.005,1.752c0,0.49-0.001,0.491-0.479,0.491
		c-0.587,0-1.174,0.001-1.762,0.001l-1.233,1.233l-0.34,0.34l-0.48,0.1l-1.34,0.267c2.15,0,4.3-0.001,6.45,0.002
		c0.251,0,0.342-0.07,0.342-0.338c-0.005-1.67,0.003-3.34,0.007-5.009L18.256,19.812z"/>
	<path class="st0" d="M7.858,22.692l0.125-0.629c-1.142,0.001-2.284-0.002-3.426,0.001c-0.348,0.001-0.435-0.106-0.432-0.44
		c0.015-1.641,0.007-3.282,0.007-4.924c0-4.257,0.003-8.514-0.007-12.772C4.124,3.597,4.212,3.474,4.558,3.484
		C5.335,3.507,6.113,3.49,6.89,3.493c0.127,0.001,0.254,0.012,0.378,0.026C7.256,3.713,7.247,4,7.237,4c2.666,0,5.299,0,7.936,0
		c-0.013,0-0.023-0.321-0.037-0.52c0.908,0,1.782,0.027,2.655-0.002c0.386-0.013,0.47,0.117,0.468,0.484
		c-0.005,1.231-0.043,2.979-0.045,4.88c0.365-0.183,1.124-0.31,1.124-0.372c0-0.734,0-1.469,0-2.203
		c0-1.109,0.028-2.219,0.036-3.328c0.002-0.29-0.093-0.376-0.376-0.373c-1.184,0.012-2.361-0.015-3.545,0.012
		c-0.388,0.009-0.539-0.112-0.54-0.487c-0.001-0.354-0.152-0.513-0.543-0.489c-0.6,0.037-1.202,0.01-1.797,0.01
		c-0.02-0.076-0.039-0.111-0.037-0.145c0.04-0.746-0.471-1.429-1.301-1.465C10.491-0.03,9.981,0.485,9.884,1.365
		c-0.022,0.197-0.103,0.25-0.28,0.248C9.111,1.608,8.617,1.612,8.123,1.612c-0.542,0-0.557-0.003-0.631,0.536
		C7.447,2.476,7.319,2.59,6.971,2.581c-1.073-0.028-2.147-0.023-3.22-0.01C2.812,2.583,2.926,2.42,2.924,3.395
		C2.916,7.306,2.92,11.218,2.921,15.129c0.001,2.813,0.009,5.627-0.001,8.44c-0.001,0.35,0.12,0.443,0.451,0.434
		c0.789-0.02,1.579-0.002,2.369-0.002c0.618,0,1.237,0,1.855,0L7.858,22.692z M11.195,0.673c0.358-0.004,0.652,0.297,0.646,0.662
		c-0.006,0.35-0.289,0.636-0.632,0.639c-0.348,0.003-0.663-0.315-0.658-0.663C10.555,0.98,10.861,0.677,11.195,0.673z"/>
</g>
<path class="st0" d="M15.877,7.391c0,0.473-0.379,0.851-0.852,0.851h-7.66c-0.473,0-0.852-0.378-0.852-0.851
	c0-0.469,0.379-0.848,0.852-0.848h7.66C15.498,6.543,15.877,6.922,15.877,7.391L15.877,7.391z"/>
<path class="st0" d="M15.877,11.391c0,0.473-0.379,0.851-0.852,0.851h-7.66c-0.473,0-0.852-0.378-0.852-0.851
	c0-0.469,0.379-0.848,0.852-0.848h7.66C15.498,10.543,15.877,10.922,15.877,11.391L15.877,11.391z"/>
<g>
	<g>
		<path class="st0" d="M17.895,11.134l3.633,3.633l0.724-0.725c0.483-0.484,0.75-1.127,0.748-1.812
			c-0.001-0.684-0.269-1.329-0.754-1.814c-0.485-0.486-1.13-0.754-1.815-0.755c-0.002,0-0.003,0-0.004,0
			c-0.683,0-1.325,0.266-1.807,0.748L17.895,11.134z"/>
	</g>
	<g>
		<path class="st0" d="M9.943,19.085l-0.908,4.541l4.541-0.908l6.094-6.094l-3.633-3.633L9.943,19.085z"/>
	</g>
</g>
</svg>
