<?xml version="1.0" encoding="utf-8"?>
<!-- Generator: Adobe Illustrator 19.1.0, SVG Export Plug-In . SVG Version: 6.00 Build 0)  -->
<svg version="1.1" id="Layer_1" xmlns="http://www.w3.org/2000/svg" xmlns:xlink="http://www.w3.org/1999/xlink" x="0px" y="0px"
	 viewBox="0 0 24 24" style="enable-background:new 0 0 24 24;" xml:space="preserve">
<style type="text/css">
	.st0{fill:#627783;}
	.st1{fill:#90A3AF;}
</style>
<g>
	<path class="st0" d="M22.941,6.198c1.415-1.418,1.412-3.715-0.006-5.129c0,0,0,0,0,0l0,0c-1.413-1.419-3.71-1.424-5.129-0.011
		C17.803,1.059,17.802,1.06,17.8,1.062l-1.287,1.291L21.65,7.49L22.941,6.198z"/>
	<path class="st1" d="M16,19.336c-0.001,0.92-0.747,1.666-1.667,1.667H2.667C1.747,21.002,1.001,20.256,1,19.336V2.67
		c0.001-0.92,0.747-1.666,1.667-1.667h9.919l1.994,1.994l0,0l0.64-0.64l0.063-0.063L13,0.003H2.667C1.194,0.003,0,1.197,0,2.67
		v16.666c0,1.473,1.194,2.667,2.667,2.667h11.666c1.473,0,2.667-1.194,2.667-2.667v-5.908l-1,1V19.336z"/>
	<polygon class="st0" points="7.524,11.342 6.24,17.763 12.661,16.479 20.366,8.774 15.229,3.637 	"/>
</g>
</svg>
