<?xml version="1.0" encoding="utf-8"?>
<!-- Generator: Adobe Illustrator 19.1.0, SVG Export Plug-In . SVG Version: 6.00 Build 0)  -->
<svg version="1.1" id="Layer_1" xmlns="http://www.w3.org/2000/svg" xmlns:xlink="http://www.w3.org/1999/xlink" x="0px" y="0px"
	 viewBox="0 0 24 24" style="enable-background:new 0 0 24 24;" xml:space="preserve">
<style type="text/css">
	.st0{fill:#FFFFFF;}
</style>
<g>
	<g>
		<path class="st0" d="M9.034,22.585H4.627c-1.218,0-2.209-0.746-2.209-1.964V2.946c0-1.218,0.991-1.964,2.209-1.964h11.538
			l3.928,3.928v4.505c0.134-0.016,0.267-0.039,0.404-0.039c0.197,0,0.389,0.024,0.578,0.056V4.91L16.165,0H4.627
			C3.003,0,1.436,1.322,1.436,2.946v17.675c0,1.624,1.567,2.946,3.191,2.946h4.211L9.034,22.585z"/>
		<path class="st0" d="M20.093,17.959v2.662c0,1.218-0.991,1.964-2.209,1.964h-2.416l-0.851,0.851l3.267,0.131
			c1.624,0,3.191-1.322,3.191-2.946v-3.644L20.093,17.959z"/>
	</g>
	<rect x="6.385" y="6.344" class="st0" width="9.741" height="1.625"/>
	<rect x="6.385" y="10.844" class="st0" width="9.741" height="1.625"/>
	<rect x="6.385" y="15.344" class="st0" width="9.741" height="1.625"/>
	<g>
		<g>
			<path class="st0" d="M18.251,11.625l3.379,3.38l0.673-0.675c0.45-0.45,0.697-1.049,0.696-1.686s-0.25-1.236-0.702-1.688
				c-0.452-0.452-1.051-0.701-1.688-0.702h-0.004c-0.636,0-1.232,0.247-1.681,0.696L18.251,11.625z"/>
		</g>
		<g>
			<path class="st0" d="M10.853,19.021l-0.845,4.225l4.225-0.845l5.669-5.669l-3.38-3.38L10.853,19.021z"/>
		</g>
	</g>
	<polygon class="st0" points="16.436,0.936 16.436,4.936 20.436,4.936 	"/>
</g>
</svg>
