<?xml version="1.0" encoding="utf-8"?>
<!-- Generator: Adobe Illustrator 19.2.1, SVG Export Plug-In . SVG Version: 6.00 Build 0)  -->
<svg version="1.1" id="Layer_1" xmlns="http://www.w3.org/2000/svg" xmlns:xlink="http://www.w3.org/1999/xlink" x="0px" y="0px"
	 viewBox="0 0 28 28" style="enable-background:new 0 0 28 28;" xml:space="preserve">
<style type="text/css">
	.st0{fill:#FFFFFF;}
	.st1{fill:#DCDCDC;}
	.st2{fill:#333333;}
</style>
<g>
	<g>
		<g>
			<path class="st0" d="M14,27.5C6.556,27.5,0.5,21.444,0.5,14S6.556,0.5,14,0.5S27.5,6.556,27.5,14S21.444,27.5,14,27.5z"/>
			<path class="st1" d="M14,1c7.168,0,13,5.832,13,13s-5.832,13-13,13S1,21.168,1,14S6.832,1,14,1 M14,0C6.268,0,0,6.268,0,14
				s6.268,14,14,14s14-6.268,14-14S21.732,0,14,0L14,0z"/>
		</g>
	</g>
</g>
<g>
	<g>
		<circle class="st2" cx="6" cy="14" r="2.5"/>
		<circle class="st2" cx="14" cy="14" r="2.5"/>
		<circle class="st2" cx="22" cy="14" r="2.5"/>
	</g>
</g>
</svg>
