<?xml version="1.0" encoding="utf-8"?>
<!-- Generator: Adobe Illustrator 19.2.1, SVG Export Plug-In . SVG Version: 6.00 Build 0)  -->
<svg version="1.1" id="Layer_1" xmlns="http://www.w3.org/2000/svg" xmlns:xlink="http://www.w3.org/1999/xlink" x="0px" y="0px"
	 viewBox="0 0 32 32" style="enable-background:new 0 0 32 32;" xml:space="preserve">
<style type="text/css">
	.st0{fill:#FFFFFF;}
	.st1{fill:#333333;}
	.st2{fill:#666766;}
</style>
<path class="st0" d="M6,26c-1.654,0-3-1.346-3-3V9c0-1.654,1.346-3,3-3h20c1.654,0,3,1.346,3,3v14c0,1.654-1.346,3-3,3H6z"/>
<g>
	<path class="st1" d="M5.636,7.624L16,16.469l10.364-8.872C25.915,7.319,25.721,7,25.145,7H6.855C6.279,7,6.085,7.346,5.636,7.624z"
		/>
	<path class="st1" d="M16,17.899c-0.09,0-0.181-0.029-0.253-0.09L4.714,8.664C4.275,9.14,4,9.755,4,10.438v11.642
		C4,23.573,5.279,25,6.855,25h18.288C26.722,25,28,23.573,28,22.079V10.438c0-0.682-0.275-1.297-0.715-1.773l-11.032,9.144
		C16.18,17.869,16.09,17.899,16,17.899z"/>
</g>
<path class="st0" d="M20.5,0C17.468,0,15,2.467,15,5.5V7h4V5.5C19,4.673,19.673,4,20.5,4S22,4.673,22,5.5V9h-4v5
	c0,2.206,1.794,4,4,4s4-1.794,4-4V5.5C26,2.467,23.532,0,20.5,0z"/>
<path class="st2" d="M20.5,1C18.015,1,16,3.015,16,5.5V6h2V5.5C18,4.119,19.119,3,20.5,3S23,4.119,23,5.5V14c0,0.552-0.448,1-1,1
	s-1-0.448-1-1v-4h-2v4c0,1.657,1.343,3,3,3s3-1.343,3-3V5.5C25,3.015,22.985,1,20.5,1z"/>
</svg>
