<?xml version="1.0" encoding="utf-8"?>
<!-- Generator: Adobe Illustrator 19.1.0, SVG Export Plug-In . SVG Version: 6.00 Build 0)  -->
<!DOCTYPE svg PUBLIC "-//W3C//DTD SVG 1.1//EN" "http://www.w3.org/Graphics/SVG/1.1/DTD/svg11.dtd">
<svg version="1.1" id="Layer_1" xmlns="http://www.w3.org/2000/svg" xmlns:xlink="http://www.w3.org/1999/xlink" x="0px" y="0px"
	 viewBox="0 0 24 24" enable-background="new 0 0 24 24" xml:space="preserve">
<path fill="#0072AA" d="M20,3H4C1.8,3,0,4.8,0,7v10c0,2.2,1.8,4,4,4h16c2.2,0,4-1.8,4-4V7C24,4.8,22.2,3,20,3z M20,4
	c0.608,0,1.172,0.184,1.645,0.496L12,11.386L2.355,4.497C2.828,4.185,3.392,4.001,4,4.001h16V4z M23,17c0,1.654-1.346,3-3,3H4
	c-1.654,0-3-1.346-3-3V7c0-0.679,0.235-1.299,0.617-1.802l10.092,7.209C11.796,12.469,11.897,12.5,12,12.5s0.204-0.031,0.291-0.093
	l10.093-7.209C22.766,5.701,23.001,6.321,23.001,7L23,17L23,17z"/>
</svg>
