<?xml version="1.0" encoding="utf-8"?>
<!-- Generator: Adobe Illustrator 18.1.1, SVG Export Plug-In . SVG Version: 6.00 Build 0)  -->
<svg version="1.1" id="Layer_1" xmlns="http://www.w3.org/2000/svg" xmlns:xlink="http://www.w3.org/1999/xlink" x="0px" y="0px"
	 viewBox="0 0 32 32" enable-background="new 0 0 32 32" xml:space="preserve">
<g>
	<g>
		<circle fill="#F9C511" cx="16" cy="16" r="16"/>
	</g>
	<g>
		<circle fill="#333333" cx="9.5" cy="14.4" r="2.1"/>
	</g>
	<g>
		<circle fill="#333333" cx="22.5" cy="14.4" r="2.1"/>
	</g>
	<g>
		<path fill="#333333" d="M10.2,25.4c-0.2,0-0.3,0-0.5-0.1C9.3,25,9.1,24.4,9.4,24c1.4-2.3,4-3.7,6.7-3.7c2.6,0,5,1.4,6.4,3.5
			c0.3,0.4,0.2,1-0.3,1.3c-0.4,0.3-1,0.2-1.3-0.3c-1.1-1.6-2.9-2.6-4.8-2.7c-2.1,0-4,1-5.1,2.8C10.9,25.3,10.5,25.4,10.2,25.4z"/>
	</g>
</g>
</svg>
