<?xml version="1.0" encoding="utf-8"?>
<!-- Generator: Adobe Illustrator 18.1.1, SVG Export Plug-In . SVG Version: 6.00 Build 0)  -->
<svg version="1.1" id="Layer_1" xmlns="http://www.w3.org/2000/svg" xmlns:xlink="http://www.w3.org/1999/xlink" x="0px" y="0px"
	 viewBox="0 0 32 32" enable-background="new 0 0 32 32" xml:space="preserve">
<g>
	<g>
		<circle fill="#F9C511" cx="16" cy="16" r="16"/>
	</g>
	<g>
		<circle fill="#333333" cx="21.9" cy="15" r="2.1"/>
	</g>
	<g>
		<path fill="#333333" d="M18.6,12.9c-0.3,0-0.7-0.2-0.8-0.5c-0.3-0.5-0.1-1,0.4-1.3l6.8-3.9c0.5-0.3,1-0.1,1.3,0.4
			c0.3,0.5,0.1,1-0.4,1.3l-6.8,3.9C18.9,12.8,18.7,12.9,18.6,12.9z"/>
	</g>
	<g>
		<circle fill="#333333" cx="10.6" cy="15" r="2.1"/>
	</g>
	<g>
		<path fill="#333333" d="M13.9,12.9c-0.2,0-0.3,0-0.5-0.1L6.6,8.9C6.1,8.6,6,8,6.2,7.6C6.5,7.1,7.1,7,7.5,7.2l6.8,3.9
			c0.5,0.3,0.6,0.8,0.4,1.3C14.5,12.7,14.2,12.9,13.9,12.9z"/>
	</g>
	<g>
		<path fill="#333333" d="M10.2,24.1c-0.2,0-0.3,0-0.5-0.1c-0.5-0.3-0.6-0.9-0.3-1.3c1.4-2.3,4-3.7,6.7-3.7c2.6,0,5,1.4,6.4,3.5
			c0.3,0.4,0.2,1-0.3,1.3c-0.4,0.3-1,0.2-1.3-0.3c-1.1-1.6-2.9-2.6-4.8-2.7c-2.1,0-4,1-5.1,2.8C10.9,23.9,10.5,24.1,10.2,24.1z"/>
	</g>
</g>
</svg>
