<?xml version="1.0" encoding="utf-8"?>
<!-- Generator: Adobe Illustrator 18.1.1, SVG Export Plug-In . SVG Version: 6.00 Build 0)  -->
<svg version="1.1" id="Layer_1" xmlns="http://www.w3.org/2000/svg" xmlns:xlink="http://www.w3.org/1999/xlink" x="0px" y="0px"
	 viewBox="0 0 32 32" enable-background="new 0 0 32 32" xml:space="preserve">
<g>
	<path fill="#E76F2E" d="M15.1,2.9c0.5-1.6,1.3-1.6,1.9,0l1.9,5.9c0.5,1.6,2.3,2.9,3.9,2.9H29c1.6,0,1.9,0.8,0.6,1.8l-5,3.7
		c-1.3,1-2,3-1.5,4.6l1.9,5.9c0.5,1.6-0.2,2.1-1.5,1.1l-5-3.7c-1.3-1-3.5-1-4.9,0l-5,3.7c-1.3,1-2,0.5-1.5-1.1L9,21.7
		C9.5,20.1,8.8,18,7.5,17l-5-3.7c-1.3-1-1.1-1.8,0.6-1.8h6.2c1.6,0,3.4-1.3,3.9-2.9L15.1,2.9z"/>
</g>
</svg>
