<?xml version="1.0" encoding="utf-8"?>
<!-- Generator: Adobe Illustrator 18.1.1, SVG Export Plug-In . SVG Version: 6.00 Build 0)  -->
<svg version="1.1" id="Layer_1" xmlns="http://www.w3.org/2000/svg" xmlns:xlink="http://www.w3.org/1999/xlink" x="0px" y="0px"
	 viewBox="0 0 32 32" enable-background="new 0 0 32 32" xml:space="preserve">
<g>
	<g>
		<circle fill="#F9C511" cx="16" cy="16" r="16"/>
	</g>
	<g>
		<g>
			<circle fill="#333333" cx="9.5" cy="14.4" r="2.1"/>
		</g>
		<g>
			<circle fill="#333333" cx="22.5" cy="14.4" r="2.1"/>
		</g>
	</g>
	<g>
		<path fill="#333333" d="M16,25.7c-2.8,0-5.5-1.5-7-3.8c-0.3-0.4-0.1-1,0.3-1.3c0.4-0.3,1-0.2,1.3,0.3c1.2,1.9,3.3,3,5.5,2.9
			c2.1-0.1,4-1.2,5.2-2.9c0.3-0.4,0.9-0.6,1.3-0.3c0.4,0.3,0.6,0.9,0.3,1.3c-1.5,2.3-4,3.7-6.7,3.8C16.2,25.7,16.1,25.7,16,25.7z"/>
	</g>
</g>
</svg>
