<?xml version="1.0" encoding="utf-8"?>
<!-- Generator: Adobe Illustrator 19.1.0, SVG Export Plug-In . SVG Version: 6.00 Build 0)  -->
<svg version="1.1" id="Layer_1" xmlns="http://www.w3.org/2000/svg" xmlns:xlink="http://www.w3.org/1999/xlink" x="0px" y="0px"
	 viewBox="0 0 64 64" style="enable-background:new 0 0 64 64;" xml:space="preserve">
<style type="text/css">
	.st0{fill:#007D87;}
</style>
<g>
	<path class="st0" d="M15.285,6.374c0.983-0.867,2.061-1.691,3.23-2.471c1.172-0.781,2.435-1.46,3.795-2.038
		c1.357-0.578,2.832-1.033,4.423-1.366C28.322,0.167,30.042,0,31.891,0c2.515,0,4.806,0.347,6.874,1.041
		c2.065,0.693,3.837,1.684,5.312,2.97c1.475,1.287,2.616,2.839,3.425,4.661c0.809,1.821,1.214,3.859,1.214,6.113
		c0,2.197-0.318,4.098-0.953,5.702c-0.638,1.604-1.44,2.999-2.407,4.184c-0.969,1.186-2.018,2.212-3.145,3.079
		c-1.127,0.867-2.197,1.684-3.209,2.45c-1.012,0.766-1.887,1.517-2.623,2.255c-0.736,0.736-1.179,1.568-1.322,2.492l-0.997,6.33
		h-7.328l-0.736-7.067c-0.031-0.145-0.045-0.267-0.045-0.369c0-0.101,0-0.223,0-0.368c0-1.272,0.318-2.377,0.955-3.317
		c0.635-0.94,1.43-1.822,2.385-2.645c0.953-0.823,1.978-1.626,3.077-2.407c1.099-0.78,2.124-1.626,3.079-2.536
		c0.953-0.912,1.748-1.944,2.385-3.101c0.635-1.156,0.953-2.515,0.953-4.076c0-1.041-0.195-1.974-0.586-2.797
		c-0.391-0.825-0.932-1.533-1.626-2.125c-0.694-0.592-1.524-1.047-2.494-1.366c-0.969-0.318-2.016-0.476-3.143-0.476
		c-1.647,0-3.042,0.181-4.185,0.542c-1.141,0.361-2.11,0.766-2.905,1.214c-0.795,0.448-1.468,0.853-2.016,1.214
		c-0.548,0.362-1.04,0.542-1.473,0.542c-1.042,0-1.795-0.434-2.256-1.301L15.285,6.374z M23.481,57.495
		c0-0.895,0.165-1.748,0.499-2.557c0.332-0.809,0.793-1.503,1.386-2.082c0.593-0.578,1.294-1.041,2.103-1.388s1.677-0.52,2.602-0.52
		c0.896,0,1.75,0.173,2.559,0.52c0.809,0.347,1.503,0.81,2.082,1.388c0.576,0.579,1.04,1.273,1.386,2.082
		c0.348,0.809,0.522,1.662,0.522,2.557c0,0.926-0.174,1.786-0.522,2.581c-0.346,0.795-0.809,1.482-1.386,2.06
		c-0.579,0.579-1.273,1.034-2.082,1.366C31.82,63.833,30.966,64,30.07,64c-0.925,0-1.793-0.167-2.602-0.499
		c-0.809-0.332-1.51-0.787-2.103-1.366c-0.593-0.578-1.054-1.264-1.386-2.06C23.645,59.281,23.481,58.421,23.481,57.495z"/>
</g>
</svg>
