<?xml version="1.0" encoding="utf-8"?>
<!-- Generator: Adobe Illustrator 18.1.1, SVG Export Plug-In . SVG Version: 6.00 Build 0)  -->
<svg version="1.1" id="Layer_1" xmlns="http://www.w3.org/2000/svg" xmlns:xlink="http://www.w3.org/1999/xlink" x="0px" y="0px"
	 viewBox="0 0 32 32" enable-background="new 0 0 32 32" xml:space="preserve">
<g>
	<path fill="#0072AA" d="M31,15.4c-0.2-1.5-1.6-2.5-3.1-2.5l-7.6,0c-1.7,0-2.2-1.1-1.8-2.2l0.8-2.1c0.1-0.2,0.9-3.1,0.9-3.1
		c0.6-2.2,0-4.8-1.4-5.3c-1.9-0.7-1.5,0.3-2.2,2.7c0,0-0.2,1.1-0.9,2.4c-1.1,2.1-2.6,4-3.7,5.8c-1.1,1.9-2.8,3.3-5,3.3l-3.8,0
		c-0.8,0-1.4,0.7-1.4,1.5v12.4c0,0.8,0.7,1.5,1.5,1.5l1.5,0c2.9,0.4,4.1,1.2,5.9,1.7c2.2,0.5,5.3,0.6,5.8,0.6l8.6,0
		c1.5,0,2.9-1,3.1-2.4c0.1-0.5,0-0.9-0.1-1.4c-0.1-0.4,0-1,0.4-1.2c0.7-0.5,1.2-1.4,1.2-2.3c0-0.5-0.2-1-0.4-1.5
		c-0.3-0.5-0.3-1,0-1.5c0.3-0.4,0.4-0.9,0.4-1.5c0-0.6-0.2-1.2-0.5-1.6C30.3,18.1,31.2,16.8,31,15.4z"/>
</g>
</svg>
