<?xml version="1.0" encoding="utf-8"?>
<!-- Generator: Adobe Illustrator 18.1.1, SVG Export Plug-In . SVG Version: 6.00 Build 0)  -->
<svg version="1.1" id="Layer_1" xmlns="http://www.w3.org/2000/svg" xmlns:xlink="http://www.w3.org/1999/xlink" x="0px" y="0px"
	 viewBox="0 0 32 32" enable-background="new 0 0 32 32" xml:space="preserve">
<g>
	<g>
		<circle fill="#F9C511" cx="16" cy="16" r="16"/>
	</g>
	<g>
		<circle fill="#333333" cx="9.5" cy="14.4" r="2.1"/>
	</g>
	<g>
		<path fill="#333333" d="M9.5,17.8c-1.9,0-3.5-1.6-3.5-3.5s1.6-3.5,3.5-3.5s3.5,1.6,3.5,3.5S11.4,17.8,9.5,17.8z M9.5,11.5
			c-1.6,0-2.8,1.3-2.8,2.8s1.3,2.8,2.8,2.8s2.8-1.3,2.8-2.8S11,11.5,9.5,11.5z"/>
	</g>
	<g>
		<path fill="#333333" d="M22.4,17.8c-1.9,0-3.5-1.6-3.5-3.5s1.6-3.5,3.5-3.5s3.5,1.6,3.5,3.5S24.3,17.8,22.4,17.8z M22.4,11.5
			c-1.6,0-2.8,1.3-2.8,2.8s1.3,2.8,2.8,2.8c1.6,0,2.8-1.3,2.8-2.8S24,11.5,22.4,11.5z"/>
	</g>
	<g>
		<circle fill="#333333" cx="22.4" cy="14.4" r="2.1"/>
	</g>
	<g>
		<path fill="#333333" d="M19.9,25.9c-0.1,0-0.2,0-0.3,0L9.1,22.5c-0.5-0.2-0.8-0.7-0.6-1.2c0.2-0.5,0.7-0.8,1.2-0.6L20.1,24
			c0.5,0.2,0.8,0.7,0.6,1.2C20.6,25.6,20.3,25.9,19.9,25.9z"/>
	</g>
</g>
</svg>
