<?xml version="1.0" encoding="utf-8"?>
<!-- Generator: Adobe Illustrator 18.1.1, SVG Export Plug-In . SVG Version: 6.00 Build 0)  -->
<svg version="1.1" id="Layer_1" xmlns="http://www.w3.org/2000/svg" xmlns:xlink="http://www.w3.org/1999/xlink" x="0px" y="0px"
	 viewBox="0 0 32 32" enable-background="new 0 0 32 32" xml:space="preserve">
<path fill="#0072AA" d="M32,22.9v0.7c0,0.8-0.7,1.5-1.5,1.5h-29c-0.8,0-1.5-0.7-1.5-1.5v-0.7H32z"/>
<path fill="#0072AA" d="M24.8,5.2l-0.9,0H5.7v12.5C5.7,19.6,7.2,21,9,21h12.5c1.8,0,3.3-1.5,3.3-3.3l0-0.6c3.2-0.5,5.6-3,5.6-6
	C30.4,8.2,28,5.7,24.8,5.2z"/>
<path fill="#FFFFFF" stroke="#0072AA" stroke-width="0.5" stroke-linecap="round" stroke-linejoin="round" stroke-miterlimit="10" d="
	M24.8,15c2.2-0.3,3.9-1.9,3.9-3.8c0-1.9-1.7-3.4-3.9-3.8L24.8,15z"/>
</svg>
