<?xml version="1.0" encoding="utf-8"?>
<!-- Generator: Adobe Illustrator 18.1.1, SVG Export Plug-In . SVG Version: 6.00 Build 0)  -->
<svg version="1.1" id="Layer_1" xmlns="http://www.w3.org/2000/svg" xmlns:xlink="http://www.w3.org/1999/xlink" x="0px" y="0px"
	 viewBox="0 0 32 32" enable-background="new 0 0 32 32" xml:space="preserve">
<g>
	<g>
		<circle fill="#F9C511" cx="16" cy="16" r="16"/>
	</g>
	<g>
		<g>
			<circle fill="#333333" cx="12.7" cy="14.4" r="2.1"/>
		</g>
		<g>
			<circle fill="#333333" cx="19.3" cy="14.4" r="2.1"/>
		</g>
	</g>
	<g>
		<path fill="#333333" d="M18.6,27.1c-0.5,0-0.9-0.4-1-0.9c-0.2-1.7-1.1-3.1-2.5-3.7c-1.5-0.7-3.2-0.4-4.6,0.7
			c-0.4,0.3-1,0.3-1.3-0.2c-0.3-0.4-0.3-1,0.2-1.3c2-1.6,4.5-1.9,6.6-1c2,0.9,3.3,2.9,3.6,5.2c0.1,0.5-0.3,1-0.9,1.1
			C18.7,27.1,18.7,27.1,18.6,27.1z"/>
	</g>
</g>
</svg>
