<?xml version="1.0" encoding="utf-8"?>
<!-- Generator: Adobe Illustrator 18.1.1, SVG Export Plug-In . SVG Version: 6.00 Build 0)  -->
<svg version="1.1" id="Layer_1" xmlns="http://www.w3.org/2000/svg" xmlns:xlink="http://www.w3.org/1999/xlink" x="0px" y="0px"
	 viewBox="0 0 32 32" enable-background="new 0 0 32 32" xml:space="preserve">
<g>
	<path fill="#0072AA" d="M1.6,16.6c0.2,1.5,1.6,2.5,3.1,2.5l7.6,0c1.7,0,2.2,1.1,1.8,2.2l-0.8,2.1c-0.1,0.2-0.9,3.1-0.9,3.1
		c-0.6,2.2,0,4.8,1.4,5.3c1.9,0.7,1.5-0.3,2.2-2.7c0,0,0.2-1.1,0.9-2.4c1.1-2.1,2.6-4,3.7-5.8c1.1-1.9,2.8-3.3,5-3.3l3.8,0
		c0.8,0,1.4-0.7,1.4-1.5V3.7c0-0.8-0.7-1.5-1.5-1.5l-1.5,0C25.2,1.8,24,1,22.1,0.6C19.9,0.1,16.8,0,16.3,0L7.7,0
		C6.2,0,4.8,1,4.6,2.4c-0.1,0.5,0,0.9,0.1,1.4c0.1,0.4,0,1-0.4,1.2C3.5,5.5,3,6.4,3,7.4c0,0.5,0.2,1,0.4,1.5c0.3,0.5,0.3,1,0,1.5
		C3.2,10.7,3,11.2,3,11.8c0,0.6,0.2,1.2,0.5,1.6C2.3,13.9,1.4,15.2,1.6,16.6z"/>
</g>
</svg>
