<?xml version="1.0" encoding="utf-8"?>
<!-- Generator: Adobe Illustrator 18.1.1, SVG Export Plug-In . SVG Version: 6.00 Build 0)  -->
<svg version="1.1" id="Layer_1" xmlns="http://www.w3.org/2000/svg" xmlns:xlink="http://www.w3.org/1999/xlink" x="0px" y="0px"
	 viewBox="0 0 32 32" enable-background="new 0 0 32 32" xml:space="preserve">
<g>
	<g>
		<circle fill="#F9C511" cx="16" cy="16" r="16"/>
	</g>
	<g>
		<g>
			<circle fill="#333333" cx="9.5" cy="14.4" r="2.1"/>
		</g>
		<g>
			<circle fill="#333333" cx="22.5" cy="14.4" r="2.1"/>
		</g>
	</g>
	<g>
		<path fill="#333333" d="M21,24.4H10.9c-0.5,0-1-0.4-1-1c0-0.5,0.4-1,1-1H21c0.5,0,1,0.4,1,1C22,24,21.5,24.4,21,24.4z"/>
	</g>
	<g>
		<path fill="#333333" d="M26.4,11.8c-0.1,0-0.2,0-0.3,0L20.4,10c-0.5-0.2-0.8-0.7-0.6-1.2s0.7-0.8,1.2-0.6l5.8,1.7
			c0.5,0.2,0.8,0.7,0.6,1.2C27.2,11.5,26.8,11.8,26.4,11.8z"/>
	</g>
	<g>
		<path fill="#333333" d="M5.9,11.8c-0.4,0-0.8-0.3-0.9-0.7c-0.2-0.5,0.1-1,0.6-1.2l5.8-1.7c0.5-0.2,1,0.1,1.2,0.6s-0.1,1-0.6,1.2
			l-5.8,1.7C6.1,11.7,6,11.8,5.9,11.8z"/>
	</g>
</g>
</svg>
