<?xml version="1.0" encoding="utf-8"?>
<!-- Generator: Adobe Illustrator 19.1.0, SVG Export Plug-In . SVG Version: 6.00 Build 0)  -->
<svg version="1.1" id="Layer_1" xmlns="http://www.w3.org/2000/svg" xmlns:xlink="http://www.w3.org/1999/xlink" x="0px" y="0px"
	 viewBox="0 0 48 48" enable-background="new 0 0 48 48" xml:space="preserve">
<g>
	<g>
		<path fill="#333333" d="M16.029,48C11.234,48,6,44.794,6,40V8c0-4.553,2.075-8,5.656-8h2.843C18.08,0,20,3.447,20,8v30
			c0,2.263-1.738,4-4,4c-2.263,0-4-1.737-4-4V22c0-0.577,0.38-1.043,0.957-1.043C13.533,20.957,14,21.423,14,22v16
			c0,1.113,0.887,2,2,2c1.112,0,2-0.887,2-2V8c0-3.369-1.646-6-4-6h-2C9.646,2,8,4.631,8,8v32c0,3.644,4.356,6,8,6s8-2.356,8-6V14
			c0-0.577,0.38-1.043,0.957-1.043S26,13.423,26,14v26C26,44.794,20.824,48,16.029,48z"/>
	</g>
	<g>
		<path fill="#0072AA" d="M24.957,10.956C26.635,10.956,28,12.322,28,14v26h16V17.359L36.754,8H22v6
			C22,12.293,23.299,10.956,24.957,10.956z"/>
		<path fill="#0072AA" d="M12.957,18.956C14.635,18.956,16,20.322,16,22V8h-6v14C10,20.293,11.299,18.956,12.957,18.956z"/>
		<path fill="#FFFFFF" d="M4,8c0-0.695,0.046-1.361,0.126-2H2v36h2.25C4.092,41.361,4,40.695,4,40V8z"/>
		<path fill="#FFFFFF" d="M15.713,6h-5.426C10.11,6.594,10,7.274,10,8h6C16,7.274,15.89,6.594,15.713,6z"/>
		<path fill="#FFFFFF" d="M36.754,8L44,17.359V40H28c0,0.695-0.091,1.361-0.248,2H46V16.675L37.734,6H21.881
			C21.957,6.638,22,7.303,22,8H36.754z"/>
		<path fill="#0072AA" d="M14,4h-2c-0.721,0-1.361,0.819-1.713,2h5.426C15.361,4.819,14.721,4,14,4z"/>
		<path fill="#0072AA" d="M2,42V6h2.126C4.215,5.296,4.35,4.627,4.531,4H0v40h5.021c-0.338-0.627-0.598-1.296-0.772-2H2z"/>
		<path fill="#0072AA" d="M48,15.991L38.715,4H21.499c0.171,0.626,0.298,1.294,0.382,2h15.853L46,16.675V42H27.752
			c-0.173,0.704-0.431,1.373-0.768,2H48V15.991z"/>
	</g>
	<g>
		<g>
			<polygon fill="#005D82" points="41,23 34,23 34,16 29,16 29,23 22,23 22,28 29,28 29,35 34,35 34,28 41,28 			"/>
			<polygon fill="#FFFFFF" points="41,21 34,21 34,15 29,15 29,21 22,21 22,26 29,26 29,33 34,33 34,26 41,26 			"/>
		</g>
	</g>
</g>
</svg>
