<?xml version="1.0" encoding="utf-8"?>
<!-- Generator: Adobe Illustrator 19.1.0, SVG Export Plug-In . SVG Version: 6.00 Build 0)  -->
<svg version="1.1" id="Layer_1" xmlns="http://www.w3.org/2000/svg" xmlns:xlink="http://www.w3.org/1999/xlink" x="0px" y="0px"
	 viewBox="0 0 48 48" enable-background="new 0 0 48 48" xml:space="preserve">
<g>
	<path fill="#004A70" d="M24.029,48C19.234,48,14,44.794,14,40V8c0-4.553,2.075-8,5.656-8h2.843C26.08,0,28,3.447,28,8v30
		c0,2.263-1.738,4-4,4c-2.263,0-4-1.737-4-4V22c0-0.577,0.38-1.043,0.957-1.043S22,21.423,22,22v16c0,1.113,0.887,2,2,2
		c1.112,0,2-0.887,2-2V8c0-3.369-1.646-6-4-6h-2c-2.354,0-4,2.631-4,6v32c0,3.644,4.356,6,8,6s8-2.356,8-6V14
		c0-0.577,0.38-1.043,0.957-1.043C33.533,12.957,34,13.423,34,14v26C34,44.794,28.824,48,24.029,48z"/>
</g>
<g>
	<g>
		<g>
			<g>
				<path fill="#0085B6" d="M36.25,46c-5.514,0-10-4.486-10-10.001c0-5.514,4.486-9.999,10-9.999s10,4.485,10,9.999
					C46.25,41.514,41.764,46,36.25,46z"/>
				<path fill="#FFFFFF" d="M36.25,27c4.963,0,9,4.037,9,8.999c0,4.963-4.037,9.001-9,9.001s-9-4.038-9-9.001
					C27.25,31.037,31.287,27,36.25,27 M36.25,25c-6.074,0-11,4.925-11,10.999c0,6.076,4.926,11.001,11,11.001
					c6.078,0,11-4.924,11-11.001C47.25,29.925,42.328,25,36.25,25L36.25,25z"/>
			</g>
		</g>
	</g>
	<polygon fill="#FFFFFF" points="33,32 33,42.062 36.542,37.058 40,42.062 40,32 	"/>
</g>
</svg>
