<?xml version="1.0" encoding="utf-8"?>
<!-- Generator: Adobe Illustrator 18.1.1, SVG Export Plug-In . SVG Version: 6.00 Build 0)  -->
<svg version="1.1" xmlns="http://www.w3.org/2000/svg" xmlns:xlink="http://www.w3.org/1999/xlink" x="0px" y="0px"
	 viewBox="0 0 24 24" enable-background="new 0 0 24 24" xml:space="preserve">
<g id="scan" display="none">
	<path display="inline" fill="#333333" d="M0,15v4.916C0,21.202,0.685,24,4.414,24H6v-2.871C6,19.843,6.839,18,9.58,18h5.031
		C17.8,18,18,20.382,18,21.668V24h1.822C22.113,24,24,22.423,24,20.05V15H0z"/>
	<rect x="8" y="22" display="inline" fill="#333333" width="8" height="2"/>
	<path display="inline" fill="#333333" d="M23.882,5.824l0.002-0.008L1.402,0.043L1.392,0.08C1.271,0.029,1.139,0,1,0
		C0.448,0,0,0.448,0,1c0,0.523,0.406,0.94,0.919,0.984L16.56,6H3.259C1.404,6,0,7.293,0,8.731V13h24c0,0,0-6.599,0-7
		C24,5.851,23.976,5.814,23.882,5.824z"/>
</g>
<g id="stop" display="none">
	<g display="inline">
		<g>
			<g>
				<path fill="#333333" d="M12,24C5.383,24,0,18.617,0,12S5.383,0,12,0s12,5.383,12,12S18.617,24,12,24z M12,0.96
					C5.912,0.96,0.96,5.912,0.96,12c0,6.087,4.952,11.04,11.04,11.04c6.087,0,11.04-4.953,11.04-11.04
					C23.04,5.912,18.087,0.96,12,0.96z"/>
			</g>
		</g>
		<g>
			<path fill="#333333" d="M17.553,15.897l-3.854-3.854l3.631-3.631c0.464-0.464,0.464-1.223,0-1.686
				c-0.464-0.464-1.223-0.464-1.686,0l-3.631,3.631L8.159,6.503c-0.464-0.464-1.223-0.464-1.686,0c-0.463,0.464-0.464,1.223,0,1.686
				l3.854,3.854l-4.078,4.078c-0.464,0.464-0.464,1.223,0,1.686c0.464,0.464,1.223,0.464,1.686,0l4.078-4.078l3.854,3.854
				c0.464,0.464,1.223,0.464,1.686,0C18.017,17.12,18.017,16.361,17.553,15.897z"/>
		</g>
	</g>
</g>
<g id="configure_x5F_scaner" display="none">
	<path display="inline" fill="#333333" d="M23,11h-2.504c-0.203-1.605-0.845-3.071-1.809-4.273l1.798-1.798
		c0.391-0.391,0.391-1.024,0-1.414s-1.024-0.391-1.414,0l-1.81,1.81C16.056,4.385,14.597,3.759,13,3.573V1c0-0.552-0.448-1-1-1
		s-1,0.448-1,1v2.573C9.403,3.759,7.944,4.385,6.739,5.325l-1.81-1.81c-0.391-0.391-1.024-0.391-1.414,0s-0.391,1.024,0,1.414
		l1.798,1.798C4.35,7.929,3.707,9.395,3.504,11H1c-0.552,0-1,0.448-1,1s0.448,1,1,1h2.48c0.174,1.629,0.808,3.117,1.764,4.343
		l-1.729,1.729c-0.391,0.391-0.391,1.024,0,1.414s1.024,0.391,1.414,0l1.717-1.717c1.222,0.98,2.717,1.631,4.354,1.821V23
		c0,0.552,0.448,1,1,1s1-0.448,1-1v-2.41c1.637-0.191,3.132-0.841,4.355-1.821l1.716,1.717c0.391,0.391,1.024,0.391,1.414,0
		s0.391-1.024,0-1.414l-1.728-1.728c0.956-1.226,1.59-2.714,1.764-4.343H23c0.552,0,1-0.448,1-1S23.552,11,23,11z M12,18.653
		c-3.623,0-6.571-2.948-6.571-6.571C5.429,8.458,8.377,5.51,12,5.51s6.571,2.948,6.571,6.571C18.572,15.705,15.624,18.653,12,18.653
		z"/>
</g>
<g id="profile" display="none">
	<rect x="0.562" y="0.562" display="inline" fill="#FFFFFF" width="22.807" height="21.913"/>
	<g display="inline">
		<circle fill="#333333" cx="11.976" cy="7.02" r="4.828"/>
		<path fill="#333333" d="M23,0H1C0.448,0,0,0.448,0,1v22c0,0.552,0.448,1,1,1h22c0.552,0,1-0.448,1-1V1C24,0.448,23.552,0,23,0z
			 M23,1v18.674c-2.414-3.497-6.445-5.798-11.024-5.798C7.424,13.876,3.419,16.15,1,19.61V1H23z"/>
	</g>
</g>
<g id="Layer_9" display="none">
	<rect display="inline" fill="#333333" width="24" height="24"/>
</g>
<g id="Fit_page_to_window" display="none">
	<path display="inline" fill="#FFFFFF" d="M24,24H0V0h24V24z M1,23h22V1H1V23z"/>
	<polygon display="inline" fill="#FFFFFF" points="21.993,2.006 15.131,2 17.708,4.577 14.428,7.857 16.163,9.55 19.422,6.291 
		22,8.869 	"/>
	<polygon display="inline" fill="#FFFFFF" points="2.007,2.006 8.869,2 6.292,4.577 9.572,7.857 7.837,9.55 4.578,6.291 2,8.869 	
		"/>
	<polygon display="inline" fill="#FFFFFF" points="21.993,21.994 15.131,22 17.708,19.423 14.428,16.143 16.163,14.45 
		19.422,17.709 22,15.131 	"/>
	<polygon display="inline" fill="#FFFFFF" points="2.007,21.994 8.869,22 6.292,19.423 9.572,16.143 7.837,14.45 4.578,17.709 
		2,15.131 	"/>
</g>
<g id="Zoom_in_page" display="none">
	<circle display="inline" fill="#333333" cx="10.065" cy="9.886" r="9.593"/>
	<path display="inline" fill="#FFFFFF" d="M23.707,22.327l-5.981-5.98c3.234-3.928,3.018-9.746-0.655-13.418
		C15.118,0.976,12.559,0,10,0S4.882,0.976,2.929,2.929c-3.905,3.905-3.905,10.237,0,14.142C4.882,19.024,7.441,20,10,20
		c2.239,0,4.477-0.747,6.31-2.241l5.983,5.982c0.195,0.195,0.451,0.293,0.707,0.293s0.512-0.098,0.707-0.293
		C24.098,23.351,24.098,22.718,23.707,22.327z M3.636,16.364c-3.509-3.509-3.509-9.219,0-12.728C5.336,1.936,7.596,1,10,1
		s4.664,0.936,6.364,2.636c3.509,3.509,3.509,9.219,0,12.728C14.664,18.064,12.404,19,10,19S5.336,18.064,3.636,16.364z"/>
	<path display="inline" fill="#FFFFFF" d="M15,9H5c-0.553,0-1,0.447-1,1c0,0.553,0.447,1,1,1h10c0.553,0,1-0.447,1-1
		C16,9.447,15.553,9,15,9z"/>
</g>
<g id="Zoom_out" display="none">
	<circle display="inline" fill="#333333" cx="10.065" cy="9.886" r="9.593"/>
	<g id="metadata_3_" display="inline">
	</g>
	<g id="like_icon_3_" display="inline">
	</g>
	<g id="fave_icon_3_" display="inline">
	</g>
	<g id="fave_icon_-_selected_7_" display="inline">
	</g>
	<g id="comment_icon_-_selected_3_" display="inline">
	</g>
	<g id="Comment_icon_3_" display="inline">
	</g>
	<g id="fave_icon_-_selected_6_" display="inline">
	</g>
	<g id="like_icon_-_selected_3_" display="inline">
	</g>
	<path display="inline" fill="none" d="M10.162,19.988c-2.538,0-4.923-0.988-6.718-2.782c-3.704-3.704-3.704-9.731,0-13.436
		c1.795-1.794,4.18-2.782,6.718-2.782s4.923,0.988,6.718,2.782c3.704,3.704,3.704,9.731,0,13.436
		C15.085,19,12.7,19.988,10.162,19.988z"/>
	<path display="inline" fill="#FFFFFF" d="M23.707,22.327l-5.981-5.98c3.234-3.928,3.018-9.746-0.655-13.418
		C15.118,0.976,12.559,0,10,0S4.882,0.976,2.929,2.929c-3.905,3.905-3.905,10.237,0,14.142C4.882,19.024,7.441,20,10,20
		c2.239,0,4.477-0.747,6.31-2.241l5.983,5.982c0.195,0.195,0.451,0.293,0.707,0.293s0.512-0.098,0.707-0.293
		C24.098,23.351,24.098,22.718,23.707,22.327z M3.636,16.364c-3.509-3.509-3.509-9.219,0-12.728C5.336,1.936,7.596,1,10,1
		s4.664,0.936,6.364,2.636c3.509,3.509,3.509,9.219,0,12.728C14.664,18.064,12.404,19,10,19S5.336,18.064,3.636,16.364z"/>
	<path display="inline" fill="#FFFFFF" d="M15,9h-4V5c0-0.553-0.447-1-1-1S9,4.447,9,5v4H5c-0.553,0-1,0.447-1,1
		c0,0.553,0.447,1,1,1h4v4c0,0.553,0.447,1,1,1s1-0.447,1-1v-4h4c0.553,0,1-0.447,1-1C16,9.447,15.553,9,15,9z"/>
</g>
<g id="page" display="none">
	<g display="inline">
		<rect x="6" y="7" fill="#FFFFFF" width="12" height="1"/>
		<rect x="6" y="12" fill="#FFFFFF" width="12" height="1"/>
		<rect x="6" y="17" fill="#FFFFFF" width="12" height="1"/>
	</g>
	<g display="inline">
		<path fill="#FFFFFF" d="M18.709,24H5.196C3.463,24,2,22.535,2,20.802V2.784C2,1.171,3.344,0,5.196,0h11.608L22,4.658v16.144
			C22,22.506,20.462,24,18.709,24z M5.196,1C4.103,1,3,1.552,3,2.784v18.018C3,21.973,4.026,23,5.196,23h13.513
			C19.908,23,21,21.952,21,20.802V5.104L16.421,1H5.196z"/>
	</g>
</g>
<g id="info" display="none">
	<circle display="inline" fill="#FFFFFF" cx="12" cy="6.545" r="1.091"/>
	<path display="inline" fill="#FFFFFF" d="M13.091,9.818v7.636c0,0.602-0.488,1.091-1.091,1.091h0c-0.602,0-1.091-0.488-1.091-1.091
		V9.818c0-0.602,0.488-1.091,1.091-1.091h0C12.602,8.727,13.091,9.216,13.091,9.818z"/>
	<g display="inline">
		<g>
			<path fill="#FFFFFF" d="M12,1c6.065,0,11,4.935,11,11s-4.935,11-11,11S1,18.065,1,12S5.935,1,12,1 M12,0C5.373,0,0,5.373,0,12
				s5.373,12,12,12s12-5.373,12-12S18.627,0,12,0L12,0z"/>
		</g>
	</g>
</g>
<g id="doc_x5F_delete" display="none">
	<path display="inline" fill="#333333" d="M18.709,24H5.196C3.463,24,2,22.535,2,20.802V2.784C2,1.171,3.344,0,5.196,0h11.608
		L22,4.658v16.144C22,22.506,20.462,24,18.709,24z M5.196,1C4.103,1,3,1.552,3,2.784v18.018C3,21.973,4.026,23,5.196,23h13.513
		C19.908,23,21,21.952,21,20.802V5.104L16.421,1H5.196z"/>
	<g display="inline">
		<path fill="#333333" d="M17.075,15.278l-3.491-3.491l3.288-3.288c0.42-0.42,0.42-1.107,0-1.527c-0.42-0.42-1.107-0.42-1.527,0
			l-3.288,3.288L8.566,6.769c-0.42-0.42-1.107-0.42-1.527,0s-0.42,1.107,0,1.527l3.491,3.491l-3.694,3.694
			c-0.42,0.42-0.42,1.107,0,1.527c0.42,0.42,1.107,0.42,1.527,0l3.694-3.694l3.491,3.491c0.42,0.42,1.107,0.42,1.527,0
			S17.494,15.697,17.075,15.278z"/>
	</g>
</g>
<g id="ROT_x5F_180" display="none">
	<g display="inline">
		<g>
			<path fill="#333333" d="M20.163,16.28v4.449c0,1.194-1.078,2.203-2.354,2.203H3.688c-1.192,0-2.525-0.942-2.525-2.203v-9.04h-1
				v9.04c0,1.707,1.647,3.203,3.525,3.203h14.12c1.818,0,3.354-1.467,3.354-3.203V15.28L20.163,16.28z"/>
		</g>
		<path fill="#333333" d="M23.508,9.272c-0.433-0.433-0.833-0.433-1.266,0L20,11.819v-1.761c0-6.306-4-9.939-10-9.986
			c0-0.001,0-0.003,0-0.004c0,0-0.462,0.013-0.487,0.015C3.678,0.39,0.246,3.97,0.246,10.035c0,0.613,0.451,1.11,1.064,1.11
			c0.613,0,1.243-0.497,1.243-1.11c0-3.392,1.124-7.396,7.124-7.737c0-0.007,0.283-0.011,0.3-0.011c3.545,0,8.023,1.348,8.023,7.77
			v1.761l-2.958-2.544c-0.433-0.433-1.344-0.433-1.777,0c-0.218,0.215-0.43,0.5-0.43,0.784c0,0.284,0.057,0.568,0.272,0.786
			l5.2,5.224l5.213-5.226C23.954,10.409,23.941,9.705,23.508,9.272z"/>
	</g>
</g>
<g id="rot_x5F_left" display="none">
	<g display="inline">
		<g>
			<path fill="#333333" d="M3.944,15.895v4.885c0,1.073,0.492,2.22,1.875,2.22h14.21c1.313,0,2.915-1.024,2.915-2.22V3.712
				C22.944,1.839,21.48,1,20.029,1h-3.261V0l3.261,0c2.305,0,3.915,1.526,3.915,3.712V20.78c0,1.813-2.104,3.22-3.915,3.22H5.819
				c-1.72,0-2.875-1.294-2.875-3.22V14.9C3.277,15.233,3.613,15.562,3.944,15.895z"/>
		</g>
		<path fill="#333333" d="M10.832,10.776c0.215-0.218,0.324-0.502,0.324-0.786c0-0.284-0.109-0.568-0.326-0.784
			c-0.433-0.433-1.137-0.433-1.57,0l-2.544,2.544V9.99c0-6.423,4.225-7.77,7.77-7.77c0.613,0,1.11-0.497,1.11-1.11
			S15.099,0,14.487,0c-6.347,0-9.99,3.643-9.99,9.99v1.761L1.95,9.204c-0.433-0.433-1.137-0.433-1.57,0s-0.433,1.137,0,1.57
			L5.606,16L10.832,10.776z"/>
	</g>
</g>
<g id="rot_x5F_right" display="none">
	<g display="inline">
		<g>
			<path fill="#333333" d="M20.056,15.895v4.885c0,1.073-0.492,2.22-1.875,2.22H3.971c-1.313,0-2.915-1.024-2.915-2.22V3.712
				C1.056,1.839,2.52,1,3.971,1h3.261V0H3.971C1.666,0,0.056,1.526,0.056,3.712V20.78c0,1.813,2.104,3.22,3.915,3.22h14.21
				c1.72,0,2.875-1.294,2.875-3.22V14.9C20.723,15.233,20.387,15.562,20.056,15.895z"/>
		</g>
		<path fill="#333333" d="M13.168,10.776c-0.215-0.218-0.324-0.502-0.324-0.786c0-0.284,0.109-0.568,0.326-0.784
			c0.433-0.433,1.137-0.433,1.57,0l2.544,2.544V9.99c0-6.423-4.225-7.77-7.77-7.77c-0.613,0-1.11-0.497-1.11-1.11S8.901,0,9.513,0
			c6.347,0,9.99,3.643,9.99,9.99v1.761l2.546-2.546c0.433-0.433,1.137-0.433,1.57,0c0.433,0.433,0.433,1.137,0,1.57L18.394,16
			L13.168,10.776z"/>
	</g>
</g>
<g id="Convert" display="none">
	<path display="inline" fill="#333333" d="M11.593,9.043c-0.392,0.023-0.973,0.312-0.972,1.015c0.001,0.639,0.509,0.984,0.985,0.984
		h2.986c-2.287,1.421-4.005,3.513-4.751,5.861c-0.858,2.703-1.061,4.394-0.599,5.025c0.158,0.215,0.389,0.334,0.644,0.334H9.9
		c0.873,0,0.995-0.852,1.125-1.754c0.104-0.73,0.248-1.73,0.708-2.938c0.863-2.27,2.868-4.378,5.218-5.538l0.003,4.451
		c-0.033,0.274,0.043,0.533,0.216,0.728c0.13,0.147,0.372,0.323,0.792,0.324c0.611,0,0.989-0.474,0.989-0.913V9.042L11.593,9.043z
		 M9.9,21.76C9.9,21.76,9.9,21.76,9.9,21.76v0.002V21.76z"/>
	<path display="inline" fill="#333333" d="M23.16,16.139c0.858-2.704,1.06-4.395,0.599-5.025c-0.158-0.215-0.389-0.334-0.656-0.334
		c-0.873,0-0.995,0.852-1.125,1.754c-0.104,0.73-0.248,1.73-0.708,2.938c-0.863,2.27-2.868,4.378-5.218,5.538l-0.003-4.45
		c0.033-0.274-0.043-0.533-0.216-0.728c-0.13-0.147-0.372-0.323-0.792-0.324c-0.611,0-0.989,0.474-0.989,0.913V24h7.343l0.015-0.001
		c0.392-0.023,0.973-0.312,0.972-1.015C22.38,22.345,21.872,22,21.396,22H18.41C20.697,20.579,22.414,18.486,23.16,16.139z"/>
	<g display="inline">
		<path fill="#333333" d="M15.427,0H3.485C1.81,0,0,1.146,0,2.999v17.833C0,22.52,1.629,24,3.485,24h4.501v-1H3.485
			C2.313,23,1,22.073,1,20.832V2.999C1,1.764,2.29,1,3.485,1h11.609L20,4.662v3.676l1,0.042v-4.22L15.427,0z"/>
	</g>
</g>
<g id="Layer_16" display="none">
	<path display="inline" fill="#333333" d="M22.991,0H1.009c-0.553,0-1,0.447-1,1s0.447,1,1,1h21.982c0.553,0,1-0.447,1-1
		S23.544,0,22.991,0z"/>
	<path display="inline" fill="#333333" d="M22.991,22H1.009c-0.553,0-1,0.447-1,1s0.447,1,1,1h21.982c0.553,0,1-0.447,1-1
		S23.544,22,22.991,22z"/>
	<g display="inline">
		<path fill="#333333" d="M22.991,8H1.009c-0.553,0-1,0.447-1,1s0.447,1,1,1h21.982c0.553,0,1-0.447,1-1S23.544,8,22.991,8z"/>
		<path fill="#333333" d="M22.991,15H1.009c-0.553,0-1,0.447-1,1s0.447,1,1,1h21.982c0.553,0,1-0.447,1-1S23.544,15,22.991,15z"/>
	</g>
</g>
<g id="Layer_17" display="none">
	<g display="inline">
		<path fill="#333333" d="M23,9.818h-7.818c-0.552,0-1-0.448-1-1V1c0-0.552,0.448-1,1-1H23c0.552,0,1,0.448,1,1v7.818
			C24,9.371,23.552,9.818,23,9.818z"/>
		<path fill="#333333" d="M8.818,9.818H1c-0.552,0-1-0.448-1-1V1c0-0.552,0.448-1,1-1h7.818c0.552,0,1,0.448,1,1v7.818
			C9.818,9.371,9.37,9.818,8.818,9.818z"/>
		<path fill="#333333" d="M23,24h-7.818c-0.552,0-1-0.448-1-1v-7.818c0-0.552,0.448-1,1-1H23c0.552,0,1,0.448,1,1V23
			C24,23.552,23.552,24,23,24z"/>
		<path fill="#333333" d="M8.818,24H1c-0.552,0-1-0.448-1-1v-7.818c0-0.552,0.448-1,1-1h7.818c0.552,0,1,0.448,1,1V23
			C9.818,23.552,9.37,24,8.818,24z"/>
	</g>
</g>
<g id="load_x5F_profile" display="none">
	<path id="XMLID_7_" display="inline" fill="#333333" d="M20.072,10.035c-0.377-0.358-0.972-0.349-1.33,0.028L13.366,15.6V0h-2.028
		v15.77l-5.527-5.706c-0.368-0.377-0.962-0.387-1.339-0.019c-0.368,0.358-0.377,0.953-0.019,1.33l7.14,7.375
		c0.179,0.179,0.424,0.283,0.679,0.283s0.5-0.104,0.679-0.283l7.14-7.376C20.458,10.997,20.449,10.403,20.072,10.035z
		 M12.272,16.732l-0.019-0.019h0.038L12.272,16.732z"/>
	<path display="inline" fill="#333333" d="M24,23L24,23L24,23c0-0.077-0.018-0.151-0.045-0.223
		c-0.104-0.442-0.483-0.778-0.957-0.778C22.922,21.998,1.075,22,1,22c-0.473,0-0.851,0.336-0.955,0.777C0.018,22.849,0,22.923,0,23
		s0.018,0.151,0.045,0.223C0.149,23.664,0.527,24,1,24c0.075,0,21.923,0.002,21.998,0.002c0.474,0,0.853-0.336,0.957-0.779
		C23.982,23.151,24,23.077,24,23C24,23,24,23,24,23z"/>
</g>
<g id="import_x5F_profile" display="none">
	<g display="inline">
		<path id="XMLID_1_" fill="#333333" d="M13.966,20.072c0.358-0.377,0.349-0.972-0.028-1.33l-5.536-5.376h15.6v-2.028H8.232
			l5.706-5.527c0.377-0.368,0.387-0.962,0.019-1.339c-0.358-0.368-0.953-0.377-1.33-0.019l-7.376,7.14
			c-0.179,0.179-0.283,0.424-0.283,0.679s0.104,0.5,0.283,0.679l7.375,7.14C13.004,20.458,13.598,20.449,13.966,20.072z
			 M7.27,12.272l0.019-0.019v0.038L7.27,12.272z"/>
		<path fill="#333333" d="M1.002,24L1.002,24L1.002,24c0.077,0,0.151-0.018,0.223-0.045c0.442-0.104,0.778-0.483,0.778-0.957
			C2.003,22.922,2.002,1.075,2.002,1c0-0.473-0.336-0.851-0.777-0.955C1.153,0.018,1.078,0,1.002,0S0.851,0.018,0.779,0.045
			C0.337,0.149,0.002,0.527,0.002,1C0.002,1.075,0,22.923,0,22.998c0,0.474,0.336,0.853,0.779,0.957C0.85,23.982,0.924,24,1.002,24
			C1.001,24,1.001,24,1.002,24z"/>
	</g>
</g>
<g id="import_x5F_profile_copy">
	<g>
		<path id="XMLID_2_" fill="#333333" d="M11.375,20.091l7.375-7.14c0.179-0.179,0.283-0.424,0.283-0.679s-0.104-0.5-0.283-0.679
			l-7.376-7.14c-0.377-0.358-0.971-0.349-1.33,0.019c-0.368,0.377-0.358,0.971,0.019,1.339l5.706,5.527H0l0,2.028h15.6l-5.536,5.376
			c-0.377,0.358-0.387,0.953-0.028,1.33C10.403,20.449,10.997,20.458,11.375,20.091z M16.713,12.291v-0.038l0.019,0.019
			L16.713,12.291z"/>
		<path fill="#333333" d="M23,24L23,24L23,24c-0.077,0-0.151-0.018-0.223-0.045c-0.442-0.104-0.778-0.483-0.778-0.957
			C21.998,22.922,22,1.075,22,1c0-0.473,0.336-0.851,0.777-0.955C22.849,0.018,22.923,0,23,0s0.151,0.018,0.223,0.045
			C23.664,0.149,24,0.527,24,1c0,0.075,0.002,21.923,0.002,21.998c0,0.474-0.336,0.853-0.779,0.957C23.151,23.982,23.077,24,23,24
			C23,24,23,24,23,24z"/>
	</g>
</g>
<g id="selete_x5F_scanner" display="none">
	<g display="inline">
		<path fill="#333333" d="M23,24h-3c-0.553,0-1-0.447-1-1s0.447-1,1-1h2v-2c0-0.553,0.447-1,1-1s1,0.447,1,1v3
			C24,23.553,23.553,24,23,24z"/>
		<path fill="#333333" d="M15,24h-5c-0.552,0-1-0.447-1-1s0.448-1,1-1h5c0.553,0,1,0.447,1,1S15.553,24,15,24z"/>
		<path fill="#333333" d="M4,24H1c-0.552,0-1-0.447-1-1v-3c0-0.553,0.448-1,1-1s1,0.447,1,1v2h2c0.552,0,1,0.447,1,1S4.552,24,4,24z
			"/>
		<path fill="#333333" d="M1,16c-0.552,0-1-0.447-1-1v-5c0-0.552,0.448-1,1-1s1,0.448,1,1v5C2,15.553,1.552,16,1,16z"/>
		<path fill="#333333" d="M1,5C0.448,5,0,4.552,0,4V1c0-0.552,0.448-1,1-1h3c0.552,0,1,0.448,1,1S4.552,2,4,2H2v2
			C2,4.552,1.552,5,1,5z"/>
		<path fill="#333333" d="M14,2H9C8.448,2,8,1.552,8,1s0.448-1,1-1h5c0.553,0,1,0.448,1,1S14.553,2,14,2z"/>
		<path fill="#333333" d="M23,5c-0.553,0-1-0.448-1-1V2h-2c-0.553,0-1-0.448-1-1s0.447-1,1-1h3c0.553,0,1,0.448,1,1v3
			C24,4.552,23.553,5,23,5z"/>
		<path fill="#333333" d="M23,15c-0.553,0-1-0.447-1-1V9c0-0.552,0.447-1,1-1s1,0.448,1,1v5C24,14.553,23.553,15,23,15z"/>
	</g>
</g>
<g id="configure_x5F_processing" display="none">
	<path display="inline" fill="#333333" d="M8.779,10.101c0.364-0.002,0.694-0.149,0.932-0.388c0.239-0.239,0.386-0.569,0.384-0.932
		c0-0.727-0.591-1.319-1.319-1.319H4.502l1.479-1.479c5.395-5.395,10.077-2.978,13.055,0c0.515,0.515,1.35,0.515,1.865,0
		s0.515-1.35,0-1.865c-5.332-5.332-11.453-5.332-16.785,0L2.637,5.597l0-4.278C2.637,0.591,2.046,0,1.319,0C0.591,0,0,0.591,0,1.319
		l0,8.78L8.779,10.101z"/>
	<path display="inline" fill="#333333" d="M15.221,13.899c-0.364,0.002-0.694,0.149-0.932,0.388
		c-0.239,0.239-0.386,0.569-0.384,0.932c0,0.727,0.591,1.319,1.319,1.319h4.275l-1.479,1.479c-5.395,5.395-10.077,2.978-13.055,0
		c-0.515-0.515-1.35-0.515-1.865,0c-0.515,0.515-0.515,1.35,0,1.865c5.332,5.332,11.453,5.332,16.785,0l1.479-1.479v4.278
		c0,0.727,0.591,1.319,1.319,1.319C23.409,24,24,23.409,24,22.681v-8.78L15.221,13.899z"/>
</g>
<g id="configure_x5F_archiving" display="none">
	<rect display="inline" fill="#333333" width="24" height="24"/>
	<path display="inline" fill="#FFFFFF" d="M9.164,18.582l-5.371-5.371c-0.391-0.391-0.391-1.023,0-1.414s1.023-0.391,1.414,0
		l3.957,3.957l9.629-9.629c0.391-0.391,1.023-0.391,1.414,0s0.391,1.023,0,1.414L9.164,18.582z"/>
</g>
<g id="separate_x5F_doc" display="none">
	<g display="inline">
		<path fill="#FFFFFF" d="M10,19.5c-0.827,0-1.5-0.673-1.5-1.5V2c0-0.827,0.673-1.5,1.5-1.5h9.793L23.5,4.207V18
			c0,0.827-0.673,1.5-1.5,1.5H10z"/>
		<path fill="#333333" d="M19.586,1L23,4.414V18c0,0.551-0.449,1-1,1H10c-0.551,0-1-0.449-1-1V2c0-0.551,0.449-1,1-1H19.586 M20,0
			H10C8.896,0,8,0.896,8,2v16c0,1.104,0.896,2,2,2h12c1.104,0,2-0.896,2-2V4L20,0z"/>
	</g>
	<g display="inline">
		<g>
			<rect x="11.5" y="4.861" fill="#333333" width="9" height="1"/>
			<rect x="11.5" y="14.139" fill="#333333" width="9" height="1"/>
		</g>
		<rect x="11.5" y="9.5" fill="#333333" width="9" height="1"/>
	</g>
	<path display="inline" fill="#FFFFFF" d="M2,23.5c-0.827,0-1.5-0.673-1.5-1.5V6c0-0.827,0.673-1.5,1.5-1.5h9.793L15.5,8.207V22
		c0,0.827-0.673,1.5-1.5,1.5H2z"/>
	<g display="inline">
		<path fill="#FFFFFF" d="M2,23.5c-0.827,0-1.5-0.673-1.5-1.5V6c0-0.827,0.673-1.5,1.5-1.5h9.793L15.5,8.207V22
			c0,0.827-0.673,1.5-1.5,1.5H2z"/>
		<path fill="#333333" d="M11.586,5L15,8.414V22c0,0.551-0.449,1-1,1H2c-0.551,0-1-0.449-1-1V6c0-0.551,0.449-1,1-1H11.586 M12,4H2
			C0.896,4,0,4.896,0,6v16c0,1.104,0.896,2,2,2h12c1.104,0,2-0.896,2-2V8L12,4z"/>
	</g>
	<g display="inline">
		<g>
			<rect x="3.5" y="8.861" fill="#333333" width="9" height="1"/>
			<rect x="3.5" y="18.139" fill="#333333" width="9" height="1"/>
		</g>
		<rect x="3.5" y="13.5" fill="#333333" width="9" height="1"/>
	</g>
</g>
<g id="paste_x5F_cut_x5F_page" display="none">
	<g display="inline">
		<path fill="#FFFFFF" d="M11.4,17.55c-0.744,0-1.35-0.606-1.35-1.35V1.8c0-0.744,0.606-1.35,1.35-1.35h8.814l3.336,3.336V16.2
			c0,0.744-0.606,1.35-1.35,1.35H11.4z"/>
		<path fill="#333333" d="M20.027,0.9L23.1,3.973V16.2c0,0.496-0.404,0.9-0.9,0.9H11.4c-0.496,0-0.9-0.404-0.9-0.9V1.8
			c0-0.496,0.404-0.9,0.9-0.9H20.027 M20.4,0h-9c-0.994,0-1.8,0.806-1.8,1.8v14.4c0,0.994,0.806,1.8,1.8,1.8h10.8
			c0.994,0,1.8-0.806,1.8-1.8V3.6L20.4,0z"/>
	</g>
	<path display="inline" fill="#FFFFFF" d="M1.8,23.55c-0.744,0-1.35-0.606-1.35-1.35V7.8c0-0.744,0.606-1.35,1.35-1.35h8.814
		l3.336,3.336V22.2c0,0.744-0.606,1.35-1.35,1.35H1.8z"/>
	<path display="inline" fill="#333333" d="M1.8,23.55c-0.744,0-1.35-0.606-1.35-1.35V7.8c0-0.744,0.606-1.35,1.35-1.35h8.814
		l3.336,3.336V22.2c0,0.744-0.606,1.35-1.35,1.35H1.8z"/>
	<path display="inline" fill="#333333" d="M10.427,6.9L13.5,9.973V22.2c0,0.496-0.404,0.9-0.9,0.9H1.8c-0.496,0-0.9-0.404-0.9-0.9
		V7.8c0-0.496,0.404-0.9,0.9-0.9H10.427 M10.8,6h-9C0.806,6,0,6.806,0,7.8v14.4C0,23.194,0.806,24,1.8,24h10.8
		c0.994,0,1.8-0.806,1.8-1.8V9.6L10.8,6z"/>
</g>
<g id="paste_x5F_cut_x5F_page_1_" display="none">
	<path display="inline" fill="#FFFFFF" d="M1.8,23.55c-0.744,0-1.35-0.606-1.35-1.35V7.8c0-0.744,0.606-1.35,1.35-1.35h8.814
		l3.336,3.336V22.2c0,0.744-0.606,1.35-1.35,1.35H1.8z"/>
	<path display="inline" fill="#FFFFFF" d="M1.8,23.55c-0.744,0-1.35-0.606-1.35-1.35V7.8c0-0.744,0.606-1.35,1.35-1.35h8.814
		l3.336,3.336V22.2c0,0.744-0.606,1.35-1.35,1.35H1.8z"/>
	<path display="inline" fill="#333333" d="M10.427,6.9L13.5,9.973V22.2c0,0.496-0.404,0.9-0.9,0.9H1.8c-0.496,0-0.9-0.404-0.9-0.9
		V7.8c0-0.496,0.404-0.9,0.9-0.9H10.427 M10.8,6h-9C0.806,6,0,6.806,0,7.8v14.4C0,23.194,0.806,24,1.8,24h10.8
		c0.994,0,1.8-0.806,1.8-1.8V9.6L10.8,6z"/>
	<g display="inline">
		<path fill="#333333" d="M11.4,17.55c-0.744,0-1.35-0.606-1.35-1.35V1.8c0-0.744,0.606-1.35,1.35-1.35h8.814l3.336,3.336V16.2
			c0,0.744-0.606,1.35-1.35,1.35H11.4z"/>
		<path fill="#333333" d="M20.027,0.9L23.1,3.973V16.2c0,0.496-0.404,0.9-0.9,0.9H11.4c-0.496,0-0.9-0.404-0.9-0.9V1.8
			c0-0.496,0.404-0.9,0.9-0.9H20.027 M20.4,0h-9c-0.994,0-1.8,0.806-1.8,1.8v14.4c0,0.994,0.806,1.8,1.8,1.8h10.8
			c0.994,0,1.8-0.806,1.8-1.8V3.6L20.4,0z"/>
	</g>
</g>
<g id="cut" display="none">
	<path display="inline" fill="#333333" d="M19.502,9.391c-1.774,0-3.766,1.33-4.498,3.393h-3.65l1.09-3.788
		c0,0,2.786-0.726,2.779-4.498c0-2.484-2.123-4.498-4.607-4.498S6.065,2.015,6.065,4.499c0.03,3.217,2.971,4.498,2.971,4.498
		l-1.513,4.498L0.02,16.492c0,0-0.308,1.521,1.497,1.409c0.757-0.047,3.026-0.694,5.973-1.521c-0.827,2.947-1.403,5.29-1.45,6.046
		c-0.112,1.805,1.446,1.561,1.446,1.561l3.022-7.496l4.497-1.499c0,0,1.058,3.008,4.497,2.998c2.484,0,4.498-1.816,4.498-4.3
		S21.986,9.391,19.502,9.391z M10.507,1.5c1.653,0,2.998,1.345,2.998,2.998s-1.345,2.998-2.998,2.998S7.509,6.152,7.509,4.499
		S8.854,1.5,10.507,1.5z M10.507,14.993L10.507,14.993c-0.226-0.001-1.499,0.023-1.499,0c0-0.539,0.001-1.292,0-1.499l0-0.001
		c0-0.023,1.561,0.061,1.499,0c0.005,0.006-0.006-0.005,0,0C10.507,13.892,10.531,14.993,10.507,14.993z M19.502,16.492
		c-1.654,0-2.998-1.345-2.998-2.998c0-1.653,1.345-2.998,2.998-2.998s2.998,1.345,2.998,2.998
		C22.501,15.147,21.156,16.492,19.502,16.492z"/>
</g>
<g id="Layer_27" display="none">
	<path display="inline" fill="#FFFFFF" d="M16.286,0.584l5.242,5.242v14.677c0,1.737-1.408,3.145-3.145,3.145H5.802
		c-1.737,0-3.145-1.408-3.145-3.145V3.729c0-1.737,1.408-3.145,3.145-3.145H16.286"/>
	<g display="inline">
		<g>
			<g>
				<g>
					<path fill="#333333" d="M16,1l5,5v14c0,1.657-1.343,3-3,3H6c-1.657,0-3-1.343-3-3V4c0-1.657,1.343-3,3-3H16 M16.414,0H16H6
						C3.794,0,2,1.794,2,4v16c0,2.206,1.794,4,4,4h12c2.206,0,4-1.794,4-4V6V5.586l-0.293-0.293l-5-5L16.414,0L16.414,0z"/>
				</g>
			</g>
		</g>
		<g>
			<g>
				<rect x="5" y="13" fill="#333333" width="14" height="1"/>
			</g>
			<rect x="5" y="7" fill="#333333" width="11" height="1"/>
		</g>
		<rect x="5" y="16" fill="#333333" width="11.658" height="1"/>
		<rect x="5" y="10" fill="#333333" width="11" height="1"/>
	</g>
	<g display="inline">
		<path fill="#FFFFFF" d="M22.157,24c-0.49,0-0.95-0.19-1.297-0.537l-5.192-5.192v3.89c0,1.011-0.822,1.833-1.833,1.833
			c-1.011,0-1.833-0.822-1.833-1.833v-8.274c-0.031-0.467,0.161-0.98,0.527-1.347l0.011-0.008c0.346-0.346,0.806-0.536,1.295-0.536
			h8.332c1.011,0,1.833,0.822,1.833,1.833s-0.822,1.833-1.833,1.833h-3.924l5.21,5.21c0.715,0.715,0.715,1.877,0,2.592
			C23.106,23.81,22.646,24,22.157,24z"/>
		<path fill="#333333" d="M15.829,14.661h6.337c0.461,0,0.833-0.373,0.833-0.833c0-0.46-0.373-0.833-0.833-0.833h-8.332
			c-0.231,0-0.439,0.094-0.59,0.245c-0.003,0.003-0.006,0.003-0.009,0.006c-0.176,0.176-0.248,0.41-0.234,0.639v8.274
			c0,0.461,0.373,0.833,0.833,0.833c0.461,0,0.833-0.373,0.833-0.833v-6.304l6.9,6.9C21.731,22.919,21.944,23,22.157,23
			s0.426-0.081,0.589-0.244c0.325-0.325,0.325-0.853,0-1.178L15.829,14.661z"/>
	</g>
</g>
</svg>
