<?xml version="1.0" encoding="utf-8"?>
<!-- Generator: Adobe Illustrator 19.1.0, SVG Export Plug-In . SVG Version: 6.00 Build 0)  -->
<svg version="1.1" id="Layer_1" xmlns="http://www.w3.org/2000/svg" xmlns:xlink="http://www.w3.org/1999/xlink" x="0px" y="0px"
	 viewBox="0 0 24 24" style="enable-background:new 0 0 24 24;" xml:space="preserve">
<style type="text/css">
	.st0{fill:#FFFFFF;}
</style>
<g>
	<g>
		<path class="st0" d="M6.871,14.78L5.342,8.365C5.221,7.856,5.607,7.367,6.13,7.367h0.033c0.38,0,0.71,0.265,0.791,0.636
			l1.107,5.044L9.32,8.319c0.15-0.561,0.658-0.952,1.239-0.952l0,0c0.588,0,1.1,0.4,1.243,0.97l1.207,4.806l1.13-5.14
			c0.081-0.371,0.411-0.636,0.791-0.636l0,0c0.524,0,0.911,0.491,0.787,1.001l-1.555,6.417c-0.124,0.511-0.581,0.871-1.107,0.871
			l0,0c-0.516,0-0.968-0.347-1.1-0.846l-1.422-5.337l-1.416,5.337c-0.133,0.499-0.584,0.847-1.1,0.847H7.98
			C7.451,15.655,6.993,15.293,6.871,14.78z"/>
	</g>
	<path class="st0" d="M18.06,13.495c-2.73,0-4.95,2.22-4.95,4.95c0,2.72,2.22,4.94,4.95,4.94c2.72,0,4.94-2.22,4.94-4.94
		C23,15.715,20.78,13.495,18.06,13.495z M18.88,20.727C18.76,20.847,18.61,21,18.44,21c0,0-0.01,0-0.02,0
		c-0.16,0-0.32-0.143-0.43-0.263c-0.25-0.25-0.25-0.714,0-0.954L18.71,19H15.7c-0.36,0-0.62-0.15-0.62-0.5S15.34,18,15.7,18h3.02
		l-0.73-0.878c-0.25-0.25-0.25-0.641,0-0.891C18.11,16.121,18.26,16,18.43,16c0,0,0,0,0.01,0c0.16,0,0.32,0.027,0.44,0.147
		l2.26,2.32L18.88,20.727z"/>
	<path class="st0" d="M11.577,20.915h-7.17c-1.128,0-2.046-0.691-2.046-1.819V2.728c0-1.128,0.918-1.819,2.046-1.819h10.685
		l3.638,3.637v7.286c0.31,0.049,0.615,0.112,0.909,0.202V4.547L15.092,0H4.407C2.903,0,1.451,1.224,1.451,2.728v16.369
		c0,1.504,1.451,2.728,2.955,2.728h7.64C11.869,21.534,11.709,21.233,11.577,20.915z"/>
	<polygon class="st0" points="15.079,0.914 15.079,4.554 18.718,4.554 	"/>
</g>
</svg>
