<?xml version="1.0" encoding="utf-8"?>
<!-- Generator: Adobe Illustrator 19.1.0, SVG Export Plug-In . SVG Version: 6.00 Build 0)  -->
<svg version="1.1" id="Layer_1" xmlns="http://www.w3.org/2000/svg" xmlns:xlink="http://www.w3.org/1999/xlink" x="0px" y="0px"
	 viewBox="0 0 48 48" enable-background="new 0 0 48 48" xml:space="preserve">
<g>
	<path fill="#0B5D98" d="M24,38.653C9.003,38.653,1,26.384,1,24S9.003,9.347,24,9.347S47,21.616,47,24S38.997,38.653,24,38.653z
		 M24.046,14.656c-5.178,0-9.39,4.192-9.39,9.344s4.213,9.344,9.39,9.344c5.127,0,9.297-4.192,9.297-9.344
		S29.173,14.656,24.046,14.656z M24.045,29.801c-3.149,0-5.711-2.602-5.711-5.801s2.562-5.801,5.711-5.801
		c0.387,0,0.72,0.156,0.938,0.438c0.48,0.624,0.232,1.562-0.083,2.75c-0.155,0.589-0.477,1.806-0.317,2.098
		c0.019,0.001,0.149,0.007,0.149,0.007c0.42,0,1.071-0.162,1.701-0.319c0.698-0.174,1.358-0.338,1.887-0.338
		c0.996,0,1.348,0.627,1.348,1.164C29.667,27.199,27.145,29.801,24.045,29.801z"/>
</g>
</svg>
