<?xml version="1.0" encoding="utf-8"?>
<!-- Generator: Adobe Illustrator 19.0.0, SVG Export Plug-In . SVG Version: 6.00 Build 0)  -->
<svg version="1.1" id="Layer_1" xmlns="http://www.w3.org/2000/svg" xmlns:xlink="http://www.w3.org/1999/xlink" x="0px" y="0px"
	 viewBox="0 0 24 24" enable-background="new 0 0 24 24" xml:space="preserve">
<g id="XMLID_2_">
	<g id="XMLID_84_">
		<g id="XMLID_89_">
			<polygon id="XMLID_17_" fill="#FFFFFF" points="20.7418,17.5 20.7418,18.84 17.9118,18.84 17.9118,21.67 16.5718,21.67 
				16.5718,18.84 13.7318,18.84 13.7318,17.5 16.5718,17.5 16.5718,14.66 17.9118,14.66 17.9118,17.5 			"/>
		</g>
	</g>
	<g id="XMLID_8_">
		<g id="XMLID_9_">
			<path id="XMLID_148_" fill="#FFFFFF" d="M19.2147,12.6598l3.5718-3.4751c0.308-0.2903,0.4135-0.7214,0.2815-1.1349
				c-0.1232-0.4135-0.4662-0.7038-0.8973-0.7654l-6.3343-0.9149l-2.8417-5.7537C12.8101,0.2376,12.423,0,12.0007,0
				c-0.4311,0-0.8182,0.2464-0.9941,0.6158L8.1825,6.3607L1.8306,7.2845C1.3995,7.3461,1.0652,7.6276,0.9244,8.0499
				c-0.132,0.4047-0.0176,0.8446,0.2903,1.1349l4.5835,4.4516l-1.0909,6.3343C4.637,20.393,4.813,20.8153,5.1561,21.0616
				c0.3343,0.2464,0.8358,0.2727,1.1701,0.0792l5.1378-2.6657C11.6223,21.5455,14.2001,24,17.2968,24
				c3.22,0,5.8328-2.6129,5.8328-5.8328C23.1297,15.7126,21.5285,13.478,19.2147,12.6598z M17.2968,22.8563
				c-2.5865,0-4.6979-2.1026-4.6979-4.6892c0-0.1232,0.0088-0.2464,0.0176-0.3695v-0.0352c0-0.0264,0.0088-0.0528,0.0176-0.1056
				c0.044-0.4574,0.1495-0.8798,0.3167-1.2757c0.044-0.1231,0.1056-0.2463,0.1584-0.3431c0.132-0.2639,0.2903-0.5191,0.4927-0.7742
				l0.176-0.2024c0.0528-0.0615,0.1056-0.1231,0.1672-0.1759l0.0792-0.0792c0.0703-0.0791,0.1584-0.1584,0.2463-0.2287
				c0.0968-0.0791,0.1936-0.1584,0.2991-0.2287c0.0704-0.0528,0.1319-0.088,0.2023-0.1407c0.1144-0.0704,0.2111-0.132,0.3343-0.1935
				c0.0968-0.0528,0.2023-0.0968,0.3255-0.1496c0.0176-0.0176,0.0264-0.0176,0.0528-0.0264
				c0.1584-0.0704,0.2903-0.1144,0.4223-0.1496c0.0968-0.0352,0.1848-0.0528,0.2991-0.0791
				c0.0616-0.0176,0.1232-0.0352,0.2111-0.044c0.1232-0.0264,0.2639-0.0528,0.4047-0.0616
				c0.1495-0.0176,0.3079-0.0264,0.4751-0.0264c0.1232,0,0.2376,0,0.3695,0.0176c0.1056,0.0088,0.2199,0.0264,0.3519,0.044
				c0.044,0,0.088,0.0088,0.132,0.0176c2.2258,0.4047,3.8358,2.349,3.8358,4.61C21.986,20.7537,19.8833,22.8563,17.2968,22.8563z"/>
		</g>
	</g>
</g>
</svg>
