<?xml version="1.0" encoding="utf-8"?>
<!-- Generator: Adobe Illustrator 19.1.0, SVG Export Plug-In . SVG Version: 6.00 Build 0)  -->
<svg version="1.1" id="Layer_1" xmlns="http://www.w3.org/2000/svg" xmlns:xlink="http://www.w3.org/1999/xlink" x="0px" y="0px"
	 viewBox="0 0 32 32" style="enable-background:new 0 0 32 32;" xml:space="preserve">
<style type="text/css">
	.st0{fill:#00AF9A;}
	.st1{fill:#FFFFFF;}
	.st2{fill:#00896D;}
	.st3{fill:#00795A;}
	.st4{stroke:#FFFFFF;stroke-width:0.8;stroke-miterlimit:10;}
</style>
<g>
	<g>
		<g>
			<g>
				<path class="st0" d="M7,31.5c-1.93,0-3.5-1.57-3.5-3.5V4c0-1.93,1.57-3.5,3.5-3.5h15.207L28.5,6.793V28c0,1.93-1.57,3.5-3.5,3.5
					H7z"/>
				<path class="st1" d="M22,1l6,6v21c0,1.657-1.343,3-3,3H7c-1.657,0-3-1.343-3-3V4c0-1.657,1.343-3,3-3H22 M22.414,0H22H7
					C4.794,0,3,1.794,3,4v24c0,2.206,1.794,4,4,4h18c2.206,0,4-1.794,4-4V7V6.586l-0.293-0.293l-6-6L22.414,0L22.414,0z"/>
			</g>
		</g>
		<polygon class="st2" points="22,1 22,7 28,7 		"/>
	</g>
	<g>
		<path class="st3" d="M24.216,9H8.012l6.629,7.834v4.687c0,0.813,0.66,1.473,1.473,1.473c0.813,0,1.473-0.66,1.473-1.473v-4.687
			L24.216,9z"/>
		<path class="st1" d="M23.216,9H7.012l6.629,7.834v4.687c0,0.813,0.66,1.473,1.473,1.473s1.473-0.66,1.473-1.473v-4.687L23.216,9z"
			/>
	</g>
	<g>
		<g>
			<g>
				<path class="st4" d="M25.313,21.09l-3.407,3.557c-0.366,0.387-0.881,0.604-1.443,0.618c-0.034-0.092-0.079-0.175-0.154-0.25
					c-0.017-0.041-0.055-0.084-0.093-0.116c-0.132-0.129-0.296-0.22-0.474-0.261c-0.059-0.014-0.118-0.028-0.178-0.032
					c-0.12-0.008-0.221,0.006-0.334,0.049l-0.01-0.001c-0.091,0.014-0.184,0.058-0.268,0.113c-0.086-0.066-0.172-0.131-0.247-0.206
					l-0.623-0.592c-0.414-0.408-0.432-1.07-0.034-1.485c0.215-0.227,0.514-0.348,0.823-0.327c0.249,0.016,0.483,0.122,0.662,0.293
					l0.613,0.591c0.095,0.086,0.192,0.123,0.272,0.128l3.343-3.501c0.003-0.05-0.04-0.163-0.133-0.259l-1.246-1.183
					c-0.085-0.086-0.182-0.122-0.272-0.128l-1.72,1.803c-0.064,0.066-0.139,0.131-0.221,0.166c-0.084,0.065-0.177,0.099-0.268,0.113
					c-0.113,0.043-0.224,0.056-0.344,0.048c-0.06-0.004-0.119-0.018-0.178-0.032c-0.059-0.024-0.117-0.048-0.186-0.062
					c-0.107-0.047-0.203-0.113-0.288-0.199c-0.038-0.033-0.075-0.075-0.093-0.116c-0.075-0.075-0.12-0.158-0.154-0.25
					c-0.147-0.36-0.078-0.807,0.212-1.109l1.763-1.85c0.408-0.424,1.004-0.646,1.633-0.606c0.579,0.038,1.134,0.284,1.568,0.703
					l1.236,1.182C26.022,18.801,26.13,20.231,25.313,21.09z"/>
			</g>
		</g>
		<g>
			<g>
				<path class="st4" d="M18.702,21.663l-3.343,3.501c0.007,0.051,0.04,0.163,0.143,0.26l1.236,1.182
					c0.085,0.086,0.182,0.122,0.272,0.128l1.73-1.802c0.064-0.066,0.138-0.121,0.211-0.167c0.084-0.055,0.177-0.099,0.268-0.113
					l0.01,0.001c0.113-0.043,0.214-0.056,0.334-0.049c0.06,0.004,0.119,0.018,0.178,0.032c0.178,0.042,0.342,0.132,0.474,0.261
					c0.038,0.032,0.075,0.075,0.093,0.116c0.075,0.075,0.12,0.158,0.154,0.25c0.157,0.361,0.078,0.807-0.212,1.109l-1.763,1.85
					c-0.408,0.424-1.004,0.646-1.633,0.606c-0.569-0.037-1.134-0.284-1.568-0.703l-1.236-1.182
					c-0.953-0.914-1.061-2.344-0.243-3.202l3.407-3.557c0.376-0.387,0.891-0.604,1.443-0.618c0.034,0.092,0.079,0.176,0.154,0.25
					c0.017,0.041,0.055,0.084,0.093,0.116c0.085,0.086,0.181,0.152,0.288,0.199c0.069,0.015,0.128,0.038,0.186,0.062
					c0.059,0.014,0.118,0.028,0.178,0.032c0.12,0.008,0.231-0.005,0.344-0.048c0.091-0.014,0.184-0.048,0.268-0.113
					c0.097,0.056,0.172,0.131,0.257,0.207l0.613,0.591c0.425,0.398,0.432,1.07,0.034,1.485c-0.215,0.227-0.514,0.348-0.823,0.327
					c-0.249-0.016-0.483-0.121-0.652-0.293l-0.623-0.592C18.89,21.705,18.792,21.669,18.702,21.663z"/>
			</g>
		</g>
	</g>
</g>
</svg>
