<?xml version="1.0" encoding="utf-8"?>
<!-- Generator: Adobe Illustrator 19.1.0, SVG Export Plug-In . SVG Version: 6.00 Build 0)  -->
<svg version="1.1" id="Layer_1" xmlns="http://www.w3.org/2000/svg" xmlns:xlink="http://www.w3.org/1999/xlink" x="0px" y="0px"
	 viewBox="0 0 24 24" style="enable-background:new 0 0 24 24;" xml:space="preserve">
<style type="text/css">
	.st0{fill:#333333;}
	.st1{fill:#BC3433;}
</style>
<g>
	<path class="st0" d="M5.937,24H5.78c-0.476,0-0.865-0.389-0.865-0.865V0.916c0-0.476,0.389-0.865,0.865-0.865h0.156
		c0.476,0,0.865,0.389,0.865,0.865v22.219C6.801,23.611,6.412,24,5.937,24z"/>
	<path class="st0" d="M7.768,0.003C7.218,0.001,6.96,0.45,6.96,1v11.085C6.96,12.635,7.025,13,7.575,13h14.357
		c0.55,0,0.823-0.371,0.606-0.876L20.518,7.44c-0.217-0.505-0.198-1.313,0.042-1.808l2.276-4.687c0.24-0.495,0.083-0.898-0.467-0.9
		L7.768,0.003z"/>
</g>
</svg>
