<?xml version="1.0" encoding="utf-8"?>
<!-- Generator: Adobe Illustrator 19.2.1, SVG Export Plug-In . SVG Version: 6.00 Build 0)  -->
<svg version="1.1" xmlns="http://www.w3.org/2000/svg" xmlns:xlink="http://www.w3.org/1999/xlink" x="0px" y="0px"
	 viewBox="0 0 32 32" style="enable-background:new 0 0 32 32;" xml:space="preserve">
<style type="text/css">
	.st0{display:none;}
	.st1{display:inline;fill:none;}
	.st2{display:inline;fill:#333333;}
	.st3{display:inline;fill:#FFFFFF;}
	.st4{display:inline;fill:#676767;}
	.st5{display:inline;fill:#AED5E9;stroke:#010101;stroke-miterlimit:10;}
	.st6{display:inline;}
	.st7{fill:#DF3626;}
	.st8{fill:#FFFFFF;}
	.st9{fill:#B92025;}
	.st10{fill:#333333;}
</style>
<g id="Layer_1" class="st0">
	<path class="st1" d="M-18.8,8.7c-0.8,0-1.5,0.5-1.5,1.3v12c0,0.8,0.7,1.3,1.5,1.3h9.7c0.8,0,1.5-0.5,1.5-1.3V11.3l-2.7-2.7H-18.8z"
		/>
	<path class="st2" d="M-10.3,8h-8.5c-1.1,0-2.2,0.9-2.2,2v12c0,1.1,1.1,2,2.2,2h9.7c1.1,0,2.2-0.9,2.2-2V11.3L-10.3,8z"/>
	<path class="st3" d="M-7.7,22c0,0.8-0.7,1.3-1.5,1.3h-9.7c-0.8,0-1.5-0.5-1.5-1.3V10c0-0.8,0.7-1.3,1.5-1.3h8.5l2.7,2.7V22z"/>
	<polygon class="st4" points="-10.3,8.7 -10.3,11.3 -7.7,11.3 	"/>
	<path class="st1" d="M6.3,1.3c-1.7,0-3,1-3,2.7v24c0,1.7,1.3,2.7,3,2.7h19.3c1.7,0,3-1,3-2.7V6.7l-5.3-5.3H6.3z"/>
	<path class="st2" d="M23.3,0h-17C4.1,0,2,1.8,2,4v24c0,2.2,2.1,4,4.3,4h19.3c2.2,0,4.3-1.8,4.3-4V6.7L23.3,0z"/>
	<path class="st3" d="M28.7,28c0,1.7-1.3,2.7-3,2.7H6.3c-1.7,0-3-1-3-2.7V4c0-1.7,1.3-2.7,3-2.7h17l5.3,5.3V28z"/>
	<polygon class="st4" points="23.3,1.3 23.3,6.7 28.7,6.7 	"/>
	<path class="st1" d="M46.5-6C44-6,42-4.5,42-2v36c0,2.5,2,4,4.5,4h29c2.5,0,4.5-1.5,4.5-4V2l-8-8H46.5z"/>
	<path class="st2" d="M72-8H46.5C43.2-8,40-5.3,40-2v36c0,3.3,3.2,6,6.5,6h29c3.3,0,6.5-2.7,6.5-6V2L72-8z"/>
	<path class="st3" d="M80,34c0,2.5-2,4-4.5,4h-29C44,38,42,36.5,42,34V-2c0-2.5,2-4,4.5-4H72l8,8V34z"/>
	<polygon class="st4" points="72,-6 72,2 80,2 	"/>
	<path class="st1" d="M94.8,5c-1.2,0-2.3,0.8-2.3,2v18c0,1.2,1,2,2.3,2h14.5c1.2,0,2.3-0.8,2.3-2V9l-4-4H94.8z"/>
	<path class="st2" d="M107.5,4H94.8c-1.7,0-3.3,1.3-3.3,3v18c0,1.7,1.6,3,3.3,3h14.5c1.7,0,3.3-1.3,3.3-3V9L107.5,4z"/>
	<path class="st3" d="M111.5,25c0,1.2-1,2-2.3,2H94.8c-1.2,0-2.3-0.8-2.3-2V7c0-1.2,1-2,2.3-2h12.8l4,4V25z"/>
	<polygon class="st4" points="107.5,5 107.5,9 111.5,9 	"/>
	<rect y="34" class="st5" width="32" height="32"/>
	<g class="st6">
		<g>
			<g>
				<path class="st7" d="M7,65.5c-1.9,0-3.5-1.6-3.5-3.5V38c0-1.9,1.6-3.5,3.5-3.5h15.2l6.3,6.3V62c0,1.9-1.6,3.5-3.5,3.5H7z"/>
				<path class="st8" d="M22,35l6,6v21c0,1.7-1.3,3-3,3H7c-1.7,0-3-1.3-3-3V38c0-1.7,1.3-3,3-3H22 M22.4,34H22H7c-2.2,0-4,1.8-4,4
					v24c0,2.2,1.8,4,4,4h18c2.2,0,4-1.8,4-4V41v-0.4l-0.3-0.3l-6-6L22.4,34L22.4,34z"/>
			</g>
		</g>
		<polygon class="st9" points="22,35 22,41 28,41 		"/>
		<path class="st9" d="M25.1,52.6c-0.4-0.7-1.9-0.8-3.1-0.8c-0.6,0-1.3,0-2.1,0.1c-0.5-0.3-1.1-0.6-1.5-1c-1.2-1-2.1-2.6-2.6-4.3
			c0.2-1.2,0.2-2.3,0.3-3.4l0-0.5c0-0.1,0-0.1,0-0.1c0,0,0.1-0.1,0.1-0.2c0.1-0.5,0.1-0.9-0.1-1.2c-0.2-0.2-0.5-0.3-0.6-0.2l-0.4,0
			c-0.3,0-0.6,0.2-0.7,0.7c-0.3,1.2-0.2,3.1,0.4,5.1c-0.4,1.3-0.9,2.9-1.9,4.7c-2.1,4.2-3.7,6.5-4.8,6.8c0.2-0.6,1.1-2,2.7-3.1
			c0.1-0.1,0.1-0.2,0.1-0.3c-0.1-0.1-0.2-0.1-0.3-0.1c-2.2,1.2-3.1,2.5-3.3,3.3c0,0.2,0,0.4,0,0.5c0,0,0,0,0,0c0,0,0,0,0,0.1
			c0,0,0,0,0.1,0.1c0,0,0,0,0,0l0.4,0.2C8,59,8.1,59,8.3,59c1,0,2.4-1.5,4.2-4.6c1.9-0.7,4.6-1.3,7-1.5c1.5,0.8,3.2,1.3,4.3,1.3
			c0.9,0,1.1-0.3,1.2-0.6c0,0,0,0,0-0.1c0,0,0.1,0,0.1-0.1C25.3,53,25.2,52.8,25.1,52.6z M24.6,53.2c0,0.1,0.1,0.1,0.1,0.1
			c-0.1,0-0.2,0.1-0.4,0.1c-0.6,0-1.5-0.2-2.5-0.6c0.1,0,0.2,0,0.3,0C24,52.7,24.5,53.1,24.6,53.2z M15.2,41.8c0,0,0-0.1,0.1-0.2
			c0.1,0.1,0.3,0.3,0.3,0.7c0,0,0,0.1,0.1,0.1c0,0-0.1,0.1-0.1,0.2c0,0.2-0.1,0.5-0.1,0.8c0,0.3-0.1,0.7-0.2,1.1
			C15.1,43.3,15.1,42.3,15.2,41.8z M13.8,52c0.7-1.4,1.2-2.6,1.5-3.7c0.6,1.3,1.3,2.4,2.3,3.3c0.2,0.2,0.4,0.3,0.6,0.5
			c-1.7,0.3-3.6,0.8-5.3,1.5C13.3,53.1,13.5,52.6,13.8,52z"/>
		<path class="st8" d="M25.1,51.6c-0.4-0.7-1.9-0.8-3.1-0.8c-0.6,0-1.3,0-2.1,0.1c-0.5-0.3-1.1-0.6-1.5-1c-1.2-1-2.1-2.6-2.6-4.3
			c0.2-1.2,0.2-2.3,0.3-3.4l0-0.5c0-0.1,0-0.1,0-0.1c0,0,0.1-0.1,0.1-0.2c0.1-0.5,0.1-0.9-0.1-1.2C15.8,40,15.5,40,15.4,40L15,40
			c-0.3,0-0.6,0.2-0.7,0.7c-0.3,1.2-0.2,3.1,0.4,5.1c-0.4,1.3-0.9,2.9-1.9,4.7c-2.1,4.2-3.7,6.5-4.8,6.8c0.2-0.6,1.1-2,2.7-3.1
			c0.1-0.1,0.1-0.2,0.1-0.3c-0.1-0.1-0.2-0.1-0.3-0.1c-2.2,1.2-3.1,2.5-3.3,3.3c0,0.2,0,0.4,0,0.5c0,0,0,0,0,0c0,0,0,0,0,0.1
			c0,0,0,0,0.1,0.1c0,0,0,0,0,0l0.4,0.2C8,58,8.1,58.1,8.3,58.1c1,0,2.4-1.5,4.2-4.6c1.9-0.7,4.6-1.3,7-1.5c1.5,0.8,3.2,1.3,4.3,1.3
			c0.9,0,1.1-0.3,1.2-0.6c0,0,0,0,0-0.1c0,0,0.1,0,0.1-0.1C25.3,52.1,25.2,51.8,25.1,51.6z M24.6,52.2c0,0.1,0.1,0.1,0.1,0.1
			c-0.1,0-0.2,0.1-0.4,0.1c-0.6,0-1.5-0.2-2.5-0.6c0.1,0,0.2,0,0.3,0C24,51.8,24.5,52.1,24.6,52.2z M15.2,40.8c0-0.1,0-0.1,0.1-0.2
			c0.1,0.1,0.3,0.3,0.3,0.7c0,0,0,0.1,0.1,0.1c0,0-0.1,0.1-0.1,0.2c0,0.2-0.1,0.5-0.1,0.8c0,0.3-0.1,0.7-0.2,1.1
			C15.1,42.4,15.1,41.4,15.2,40.8z M13.8,51.1c0.7-1.4,1.2-2.6,1.5-3.7c0.6,1.3,1.3,2.4,2.3,3.3c0.2,0.2,0.4,0.3,0.6,0.5
			c-1.7,0.3-3.6,0.8-5.3,1.5C13.3,52.2,13.5,51.6,13.8,51.1z"/>
	</g>
	<g id="fave_icon_-_selected" class="st6">
	</g>
</g>
<g id="Layer_2">
	<path class="st8" d="M7,31.5c-1.9,0-3.5-1.6-3.5-3.5V4c0-1.9,1.6-3.5,3.5-3.5h15.2l6.3,6.3V28c0,1.9-1.6,3.5-3.5,3.5H7z"/>
	<path class="st10" d="M22,1l6,6v21c0,1.7-1.3,3-3,3H7c-1.7,0-3-1.3-3-3V4c0-1.7,1.3-3,3-3H22 M22.4,0H22H7C4.8,0,3,1.8,3,4v24
		c0,2.2,1.8,4,4,4h18c2.2,0,4-1.8,4-4V7V6.6l-0.3-0.3l-6-6L22.4,0L22.4,0z"/>
	<polygon class="st10" points="22,1 22,7 28,7 	"/>
	<path class="st10" d="M25.1,17.6c-0.4-0.7-1.9-0.8-3.1-0.8c-0.6,0-1.3,0-2.1,0.1c-0.5-0.3-1.1-0.6-1.5-1c-1.2-1-2.1-2.6-2.6-4.3
		c0.2-1.2,0.2-2.3,0.3-3.4l0-0.5c0-0.1,0-0.1,0-0.1c0,0,0.1-0.1,0.1-0.2c0.1-0.5,0.1-0.9-0.1-1.2C15.8,6,15.5,6,15.4,6L15,6
		c-0.3,0-0.6,0.2-0.7,0.7c-0.3,1.2-0.2,3.1,0.4,5.1c-0.4,1.3-0.9,2.9-1.9,4.7c-2.1,4.2-3.7,6.5-4.8,6.8c0.2-0.6,1.1-2,2.7-3.1
		c0.1-0.1,0.1-0.2,0.1-0.3c-0.1-0.1-0.2-0.1-0.3-0.1c-2.2,1.2-3.1,2.5-3.3,3.3c0,0.2,0,0.4,0,0.5c0,0,0,0,0,0c0,0,0,0,0,0.1
		c0,0,0,0,0.1,0.1c0,0,0,0,0,0l0.4,0.2C8,24,8.1,24.1,8.3,24.1c1,0,2.4-1.5,4.2-4.6c1.9-0.7,4.6-1.3,7-1.5c1.5,0.8,3.2,1.3,4.3,1.3
		c0.9,0,1.1-0.3,1.2-0.6c0,0,0,0,0-0.1c0,0,0.1,0,0.1-0.1C25.3,18.1,25.2,17.8,25.1,17.6z M24.6,18.2c0,0.1,0.1,0.1,0.1,0.1
		c-0.1,0-0.2,0.1-0.4,0.1c-0.6,0-1.5-0.2-2.5-0.6c0.1,0,0.2,0,0.3,0C24,17.8,24.5,18.1,24.6,18.2z M15.2,6.8c0-0.1,0-0.1,0.1-0.2
		c0.1,0.1,0.3,0.3,0.3,0.7c0,0,0,0.1,0.1,0.1c0,0-0.1,0.1-0.1,0.2c0,0.2-0.1,0.5-0.1,0.8c0,0.3-0.1,0.7-0.2,1.1
		C15.1,8.4,15.1,7.4,15.2,6.8z M13.8,17c0.7-1.4,1.2-2.6,1.5-3.7c0.6,1.3,1.3,2.4,2.3,3.3c0.2,0.2,0.4,0.3,0.6,0.5
		c-1.7,0.3-3.6,0.8-5.3,1.5C13.3,18.2,13.5,17.6,13.8,17z"/>
</g>
</svg>
