<?xml version="1.0" encoding="utf-8"?>
<!-- Generator: Adobe Illustrator 19.1.0, SVG Export Plug-In . SVG Version: 6.00 Build 0)  -->
<!DOCTYPE svg PUBLIC "-//W3C//DTD SVG 1.1//EN" "http://www.w3.org/Graphics/SVG/1.1/DTD/svg11.dtd">
<svg version="1.1" id="Layer_1" xmlns="http://www.w3.org/2000/svg" xmlns:xlink="http://www.w3.org/1999/xlink" x="0px" y="0px"
	 viewBox="0 0 24 24" enable-background="new 0 0 24 24" xml:space="preserve">
<g id="Fit_page_to_window">
	<rect x="1" y="1" fill="#FFFFFF" width="22" height="22"/>
	<path fill="#333333" d="M24,24H0V0h24V24z M1,23h22V1H1V23z"/>
	<polygon fill="#333333" points="21.993,1.875 15.131,1.875 17.708,4.577 14.428,7.857 16.163,9.55 19.422,6.291 21.993,8.738 	"/>
	<polygon fill="#333333" points="2.007,1.875 8.869,1.875 6.292,4.577 9.572,7.857 7.837,9.55 4.578,6.291 2.007,8.869 	"/>
	<polygon fill="#333333" points="21.993,22 15.131,22 17.708,19.423 14.428,16.143 16.163,14.45 19.422,17.709 21.993,15 	"/>
	<polygon fill="#333333" points="2.007,22 8.869,22 6.292,19.423 9.572,16.143 7.837,14.45 4.578,17.709 2.007,15.131 	"/>
</g>
</svg>
