<?xml version="1.0" encoding="utf-8"?>
<!-- Generator: Adobe Illustrator 21.0.2, SVG Export Plug-In . SVG Version: 6.00 Build 0)  -->
<!DOCTYPE svg PUBLIC "-//W3C//DTD SVG 1.1//EN" "http://www.w3.org/Graphics/SVG/1.1/DTD/svg11.dtd">
<svg version="1.1" id="Layer_2" xmlns="http://www.w3.org/2000/svg" xmlns:xlink="http://www.w3.org/1999/xlink" x="0px" y="0px"
	 viewBox="0 0 32 32" style="enable-background:new 0 0 32 32;" xml:space="preserve">
<style type="text/css">
	.st0{fill:#146634;}
	.st1{fill:#FFFFFF;}
	.st2{fill:#70A024;}
	.st3{fill:#569316;}
	.st4{fill:#8CC53E;}
</style>
<g>
	<g>
		<g>
			<path class="st0" d="M1.5,27.5v-21c0-1.1,0.9-2,2-2h7.9c0.5,0,0.9,0.2,1.3,0.5l3.7,3.2c0.2,0.2,0.4,0.3,0.6,0.3h10.5
				c1.1,0,2,0.9,2,2v17H1.5z"/>
			<g>
				<path class="st1" d="M11.4,5c0.4,0,0.7,0.1,1,0.4l3.6,3.2C16.3,8.8,16.6,9,17,9h10.5c0.8,0,1.5,0.7,1.5,1.5V27H2V6.5
					C2,5.7,2.7,5,3.5,5H11.4 M11.4,4H3.5C2.1,4,1,5.1,1,6.5V27v1h1h27h1v-1V10.5C30,9.1,28.9,8,27.5,8H17c0,0-0.1,0-0.3-0.2
					l-3.6-3.2l0,0l0,0C12.6,4.2,12,4,11.4,4L11.4,4z"/>
			</g>
		</g>
	</g>
	<g>
		<path class="st2" d="M3,26h25V12c0-0.6-0.4-1-1-1H4c-0.6,0-1,0.4-1,1V26z"/>
	</g>
	<g>
		<polygon class="st3" points="3,26 28,26 28,13 		"/>
	</g>
</g>
<circle class="st1" cx="754.6" cy="3633.8" r="0.8"/>
<path class="st1" d="M11.4,5c0.4,0,0.7,0.1,1,0.4L16,8.6C16.3,8.8,16.6,9,17,9h10.5c0.8,0,1.5,0.7,1.5,1.5V27H2V6.5
	C2,5.7,2.7,5,3.5,5H11.4 M11.4,4H3.5C2.1,4,1,5.1,1,6.5V28h29V10.5C30,9.1,28.9,8,27.5,8H17c-0.1,0-0.2-0.1-0.3-0.2l-3.6-3.2l0,0
	l0,0C12.6,4.2,12,4,11.4,4L11.4,4L11.4,4z"/>
<path class="st1" d="M27.3,31.2c-1.9,0-3.5-1.1-4.3-2.7h-4.5c-0.8,1.6-2.4,2.7-4.3,2.7c-2.6,0-4.8-2.1-4.8-4.8s2.1-4.8,4.8-4.8
	c0.2,0,0.4,0,0.7,0l1.8-2.7c-0.4-0.7-0.7-1.6-0.7-2.5c0-2.6,2.1-4.8,4.8-4.8s4.8,2.1,4.8,4.8c0,0.9-0.2,1.7-0.7,2.5l1.8,2.7
	c0.2,0,0.5-0.1,0.7-0.1c2.6,0,4.8,2.1,4.8,4.8S30,31.2,27.3,31.2z M23,24.4c0.1-0.1,0.1-0.3,0.2-0.4l-1.8-2.7
	c-0.2,0-0.5,0.1-0.7,0.1c-0.2,0-0.5,0-0.7-0.1L18.3,24c0.1,0.1,0.1,0.2,0.2,0.4H23z"/>
<path class="st4" d="M27.3,23.2c-0.5,0-0.9,0.1-1.3,0.3L23,19c0.6-0.6,1-1.4,1-2.4c0-1.8-1.5-3.3-3.3-3.3s-3.3,1.5-3.3,3.3
	c0,0.9,0.4,1.8,1,2.4l-3,4.4c-0.4-0.2-0.8-0.3-1.3-0.3c-1.8,0-3.3,1.5-3.3,3.3s1.5,3.3,3.3,3.3c1.6,0,3-1.2,3.2-2.7h6.7
	c0.3,1.6,1.6,2.7,3.2,2.7c1.8,0,3.3-1.5,3.3-3.3S29.1,23.2,27.3,23.2z M19.4,19.6c0.4,0.2,0.9,0.3,1.4,0.3c0.5,0,0.9-0.1,1.3-0.3
	l3,4.5c-0.5,0.5-0.9,1.1-1,1.8h-6.7c-0.1-0.7-0.5-1.3-0.9-1.8L19.4,19.6z"/>
</svg>
