<svg id="Layer_1" data-name="Layer 1" xmlns="http://www.w3.org/2000/svg" viewBox="0 0 32 32"><defs><style>.cls-1{fill:#b36601;}.cls-2{fill:#fff;}.cls-3{fill:#e3992e;}.cls-4{fill:#dd8100;}.cls-5{fill:#c95427;}.cls-6{fill:#473d2a;}</style></defs><title>folders</title><path class="cls-1" d="M0.5,18.5V2.176A1.673,1.673,0,0,1,2.167.5H8.309A1.778,1.778,0,0,1,9.4.891L12.253,3.3a0.705,0.705,0,0,0,.413.2h8.167A1.668,1.668,0,0,1,22.5,5.167V18.5H0.5Z"/><path class="cls-2" d="M8.309,1a1.274,1.274,0,0,1,.785.283l2.837,2.395A1.187,1.187,0,0,0,12.667,4h8.167A1.167,1.167,0,0,1,22,5.167V18H1V2.176A1.175,1.175,0,0,1,2.167,1H8.309m0-1H2.167A2.174,2.174,0,0,0,0,2.176V19H23V5.167A2.169,2.169,0,0,0,20.833,3H12.7a1.191,1.191,0,0,1-.15-0.106L9.739,0.519A2.3,2.3,0,0,0,8.309,0h0Z"/><path class="cls-3" d="M2,17H21V7a1,1,0,0,0-1-1H3A1,1,0,0,0,2,7V17Z"/><polygon class="cls-4" points="2 17 21 17 21 7 2 17"/><path class="cls-5" d="M22,32V25.26c0-.648-0.094-1.26-0.743-1.26H18.743C18.094,24,18,24.612,18,25.26V32H13.284C12.458,32,12,31.026,12,30.165V19.048a1.215,1.215,0,0,1,.4-1.111l7.748-4.709,7.524,4.678A1.181,1.181,0,0,1,28,19.041V30.165C28,30.971,27.731,32,26.833,32H22Z"/><path class="cls-2" d="M20.029,13.81L27.6,18.335a0.942,0.942,0,0,1,.4.706V30.165A1.009,1.009,0,0,1,26.833,31H23V25.26c0-.922-0.821-1.26-1.743-1.26H18.743C17.821,24,17,24.338,17,25.26V31H13.284A1.137,1.137,0,0,1,12,30.165V19.049a1,1,0,0,1,.451-0.715l7.578-4.524m0-1.165-0.514.307-7.559,4.524-0.05.03-0.065.035A1.963,1.963,0,0,0,11,19.049V30.165A2.089,2.089,0,0,0,13.284,32H18V25.26c0-.367.376-0.26,0.743-0.26h2.514c0.367,0,.743-0.106.743,0.26V32h4.833A1.991,1.991,0,0,0,29,30.165V19.041a1.929,1.929,0,0,0-.776-1.491l-0.06-.04-0.06-.033-7.559-4.525-0.516-.308h0Z"/><path class="cls-6" d="M9.839,19.3a1.338,1.338,0,0,1-.7-2.478L19.3,10.572a1.336,1.336,0,0,1,1.4,0l10.162,6.252a1.338,1.338,0,1,1-1.4,2.278L20,13.283,10.54,19.1A1.338,1.338,0,0,1,9.839,19.3Z"/><path class="cls-2" d="M20,10.873a0.836,0.836,0,0,1,.439.125L30.6,17.251a0.838,0.838,0,1,1-.878,1.427L20,12.7l-9.723,5.982A0.838,0.838,0,1,1,9.4,17.251L19.561,11A0.836,0.836,0,0,1,20,10.873m0-1a1.835,1.835,0,0,0-.964.274L8.875,16.4A1.838,1.838,0,0,0,10.8,19.53L20,13.87l9.2,5.66A1.838,1.838,0,1,0,31.125,16.4L20.963,10.146A1.834,1.834,0,0,0,20,9.873h0Z"/></svg>