<svg id="Layer_1" data-name="Layer 1" xmlns="http://www.w3.org/2000/svg" viewBox="0 0 32 32"><defs><style>.cls-1{fill:#b36601;}.cls-2{fill:#fff;}.cls-3{fill:#e3992e;}.cls-4{fill:#dd8100;}.cls-5{fill:#999;}.cls-6{fill:#eeb111;}.cls-7{fill:#ff9f00;}</style></defs><title>folders</title><path class="cls-1" d="M0.5,18.5V2.177A1.673,1.673,0,0,1,2.167.5H8.309A1.779,1.779,0,0,1,9.4.891L12.253,3.3a0.711,0.711,0,0,0,.414.2h8.167A1.669,1.669,0,0,1,22.5,5.167V18.5H0.5Z"/><path class="cls-2" d="M8.309,1a1.274,1.274,0,0,1,.785.283l2.837,2.395A1.187,1.187,0,0,0,12.667,4h8.167A1.167,1.167,0,0,1,22,5.167V18H1V2.176A1.175,1.175,0,0,1,2.167,1H8.309m0-1H2.167A2.174,2.174,0,0,0,0,2.176V19H23V5.167A2.169,2.169,0,0,0,20.833,3H12.7a1.191,1.191,0,0,1-.15-0.106L9.739,0.519A2.3,2.3,0,0,0,8.309,0h0Z"/><path class="cls-3" d="M2,17H21V7a1,1,0,0,0-1-1H3A1,1,0,0,0,2,7V17Z"/><polygon class="cls-4" points="2 17 21 17 21 7 2 17"/><path class="cls-5" d="M22.5,32A2.069,2.069,0,0,1,21,30.5V29.642a0.3,0.3,0,0,0,.087-0.095,0.275,0.275,0,0,0-.033-0.1,0.936,0.936,0,0,1-.606-0.8c-0.055-.037-0.1-0.081-0.143-0.1a1.558,1.558,0,0,1-.142-0.1,0.722,0.722,0,0,1-.672-0.7A0.824,0.824,0,0,1,20.5,27h7a0.817,0.817,0,0,1,1,.75,0.854,0.854,0,0,1-.68.822,0.509,0.509,0,0,1-.158.037,1.316,1.316,0,0,0-.174.071,0.982,0.982,0,0,1-.668.782,3.361,3.361,0,0,1-.408.092C26.375,29.575,27,29.606,26,29.642V30.5c0,0.552.051,1.5-.5,1.5h-3Z"/><path class="cls-2" d="M27.25,27a0.624,0.624,0,0,1,.625.5,0.452,0.452,0,0,1-.437.5c0.275,0-.469.225-0.469,0.5a0.488,0.488,0,0,1-.484.5c0.275,0-.484.225-0.484,0.5v1a0.5,0.5,0,0,1-.5.5h-3a0.5,0.5,0,0,1-.5-0.5v-1c0-.275-0.775-0.5-0.5-0.5a0.5,0.5,0,0,1-.5-0.5c0-.275-0.775-0.5-0.5-0.5a0.5,0.5,0,0,1,0-1H27m0.5-1h-7a1.5,1.5,0,0,0-.548,2.9q0.058,0.039.125,0.077a1.508,1.508,0,0,0,.875.923L21,29.928V30.5A1.5,1.5,0,0,0,22.5,32h3A1.5,1.5,0,0,0,27,30.5V29.928l0.048-.032a1.508,1.508,0,0,0,.875-0.923q0.067-.038.125-0.077A1.5,1.5,0,0,0,27.5,26h0Z"/><path class="cls-6" d="M27.778,26.566a3.97,3.97,0,0,1-.464-0.038A2.76,2.76,0,0,0,27,26.5H21c-0.083,0-.185.013-0.291,0.024a4.2,4.2,0,0,1-.471.036,0.777,0.777,0,0,1-.91-0.686,9.037,9.037,0,0,0-1.177-3.663l-0.1-.175a12.251,12.251,0,0,1-.941-1.909,6.974,6.974,0,0,1,.488-5.991,7.381,7.381,0,0,1,5.248-3.446c0.157-.025,1.165-0.05,1.8-0.05a5.263,5.263,0,0,1,1.333.078,7.228,7.228,0,0,1,5.358,6.986,7.314,7.314,0,0,1-.955,3.653l-0.2.357c-0.36.657-.7,1.278-1,1.951a6.757,6.757,0,0,0-.5,2.2,0.788,0.788,0,0,1-.9.7h0Z"/><path class="cls-2" d="M24.653,11.141a7.12,7.12,0,0,1,1.2.059,6.793,6.793,0,0,1,4.1,9.919c-0.428.785-.848,1.527-1.216,2.341a7.391,7.391,0,0,0-.546,2.354,0.327,0.327,0,0,1-.406.251C27.533,26.066,27.226,26,27,26H21c-0.207,0-.513.06-0.762,0.06-0.221,0-.4-0.048-0.412-0.228a9.5,9.5,0,0,0-1.24-3.866,13.165,13.165,0,0,1-1-2.006,6.506,6.506,0,0,1,5.344-8.776c0.086-.014.951-0.044,1.726-0.044m0-1c-0.519,0-1.655.02-1.884,0.057a7.878,7.878,0,0,0-5.6,3.684,7.466,7.466,0,0,0-.53,6.414,12.588,12.588,0,0,0,.975,1.985l0.1,0.178a8.531,8.531,0,0,1,1.114,3.46,1.274,1.274,0,0,0,1.408,1.141,4.907,4.907,0,0,0,.527-0.038A2.346,2.346,0,0,1,21,27h6a2.275,2.275,0,0,1,.253.025,4.524,4.524,0,0,0,.524.041,1.3,1.3,0,0,0,1.4-1.157,6.305,6.305,0,0,1,.462-2.037c0.3-.654.63-1.265,0.985-1.912l0.2-.363a7.793,7.793,0,0,0-4.709-11.361,5.654,5.654,0,0,0-1.462-.1h0Z"/><path class="cls-7" d="M28.183,25.815a7.392,7.392,0,0,1,.546-2.354c0.368-.814.789-1.556,1.216-2.341a6.793,6.793,0,0,0-4.1-9.919,21.584,21.584,0,0,0-2.921-.015C24.5,11.875,28.125,13,28.792,16s-0.833,4.792-1.375,6.083A15.329,15.329,0,0,0,26.753,26H27C27.428,26,28.143,26.236,28.183,25.815Z"/></svg>