<svg id="Layer_1" data-name="Layer 1" xmlns="http://www.w3.org/2000/svg" viewBox="0 0 32 32"><defs><style>.cls-1{fill:#b36601;}.cls-2{fill:#fff;}.cls-3{fill:#e3992e;}.cls-4{fill:#dd8100;}.cls-5{fill:#00a389;}.cls-6{fill:#227247;}</style></defs><title>folders</title><path class="cls-1" d="M0.5,18.5V2.177A1.674,1.674,0,0,1,2.167.5H8.309A1.777,1.777,0,0,1,9.4.891L12.253,3.3a0.709,0.709,0,0,0,.414.2h8.166A1.669,1.669,0,0,1,22.5,5.167V18.5H0.5Z"/><path class="cls-2" d="M8.309,1a1.274,1.274,0,0,1,.785.283l2.837,2.395A1.187,1.187,0,0,0,12.667,4h8.167A1.167,1.167,0,0,1,22,5.167V18H1V2.176A1.175,1.175,0,0,1,2.167,1H8.309m0-1H2.167A2.174,2.174,0,0,0,0,2.176V19H23V5.167A2.169,2.169,0,0,0,20.833,3H12.7a1.2,1.2,0,0,1-.15-0.106L9.739,0.519A2.3,2.3,0,0,0,8.309,0h0Z"/><path class="cls-3" d="M2,17H21V7a1,1,0,0,0-1-1H3A1,1,0,0,0,2,7V17Z"/><polygon class="cls-4" points="2 17 21 17 21 7 2 17"/><g id="Layer_1-2" data-name="Layer 1"><path class="cls-2" d="M30.967,16.227C30.967,20.351,23.5,30.7,23.5,30.7s-7.467-10.35-7.467-14.474A7.467,7.467,0,0,1,30.967,16.227Z"/><path class="cls-2" d="M23.5,32l-0.616-.854c-0.311-.43-7.611-10.6-7.611-14.919a8.227,8.227,0,0,1,16.454,0c0,4.321-7.3,14.489-7.612,14.919Zm0-22.48a6.715,6.715,0,0,0-6.707,6.707c0,2.9,4.386,9.814,6.707,13.158,2.321-3.344,6.707-10.261,6.707-13.158A6.715,6.715,0,0,0,23.5,9.52Z"/><path class="cls-5" d="M30.967,16.227C30.967,20.351,23.5,30.7,23.5,30.7s-7.467-10.35-7.467-14.474A7.467,7.467,0,0,1,30.967,16.227Z"/><circle class="cls-6" cx="23.5" cy="17.59" r="3.305"/><circle class="cls-2" cx="23.5" cy="16.233" r="3.305"/></g><path class="cls-2" d="M23.5,9a7.235,7.235,0,0,1,7.227,7.226c0,3.239-5.04,10.992-7.228,14.062-2.187-3.07-7.227-10.828-7.227-14.062A7.235,7.235,0,0,1,23.5,9m0-1a8.237,8.237,0,0,0-8.227,8.227c0,4.32,7.3,14.489,7.611,14.919L23.5,32l0.615-.854c0.312-.431,7.612-10.6,7.612-14.919A8.236,8.236,0,0,0,23.5,8h0Z"/></svg>