<svg id="Layer_1" data-name="Layer 1" xmlns="http://www.w3.org/2000/svg" viewBox="0 0 32 32"><defs><style>.cls-1{fill:#b36601;}.cls-2{fill:#fff;}.cls-3{fill:#e3992e;}.cls-4{fill:#dd8100;}.cls-5{fill:#41535b;}.cls-6{fill:#00a389;}</style></defs><title>folders</title><path class="cls-1" d="M0.5,18.5V2.177A1.673,1.673,0,0,1,2.167.5H8.309A1.779,1.779,0,0,1,9.4.891L12.253,3.3a0.711,0.711,0,0,0,.414.2h8.167A1.669,1.669,0,0,1,22.5,5.167V18.5H0.5Z"/><path class="cls-2" d="M8.309,1a1.274,1.274,0,0,1,.785.283l2.837,2.395A1.187,1.187,0,0,0,12.667,4h8.167A1.167,1.167,0,0,1,22,5.167V18H1V2.176A1.175,1.175,0,0,1,2.167,1H8.309m0-1H2.167A2.174,2.174,0,0,0,0,2.176V19H23V5.167A2.169,2.169,0,0,0,20.833,3H12.7a1.191,1.191,0,0,1-.15-0.106L9.739,0.519A2.3,2.3,0,0,0,8.309,0h0Z"/><path class="cls-3" d="M2,17H21V7a1,1,0,0,0-1-1H3A1,1,0,0,0,2,7V17Z"/><polygon class="cls-4" points="2 17 21 17 21 7 2 17"/><path class="cls-5" d="M13.5,31.5V11.714a2.111,2.111,0,0,1-.7-1.477A2.2,2.2,0,0,1,15,8a2.173,2.173,0,0,1,1.5,3.711V31.5h-3Z"/><path class="cls-2" d="M15,8.5a1.654,1.654,0,0,1,1.637,1.737A1.732,1.732,0,0,1,16,11.5V31H14V11.5a1.8,1.8,0,0,1-.7-1.263A1.706,1.706,0,0,1,15,8.5m0-1a2.69,2.69,0,0,0-2.7,2.737,2.5,2.5,0,0,0,.7,1.674V32h4V11.9a2.6,2.6,0,0,0,.637-1.663A2.66,2.66,0,0,0,15,7.5h0Z"/><path class="cls-6" d="M30.947,22.9a0.5,0.5,0,0,1-.331-0.124,8.362,8.362,0,0,0-4.729-1.613c-0.208-.013-0.408-0.018-0.6-0.018a10.963,10.963,0,0,0-3.591.673,10.155,10.155,0,0,1-3.249.633,6.1,6.1,0,0,1-1.257-.137C16.95,22.269,17,22.061,17,21.818V11.976c0-.172-0.135-0.332.011-0.424a0.2,0.2,0,0,1,.154-0.076,0.292,0.292,0,0,1,.161.05,3.82,3.82,0,0,0,1.7.432,6.7,6.7,0,0,0,2.672-.782,14.648,14.648,0,0,1,2.382-.88,6.61,6.61,0,0,1,1.608-.192,9.838,9.838,0,0,1,5.321,1.786C31.144,11.982,31,12.137,31,12.3V22.4c0,0.2.108,0.374-.07,0.455C30.864,22.882,31.017,22.9,30.947,22.9Z"/><path class="cls-2" d="M25.709,10.6A10.762,10.762,0,0,1,31,12.3V22.4a8.868,8.868,0,0,0-5.057-1.737c-0.219-.013-0.442-0.019-0.644-0.019-2.978,0-4.387,1.306-6.873,1.306C18,21.947,18,21.908,17,21.818V11.976a5.6,5.6,0,0,0,1.969.481c1.734,0,3.157-1.159,5.224-1.676a6.332,6.332,0,0,1,1.516-.178m-0.026-1a7.139,7.139,0,0,0-1.733.208,15.181,15.181,0,0,0-2.469.906,6.427,6.427,0,0,1-2.485.74,3.44,3.44,0,0,1-1.508-.382,1,1,0,0,0-.435-0.1,1.091,1.091,0,0,0-.558.153,1.026,1.026,0,0,0-.495.847v9.842a1.024,1.024,0,0,0,.851.984,9,9,0,0,0,1.581.144,10.622,10.622,0,0,0,3.407-.656,10.429,10.429,0,0,1,3.443-.65c0.184,0,.376.005,0.574,0.017a7.92,7.92,0,0,1,4.432,1.491,1.01,1.01,0,0,0,.658.244,1.116,1.116,0,0,0,.441-0.09A1.024,1.024,0,0,0,32,22.4V12.3a1.026,1.026,0,0,0-.462-0.825A11.722,11.722,0,0,0,25.683,9.6h0Z"/></svg>