<?xml version="1.0" encoding="utf-8"?>
<!-- Generator: Adobe Illustrator 19.1.0, SVG Export Plug-In . SVG Version: 6.00 Build 0)  -->
<svg version="1.1" id="Layer_1" xmlns="http://www.w3.org/2000/svg" xmlns:xlink="http://www.w3.org/1999/xlink" x="0px" y="0px"
	 viewBox="0 0 48 48" enable-background="new 0 0 48 48" xml:space="preserve">
<path fill="#666666" d="M45.452,18H10.004c-0.835,0-1.579,0.47-1.865,1.239L3.278,32.771l1.367-14.329
	C4.645,17.365,5.534,17,6.63,17h33.718l0.002-0.983c0-1.144-0.941-2.017-2.104-2.017H22.118c-0.536,0-1.055-0.75-1.475-1.076
	l-4.725-3.547C15.498,9.051,14.977,9,14.443,9H2.817C1.656,9,0,9.936,0,11.08V40h40.316h0.033l6.967-19.101
	C47.787,19.628,46.829,18,45.452,18z"/>
</svg>
