<svg id="Layer_1" data-name="Layer 1" xmlns="http://www.w3.org/2000/svg" viewBox="0 0 32 32"><defs><style>.cls-1{fill:#b36601;}.cls-2{fill:#fff;}.cls-3{fill:#e3992e;}.cls-4{fill:#dd8100;}.cls-5{fill:#666;}.cls-6{fill:#275899;}.cls-7{fill:#999;}.cls-8{fill:#00a4d8;}.cls-9{fill:#9370b1;}.cls-10{fill:#c95427;}.cls-11{fill:#227247;}</style></defs><title>folders</title><path class="cls-1" d="M0.5,18.5V2.177A1.673,1.673,0,0,1,2.167.5H8.309A1.779,1.779,0,0,1,9.4.891L12.253,3.3a0.711,0.711,0,0,0,.414.2h8.167A1.669,1.669,0,0,1,22.5,5.167V18.5H0.5Z"/><path class="cls-2" d="M8.309,1a1.274,1.274,0,0,1,.785.283l2.837,2.395A1.187,1.187,0,0,0,12.667,4h8.167A1.167,1.167,0,0,1,22,5.167V18H1V2.176A1.175,1.175,0,0,1,2.167,1H8.309m0-1H2.167A2.174,2.174,0,0,0,0,2.176V19H23V5.167A2.169,2.169,0,0,0,20.833,3H12.7a1.192,1.192,0,0,1-.15-0.106L9.739,0.519A2.3,2.3,0,0,0,8.309,0h0Z"/><path class="cls-3" d="M2,17H21V7a1,1,0,0,0-1-1H3A1,1,0,0,0,2,7V17Z"/><polygon class="cls-4" points="2 17 21 17 21 7 2 17"/><rect class="cls-5" x="6.5" y="11.5" width="25" height="20" rx="1.5" ry="1.5"/><path class="cls-2" d="M30,12a1,1,0,0,1,1,1V30a1,1,0,0,1-1,1H8a1,1,0,0,1-1-1V13a1,1,0,0,1,1-1H30m0-1H8a2,2,0,0,0-2,2V30a2,2,0,0,0,2,2H30a2,2,0,0,0,2-2V13a2,2,0,0,0-2-2h0Z"/><rect class="cls-2" x="8" y="14" width="22" height="16"/><path class="cls-6" d="M30.136,14H8a1.052,1.052,0,0,1-1-1H7a1.052,1.052,0,0,1,1-1H30.136A0.939,0.939,0,0,1,31,13h0A0.939,0.939,0,0,1,30.136,14Z"/><rect class="cls-7" x="10" y="15" width="1" height="14"/><rect class="cls-7" x="10" y="28" width="18" height="1"/><rect class="cls-8" x="13" y="20" width="2" height="8"/><rect class="cls-9" x="17" y="15" width="2" height="13"/><rect class="cls-10" x="21" y="18" width="2" height="10"/><rect class="cls-11" x="25" y="21" width="2" height="7"/></svg>