<svg id="Layer_1" data-name="Layer 1" xmlns="http://www.w3.org/2000/svg" viewBox="0 0 32 32"><defs><style>.cls-1{fill:#b36601;}.cls-2{fill:#fff;}.cls-3{fill:#e3992e;}.cls-4{fill:#dd8100;}.cls-5{fill:#bac9ce;}.cls-6{fill:#7b9ab0;}.cls-7{fill:#dfe7ea;}.cls-8{fill:#fde89a;}.cls-9{fill:#c3e5f6;}.cls-10{fill:#627783;}</style></defs><title>folders</title><path class="cls-1" d="M0.5,18.5V2.176A1.674,1.674,0,0,1,2.167.5H8.309A1.777,1.777,0,0,1,9.4.891L12.253,3.3a0.706,0.706,0,0,0,.414.2h8.166A1.669,1.669,0,0,1,22.5,5.167V18.5H0.5Z"/><path class="cls-2" d="M8.309,1a1.274,1.274,0,0,1,.785.283l2.837,2.395A1.187,1.187,0,0,0,12.667,4h8.167A1.167,1.167,0,0,1,22,5.167V18H1V2.176A1.175,1.175,0,0,1,2.167,1H8.309m0-1H2.167A2.174,2.174,0,0,0,0,2.176V19H23V5.167A2.169,2.169,0,0,0,20.833,3H12.7a1.194,1.194,0,0,1-.15-0.106L9.739,0.519A2.3,2.3,0,0,0,8.309,0h0Z"/><path class="cls-3" d="M2,17H21V7a1,1,0,0,0-1-1H3A1,1,0,0,0,2,7V17Z"/><polygon class="cls-4" points="2 17 21 17 21 7 2 17"/><path class="cls-5" d="M20,30.8A10.8,10.8,0,1,1,30.8,20,10.812,10.812,0,0,1,20,30.8Z"/><path class="cls-6" d="M20,9.6A10.4,10.4,0,1,1,9.6,20,10.412,10.412,0,0,1,20,9.6m0-.8A11.2,11.2,0,1,0,31.2,20,11.2,11.2,0,0,0,20,8.8h0Z"/><path class="cls-2" d="M20,9.8c6.186,0,10.2,4.014,10.2,10.2S26.186,30.2,20,30.2,9.8,26.186,9.8,20,13.814,9.8,20,9.8M20,8A12,12,0,1,0,32,20,12.014,12.014,0,0,0,20,8h0Z"/><polygon class="cls-7" points="20 20 20 20 20 20 20 20"/><rect class="cls-6" x="20" y="20"/><path class="cls-2" d="M30.808,17.1A11.182,11.182,0,0,0,27.92,12.08L20,20Z"/><polygon class="cls-7" points="20 20 20 20 20 20 20 20"/><rect class="cls-6" x="20" y="20"/><path class="cls-2" d="M20,20h0L9.192,22.9A11.183,11.183,0,0,0,12.08,27.92L20,20h0Z"/><path class="cls-8" d="M12.406,27.594a10.723,10.723,0,0,0,4.817,2.77L20,20Z"/><path class="cls-9" d="M20,20l7.656-7.656A10.81,10.81,0,0,0,22.8,9.551L20,20h0Z"/><circle class="cls-10" cx="20" cy="20" r="3.2"/><circle class="cls-6" cx="20" cy="20" r="1.2"/><path class="cls-2" d="M20,19.2a0.8,0.8,0,1,1-.8.8,0.8,0.8,0,0,1,.8-0.8m0-.8A1.6,1.6,0,1,0,21.6,20,1.6,1.6,0,0,0,20,18.4h0Z"/><path class="cls-2" d="M20,10.343A9.657,9.657,0,1,1,10.343,20,9.668,9.668,0,0,1,20,10.343M20,9.6A10.4,10.4,0,1,0,30.4,20,10.4,10.4,0,0,0,20,9.6h0Z"/><path class="cls-10" d="M20,9.786A10.214,10.214,0,1,1,9.786,20,10.226,10.226,0,0,1,20,9.786M20,9A11,11,0,1,0,31,20,11,11,0,0,0,20,9h0Z"/></svg>