<svg id="Layer_1" data-name="Layer 1" xmlns="http://www.w3.org/2000/svg" viewBox="0 0 32 32"><defs><style>.cls-1{fill:#b36601;}.cls-2{fill:#fff;}.cls-3{fill:#e3992e;}.cls-4{fill:#dd8100;}.cls-5{fill:#0b5d98;}.cls-6{fill:#231f20;}</style></defs><title>folders</title><path class="cls-1" d="M0.5,18.5V2.177A1.673,1.673,0,0,1,2.167.5H8.309A1.779,1.779,0,0,1,9.4.891L12.253,3.3a0.711,0.711,0,0,0,.414.2h8.167A1.669,1.669,0,0,1,22.5,5.167V18.5H0.5Z"/><path class="cls-2" d="M8.309,1a1.274,1.274,0,0,1,.785.283l2.837,2.395A1.187,1.187,0,0,0,12.667,4h8.167A1.167,1.167,0,0,1,22,5.167V18H1V2.176A1.175,1.175,0,0,1,2.167,1H8.309m0-1H2.167A2.174,2.174,0,0,0,0,2.176V19H23V5.167A2.169,2.169,0,0,0,20.833,3H12.7a1.2,1.2,0,0,1-.15-0.106L9.739,0.519A2.3,2.3,0,0,0,8.309,0h0Z"/><path class="cls-3" d="M2,17H21V7a1,1,0,0,0-1-1H3A1,1,0,0,0,2,7V17Z"/><polygon class="cls-4" points="2 17 21 17 21 7 2 17"/><g id="edit_icon" data-name="edit icon"><path class="cls-5" d="M14,31.5A1.5,1.5,0,0,1,12.5,30V18A1.5,1.5,0,0,1,14,16.5h0.5V13.7a7.21,7.21,0,0,1,7.2-7.2h0.6a7.21,7.21,0,0,1,7.2,7.2v2.8H30A1.5,1.5,0,0,1,31.5,18V30A1.5,1.5,0,0,1,30,31.5H14Zm12.5-15V13.7a4.207,4.207,0,0,0-4.2-4.2H21.7a4.207,4.207,0,0,0-4.2,4.2v2.8h9Z"/><path class="cls-2" d="M22.3,7A6.722,6.722,0,0,1,29,13.7V17h1a1,1,0,0,1,1,1V30a1,1,0,0,1-1,1H14a1,1,0,0,1-1-1V18a1,1,0,0,1,1-1h1V13.7A6.722,6.722,0,0,1,21.7,7h0.6M17,17H27V13.7A4.707,4.707,0,0,0,22.3,9H21.7A4.707,4.707,0,0,0,17,13.7V17M22.3,6H21.7A7.711,7.711,0,0,0,14,13.7V16a2,2,0,0,0-2,2V30a2,2,0,0,0,2,2H30a2,2,0,0,0,2-2V18a2,2,0,0,0-2-2V13.7A7.711,7.711,0,0,0,22.3,6h0ZM18,16V13.7A3.706,3.706,0,0,1,21.7,10h0.6A3.706,3.706,0,0,1,26,13.7V16H18Z"/><path class="cls-6" d="M24.746,29l-1.8-4.774a2.561,2.561,0,1,0-1.889,0L19.254,29h5.492Z"/></g></svg>