<svg id="Layer_1" data-name="Layer 1" xmlns="http://www.w3.org/2000/svg" viewBox="0 0 32 32"><defs><style>.cls-1{fill:#b36601;}.cls-2,.cls-8{fill:#fff;}.cls-3{fill:#e3992e;}.cls-4{fill:#dd8100;}.cls-5{fill:#666;}.cls-6{fill:#0072aa;}.cls-7{fill:#999;}.cls-8{stroke:#666;stroke-miterlimit:10;}.cls-9{fill:#262626;}.cls-10{fill:#275899;}</style></defs><title>folders</title><path class="cls-1" d="M0.5,18.5V2.176A1.673,1.673,0,0,1,2.167.5H8.309A1.778,1.778,0,0,1,9.4.891L12.253,3.3a0.705,0.705,0,0,0,.413.2h8.167A1.668,1.668,0,0,1,22.5,5.167V18.5H0.5Z"/><path class="cls-2" d="M8.309,1a1.274,1.274,0,0,1,.785.283l2.837,2.395A1.187,1.187,0,0,0,12.667,4h8.167A1.167,1.167,0,0,1,22,5.167V18H1V2.176A1.175,1.175,0,0,1,2.167,1H8.309m0-1H2.167A2.174,2.174,0,0,0,0,2.176V19H23V5.167A2.169,2.169,0,0,0,20.833,3H12.7a1.192,1.192,0,0,1-.15-0.106L9.739,0.519A2.3,2.3,0,0,0,8.309,0h0Z"/><path class="cls-3" d="M2,17H21V7a1,1,0,0,0-1-1H3A1,1,0,0,0,2,7V17Z"/><polygon class="cls-4" points="2 17 21 17 21 7 2 17"/><rect class="cls-5" x="6.5" y="11.5" width="25" height="20" rx="1.5" ry="1.5"/><path class="cls-2" d="M30,12a1,1,0,0,1,1,1V30a1,1,0,0,1-1,1H8a1,1,0,0,1-1-1V13a1,1,0,0,1,1-1H30m0-1H8a2,2,0,0,0-2,2V30a2,2,0,0,0,2,2H30a2,2,0,0,0,2-2V13a2,2,0,0,0-2-2h0Z"/><rect class="cls-2" x="8" y="14" width="22" height="16"/><rect class="cls-6" x="14" y="15" width="15" height="5"/><path class="cls-7" d="M28,22v6H15V22H27m2-1H14v8H29V21Z"/><line class="cls-8" x1="12.5" y1="14" x2="12.5" y2="30"/><path class="cls-9" d="M10.771,20H9.229c-0.037,0-.067-0.027-0.067-0.5s0.03-.5.067-0.5h1.542c0.037,0,.067.027,0.067,0.5S10.808,20,10.771,20Z"/><path class="cls-9" d="M10.771,26H9.229c-0.037,0-.067-0.027-0.067-0.5s0.03-.5.067-0.5h1.542c0.037,0,.067.027,0.067,0.5S10.808,26,10.771,26Z"/><path class="cls-9" d="M10.771,23H9.229c-0.037,0-.067-0.027-0.067-0.5s0.03-.5.067-0.5h1.542c0.037,0,.067.027,0.067,0.5S10.808,23,10.771,23Z"/><path class="cls-9" d="M10.771,17H9.229c-0.037,0-.067-0.027-0.067-0.5s0.03-.5.067-0.5h1.542c0.037,0,.067.027,0.067,0.5S10.808,17,10.771,17Z"/><path class="cls-10" d="M30.136,14H8a1.052,1.052,0,0,1-1-1H7a1.052,1.052,0,0,1,1-1H30.136A0.939,0.939,0,0,1,31,13h0A0.939,0.939,0,0,1,30.136,14Z"/></svg>