<svg id="Layer_1" data-name="Layer 1" xmlns="http://www.w3.org/2000/svg" viewBox="0 0 32 32"><defs><style>.cls-1{fill:#b36601;}.cls-2{fill:#fff;}.cls-3{fill:#e3992e;}.cls-4{fill:#dd8100;}.cls-5{fill:#5a5b5e;}.cls-6{fill:#0f725a;}</style></defs><title>folders</title><path class="cls-1" d="M0.5,18.5V2.176A1.673,1.673,0,0,1,2.167.5H8.309A1.778,1.778,0,0,1,9.4.891L12.253,3.3a0.705,0.705,0,0,0,.413.2h8.167A1.668,1.668,0,0,1,22.5,5.167V18.5H0.5Z"/><path class="cls-2" d="M8.309,1a1.274,1.274,0,0,1,.785.283l2.837,2.395A1.187,1.187,0,0,0,12.667,4h8.167A1.167,1.167,0,0,1,22,5.167V18H1V2.176A1.175,1.175,0,0,1,2.167,1H8.309m0-1H2.167A2.174,2.174,0,0,0,0,2.176V19H23V5.167A2.169,2.169,0,0,0,20.833,3H12.7a1.192,1.192,0,0,1-.15-0.106L9.739,0.519A2.3,2.3,0,0,0,8.309,0h0Z"/><path class="cls-3" d="M2,17H21V7a1,1,0,0,0-1-1H3A1,1,0,0,0,2,7V17Z"/><polygon class="cls-4" points="2 17 21 17 21 7 2 17"/><path class="cls-2" d="M11.94,9h15.12A3.939,3.939,0,0,1,31,12.939V28.06A3.94,3.94,0,0,1,27.06,32H11.939A3.939,3.939,0,0,1,8,28.061V12.94A3.94,3.94,0,0,1,11.94,9Z"/><path class="cls-2" d="M27.78,9A3.262,3.262,0,0,1,31,12.44V27.56A3.443,3.443,0,0,1,27.561,31H12.44A3.444,3.444,0,0,1,9,27.56V12.44A3.444,3.444,0,0,1,12.44,9H28M27.561,8H12.44A4.445,4.445,0,0,0,8,12.44V27.56A4.446,4.446,0,0,0,12.44,32H27.561A4.444,4.444,0,0,0,32,27.56V12.44A4.445,4.445,0,0,0,27.561,8h0Z"/><g id="Layer_3" data-name="Layer 3"><path class="cls-2" d="M30,26.7A3.3,3.3,0,0,1,26.7,30H12.3A3.3,3.3,0,0,1,9,26.7V12.3A3.3,3.3,0,0,1,12.3,9H26.7A3.3,3.3,0,0,1,30,12.3V26.7Z"/><path class="cls-5" d="M27.081,9.958A2.876,2.876,0,0,1,30,12.754V27.246A2.7,2.7,0,0,1,27.245,30H12.755A2.7,2.7,0,0,1,10,27.245V12.754A2.7,2.7,0,0,1,12.755,10H27m0.245-1H12.755A3.754,3.754,0,0,0,9,12.754V27.246A3.755,3.755,0,0,0,12.755,31H27.246A3.755,3.755,0,0,0,31,27.245V12.754A3.754,3.754,0,0,0,27.245,9h0Z"/><path class="cls-6" d="M13.583,14.833l-1.162-1.161a0.346,0.346,0,0,1,.489-0.489l0.672,0.672,1.588-1.588a0.346,0.346,0,0,1,.489.489Z"/><path class="cls-6" d="M13.583,20.833l-1.162-1.162a0.346,0.346,0,0,1,.489-0.489l0.672,0.672,1.588-1.588a0.346,0.346,0,0,1,.489.489Z"/><path class="cls-6" d="M13.583,26.834l-1.162-1.162a0.346,0.346,0,0,1,.489-0.489l0.672,0.672,1.588-1.589a0.346,0.346,0,0,1,.489.489Z"/><path class="cls-5" d="M27.508,14h-8.25a0.534,0.534,0,0,1,0-1h8.25A0.534,0.534,0,0,1,27.508,14Z"/><path class="cls-5" d="M27.508,20h-8.25a0.534,0.534,0,0,1,0-1h8.25A0.534,0.534,0,0,1,27.508,20Z"/><path class="cls-5" d="M27.508,26h-8.25a0.534,0.534,0,0,1,0-1h8.25A0.534,0.534,0,0,1,27.508,26Z"/></g></svg>