<svg id="Layer_1" data-name="Layer 1" xmlns="http://www.w3.org/2000/svg" viewBox="0 0 32 32"><defs><style>.cls-1{fill:#b36601;}.cls-2{fill:#fff;}.cls-3{fill:#e3992e;}.cls-4{fill:#dd8100;}.cls-5{fill:#fdba24;}.cls-6{fill:#f48c17;}.cls-7{fill:#323133;}</style></defs><title>folders</title><path class="cls-1" d="M0.5,18.5V2.176A1.674,1.674,0,0,1,2.167.5H8.309A1.777,1.777,0,0,1,9.4.891L12.253,3.3a0.706,0.706,0,0,0,.414.2h8.166A1.669,1.669,0,0,1,22.5,5.167V18.5H0.5Z"/><path class="cls-2" d="M8.309,1a1.274,1.274,0,0,1,.785.283l2.837,2.395A1.187,1.187,0,0,0,12.667,4h8.167A1.167,1.167,0,0,1,22,5.167V18H1V2.176A1.175,1.175,0,0,1,2.167,1H8.309m0-1H2.167A2.174,2.174,0,0,0,0,2.176V19H23V5.167A2.169,2.169,0,0,0,20.833,3H12.7a1.194,1.194,0,0,1-.15-0.106L9.739,0.519A2.3,2.3,0,0,0,8.309,0h0Z"/><path class="cls-3" d="M2,17H21V7a1,1,0,0,0-1-1H3A1,1,0,0,0,2,7V17Z"/><polygon class="cls-4" points="2 17 21 17 21 7 2 17"/><g id="Layer_5" data-name="Layer 5"><g id="Inherit_icon" data-name="Inherit icon"><g id="_Group_" data-name="&lt;Group&gt;"><path class="cls-5" d="M20,31.5A11.5,11.5,0,1,1,31.5,20,11.513,11.513,0,0,1,20,31.5Z"/><path class="cls-2" d="M20,9A11,11,0,1,1,9,20,11.013,11.013,0,0,1,20,9m0-1A12,12,0,1,0,32,20,12.014,12.014,0,0,0,20,8h0Z"/><path class="cls-6" d="M20,10.571A9.429,9.429,0,1,1,10.571,20,9.44,9.44,0,0,1,20,10.571M20,9A11,11,0,0,0,9,20H9a11,11,0,0,0,22,0h0A11,11,0,0,0,20,9h0Z"/><path class="cls-7" d="M19,25a1,1,0,1,1,1,1.048A1.025,1.025,0,0,1,19,25Z"/><path class="cls-7" d="M19,21V14a1.025,1.025,0,0,1,1-1.048h0A1.025,1.025,0,0,1,21,14v7a1.025,1.025,0,0,1-1,1.048h0A1.024,1.024,0,0,1,19,21Z"/><path class="cls-7" d="M19,25a1,1,0,1,1,1,1.048A1.025,1.025,0,0,1,19,25Z"/></g></g></g></svg>