<svg id="Layer_1" data-name="Layer 1" xmlns="http://www.w3.org/2000/svg" viewBox="0 0 32 32"><defs><style>.cls-1{fill:#b36601;}.cls-2{fill:#fff;}.cls-3{fill:#e3992e;}.cls-4{fill:#dd8100;}.cls-5{fill:#00a389;}.cls-6{fill:#6d4499;}</style></defs><title>folders</title><path class="cls-1" d="M0.5,18.5V2.176A1.673,1.673,0,0,1,2.167.5H8.309A1.778,1.778,0,0,1,9.4.891L12.253,3.3a0.705,0.705,0,0,0,.413.2h8.167A1.669,1.669,0,0,1,22.5,5.167V18.5H0.5Z"/><path class="cls-2" d="M8.309,1a1.274,1.274,0,0,1,.785.283l2.837,2.395A1.187,1.187,0,0,0,12.667,4h8.167A1.167,1.167,0,0,1,22,5.167V18H1V2.176A1.175,1.175,0,0,1,2.167,1H8.309m0-1H2.167A2.174,2.174,0,0,0,0,2.176V19H23V5.167A2.169,2.169,0,0,0,20.833,3H12.7a1.194,1.194,0,0,1-.15-0.106L9.739,0.519A2.3,2.3,0,0,0,8.309,0h0Z"/><path class="cls-3" d="M2,17H21V7a1,1,0,0,0-1-1H3A1,1,0,0,0,2,7V17Z"/><polygon class="cls-4" points="2 17 21 17 21 7 2 17"/><g id="Layer_3" data-name="Layer 3"><path class="cls-5" d="M31.459,28.222a9.172,9.172,0,0,0-.413-2.407,2.667,2.667,0,0,0-1.578-1.688,10.375,10.375,0,0,0-2.338-.639,8.117,8.117,0,0,1-1.636-.419,1.631,1.631,0,0,1-.587-0.447,2.068,2.068,0,0,1-.243-0.368,4.425,4.425,0,0,0,.939-1.075,6.316,6.316,0,0,0,.8-2.061,0.944,0.944,0,0,0,.484-0.384,2.158,2.158,0,0,0,.335-0.844,1.841,1.841,0,0,0-.139-1.206c0.016-.061.03-0.123,0.043-0.187a5.571,5.571,0,0,0,.079-1.375,8.957,8.957,0,0,0-.235-1.6,3.79,3.79,0,0,0-1.53-2.048,5.66,5.66,0,0,0-6.349,0,3.784,3.784,0,0,0-1.53,2.047,8.935,8.935,0,0,0-.239,1.6A5.632,5.632,0,0,0,17.4,16.5c0.012,0.062.026,0.122,0.041,0.182a1.831,1.831,0,0,0-.142,1.21,2.153,2.153,0,0,0,.337.847,0.932,0.932,0,0,0,.487.383,6.311,6.311,0,0,0,.8,2.06,4.434,4.434,0,0,0,.943,1.078,1.982,1.982,0,0,1-.241.365,1.642,1.642,0,0,1-.587.447,8.117,8.117,0,0,1-1.636.419,10.428,10.428,0,0,0-2.338.639,2.665,2.665,0,0,0-1.578,1.688,9.075,9.075,0,0,0-.411,2.374,1.914,1.914,0,0,0-.054.436v0.93c0,0.014,0,.027,0,0.04a1.952,1.952,0,0,0,1.944,1.908H29.555A1.954,1.954,0,0,0,31.5,29.557V28.625A1.921,1.921,0,0,0,31.459,28.222Z"/><path class="cls-2" d="M29.554,32H14.966a2.458,2.458,0,0,1-2.442-2.394l0-.981a2.422,2.422,0,0,1,.066-0.547,9.058,9.058,0,0,1,.419-2.4,3.176,3.176,0,0,1,1.848-2A10.731,10.731,0,0,1,17.291,23a7.88,7.88,0,0,0,1.538-.388,1.135,1.135,0,0,0,.381-0.277,5.071,5.071,0,0,1-.713-0.893,6.657,6.657,0,0,1-.807-1.977,1.61,1.61,0,0,1-.461-0.441,2.659,2.659,0,0,1-.422-1.05,2.465,2.465,0,0,1,.107-1.358l0-.021a6.135,6.135,0,0,1-.085-1.5,9.3,9.3,0,0,1,.255-1.709A4.282,4.282,0,0,1,18.8,11.065a6.161,6.161,0,0,1,6.926,0A4.286,4.286,0,0,1,27.451,13.4a9.371,9.371,0,0,1,.249,1.7,6.1,6.1,0,0,1-.088,1.5l-0.006.031a2.468,2.468,0,0,1,.1,1.353,2.616,2.616,0,0,1-.419,1.044,1.584,1.584,0,0,1-.458.443,6.661,6.661,0,0,1-.809,1.979,4.961,4.961,0,0,1-.71.891,1.132,1.132,0,0,0,.384.28A7.691,7.691,0,0,0,27.2,23a10.8,10.8,0,0,1,2.471.68,3.17,3.17,0,0,1,1.847,2,9.516,9.516,0,0,1,.43,2.481,2.358,2.358,0,0,1,.048.47v0.931A2.448,2.448,0,0,1,29.554,32Zm-7.29-21.006a4.923,4.923,0,0,0-2.887.882,3.3,3.3,0,0,0-1.336,1.763,8.42,8.42,0,0,0-.225,1.511,5.19,5.19,0,0,0,.068,1.253l0.084,0.354-0.1.175a1.34,1.34,0,0,0-.081.87,1.658,1.658,0,0,0,.253.648,0.478,0.478,0,0,0,.216.191l0.289,0.081,0.063,0.294a5.838,5.838,0,0,0,.732,1.9,3.961,3.961,0,0,0,.837.958l0.312,0.256-0.187.358a2.508,2.508,0,0,1-.3.453,2.127,2.127,0,0,1-.765.581,8.245,8.245,0,0,1-1.727.45,10.136,10.136,0,0,0-2.241.606,2.17,2.17,0,0,0-1.31,1.376,8.674,8.674,0,0,0-.393,2.268,2.053,2.053,0,0,0-.053.4v0.931a1.47,1.47,0,0,0,1.452,1.451H29.551A1.453,1.453,0,0,0,31,29.554V28.625a1.461,1.461,0,0,0-.032-0.3l-0.011-.071a8.722,8.722,0,0,0-.394-2.3,2.176,2.176,0,0,0-1.309-1.376,9.9,9.9,0,0,0-2.215-.6,8.429,8.429,0,0,1-1.754-.456,2.132,2.132,0,0,1-.764-0.58,2.635,2.635,0,0,1-.3-0.458l-0.184-.36,0.312-.255a3.9,3.9,0,0,0,.833-0.955,5.816,5.816,0,0,0,.733-1.9l0.062-.292,0.287-.082a0.484,0.484,0,0,0,.216-0.192,1.682,1.682,0,0,0,.251-0.645,1.347,1.347,0,0,0-.08-0.869l-0.1-.176,0.086-.357a5.158,5.158,0,0,0,.071-1.254,8.463,8.463,0,0,0-.221-1.5,3.282,3.282,0,0,0-1.337-1.768A4.9,4.9,0,0,0,22.264,10.994Z"/><path class="cls-6" d="M19.559,28.222a9.172,9.172,0,0,0-.413-2.407,2.667,2.667,0,0,0-1.578-1.688,10.375,10.375,0,0,0-2.338-.639,8.117,8.117,0,0,1-1.636-.419,1.631,1.631,0,0,1-.587-0.447,2.068,2.068,0,0,1-.243-0.368,4.425,4.425,0,0,0,.939-1.075,6.316,6.316,0,0,0,.8-2.061,0.944,0.944,0,0,0,.484-0.384,2.158,2.158,0,0,0,.335-0.844,1.841,1.841,0,0,0-.139-1.206c0.016-.061.03-0.123,0.043-0.187a5.571,5.571,0,0,0,.079-1.375,8.957,8.957,0,0,0-.235-1.6,3.79,3.79,0,0,0-1.53-2.048,5.417,5.417,0,0,0-3.174-.974,5.423,5.423,0,0,0-3.175.974,3.784,3.784,0,0,0-1.53,2.047,8.935,8.935,0,0,0-.239,1.6A5.627,5.627,0,0,0,5.5,16.5c0.012,0.062.026,0.122,0.041,0.182a1.831,1.831,0,0,0-.142,1.21,2.153,2.153,0,0,0,.337.847,0.932,0.932,0,0,0,.487.383,6.311,6.311,0,0,0,.8,2.06,4.434,4.434,0,0,0,.943,1.078,1.982,1.982,0,0,1-.241.365,1.642,1.642,0,0,1-.587.447,8.117,8.117,0,0,1-1.636.419,10.427,10.427,0,0,0-2.338.639,2.665,2.665,0,0,0-1.578,1.688,9.075,9.075,0,0,0-.411,2.374,1.914,1.914,0,0,0-.054.436v0.93c0,0.014,0,.027,0,0.04A1.952,1.952,0,0,0,3.065,31.5H17.654A1.954,1.954,0,0,0,19.6,29.556V28.625A1.921,1.921,0,0,0,19.559,28.222Z"/><path class="cls-2" d="M17.654,32H3.066A2.456,2.456,0,0,1,.625,29.6l0-.98a2.379,2.379,0,0,1,.068-0.55,8.911,8.911,0,0,1,.417-2.4,3.176,3.176,0,0,1,1.848-2A10.731,10.731,0,0,1,5.39,23a7.979,7.979,0,0,0,1.539-.388,1.152,1.152,0,0,0,.38-0.277A5.033,5.033,0,0,1,6.6,21.443a6.645,6.645,0,0,1-.807-1.976,1.61,1.61,0,0,1-.461-0.441,2.659,2.659,0,0,1-.422-1.05,2.465,2.465,0,0,1,.107-1.358l0-.022a6.135,6.135,0,0,1-.085-1.5A9.342,9.342,0,0,1,5.177,13.4,4.285,4.285,0,0,1,6.9,11.064,5.92,5.92,0,0,1,10.363,10a5.9,5.9,0,0,1,3.463,1.065A4.275,4.275,0,0,1,15.549,13.4h0a9.332,9.332,0,0,1,.249,1.7,6.081,6.081,0,0,1-.088,1.5l-0.006.031a2.474,2.474,0,0,1,.105,1.352,2.647,2.647,0,0,1-.42,1.045,1.584,1.584,0,0,1-.458.443,6.706,6.706,0,0,1-.807,1.978,5.118,5.118,0,0,1-.711.892,1.119,1.119,0,0,0,.383.28A7.691,7.691,0,0,0,15.3,23a10.8,10.8,0,0,1,2.471.68,3.17,3.17,0,0,1,1.847,2,9.535,9.535,0,0,1,.431,2.482,2.445,2.445,0,0,1,.047.469v0.931A2.445,2.445,0,0,1,17.654,32ZM10.363,10.994a4.923,4.923,0,0,0-2.887.882A3.3,3.3,0,0,0,6.14,13.639a8.551,8.551,0,0,0-.225,1.511A5.19,5.19,0,0,0,5.983,16.4l0.084,0.354-0.1.175a1.34,1.34,0,0,0-.081.87,1.658,1.658,0,0,0,.253.648,0.478,0.478,0,0,0,.216.191L6.642,18.72,6.7,19.014a5.814,5.814,0,0,0,.732,1.9,3.926,3.926,0,0,0,.837.959l0.312,0.256L8.4,22.487a2.607,2.607,0,0,1-.3.451,2.153,2.153,0,0,1-.766.583,8.355,8.355,0,0,1-1.724.45,10.112,10.112,0,0,0-2.245.606,2.17,2.17,0,0,0-1.31,1.376,8.607,8.607,0,0,0-.392,2.267,2.013,2.013,0,0,0-.054.4v0.931a1.47,1.47,0,0,0,1.452,1.451H17.652A1.453,1.453,0,0,0,19.1,29.554V28.625a1.5,1.5,0,0,0-.032-0.3l-0.01-.067a8.753,8.753,0,0,0-.395-2.3,2.176,2.176,0,0,0-1.309-1.376,9.9,9.9,0,0,0-2.215-.6,8.429,8.429,0,0,1-1.754-.456,2.132,2.132,0,0,1-.764-0.58,2.515,2.515,0,0,1-.3-0.461l-0.184-.357,0.31-.254a3.949,3.949,0,0,0,.835-0.956,5.845,5.845,0,0,0,.731-1.9l0.062-.292,0.287-.082a0.484,0.484,0,0,0,.216-0.192A1.673,1.673,0,0,0,14.83,17.8a1.349,1.349,0,0,0-.081-0.867l-0.1-.176,0.086-.357a5.126,5.126,0,0,0,.071-1.253,8.657,8.657,0,0,0-.219-1.5,3.29,3.29,0,0,0-1.339-1.772A4.887,4.887,0,0,0,10.363,10.994Z"/></g></svg>