<svg id="Layer_1" data-name="Layer 1" xmlns="http://www.w3.org/2000/svg" viewBox="0 0 32 32"><defs><style>.cls-1{fill:#b36601;}.cls-2{fill:#fff;}.cls-3{fill:#e3992e;}.cls-4{fill:#dd8100;}.cls-5{fill:#262626;}.cls-6{fill:#004a70;}</style></defs><title>folders</title><path class="cls-1" d="M0.5,18.5V2.177A1.673,1.673,0,0,1,2.167.5H8.309A1.779,1.779,0,0,1,9.4.891L12.253,3.3a0.711,0.711,0,0,0,.414.2h8.167A1.669,1.669,0,0,1,22.5,5.167V18.5H0.5Z"/><path class="cls-2" d="M8.309,1a1.274,1.274,0,0,1,.785.283l2.837,2.395A1.187,1.187,0,0,0,12.667,4h8.167A1.167,1.167,0,0,1,22,5.167V18H1V2.176A1.175,1.175,0,0,1,2.167,1H8.309m0-1H2.167A2.174,2.174,0,0,0,0,2.176V19H23V5.167A2.169,2.169,0,0,0,20.833,3H12.7a1.2,1.2,0,0,1-.15-0.106L9.739,0.519A2.3,2.3,0,0,0,8.309,0h0Z"/><path class="cls-3" d="M2,17H21V7a1,1,0,0,0-1-1H3A1,1,0,0,0,2,7V17Z"/><polygon class="cls-4" points="2 17 21 17 21 7 2 17"/><path class="cls-5" d="M25.516,31.5c-2.845,0-6.016-2.122-6.016-5.167V7.667C19.5,4.479,20.841,2.5,23,2.5h2c2.159,0,3.5,1.979,3.5,5.167V25a2.742,2.742,0,0,1-3,2.5,2.742,2.742,0,0,1-3-2.5V16a1.039,1.039,0,0,1,1.01-1.108A1.019,1.019,0,0,1,24.5,16v9a1.25,1.25,0,0,0,2,0V7.667C26.5,5.861,25.855,4.5,25,4.5H23c-0.855,0-1.5,1.361-1.5,3.167V26.333c0,1.754,2.188,3.167,4,3.167,1.763,0,4-1.569,4-3.333V11a0.98,0.98,0,0,1,.944-1.108A1.084,1.084,0,0,1,31.5,11V26.167C31.5,29.22,28.34,31.5,25.516,31.5Z"/><path class="cls-2" d="M25,3c2,0,3,2.011,3,4.667V25a2.248,2.248,0,0,1-2.5,2A2.248,2.248,0,0,1,23,25V16a0.549,0.549,0,0,1,.51-0.608A0.534,0.534,0,0,1,24,16v9c0,0.649.906,1,1.5,1s1.5-.351,1.5-1V7.667C27,5.7,26.255,4,25,4H23c-1.255,0-2,1.7-2,3.667V26.333C21,28.459,23.557,30,25.5,30S30,28.292,30,26.167V11a0.5,0.5,0,0,1,.444-0.608A0.584,0.584,0,0,1,31,11V26.167C31,28.963,28.073,31,25.515,31S20,29.13,20,26.333V7.667C20,5.011,20.979,3,23,3h2m0-1H23c-2.467,0-4,2.171-4,5.667V26.333C19,29.07,21.618,32,25.515,32,28.583,32,32,29.6,32,26.167V11a1.585,1.585,0,0,0-1.556-1.608A1.482,1.482,0,0,0,29,11V7.667C29,4.224,27.43,2,25,2h0Zm0.5,27c-1.543,0-3.5-1.256-3.5-2.667V7.667C22,6.014,22.582,5,23,5h2c0.418,0,1,1.014,1,2.667v17.2a0.979,0.979,0,0,1-1,0V16a1.518,1.518,0,0,0-1.49-1.608A1.545,1.545,0,0,0,22,16v9c0,1.949,1.8,3,3.5,3S29,26.949,29,25v1.167C29,27.626,27.028,29,25.5,29h0Z"/><path class="cls-6" d="M25.515,31C22.958,31,20,29.13,20,26.333V7.667C20,5.011,20.979,3,23,3h2c2,0,3,2.011,3,4.667V25a2.248,2.248,0,0,1-2.5,2A2.248,2.248,0,0,1,23,25V16a0.549,0.549,0,0,1,.51-0.608A0.534,0.534,0,0,1,24,16v9c0,0.649.906,1,1.5,1s1.5-.351,1.5-1V7.667C27,5.7,26.255,4,25,4H23c-1.255,0-2,1.7-2,3.667V26.333C21,28.459,23.557,30,25.5,30S30,28.292,30,26.167V11a0.5,0.5,0,0,1,.444-0.608A0.584,0.584,0,0,1,31,11V26.167C31,28.963,28.073,31,25.515,31Z"/></svg>