<svg id="Layer_1" data-name="Layer 1" xmlns="http://www.w3.org/2000/svg" viewBox="0 0 32 32"><defs><style>.cls-1{fill:#b36601;}.cls-2{fill:#fff;}.cls-3{fill:#e3992e;}.cls-4{fill:#dd8100;}.cls-5{fill:#f9c662;}.cls-6,.cls-7{fill:none;stroke-miterlimit:10;}.cls-6{stroke:#6b5927;}.cls-7{stroke:#473d2a;stroke-linecap:round;}</style></defs><title>folders</title><path class="cls-1" d="M0.5,18.5V2.176A1.674,1.674,0,0,1,2.167.5H8.309A1.777,1.777,0,0,1,9.4.891L12.253,3.3a0.706,0.706,0,0,0,.414.2h8.166A1.669,1.669,0,0,1,22.5,5.167V18.5H0.5Z"/><path class="cls-2" d="M8.309,1a1.274,1.274,0,0,1,.785.283l2.837,2.395A1.187,1.187,0,0,0,12.667,4h8.167A1.167,1.167,0,0,1,22,5.167V18H1V2.176A1.175,1.175,0,0,1,2.167,1H8.309m0-1H2.167A2.174,2.174,0,0,0,0,2.176V19H23V5.167A2.169,2.169,0,0,0,20.833,3H12.7a1.194,1.194,0,0,1-.15-0.106L9.739,0.519A2.3,2.3,0,0,0,8.309,0h0Z"/><path class="cls-3" d="M2,17H21V7a1,1,0,0,0-1-1H3A1,1,0,0,0,2,7V17Z"/><polygon class="cls-4" points="2 17 21 17 21 7 2 17"/><path class="cls-2" d="M20.863,8.5a0.789,0.789,0,0,1,.38.088l8.763,5.171c0.207,0.117-.005.335-0.005,0.569V24.671c0,0.235.258,0.452,0.051,0.569l-2.437,1.494-6.377,3.677a0.549,0.549,0,0,1-.294.088,0.6,0.6,0,0,1-.31-0.088l-9.7-5.171A1.941,1.941,0,0,1,10,24.671V14.329a2,2,0,0,1,.949-0.569l9.41-5.171a1.381,1.381,0,0,1,.5-0.088m0-1.5a2.269,2.269,0,0,0-1.121.284l-9.273,5.165-0.087.047A2.163,2.163,0,0,0,9,14.329V24.671a2.166,2.166,0,0,0,1.376,1.834l0.073,0.039,9.48,5.183A2.14,2.14,0,0,0,20.975,32a2.164,2.164,0,0,0,1.067-.284l6.442-3.679,2.573-1.5A1.975,1.975,0,0,0,32,24.694V14.329a2.026,2.026,0,0,0-1-1.874L21.989,7.287A2.274,2.274,0,0,0,20.863,7h0Z"/><polygon class="cls-4" points="30 24.841 20 30.382 20 19.526 30 14.18 30 24.841"/><polygon class="cls-3" points="11 24.841 20 30.382 20 19.526 11 14.18 11 24.841"/><polygon class="cls-5" points="11.069 13.967 20.478 19.356 29.886 13.967 20.478 8.587 11.069 13.967"/><line class="cls-6" x1="15.412" y1="16.461" x2="24.929" y2="11.002"/><line class="cls-6" x1="20.5" y1="30" x2="20.5" y2="19"/><path class="cls-6" d="M30.27,14.01l-9.436,5.361a0.678,0.678,0,0,1-.668,0L10.73,14.01"/><path class="cls-7" d="M30.5,24.671a0.789,0.789,0,0,1-.449.569l-2.687,1.494-6.5,3.677a0.705,0.705,0,0,1-.683,0l-9.224-5.171a0.8,0.8,0,0,1-.456-0.569V14.329a0.789,0.789,0,0,1,.449-0.569l9.16-5.171a0.733,0.733,0,0,1,.7,0l9.231,5.171a0.809,0.809,0,0,1,.463.569V24.671Z"/></svg>