<svg xmlns="http://www.w3.org/2000/svg" viewBox="0 0 32 32"><defs><style>.cls-1{isolation:isolate;}.cls-2{fill:#b36601;}.cls-3{fill:#fff;}.cls-4{fill:#e3992e;}.cls-5{fill:#dd8100;}.cls-6{fill:#eeb111;}.cls-7{opacity:0.5;mix-blend-mode:multiply;}.cls-8{fill:#ff9f00;}</style></defs><title>folders</title><g class="cls-1"><g id="Layer_1" data-name="Layer 1"><path class="cls-2" d="M0.5,18.5V2.177A1.673,1.673,0,0,1,2.167.5H8.309A1.779,1.779,0,0,1,9.4.891L12.253,3.3a0.711,0.711,0,0,0,.414.2h8.167A1.669,1.669,0,0,1,22.5,5.167V18.5H0.5Z"/><path class="cls-3" d="M8.309,1a1.274,1.274,0,0,1,.785.283l2.837,2.395A1.187,1.187,0,0,0,12.667,4h8.167A1.167,1.167,0,0,1,22,5.167V18H1V2.176A1.175,1.175,0,0,1,2.167,1H8.309m0-1H2.167A2.174,2.174,0,0,0,0,2.176V19H23V5.167A2.169,2.169,0,0,0,20.833,3H12.7a1.191,1.191,0,0,1-.15-0.106L9.739,0.519A2.3,2.3,0,0,0,8.309,0h0Z"/><path class="cls-4" d="M2,17H21V7a1,1,0,0,0-1-1H3A1,1,0,0,0,2,7V17Z"/><polygon class="cls-5" points="2 17 21 17 21 7 2 17"/><path d="M9.952,13A2.938,2.938,0,0,0,7,15.965v12a3.041,3.041,0,0,0,.186,1.1L15.461,13H9.952Z"/><path class="cls-6" d="M15.539,13L7.193,29.174A3.01,3.01,0,0,0,9.952,31H14.06l9.289-18h-7.81Z"/><path class="cls-6" d="M7.162,29.046l-0.4.772L6.826,29.85l0.367-.711C7.18,29.109,7.174,29.076,7.162,29.046Z"/><path class="cls-6" d="M15.461,13l-8.3,16.063c0.012,0.03.018,0.072,0.031,0.1L15.539,13H15.461Z"/><path d="M27.952,13H23.429L14.14,31H21.95L30.5,14.436A3,3,0,0,0,27.952,13Z"/><polygon points="23.349 13 14.06 31 14.14 31 23.429 13 23.349 13"/><path class="cls-6" d="M27.952,31A3.081,3.081,0,0,0,31,27.965v-12a2.915,2.915,0,0,0-.438-1.472L22.029,31h5.923Z"/><path class="cls-6" d="M30.538,14.475l0.414-.8-0.062-.032L30.5,14.4C30.512,14.425,30.524,14.451,30.538,14.475Z"/><path class="cls-6" d="M21.95,31h0.079l8.509-16.507c-0.014-.024-0.026-0.041-0.04-0.065Z"/><path class="cls-3" d="M27.952,13A3.021,3.021,0,0,1,31,15.965v12A3.081,3.081,0,0,1,27.952,31h-18A3,3,0,0,1,7,27.965v-12A2.938,2.938,0,0,1,9.952,13H28m-0.048-1h-18A3.934,3.934,0,0,0,6,15.965v12A3.994,3.994,0,0,0,9.952,32h18A4.076,4.076,0,0,0,32,27.965v-12A4.016,4.016,0,0,0,27.952,12h0Z"/><g class="cls-7"><path class="cls-8" d="M27.952,14.465a1.5,1.5,0,0,1,1.5,1.5v12a1.5,1.5,0,0,1-1.5,1.5h-18a1.5,1.5,0,0,1-1.5-1.5v-12a1.5,1.5,0,0,1,1.5-1.5h18m0-1.5h-18a3.009,3.009,0,0,0-3,3v12a3.009,3.009,0,0,0,3,3h18a3.009,3.009,0,0,0,3-3v-12a3.009,3.009,0,0,0-3-3h0Z"/></g></g></g></svg>