<svg id="Layer_1" data-name="Layer 1" xmlns="http://www.w3.org/2000/svg" viewBox="0 0 32 32"><defs><style>.cls-1{fill:#b36601;}.cls-2{fill:#fff;}.cls-3{fill:#e3992e;}.cls-4{fill:#dd8100;}.cls-5{fill:#6d4499;}</style></defs><title>folders</title><path class="cls-1" d="M0.5,18.5V2.177A1.674,1.674,0,0,1,2.167.5H8.309A1.777,1.777,0,0,1,9.4.891L12.253,3.3a0.709,0.709,0,0,0,.414.2h8.166A1.669,1.669,0,0,1,22.5,5.167V18.5H0.5Z"/><path class="cls-2" d="M8.309,1a1.274,1.274,0,0,1,.785.283l2.837,2.395A1.187,1.187,0,0,0,12.667,4h8.167A1.167,1.167,0,0,1,22,5.167V18H1V2.176A1.175,1.175,0,0,1,2.167,1H8.309m0-1H2.167A2.174,2.174,0,0,0,0,2.176V19H23V5.167A2.169,2.169,0,0,0,20.833,3H12.7a1.2,1.2,0,0,1-.15-0.106L9.739,0.519A2.3,2.3,0,0,0,8.309,0h0Z"/><path class="cls-3" d="M2,17H21V7a1,1,0,0,0-1-1H3A1,1,0,0,0,2,7V17Z"/><polygon class="cls-4" points="2 17 21 17 21 7 2 17"/><polygon class="cls-5" points="13.299 12.761 14.452 11.343 17.21 10.483 19.304 10.279 22.826 9.581 26.901 10.515 30.135 11.439 31.439 12.943 31.314 28.895 30.06 30.087 26.6 30.732 22.902 31.581 19.542 30.818 15.555 30.195 13.386 29.067 13.173 28.24 13.299 12.761"/><path class="cls-2" d="M31.992,13.119c0.126-1.346-1.289-2.227-2.59-2.612a20.108,20.108,0,0,0-2.988-.663l-0.248-.037a26.8,26.8,0,0,0-3.791-.225,26.725,26.725,0,0,0-3.79.226l-0.248.037a20.051,20.051,0,0,0-2.988.663c-1.3.385-2.584,1.165-2.59,2.612,0.089,4.97-.015,9.951,0,14.928-0.131,1.362,1.323,2.236,2.638,2.618a22.737,22.737,0,0,0,2.94.633c0.117,0.017.235,0.036,0.352,0.052a27.167,27.167,0,0,0,3.686.231,27.016,27.016,0,0,0,3.686-.231c0.118-.016.235-0.034,0.352-0.052a22.753,22.753,0,0,0,2.94-.633c1.315-.382,2.666-1.275,2.638-2.618C32.007,23.07,31.953,18.074,31.992,13.119ZM16.138,11.271a20.694,20.694,0,0,1,2.2-.476,27.023,27.023,0,0,1,4.028-.3h0.02a26.962,26.962,0,0,1,4.028.3,20.674,20.674,0,0,1,2.2.463c0.891,0.288,2.083.64,2.284,1.563-0.149.754-1.055,1.1-1.77,1.369a21.274,21.274,0,0,1-2.713.6,25.379,25.379,0,0,1-4.039.289,25.436,25.436,0,0,1-4.039-.288,21.269,21.269,0,0,1-2.713-.6c-0.715-.272-1.62-0.612-1.769-1.366C14.055,11.905,15.247,11.559,16.138,11.271ZM30.781,28.92c-1.055,1-2.728,1.181-4.177,1.437l-0.19.022a31.27,31.27,0,0,1-4.039.245,31.352,31.352,0,0,1-4.039-.245l-0.19-.022c-1.45-.256-3.123-0.44-4.177-1.437a37.174,37.174,0,0,1-.112-4.174,10.081,10.081,0,0,0,4.479,1.414l0.19,0.026a34.083,34.083,0,0,0,3.663.22l0.185,0,0.185,0a34.083,34.083,0,0,0,3.663-.22l0.19-.026a10.079,10.079,0,0,0,4.479-1.414A36.958,36.958,0,0,1,30.781,28.92ZM13.857,19.568a10.06,10.06,0,0,0,4.479,1.416l0.175,0.024a34.3,34.3,0,0,0,3.631.22l0.232,0,0.232,0a34.3,34.3,0,0,0,3.631-.22l0.175-.024a10.069,10.069,0,0,0,4.479-1.416,39.856,39.856,0,0,1-.1,4.168,5.34,5.34,0,0,1-2.661,1.175c-0.567.117-1.139,0.207-1.714,0.284a28.751,28.751,0,0,1-3.723.248c-0.1,0-.21,0-0.315,0s-0.21,0-.315,0a28.832,28.832,0,0,1-3.723-.248c-0.575-.077-1.147-0.167-1.714-0.284a5.34,5.34,0,0,1-2.661-1.175A40.108,40.108,0,0,1,13.857,19.568Zm16.923-1A5.475,5.475,0,0,1,28.1,19.74c-0.558.115-1.122,0.2-1.688,0.278a28.745,28.745,0,0,1-3.728.247c-0.1,0-.208,0-0.311,0s-0.208,0-.311,0a28.826,28.826,0,0,1-3.728-.247c-0.566-.076-1.13-0.164-1.688-0.278a5.475,5.475,0,0,1-2.679-1.171,37.211,37.211,0,0,1-.112-4.178,10.094,10.094,0,0,0,4.479,1.416l0.2,0.027a34.219,34.219,0,0,0,3.62.216l0.221,0,0.221,0a34.219,34.219,0,0,0,3.62-.216l0.2-.027a10.092,10.092,0,0,0,4.479-1.416A36.887,36.887,0,0,1,30.781,18.568Z"/></svg>