<svg id="Layer_1" data-name="Layer 1" xmlns="http://www.w3.org/2000/svg" viewBox="0 0 32 32"><defs><style>.cls-1{fill:#b36601;}.cls-2{fill:#fff;}.cls-3{fill:#e3992e;}.cls-4{fill:#dd8100;}.cls-5{fill:#41535b;}.cls-6{fill:#627883;}.cls-7{fill:#c2e4f4;}.cls-8{fill:#96cfed;}</style></defs><title>folders</title><path class="cls-1" d="M0.5,18.5V2.176A1.673,1.673,0,0,1,2.167.5H8.309A1.778,1.778,0,0,1,9.4.891L12.253,3.3a0.705,0.705,0,0,0,.413.2h8.167A1.668,1.668,0,0,1,22.5,5.167V18.5H0.5Z"/><path class="cls-2" d="M8.309,1a1.274,1.274,0,0,1,.785.283l2.837,2.395A1.187,1.187,0,0,0,12.667,4h8.167A1.167,1.167,0,0,1,22,5.167V18H1V2.176A1.175,1.175,0,0,1,2.167,1H8.309m0-1H2.167A2.174,2.174,0,0,0,0,2.176V19H23V5.167A2.169,2.169,0,0,0,20.833,3H12.7a1.193,1.193,0,0,1-.15-0.106L9.739,0.519A2.3,2.3,0,0,0,8.309,0h0Z"/><path class="cls-3" d="M2,17H21V7a1,1,0,0,0-1-1H3A1,1,0,0,0,2,7V17Z"/><polygon class="cls-4" points="2 17 21 17 21 7 2 17"/><rect class="cls-5" x="19" y="27.368" width="3" height="2.632"/><rect class="cls-6" x="17" y="30" width="7" height="1" rx="0.5" ry="0.5"/><rect class="cls-5" x="10" y="13" width="21" height="15" rx="0.979" ry="0.979"/><rect class="cls-7" x="11" y="14" width="19" height="13"/><polygon class="cls-8" points="11 27 11 14 30 14 11 27"/><path class="cls-2" d="M30.021,13a0.981,0.981,0,0,1,.979.979V27.021a0.981,0.981,0,0,1-.979.979H22v2h1.5a0.5,0.5,0,0,1,0,1h-6a0.5,0.5,0,0,1,0-1H19V28H10.979A0.981,0.981,0,0,1,10,27.021V13.979A0.981,0.981,0,0,1,10.979,13H30.021m0-1H10.979A1.981,1.981,0,0,0,9,13.979V27.021A1.981,1.981,0,0,0,10.979,29H17.5a1.5,1.5,0,0,0,0,3h6a1.5,1.5,0,0,0,0-3h6.521A1.981,1.981,0,0,0,32,27.021V13.979A1.981,1.981,0,0,0,30.021,12h0Z"/></svg>