<svg id="Layer_1" data-name="Layer 1" xmlns="http://www.w3.org/2000/svg" viewBox="0 0 32 32"><defs><style>.cls-1{fill:#b36601;}.cls-2{fill:#fff;}.cls-3{fill:#e3992e;}.cls-4{fill:#dd8100;}.cls-5{fill:#0b5d98;}.cls-6{fill:#073a5e;}</style></defs><title>folders</title><path class="cls-1" d="M0.5,18.5V2.177A1.674,1.674,0,0,1,2.167.5H8.309A1.777,1.777,0,0,1,9.4.891L12.253,3.3a0.709,0.709,0,0,0,.414.2h8.166A1.669,1.669,0,0,1,22.5,5.167V18.5H0.5Z"/><path class="cls-2" d="M8.309,1a1.274,1.274,0,0,1,.785.283l2.837,2.395A1.187,1.187,0,0,0,12.667,4h8.167A1.167,1.167,0,0,1,22,5.167V18H1V2.176A1.175,1.175,0,0,1,2.167,1H8.309m0-1H2.167A2.174,2.174,0,0,0,0,2.176V19H23V5.167A2.169,2.169,0,0,0,20.833,3H12.7a1.192,1.192,0,0,1-.15-0.106L9.739,0.519A2.3,2.3,0,0,0,8.309,0h0Z"/><path class="cls-3" d="M2,17H21V7a1,1,0,0,0-1-1H3A1,1,0,0,0,2,7V17Z"/><polygon class="cls-4" points="2 17 21 17 21 7 2 17"/><path class="cls-5" d="M15,31.625A2.628,2.628,0,0,1,12.375,29V11A2.628,2.628,0,0,1,15,8.375H26.905l4.72,4.72V29A2.628,2.628,0,0,1,29,31.625H15Z"/><path class="cls-2" d="M27,9l4,4V29a1.847,1.847,0,0,1-2,2H15a1.847,1.847,0,0,1-2-2V11a1.847,1.847,0,0,1,2-2H27m0.06-1H15a3,3,0,0,0-3,3V29a3,3,0,0,0,3,3H29a3,3,0,0,0,3-3V12.939l-0.22-.22-4.5-4.5L27.06,8h0Z"/><polygon class="cls-6" points="27 9 27 13 31 13 27 9"/><path class="cls-6" d="M27.25,20.466H16.75a0.375,0.375,0,0,1,0-.75h10.5A0.375,0.375,0,0,1,27.25,20.466Z"/><path class="cls-6" d="M27.25,23.466H16.75a0.375,0.375,0,0,1,0-.75h10.5A0.375,0.375,0,0,1,27.25,23.466Z"/><path class="cls-6" d="M24.25,26.466h-7.5a0.375,0.375,0,0,1,0-.75h7.5A0.375,0.375,0,0,1,24.25,26.466Z"/><path class="cls-6" d="M16.565,17.208h0Z"/><path class="cls-6" d="M16.514,17.183l0.052,0.025Z"/><path class="cls-6" d="M21.2,16.611l-2.06-4.269a0.435,0.435,0,0,0-.77,0l-2.06,4.269a0.428,0.428,0,0,0,.771.372l0.607-1.258h2.134l0.608,1.258A0.428,0.428,0,0,0,21.2,16.611Zm-3.15-1.637,0.7-1.462,0.706,1.462H18.054Z"/><path class="cls-6" d="M16.514,17.183c-0.106-.052-0.053-0.026,0,0h0Z"/><path class="cls-2" d="M27.25,19.875H16.75a0.375,0.375,0,0,1,0-.75h10.5A0.375,0.375,0,0,1,27.25,19.875Z"/><path class="cls-2" d="M27.25,22.875H16.75a0.375,0.375,0,0,1,0-.75h10.5A0.375,0.375,0,0,1,27.25,22.875Z"/><path class="cls-2" d="M24.25,25.875h-7.5a0.375,0.375,0,0,1,0-.75h7.5A0.375,0.375,0,0,1,24.25,25.875Z"/><path class="cls-2" d="M16.565,16.54h0Z"/><path class="cls-2" d="M16.514,16.515l0.052,0.025Z"/><path class="cls-2" d="M21.2,15.944l-2.06-4.269a0.435,0.435,0,0,0-.77,0l-2.06,4.269a0.428,0.428,0,1,0,.771.372l0.607-1.258h2.134l0.608,1.258A0.428,0.428,0,0,0,21.2,15.944Zm-3.15-1.637,0.7-1.462,0.706,1.462H18.054Z"/><path class="cls-2" d="M16.514,16.515c-0.106-.052-0.053-0.026,0,0h0Z"/></svg>