<?xml version="1.0" encoding="utf-8"?>
<!-- Generator: Adobe Illustrator 19.1.0, SVG Export Plug-In . SVG Version: 6.00 Build 0)  -->
<svg version="1.1" id="Layer_1" xmlns="http://www.w3.org/2000/svg" xmlns:xlink="http://www.w3.org/1999/xlink" x="0px" y="0px"
	 viewBox="0 0 32 32" style="enable-background:new 0 0 32 32;" xml:space="preserve">
<style type="text/css">
	.st0{fill:#BAC9CE;}
	.st1{fill:#333333;}
	.st2{fill:#FFFFFF;}
</style>
<g>
	<rect class="st0" width="32" height="32"/>
</g>
<g>
	<path class="st1" d="M14.591,24.261c0-2.691,1.221-5.1,3.138-6.709c-1.292-0.592-1.686-0.831-1.711-0.839l-0.242-0.158
		l-0.032-3.187l0.199-0.158c0,0,0.85-0.734,1.122-2.925l0.084-0.619l0.357,0.104c0.241-0.493,0.45-1.877,0.377-2.464l-0.441,0.095
		l0.095-0.734c0.126-0.985,0.273-2.201,0.21-2.768c-0.178-1.919-2.034-3.89-4.833-3.89S8.248,1.98,8.07,3.899
		c-0.053,0.547,0.074,1.71,0.21,2.78l0.095,0.724L7.934,7.308C7.86,7.895,8.07,9.279,8.321,9.771l0.358-0.105l0.074,0.619
		c0.273,2.191,1.121,2.925,1.132,2.936l0.188,0.158v0.251l-0.021,2.925l-0.251,0.158c-0.02,0.021-0.702,0.43-3.386,1.583
		c-0.597,0.251-1.195,0.492-1.772,0.723c-1.877,0.744-3.649,1.458-4.184,2.317c-0.409,0.65-0.504,3.786-0.441,6.071h15.165
		C14.806,26.428,14.591,25.37,14.591,24.261z"/>
</g>
<g>
	<g>
		<circle class="st1" cx="23.367" cy="24.262" r="7.748"/>
	</g>
</g>
<g>
	<path class="st2" d="M27.909,21.523c0,0.28-0.12,0.55-0.32,0.75l-5.79,5.79l-3.03-3.02c-0.2-0.21-0.32-0.47-0.32-0.75
		s0.12-0.54,0.32-0.75c0.41-0.4,1.08-0.4,1.49,0l1.54,1.54l4.3-4.3c0.42-0.43,1.061-0.43,1.49,0
		C27.789,20.984,27.909,21.253,27.909,21.523z"/>
</g>
</svg>
