<?xml version="1.0" encoding="utf-8"?>
<!-- Generator: Adobe Illustrator 19.1.0, SVG Export Plug-In . SVG Version: 6.00 Build 0)  -->
<svg version="1.1" id="Layer_1" xmlns="http://www.w3.org/2000/svg" xmlns:xlink="http://www.w3.org/1999/xlink" x="0px" y="0px"
	 viewBox="0 0 32 32" style="enable-background:new 0 0 32 32;" xml:space="preserve">
<style type="text/css">
	.st0{fill:#0072AA;}
	.st1{fill:#FFFFFF;}
	.st2{fill:#004B71;}
</style>
<g>
	<g>
		<g>
			<path class="st0" d="M-30,31.5c-1.93,0-3.5-1.57-3.5-3.5V4c0-1.93,1.57-3.5,3.5-3.5h15.207L-8.5,6.793V28
				c0,1.93-1.57,3.5-3.5,3.5H-30z"/>
			<path class="st1" d="M-15,1l6,6v21c0,1.657-1.343,3-3,3h-18c-1.657,0-3-1.343-3-3V4c0-1.657,1.343-3,3-3H-15 M-14.586,0H-15h-15
				c-2.206,0-4,1.794-4,4v24c0,2.206,1.794,4,4,4h18c2.206,0,4-1.794,4-4V7V6.586l-0.293-0.293l-6-6L-14.586,0L-14.586,0z"/>
		</g>
	</g>
	<polygon class="st2" points="-15,1 -15,7 -9,7 	"/>
	<g>
		<g>
			<g>
				<path class="st2" d="M-27.528,24.198C-27.492,24.215-27.503,24.211-27.528,24.198L-27.528,24.198z"/>
				<path class="st2" d="M-27.674,24.129c0.061,0.03,0.116,0.055,0.146,0.07C-27.554,24.186-27.6,24.165-27.674,24.129z"/>
				<path class="st2" d="M-14.482,22.521l-5.792-12.006c-0.422-0.871-1.744-0.871-2.166,0l-5.794,12.006
					c-0.287,0.597-0.036,1.318,0.561,1.607c0.595,0.287,1.318,0.036,1.607-0.561l1.706-3.539h6.003l1.709,3.539
					C-15.976,24.962-13.807,23.918-14.482,22.521z M-23.341,17.919l1.983-4.111l1.985,4.111H-23.341z"/>
				<path class="st2" d="M-27.674,24.129C-27.971,23.983-27.824,24.057-27.674,24.129L-27.674,24.129z"/>
			</g>
		</g>
		<g>
			<path class="st1" d="M-27.528,22.089C-27.492,22.106-27.503,22.102-27.528,22.089L-27.528,22.089z"/>
			<path class="st1" d="M-27.674,22.019c0.061,0.03,0.116,0.055,0.146,0.07C-27.554,22.076-27.6,22.055-27.674,22.019z"/>
			<path class="st1" d="M-14.482,20.412l-5.792-12.006c-0.422-0.871-1.744-0.871-2.166,0l-5.794,12.006
				c-0.287,0.597-0.036,1.318,0.561,1.607c0.595,0.287,1.318,0.036,1.607-0.561l1.706-3.539h6.003l1.709,3.539
				C-15.976,22.853-13.807,21.808-14.482,20.412z M-23.341,15.81l1.983-4.111l1.985,4.111H-23.341z"/>
			<path class="st1" d="M-27.674,22.019C-27.971,21.874-27.824,21.948-27.674,22.019L-27.674,22.019z"/>
		</g>
	</g>
</g>
<g id="fave_icon_-_selected">
</g>
<g id="fave_icon_-_selected_1_">
</g>
<g>
	<g>
		<g>
			<g>
				<path class="st0" d="M6.968,31.5c-1.93,0-3.5-1.57-3.5-3.5V4c0-1.93,1.57-3.5,3.5-3.5h15.207l6.293,6.293V28
					c0,1.93-1.57,3.5-3.5,3.5H6.968z"/>
				<path class="st1" d="M21.968,1l6,6v21c0,1.657-1.343,3-3,3h-18c-1.657,0-3-1.343-3-3V4c0-1.657,1.343-3,3-3H21.968 M22.382,0
					h-0.414h-15c-2.206,0-4,1.794-4,4v24c0,2.206,1.794,4,4,4h18c2.206,0,4-1.794,4-4V7V6.586l-0.293-0.293l-6-6L22.382,0L22.382,0z
					"/>
			</g>
		</g>
		<polygon class="st2" points="22.203,1 22.203,7 28.203,7 		"/>
	</g>
	<g>
		<g>
			<path class="st2" d="M20.435,23.355h-1.166c-0.296,0-0.497-0.076-0.602-0.228c-0.107-0.152-0.159-0.338-0.159-0.558l0.228-2.571
				c-0.305,0.536-0.632,1.022-0.983,1.459c-0.35,0.436-0.723,0.807-1.115,1.114c-0.393,0.306-0.805,0.543-1.236,0.71
				c-0.431,0.168-0.879,0.252-1.343,0.252c-0.507,0-0.968-0.1-1.381-0.298c-0.414-0.199-0.767-0.49-1.059-0.875
				c-0.291-0.384-0.518-0.857-0.678-1.419c-0.161-0.562-0.241-1.205-0.241-1.933c0-0.76,0.095-1.501,0.285-2.224
				c0.19-0.722,0.461-1.404,0.811-2.046c0.351-0.642,0.771-1.231,1.261-1.768s1.037-1.002,1.641-1.394
				c0.604-0.393,1.253-0.697,1.945-0.913c0.693-0.216,1.419-0.323,2.18-0.323c0.549,0,1.083,0.045,1.603,0.135
				c0.52,0.089,1.033,0.245,1.539,0.467L20.435,23.355z M14.909,21.656c0.413,0,0.819-0.127,1.217-0.38
				c0.397-0.254,0.773-0.605,1.127-1.055c0.355-0.448,0.686-0.983,0.995-1.602c0.308-0.62,0.581-1.3,0.818-2.04l0.545-4.342
				c-0.186-0.15-0.369-0.225-0.551-0.225c-0.182,0-0.361,0-0.539,0c-0.506,0-0.997,0.082-1.47,0.246
				c-0.473,0.165-0.917,0.394-1.33,0.689c-0.414,0.295-0.79,0.646-1.128,1.055c-0.338,0.409-0.627,0.857-0.868,1.346
				c-0.241,0.489-0.429,1.009-0.564,1.561c-0.136,0.552-0.203,1.119-0.203,1.7C12.958,20.641,13.608,21.656,14.909,21.656z"/>
		</g>
		<g>
			<path class="st1" d="M19.702,22.38h-1.166c-0.296,0-0.497-0.076-0.602-0.228c-0.107-0.152-0.159-0.338-0.159-0.558l0.228-2.571
				c-0.305,0.536-0.632,1.022-0.983,1.459c-0.35,0.436-0.723,0.807-1.115,1.114c-0.393,0.306-0.805,0.543-1.236,0.71
				c-0.431,0.168-0.879,0.252-1.343,0.252c-0.507,0-0.968-0.1-1.381-0.298c-0.414-0.199-0.767-0.49-1.059-0.875
				c-0.291-0.384-0.518-0.857-0.678-1.419c-0.161-0.562-0.241-1.205-0.241-1.933c0-0.76,0.095-1.501,0.285-2.224
				c0.19-0.722,0.461-1.404,0.811-2.046c0.351-0.642,0.771-1.231,1.261-1.768s1.037-1.002,1.641-1.394
				c0.604-0.393,1.253-0.697,1.945-0.913c0.693-0.216,1.419-0.323,2.18-0.323c0.549,0,1.083,0.045,1.603,0.135
				c0.52,0.089,1.033,0.245,1.539,0.467L19.702,22.38z M14.176,20.681c0.413,0,0.819-0.127,1.217-0.38
				c0.397-0.254,0.773-0.605,1.127-1.055c0.355-0.448,0.686-0.983,0.995-1.602c0.308-0.62,0.581-1.3,0.818-2.04l0.545-4.342
				c-0.186-0.15-0.369-0.225-0.551-0.225s-0.361,0-0.539,0c-0.506,0-0.997,0.082-1.47,0.246c-0.473,0.165-0.917,0.394-1.33,0.689
				c-0.414,0.295-0.79,0.646-1.128,1.055c-0.338,0.409-0.627,0.857-0.868,1.346c-0.241,0.489-0.429,1.009-0.564,1.561
				c-0.136,0.552-0.203,1.119-0.203,1.7C12.224,19.666,12.874,20.681,14.176,20.681z"/>
		</g>
	</g>
</g>
</svg>
