<?xml version="1.0" encoding="utf-8"?>
<!-- Generator: Adobe Illustrator 19.1.0, SVG Export Plug-In . SVG Version: 6.00 Build 0)  -->
<svg version="1.1" id="Layer_1" xmlns="http://www.w3.org/2000/svg" xmlns:xlink="http://www.w3.org/1999/xlink" x="0px" y="0px"
	 viewBox="0 0 24 24" style="enable-background:new 0 0 24 24;" xml:space="preserve">
<style type="text/css">
	.st0{fill:#333333;}
	.st1{fill:#BC3433;}
</style>
<g>
	<g>
		<path class="st0" d="M23.468,24c-0.136,0-0.272-0.052-0.376-0.156l-6.779-6.779c-0.208-0.208-0.208-0.544,0-0.752
			s0.544-0.208,0.752,0l6.779,6.779c0.208,0.208,0.208,0.544,0,0.752C23.74,23.948,23.604,24,23.468,24z"/>
	</g>
	<g>
		<path class="st0" d="M9.733,19.468C4.366,19.468,0,15.101,0,9.734S4.366,0,9.733,0s9.734,4.367,9.734,9.734
			S15.1,19.468,9.733,19.468z M9.733,1.063c-4.78,0-8.67,3.89-8.67,8.671s3.89,8.671,8.67,8.671c4.782,0,8.671-3.89,8.671-8.671
			S14.515,1.063,9.733,1.063z"/>
	</g>
</g>
<g>
	<path class="st0" d="M9.733,13.875c-4.238,0-6.5-3.467-6.5-4.141s2.262-4.141,6.5-4.141s6.5,3.467,6.5,4.141
		S13.972,13.875,9.733,13.875z M9.746,7.093c-1.463,0-2.654,1.185-2.654,2.641s1.191,2.641,2.654,2.641
		c1.449,0,2.627-1.185,2.627-2.641S11.195,7.093,9.746,7.093z M9.746,11.373c-0.89,0-1.614-0.735-1.614-1.639
		c0-0.904,0.724-1.639,1.614-1.639c0.109,0,0.203,0.044,0.265,0.124c0.136,0.176,0.066,0.441-0.023,0.777
		c-0.044,0.166-0.135,0.51-0.09,0.593c0.005,0,0.042,0.002,0.042,0.002c0.119,0,0.303-0.046,0.481-0.09
		c0.197-0.049,0.384-0.096,0.533-0.096c0.281,0,0.381,0.177,0.381,0.329C11.335,10.638,10.622,11.373,9.746,11.373z"/>
</g>
</svg>
