<?xml version="1.0" encoding="utf-8"?>
<!-- Generator: Adobe Illustrator 19.1.0, SVG Export Plug-In . SVG Version: 6.00 Build 0)  -->
<!DOCTYPE svg PUBLIC "-//W3C//DTD SVG 1.1//EN" "http://www.w3.org/Graphics/SVG/1.1/DTD/svg11.dtd">
<svg version="1.1" id="Layer_1" xmlns="http://www.w3.org/2000/svg" xmlns:xlink="http://www.w3.org/1999/xlink" x="0px" y="0px"
	 viewBox="0 0 24 24" enable-background="new 0 0 24 24" xml:space="preserve">
<g>
	<circle fill="#DCDCDC" cx="12" cy="12" r="12"/>
	<path fill="#666666" d="M12.684,12.024l3.507-3.506c0.195-0.195,0.195-0.512,0-0.707s-0.512-0.195-0.707,0l-3.507,3.506L8.47,7.811
		c-0.195-0.195-0.512-0.195-0.707,0s-0.195,0.512,0,0.707l3.507,3.506L7.763,15.53c-0.195,0.195-0.195,0.512,0,0.707
		c0.098,0.098,0.226,0.146,0.354,0.146s0.256-0.049,0.354-0.146l3.507-3.506l3.507,3.506c0.098,0.098,0.226,0.146,0.354,0.146
		s0.256-0.049,0.354-0.146c0.195-0.195,0.195-0.512,0-0.707L12.684,12.024z"/>
</g>
</svg>
