<?xml version="1.0" encoding="utf-8"?>
<!-- Generator: Adobe Illustrator 19.1.0, SVG Export Plug-In . SVG Version: 6.00 Build 0)  -->
<svg version="1.1" id="Layer_1" xmlns="http://www.w3.org/2000/svg" xmlns:xlink="http://www.w3.org/1999/xlink" x="0px" y="0px"
	 viewBox="0 0 32 32" style="enable-background:new 0 0 32 32;" xml:space="preserve">
<style type="text/css">
	.st0{fill:#0072AA;}
	.st1{fill:#FFFFFF;}
	.st2{fill:#004B71;}
	.st3{fill:#FFFFFF;stroke:#FFFFFF;stroke-width:0.3;stroke-miterlimit:10;}
</style>
<g>
	<g>
		<g>
			<g>
				<path class="st0" d="M7,31.5c-1.93,0-3.5-1.57-3.5-3.5V4c0-1.93,1.57-3.5,3.5-3.5h15.207L28.5,6.793V28c0,1.93-1.57,3.5-3.5,3.5
					H7z"/>
				<path class="st1" d="M22,1l6,6v21c0,1.657-1.343,3-3,3H7c-1.657,0-3-1.343-3-3V4c0-1.657,1.343-3,3-3H22 M22.414,0H22H7
					C4.794,0,3,1.794,3,4v24c0,2.206,1.794,4,4,4h18c2.206,0,4-1.794,4-4V7V6.586l-0.293-0.293l-6-6L22.414,0L22.414,0z"/>
			</g>
		</g>
		<polygon class="st2" points="22,1 22,7 28,7 		"/>
	</g>
	<g>
		<g>
			<path class="st2" d="M11.064,24.834c0.107-0.048,0.187-0.072,0.239-0.072c0.183,0,0.343,0.123,0.481,0.368
				c0.06,0.107,0.119,0.194,0.177,0.264c0.133,0.133,0.278,0.201,0.431,0.201c0.224,0,0.503-0.128,0.833-0.386
				c0.279-0.294,0.538-0.716,0.782-1.264c0.242-0.549,0.457-1.138,0.645-1.77l0.784-2.7c0.049-0.166,0.096-0.347,0.145-0.545
				l0.528-1.89c0.145-0.481,0.254-0.819,0.329-1.017c-0.096-0.005-0.169-0.009-0.216-0.009c-0.038,0-0.124,0.004-0.256,0.012
				c-0.135,0.009-0.449,0.012-0.946,0.012c0.017-0.148,0.032-0.282,0.049-0.399c0.111-0.011,0.232-0.019,0.36-0.025l1.161-0.04
				c0.235-0.785,0.502-1.522,0.801-2.211c0.187-0.411,0.454-0.825,0.801-1.242c0.267-0.315,0.585-0.569,0.954-0.761
				c0.176-0.096,0.403-0.144,0.68-0.144c0.342,0,0.617,0.092,0.826,0.276c0.208,0.185,0.313,0.375,0.313,0.573
				c0,0.128-0.044,0.239-0.128,0.333c-0.087,0.093-0.183,0.14-0.288,0.14c-0.14,0-0.264-0.045-0.373-0.136
				c-0.11-0.091-0.189-0.232-0.236-0.425c-0.038-0.139-0.089-0.238-0.153-0.296c-0.069-0.053-0.16-0.08-0.272-0.08
				c-0.107,0-0.201,0.021-0.281,0.064c-0.166,0.085-0.347,0.248-0.545,0.489c-0.139,0.176-0.287,0.435-0.444,0.777
				c-0.158,0.342-0.329,0.829-0.513,1.462c-0.185,0.633-0.287,1.024-0.309,1.174l0.217,0.016l0.753-0.016
				c0.032,0,0.114,0.005,0.248,0.016c0.005,0.048,0.009,0.085,0.009,0.112c0,0.08-0.016,0.179-0.048,0.297l-1.322,0.047
				l-0.264,0.897l-0.673,2.42c-0.037,0.128-0.069,0.232-0.096,0.312c-0.096,0.251-0.155,0.44-0.176,0.568l-0.593,1.899
				c-0.262,0.732-0.522,1.335-0.781,1.81c-0.26,0.475-0.581,0.902-0.965,1.282c-0.283,0.272-0.582,0.473-0.897,0.601
				c-0.203,0.084-0.467,0.128-0.793,0.128c-0.449,0-0.759-0.07-0.932-0.211c-0.174-0.141-0.261-0.309-0.261-0.505
				C10.848,25.054,10.919,24.919,11.064,24.834z"/>
		</g>
		<g>
			<path class="st2" d="M7.661,18.378c0.915-0.027,1.118-0.525,1.212-0.956c0.121-0.7,0.107-1.467,0.242-2.181
				c0.229-1.252,1.05-1.79,2.234-1.79h0.418l-0.189,0.942h-0.242c-0.632,0.014-0.943,0.404-1.091,1.064
				c-0.107,0.552-0.08,1.131-0.189,1.83c-0.148,0.956-0.605,1.36-1.305,1.521v0.027c0.512,0.121,0.808,0.484,0.808,0.982
				c0,0.404-0.148,0.929-0.309,1.414c-0.162,0.484-0.31,0.956-0.31,1.292c0,0.431,0.216,0.714,0.714,0.714h0.242l-0.175,0.956H9.384
				c-1.009,0-1.682-0.418-1.682-1.414c0-0.484,0.175-1.023,0.336-1.521C8.2,20.76,8.375,20.289,8.375,19.94
				c0-0.323-0.189-0.686-0.875-0.686L7.661,18.378z"/>
			<path class="st2" d="M24.339,19.28c-0.928,0.013-1.131,0.511-1.211,0.942c-0.135,0.699-0.109,1.466-0.242,2.18
				c-0.243,1.253-1.05,1.791-2.235,1.791h-0.418l0.175-0.956h0.255c0.632,0,0.943-0.39,1.077-1.05
				c0.121-0.552,0.08-1.131,0.202-1.83c0.148-0.943,0.592-1.36,1.305-1.508v-0.027c-0.525-0.135-0.808-0.512-0.808-0.996
				c0-0.404,0.162-0.915,0.31-1.4c0.148-0.498,0.309-0.969,0.309-1.305c0-0.431-0.229-0.714-0.727-0.727h-0.229l0.175-0.942h0.323
				c1.023,0,1.682,0.418,1.682,1.4c0,0.511-0.162,1.036-0.323,1.548c-0.175,0.485-0.35,0.956-0.35,1.306
				c0,0.336,0.202,0.687,0.888,0.687L24.339,19.28z"/>
		</g>
	</g>
	<g>
		<g>
			<path class="st3" d="M11.064,23.741c0.107-0.048,0.187-0.072,0.239-0.072c0.183,0,0.343,0.123,0.481,0.368
				c0.06,0.107,0.119,0.194,0.177,0.264c0.133,0.133,0.278,0.201,0.431,0.201c0.224,0,0.503-0.128,0.833-0.386
				c0.279-0.294,0.538-0.716,0.782-1.264c0.242-0.549,0.457-1.138,0.645-1.77l0.784-2.7c0.049-0.166,0.096-0.347,0.145-0.545
				l0.528-1.89c0.145-0.481,0.254-0.819,0.329-1.017c-0.096-0.005-0.169-0.009-0.216-0.009c-0.038,0-0.124,0.004-0.256,0.012
				c-0.135,0.009-0.449,0.012-0.946,0.012c0.017-0.148,0.032-0.282,0.049-0.399c0.111-0.011,0.232-0.019,0.36-0.025l1.161-0.04
				c0.235-0.785,0.502-1.522,0.801-2.211c0.187-0.411,0.454-0.825,0.801-1.242c0.267-0.315,0.585-0.569,0.954-0.761
				c0.176-0.096,0.403-0.144,0.68-0.144c0.342,0,0.617,0.092,0.826,0.276c0.208,0.185,0.313,0.375,0.313,0.573
				c0,0.128-0.044,0.239-0.128,0.333c-0.087,0.093-0.183,0.14-0.288,0.14c-0.14,0-0.264-0.045-0.373-0.136
				c-0.11-0.091-0.189-0.232-0.236-0.425c-0.038-0.139-0.089-0.238-0.153-0.296c-0.069-0.053-0.16-0.08-0.272-0.08
				c-0.107,0-0.201,0.021-0.281,0.064c-0.166,0.085-0.347,0.248-0.545,0.489c-0.139,0.176-0.287,0.435-0.444,0.777
				c-0.158,0.342-0.329,0.829-0.513,1.462c-0.185,0.633-0.287,1.024-0.309,1.174l0.217,0.016l0.753-0.016
				c0.032,0,0.114,0.005,0.248,0.016c0.005,0.048,0.009,0.085,0.009,0.112c0,0.08-0.016,0.179-0.048,0.297l-1.322,0.047
				l-0.264,0.897l-0.673,2.42c-0.037,0.128-0.069,0.232-0.096,0.312c-0.096,0.251-0.155,0.44-0.176,0.568l-0.593,1.899
				c-0.262,0.732-0.522,1.335-0.781,1.81c-0.26,0.475-0.581,0.902-0.965,1.282c-0.283,0.272-0.582,0.473-0.897,0.601
				c-0.203,0.084-0.467,0.128-0.793,0.128c-0.449,0-0.759-0.07-0.932-0.211c-0.174-0.141-0.261-0.309-0.261-0.505
				C10.848,23.961,10.919,23.825,11.064,23.741z"/>
		</g>
		<g>
			<path class="st1" d="M7.661,17.285c0.915-0.027,1.118-0.525,1.212-0.956c0.121-0.7,0.107-1.467,0.242-2.181
				c0.229-1.252,1.05-1.79,2.234-1.79h0.418L11.578,13.3h-0.242c-0.632,0.014-0.943,0.404-1.091,1.064
				c-0.107,0.552-0.08,1.131-0.189,1.83c-0.148,0.956-0.605,1.36-1.305,1.521v0.027c0.512,0.121,0.808,0.484,0.808,0.982
				c0,0.404-0.148,0.929-0.309,1.414c-0.162,0.484-0.31,0.956-0.31,1.292c0,0.431,0.216,0.714,0.714,0.714h0.242L9.721,23.1H9.384
				c-1.009,0-1.682-0.418-1.682-1.414c0-0.484,0.175-1.023,0.336-1.521c0.162-0.498,0.336-0.969,0.336-1.319
				c0-0.323-0.189-0.686-0.875-0.686L7.661,17.285z"/>
			<path class="st1" d="M24.339,18.187c-0.928,0.013-1.131,0.511-1.211,0.942c-0.135,0.699-0.109,1.466-0.242,2.18
				c-0.243,1.253-1.05,1.791-2.235,1.791h-0.418l0.175-0.956h0.255c0.632,0,0.943-0.39,1.077-1.05
				c0.121-0.552,0.08-1.131,0.202-1.83c0.148-0.943,0.592-1.36,1.305-1.508v-0.027c-0.525-0.135-0.808-0.512-0.808-0.996
				c0-0.404,0.162-0.915,0.31-1.4c0.148-0.498,0.309-0.969,0.309-1.305c0-0.431-0.229-0.714-0.727-0.727h-0.229l0.175-0.942h0.323
				c1.023,0,1.682,0.418,1.682,1.4c0,0.511-0.162,1.036-0.323,1.548c-0.175,0.485-0.35,0.956-0.35,1.306
				c0,0.336,0.202,0.687,0.888,0.687L24.339,18.187z"/>
		</g>
	</g>
</g>
</svg>
