<?xml version="1.0" encoding="utf-8"?>
<!-- Generator: Adobe Illustrator 19.1.0, SVG Export Plug-In . SVG Version: 6.00 Build 0)  -->
<!DOCTYPE svg PUBLIC "-//W3C//DTD SVG 1.1//EN" "http://www.w3.org/Graphics/SVG/1.1/DTD/svg11.dtd">
<svg version="1.1" id="Layer_1" xmlns="http://www.w3.org/2000/svg" xmlns:xlink="http://www.w3.org/1999/xlink" x="0px" y="0px"
	 viewBox="0 0 24 24" enable-background="new 0 0 24 24" xml:space="preserve">
<g id="template">
	<polygon fill="#FFFFFF" points="24,24 0,24 0,0 24,0 	"/>
	<path fill="#666666" d="M10,8v12H4V8H10 M11,7H3v14h8V7L11,7z"/>
	<g>
		<path fill="#666666" d="M20,8v5h-7V8H20 M21,7h-9v7h9V7L21,7z"/>
	</g>
	<path fill="#666666" d="M20,8v5h-7V8H20 M21,7h-9v7h9V7L21,7z"/>
	<path fill="#666666" d="M20,16v4h-7v-4H20 M21,15h-9v6h9V15L21,15z"/>
	<path fill="#666666" d="M0,0v4v1v19h24V5V4V0H0z M23.04,23.04H0.96V5h22.08V23.04z M0.96,4V0.96h22.08V4H0.96z"/>
</g>
</svg>
