<?xml version="1.0" encoding="utf-8"?>
<!-- Generator: Adobe Illustrator 19.1.0, SVG Export Plug-In . SVG Version: 6.00 Build 0)  -->
<svg version="1.1" id="Layer_1" xmlns="http://www.w3.org/2000/svg" xmlns:xlink="http://www.w3.org/1999/xlink" x="0px" y="0px"
	 viewBox="0 0 48 48" enable-background="new 0 0 48 48" xml:space="preserve">
<g>
	<g>
		<g>
			<path fill="#FFFFFF" d="M25.676,13.75c0,0-9.568-0.328-11.303-0.328s-2.476,1.699-2.663,2.684s-0.019,19.107-0.019,19.107
				l1.912,1.497l15.101-0.089l1.577-1.847l0.094-16.758L25.676,13.75z"/>
			<g>
				<path fill="#333333" d="M27.75,37h-13.5C12.596,37,11,35.654,11,34V16c0-1.654,1.596-3,3.25-3H26l5,5v16
					C31,35.654,29.404,37,27.75,37z M14.25,14C13.009,14,12,14.759,12,16v18c0,1.241,1.009,2,2.25,2h13.5c1.241,0,2.25-0.759,2.25-2
					V18l-4-4H14.25z"/>
			</g>
		</g>
		<polygon fill="#666666" points="26,14 26,18 30,18 		"/>
	</g>
	<g>
		<g>
			<path fill="#FFFFFF" d="M30.676,9.75c0,0-9.568-0.328-11.303-0.328s-2.476,1.699-2.663,2.684s-0.019,19.107-0.019,19.107
				l1.912,1.497l15.101-0.089l1.577-1.847l0.094-16.758L30.676,9.75z"/>
			<g>
				<path fill="#333333" d="M32.75,33h-13.5C17.596,33,16,31.654,16,30V12c0-1.654,1.596-3,3.25-3H31l5,5v16
					C36,31.654,34.404,33,32.75,33z M19.25,10C18.009,10,17,10.759,17,12v18c0,1.241,1.009,2,2.25,2h13.5c1.241,0,2.25-0.759,2.25-2
					V14l-4-4H19.25z"/>
			</g>
		</g>
		<polygon fill="#666666" points="31,10 31,14 35,14 		"/>
	</g>
	<g>
		<g>
			<path fill="#666666" d="M43,46h-6v-3h6V46z M34,46h-6v-3h6V46z M25,46h-6v-3h6V46z M16,46h-6v-3h6V46z M46,41h-3v-6h3V41z M5,41
				H2v-6h3V41z M46,32h-3v-6h3V32z M5,32H2v-6h3V32z M46,23h-3v-6h3V23z M5,23H2v-6h3V23z M46,14h-3V8h3V14z M5,14H2V8h3V14z M43,5
				h-4V2h5.133C44.962,2,45,2.007,45,2.836V4h-2V5z M36,5h-6V2h6V5z M27,5h-6V2h6V5z M18,5h-6V2h6V5z M9,5H3V2h6V5z"/>
		</g>
		<g>
			<rect fill="#262626" width="7" height="8"/>
		</g>
		<g>
			<rect x="40" fill="#262626" width="8" height="8"/>
		</g>
		<g>
			<rect x="40" y="41" fill="#262626" width="8" height="7"/>
		</g>
		<g>
			<rect y="41" fill="#262626" width="7" height="7"/>
		</g>
	</g>
</g>
</svg>
