<?xml version="1.0" encoding="utf-8"?>
<!-- Generator: Adobe Illustrator 19.1.0, SVG Export Plug-In . SVG Version: 6.00 Build 0)  -->
<!DOCTYPE svg PUBLIC "-//W3C//DTD SVG 1.1//EN" "http://www.w3.org/Graphics/SVG/1.1/DTD/svg11.dtd">
<svg version="1.1" id="Layer_1" xmlns="http://www.w3.org/2000/svg" xmlns:xlink="http://www.w3.org/1999/xlink" x="0px" y="0px"
	 viewBox="-3 5 16 16" enable-background="new -3 5 16 16" xml:space="preserve">
<g>
	<g>
		<rect x="-3" y="5" fill="#333333" width="3" height="3"/>
	</g>
	<g>
		<rect x="-3" y="18" fill="#333333" width="3" height="3"/>
	</g>
	<g>
		<rect x="10" y="18" fill="#333333" width="3" height="3"/>
	</g>
	<g>
		<rect x="10" y="5" fill="#333333" width="3" height="3"/>
	</g>
	<rect x="4" y="6" fill="#666666" width="2" height="1"/>
	<rect x="1" y="6" fill="#666666" width="2" height="1"/>
	<rect x="7" y="6" fill="#666666" width="2" height="1"/>
	<rect x="4" y="19" fill="#666666" width="2" height="1"/>
	<rect x="1" y="19" fill="#666666" width="2" height="1"/>
	<rect x="7" y="19" fill="#666666" width="2" height="1"/>
	<rect x="11" y="12" fill="#666666" width="1" height="2"/>
	<rect x="11" y="9" fill="#666666" width="1" height="2"/>
	<rect x="11" y="15" fill="#666666" width="1" height="2"/>
	<rect x="-2" y="12" fill="#666666" width="1" height="2"/>
	<rect x="-2" y="9" fill="#666666" width="1" height="2"/>
	<rect x="-2" y="15" fill="#666666" width="1" height="2"/>
</g>
</svg>
