<?xml version="1.0" encoding="utf-8"?>
<!-- Generator: Adobe Illustrator 21.0.0, SVG Export Plug-In . SVG Version: 6.00 Build 0)  -->
<!DOCTYPE svg PUBLIC "-//W3C//DTD SVG 1.1//EN" "http://www.w3.org/Graphics/SVG/1.1/DTD/svg11.dtd">
<svg version="1.1" id="Layer_1" xmlns="http://www.w3.org/2000/svg" xmlns:xlink="http://www.w3.org/1999/xlink" x="0px" y="0px"
	 viewBox="0 0 24 24" style="enable-background:new 0 0 24 24;" xml:space="preserve">
<style type="text/css">
	.st0{fill:#7B9AB0;}
</style>
<g id="metadata">
</g>
<g id="like_icon">
</g>
<g id="fave_icon">
</g>
<g id="fave_icon_-_selected">
</g>
<g id="comment_icon_-_selected">
</g>
<g id="Comment_icon">
</g>
<g id="fave_icon_-_selected_1_">
</g>
<g id="like_icon_-_selected">
</g>
<g id="copy_x2F_move_icon">
</g>
<g id="download_icon_2">
</g>
<g id="share_icon_2">
</g>
<g id="reserve_icon">
</g>
<g id="edit_icon">
	<g id="edit_icon_2">
	</g>
	<g id="trash_icon">
		<g id="trash">
		</g>
	</g>
	<g id="more_icon">
	</g>
</g>
<g id="metadata_2">
</g>
<path class="st0" d="M23,4H1C0.4,4,0,3.6,0,3v0c0-0.5,0.4-1,1-1h22c0.5,0,1,0.4,1,1v0C24,3.6,23.6,4,23,4z"/>
<path class="st0" d="M23,13H1c-0.5,0-1-0.4-1-1v0c0-0.5,0.4-1,1-1h22c0.5,0,1,0.4,1,1v0C24,12.6,23.6,13,23,13z"/>
<path class="st0" d="M23,22H1c-0.5,0-1-0.4-1-1v0c0-0.5,0.4-1,1-1h22c0.5,0,1,0.4,1,1v0C24,21.6,23.6,22,23,22z"/>
</svg>
