<?xml version="1.0" encoding="utf-8"?>
<!-- Generator: Adobe Illustrator 19.1.0, SVG Export Plug-In . SVG Version: 6.00 Build 0)  -->
<svg version="1.1" id="Layer_1" xmlns="http://www.w3.org/2000/svg" xmlns:xlink="http://www.w3.org/1999/xlink" x="0px" y="0px"
	 viewBox="0 0 24 24" style="enable-background:new 0 0 24 24;" xml:space="preserve">
<style type="text/css">
	.st0{fill:#FFDF7B;}
</style>
<g>
	<path class="st0" d="M12.4839,2.2879l2.8263,5.7261c0.0788,0.1593,0.231,0.2695,0.4078,0.2958l6.3193,0.9188
		c0.4428,0.0648,0.6195,0.609,0.2993,0.9223l-4.5728,4.4573c-0.1278,0.1242-0.1855,0.3028-0.1558,0.4778l1.0798,6.2931
		c0.0753,0.441-0.3885,0.7788-0.784,0.5705l-5.6526-2.9715c-0.1575-0.0823-0.3448-0.0823-0.5023,0l-5.6526,2.9715
		c-0.3973,0.2083-0.8593-0.1278-0.784-0.5705l1.0798-6.2931c0.0298-0.175-0.028-0.3535-0.1558-0.4778l-4.5728-4.4573
		C1.3433,9.8375,1.52,9.2933,1.9628,9.2285l6.3193-0.9188c0.1768-0.0262,0.329-0.1365,0.4078-0.2958l2.8263-5.7261
		C11.7121,1.8872,12.2861,1.8872,12.4839,2.2879z"/>
</g>
</svg>
