<?xml version="1.0" encoding="utf-8"?>
<!-- Generator: Adobe Illustrator 19.1.0, SVG Export Plug-In . SVG Version: 6.00 Build 0)  -->
<svg version="1.1" id="Layer_1" xmlns="http://www.w3.org/2000/svg" xmlns:xlink="http://www.w3.org/1999/xlink" x="0px" y="0px"
	 viewBox="0 0 24 24" style="enable-background:new 0 0 24 24;" xml:space="preserve">
<style type="text/css">
	.st0{fill:#FFA5A4;}
</style>
<g>
	<g>
		<g>
			<path class="st0" d="M12,1.485c-5.7845,0-10.5,4.7059-10.5,10.5c0,5.7845,4.7155,10.5,10.5,10.5c5.7941,0,10.5-4.7155,10.5-10.5
				C22.5,6.1909,17.7941,1.485,12,1.485z M12,20.5759c-4.7346,0-8.5909-3.8563-8.5909-8.5909c0-4.7441,3.8563-8.5909,8.5909-8.5909
				c4.7441,0,8.5909,3.8468,8.5909,8.5909C20.5909,16.7196,16.7441,20.5759,12,20.5759z"/>
			<path class="st0" d="M16.9923,15.3927c-0.1814,0.315-0.5154,0.5154-0.8782,0.5154c-0.1718,0-0.3532-0.0477-0.5059-0.1431
				l-4.6391-2.6441V6c0-0.5537,0.4582-1.0118,1.0118-1.0118c0.5537,0,1.0118,0.4582,1.0118,1.0118v5.9468l3.6273,2.0713
				c0.2291,0.1336,0.4009,0.3532,0.4677,0.6109C17.1641,14.8868,17.1259,15.1636,16.9923,15.3927z"/>
		</g>
	</g>
</g>
</svg>
