<?xml version="1.0" encoding="utf-8"?>
<!-- Generator: Adobe Illustrator 19.1.0, SVG Export Plug-In . SVG Version: 6.00 Build 0)  -->
<svg version="1.1" id="Layer_1" xmlns="http://www.w3.org/2000/svg" xmlns:xlink="http://www.w3.org/1999/xlink" x="0px" y="0px"
	 viewBox="0 0 24 24" style="enable-background:new 0 0 24 24;" xml:space="preserve">
<style type="text/css">
	.st0{fill:#00D9C6;}
</style>
<g>
	<g>
		<g>
			<path class="st0" d="M21.8863,20.15l-4.85-4.85c1.04-1.42,1.66-3.16,1.66-5.05c0-4.67-3.8-8.47-8.47-8.47
				c-4.67,0-8.48,3.8-8.48,8.47c0,4.67,3.81,8.47,8.48,8.47c1.88,0,3.62-0.62,5.04-1.66l4.85,4.85c0.24,0.25,0.56,0.37,0.88,0.37
				s0.64-0.12,0.89-0.37C22.3763,21.43,22.3763,20.64,21.8863,20.15z M4.2462,10.25c0-3.29,2.68-5.97,5.98-5.97
				c3.29,0,5.97,2.68,5.97,5.97c0,3.3-2.68,5.97-5.97,5.97C6.9262,16.22,4.2462,13.55,4.2462,10.25z"/>
		</g>
	</g>
</g>
</svg>
