<?xml version="1.0" encoding="utf-8"?>
<!-- Generator: Adobe Illustrator 19.2.1, SVG Export Plug-In . SVG Version: 6.00 Build 0)  -->
<svg version="1.1" id="Layer_1" xmlns="http://www.w3.org/2000/svg" xmlns:xlink="http://www.w3.org/1999/xlink" x="0px" y="0px"
	 viewBox="0 0 24 24" style="enable-background:new 0 0 24 24;" xml:space="preserve">
<style type="text/css">
	.st0{fill:#DE3826;}
</style>
<path class="st0" d="M18.8,3c-0.7,0-1.3,0.6-1.3,1.3v-2c0-0.7-0.6-1.3-1.3-1.3S15,1.6,15,2.3V1.5C15,0.7,14.3,0,13.5,0
	S12,0.7,12,1.5v2C12,2.7,11.3,2,10.5,2S9,2.7,9,3.5V9v4c0,1-0.4,1.9-1,1.6l-1.2-0.4c-0.1-0.1-1.7-0.5-1.7-0.5c-1.2-0.3-2.7,0-3,0.8
	c-0.4,1.1,0.2,0.8,1.5,1.2c0,0,0.6,0.1,1.3,0.5c1.2,0.6,2.2,1.5,3.3,2.1c0.9,0.5,1.6,1.3,1.8,2.2l0.1,0.6v2.1c0,0.4,0.4,0.8,0.8,0.8
	h7c0.4,0,0.8-0.4,0.8-0.8v-0.8c0.2-1.5,0.7-2.1,0.9-3.2c0.3-1.2,0.3-3,0.3-3.3v-1.1V11V4.3C20,3.6,19.4,3,18.8,3z"/>
</svg>
