<?xml version="1.0" encoding="utf-8"?>
<!-- Generator: Adobe Illustrator 19.1.0, SVG Export Plug-In . SVG Version: 6.00 Build 0)  -->
<svg version="1.1" id="Layer_1" xmlns="http://www.w3.org/2000/svg" xmlns:xlink="http://www.w3.org/1999/xlink" x="0px" y="0px"
	 viewBox="0 0 48 48" enable-background="new 0 0 48 48" xml:space="preserve">
<path fill="#0072AA" d="M46.391,15.379C42.721,5.848,33.631-0.003,23.993,0c-2.867,0-5.782,0.517-8.615,1.609
	C3.012,6.371-3.153,20.255,1.609,32.622C5.279,42.153,14.369,48,24.007,48c2.867,0,5.779-0.517,8.615-1.609
	C44.985,41.629,51.153,27.742,46.391,15.379z M35.895,40.723c-1.144,0.817-2.388,1.52-3.725,2.098l-2.884-7.495l8.07-3.108
	C37.429,35.544,36.925,38.479,35.895,40.723z M19.624,39.048l8.053-3.101l2.874,7.46c-1.368,0.462-2.77,0.758-4.19,0.923
	C24.076,43.366,21.767,41.539,19.624,39.048z M23.108,44.482c-3.515-0.159-6.857-1.223-9.776-3.012l4.59-1.768
	C19.565,41.681,21.319,43.283,23.108,44.482z M4.524,30.468c-1.113-3.336-1.347-6.83-0.71-10.22l5.255-2.023
	c0.296,3.067,1.027,6.333,2.219,9.641L4.524,30.468z M12.06,7.364c1.175-0.841,2.429-1.568,3.78-2.154l2.87,7.457l-8.067,3.105
	C10.572,12.498,11.061,9.597,12.06,7.364z M20.32,12.047l-2.87-7.46c1.371-0.462,2.77-0.758,4.194-0.923
	c2.281,0.968,4.59,2.795,6.733,5.282L20.32,12.047z M29.548,10.341c1.857,2.44,3.518,5.379,4.855,8.625l-9.941,3.828l-3.518-9.138
	L29.548,10.341z M24.896,3.511c3.515,0.159,6.857,1.223,9.772,3.008l-4.59,1.768C28.435,6.313,26.681,4.714,24.896,3.511z
	 M10.744,17.581l8.587-3.308l3.518,9.138l-9.958,3.835C11.706,23.935,10.992,20.637,10.744,17.581z M23.47,25.02l3.587,9.317
	l-8.608,3.315c-1.892-2.484-3.584-5.482-4.931-8.801L23.47,25.02z M28.666,33.721l-3.587-9.317l9.965-3.835
	c1.227,3.37,1.961,6.733,2.212,9.848L28.666,33.721z M36.65,19.948l6.764-2.605c1.185,3.456,1.392,7.026,0.758,10.406l-5.241,2.019
	C38.631,26.647,37.88,23.314,36.65,19.948z M42.763,15.747l-6.754,2.602c-1.337-3.256-2.988-6.161-4.828-8.635l5.217-2.009
	C39.127,9.779,41.34,12.519,42.763,15.747z M9.555,9.417c-0.513,2.078-0.717,4.452-0.613,7.005L4.3,18.211
	c0.255-0.861,0.548-1.719,0.917-2.557C6.275,13.284,7.767,11.195,9.555,9.417z M5.155,32.074l6.757-2.602
	c1.351,3.329,3.032,6.292,4.907,8.811l-5.22,2.009C8.821,38.176,6.575,35.378,5.155,32.074z M38.435,38.603
	c0.517-2.088,0.727-4.469,0.62-7.036l4.628-1.781C42.708,33.097,40.919,36.143,38.435,38.603z"/>
</svg>
