<?xml version="1.0" encoding="utf-8"?>
<!-- Generator: Adobe Illustrator 19.2.0, SVG Export Plug-In . SVG Version: 6.00 Build 0)  -->
<!DOCTYPE svg PUBLIC "-//W3C//DTD SVG 1.1//EN" "http://www.w3.org/Graphics/SVG/1.1/DTD/svg11.dtd">
<svg version="1.1" id="Layer_1" xmlns="http://www.w3.org/2000/svg" xmlns:xlink="http://www.w3.org/1999/xlink" x="0px" y="0px"
	 viewBox="0 0 32 32" enable-background="new 0 0 32 32" xml:space="preserve">
<g id="Ppt">
</g>
<g id="Small_Folder">
</g>
<g id="fave_icon_-_selected">
</g>
<g id="Shortcut_1_">
</g>
<g id="comment_icon_-_selected">
</g>
<g id="Comment_icon">
</g>
<g>
	<g>
		<path fill="#FFFFFF" d="M13.137,27.376c-0.824,0-1.599-0.321-2.182-0.904l-9.551-9.55c-1.203-1.203-1.203-3.162,0-4.365
			L12.556,1.404C13.138,0.821,13.913,0.5,14.738,0.5h5.621c0.825,0,1.6,0.321,2.183,0.904l3.93,3.931
			c0.574,0.573,0.904,1.369,0.904,2.182l0,5.621c0,0.812-0.33,1.608-0.904,2.182L15.319,26.472
			C14.737,27.055,13.961,27.376,13.137,27.376z"/>
		<path fill="#FFFFFF" d="M20.359,1c0.686,0,1.344,0.273,1.829,0.758L23.9,3.47c0.001,0.001,0.001,0.002,0.002,0.003L24.4,3.971
			c0.002,0.002,0.004,0.003,0.005,0.004l1.712,1.712c0.485,0.485,0.757,1.143,0.757,1.828l0,5.621c0,0.686-0.272,1.344-0.757,1.829
			L14.966,26.118c-0.505,0.505-1.167,0.758-1.829,0.758c-0.662,0-1.324-0.253-1.829-0.757l-7.333-7.332c0,0-0.001-0.001-0.001-0.001
			l-2.217-2.217c-1.01-1.01-1.01-2.647,0-3.658L12.909,1.758C13.394,1.273,14.052,1,14.738,1H20.359 M20.807,7.067
			c0.625-0.167,1.112-0.654,1.28-1.279C21.462,5.956,20.974,6.443,20.807,7.067 M20.359,0h-5.621c-0.958,0-1.859,0.373-2.536,1.051
			L1.05,12.203c-1.398,1.398-1.398,3.673,0,5.072l2.217,2.217l7.334,7.334c0.677,0.677,1.578,1.05,2.536,1.05
			c0.958,0,1.859-0.373,2.536-1.05l11.152-11.152c0.677-0.678,1.05-1.578,1.05-2.536l0-5.621c0-0.958-0.373-1.858-1.05-2.535
			l-1.712-1.712L25.06,3.216l-0.004-0.003L24.63,2.787l-0.015-0.016l-1.72-1.72C22.217,0.373,21.317,0,20.359,0L20.359,0z"/>
	</g>
	<g>
		<path fill="#374951" d="M15.127,3.976L3.975,15.128c-1.01,1.01-1.01,2.648,0,3.657l7.333,7.332c1.01,1.01,2.648,1.01,3.658,0
			l11.151-11.152c0.485-0.485,0.757-1.143,0.757-1.829l0-5.621c0-0.686-0.272-1.343-0.757-1.828l-1.712-1.712
			c-0.485-0.485-1.143-0.758-1.829-0.758h-5.621C16.27,3.218,15.612,3.49,15.127,3.976z M24.34,7.183
			c0.241,1.278-0.855,2.377-2.133,2.14c-0.711-0.132-1.295-0.711-1.434-1.421c-0.252-1.285,0.857-2.396,2.141-2.15
			C23.625,5.889,24.206,6.472,24.34,7.183z"/>
	</g>
	<g>
		<g>
			<path fill="#627783" d="M14.092,2.941L2.941,14.093c-1.01,1.01-1.01,2.647,0,3.657l7.333,7.332c1.01,1.01,2.647,1.01,3.657,0
				l11.151-11.152c0.485-0.485,0.757-1.143,0.757-1.829l0-5.621c0-0.686-0.272-1.343-0.757-1.828L23.37,2.941
				c-0.485-0.485-1.143-0.758-1.829-0.758h-5.621C15.235,2.183,14.577,2.456,14.092,2.941z M23.305,6.148
				c0.241,1.278-0.855,2.377-2.133,2.14c-0.711-0.132-1.295-0.711-1.434-1.421c-0.252-1.285,0.857-2.396,2.141-2.15
				C22.59,4.854,23.171,5.437,23.305,6.148z"/>
		</g>
	</g>
	<g>
		<path fill="#9AB3C2" d="M12.909,1.758L1.757,12.911c-1.01,1.01-1.01,2.648,0,3.657l7.333,7.332c1.01,1.01,2.648,1.01,3.658,0
			L23.9,12.748c0.485-0.485,0.757-1.143,0.757-1.829l0-5.621c0-0.686-0.272-1.343-0.757-1.828l-1.712-1.712
			C21.702,1.273,21.045,1,20.359,1h-5.621C14.052,1,13.394,1.273,12.909,1.758z M22.123,4.965c0.241,1.278-0.855,2.377-2.133,2.14
			c-0.711-0.132-1.295-0.711-1.434-1.421c-0.252-1.285,0.857-2.396,2.141-2.15C21.408,3.671,21.988,4.254,22.123,4.965z"/>
	</g>
	<path fill="#31444C" d="M16.268,15.144l-5.611-5.611c-0.309-0.309-0.814-0.309-1.122,0l0,0c-0.309,0.309-0.309,0.814,0,1.122
		l5.611,5.611c0.309,0.309,0.814,0.309,1.122,0v0C16.576,15.958,16.576,15.453,16.268,15.144z"/>
	<path fill="#31444C" d="M14.023,17.389l-5.611-5.611c-0.309-0.309-0.814-0.309-1.122,0l0,0c-0.309,0.309-0.309,0.814,0,1.122
		l5.611,5.611c0.309,0.309,0.814,0.309,1.122,0l0,0C14.332,18.202,14.332,17.697,14.023,17.389z"/>
	<path fill="#31444C" d="M11.779,19.633l-5.611-5.611c-0.309-0.309-0.814-0.309-1.122,0l0,0c-0.309,0.309-0.309,0.814,0,1.122
		l5.611,5.611c0.309,0.309,0.814,0.309,1.122,0h0C12.087,20.447,12.087,19.942,11.779,19.633z"/>
</g>
<g>
	<circle fill="#08A61A" cx="23" cy="23" r="8.533"/>
	<path fill="#FFFFFF" d="M23,15c4.418,0,8,3.582,8,8s-3.582,8-8,8s-8-3.582-8-8S18.582,15,23,15 M23,13.933
		c-4.999,0-9.067,4.067-9.067,9.067s4.067,9.067,9.067,9.067s9.067-4.067,9.067-9.067S27.999,13.933,23,13.933L23,13.933z"/>
</g>
<line fill="none" stroke="#FFFFFF" stroke-width="2" stroke-linecap="round" stroke-miterlimit="10" x1="18" y1="23" x2="26" y2="23"/>
<polyline fill="none" stroke="#FFFFFF" stroke-width="2" stroke-linecap="round" stroke-miterlimit="10" points="23,19 27,23 23,27 
	"/>
</svg>
