<?xml version="1.0" encoding="utf-8"?>
<!-- Generator: Adobe Illustrator 19.1.0, SVG Export Plug-In . SVG Version: 6.00 Build 0)  -->
<svg version="1.1" id="Layer_1" xmlns="http://www.w3.org/2000/svg" xmlns:xlink="http://www.w3.org/1999/xlink" x="0px" y="0px"
	 viewBox="0 0 24 24" style="enable-background:new 0 0 24 24;" xml:space="preserve">
<style type="text/css">
	.st0{fill:#333333;}
</style>
<g>
	<g>
		<circle class="st0" cx="12" cy="6.562" r="1.091"/>
		<path class="st0" d="M13.091,9.835v7.636c0,0.602-0.488,1.091-1.091,1.091h0c-0.602,0-1.091-0.488-1.091-1.091V9.835
			c0-0.602,0.488-1.091,1.091-1.091h0C12.602,8.744,13.091,9.232,13.091,9.835z"/>
	</g>
	<g>
		<path class="st0" d="M12,1.017c6.065,0,11,4.935,11,11s-4.935,11-11,11s-11-4.935-11-11S5.935,1.017,12,1.017 M12,0.017
			c-6.627,0-12,5.373-12,12s5.373,12,12,12s12-5.373,12-12S18.627,0.017,12,0.017L12,0.017z"/>
	</g>
</g>
</svg>
