<?xml version="1.0" encoding="utf-8"?>
<!-- Generator: Adobe Illustrator 19.1.0, SVG Export Plug-In . SVG Version: 6.00 Build 0)  -->
<!DOCTYPE svg PUBLIC "-//W3C//DTD SVG 1.1//EN" "http://www.w3.org/Graphics/SVG/1.1/DTD/svg11.dtd">
<svg version="1.1" id="Layer_1" xmlns="http://www.w3.org/2000/svg" xmlns:xlink="http://www.w3.org/1999/xlink" x="0px" y="0px"
	 viewBox="0 0 24 24" enable-background="new 0 0 24 24" xml:space="preserve">
<g id="export_x5F_profile_copy_2">
	<path id="XMLID_3_" fill="#333333" d="M12.902,20.091l7.375-7.14c0.179-0.179,0.283-0.424,0.283-0.679
		c0-0.255-0.104-0.5-0.283-0.679l-7.376-7.14c-0.377-0.358-0.971-0.349-1.33,0.019c-0.368,0.377-0.358,0.971,0.019,1.339
		l5.706,5.527H-0.023v2.028h17.149l-5.536,5.376c-0.377,0.358-0.387,0.953-0.028,1.33C11.93,20.449,12.525,20.458,12.902,20.091z
		 M18.24,12.291v-0.038l0.019,0.019L18.24,12.291z"/>
	<path fill="#333333" d="M22.023,0h-14h-2v8h0.003c0,0.551,0.447,0.997,0.997,0.997S8.02,8.551,8.02,8h0.003V2h14v20h-14v-6H8.02
		c0-0.551-0.446-0.997-0.997-0.997S6.026,15.449,6.026,16H6.023v8h2h14h2v-2V2V0H22.023z"/>
</g>
</svg>
