<?xml version="1.0" encoding="utf-8"?>
<!-- Generator: Adobe Illustrator 19.1.0, SVG Export Plug-In . SVG Version: 6.00 Build 0)  -->
<svg version="1.1" id="Layer_1" xmlns="http://www.w3.org/2000/svg" xmlns:xlink="http://www.w3.org/1999/xlink" x="0px" y="0px"
	 viewBox="0 0 32 32" style="enable-background:new 0 0 32 32;" xml:space="preserve">
<style type="text/css">
	.st0{fill:#C57C15;}
	.st1{fill:#FFFFFF;}
	.st2{fill:#B26602;}
	.st3{fill:none;}
</style>
<g id="Layer_1_1_">
	<g>
		<g>
			<g>
				<g>
					<path class="st0" d="M7,31.5c-1.93,0-3.5-1.57-3.5-3.5V4c0-1.93,1.57-3.5,3.5-3.5h15.207L28.5,6.793V28
						c0,1.93-1.57,3.5-3.5,3.5H7z"/>
					<path class="st1" d="M22,1l6,6v21c0,1.657-1.343,3-3,3H7c-1.657,0-3-1.343-3-3V4c0-1.657,1.343-3,3-3H22 M22.414,0H22H7
						C4.794,0,3,1.794,3,4v24c0,2.206,1.794,4,4,4h18c2.206,0,4-1.794,4-4V7V6.586l-0.293-0.293l-6-6L22.414,0L22.414,0z"/>
				</g>
			</g>
			<polygon class="st2" points="22,1 22,7 28,7 			"/>
		</g>
		<g>
			<polygon class="st3" points="19.145,15.905 12.855,15.905 9.885,19.855 22.114,19.855 			"/>
		</g>
	</g>
	<g>
		<g>
			<path class="st2" d="M12.553,14.896v0.963H9.668v1.805h2.272v0.931H9.668v1.841h2.885v0.968H8.449v-6.507H12.553z"/>
			<path class="st2" d="M15.164,18.055l-2.075-3.159h1.206c0.084,0,0.145,0.011,0.182,0.034s0.071,0.059,0.101,0.11l1.48,2.39
				c0.016-0.039,0.031-0.077,0.049-0.115c0.02-0.037,0.039-0.075,0.064-0.114l1.353-2.138c0.066-0.111,0.152-0.167,0.258-0.167h1.16
				l-2.097,3.11l2.156,3.397H17.79c-0.08,0-0.146-0.021-0.195-0.063s-0.092-0.09-0.123-0.144l-1.507-2.493
				c-0.012,0.036-0.025,0.069-0.041,0.102c-0.016,0.031-0.029,0.061-0.045,0.087l-1.445,2.305c-0.033,0.051-0.073,0.098-0.121,0.142
				c-0.048,0.044-0.108,0.065-0.18,0.065h-1.134L15.164,18.055z"/>
			<path class="st2" d="M23.815,14.896v0.963h-2.884v1.805h2.272v0.931h-2.272v1.841h2.884v0.968h-4.104v-6.507H23.815z"/>
		</g>
		<g>
			<path class="st1" d="M12.553,14.22v0.963H9.668v1.805h2.272v0.931H9.668v1.841h2.885v0.967H8.449V14.22H12.553z"/>
			<path class="st1" d="M15.164,17.379l-2.075-3.159h1.206c0.084,0,0.145,0.011,0.182,0.034s0.071,0.059,0.101,0.11l1.48,2.389
				c0.016-0.039,0.031-0.077,0.049-0.115c0.02-0.037,0.039-0.076,0.064-0.115l1.354-2.137c0.066-0.111,0.152-0.167,0.258-0.167h1.16
				l-2.098,3.109l2.157,3.397h-1.211c-0.08,0-0.146-0.021-0.195-0.062s-0.092-0.09-0.123-0.145l-1.508-2.493
				c-0.012,0.036-0.025,0.07-0.041,0.102s-0.029,0.061-0.045,0.088l-1.445,2.304c-0.033,0.052-0.073,0.099-0.121,0.142
				c-0.048,0.044-0.108,0.065-0.18,0.065h-1.134L15.164,17.379z"/>
			<path class="st1" d="M23.816,14.22v0.963h-2.884v1.805h2.272v0.931h-2.272v1.841h2.884v0.967h-4.104V14.22H23.816z"/>
		</g>
	</g>
</g>
<g id="Layer_5">
</g>
</svg>
