<?xml version="1.0" encoding="utf-8"?>
<!-- Generator: Adobe Illustrator 19.1.0, SVG Export Plug-In . SVG Version: 6.00 Build 0)  -->
<svg version="1.1" id="Layer_1" xmlns="http://www.w3.org/2000/svg" xmlns:xlink="http://www.w3.org/1999/xlink" x="0px" y="0px"
	 viewBox="0 0 32 32" style="enable-background:new 0 0 32 32;" xml:space="preserve">
<style type="text/css">
	.st0{fill:#9370B1;}
	.st1{fill:#FFFFFF;}
	.st2{fill:#7E5A8B;}
	.st3{fill:none;}
</style>
<g>
	<g>
		<g>
			<g>
				<path class="st0" d="M24.859,31.487H7.244c-2.158,0-4.241-1.737-4.241-3.872V4.385c0-2.135,2.083-3.872,4.241-3.872h15.332
					L29.1,6.966v20.649C29.1,29.75,27.017,31.487,24.859,31.487z"/>
				<path class="st1" d="M24.859,32H7.244c-2.532,0-4.754-2.049-4.754-4.385V4.385C2.49,2.049,4.711,0,7.244,0h15.543l6.827,6.752
					v20.863C29.613,29.951,27.392,32,24.859,32z M7.244,1.027c-1.951,0-3.727,1.601-3.727,3.358v23.23
					c0,1.757,1.776,3.358,3.727,3.358h17.616c1.951,0,3.727-1.601,3.727-3.358V7.18l-6.221-6.153H7.244z"/>
			</g>
		</g>
	</g>
	<polygon class="st2" points="22.397,1.097 22.397,7.206 28.573,7.206 	"/>
</g>
<g>
	<g>
		<g>
			<g>
				<path class="st2" d="M23.122,17.473c0.031-0.659,0.341-1.075,0.615-1.441c0.266-0.357,0.496-0.664,0.487-1.202
					c-0.005-0.309-0.111-0.562-0.317-0.752c-0.335-0.309-0.934-0.447-1.728-0.418c-0.721,0.033-1.216,0.195-1.472,0.483
					c-0.206,0.231-0.281,0.566-0.236,1.052c0.046,0.499,0.233,0.773,0.45,1.089c0.208,0.302,0.443,0.645,0.504,1.166
					c0.17,1.45-1.447,1.773-1.978,1.88c-0.881,0.176-1.282,0.107-2.167-0.098l-0.052,0.29c-0.27,1.486-0.312,1.714-0.069,2.948
					c0.273,1.394,0.783,1.338,1.032,1.308c0.335-0.038,0.553-0.182,0.829-0.363c0.344-0.228,0.772-0.511,1.488-0.574
					c0.722-0.063,1.268,0.076,1.674,0.423c0.472,0.404,0.723,1.06,0.767,2.004c0.009,0.185-0.001,0.353-0.01,0.522h2.116
					c0.573,0,1.042-0.469,1.042-1.042v-5.232c-0.563-0.065-1.04-0.147-1.393-0.242C23.217,18.873,23.102,17.882,23.122,17.473z"/>
			</g>
		</g>
		<g>
			<g>
				<g>
					<path class="st2" d="M19.028,13.158v-1.847c0-0.177-0.144-0.321-0.32-0.321h-3.984c-0.177,0-0.321,0.144-0.321,0.321v1.847
						h-1.629v-1.847c0-1.075,0.874-1.949,1.949-1.949h3.984c1.075,0,1.949,0.875,1.949,1.949v1.847H19.028z"/>
				</g>
				<g>
					<path class="st2" d="M18.707,9.655c0.914,0,1.656,0.743,1.656,1.656v1.554h-1.042v-1.554c0-0.339-0.275-0.614-0.613-0.614
						h-3.984c-0.339,0-0.614,0.275-0.614,0.614v1.554h-1.042v-1.554c0-0.913,0.743-1.656,1.656-1.656H18.707 M18.707,9.069h-3.984
						c-1.236,0-2.242,1.006-2.242,2.242v1.554v0.586h0.586h1.042h0.586v-0.586v-1.554c0-0.015,0.013-0.028,0.028-0.028h3.984
						c0.014,0,0.027,0.013,0.027,0.028v1.554v0.586h0.586h1.042h0.586v-0.586v-1.554C20.95,10.075,19.944,9.069,18.707,9.069
						L18.707,9.069z"/>
				</g>
			</g>
			<g>
				<g>
					<path class="st2" d="M9.127,13.158V12c0-0.593,0.482-1.075,1.075-1.075c0.593,0,1.075,0.482,1.075,1.075v1.158H9.127z"/>
				</g>
			</g>
			<g>
				<g>
					<path class="st2" d="M22.155,13.158V12c0-0.593,0.482-1.075,1.075-1.075c0.593,0,1.075,0.482,1.075,1.075v1.158H22.155z"/>
				</g>
			</g>
		</g>
		<g>
			<g>
				<rect x="16.954" y="18.749" class="st2" width="0.003" height="0.002"/>
			</g>
			<g>
				<path class="st2" d="M22.18,23.264c-0.406-0.347-0.951-0.487-1.674-0.423c-0.716,0.063-1.144,0.346-1.488,0.574
					c-0.276,0.181-0.493,0.325-0.829,0.363c-0.249,0.029-0.759,0.085-1.032-1.308c-0.243-1.234-0.201-1.463,0.069-2.948l0.052-0.29
					c0.885,0.205,1.286,0.274,2.167,0.098c0.531-0.107,2.148-0.43,1.978-1.88c-0.061-0.521-0.296-0.864-0.504-1.166
					c-0.217-0.316-0.404-0.589-0.45-1.089c-0.045-0.487,0.031-0.821,0.236-1.052c0.256-0.287,0.751-0.449,1.472-0.483
					c0.795-0.029,1.393,0.109,1.728,0.418c0.206,0.189,0.312,0.442,0.317,0.752c0.009,0.538-0.221,0.845-0.487,1.202
					c-0.274,0.366-0.584,0.782-0.615,1.441c-0.019,0.408,0.096,1.399,1.582,1.8c0.353,0.095,0.83,0.177,1.393,0.242v-0.797
					c-0.476-0.057-0.882-0.127-1.18-0.208c-0.68-0.183-1.013-0.519-0.991-1c0.02-0.421,0.215-0.681,0.46-1.011
					c0.307-0.411,0.655-0.877,0.643-1.681c-0.008-0.524-0.206-0.979-0.57-1.316c-0.459-0.424-1.146-0.638-2.043-0.638
					c-0.089,0-0.181,0.002-0.276,0.007c-0.962,0.044-1.63,0.289-2.042,0.752c-0.355,0.399-0.496,0.937-0.431,1.643
					c0.065,0.702,0.353,1.122,0.584,1.46c0.185,0.271,0.332,0.484,0.371,0.814c0.045,0.379-0.086,0.763-1.337,1.013
					c-0.724,0.146-1,0.1-1.851-0.099c0.136-0.592,0.202-0.93,0.118-2.093c-0.052-0.727-0.316-1.319-0.741-1.664
					c-0.324-0.264-0.731-0.378-1.183-0.328c-0.53,0.06-0.879,0.29-1.186,0.494c-0.322,0.214-0.601,0.397-1.11,0.442
					c-0.495,0.045-0.837-0.029-1.072-0.231c-0.293-0.251-0.459-0.737-0.493-1.445c-0.015-0.327,0.009-0.612,0.058-0.866H11.01
					c-0.041,0.277-0.063,0.572-0.048,0.903c0.044,0.945,0.296,1.6,0.767,2.005c0.407,0.348,0.954,0.487,1.674,0.422
					c0.716-0.063,1.143-0.346,1.488-0.574c0.276-0.182,0.493-0.326,0.827-0.364c0.236-0.026,0.42,0.023,0.576,0.15
					c0.251,0.205,0.415,0.61,0.451,1.112c0.075,1.03,0.027,1.31-0.093,1.837c-0.616-0.16-1.021-0.196-1.786-0.089
					c-1.973,0.28-2.057,1.411-2.001,1.884c0.061,0.521,0.296,0.863,0.503,1.165c0.218,0.316,0.405,0.589,0.451,1.089
					c0.045,0.486-0.031,0.82-0.235,1.051c-0.256,0.288-0.752,0.45-1.473,0.483c-0.795,0.032-1.393-0.108-1.729-0.418
					c-0.206-0.188-0.311-0.441-0.316-0.75c-0.009-0.539,0.221-0.846,0.487-1.202c0.274-0.367,0.584-0.783,0.615-1.442
					c0.019-0.408-0.096-1.4-1.582-1.799c-0.515-0.138-1.31-0.248-2.252-0.318v0.398v0.401c0.892,0.067,1.616,0.169,2.04,0.282
					c0.679,0.182,1.012,0.518,0.99,0.999c-0.02,0.421-0.215,0.682-0.46,1.011c-0.307,0.412-0.655,0.877-0.643,1.682
					c0.008,0.524,0.206,0.978,0.57,1.315c0.505,0.466,1.278,0.682,2.318,0.632c0.962-0.044,1.63-0.29,2.042-0.753
					c0.355-0.399,0.496-0.937,0.431-1.642c-0.065-0.702-0.353-1.122-0.584-1.46c-0.185-0.271-0.332-0.484-0.371-0.813
					c-0.064-0.538,0.379-0.877,1.315-1.009c0.637-0.09,0.931-0.07,1.498,0.078c0.006,0.002,0.01,0.002,0.016,0.004l-0.004,0.02
					l-0.06,0.332c-0.273,1.501-0.338,1.859-0.068,3.237c0.275,1.403,0.918,2.047,1.916,1.945c0.53-0.06,0.88-0.29,1.187-0.494
					c0.322-0.214,0.601-0.397,1.11-0.442c0.493-0.043,0.835,0.03,1.071,0.231c0.293,0.252,0.459,0.738,0.493,1.445
					c0.008,0.172,0.004,0.331-0.006,0.484h0.801c0.009-0.169,0.019-0.336,0.01-0.522C22.903,24.324,22.652,23.669,22.18,23.264z
					 M16.956,18.751c-0.001-0.001-0.002-0.001-0.002-0.001c0,0,0-0.002,0.001-0.002c0.001,0,0.002,0,0.002,0.001
					C16.957,18.749,16.957,18.75,16.956,18.751z"/>
			</g>
		</g>
		<g>
			<g>
				<path class="st2" d="M20.578,23.63c-0.51,0.045-0.788,0.229-1.11,0.442c-0.308,0.203-0.657,0.434-1.187,0.494
					c-0.998,0.102-1.641-0.543-1.916-1.945c-0.27-1.378-0.206-1.736,0.068-3.237l0.06-0.332l0.004-0.02
					c-0.006-0.002-0.01-0.002-0.016-0.004c-0.567-0.149-0.861-0.169-1.498-0.078c-0.936,0.132-1.379,0.471-1.315,1.009
					c0.039,0.329,0.185,0.543,0.371,0.813c0.231,0.339,0.52,0.759,0.584,1.46c0.064,0.706-0.077,1.244-0.431,1.642
					c-0.412,0.464-1.08,0.71-2.042,0.753c-1.041,0.05-1.813-0.166-2.318-0.632c-0.364-0.337-0.562-0.791-0.57-1.315
					c-0.012-0.805,0.336-1.27,0.643-1.682c0.245-0.329,0.44-0.59,0.46-1.011c0.022-0.481-0.311-0.817-0.99-0.999
					c-0.423-0.114-1.147-0.215-2.04-0.282v6.041c0,0.573,0.469,1.042,1.042,1.042h13.758c0.01-0.153,0.014-0.311,0.006-0.484
					c-0.034-0.707-0.199-1.194-0.493-1.445C21.413,23.66,21.072,23.587,20.578,23.63z"/>
			</g>
			<g>
				<path class="st2" d="M9.42,12.761H8.378c-0.573,0-1.042,0.469-1.042,1.042v4.103c0.942,0.07,1.737,0.18,2.252,0.318
					c1.486,0.399,1.601,1.391,1.582,1.799c-0.031,0.659-0.341,1.075-0.615,1.442c-0.266,0.356-0.496,0.663-0.487,1.202
					c0.005,0.309,0.11,0.562,0.316,0.75c0.336,0.31,0.934,0.45,1.729,0.418c0.721-0.033,1.216-0.195,1.473-0.483
					c0.205-0.231,0.281-0.566,0.235-1.051c-0.046-0.5-0.233-0.773-0.451-1.089c-0.207-0.302-0.442-0.645-0.503-1.165
					c-0.056-0.473,0.028-1.604,2.001-1.884c0.765-0.107,1.17-0.07,1.786,0.089c0.12-0.527,0.168-0.807,0.093-1.837
					c-0.036-0.502-0.201-0.907-0.451-1.112c-0.156-0.127-0.339-0.176-0.576-0.15c-0.335,0.038-0.551,0.182-0.827,0.364
					c-0.345,0.227-0.772,0.51-1.488,0.574c-0.721,0.064-1.267-0.074-1.674-0.422c-0.472-0.404-0.723-1.06-0.767-2.005
					c-0.016-0.331,0.007-0.626,0.048-0.903h-0.027H9.42z"/>
			</g>
			<g>
				<path class="st2" d="M22.448,12.761h-2.085h-1.042H14.11h-1.042h-1.243c-0.048,0.255-0.073,0.539-0.058,0.866
					c0.034,0.708,0.2,1.195,0.493,1.445c0.235,0.202,0.577,0.276,1.072,0.231c0.509-0.045,0.788-0.229,1.11-0.442
					c0.307-0.203,0.656-0.434,1.186-0.494c0.451-0.05,0.859,0.064,1.183,0.328c0.425,0.346,0.688,0.937,0.741,1.664
					c0.084,1.164,0.019,1.501-0.118,2.093c0.85,0.199,1.127,0.244,1.851,0.099c1.251-0.25,1.383-0.634,1.337-1.013
					c-0.039-0.33-0.185-0.543-0.371-0.814c-0.231-0.338-0.52-0.758-0.584-1.46c-0.064-0.706,0.077-1.244,0.431-1.643
					c0.412-0.464,1.08-0.709,2.042-0.752c0.094-0.005,0.186-0.007,0.276-0.007c0.896,0,1.583,0.214,2.043,0.638
					c0.364,0.337,0.562,0.792,0.57,1.316c0.012,0.805-0.336,1.27-0.643,1.681c-0.245,0.33-0.44,0.59-0.46,1.011
					c-0.022,0.481,0.311,0.817,0.991,1c0.298,0.081,0.704,0.151,1.18,0.208v-4.914c0-0.573-0.469-1.042-1.042-1.042h-1.042H22.448z"
					/>
			</g>
		</g>
		<g>
			<path class="st2" d="M25.054,26.083H8.378c-0.736,0-1.335-0.599-1.335-1.335V13.804c0-0.736,0.599-1.335,1.335-1.335h16.676
				c0.736,0,1.335,0.599,1.335,1.335v10.944C26.389,25.484,25.79,26.083,25.054,26.083z M8.378,13.055
				c-0.413,0-0.749,0.336-0.749,0.749v10.944c0,0.413,0.336,0.749,0.749,0.749h16.676c0.413,0,0.749-0.336,0.749-0.749V13.804
				c0-0.413-0.336-0.749-0.749-0.749H8.378z"/>
		</g>
	</g>
	<g>
		<g>
			<g>
				<path class="st1" d="M22.468,16.748c0.031-0.659,0.341-1.075,0.615-1.441c0.266-0.357,0.496-0.664,0.487-1.202
					c-0.005-0.309-0.111-0.562-0.317-0.752c-0.335-0.309-0.934-0.447-1.728-0.418c-0.721,0.033-1.216,0.195-1.472,0.483
					c-0.206,0.231-0.281,0.566-0.236,1.052c0.046,0.499,0.233,0.773,0.45,1.089c0.208,0.302,0.443,0.645,0.504,1.166
					c0.17,1.45-1.447,1.773-1.978,1.88c-0.881,0.176-1.282,0.107-2.167-0.098l-0.052,0.29c-0.27,1.486-0.312,1.714-0.069,2.948
					c0.273,1.394,0.783,1.338,1.032,1.308c0.335-0.038,0.553-0.182,0.829-0.363c0.344-0.228,0.772-0.511,1.488-0.574
					c0.722-0.063,1.268,0.076,1.674,0.423c0.472,0.404,0.723,1.06,0.767,2.004c0.009,0.185-0.001,0.353-0.01,0.522h2.116
					c0.573,0,1.042-0.469,1.042-1.042V18.79c-0.563-0.065-1.04-0.147-1.393-0.242C22.564,18.148,22.449,17.156,22.468,16.748z"/>
			</g>
		</g>
		<g>
			<g>
				<g>
					<path class="st1" d="M18.375,12.433v-1.847c0-0.177-0.144-0.321-0.32-0.321h-3.984c-0.177,0-0.321,0.144-0.321,0.321v1.847
						h-1.629v-1.847c0-1.075,0.874-1.949,1.949-1.949h3.984c1.075,0,1.949,0.875,1.949,1.949v1.847H18.375z"/>
				</g>
				<g>
					<path class="st0" d="M18.054,8.93c0.914,0,1.656,0.743,1.656,1.656v1.554h-1.042v-1.554c0-0.339-0.275-0.614-0.613-0.614
						h-3.984c-0.339,0-0.614,0.275-0.614,0.614v1.554h-1.042v-1.554c0-0.913,0.743-1.656,1.656-1.656H18.054 M18.054,8.343H14.07
						c-1.236,0-2.242,1.006-2.242,2.242v1.554v0.586h0.586h1.042h0.586V12.14v-1.554c0-0.015,0.013-0.028,0.028-0.028h3.984
						c0.014,0,0.027,0.013,0.027,0.028v1.554v0.586h0.586h1.042h0.586V12.14v-1.554C20.297,9.349,19.291,8.343,18.054,8.343
						L18.054,8.343z"/>
				</g>
			</g>
			<g>
				<g>
					<path class="st1" d="M8.474,12.433v-1.158c0-0.593,0.482-1.075,1.075-1.075c0.593,0,1.075,0.482,1.075,1.075v1.158H8.474z"/>
				</g>
			</g>
			<g>
				<g>
					<path class="st1" d="M21.502,12.433v-1.158c0-0.593,0.482-1.075,1.075-1.075s1.075,0.482,1.075,1.075v1.158H21.502z"/>
				</g>
			</g>
		</g>
		<g>
			<g>
				<rect x="16.301" y="18.024" class="st3" width="0.003" height="0.002"/>
			</g>
			<g>
				<path class="st0" d="M21.527,22.539c-0.406-0.347-0.951-0.487-1.674-0.423c-0.716,0.063-1.144,0.346-1.488,0.574
					c-0.276,0.181-0.493,0.325-0.829,0.363c-0.249,0.029-0.759,0.085-1.032-1.308c-0.243-1.234-0.201-1.463,0.069-2.948l0.052-0.29
					c0.885,0.205,1.286,0.274,2.167,0.098c0.531-0.107,2.148-0.43,1.978-1.88c-0.061-0.521-0.296-0.864-0.504-1.166
					c-0.217-0.316-0.404-0.589-0.45-1.089c-0.045-0.487,0.031-0.821,0.236-1.052c0.256-0.287,0.751-0.449,1.472-0.483
					c0.795-0.029,1.393,0.109,1.728,0.418c0.206,0.189,0.312,0.442,0.317,0.752c0.009,0.538-0.221,0.845-0.487,1.202
					c-0.274,0.366-0.584,0.782-0.615,1.441c-0.019,0.408,0.096,1.399,1.582,1.8c0.353,0.095,0.83,0.177,1.393,0.242v-0.797
					c-0.476-0.057-0.882-0.127-1.18-0.208c-0.68-0.183-1.013-0.519-0.991-1c0.02-0.421,0.215-0.681,0.46-1.011
					c0.307-0.411,0.655-0.877,0.643-1.681c-0.008-0.524-0.206-0.979-0.57-1.316c-0.459-0.424-1.146-0.638-2.043-0.638
					c-0.089,0-0.181,0.002-0.276,0.007c-0.962,0.044-1.63,0.289-2.042,0.752c-0.355,0.399-0.496,0.937-0.431,1.643
					c0.065,0.702,0.353,1.122,0.584,1.46c0.185,0.271,0.332,0.484,0.371,0.814c0.045,0.379-0.086,0.763-1.337,1.013
					c-0.724,0.146-1,0.1-1.851-0.099c0.136-0.592,0.202-0.93,0.118-2.093c-0.052-0.727-0.316-1.319-0.741-1.664
					c-0.324-0.264-0.731-0.378-1.183-0.328c-0.53,0.06-0.879,0.29-1.186,0.494c-0.322,0.214-0.601,0.397-1.11,0.442
					c-0.495,0.045-0.837-0.029-1.072-0.231c-0.293-0.251-0.459-0.737-0.493-1.445c-0.015-0.327,0.009-0.612,0.058-0.866h-0.815
					c-0.041,0.277-0.063,0.572-0.048,0.903c0.044,0.945,0.296,1.6,0.767,2.005c0.407,0.348,0.954,0.487,1.674,0.422
					c0.716-0.063,1.143-0.346,1.488-0.574c0.276-0.182,0.493-0.326,0.827-0.364c0.236-0.026,0.42,0.023,0.576,0.15
					c0.251,0.205,0.415,0.61,0.451,1.112c0.075,1.03,0.027,1.31-0.093,1.837c-0.616-0.16-1.021-0.196-1.786-0.089
					c-1.973,0.28-2.057,1.411-2.001,1.884c0.061,0.521,0.296,0.863,0.503,1.165c0.218,0.316,0.405,0.589,0.451,1.089
					c0.045,0.486-0.031,0.82-0.235,1.051c-0.256,0.288-0.752,0.45-1.473,0.483c-0.795,0.032-1.393-0.108-1.729-0.418
					c-0.206-0.188-0.311-0.441-0.316-0.75c-0.009-0.539,0.221-0.846,0.487-1.202c0.274-0.367,0.584-0.783,0.615-1.442
					c0.019-0.408-0.096-1.4-1.582-1.799c-0.515-0.138-1.31-0.248-2.252-0.318v0.398v0.401c0.892,0.067,1.616,0.169,2.04,0.282
					c0.679,0.182,1.012,0.518,0.99,0.999c-0.02,0.421-0.215,0.682-0.46,1.011c-0.307,0.412-0.655,0.877-0.643,1.682
					c0.008,0.524,0.206,0.978,0.57,1.315c0.505,0.466,1.278,0.682,2.318,0.632c0.962-0.044,1.63-0.29,2.042-0.753
					c0.355-0.399,0.496-0.937,0.431-1.642c-0.065-0.702-0.353-1.122-0.584-1.46c-0.185-0.271-0.332-0.484-0.371-0.813
					c-0.064-0.538,0.379-0.877,1.315-1.009c0.637-0.09,0.931-0.07,1.498,0.078c0.006,0.002,0.01,0.002,0.016,0.004l-0.004,0.02
					l-0.06,0.332c-0.273,1.501-0.338,1.859-0.068,3.237c0.275,1.403,0.918,2.047,1.916,1.945c0.53-0.06,0.88-0.29,1.187-0.494
					c0.322-0.214,0.601-0.397,1.11-0.442c0.493-0.043,0.835,0.03,1.071,0.231c0.293,0.252,0.459,0.738,0.493,1.445
					c0.008,0.172,0.004,0.331-0.006,0.484h0.801c0.009-0.169,0.019-0.336,0.01-0.522C22.25,23.599,21.999,22.943,21.527,22.539z
					 M16.303,18.026c-0.001-0.001-0.002-0.001-0.002-0.001c0,0,0-0.002,0.001-0.002c0.001,0,0.002,0,0.002,0.001
					C16.304,18.023,16.304,18.025,16.303,18.026z"/>
			</g>
		</g>
		<g>
			<g>
				<path class="st1" d="M19.925,22.904c-0.51,0.045-0.788,0.229-1.11,0.442c-0.308,0.203-0.657,0.434-1.187,0.494
					c-0.998,0.102-1.641-0.543-1.916-1.945c-0.27-1.378-0.206-1.736,0.068-3.237l0.06-0.332l0.004-0.02
					c-0.006-0.002-0.01-0.002-0.016-0.004c-0.567-0.149-0.861-0.169-1.498-0.078c-0.936,0.132-1.379,0.471-1.315,1.009
					c0.039,0.329,0.185,0.543,0.371,0.813c0.231,0.339,0.52,0.759,0.584,1.46c0.064,0.706-0.077,1.244-0.431,1.642
					c-0.412,0.464-1.08,0.71-2.042,0.753c-1.041,0.05-1.813-0.166-2.318-0.632c-0.364-0.337-0.562-0.791-0.57-1.315
					c-0.012-0.805,0.336-1.27,0.643-1.682c0.245-0.329,0.44-0.59,0.46-1.011c0.022-0.481-0.311-0.817-0.99-0.999
					c-0.423-0.114-1.147-0.215-2.04-0.282v6.041c0,0.573,0.469,1.042,1.042,1.042h13.758c0.01-0.153,0.014-0.311,0.006-0.484
					c-0.034-0.707-0.199-1.194-0.493-1.445C20.76,22.935,20.418,22.862,19.925,22.904z"/>
			</g>
			<g>
				<path class="st1" d="M8.767,12.036H7.725c-0.573,0-1.042,0.469-1.042,1.042v4.103c0.942,0.07,1.737,0.18,2.252,0.318
					c1.486,0.399,1.601,1.391,1.582,1.799c-0.031,0.659-0.341,1.075-0.615,1.442c-0.266,0.356-0.496,0.663-0.487,1.202
					c0.005,0.309,0.11,0.562,0.316,0.75c0.336,0.31,0.934,0.45,1.729,0.418c0.721-0.033,1.216-0.195,1.473-0.483
					c0.205-0.231,0.281-0.566,0.235-1.051c-0.046-0.5-0.233-0.773-0.451-1.089c-0.207-0.302-0.442-0.645-0.503-1.165
					c-0.056-0.473,0.028-1.604,2.001-1.884c0.765-0.107,1.17-0.07,1.786,0.089c0.12-0.527,0.168-0.807,0.093-1.837
					c-0.036-0.502-0.201-0.907-0.451-1.112c-0.156-0.127-0.339-0.176-0.576-0.15c-0.335,0.038-0.551,0.182-0.827,0.364
					c-0.345,0.227-0.772,0.51-1.488,0.574c-0.721,0.064-1.267-0.074-1.674-0.422c-0.472-0.404-0.723-1.06-0.767-2.005
					c-0.016-0.331,0.007-0.626,0.048-0.903H10.33H8.767z"/>
			</g>
			<g>
				<path class="st1" d="M21.795,12.036h-2.085h-1.042h-5.211h-1.042h-1.243c-0.048,0.255-0.073,0.539-0.058,0.866
					c0.034,0.708,0.2,1.195,0.493,1.445c0.235,0.202,0.577,0.276,1.072,0.231c0.509-0.045,0.788-0.229,1.11-0.442
					c0.307-0.203,0.656-0.434,1.186-0.494c0.451-0.05,0.859,0.064,1.183,0.328c0.425,0.346,0.688,0.937,0.741,1.664
					c0.084,1.164,0.019,1.501-0.118,2.093c0.85,0.199,1.127,0.244,1.851,0.099c1.251-0.25,1.383-0.634,1.337-1.013
					c-0.039-0.33-0.185-0.543-0.371-0.814c-0.231-0.338-0.52-0.758-0.584-1.46c-0.064-0.706,0.077-1.244,0.431-1.643
					c0.412-0.464,1.08-0.709,2.042-0.752c0.094-0.005,0.186-0.007,0.276-0.007c0.896,0,1.583,0.214,2.043,0.638
					c0.364,0.337,0.562,0.792,0.57,1.316c0.012,0.805-0.336,1.27-0.643,1.681c-0.245,0.33-0.44,0.59-0.46,1.011
					c-0.022,0.481,0.311,0.817,0.991,1c0.298,0.081,0.704,0.151,1.18,0.208v-4.914c0-0.573-0.469-1.042-1.042-1.042h-1.042H21.795z"
					/>
			</g>
		</g>
		<g>
			<path class="st0" d="M24.401,25.357H7.725c-0.736,0-1.335-0.599-1.335-1.335V13.078c0-0.736,0.599-1.335,1.335-1.335h16.676
				c0.736,0,1.335,0.599,1.335,1.335v10.944C25.736,24.759,25.137,25.357,24.401,25.357z M7.725,12.329
				c-0.413,0-0.749,0.336-0.749,0.749v10.944c0,0.413,0.336,0.749,0.749,0.749h16.676c0.413,0,0.749-0.336,0.749-0.749V13.078
				c0-0.413-0.336-0.749-0.749-0.749H7.725z"/>
		</g>
	</g>
</g>
</svg>
