<?xml version="1.0" encoding="utf-8"?>
<!-- Generator: Adobe Illustrator 19.1.0, SVG Export Plug-In . SVG Version: 6.00 Build 0)  -->
<!DOCTYPE svg PUBLIC "-//W3C//DTD SVG 1.1//EN" "http://www.w3.org/Graphics/SVG/1.1/DTD/svg11.dtd">
<svg version="1.1" id="Layer_1" xmlns="http://www.w3.org/2000/svg" xmlns:xlink="http://www.w3.org/1999/xlink" x="0px" y="0px"
	 viewBox="-2 4 18 18" enable-background="new -2 4 18 18" xml:space="preserve">
<g id="Language">
	<g>
		<path fill="#FFFFFF" d="M15.976,13c0,4.963-4.024,8.988-8.988,8.988C2.024,21.988-2,17.963-2,13c0-4.964,4.024-8.988,8.988-8.988
			C11.952,4.012,15.976,8.036,15.976,13z"/>
	</g>
	<path fill="#565656" d="M5.885,15.311L3.511,9.376C3.42,9.15,3.202,9.003,2.96,9.003S2.499,9.151,2.409,9.376l-2.374,5.935
		c-0.122,0.305,0.026,0.65,0.331,0.772c0.305,0.12,0.65-0.027,0.772-0.331L1.7,14.344h2.52l0.563,1.408
		c0.093,0.232,0.316,0.373,0.551,0.373c0.073,0,0.148-0.014,0.22-0.043C5.858,15.96,6.006,15.615,5.885,15.311z M2.174,13.157
		l0.785-1.963l0.785,1.963H2.174z"/>
	<path fill="#565656" d="M7.012,4.012c-4.964,0-8.988,4.024-8.988,8.988c0,4.964,4.024,8.988,8.988,8.988
		C11.976,21.988,16,17.964,16,13C16,8.036,11.976,4.012,7.012,4.012z M14.006,9.149c0.55,0.995,0.887,2.12,0.967,3.315H11.93
		c-0.039-1.183-0.205-2.301-0.475-3.315H14.006z M8.045,20.9c-0.184,0.024-0.367,0.053-0.555,0.064V17.85h2.861
		C9.783,19.32,8.972,20.419,8.045,20.9z M10.351,8.149H7.49V5.036C7.678,5.047,7.861,5.076,8.045,5.1
		C8.972,5.581,9.783,6.679,10.351,8.149z M7.49,16.85v-3.386h3.698c-0.037,1.21-0.211,2.362-0.5,3.386H7.49z M7.49,12.464V9.149
		h3.198c0.283,1.004,0.456,2.131,0.498,3.315H7.49z M13.344,8.149h-2.197c-0.385-1.07-0.893-1.978-1.489-2.664
		C11.13,6.004,12.409,6.932,13.344,8.149z M6.49,20.962C2.329,20.691-0.976,17.229-0.976,13S2.33,5.309,6.49,5.038V20.962z
		 M9.659,20.515c0.596-0.687,1.104-1.595,1.489-2.666h2.197C12.411,19.067,11.131,19.996,9.659,20.515z M11.456,16.85
		c0.275-1.034,0.441-2.177,0.476-3.386h3.044c-0.071,1.221-0.409,2.371-0.969,3.386H11.456z"/>
</g>
</svg>
