<?xml version="1.0" encoding="utf-8"?>
<!-- Generator: Adobe Illustrator 19.2.0, SVG Export Plug-In . SVG Version: 6.00 Build 0)  -->
<!DOCTYPE svg PUBLIC "-//W3C//DTD SVG 1.1//EN" "http://www.w3.org/Graphics/SVG/1.1/DTD/svg11.dtd">
<svg version="1.1" id="Layer_1" xmlns="http://www.w3.org/2000/svg" xmlns:xlink="http://www.w3.org/1999/xlink" x="0px" y="0px"
	 viewBox="0 0 32 32" enable-background="new 0 0 32 32" xml:space="preserve">
<g id="language">
	<g opacity="0.45">
		<path opacity="0.75" fill-rule="evenodd" clip-rule="evenodd" fill="#333333" d="M16.408,31.111h-0.902
			c-8.096,0-14.66-6.563-14.66-14.66v-0.902c0-8.096,6.563-14.66,14.66-14.66h0.902c8.096,0,14.66,6.563,14.66,14.66v0.902
			C31.068,24.547,24.505,31.111,16.408,31.111z"/>
	</g>
	<path fill="#FFFFFF" d="M15.979,0C7.154,0,0,7.154,0,15.979c0,8.825,7.154,15.979,15.979,15.979
		c8.825,0,15.979-7.154,15.979-15.979C31.957,7.154,24.803,0,15.979,0z M17.349,30.388c-0.129,0.012-0.262,0.011-0.392,0.02v-6.429
		h5.777C21.518,27.399,19.564,29.828,17.349,30.388z M22.739,7.979h-5.782V1.55c0.157,0.011,0.317,0.008,0.472,0.024
		C19.616,2.172,21.539,4.595,22.739,7.979z M16.957,8.979h6.103c0.539,1.812,0.875,3.849,0.956,6h-7.059V8.979z M16.957,22.979v-7
		h7.086c-0.001,2.519-0.362,4.909-0.985,7H16.957z M25.015,15.979h5.443c0,2.539-0.661,4.923-1.814,7h-4.566
		C24.671,20.874,25.014,18.5,25.015,15.979z M24.988,14.979c-0.075-2.149-0.39-4.178-0.903-6h4.559c0.999,1.8,1.614,3.836,1.763,6
		H24.988z M28.036,7.979h-4.262c-0.832-2.479-2.035-4.499-3.476-5.82C23.495,3.16,26.216,5.245,28.036,7.979z M1.5,15.979
		c0-7.976,6.484-14.466,14.457-14.477v28.955C7.984,30.444,1.5,23.955,1.5,15.979z M20.288,29.802
		c1.442-1.32,2.646-3.344,3.479-5.823h4.269C26.214,26.715,23.489,28.802,20.288,29.802z"/>
	<path fill="#FFFFFF" d="M13.653,19.679l-4-10C9.652,9.676,9.65,9.674,9.648,9.671c-0.027-0.065-0.071-0.12-0.115-0.175
		C9.516,9.474,9.506,9.447,9.487,9.427C9.465,9.405,9.433,9.393,9.408,9.374C9.356,9.333,9.304,9.291,9.243,9.266
		C9.24,9.265,9.238,9.262,9.235,9.261C9.2,9.247,9.164,9.25,9.129,9.241C9.072,9.227,9.016,9.21,8.957,9.21
		c-0.055,0-0.107,0.017-0.161,0.029C8.757,9.248,8.717,9.245,8.679,9.261C8.675,9.262,8.673,9.265,8.67,9.267
		c-0.055,0.023-0.1,0.062-0.148,0.097C8.491,9.386,8.453,9.401,8.427,9.428c-0.017,0.017-0.025,0.041-0.04,0.06
		C8.339,9.545,8.294,9.603,8.266,9.671C8.264,9.674,8.262,9.676,8.261,9.679l-4,10c-0.154,0.385,0.033,0.821,0.418,0.975
		c0.091,0.036,0.186,0.054,0.278,0.054c0.297,0,0.579-0.179,0.696-0.472l1.203-3.007h4.202l1.203,3.007
		c0.117,0.294,0.399,0.472,0.696,0.472c0.093,0,0.187-0.018,0.278-0.054C13.62,20.5,13.807,20.063,13.653,19.679z M7.456,15.729
		l1.501-3.752l1.501,3.752H7.456z"/>
</g>
</svg>
