<?xml version="1.0" encoding="utf-8"?>
<!-- Generator: Adobe Illustrator 20.1.0, SVG Export Plug-In . SVG Version: 6.00 Build 0)  -->
<svg version="1.1" id="Layer_1" xmlns="http://www.w3.org/2000/svg" xmlns:xlink="http://www.w3.org/1999/xlink" x="0px" y="0px"
	 viewBox="0 0 24 24" style="enable-background:new 0 0 24 24;" xml:space="preserve">
<style type="text/css">
	.st0{fill:#FFFFFF;}
	.st1{fill:#333333;}
	.st2{fill:#333333;stroke:#333333;stroke-width:0.5;stroke-miterlimit:10;}
</style>
<title>Asset 7</title>
<g id="Layer_2">
	<g id="Layer_1-2">
		<path class="st0" d="M18.8,24H5.2c-1.7,0-3.1-1.3-3.2-3V3c0.1-1.7,1.5-3,3.2-3H17l5,5v16C21.9,22.7,20.5,24,18.8,24z"/>
		<path class="st1" d="M8.3,14.5L6.8,8.1C6.7,7.6,7,7.2,7.4,7.1c0.1,0,0.1,0,0.2,0h0c0.4,0,0.7,0.3,0.8,0.6l1.1,5L10.8,8
			c0.1-0.6,0.7-1,1.2-1l0,0c0.6,0,1.1,0.4,1.2,1l1.2,4.8l1.1-5.1c0.1-0.4,0.4-0.6,0.8-0.6l0,0c0.4,0,0.8,0.4,0.8,0.8
			c0,0.1,0,0.1,0,0.2l-1.6,6.4c-0.1,0.5-0.6,0.9-1.1,0.9l0,0c-0.5,0-1-0.3-1.1-0.8L12,9.2l-1.4,5.3c-0.1,0.5-0.6,0.8-1.1,0.8h0
			C8.9,15.4,8.5,15,8.3,14.5z"/>
		<path class="st2" d="M17.3,17.6c-0.1,0.1-0.1,0.3,0,0.4c0,0,0,0,0,0l1.2,1.1h-3.6c-0.2,0-0.4,0.3-0.4,0.5s0.2,0.5,0.4,0.5h3.6
			l-1.2,1.1c-0.1,0.1-0.1,0.4,0,0.5c0,0,0,0,0,0c0.2,0.1,0.4,0.1,0.5,0c0,0,0,0,0,0l2.1-2.1l-2.1-2.1C17.7,17.4,17.5,17.4,17.3,17.6
			C17.3,17.6,17.3,17.6,17.3,17.6"/>
	</g>
</g>
</svg>
