<?xml version="1.0" encoding="utf-8"?>
<!-- Generator: Adobe Illustrator 21.0.2, SVG Export Plug-In . SVG Version: 6.00 Build 0)  -->
<!DOCTYPE svg PUBLIC "-//W3C//DTD SVG 1.1//EN" "http://www.w3.org/Graphics/SVG/1.1/DTD/svg11.dtd">
<svg version="1.1" id="Layer_1" xmlns="http://www.w3.org/2000/svg" xmlns:xlink="http://www.w3.org/1999/xlink" x="0px" y="0px"
	 viewBox="0 0 24 24" style="enable-background:new 0 0 24 24;" xml:space="preserve">
<style type="text/css">
	.st0{fill:#FFFFFF;}
	.st1{fill:#666666;}
</style>
<g id="Layer_2">
	<g id="Layer_12">
		<circle class="st0" cx="12" cy="12" r="12"/>
		<path class="st1" d="M12.7,12l3.5-3.5c0.2-0.2,0.2-0.5,0-0.7c-0.2-0.2-0.5-0.2-0.7,0L12,11.3L8.5,7.8C8.3,7.6,8,7.6,7.8,7.8
			C7.6,8,7.6,8.3,7.8,8.5l3.5,3.5l-3.5,3.5c-0.2,0.2-0.2,0.5,0,0.7s0.5,0.2,0.7,0l0,0l3.5-3.5l3.5,3.5c0.2,0.2,0.5,0.2,0.7,0
			c0.2-0.2,0.2-0.5,0-0.7l0,0L12.7,12z"/>
	</g>
</g>
</svg>
