<?xml version="1.0" encoding="utf-8"?>
<!-- Generator: Adobe Illustrator 20.1.0, SVG Export Plug-In . SVG Version: 6.00 Build 0)  -->
<svg version="1.1" id="Layer_1" xmlns="http://www.w3.org/2000/svg" xmlns:xlink="http://www.w3.org/1999/xlink" x="0px" y="0px"
	 viewBox="0 0 24 24" style="enable-background:new 0 0 24 24;" xml:space="preserve">
<style type="text/css">
	.st0{fill:#FFFFFF;}
	.st1{fill:#333333;}
</style>
<title>Asset 5</title>
<g id="Layer_2">
	<g id="Layer_1-2">
		<path class="st0" d="M18.8,24H5.2c-1.7,0-3.1-1.3-3.2-3V3c0.1-1.7,1.5-3,3.2-3H17l5,5v16C21.9,22.7,20.5,24,18.8,24z"/>
		<path class="st1" d="M12,6.5C9,6.5,6.5,9,6.5,12S9,17.5,12,17.5s5.5-2.5,5.5-5.5C17.5,9,15,6.5,12,6.5z M12,16.5
			c-2.5,0-4.5-2-4.5-4.5s2-4.5,4.5-4.5s4.5,2,4.5,4.5C16.5,14.5,14.5,16.5,12,16.5z"/>
		<path class="st1" d="M14.2,13.8c-0.1,0.2-0.3,0.3-0.5,0.3c-0.1,0-0.2,0-0.3-0.1L11,12.6V8.8c0-0.3,0.2-0.5,0.5-0.5S12,8.6,12,8.8
			v3.1l1.9,1.1c0.1,0.1,0.2,0.2,0.3,0.3C14.2,13.5,14.2,13.6,14.2,13.8z"/>
	</g>
</g>
</svg>
