<?xml version="1.0" encoding="utf-8"?>
<!-- Generator: Adobe Illustrator 20.1.0, SVG Export Plug-In . SVG Version: 6.00 Build 0)  -->
<svg version="1.1" id="Layer_1" xmlns="http://www.w3.org/2000/svg" xmlns:xlink="http://www.w3.org/1999/xlink" x="0px" y="0px"
	 viewBox="0 0 24 24" style="enable-background:new 0 0 24 24;" xml:space="preserve">
<style type="text/css">
	.st0{fill:#333333;}
	.st1{fill:#FFFFFF;}
</style>
<title>Asset 6</title>
<g id="Layer_2">
	<g id="Layer_1-2">
		<rect x="5" y="2" class="st0" width="14" height="20"/>
		<path class="st1" d="M7.5,16h9c0.3,0,0.5-0.2,0.5-0.5S16.8,15,16.5,15h-9C7.2,15,7,15.2,7,15.5S7.2,16,7.5,16z"/>
		<path class="st1" d="M7.5,19h9c0.3,0,0.5-0.2,0.5-0.5S16.8,18,16.5,18h-9C7.2,18,7,18.2,7,18.5S7.2,19,7.5,19z"/>
		<path class="st1" d="M22,6h-2V3c0-1.1-0.9-2-2-2H6C4.9,1,4,1.9,4,3v3H2C0.9,6,0,6.9,0,8v8c0,1.1,0.9,2,2,2h2v3c0,1.1,0.9,2,2,2h12
			c1.1,0,2-0.9,2-2v-3h2c1.1,0,2-0.9,2-2V8C24,6.9,23.1,6,22,6z M19,18v3c0,0.6-0.4,1-1,1H6c-0.6,0-1-0.4-1-1v-8h14V18z M19,9h-3V8
			h3V9z M19,6H5V3c0-0.6,0.4-1,1-1h12c0.6,0,1,0.4,1,1V6z"/>
	</g>
</g>
</svg>
