<?xml version="1.0" encoding="utf-8"?>
<!-- Generator: Adobe Illustrator 20.1.0, SVG Export Plug-In . SVG Version: 6.00 Build 0)  -->
<svg version="1.1" id="Layer_1" xmlns="http://www.w3.org/2000/svg" xmlns:xlink="http://www.w3.org/1999/xlink" x="0px" y="0px"
	 viewBox="0 0 24 24" style="enable-background:new 0 0 24 24;" xml:space="preserve">
<style type="text/css">
	.st0{fill:#FFFFFF;}
	.st1{fill:#333333;}
</style>
<title>Asset 3</title>
<g id="Layer_2">
	<g id="Layer_1-2">
		<path class="st0" d="M22.1,0H2C0.9,0,0,0.9,0,2V22c0,1.1,0.9,2,2,2h20.1c1.1,0,1.9-0.9,1.9-1.9c0,0,0,0,0,0V2
			C24,0.9,23.1,0,22.1,0C22.1,0,22.1,0,22.1,0L22.1,0z"/>
		<rect x="3" y="3" class="st1" width="18" height="3"/>
		<path class="st1" d="M11,8H3v13h8V8z"/>
		<path class="st1" d="M21,8h-9v5h9V8z"/>
		<path class="st1" d="M21,14h-9v3h9V14z"/>
		<path class="st1" d="M21,18h-9v3h9V18z"/>
	</g>
</g>
</svg>
