<?xml version="1.0" encoding="utf-8"?>
<!-- Generator: Adobe Illustrator 20.1.0, SVG Export Plug-In . SVG Version: 6.00 Build 0)  -->
<svg version="1.1" id="Layer_1" xmlns="http://www.w3.org/2000/svg" xmlns:xlink="http://www.w3.org/1999/xlink" x="0px" y="0px"
	 viewBox="0 0 24 24" style="enable-background:new 0 0 24 24;" xml:space="preserve">
<style type="text/css">
	.st0{fill:#FFFFFF;}
	.st1{fill:#333333;}
</style>
<title>Asset 4</title>
<g id="Layer_2">
	<g id="Layer_1-2">
		<path class="st0" d="M18.8,24H5.2c-1.7,0-3.1-1.3-3.2-3V3c0.1-1.7,1.5-3,3.2-3H17l5,5v16C21.9,22.7,20.5,24,18.8,24z"/>
		<g id="znjxlC">
			<path class="st1" d="M4.8,15.6v-0.5c0.1-0.4,0.4-0.7,0.7-1c1-1,2-2,3-3c0,0,0.1-0.1,0.1-0.1c0.5-0.5,1.2-0.5,1.7,0
				c0.2,0.2,0.4,0.4,0.6,0.6c0,0.1,0.1,0.1,0.1,0.2l0.5-0.4c-0.2-0.2-0.4-0.4-0.6-0.6c-0.1-0.1-0.2-0.2-0.3-0.4
				c-0.2-0.5-0.1-1.1,0.3-1.5c1.1-1.1,2.3-2.3,3.4-3.4c0.2-0.3,0.6-0.5,0.9-0.6h0.5c0.2,0.1,0.5,0.2,0.7,0.4C17.1,6,18,6.9,18.9,7.8
				c0.5,0.5,0.5,1.2,0,1.7c0,0,0,0,0,0c-1.2,1.3-2.5,2.5-3.7,3.7c-0.2,0.2-0.5,0.4-0.9,0.4c-0.3,0-0.6-0.1-0.9-0.4
				c-0.2-0.2-0.4-0.4-0.6-0.7L12.3,13c0.2,0.2,0.4,0.4,0.6,0.6c0.5,0.4,0.5,1.2,0.1,1.7c0,0-0.1,0.1-0.1,0.1
				c-1.1,1.1-2.3,2.3-3.4,3.4C9.4,19,9.3,19,9.2,19.1c-0.5,0.2-1.1,0.1-1.4-0.2c-0.8-0.8-1.6-1.6-2.4-2.3C5.1,16.3,4.9,16,4.8,15.6z
				 M12.6,10.1l0.8-0.8l1.3,1.3l-0.8,0.8l0.4,0.4l3.2-3.2l-2.1-2.1l-3.2,3.2L12.6,10.1z M9.1,13.7l0.8-0.9l-0.4-0.5l-3.1,3.1
				l2.1,2.1l3.1-3.1l-0.4-0.4c0,0-0.1,0.1-0.1,0.1c-0.2,0.2-0.4,0.4-0.7,0.6c-0.1,0.1-0.1,0.1-0.2,0C9.9,14.5,9.5,14.1,9.1,13.7
				L9.1,13.7z"/>
		</g>
	</g>
</g>
</svg>
