<?xml version="1.0" encoding="utf-8"?>
<!-- Generator: Adobe Illustrator 21.0.0, SVG Export Plug-In . SVG Version: 6.00 Build 0)  -->
<svg version="1.1" id="Layer_1" xmlns="http://www.w3.org/2000/svg" xmlns:xlink="http://www.w3.org/1999/xlink" x="0px" y="0px"
	 viewBox="0 0 24 24" style="enable-background:new 0 0 24 24;" xml:space="preserve">
<style type="text/css">
	.st0{fill:#FFFFFF;}
	.st1{fill:#333333;}
</style>
<title>Asset 1</title>
<g id="Layer_2">
	<g id="Layer_1-2">
		<path class="st0" d="M18.75,24H5.25C3.545,24.015,2.121,22.701,2,21V3c0.121-1.701,1.545-3.015,3.25-3H17l5,5v16
			C21.879,22.701,20.455,24.015,18.75,24z"/>
		<path class="st1" d="M17.71,11.26L12.15,7c-0.086-0.065-0.204-0.065-0.29,0l-5.57,4.26c-0.105,0.081-0.124,0.232-0.043,0.337
			c0.046,0.06,0.118,0.094,0.193,0.093h1c0.133,0,0.24,0.107,0.24,0.24v4.82C7.674,16.879,7.771,16.989,7.9,17h2.4
			c0.133,0,0.24-0.107,0.24-0.24v-3.52c0-0.591,0.479-1.07,1.07-1.07h0.77c0.591,0,1.07,0.479,1.07,1.07v3.52
			c0,0.133,0.107,0.24,0.24,0.24h2.4c0.133,0,0.24-0.107,0.24-0.24v-4.82c0-0.133,0.107-0.24,0.24-0.24h1
			c0.132,0.004,0.243-0.1,0.247-0.232C17.82,11.384,17.779,11.306,17.71,11.26z"/>
	</g>
</g>
</svg>
