<?xml version="1.0" encoding="utf-8"?>
<!-- Generator: Adobe Illustrator 21.0.2, SVG Export Plug-In . SVG Version: 6.00 Build 0)  -->
<!DOCTYPE svg PUBLIC "-//W3C//DTD SVG 1.1//EN" "http://www.w3.org/Graphics/SVG/1.1/DTD/svg11.dtd">
<svg version="1.1" id="Layer_1" xmlns="http://www.w3.org/2000/svg" xmlns:xlink="http://www.w3.org/1999/xlink" x="0px" y="0px"
	 viewBox="0 0 32 32" style="enable-background:new 0 0 32 32;" xml:space="preserve">
<style type="text/css">
	.st0{fill:#FFFFFF;}
</style>
<g>
	<g>
		<path class="st0" d="M22.2,27.2c0.1,0.5,0.6,0.9,1.1,0.8l5.9-0.9c0.5-0.1,0.9-0.6,0.8-1.1L27.6,9.7c-0.1-0.5-0.1-0.9-0.1-0.7
			s-0.4,0.3-1,0.4l-5.9,0.9c-0.5,0.1-0.9,0.6-0.8,1.1L22.2,27.2z"/>
	</g>
	<g>
		<path class="st0" d="M20.4,8.3c-0.5,0.1-1,0.4-0.9,0.6s0.5,0.4,1.1,0.3l5.9-0.9c0.5-0.1,1-0.4,0.9-0.6s-0.5-0.4-1.1-0.3L20.4,8.3z
			"/>
	</g>
	<g>
		<path class="st0" d="M30.5,29c-0.1-0.5-0.6-0.9-1.1-0.8l-5.9,0.9c-0.5,0.1-0.9,0.6-0.8,1.1l0.1,1c0.1,0.5,0.6,0.9,1.1,0.8l5.9-0.9
			c0.5-0.1,0.9-0.6,0.8-1.1L30.5,29z"/>
	</g>
	<g>
		<path class="st0" d="M26.1,6.4c0.5-0.1,0.9-0.6,0.8-1.1l-0.1-1c-0.1-0.5-0.6-0.9-1.1-0.8l-5.9,0.9c-0.5,0.1-0.9,0.6-0.8,1.1l0.1,1
			c0.1,0.5,0.6,0.9,1.1,0.8L26.1,6.4z"/>
	</g>
</g>
<g>
	<g>
		<path class="st0" d="M11,31c0,0.5,0.4,1,1,1h6c0.5,0,1-0.5,1-1v-1c0-0.5-0.5-1-1-1h-6c-0.6,0-1,0.5-1,1V31z"/>
	</g>
	<g>
		<path class="st0" d="M11,27c0,0.5,0.4,1,1,1h6c0.5,0,1-0.5,1-1V11c0-0.6-0.5-1-1-1h-6c-0.6,0-1,0.4-1,1V27z"/>
	</g>
	<g>
		<path class="st0" d="M11,8.5C11,8.8,11.4,9,12,9h6c0.5,0,1-0.2,1-0.5S18.5,8,18,8h-6C11.4,8,11,8.2,11,8.5z"/>
	</g>
	<g>
		<path class="st0" d="M12,4c-0.6,0-1,0.4-1,1v1c0,0.6,0.4,1,1,1h6c0.5,0,1-0.4,1-1V5c0-0.6-0.5-1-1-1H12z"/>
	</g>
</g>
<g>
	<g>
		<path class="st0" d="M1,31c0,0.5,0.5,1,1,1h6c0.6,0,1-0.5,1-1v-1c0-0.5-0.4-1-1-1H2c-0.5,0-1,0.5-1,1V31z"/>
	</g>
	<g>
		<path class="st0" d="M1,27c0,0.5,0.5,1,1,1h6c0.6,0,1-0.5,1-1V7c0-0.6-0.4-1-1-1H2C1.5,6,1,6.4,1,7V27z"/>
	</g>
	<g>
		<path class="st0" d="M2,0C1.5,0,1,0.4,1,1v1c0,0.5,0.5,1,1,1h6c0.6,0,1-0.5,1-1V1c0-0.6-0.4-1-1-1H2z"/>
	</g>
	<g>
		<path class="st0" d="M1,4.5C1,4.8,1.5,5,2,5h6c0.6,0,1-0.2,1-0.5S8.6,4,8,4H2C1.5,4,1,4.2,1,4.5z"/>
	</g>
</g>
</svg>
