<?xml version="1.0" encoding="utf-8"?>
<!-- Generator: Adobe Illustrator 21.0.0, SVG Export Plug-In . SVG Version: 6.00 Build 0)  -->
<!DOCTYPE svg PUBLIC "-//W3C//DTD SVG 1.1//EN" "http://www.w3.org/Graphics/SVG/1.1/DTD/svg11.dtd">
<svg version="1.1" id="Layer_1" xmlns="http://www.w3.org/2000/svg" xmlns:xlink="http://www.w3.org/1999/xlink" x="0px" y="0px"
	 viewBox="0 0 32 32" style="enable-background:new 0 0 32 32;" xml:space="preserve">
<style type="text/css">
	.st0{fill:#586F7C;}
	.st1{fill:#FFFFFF;}
</style>
<path class="st0" d="M8,0H2C1.5,0,1,0.4,1,1v2h8V1C9,0.4,8.6,0,8,0z"/>
<rect x="1" y="4" class="st0" width="8" height="1"/>
<path class="st0" d="M18,4h-6c-0.6,0-1,0.4-1,1v2h8V5C19,4.4,18.5,4,18,4z"/>
<rect x="11" y="8" class="st0" width="8" height="1"/>
<path class="st0" d="M27.6,9.2l-7.8,1.1l3.1,20.8c0,0.5,0.6,0.9,1.1,0.8l6-0.9c0.5,0,0.9-0.6,0.8-1.1L27.6,9.2z"/>
<rect x="22.1" y="27.6" transform="matrix(0.9891 -0.1472 0.1472 0.9891 -3.8477 4.1915)" class="st1" width="8.6" height="1"/>
<g>
	<path class="st0" d="M11,31c0,0.5,0.4,1,1,1h6c0.5,0,1-0.5,1-1v-2h-8V31z"/>
	<rect x="11" y="10" class="st0" width="8" height="18"/>
</g>
<g>
	<path class="st0" d="M1,31c0,0.5,0.5,1,1,1h6c0.6,0,1-0.5,1-1v-2H1V31z"/>
	<rect x="1" y="6" class="st0" width="8" height="22"/>
</g>
<g>
	<polygon class="st0" points="19.4,8.4 19.6,9.4 27.4,8.2 27.3,7.2 	"/>
	<path class="st0" d="M27.1,6.2l-0.3-2c0-0.5-0.6-0.9-1.1-0.8l-5.9,0.9c-0.5,0-0.9,0.6-0.8,1.1l0.3,2L27.1,6.2z"/>
</g>
</svg>
