<?xml version="1.0" encoding="utf-8"?>
<!-- Generator: Adobe Illustrator 19.1.0, SVG Export Plug-In . SVG Version: 6.00 Build 0)  -->
<svg version="1.1" id="Layer_1" xmlns="http://www.w3.org/2000/svg" xmlns:xlink="http://www.w3.org/1999/xlink" x="0px" y="0px"
	 viewBox="0 0 24 24" style="enable-background:new 0 0 24 24;" xml:space="preserve">
<style type="text/css">
	.st0{fill:#FFFFFF;}
</style>
<g>
	<g>
		<path class="st0" d="M7.566,20.588l-0.027-0.214H4.65c-1.099,0-1.993-0.673-1.993-1.772V2.658c0-1.099,0.894-1.772,1.993-1.772
			h10.409l3.543,3.543v3.961c0.099-0.042,0.195-0.087,0.307-0.116l0.255-0.031l0.324,0.022V4.429L15.059,0H4.65
			C3.185,0,1.771,1.192,1.771,2.658v15.945c0,1.465,1.414,2.658,2.879,2.658h3.214C7.743,21.064,7.632,20.848,7.566,20.588z"/>
		<path class="st0" d="M18.46,19.299c-0.033,0.076-0.074,0.144-0.117,0.213c-0.058,0.491-0.285,0.967-0.68,1.362
			c-0.085,0.086-0.172,0.171-0.257,0.257c1.013-0.297,1.859-1.121,2.037-2.141C19.146,19.168,18.814,19.273,18.46,19.299z"/>
	</g>
	<polygon class="st0" points="15.056,0.83 15.056,4.918 19.144,4.918 	"/>
	<g id="znjxlC_2_">
		<g>
			<path class="st0" d="M8.298,20.264c0-0.154,0-0.308,0-0.463c0.113-0.431,0.428-0.715,0.728-1.014
				c1.038-1.033,2.072-2.07,3.108-3.106c0.044-0.044,0.088-0.089,0.134-0.131c0.504-0.462,1.205-0.47,1.714-0.01
				c0.2,0.181,0.387,0.376,0.574,0.57c0.053,0.055,0.085,0.128,0.111,0.167c0.184-0.172,0.323-0.301,0.475-0.443
				c-0.214-0.211-0.432-0.415-0.636-0.632c-0.114-0.122-0.226-0.255-0.301-0.402c-0.256-0.506-0.144-1.05,0.295-1.489
				c1.154-1.156,2.312-2.308,3.463-3.466c0.276-0.278,0.549-0.553,0.945-0.654c0.154,0,0.308,0,0.463,0
				c0.25,0.077,0.484,0.183,0.673,0.372c0.895,0.897,1.794,1.789,2.685,2.689c0.506,0.511,0.514,1.265,0.007,1.777
				c-1.268,1.28-2.544,2.551-3.821,3.822c-0.242,0.241-0.538,0.364-0.885,0.362c-0.352-0.002-0.648-0.132-0.893-0.378
				c-0.221-0.221-0.435-0.448-0.649-0.671c-0.156,0.159-0.289,0.294-0.445,0.453c0.21,0.203,0.433,0.408,0.645,0.623
				c0.542,0.551,0.542,1.292-0.004,1.839c-1.17,1.173-2.341,2.345-3.516,3.513c-0.108,0.107-0.235,0.202-0.37,0.271
				c-0.482,0.247-1.04,0.148-1.447-0.255c-0.804-0.797-1.599-1.603-2.404-2.398C8.667,20.937,8.399,20.659,8.298,20.264z
				 M16.307,14.686c0.277-0.274,0.55-0.543,0.836-0.826c0.447,0.431,0.891,0.861,1.361,1.315c-0.295,0.294-0.579,0.577-0.847,0.844
				c0.138,0.139,0.276,0.277,0.396,0.398c1.097-1.098,2.202-2.203,3.286-3.286c-0.723-0.725-1.459-1.462-2.176-2.181
				c-1.092,1.092-2.197,2.197-3.296,3.297C16,14.38,16.146,14.525,16.307,14.686z M12.727,18.304
				c0.299-0.303,0.589-0.599,0.861-0.875c-0.175-0.18-0.331-0.34-0.459-0.472c-1.043,1.042-2.09,2.088-3.123,3.122
				c0.717,0.718,1.451,1.454,2.166,2.17c1.04-1.04,2.087-2.087,3.122-3.121c-0.119-0.123-0.252-0.26-0.394-0.406
				c-0.036,0.034-0.075,0.068-0.112,0.104c-0.224,0.219-0.448,0.437-0.67,0.659c-0.058,0.058-0.101,0.073-0.167,0.009
				C13.553,19.102,13.151,18.715,12.727,18.304z"/>
		</g>
	</g>
</g>
</svg>
