<?xml version="1.0" encoding="utf-8"?>
<!-- Generator: Adobe Illustrator 19.1.0, SVG Export Plug-In . SVG Version: 6.00 Build 0)  -->
<!DOCTYPE svg PUBLIC "-//W3C//DTD SVG 1.1//EN" "http://www.w3.org/Graphics/SVG/1.1/DTD/svg11.dtd">
<svg version="1.1" id="Layer_1" xmlns="http://www.w3.org/2000/svg" xmlns:xlink="http://www.w3.org/1999/xlink" x="0px" y="0px"
	 viewBox="0 0 18 18" enable-background="new 0 0 18 18" xml:space="preserve">
<g>
	<path fill="#333333" d="M8.986,0.986c-4.418,0-8,3.582-8,8s3.582,8,8,8s8-3.582,8-8S13.405,0.986,8.986,0.986z M9.5,15.96V15
		c0-0.276-0.224-0.5-0.5-0.5S8.5,14.724,8.5,15v0.962c-3.462-0.24-6.235-3.003-6.488-6.462H3c0.276,0,0.5-0.224,0.5-0.5
		S3.276,8.5,3,8.5H2.011C2.251,5.029,5.029,2.251,8.5,2.011V3c0,0.276,0.224,0.5,0.5,0.5S9.5,3.276,9.5,3V2.012
		c3.459,0.253,6.222,3.025,6.462,6.488H15c-0.276,0-0.5,0.224-0.5,0.5s0.224,0.5,0.5,0.5h0.96C15.708,12.95,12.95,15.708,9.5,15.96z
		"/>
	<path fill="#333333" d="M12,8.5H9.5V6c0-0.276-0.224-0.5-0.5-0.5S8.5,5.724,8.5,6v2.5H6C5.724,8.5,5.5,8.724,5.5,9S5.724,9.5,6,9.5
		h2.5V12c0,0.276,0.224,0.5,0.5,0.5s0.5-0.224,0.5-0.5V9.5H12c0.276,0,0.5-0.224,0.5-0.5S12.276,8.5,12,8.5z"/>
</g>
</svg>
