<?xml version="1.0" encoding="utf-8"?>
<!-- Generator: Adobe Illustrator 19.0.0, SVG Export Plug-In . SVG Version: 6.00 Build 0)  -->
<svg version="1.1" id="Layer_1" xmlns="http://www.w3.org/2000/svg" xmlns:xlink="http://www.w3.org/1999/xlink" x="0px" y="0px"
	 viewBox="0 0 24 24" enable-background="new 0 0 24 24" xml:space="preserve">
<g id="lock">
	<g id="XMLID_5_">
		<g id="XMLID_9_">
			<path id="XMLID_17_" fill="#FFFFFF" d="M18.015,8.15V3.37c0-1.86-1.32-3.37-2.95-3.37h-6.13c-1.63,0-2.95,1.51-2.95,3.37v4.78
				c-2,0.05-3.6,1.69-3.6,3.7v8.44c0,2.05,1.66,3.71,3.71,3.71h11.81c2.04,0,3.71-1.66,3.71-3.71v-8.44
				C21.615,9.84,20.005,8.2,18.015,8.15z M7.405,3.37c0-1.06,0.7-1.95,1.53-1.95h6.13c0.83,0,1.53,0.89,1.53,1.95v4.77h-9.19V3.37z
				 M11.995,19.08c-0.93,0-1.68-0.77-1.68-1.71s0.75-1.7,1.68-1.7s1.69,0.76,1.69,1.7S12.925,19.08,11.995,19.08z"/>
		</g>
	</g>
</g>
</svg>
