<?xml version="1.0" encoding="utf-8"?>
<!-- Generator: Adobe Illustrator 19.0.0, SVG Export Plug-In . SVG Version: 6.00 Build 0)  -->
<svg version="1.1" id="Layer_1" xmlns="http://www.w3.org/2000/svg" xmlns:xlink="http://www.w3.org/1999/xlink" x="0px" y="0px"
	 viewBox="0 0 24 24" enable-background="new 0 0 24 24" xml:space="preserve">
<g id="XMLID_129_">
	<path id="XMLID_20_" fill="#FFFFFF" d="M19.34,13.16v-2.77c0-1.76-1.41-3.19-3.15-3.2401v-4.2c0-1.63-1.17-2.95-2.6-2.95H8.22
		C6.8,0,5.64,1.32,5.64,2.95v4.2C3.89,7.19,2.48,8.63,2.48,10.39v7.4c0,1.79,1.46,3.25,3.25,3.25h4.49
		c1.07,1.78,3.01,2.96,5.23,2.96c3.38,0,6.12-2.74,6.12-6.12C21.57,15.98,20.7,14.28,19.34,13.16z M6.88,2.95
		c0-0.92,0.62-1.7,1.34-1.7H13.59c0.74,0,1.35,0.78,1.35,1.7v4.19H6.88V2.95z M9.64,15.98c-0.13-0.22-0.2-0.47-0.2-0.74
		c0-0.84,0.65-1.5,1.47-1.5h0.05C10.37,14.37,9.91,15.14,9.64,15.98z M15.45,22.74c-2.67,0-4.85-2.18-4.85-4.86
		s2.1801-4.86,4.85-4.86c2.68,0,4.86,2.1801,4.86,4.86S18.13,22.74,15.45,22.74z"/>
	<g id="XMLID_127_">
		<g id="XMLID_128_">
			<path id="XMLID_174_" fill="#FFFFFF" d="M15.4455,20.0347l0.0084,0.0084l0.0084-0.0084H15.4455z M15.4455,20.0347l0.0084,0.0084
				l0.0084-0.0084H15.4455z M15.4455,20.0347l0.0084,0.0084l0.0084-0.0084H15.4455z M15.4455,20.0347l0.0084,0.0084l0.0084-0.0084
				H15.4455z M15.4455,20.0347l0.0084,0.0084l0.0084-0.0084H15.4455z"/>
			<polygon id="XMLID_157_" fill="#FFFFFF" points="15.4624,20.0347 15.454,20.0431 15.4455,20.0347 			"/>
		</g>
		<g id="XMLID_185_">
			<path id="XMLID_191_" fill="#FFFFFF" d="M18.0298,17.7955l-0.0589-0.0505h-0.0084c-0.0926-0.0758-0.2189-0.1179-0.3872-0.1263
				c-0.1599,0.0084-0.3115,0.0842-0.4209,0.1936L16.119,18.873v-4.1837h-1.2795v4.2342l-1.0775-1.1027
				c-0.1094-0.1262-0.2525-0.1852-0.4377-0.202c-0.1684-0.0084-0.3115,0.0505-0.4462,0.1852
				c-0.1179,0.1094-0.1852,0.261-0.1852,0.4293c0,0.1684,0.0589,0.3199,0.1767,0.4377l2.1466,2.2223
				c0.1178,0.1094,0.2778,0.1767,0.4377,0.1767s0.3199-0.0673,0.4377-0.1852l2.1466-2.2139
				C18.274,18.4269,18.2656,18.0312,18.0298,17.7955z M15.454,20.0431l-0.0084-0.0084h0.0169L15.454,20.0431z"/>
			<path id="XMLID_150_" fill="#FFFFFF" d="M15.4455,20.0347l0.0084,0.0084l0.0084-0.0084H15.4455z M15.4455,20.0347l0.0084,0.0084
				l0.0084-0.0084H15.4455z M15.4455,20.0347l0.0084,0.0084l0.0084-0.0084H15.4455z"/>
		</g>
	</g>
</g>
</svg>
