<?xml version="1.0" encoding="utf-8"?>
<!-- Generator: Adobe Illustrator 19.1.0, SVG Export Plug-In . SVG Version: 6.00 Build 0)  -->
<svg version="1.1" id="Layer_1" xmlns="http://www.w3.org/2000/svg" xmlns:xlink="http://www.w3.org/1999/xlink" x="0px" y="0px"
	 viewBox="0 0 24 24" style="enable-background:new 0 0 24 24;" xml:space="preserve">
<style type="text/css">
	.st0{fill:#333333;}
	.st1{fill:#FFFFFF;}
</style>
<g>
	<g>
		<path class="st0" d="M19.315,23.43H4.685c-1.222,0-2.222-1-2.222-2.222V3.222C2.463,2,3.463,1,4.685,1h12.407l4.444,4.444v15.763
			C21.537,22.43,20.537,23.43,19.315,23.43z"/>
		<g>
			<path class="st1" d="M18.75,24H5.25C3.596,24,2,22.654,2,21V3c0-1.654,1.596-3,3.25-3H17l5,5v16C22,22.654,20.404,24,18.75,24z
				 M5.25,1C4.01,1,3,1.76,3,3v18c0,1.24,1.01,2,2.25,2h13.5c1.24,0,2.25-0.76,2.25-2V5l-4-4H5.25z"/>
		</g>
	</g>
	<polygon class="st1" points="17,1 17,5 21,5 	"/>
	<path class="st1" d="M17.814,12.149l-5.561-4.277c-0.087-0.067-0.207-0.067-0.294,0l-5.561,4.277
		c-0.182,0.14-0.083,0.432,0.147,0.432h0.979c0.133,0,0.241,0.108,0.241,0.241v4.823c0,0.133,0.108,0.241,0.241,0.241h2.396
		c0.133,0,0.241-0.108,0.241-0.241v-3.521c0-0.59,0.478-1.068,1.068-1.068h0.773c0.59,0,1.068,0.478,1.068,1.068v3.521
		c0,0.133,0.108,0.241,0.241,0.241h2.396c0.133,0,0.241-0.108,0.241-0.241v-4.823c0-0.133,0.108-0.241,0.241-0.241h0.994
		C17.897,12.581,17.996,12.289,17.814,12.149z"/>
</g>
</svg>
