<?xml version="1.0" encoding="utf-8"?>
<!-- Generator: Adobe Illustrator 19.1.0, SVG Export Plug-In . SVG Version: 6.00 Build 0)  -->
<!DOCTYPE svg PUBLIC "-//W3C//DTD SVG 1.1//EN" "http://www.w3.org/Graphics/SVG/1.1/DTD/svg11.dtd">
<svg version="1.1" id="Layer_1" xmlns="http://www.w3.org/2000/svg" xmlns:xlink="http://www.w3.org/1999/xlink" x="0px" y="0px"
	 viewBox="0 0 24 24" enable-background="new 0 0 24 24" xml:space="preserve">
<g>
	<circle fill="#FFFFFF" stroke="#DCDCDC" stroke-miterlimit="10" cx="12" cy="12" r="11"/>
	<path fill="#565656" d="M11.053,7.199c-0.276,0-0.5,0.224-0.5,0.5s0.224,0.5,0.5,0.5h4.107L8.198,15.16v-4.107
		c0-0.276-0.224-0.5-0.5-0.5s-0.5,0.224-0.5,0.5v5.749h5.749c0.276,0,0.5-0.224,0.5-0.5s-0.224-0.5-0.5-0.5H8.971l6.831-6.831v3.976
		c0,0.276,0.224,0.5,0.5,0.5s0.5-0.224,0.5-0.5V7.199L11.053,7.199L11.053,7.199z"/>
</g>
</svg>
