<?xml version="1.0" encoding="utf-8"?>
<!-- Generator: Adobe Illustrator 19.1.0, SVG Export Plug-In . SVG Version: 6.00 Build 0)  -->
<svg version="1.1" id="Layer_1" xmlns="http://www.w3.org/2000/svg" xmlns:xlink="http://www.w3.org/1999/xlink" x="0px" y="0px"
	 viewBox="0 0 32 32" style="enable-background:new 0 0 32 32;" xml:space="preserve">
<style type="text/css">
	.st0{fill:#9370B1;}
	.st1{fill:#FFFFFF;}
	.st2{fill:#7E5A8B;}
</style>
<g>
	<g>
		<g>
			<g>
				<g>
					<path class="st0" d="M24.808,31.487H7.192c-2.158,0-4.241-1.737-4.241-3.872V4.385c0-2.135,2.083-3.872,4.241-3.872h15.332
						l6.524,6.453v20.649C29.048,29.75,26.966,31.487,24.808,31.487z"/>
					<path class="st1" d="M24.808,32H7.192c-2.532,0-4.754-2.049-4.754-4.385V4.385C2.438,2.049,4.66,0,7.192,0h15.543l6.827,6.752
						v20.863C29.562,29.951,27.34,32,24.808,32z M7.192,1.027c-1.951,0-3.727,1.601-3.727,3.358v23.23
						c0,1.757,1.776,3.358,3.727,3.358h17.616c1.951,0,3.727-1.601,3.727-3.358V7.18l-6.221-6.153H7.192z"/>
				</g>
			</g>
		</g>
		<polygon class="st2" points="22.345,1.097 22.345,7.206 28.522,7.206 		"/>
	</g>
	<g>
		<g>
			<g>
				<path class="st2" d="M13.566,26.023c-0.304,0-0.572-0.361-0.573-0.686l0.025-3.183h-0.091c-2.073,0-4.198-1.022-4.198-3.195
					v-4.112c0-2.111,1.651-3.961,3.779-3.961h7.954c2.13,0,3.72,1.814,3.72,3.961v4.112c0,2.001-1.448,3.195-3.72,3.195h-3.374
					l-3.1,3.555C13.91,25.797,13.751,26.023,13.566,26.023z"/>
			</g>
		</g>
		<g>
			<g>
				<path class="st1" d="M12.657,25.114c-0.304,0-0.572-0.361-0.573-0.686l0.025-3.183h-0.091c-2.073,0-4.198-1.022-4.198-3.195
					v-4.112c0-2.111,1.651-3.961,3.779-3.961h7.954c2.13,0,3.72,1.814,3.72,3.961v4.112c0,2.001-1.448,3.195-3.72,3.195h-3.374
					l-3.1,3.555C13.001,24.888,12.842,25.114,12.657,25.114z"/>
			</g>
		</g>
	</g>
</g>
</svg>
