<?xml version="1.0" encoding="utf-8"?>
<!-- Generator: Adobe Illustrator 20.1.0, SVG Export Plug-In . SVG Version: 6.00 Build 0)  -->
<!DOCTYPE svg PUBLIC "-//W3C//DTD SVG 1.1//EN" "http://www.w3.org/Graphics/SVG/1.1/DTD/svg11.dtd">
<svg version="1.1" id="Layer_1" xmlns="http://www.w3.org/2000/svg" xmlns:xlink="http://www.w3.org/1999/xlink" x="0px" y="0px"
	 viewBox="0 0 24 24" enable-background="new 0 0 24 24" xml:space="preserve">
<path fill="#FFFFFF" d="M23,12c0,6.075-4.925,11-11,11S1,18.075,1,12S5.925,1,12,1S23,5.925,23,12z M13.008,4.22
	c-0.966,0-1.75,0.784-1.75,1.75s0.784,1.75,1.75,1.75s1.75-0.784,1.75-1.75S13.975,4.22,13.008,4.22z M8.75,10.98h1.709
	c0,0-0.334,2.378-0.959,4.878c-0.978,3.914,3.768,3.712,4.414,3.125l0.204-0.962c-1.981,0-1.55-1.462-1.55-1.462l1.409-7.577H9.125
	L8.75,10.98z"/>
</svg>
