<svg id="Layer_2" data-name="Layer 2" xmlns="http://www.w3.org/2000/svg" viewBox="0 0 32 32"><defs><style>.cls-1{fill:#627784;}.cls-2{fill:#fff;}.cls-3{fill:#4d575b;}</style></defs><title>mime</title><path class="cls-1" d="M7,31.5A3.5,3.5,0,0,1,3.5,28V4A3.5,3.5,0,0,1,7,.5H22.207L28.5,6.793V28A3.5,3.5,0,0,1,25,31.5H7Z"/><path class="cls-2" d="M22,1l6,6V28a3,3,0,0,1-3,3H7a3,3,0,0,1-3-3V4A3,3,0,0,1,7,1H22m0.414-1H7A4,4,0,0,0,3,4V28a4,4,0,0,0,4,4H25a4,4,0,0,0,4-4V6.586l-0.293-.293-6-6L22.414,0h0Z"/><polygon class="cls-3" points="22 1 22 7 28 7 22 1"/><rect class="cls-3" x="9.017" y="9.999" width="13.974" height="14.002" rx="1.279" ry="1.279"/><rect class="cls-2" x="9.017" y="9.02" width="13.974" height="14.002" rx="1.279" ry="1.279"/><path class="cls-3" d="M14.666,19.659l-2.942-2.942A1,1,0,0,1,13.138,15.3l1.528,1.528,4.2-4.2a1,1,0,0,1,1.414,1.414Z"/></svg>