<?xml version="1.0" encoding="utf-8"?>
<!-- Generator: Adobe Illustrator 19.2.1, SVG Export Plug-In . SVG Version: 6.00 Build 0)  -->
<svg version="1.1" xmlns="http://www.w3.org/2000/svg" xmlns:xlink="http://www.w3.org/1999/xlink" x="0px" y="0px"
	 viewBox="0 0 32 32" enable-background="new 0 0 32 32" xml:space="preserve">
<g id="Layer_1" display="none">
	<g id="Layer_1_11_" display="inline">
		<g>
			<circle fill="#FFFFFF" cx="16" cy="16" r="15.973"/>
			<circle fill="#188FE0" cx="16" cy="16" r="14.939"/>
		</g>
	</g>
	<path display="inline" fill="#FFFFFF" d="M19.372,6.228h-8.43c-1.67,0-3.029,1.359-3.029,3.029v13.487
		c0,1.67,1.359,3.029,3.029,3.029h10.115c1.67,0,3.029-1.359,3.029-3.029V10.728L19.372,6.228z M19.34,7.601l3.281,3.114H19.34
		V7.601z M21.058,24.772H10.942c-1.119,0-2.029-0.91-2.029-2.029V9.256c0-1.119,0.91-2.029,2.029-2.029h7.397v4.487h4.747v11.028
		C23.087,23.862,22.177,24.772,21.058,24.772z"/>
	<polygon display="inline" fill="#FFFFFF" points="18.97,7.228 18.97,10.921 23.638,10.921 19.34,6.843 	"/>
	<g display="inline">
		<path fill="#FFFFFF" d="M13.699,14.162l-1.106-2.38h1.036c0.074,0,0.128,0.01,0.159,0.03c0.031,0.02,0.058,0.053,0.079,0.1
			l0.672,1.61c0.012-0.023,0.024-0.045,0.038-0.066c0.015-0.021,0.029-0.044,0.046-0.07l0.896-1.456
			c0.033-0.054,0.068-0.091,0.107-0.114c0.038-0.022,0.084-0.033,0.138-0.033h1.197l-1.697,2.324l1.229,2.775H15.47
			c-0.074,0-0.133-0.019-0.175-0.056s-0.072-0.079-0.091-0.126l-0.753-1.873c-0.009,0.017-0.02,0.032-0.029,0.046
			c-0.011,0.014-0.021,0.028-0.03,0.042L13.265,16.7c-0.044,0.067-0.096,0.115-0.153,0.142c-0.059,0.027-0.122,0.04-0.189,0.04
			h-1.141L13.699,14.162z"/>
	</g>
	<g display="inline">
		<rect x="11.781" y="21.18" fill="#FFFFFF" width="8.438" height="1"/>
		<polygon fill="#FFFFFF" points="11.781,18.382 11.781,19.382 16.684,19.382 16.684,19.382 16.684,18.382 		"/>
	</g>
	<g display="inline">
		<g>
			<path fill="#FFFFFF" stroke="#FFFFFF" stroke-width="0.1" stroke-miterlimit="10" d="M44.622,16.444
				c0,0.225,0.181,0.407,0.404,0.407c0.222,0,0.402-0.182,0.402-0.407c0-0.224-0.181-0.407-0.402-0.407
				C44.803,16.037,44.622,16.219,44.622,16.444z"/>
			<path fill="#FFFFFF" stroke="#FFFFFF" stroke-width="0.1" stroke-miterlimit="10" d="M46.395,18.216
				c0,0.224,0.181,0.407,0.403,0.407s0.404-0.183,0.404-0.407c0-0.225-0.182-0.408-0.404-0.408S46.395,17.991,46.395,18.216z"/>
			
				<ellipse fill="#FFFFFF" stroke="#FFFFFF" stroke-width="0.1" stroke-miterlimit="10" cx="47.463" cy="20.646" rx="0.436" ry="0.441"/>
			
				<ellipse fill="#FFFFFF" stroke="#FFFFFF" stroke-width="0.1" stroke-miterlimit="10" cx="46.798" cy="23.082" rx="0.52" ry="0.526"/>
			<path fill="#FFFFFF" stroke="#FFFFFF" stroke-width="0.1" stroke-miterlimit="10" d="M44.505,24.875
				c0,0.29,0.233,0.526,0.52,0.526c0.287,0,0.519-0.236,0.519-0.526s-0.233-0.526-0.519-0.526
				C44.738,24.35,44.505,24.586,44.505,24.875z"/>
			<path fill="#FFFFFF" stroke="#FFFFFF" stroke-width="0.1" stroke-miterlimit="10" d="M42.044,25.566
				c0,0.322,0.259,0.583,0.578,0.583c0.318,0,0.577-0.262,0.577-0.583c0-0.322-0.259-0.583-0.577-0.583
				C42.302,24.983,42.044,25.243,42.044,25.566z"/>
			
				<ellipse fill="#FFFFFF" stroke="#FFFFFF" stroke-width="0.1" stroke-miterlimit="10" cx="40.21" cy="24.875" rx="0.577" ry="0.584"/>
			<path fill="#FFFFFF" stroke="#FFFFFF" stroke-width="0.1" stroke-miterlimit="10" d="M37.759,23.082
				c0,0.367,0.295,0.665,0.658,0.665c0.364,0,0.658-0.298,0.658-0.665c0-0.366-0.295-0.664-0.658-0.664
				C38.054,22.418,37.759,22.716,37.759,23.082z"/>
			<path fill="#FFFFFF" stroke="#FFFFFF" stroke-width="0.1" stroke-miterlimit="10" d="M37.101,20.646
				c0,0.367,0.295,0.664,0.658,0.664c0.364,0,0.658-0.298,0.658-0.664c0-0.368-0.294-0.664-0.658-0.664
				C37.396,19.982,37.101,20.278,37.101,20.646z"/>
			<path fill="#FFFFFF" stroke="#FFFFFF" stroke-width="0.1" stroke-miterlimit="10" d="M37.658,18.216
				c0,0.423,0.339,0.766,0.758,0.766c0.419,0,0.759-0.343,0.759-0.766c0-0.424-0.34-0.767-0.759-0.767
				C37.997,17.449,37.658,17.793,37.658,18.216z"/>
			<path fill="#FFFFFF" stroke="#FFFFFF" stroke-width="0.1" stroke-miterlimit="10" d="M39.451,16.444
				c0,0.424,0.339,0.767,0.758,0.767c0.419,0,0.759-0.343,0.759-0.767c0-0.422-0.341-0.766-0.759-0.766
				C39.791,15.678,39.451,16.022,39.451,16.444z"/>
			<path fill="#FFFFFF" stroke="#FFFFFF" stroke-width="0.1" stroke-miterlimit="10" d="M41.795,15.773
				c0,0.46,0.37,0.834,0.826,0.834c0.455,0,0.825-0.373,0.825-0.834c0-0.461-0.37-0.834-0.825-0.834
				C42.165,14.939,41.795,15.312,41.795,15.773z"/>
		</g>
	</g>
	<g display="inline">
		<g>
			<path fill="#FFFFFF" d="M46.253,7.667h-9.382c-1.859,0-3.371,1.513-3.371,3.371v15.011c0,1.859,1.513,3.371,3.371,3.371h11.258
				c1.859,0,3.371-1.513,3.371-3.371V12.675L46.253,7.667z M50.388,26.048c0,1.245-1.013,2.258-2.258,2.258H36.871
				c-1.245,0-2.258-1.013-2.258-2.258V11.037c0-1.245,1.013-2.258,2.258-2.258h8.233v4.994h5.283v12.275H50.388z"/>
		</g>
	</g>
</g>
<g id="equipment_x5F_tag" display="none">
	<g id="Layer_2_1_" display="inline">
		<g id="Layer_1_2_">
			<g>
				<circle fill="#FFFFFF" cx="16" cy="16" r="15.973"/>
				<circle fill="#188FE0" cx="16" cy="16" r="14.939"/>
			</g>
		</g>
		<g>
			<g>
				<g>
					<path fill="#FFFFFF" d="M15.336,7.583L6.12,16.799c-0.835,0.835-0.835,2.188,0,3.022l6.06,6.059
						c0.835,0.835,2.188,0.835,3.022,0l9.215-9.215c0.402-0.401,0.627-0.674,0.627-1.237v-4.919c0-0.567-0.225-1.11-0.626-1.511
						l-1.415-1.415c-0.401-0.4-0.945-0.626-1.512-0.626h-4.645C16.28,6.956,15.736,7.182,15.336,7.583z M22.727,10.277
						c0.169,0.897-0.6,1.667-1.496,1.501c-0.499-0.092-0.908-0.498-1.006-0.997c-0.176-0.902,0.601-1.681,1.503-1.508
						C22.225,9.369,22.633,9.778,22.727,10.277z"/>
				</g>
			</g>
			<path fill="#188FE0" d="M18.034,18.574l-4.608-4.608c-0.253-0.253-0.668-0.253-0.921,0l0,0c-0.253,0.253-0.253,0.668,0,0.921
				l4.608,4.608c0.253,0.253,0.668,0.253,0.921,0l0,0C18.288,19.242,18.288,18.827,18.034,18.574z"/>
			<path fill="#188FE0" d="M16.191,20.417l-4.608-4.608c-0.253-0.253-0.668-0.253-0.921,0l0,0c-0.253,0.253-0.253,0.668,0,0.921
				l4.607,4.608c0.253,0.253,0.668,0.253,0.921,0l0,0C16.445,21.085,16.445,20.671,16.191,20.417z"/>
			<path fill="#188FE0" d="M14.348,22.26L9.74,17.652c-0.253-0.253-0.668-0.253-0.921,0l0,0c-0.253,0.253-0.253,0.668,0,0.921
				l4.608,4.608c0.253,0.253,0.668,0.253,0.921,0l0,0C14.601,22.928,14.601,22.513,14.348,22.26z"/>
		</g>
	</g>
</g>
<g id="my_work_space_HS" display="none">
	<g id="Layer_1_1_" display="inline">
		<g>
			<circle fill="#FFFFFF" cx="16" cy="16" r="15.973"/>
			<circle fill="#00A4D8" cx="16" cy="16" r="14.939"/>
		</g>
	</g>
	<g display="inline" opacity="0.2">
		<g>
			<path d="M23.758,13.26h-4.18v3.693c0,1.296-1.054,2.35-2.35,2.35h-3.693v4.18c0,1.1,0.9,2,2,2h8.224c1.1,0,2-0.9,2-2V15.26
				C25.758,14.16,24.858,13.26,23.758,13.26z"/>
			<g>
				<path d="M13.184,15.26c0-1.296,1.054-2.35,2.35-2.35h3.344V8.73c0-0.91-0.741-1.65-1.651-1.65H9.003
					c-0.91,0-1.65,0.74-1.65,1.65v8.224c0,0.91,0.74,1.651,1.65,1.651h4.181V15.26z"/>
				<path d="M18.878,16.953V13.61h-3.344c-0.91,0-1.65,0.74-1.65,1.65v3.344h3.343C18.137,18.604,18.878,17.863,18.878,16.953z"/>
			</g>
		</g>
	</g>
	<g display="inline">
		<path fill="#FFFFFF" d="M23.202,12.697h-4.18v3.693c0,1.296-1.054,2.35-2.35,2.35h-3.693v4.18c0,1.1,0.9,2,2,2h8.224
			c1.1,0,2-0.9,2-2v-8.224C25.202,13.597,24.302,12.697,23.202,12.697z"/>
		<g>
			<path fill="#FFFFFF" d="M12.629,14.697c0-1.296,1.054-2.35,2.35-2.35h3.344V8.166c0-0.91-0.741-1.65-1.651-1.65H8.448
				c-0.91,0-1.65,0.74-1.65,1.65v8.224c0,0.91,0.74,1.651,1.65,1.651h4.181V14.697z"/>
			<path fill="#FFFFFF" d="M18.322,16.39v-3.343h-3.344c-0.91,0-1.65,0.74-1.65,1.65v3.344h3.343
				C17.581,18.041,18.322,17.3,18.322,16.39z"/>
		</g>
	</g>
</g>
<g id="overdue_items_HS" display="none">
	<g id="Layer_1_8_" display="inline">
		<g>
			<circle fill="#FFFFFF" cx="16" cy="16" r="15.973"/>
			<circle fill="#EA5E5E" cx="16" cy="16" r="14.939"/>
		</g>
	</g>
	<g display="inline">
		<g>
			<path fill="#FFFFFF" d="M18.93,8.131h-6.44c-1.276,0-2.314,1.038-2.314,2.314v10.302c0,1.276,1.038,2.314,2.314,2.314h7.727
				c1.276,0,2.314-1.038,2.314-2.314v-9.179L18.93,8.131z M21.767,20.747c0,0.855-0.695,1.55-1.55,1.55H12.49
				c-0.855,0-1.55-0.695-1.55-1.55V10.444c0-0.855,0.695-1.55,1.55-1.55h5.65v3.428h3.626L21.767,20.747L21.767,20.747z"/>
			<g>
				<path fill="#FFFFFF" d="M21.805,5.756h-6.44c-1.276,0-2.314,1.038-2.314,2.314v0.428h0.764V8.069c0-0.855,0.695-1.55,1.55-1.55
					h5.65v3.427h3.626v8.425h0.001c0,0.855-0.695,1.55-1.55,1.55h-1.044v0.765h1.043c1.276,0,2.314-1.038,2.314-2.314V9.194
					L21.805,5.756z"/>
			</g>
		</g>
	</g>
	<g display="inline">
		<g>
			<g>
				<circle fill="#EA5E5E" stroke="#FFFFFF" stroke-miterlimit="10" cx="10.612" cy="20.898" r="4.253"/>
			</g>
		</g>
		<polyline fill="none" stroke="#FFFFFF" stroke-width="0.8" stroke-linecap="round" stroke-miterlimit="10" points="10.71,18.375 
			10.71,21.087 12.382,21.721 		"/>
	</g>
</g>
<g id="bulk_load-HS" display="none">
	<g id="fave_icon_-_selected" display="inline">
	</g>
	<g id="Layer_1_3_" display="inline">
		<g>
			<circle fill="#FFFFFF" cx="16" cy="16" r="15.973"/>
			<circle fill="#EA5E5E" cx="16" cy="16" r="14.939"/>
		</g>
	</g>
	<g display="inline">
		<g>
			<g>
				<g>
					<path fill="#FFFFFF" d="M19.397,9.301h-6.872c-1.361,0-2.469,1.108-2.469,2.469v10.994c0,1.361,1.108,2.469,2.469,2.469h8.245
						c1.361,0,2.469-1.108,2.469-2.469v-9.795L19.397,9.301z M22.426,22.763c0,0.912-0.742,1.654-1.654,1.654h-8.246
						c-0.912,0-1.654-0.742-1.654-1.654V11.769c0-0.912,0.742-1.654,1.654-1.654h6.03v3.658h3.869L22.426,22.763L22.426,22.763z"/>
					<g>
						<path fill="#FFFFFF" d="M22.465,6.767h-6.872c-1.361,0-2.469,1.108-2.469,2.469v0.457h0.815V9.235
							c0-0.912,0.742-1.654,1.654-1.654h6.03v3.657h3.869v8.99h0.001c0,0.912-0.742,1.654-1.654,1.654h-1.114v0.816h1.113
							c1.361,0,2.469-1.108,2.469-2.469v-9.795L22.465,6.767z"/>
					</g>
				</g>
			</g>
		</g>
		<g>
			<g>
				<path fill="#FFFFFF" d="M19.019,22.197H5.293c-0.55,0-1-0.45-1-1V17.53c0-0.55,0.45-1,1-1h13.725c0.55,0,1,0.45,1,1v3.667
					C20.019,21.747,19.569,22.197,19.019,22.197z"/>
			</g>
			<g>
				<g>
					<path fill="#EA5E5E" d="M6.116,21.601c-0.276,0-0.5-0.224-0.5-0.5v-3.489c0-0.276,0.224-0.5,0.5-0.5s0.5,0.224,0.5,0.5v3.489
						C6.616,21.378,6.392,21.601,6.116,21.601z"/>
				</g>
				<g>
					<path fill="#EA5E5E" d="M7.828,21.615c-0.249,0-0.45-0.205-0.45-0.457v-3.539c0-0.252,0.202-0.457,0.45-0.457
						c0.249,0,0.45,0.205,0.45,0.457v3.539C8.279,21.41,8.077,21.615,7.828,21.615z"/>
				</g>
				<g>
					<path fill="#EA5E5E" d="M9.539,21.615c-0.221,0-0.4-0.186-0.4-0.416v-3.621c0-0.23,0.179-0.416,0.4-0.416s0.4,0.186,0.4,0.416
						v3.621C9.939,21.429,9.76,21.615,9.539,21.615z"/>
				</g>
				<g>
					<path fill="#EA5E5E" d="M11.029,21.6c-0.193,0-0.35-0.166-0.35-0.371v-3.696c0-0.205,0.157-0.371,0.35-0.371
						s0.35,0.166,0.35,0.371v3.696C11.38,21.434,11.223,21.6,11.029,21.6z"/>
				</g>
				<g>
					<path fill="#EA5E5E" d="M12.427,21.615c-0.166,0-0.3-0.147-0.3-0.327v-3.798c0-0.181,0.134-0.327,0.3-0.327
						s0.3,0.147,0.3,0.327v3.798C12.727,21.468,12.593,21.615,12.427,21.615z"/>
				</g>
				<g>
					<path fill="#EA5E5E" d="M13.579,21.6c-0.138,0-0.25-0.125-0.25-0.279v-3.88c0-0.154,0.112-0.279,0.25-0.279
						s0.25,0.125,0.25,0.279v3.88C13.829,21.475,13.716,21.6,13.579,21.6z"/>
				</g>
				<g>
					<path fill="#EA5E5E" d="M14.615,21.6c-0.11,0-0.2-0.101-0.2-0.224v-3.974c0-0.124,0.09-0.224,0.2-0.224s0.2,0.101,0.2,0.224
						v3.974C14.815,21.499,14.725,21.6,14.615,21.6z"/>
				</g>
				<g>
					<path fill="#EA5E5E" d="M15.601,21.603c-0.083,0-0.15-0.079-0.15-0.176v-4.088c0-0.097,0.067-0.176,0.15-0.176
						s0.15,0.079,0.15,0.176v4.088C15.752,21.524,15.684,21.603,15.601,21.603z"/>
				</g>
				<g>
					<path fill="#EA5E5E" d="M16.514,21.603c-0.056,0-0.1-0.054-0.1-0.121v-4.199c0-0.067,0.044-0.121,0.1-0.121
						s0.1,0.054,0.1,0.121v4.199C16.614,21.549,16.57,21.603,16.514,21.603z"/>
				</g>
				<g>
					<path fill="#EA5E5E" d="M17.342,21.603c-0.027,0-0.05-0.027-0.05-0.062v-4.317c0-0.035,0.022-0.062,0.05-0.062
						s0.05,0.027,0.05,0.062v4.317C17.392,21.576,17.37,21.603,17.342,21.603z"/>
				</g>
			</g>
		</g>
	</g>
</g>
<g id="bulk_load-MT" display="none">
	<g id="Layer_7" display="inline">
	</g>
	<g id="Layer_7_1_" display="inline">
	</g>
	<g display="inline">
		<g id="Layer_5_1_">
			<g>
				<g>
					<g>
						<path fill="#9370B1" stroke="#FFFFFF" stroke-miterlimit="10" d="M14.368,25.778c-1.454,0-2.636-1.182-2.636-2.636V5.066
							c0-1.454,1.182-2.636,2.636-2.636h11.453l4.74,4.74v15.972c0,1.454-1.182,2.636-2.636,2.636H14.368z"/>
					</g>
				</g>
				<polygon fill="#735796" points="25.597,3.022 25.597,7.386 29.962,7.386 				"/>
			</g>
		</g>
		<g id="Layer_5">
			<g>
				<g>
					<g>
						<path fill="#00A389" stroke="#FFFFFF" stroke-miterlimit="10" d="M10.644,29.709c-1.454,0-2.636-1.182-2.636-2.636V8.998
							c0-1.454,1.182-2.636,2.636-2.636h11.453l4.74,4.74v15.972c0,1.454-1.182,2.636-2.636,2.636H10.644z"/>
					</g>
				</g>
				<polygon fill="#00795A" points="21.835,6.948 21.835,11.313 26.199,11.313 				"/>
			</g>
		</g>
		<path fill="#00795A" d="M8.509,25.275h11.528c1.055,0,1.914-0.897,1.914-2v-4.82c0-1.103-0.859-2-1.914-2H8.509V25.275z"/>
		<g>
			<g>
				<g>
					<path fill="#EA5E5E" d="M2.439,24.22c-0.799,0-1.45-0.65-1.45-1.45v-4.82c0-0.8,0.651-1.45,1.45-1.45h16.927
						c0.8,0,1.45,0.65,1.45,1.45v4.82c0,0.8-0.65,1.45-1.45,1.45H2.439z"/>
					<path fill="#FFFFFF" d="M19.366,16.949c0.55,0,1,0.45,1,1v4.82c0,0.55-0.45,1-1,1H2.439c-0.55,0-1-0.45-1-1v-4.82
						c0-0.55,0.45-1,1-1H19.366 M19.366,16.049H2.439c-1.048,0-1.9,0.852-1.9,1.9v4.82c0,1.048,0.852,1.9,1.9,1.9h16.926
						c1.048,0,1.9-0.852,1.9-1.9v-4.82C21.266,16.902,20.414,16.049,19.366,16.049L19.366,16.049z"/>
				</g>
			</g>
			<g>
				<g>
					<path fill="#FFFFFF" d="M3.633,23.053c-0.333,0-0.602-0.269-0.602-0.602v-4.199c0-0.333,0.269-0.602,0.602-0.602
						s0.602,0.269,0.602,0.602v4.199C4.235,22.783,3.965,23.053,3.633,23.053z"/>
				</g>
				<g>
					<path fill="#FFFFFF" d="M5.694,23.069c-0.299,0-0.542-0.246-0.542-0.55v-4.26c0-0.303,0.243-0.55,0.542-0.55
						c0.299,0,0.542,0.246,0.542,0.55v4.26C6.236,22.823,5.993,23.069,5.694,23.069z"/>
				</g>
				<g>
					<path fill="#FFFFFF" d="M7.753,23.069c-0.266,0-0.481-0.224-0.481-0.501V18.21c0-0.276,0.216-0.501,0.481-0.501
						c0.266,0,0.481,0.224,0.481,0.501v4.358C8.234,22.845,8.019,23.069,7.753,23.069z"/>
				</g>
				<g>
					<path fill="#FFFFFF" d="M9.547,23.051c-0.233,0-0.421-0.2-0.421-0.446v-4.448c0-0.247,0.189-0.446,0.421-0.446
						s0.421,0.2,0.421,0.446v4.448C9.968,22.851,9.779,23.051,9.547,23.051z"/>
				</g>
				<g>
					<path fill="#FFFFFF" d="M11.229,23.069c-0.2,0-0.361-0.176-0.361-0.394v-4.572c0-0.217,0.161-0.394,0.361-0.394
						c0.2,0,0.361,0.176,0.361,0.394v4.572C11.59,22.893,11.429,23.069,11.229,23.069z"/>
				</g>
				<g>
					<path fill="#FFFFFF" d="M12.615,23.051c-0.166,0-0.301-0.15-0.301-0.335v-4.67c0-0.185,0.135-0.335,0.301-0.335
						s0.301,0.15,0.301,0.335v4.67C12.916,22.901,12.781,23.051,12.615,23.051z"/>
				</g>
				<g>
					<path fill="#FFFFFF" d="M13.862,23.051c-0.133,0-0.241-0.121-0.241-0.27v-4.783c0-0.149,0.108-0.27,0.241-0.27
						s0.241,0.121,0.241,0.27v4.783C14.103,22.93,13.995,23.051,13.862,23.051z"/>
				</g>
				<g>
					<path fill="#FFFFFF" d="M15.049,23.054c-0.1,0-0.181-0.095-0.181-0.212v-4.921c0-0.117,0.081-0.212,0.181-0.212
						c0.1,0,0.181,0.095,0.181,0.212v4.921C15.23,22.96,15.149,23.054,15.049,23.054z"/>
				</g>
				<g>
					<path fill="#FFFFFF" d="M16.148,23.054c-0.067,0-0.12-0.065-0.12-0.145v-5.054c0-0.08,0.053-0.145,0.12-0.145
						c0.067,0,0.12,0.065,0.12,0.145v5.054C16.268,22.989,16.215,23.054,16.148,23.054z"/>
				</g>
				<g>
					<path fill="#FFFFFF" d="M17.145,23.054c-0.033,0-0.06-0.033-0.06-0.074v-5.196c0-0.042,0.027-0.074,0.06-0.074
						c0.033,0,0.06,0.033,0.06,0.074v5.196C17.205,23.022,17.178,23.054,17.145,23.054z"/>
				</g>
			</g>
		</g>
		<g id="Layer_7_2_">
		</g>
	</g>
</g>
<g id="work_package" display="none">
	<g id="shortcut_overlay">
		<g id="Shortcut" display="inline">
		</g>
	</g>
	<g display="inline">
		<g>
			<g id="Layer_1_4_">
				<g id="Ppt">
				</g>
				<g id="Small_Folder">
				</g>
				<g id="fave_icon_-_selected_1_">
				</g>
				<g id="Shortcut_1_">
				</g>
				<g id="comment_icon_-_selected">
				</g>
				<g id="Comment_icon">
				</g>
				<g>
					<path fill="#FFFFFF" d="M16.07,30.982c-0.342,0-0.687-0.109-0.996-0.315L3.079,23.761c-0.635-0.421-0.983-1.012-0.983-1.638
						V9.783c0-0.617,0.347-1.217,0.928-1.604l12.21-6.884c0.257-0.174,0.586-0.277,0.917-0.277c0.342,0,0.687,0.109,0.997,0.317
						l11.989,6.807c0.639,0.421,0.988,1.013,0.988,1.641v12.436c0,0.617-0.347,1.217-0.928,1.604l-12.211,6.884
						C16.729,30.88,16.401,30.982,16.07,30.982z"/>
					<path fill="#FFFFFF" d="M16.151,1.518c0.241,0,0.485,0.077,0.718,0.232L28.89,8.577c0.471,0.312,0.735,0.756,0.735,1.206
						v12.436c0,0.45-0.264,0.894-0.705,1.188L16.741,30.27c-0.21,0.141-0.439,0.212-0.672,0.212c-0.241,0-0.486-0.076-0.718-0.231
						L3.328,23.327c-0.469-0.312-0.732-0.755-0.732-1.204V9.783c0-0.45,0.264-0.894,0.705-1.188l12.178-6.864
						C15.689,1.59,15.918,1.518,16.151,1.518 M16.151,0.518c-0.417,0-0.829,0.124-1.193,0.358L2.81,7.724L2.777,7.742L2.746,7.763
						c-0.721,0.48-1.151,1.235-1.151,2.02v12.34c0,0.797,0.43,1.539,1.179,2.037l0.027,0.018l0.028,0.016l11.998,6.909
						c0.384,0.248,0.813,0.379,1.243,0.379c0.417,0,0.828-0.123,1.191-0.357l12.15-6.848l0.032-0.018l0.031-0.021
						c0.721-0.48,1.151-1.235,1.151-2.02V9.783c0-0.798-0.431-1.541-1.182-2.039l-0.029-0.019l-0.03-0.017l-11.993-6.81
						C17.008,0.649,16.58,0.518,16.151,0.518L16.151,0.518z"/>
				</g>
			</g>
		</g>
		<g>
			<g id="Layer_1_5_">
				<g id="Ppt_1_">
				</g>
				<g id="Small_Folder_1_">
				</g>
				<g id="fave_icon_-_selected_2_">
				</g>
				<g id="Shortcut_2_">
				</g>
				<g id="comment_icon_-_selected_1_">
				</g>
				<g id="Comment_icon_1_">
				</g>
				<g>
					<g>
						<polygon fill="#0072AA" points="29.125,22.701 16.11,30.027 16.11,16.627 29.125,9.59 						"/>
						<polygon fill="#00A4D8" points="3.096,22.701 16.11,30.027 16.11,16.627 3.096,9.59 						"/>
						<polygon fill="#00A4D8" points="3.578,9.3 16.11,16.434 28.643,9.3 16.11,2.07 						"/>
					</g>
					<line fill="none" stroke="#0072AA" stroke-miterlimit="10" x1="9.362" y1="12.578" x2="21.991" y2="5.348"/>
					<g>
						<g>
							
								<line fill="none" stroke="#004B71" stroke-linecap="round" stroke-miterlimit="10" x1="16.11" y1="29.449" x2="16.11" y2="16.627"/>
							<path fill="none" stroke="#004B71" stroke-linecap="round" stroke-miterlimit="10" d="M28.863,9.449l-12.271,6.985
								c-0.289,0.193-0.578,0.193-0.868,0L3.578,9.59"/>
							<path fill="none" stroke="#004B71" stroke-linecap="round" stroke-miterlimit="10" d="M29.125,22.219
								c0,0.289-0.193,0.578-0.482,0.771l-12.147,6.845c-0.289,0.193-0.578,0.193-0.868,0L3.578,22.893
								c-0.289-0.193-0.482-0.482-0.482-0.771V9.782c0-0.289,0.193-0.578,0.482-0.771l12.147-6.845c0.289-0.193,0.578-0.193,0.868,0
								l12.051,6.845c0.289,0.193,0.482,0.482,0.482,0.771V22.219z"/>
						</g>
					</g>
				</g>
			</g>
			<g opacity="0.4">
				<polygon points="13.218,26.942 14.182,27.521 14.182,21.737 13.218,21.158 				"/>
				<polygon points="10.326,25.304 12.254,26.364 12.254,20.58 10.326,19.519 				"/>
				<polygon points="8.398,24.147 9.362,24.725 9.362,18.941 8.398,18.362 				"/>
				<polygon points="6.47,23.086 7.434,23.665 7.434,17.88 6.47,17.302 				"/>
				<polygon points="4.542,21.929 5.506,22.508 5.506,16.724 4.542,16.145 				"/>
			</g>
		</g>
		<polygon opacity="0.27" fill="#FFFFFF" points="20.227,4.796 7.434,12.251 7.434,16.905 8.535,16.145 10.085,18.362 10.189,14.04 
			23.003,6.446 		"/>
	</g>
</g>
<g id="project" display="none">
	<g display="inline">
		<path fill="#D3DEE5" d="M29,23.032c0,0.32-0.169,0.615-0.445,0.775l-3.498,2.032l-8.613,5.003c-0.275,0.16-0.614,0.16-0.889,0
			l-12.11-7.035C3.169,23.647,3,23.352,3,23.032V8.963c0-0.32,0.169-0.615,0.445-0.775l12.11-7.035c0.275-0.16,0.614-0.16,0.889,0
			l12.111,7.035C28.831,8.348,29,8.643,29,8.963V23.032z"/>
		<polygon fill="#8797A1" points="29,23.032 16,31.033 16,16.033 29,8.033 		"/>
		<polygon fill="#EEF2F5" points="3,8.033 16,16.033 29,8.033 16,1.033 		"/>
		<path fill="#4D575B" d="M29.058,7.323l-12.11-7.034c-0.575-0.334-1.321-0.334-1.895,0L2.941,7.323C2.36,7.661,2,8.29,2,8.963
			v14.069c0,0.673,0.36,1.302,0.942,1.64l12.11,7.034c0.288,0.167,0.615,0.256,0.948,0.256s0.66-0.089,0.947-0.255l12.112-7.035
			C29.64,24.334,30,23.705,30,23.032V8.963C30,8.29,29.64,7.661,29.058,7.323z M16,2.052l11.578,6.724l-11.385,6.613
			c-0.119,0.067-0.266,0.069-0.386-0.001L4.422,8.776L16,2.052z M4,22.973V9.687l11.304,6.565c0.042,0.025,0.089,0.036,0.134,0.056
			v13.308L4,22.973z M16.438,29.689V16.361c0.088-0.029,0.176-0.06,0.257-0.107L28,9.687v13.286L16.438,29.689z"/>
	</g>
	<g id="fave_icon_-_selected_3_" display="inline">
	</g>
</g>
<g id="transmittal_HS" display="none">
	<g id="Layer_1_6_" display="inline">
		<g>
			<circle fill="#FFFFFF" cx="16" cy="16" r="15.973"/>
			<circle fill="#83649B" cx="16" cy="16" r="14.939"/>
		</g>
	</g>
	<g display="inline">
		<g>
			<g>
				<path fill="#FFFFFF" d="M19.767,18.631c0.221-0.222,0.221-0.495,0-0.716l-1.75-1.672h9.419c0.312,0,0.565-0.415,0.565-0.729
					c0-0.313-0.253-0.729-0.565-0.729h-9.402l1.733-1.663c0.221-0.222,0.221-0.543,0-0.764c-0.221-0.222-0.578-0.203-0.799,0.019
					l-3.106,3.127l3.106,3.122C19.189,18.848,19.546,18.853,19.767,18.631"/>
			</g>
			<g>
				<path fill="#FFFFFF" d="M24.095,17.049c-0.221,0.222-0.221,0.495,0,0.716l1.75,1.672h-9.419c-0.312,0-0.565,0.415-0.565,0.729
					c0,0.313,0.253,0.729,0.565,0.729h9.402l-1.733,1.663c-0.221,0.222-0.221,0.543,0,0.764c0.221,0.222,0.578,0.203,0.799-0.019
					L28,20.175l-3.106-3.122C24.673,16.832,24.315,16.827,24.095,17.049"/>
			</g>
			<path fill="#FFFFFF" d="M12.556,12.863h-3.35c-0.301,0-0.545-0.244-0.545-0.545v0c0-0.301,0.244-0.545,0.545-0.545h3.35
				c0.301,0,0.545,0.244,0.545,0.545v0C13.102,12.619,12.857,12.863,12.556,12.863z"/>
			<path fill="#FFFFFF" d="M14.661,16.044H9.207c-0.301,0-0.545-0.244-0.545-0.545v0c0-0.301,0.244-0.545,0.545-0.545h5.455
				c0.301,0,0.545,0.244,0.545,0.545v0C15.207,15.8,14.963,16.044,14.661,16.044z"/>
			<path fill="#FFFFFF" d="M14.661,19.225H9.207c-0.301,0-0.545-0.244-0.545-0.545l0,0c0-0.301,0.244-0.545,0.545-0.545h5.455
				c0.301,0,0.545,0.244,0.545,0.545l0,0C15.207,18.981,14.963,19.225,14.661,19.225z"/>
			<path fill="#FFFFFF" d="M14.661,22.406H9.207c-0.301,0-0.545-0.244-0.545-0.545v0c0-0.301,0.244-0.545,0.545-0.545h5.455
				c0.301,0,0.545,0.244,0.545,0.545v0C15.207,22.162,14.963,22.406,14.661,22.406z"/>
		</g>
		<g>
			<path fill="#FFFFFF" d="M21.287,21.425v1.368h0.001c0,1.127-0.917,2.044-2.044,2.044H9.052c-1.127,0-2.044-0.917-2.044-2.044
				V9.205c0-1.127,0.917-2.044,2.044-2.044h7.452v4.521h2.832c0.016-0.001,0.031-0.01,0.048-0.01c0.018,0,0.032,0.009,0.05,0.01
				h1.853v2.574h1.008v-3.567l-4.749-4.534H9.052C7.369,6.154,6,7.523,6,9.206v13.588c0,1.683,1.369,3.052,3.052,3.052h10.191
				c1.682,0,3.052-1.369,3.052-3.052v-1.369H21.287z"/>
			<rect x="21.287" y="16.773" fill="#FFFFFF" width="1.008" height="2.134"/>
		</g>
	</g>
</g>
<g id="transmittal_MT" display="none">
	<g display="inline">
		<path fill="#9370B1" stroke="#FFFFFF" stroke-miterlimit="10" d="M4.923,31.157c-1.887,0-3.423-1.535-3.423-3.423V4.265
			c0-1.887,1.535-3.423,3.423-3.423h14.871l6.154,6.154v20.738c0,1.887-1.535,3.423-3.423,3.423H4.923z"/>
		<polygon fill="#735796" points="19.546,1.455 19.512,7.279 25.334,7.238 		"/>
	</g>
	<g display="inline">
		<path fill="#FFFFFF" d="M14.028,19.216H6.419c-0.345,0-0.625-0.28-0.625-0.625v-0.199c0-0.345,0.28-0.625,0.625-0.625h7.609
			c0.345,0,0.625,0.28,0.625,0.625v0.199C14.653,18.936,14.374,19.216,14.028,19.216z"/>
		<path fill="#FFFFFF" d="M13.799,14.186H6.19c-0.345,0-0.625-0.28-0.625-0.625v-0.199c0-0.345,0.28-0.625,0.625-0.625h7.609
			c0.345,0,0.625,0.28,0.625,0.625v0.199C14.424,13.906,14.144,14.186,13.799,14.186z"/>
		<path fill="#FFFFFF" d="M14.028,24.122H6.419c-0.345,0-0.625-0.28-0.625-0.625v-0.199c0-0.345,0.28-0.625,0.625-0.625h7.609
			c0.345,0,0.625,0.28,0.625,0.625v0.199C14.653,23.842,14.374,24.122,14.028,24.122z"/>
	</g>
	<g display="inline">
		<g>
			<path fill="#DD8100" d="M21.354,17.785c-0.337,0-0.654-0.131-0.894-0.37l-3.953-3.954l3.953-3.954
				c0.238-0.239,0.557-0.37,0.895-0.37s0.656,0.131,0.895,0.37c0.239,0.239,0.37,0.557,0.37,0.895c0,0.337-0.131,0.655-0.37,0.894
				l-0.898,0.898h8.675c0.697,0,1.265,0.567,1.265,1.265c0,0.697-0.567,1.265-1.265,1.265h-8.679l0.901,0.902
				c0.493,0.493,0.493,1.295,0,1.789C22.009,17.654,21.691,17.785,21.354,17.785z"/>
			<path fill="#FFFFFF" d="M21.354,9.637c0.196,0,0.392,0.074,0.541,0.224c0.299,0.299,0.299,0.783,0,1.081l-1.752,1.752h9.882
				c0.422,0,0.765,0.343,0.765,0.765c0,0.422-0.343,0.765-0.765,0.765h-9.886l1.756,1.756c0.299,0.299,0.299,0.783,0,1.081
				c-0.149,0.149-0.345,0.224-0.541,0.224s-0.391-0.075-0.541-0.224l-3.6-3.6l3.6-3.6C20.963,9.712,21.159,9.637,21.354,9.637
				 M21.354,8.637c-0.472,0-0.915,0.184-1.248,0.517l-3.6,3.6l-0.707,0.707l0.707,0.707l3.6,3.6
				c0.333,0.333,0.777,0.517,1.248,0.517c0.471,0,0.914-0.184,1.248-0.517c0.688-0.688,0.688-1.808,0-2.496l-0.048-0.048h7.472
				c0.973,0,1.765-0.792,1.765-1.765c0-0.973-0.792-1.765-1.765-1.765h-7.468l0.045-0.045c0.688-0.688,0.688-1.808,0-2.496
				C22.269,8.821,21.826,8.637,21.354,8.637L21.354,8.637z"/>
		</g>
	</g>
	<g display="inline">
		<g>
			<path fill="#00A4D8" d="M26.235,27.785c-0.338,0-0.656-0.132-0.895-0.37c-0.239-0.239-0.37-0.557-0.37-0.895
				s0.131-0.655,0.37-0.895l0.898-0.898h-8.675c-0.698,0-1.265-0.567-1.265-1.265s0.567-1.265,1.265-1.265h8.679l-0.901-0.902
				c-0.239-0.239-0.371-0.557-0.371-0.894c0-0.338,0.132-0.655,0.371-0.895s0.557-0.37,0.895-0.37c0.337,0,0.654,0.131,0.894,0.37
				l3.953,3.954l-3.953,3.953C26.892,27.653,26.573,27.785,26.235,27.785z"/>
			<path fill="#FFFFFF" d="M26.236,19.637c0.196,0,0.391,0.075,0.541,0.224l3.6,3.6l-3.6,3.6c-0.149,0.149-0.345,0.224-0.541,0.224
				c-0.196,0-0.392-0.074-0.541-0.224c-0.299-0.299-0.299-0.783,0-1.081l1.752-1.752h-9.882c-0.422,0-0.765-0.343-0.765-0.765
				c0-0.422,0.343-0.765,0.765-0.765h9.886l-1.756-1.756c-0.299-0.299-0.299-0.783,0-1.081
				C25.844,19.712,26.04,19.637,26.236,19.637 M26.236,18.637c-0.471,0-0.914,0.184-1.248,0.517c-0.688,0.688-0.688,1.808,0,2.496
				l0.048,0.048h-7.472c-0.973,0-1.765,0.792-1.765,1.765c0,0.973,0.792,1.765,1.765,1.765h7.468l-0.045,0.045
				c-0.688,0.688-0.688,1.808,0,2.496c0.333,0.333,0.776,0.517,1.248,0.517s0.915-0.184,1.248-0.517l3.6-3.6l0.707-0.707
				l-0.707-0.707l-3.6-3.6C27.15,18.821,26.707,18.637,26.236,18.637L26.236,18.637z"/>
		</g>
	</g>
</g>
<g id="x-_ref_-MT" display="none">
	<g display="inline">
		<g>
			<g>
				<g>
					<path fill="#0072AA" d="M7,31.5c-1.93,0-3.5-1.57-3.5-3.5V4c0-1.93,1.57-3.5,3.5-3.5h15.207L28.5,6.793V28
						c0,1.93-1.57,3.5-3.5,3.5H7z"/>
					<path fill="#FFFFFF" d="M22,1l6,6v21c0,1.657-1.343,3-3,3H7c-1.657,0-3-1.343-3-3V4c0-1.657,1.343-3,3-3H22 M22.414,0H22H7
						C4.794,0,3,1.794,3,4v24c0,2.206,1.794,4,4,4h18c2.206,0,4-1.794,4-4V7V6.586l-0.293-0.293l-6-6L22.414,0L22.414,0z"/>
				</g>
			</g>
			<polygon fill="#004B71" points="22,1 22,7 28,7 			"/>
		</g>
	</g>
	<g id="Layer_7_3_" display="inline">
	</g>
	<g display="inline">
		<path fill="#004B71" d="M20.115,18.554h0.07h4.035h0.07c0.557,0,1.043-0.487,1.043-1.044v-4.104c0-0.626-0.487-1.113-1.043-1.113
			h-4.104c-0.626,0-1.113,0.487-1.113,1.113v1.67h-5.913c-0.557,0-1.044,0.487-1.044,1.043v1.391h-1.67h-0.07
			c-0.557,0-1.044,0.417-1.044,1.044v4.174c0,0.626,0.487,1.043,1.044,1.043h0.07h1.67v1.391c0,0.557,0.487,1.044,1.044,1.044h5.983
			v1.67v0.07c0,0.557,0.417,1.043,1.043,1.043h4.104c0.557,0,1.043-0.487,1.043-1.043v-0.07V23.84v-0.07
			c0-0.557-0.487-1.043-1.043-1.043h-4.104c-0.626,0-1.043,0.487-1.043,1.043v0.07v1.67h-5.983c-0.209,0-0.348-0.139-0.348-0.348
			v-1.391h1.67h0.07c0.557,0,1.043-0.487,0.974-1.043v-4.174c0.07-0.557-0.417-1.044-0.974-1.044h-0.07h-1.67v-1.391
			c0-0.209,0.139-0.348,0.348-0.348h5.913v1.739C19.071,18.136,19.558,18.554,20.115,18.554z"/>
		<g>
			<path fill="#FFFFFF" d="M19.406,25.833h-6.609c-0.557,0-1.043-0.487-1.043-1.043v-9.043c0-0.557,0.487-1.043,1.043-1.043h6.609
				v0.696h-6.609c-0.209,0-0.348,0.139-0.348,0.348v9.043c0,0.209,0.139,0.348,0.348,0.348h6.609V25.833z"/>
			<path fill="#00A389" d="M14.188,23.398h-4.104c-0.626,0-1.113-0.487-1.113-1.043v-4.174c0-0.626,0.487-1.043,1.043-1.043h4.104
				c0.626,0,1.043,0.487,1.043,1.043v4.174C15.232,22.911,14.745,23.398,14.188,23.398z"/>
			<path fill="#FFFFFF" d="M14.188,17.833c0.209,0,0.348,0.139,0.348,0.348l0,0v4.174c0,0.209-0.139,0.348-0.348,0.348h-4.104
				c-0.209,0-0.417-0.139-0.417-0.348v-4.174c0-0.209,0.139-0.348,0.348-0.348l0,0H14.188 M14.188,17.137h-4.104
				c-0.626,0-1.113,0.487-1.113,1.043v4.174c0,0.626,0.487,1.043,1.043,1.043h4.104c0.626,0,1.043-0.487,1.043-1.043v-4.174
				C15.232,17.624,14.745,17.137,14.188,17.137L14.188,17.137L14.188,17.137z"/>
			<path fill="#9370B1" d="M23.927,18.181h-4.104c-0.626,0-1.043-0.487-1.043-1.043v-4.104c-0.07-0.626,0.417-1.113,1.043-1.113
				h4.104c0.557,0,1.043,0.487,1.043,1.113v4.104C24.971,17.694,24.484,18.181,23.927,18.181z"/>
			<path fill="#FFFFFF" d="M23.927,12.615c0.209,0,0.348,0.209,0.348,0.417v4.104c0,0.209-0.139,0.348-0.348,0.348h-4.104
				c-0.209,0-0.348-0.139-0.348-0.348v-4.104c-0.07-0.209,0.139-0.417,0.348-0.417H23.927 M23.927,11.92h-4.104
				c-0.626,0-1.113,0.487-1.113,1.113v4.104c0,0.626,0.487,1.043,1.043,1.043h4.104c0.626,0,1.043-0.487,1.043-1.043v-4.104
				C24.971,12.407,24.484,11.92,23.927,11.92L23.927,11.92L23.927,11.92z"/>
			<path fill="#C47D2A" d="M23.927,28.615h-4.104c-0.626,0-1.043-0.487-1.043-1.043v-4.104c0-0.626,0.487-1.043,1.043-1.043h4.104
				c0.626,0,1.043,0.487,1.043,1.043v4.104C24.971,28.128,24.484,28.615,23.927,28.615z"/>
			<path fill="#FFFFFF" d="M23.927,23.05c0.209,0,0.348,0.139,0.348,0.348v4.104c0,0.209-0.139,0.348-0.348,0.348h-4.104
				c-0.209,0-0.348-0.139-0.348-0.348l0,0v-4.104c0-0.209,0.139-0.348,0.348-0.348H23.927 M23.927,22.354h-4.104
				c-0.626,0-1.043,0.487-1.043,1.043v4.104c0,0.626,0.487,1.043,1.043,1.043h4.104c0.626,0,1.043-0.487,1.043-1.043v-4.104
				C24.971,22.841,24.484,22.354,23.927,22.354L23.927,22.354L23.927,22.354z"/>
		</g>
	</g>
	<g display="inline" opacity="0.3">
		<g>
			<path fill="#FFFFFF" d="M9.005,7.704l-1.106-2.38h1.036c0.074,0,0.128,0.01,0.159,0.03c0.031,0.02,0.058,0.053,0.079,0.1
				l0.672,1.61c0.012-0.023,0.024-0.045,0.038-0.066c0.015-0.021,0.029-0.044,0.046-0.07l0.896-1.456
				c0.033-0.054,0.068-0.091,0.107-0.114c0.038-0.022,0.084-0.033,0.138-0.033h1.197L10.57,7.649l1.229,2.775h-1.023
				c-0.074,0-0.133-0.019-0.175-0.056s-0.072-0.079-0.091-0.126L9.757,8.369c-0.009,0.017-0.02,0.032-0.029,0.046
				c-0.011,0.014-0.021,0.028-0.03,0.042l-1.127,1.785c-0.044,0.067-0.096,0.115-0.153,0.142c-0.059,0.027-0.122,0.04-0.189,0.04
				H7.088L9.005,7.704z"/>
		</g>
		<g>
			<polygon fill="#FFFFFF" points="7.179,11.936 7.179,12.936 16.419,12.936 16.419,12.936 16.419,11.936 			"/>
		</g>
	</g>
</g>
<g id="Layer_12" display="none">
	<g id="overdue_items_HS_1_" display="inline">
		<g id="Layer_1_7_">
			<g>
				<circle fill="#FFFFFF" cx="16" cy="16" r="15.973"/>
				<circle fill="#1291CE" cx="16" cy="16" r="14.939"/>
			</g>
		</g>
	</g>
	<g display="inline">
		<g>
			<g>
				<path fill="#0072AA" d="M19.43,8.672h-6.44c-1.276,0-2.314,1.038-2.314,2.314v10.302c0,1.276,1.038,2.314,2.314,2.314h7.727
					c1.276,0,2.314-1.038,2.314-2.314v-9.179L19.43,8.672z M22.267,21.288c0,0.855-0.695,1.55-1.55,1.55H12.99
					c-0.855,0-1.55-0.695-1.55-1.55V10.985c0-0.855,0.695-1.55,1.55-1.55h5.65v3.428h3.626L22.267,21.288L22.267,21.288z"/>
				<g>
					<path fill="#0072AA" d="M22.305,6.297h-6.44c-1.276,0-2.314,1.038-2.314,2.314v0.428h0.764V8.61c0-0.855,0.695-1.55,1.55-1.55
						h5.65v3.427h3.626v8.425h0.001c0,0.855-0.695,1.55-1.55,1.55h-1.044v0.765h1.043c1.276,0,2.314-1.038,2.314-2.314V9.735
						L22.305,6.297z"/>
				</g>
			</g>
		</g>
		<circle fill="#0072AA" cx="11.112" cy="21.439" r="4.753"/>
	</g>
	<g display="inline">
		<g>
			<g>
				<path fill="#FFFFFF" d="M18.93,8.131h-6.44c-1.276,0-2.314,1.038-2.314,2.314v10.302c0,1.276,1.038,2.314,2.314,2.314h7.727
					c1.276,0,2.314-1.038,2.314-2.314v-9.179L18.93,8.131z M21.767,20.747c0,0.855-0.695,1.55-1.55,1.55H12.49
					c-0.855,0-1.55-0.695-1.55-1.55V10.444c0-0.855,0.695-1.55,1.55-1.55h5.65v3.428h3.626L21.767,20.747L21.767,20.747z"/>
				<g>
					<path fill="#FFFFFF" d="M21.805,5.756h-6.44c-1.276,0-2.314,1.038-2.314,2.314v0.428h0.764V8.069c0-0.855,0.695-1.55,1.55-1.55
						h5.65v3.427h3.626v8.425h0.001c0,0.855-0.695,1.55-1.55,1.55h-1.044v0.765h1.043c1.276,0,2.314-1.038,2.314-2.314V9.194
						L21.805,5.756z"/>
				</g>
			</g>
		</g>
		<g>
			<g>
				<g>
					<circle fill="#EA5E5E" stroke="#FFFFFF" stroke-miterlimit="10" cx="10.612" cy="20.898" r="4.253"/>
				</g>
			</g>
			<polyline fill="none" stroke="#FFFFFF" stroke-width="0.8" stroke-linecap="round" stroke-miterlimit="10" points="10.71,18.375 
				10.71,21.087 12.382,21.721 			"/>
		</g>
	</g>
</g>
<g id="Layer_13" display="none">
	<g id="Layer_1_9_" display="inline">
		<g>
			<circle fill="#FFFFFF" cx="16" cy="16" r="15.973"/>
			<circle fill="#0072AA" cx="16" cy="16" r="14.939"/>
		</g>
	</g>
	<g display="inline">
		<g>
			<g>
				<g>
					<g>
						<path fill="#004B71" d="M19.397,9.301h-6.872c-1.361,0-2.469,1.108-2.469,2.469v10.994c0,1.361,1.108,2.469,2.469,2.469h8.245
							c1.361,0,2.469-1.108,2.469-2.469v-9.795L19.397,9.301z M22.426,22.763c0,0.912-0.742,1.654-1.654,1.654h-8.246
							c-0.912,0-1.654-0.742-1.654-1.654V11.769c0-0.912,0.742-1.654,1.654-1.654h6.03v3.658h3.869L22.426,22.763L22.426,22.763z"/>
						<g>
							<path fill="#004B71" d="M22.465,6.767h-6.872c-1.361,0-2.469,1.108-2.469,2.469v0.457h0.815V9.235
								c0-0.912,0.742-1.654,1.654-1.654h6.03v3.657h3.869v8.99h0.001c0,0.912-0.742,1.654-1.654,1.654h-1.114v0.816h1.113
								c1.361,0,2.469-1.108,2.469-2.469v-9.795L22.465,6.767z"/>
						</g>
					</g>
				</g>
			</g>
			<g>
				<g>
					<path fill="#004B71" d="M19.019,22.197H5.293c-0.55,0-1-0.45-1-1V17.53c0-0.55,0.45-1,1-1h13.725c0.55,0,1,0.45,1,1v3.667
						C20.019,21.747,19.569,22.197,19.019,22.197z"/>
				</g>
			</g>
		</g>
		<g>
			<g>
				<g>
					<g>
						<path fill="#FFFFFF" d="M18.928,8.835h-6.872c-1.361,0-2.469,1.108-2.469,2.469v10.994c0,1.361,1.108,2.469,2.469,2.469h8.245
							c1.361,0,2.469-1.108,2.469-2.469v-9.795L18.928,8.835z M21.956,22.297c0,0.912-0.742,1.654-1.654,1.654h-8.246
							c-0.912,0-1.654-0.742-1.654-1.654V11.303c0-0.912,0.742-1.654,1.654-1.654h6.03v3.658h3.869L21.956,22.297L21.956,22.297z"/>
						<g>
							<path fill="#FFFFFF" d="M21.996,6.301h-6.872c-1.361,0-2.469,1.108-2.469,2.469v0.457h0.815V8.769
								c0-0.912,0.742-1.654,1.654-1.654h6.03v3.657h3.869v8.99h0.001c0,0.912-0.742,1.654-1.654,1.654h-1.114v0.816h1.113
								c1.361,0,2.469-1.108,2.469-2.469V9.969L21.996,6.301z"/>
						</g>
					</g>
				</g>
			</g>
			<g>
				<g>
					<path fill="#FFFFFF" d="M18.549,21.731H4.824c-0.55,0-1-0.45-1-1v-3.667c0-0.55,0.45-1,1-1h13.725c0.55,0,1,0.45,1,1v3.667
						C19.549,21.281,19.099,21.731,18.549,21.731z"/>
				</g>
				<g>
					<g>
						<path fill="#EA5E5E" d="M5.647,21.135c-0.276,0-0.5-0.224-0.5-0.5v-3.489c0-0.276,0.224-0.5,0.5-0.5s0.5,0.224,0.5,0.5v3.489
							C6.147,20.912,5.923,21.135,5.647,21.135z"/>
					</g>
					<g>
						<path fill="#EA5E5E" d="M7.359,21.149c-0.249,0-0.45-0.205-0.45-0.457v-3.539c0-0.252,0.202-0.457,0.45-0.457
							s0.45,0.205,0.45,0.457v3.539C7.809,20.944,7.608,21.149,7.359,21.149z"/>
					</g>
					<g>
						<path fill="#EA5E5E" d="M9.07,21.149c-0.221,0-0.4-0.186-0.4-0.416v-3.621c0-0.23,0.179-0.416,0.4-0.416s0.4,0.186,0.4,0.416
							v3.621C9.47,20.962,9.291,21.149,9.07,21.149z"/>
					</g>
					<g>
						<path fill="#EA5E5E" d="M10.56,21.134c-0.193,0-0.35-0.166-0.35-0.371v-3.696c0-0.205,0.157-0.371,0.35-0.371
							s0.35,0.166,0.35,0.371v3.696C10.91,20.968,10.754,21.134,10.56,21.134z"/>
					</g>
					<g>
						<path fill="#EA5E5E" d="M11.958,21.149c-0.166,0-0.3-0.147-0.3-0.327v-3.798c0-0.181,0.134-0.327,0.3-0.327
							s0.3,0.147,0.3,0.327v3.798C12.258,21.002,12.124,21.149,11.958,21.149z"/>
					</g>
					<g>
						<path fill="#EA5E5E" d="M13.11,21.134c-0.138,0-0.25-0.125-0.25-0.279v-3.88c0-0.154,0.112-0.279,0.25-0.279
							s0.25,0.125,0.25,0.279v3.88C13.36,21.009,13.247,21.134,13.11,21.134z"/>
					</g>
					<g>
						<path fill="#EA5E5E" d="M14.146,21.134c-0.11,0-0.2-0.101-0.2-0.224v-3.974c0-0.124,0.09-0.224,0.2-0.224s0.2,0.101,0.2,0.224
							v3.974C14.346,21.033,14.256,21.134,14.146,21.134z"/>
					</g>
					<g>
						<path fill="#EA5E5E" d="M15.132,21.137c-0.083,0-0.15-0.079-0.15-0.176v-4.088c0-0.097,0.067-0.176,0.15-0.176
							s0.15,0.079,0.15,0.176v4.088C15.283,21.058,15.215,21.137,15.132,21.137z"/>
					</g>
					<g>
						<path fill="#EA5E5E" d="M16.045,21.137c-0.056,0-0.1-0.054-0.1-0.121v-4.199c0-0.067,0.044-0.121,0.1-0.121
							c0.056,0,0.1,0.054,0.1,0.121v4.199C16.145,21.083,16.101,21.137,16.045,21.137z"/>
					</g>
					<g>
						<path fill="#EA5E5E" d="M16.873,21.137c-0.027,0-0.05-0.027-0.05-0.062v-4.317c0-0.035,0.022-0.062,0.05-0.062
							s0.05,0.027,0.05,0.062v4.317C16.923,21.11,16.901,21.137,16.873,21.137z"/>
					</g>
				</g>
			</g>
		</g>
	</g>
</g>
<g id="transmittal_list" display="none">
	<g display="inline">
		<g id="Layer_1_12_">
			<g>
				<g>
					<path fill="#1291CE" d="M13.035,24.291c-1.488,0-2.699-1.211-2.699-2.699V3.085c0-1.488,1.211-2.699,2.699-2.699h11.727
						l4.853,4.853v16.354c0,1.488-1.211,2.699-2.699,2.699H13.035z"/>
					<path fill="#FFFFFF" d="M24.602,0.771l4.627,4.627v16.194c0,1.278-1.036,2.313-2.313,2.313H13.035
						c-1.278,0-2.313-1.036-2.313-2.313V3.085c0-1.278,1.036-2.313,2.313-2.313H24.602 M24.921,0h-0.319H13.035
						C11.333,0,9.95,1.383,9.95,3.085v18.508c0,1.701,1.383,3.085,3.085,3.085h13.881c1.701,0,3.085-1.383,3.085-3.085V5.398V5.079
						l-0.226-0.226l-4.627-4.627L24.921,0L24.921,0z"/>
				</g>
			</g>
			<polygon fill="#0072AA" points="24.602,0.771 24.602,5.398 29.229,5.398 			"/>
		</g>
		<g id="Layer_1_10_">
			<g>
				<g>
					<path fill="#00A389" d="M9.683,27.394c-1.488,0-2.699-1.211-2.699-2.699V6.187c0-1.488,1.211-2.699,2.699-2.699H21.41
						l4.853,4.853v16.354c0,1.488-1.211,2.699-2.699,2.699H9.683z"/>
					<path fill="#FFFFFF" d="M21.25,3.873L25.877,8.5v16.194c0,1.278-1.036,2.313-2.313,2.313H9.683
						c-1.278,0-2.313-1.036-2.313-2.313V6.187c0-1.278,1.036-2.313,2.313-2.313H21.25 M21.569,3.102H21.25H9.683
						c-1.701,0-3.085,1.383-3.085,3.085v18.508c0,1.701,1.383,3.085,3.085,3.085h13.881c1.701,0,3.085-1.383,3.085-3.085V8.5V8.181
						l-0.226-0.226l-4.627-4.627L21.569,3.102L21.569,3.102z"/>
				</g>
			</g>
			<polygon fill="#00795A" points="21.25,3.873 21.25,8.5 25.877,8.5 			"/>
		</g>
		<g>
			<g>
				<g>
					<path fill="#9370B1" d="M5.482,31.5c-1.583,0-2.871-1.288-2.871-2.871V8.94c0-1.583,1.288-2.871,2.871-2.871h12.475
						l5.163,5.163v17.398c0,1.583-1.288,2.871-2.871,2.871H5.482z"/>
					<path fill="#FFFFFF" d="M20.248,32H5.481c-1.859,0-3.371-1.513-3.371-3.371V8.94c0-1.859,1.512-3.372,3.371-3.372h12.683
						l5.455,5.456v17.605C23.619,30.487,22.106,32,20.248,32z M5.481,6.568c-1.308,0-2.371,1.064-2.371,2.372v19.689
						C3.11,29.937,4.174,31,5.481,31h14.767c1.308,0,2.371-1.063,2.371-2.371V11.438l-4.869-4.87H5.481z"/>
				</g>
				<polygon fill="#735796" points="17.749,6.583 17.721,11.468 22.605,11.433 				"/>
			</g>
			<g>
				<path fill="#FFFFFF" d="M13.037,21.482H6.821c-0.336,0-0.608-0.272-0.608-0.608l0,0c0-0.336,0.272-0.608,0.608-0.608h6.216
					c0.336,0,0.608,0.272,0.608,0.608l0,0C13.645,21.21,13.373,21.482,13.037,21.482z"/>
				<path fill="#FFFFFF" d="M12.845,17.262H6.628c-0.336,0-0.608-0.272-0.608-0.608l0,0c0-0.336,0.272-0.608,0.608-0.608h6.216
					c0.336,0,0.608,0.272,0.608,0.608l0,0C13.453,16.99,13.18,17.262,12.845,17.262z"/>
				<path fill="#FFFFFF" d="M13.037,25.598H6.821c-0.336,0-0.608-0.272-0.608-0.608l0,0c0-0.336,0.272-0.608,0.608-0.608h6.216
					c0.336,0,0.608,0.272,0.608,0.608l0,0C13.645,25.326,13.373,25.598,13.037,25.598z"/>
			</g>
			<g>
				<g>
					<path fill="#DD8100" d="M19.267,20.362c-0.305,0-0.591-0.118-0.807-0.333l-3.375-3.375l3.374-3.374
						c0.215-0.215,0.502-0.334,0.808-0.334s0.592,0.119,0.808,0.335c0.215,0.215,0.334,0.501,0.334,0.807s-0.119,0.592-0.335,0.808
						l-0.616,0.616h7.084c0.63,0,1.142,0.512,1.142,1.142s-0.512,1.142-1.142,1.142h-7.087l0.619,0.619
						c0.215,0.215,0.334,0.501,0.335,0.806c0,0.306-0.119,0.593-0.335,0.809C19.856,20.244,19.57,20.362,19.267,20.362z"/>
					<path fill="#FFFFFF" d="M19.266,13.446c0.164,0,0.329,0.062,0.454,0.188c0.251,0.251,0.251,0.657,0,0.907l-1.47,1.47h8.29
						c0.354,0,0.642,0.287,0.642,0.642c0,0.354-0.287,0.642-0.642,0.642h-8.294l1.473,1.473c0.251,0.251,0.251,0.657,0,0.907
						c-0.125,0.125-0.289,0.188-0.454,0.188c-0.164,0-0.328-0.063-0.454-0.188l-3.02-3.02l3.02-3.02
						C18.938,13.509,19.102,13.446,19.266,13.446 M19.266,12.446c-0.439,0-0.851,0.171-1.161,0.481l-3.02,3.02l-0.707,0.707
						l0.707,0.707l3.02,3.02c0.31,0.31,0.722,0.481,1.161,0.481c0.438,0,0.851-0.171,1.161-0.481
						c0.567-0.567,0.632-1.448,0.195-2.087h5.919c0.905,0,1.642-0.736,1.642-1.642c0-0.905-0.736-1.642-1.642-1.642h-5.916
						c0.185-0.27,0.284-0.589,0.284-0.923c0-0.438-0.171-0.851-0.481-1.161C20.117,12.617,19.705,12.446,19.266,12.446
						L19.266,12.446z"/>
				</g>
			</g>
			<g>
				<g>
					<path fill="#00A4D8" d="M23.361,28.752c-0.307,0-0.594-0.119-0.809-0.336c-0.214-0.214-0.333-0.5-0.334-0.805
						c0-0.306,0.119-0.593,0.335-0.809l0.616-0.616h-7.083c-0.629,0-1.142-0.512-1.142-1.142s0.512-1.142,1.142-1.142h7.086
						l-0.619-0.619c-0.443-0.445-0.443-1.169-0.001-1.613c0.217-0.217,0.504-0.336,0.809-0.336s0.592,0.119,0.808,0.335l3.373,3.374
						l-3.373,3.373C23.953,28.633,23.666,28.752,23.361,28.752z"/>
					<path fill="#FFFFFF" d="M23.361,21.836c0.164,0,0.328,0.063,0.454,0.188l3.02,3.02l-3.02,3.02
						c-0.125,0.125-0.29,0.188-0.454,0.188c-0.164,0-0.329-0.062-0.454-0.188c-0.251-0.251-0.251-0.657,0-0.907l1.47-1.47h-8.29
						c-0.354,0-0.642-0.287-0.642-0.642c0-0.354,0.287-0.642,0.642-0.642h8.294l-1.473-1.473c-0.251-0.251-0.251-0.657,0-0.907
						C23.033,21.898,23.197,21.836,23.361,21.836 M23.361,20.836c-0.438,0-0.851,0.171-1.161,0.481
						c-0.567,0.567-0.632,1.448-0.195,2.087h-5.919c-0.905,0-1.642,0.736-1.642,1.642c0,0.905,0.736,1.642,1.642,1.642h5.916
						c-0.185,0.27-0.284,0.589-0.284,0.923c0,0.438,0.171,0.851,0.481,1.161c0.31,0.31,0.722,0.481,1.161,0.481
						c0.439,0,0.851-0.171,1.161-0.481l3.02-3.02l0.707-0.707l-0.707-0.707l-3.02-3.02C24.212,21.006,23.8,20.836,23.361,20.836
						L23.361,20.836z"/>
				</g>
			</g>
		</g>
		<g id="Layer_7_4_">
		</g>
	</g>
</g>
<g id="eng_obj_search" display="none">
	<g id="Layer_1_13_" display="inline">
		<g id="Layer_1_14_">
			<g>
				<circle fill="#FFFFFF" cx="16" cy="16" r="15.973"/>
				<circle fill="#0072AA" cx="16" cy="16" r="14.939"/>
			</g>
		</g>
	</g>
	<g id="fave_icon_-_selected_4_" display="inline">
	</g>
	<g display="inline">
		<g>
			<path fill="#0072AA" d="M20.617,17.444c0,0.183-0.096,0.351-0.254,0.442l-1.996,1.16l-4.916,2.855
				c-0.157,0.091-0.35,0.091-0.507,0l-6.911-4.015c-0.158-0.091-0.254-0.26-0.254-0.442V9.414c0-0.183,0.096-0.351,0.254-0.442
				l6.911-4.015c0.157-0.091,0.35-0.091,0.507,0l6.912,4.015c0.158,0.091,0.254,0.26,0.254,0.442V17.444z"/>
			<polygon fill="#0072AA" points="20.617,17.444 13.198,22.01 13.198,13.449 20.617,8.883 			"/>
			<polygon fill="#0072AA" points="5.779,8.883 13.198,13.449 20.617,8.883 13.198,4.888 			"/>
			<path fill="#FFFFFF" d="M20.65,8.478l-6.911-4.014c-0.328-0.191-0.754-0.191-1.081,0L5.745,8.478
				C5.413,8.671,5.208,9.03,5.208,9.414v8.029c0,0.384,0.205,0.743,0.538,0.936l6.911,4.014c0.164,0.095,0.351,0.146,0.541,0.146
				s0.377-0.051,0.54-0.146l6.912-4.015c0.332-0.193,0.537-0.552,0.537-0.936V9.414C21.188,9.03,20.982,8.671,20.65,8.478z
				 M13.198,5.47l6.608,3.837l-6.498,3.774c-0.068,0.038-0.152,0.039-0.22-0.001L6.59,9.307L13.198,5.47z M6.349,17.41V9.827
				l6.451,3.747c0.024,0.014,0.051,0.021,0.076,0.032v7.595L6.349,17.41z M13.448,21.243v-7.606c0.05-0.017,0.1-0.034,0.147-0.061
				l6.452-3.748v7.582L13.448,21.243z"/>
		</g>
		<g>
			<path fill="#FFFFFF" d="M25.146,25.268c-0.329,0-0.639-0.128-0.873-0.361l-2.517-2.516c-0.621,0.271-1.28,0.408-1.959,0.408
				c-2.723,0-4.938-2.215-4.938-4.938s2.215-4.938,4.938-4.938s4.938,2.215,4.938,4.938c0,1.085-0.36,2.136-1.019,2.996l2.303,2.303
				c0.233,0.233,0.361,0.543,0.361,0.872c0,0.329-0.128,0.639-0.361,0.873S25.475,25.268,25.146,25.268z M19.797,15.392
				c-1.361,0-2.469,1.108-2.469,2.469s1.108,2.469,2.469,2.469c1.361,0,2.469-1.108,2.469-2.469S21.158,15.392,19.797,15.392z"/>
			<path fill="#0072AA" d="M19.797,13.335c2.5,0,4.526,2.026,4.526,4.526c0,1.163-0.443,2.22-1.164,3.022l2.568,2.568
				c0.322,0.322,0.322,0.842,0,1.164c-0.16,0.16-0.371,0.241-0.582,0.241s-0.421-0.081-0.582-0.241l-2.721-2.721
				c-0.616,0.313-1.309,0.493-2.047,0.493c-2.5,0-4.526-2.026-4.526-4.526S17.297,13.335,19.797,13.335 M19.797,20.741
				c1.588,0,2.88-1.292,2.88-2.88c0-1.588-1.292-2.88-2.88-2.88c-1.588,0-2.88,1.292-2.88,2.88
				C16.917,19.449,18.209,20.741,19.797,20.741 M19.797,12.512c-2.949,0-5.349,2.4-5.349,5.349s2.4,5.349,5.349,5.349
				c0.642,0,1.267-0.113,1.862-0.337l2.323,2.323c0.311,0.311,0.724,0.482,1.164,0.482s0.853-0.171,1.164-0.482
				s0.482-0.724,0.482-1.164c0-0.439-0.171-0.853-0.482-1.164l-2.057-2.057c0.58-0.872,0.893-1.896,0.893-2.952
				C25.146,14.912,22.746,12.512,19.797,12.512L19.797,12.512z"/>
		</g>
	</g>
</g>
<g id="send_notification_mail" display="none">
	<g display="inline">
		<g>
			<g>
				<path fill="#9370B1" d="M7,31.5c-1.93,0-3.5-1.57-3.5-3.5V4c0-1.93,1.57-3.5,3.5-3.5h15.207L28.5,6.793V28
					c0,1.93-1.57,3.5-3.5,3.5H7z"/>
				<path fill="#FFFFFF" d="M22,1l6,6v21c0,1.657-1.343,3-3,3H7c-1.657,0-3-1.343-3-3V4c0-1.657,1.343-3,3-3H22 M22.414,0H22H7
					C4.794,0,3,1.794,3,4v24c0,2.206,1.794,4,4,4h18c2.206,0,4-1.794,4-4V7V6.586l-0.293-0.293l-6-6L22.414,0L22.414,0z"/>
			</g>
		</g>
		<polygon fill="#735796" points="22,1 22,7 28,7 		"/>
	</g>
	<g id="fave_icon_-_selected_5_" display="inline">
	</g>
	<path display="inline" fill="#333333" d="M6.395,36.815"/>
	<g display="inline">
		<g>
			<path fill="#735796" d="M15.635,15.008L8.232,10.21c-0.041,0.128-0.069,0.262-0.069,0.403v7.575c0,0.739,0.605,1.343,1.343,1.343
				h12.257c0.739,0,1.343-0.605,1.343-1.343v-7.575c0-0.141-0.028-0.275-0.069-0.403L15.635,15.008z"/>
			<path fill="#735796" d="M22.376,9.169c-0.239-0.138-0.486-0.266-0.766-0.294c-0.301-0.03-0.601,0.013-0.902,0.017
				c-0.985,0.011-1.97,0.021-2.956,0.032c-1.241,0.013-2.481,0.027-3.722,0.04c-1.061,0.012-2.123,0.023-3.184,0.035
				C10.4,9.003,9.953,9.013,9.506,9.013c-0.222,0-0.428,0.06-0.613,0.156c0,0,6.741,4.369,6.741,4.369
				c0.004,0.003,0.058-0.037,0.062-0.04c0.676-0.438,1.352-0.876,2.028-1.314c1.02-0.661,2.041-1.323,3.061-1.984
				C21.314,9.857,21.837,9.492,22.376,9.169z"/>
		</g>
		<g>
			<path fill="#FFFFFF" d="M14.904,14.33L7.501,9.533C7.46,9.661,7.431,9.795,7.431,9.936v7.575c0,0.739,0.605,1.343,1.343,1.343
				h12.257c0.739,0,1.343-0.605,1.343-1.343V9.936c0-0.141-0.028-0.275-0.069-0.403L14.904,14.33z"/>
			<path fill="#FFFFFF" d="M21.645,8.748c-0.185-0.096-0.391-0.156-0.613-0.156H8.775c-0.222,0-0.428,0.06-0.613,0.156l6.741,4.369
				L21.645,8.748z"/>
		</g>
	</g>
	<g display="inline">
		<g>
			<g>
				<g>
					<circle fill="#E59A2C" cx="25.289" cy="25.289" r="6.234"/>
					<path fill="#FFFFFF" d="M25.289,32c-3.7,0-6.711-3.011-6.711-6.711s3.01-6.711,6.711-6.711S32,21.588,32,25.289
						S28.989,32,25.289,32z M25.289,19.532c-3.174,0-5.757,2.582-5.757,5.757c0,3.175,2.582,5.757,5.757,5.757
						c3.175,0,5.757-2.582,5.757-5.757C31.046,22.114,28.464,19.532,25.289,19.532z"/>
				</g>
			</g>
		</g>
		<g>
			<path fill="#B9742E" d="M29.045,26.45l-0.652-0.669v-1.24c0-1.237-0.732-2.299-1.828-2.729c-0.11-0.495-0.546-0.866-1.065-0.866
				c-0.519,0-0.955,0.371-1.065,0.866c-1.097,0.43-1.828,1.492-1.828,2.729v1.24l-0.652,0.669c-0.058,0.059-0.09,0.139-0.09,0.221
				v0.945c0,0.17,0.138,0.307,0.307,0.307h2.05c0.002,0.679,0.598,1.274,1.277,1.274c0.679,0,1.275-0.595,1.277-1.274h2.05
				c0.17,0,0.307-0.138,0.307-0.307v-0.945C29.135,26.589,29.103,26.51,29.045,26.45z M25.501,28.584
				c-0.363,0-0.66-0.342-0.662-0.659h1.324C26.161,28.241,25.864,28.584,25.501,28.584z M28.521,27.309h-6.04v-0.517l0.742-0.761
				c0-0.729,0-1.358,0-1.49c0-1.12,0.742-2.041,1.801-2.265c0-0.114,0-0.196,0-0.218c0-0.265,0.212-0.497,0.477-0.497
				s0.477,0.232,0.477,0.497c0,0.022,0,0.104,0,0.218c1.06,0.224,1.801,1.145,1.801,2.265c0,0.166,0,0.761,0,1.49l0.742,0.761
				V27.309z"/>
			<path fill="#FFFFFF" d="M28.622,26.017l-0.652-0.669v-1.24c0-1.237-0.732-2.299-1.828-2.729c-0.11-0.495-0.546-0.866-1.065-0.866
				c-0.519,0-0.955,0.371-1.065,0.866c-1.097,0.43-1.828,1.492-1.828,2.729v1.24l-0.652,0.669c-0.058,0.059-0.09,0.139-0.09,0.221
				v0.945c0,0.17,0.138,0.307,0.307,0.307h2.05c0.002,0.679,0.598,1.274,1.277,1.274c0.679,0,1.275-0.595,1.277-1.274h2.05
				c0.17,0,0.307-0.138,0.307-0.307v-0.945C28.712,26.156,28.679,26.076,28.622,26.017z M25.077,28.15
				c-0.363,0-0.66-0.342-0.662-0.659h1.324C25.738,27.808,25.44,28.15,25.077,28.15z M28.097,26.876h-6.04v-0.517l0.742-0.761
				c0-0.729,0-1.358,0-1.49c0-1.12,0.742-2.041,1.801-2.265c0-0.114,0-0.196,0-0.218c0-0.265,0.212-0.497,0.477-0.497
				s0.477,0.232,0.477,0.497c0,0.022,0,0.104,0,0.218c1.06,0.224,1.801,1.145,1.801,2.265c0,0.166,0,0.761,0,1.49l0.742,0.761
				V26.876z"/>
		</g>
	</g>
</g>
<g id="transmittal_mt_list" display="none">
	<g id="Layer_1_15_" display="inline">
		<g>
			<circle fill="#FFFFFF" cx="16" cy="16" r="15.973"/>
			<circle fill="#83649B" cx="16" cy="16" r="14.939"/>
		</g>
	</g>
	<polygon display="inline" fill="none" points="7.827,1.061 7.827,8.661 15.303,8.661 15.303,17.803 20.369,17.803 20.369,24.261 
		15.303,24.261 8.111,24.261 7.827,24.261 7.827,26.739 26.951,26.739 26.951,1.061 	"/>
	<g display="inline">
		<g>
			<g>
				<g>
					<g>
						<path fill="#FFFFFF" d="M19.317,19.167c0.201-0.202,0.201-0.451,0-0.653l-1.596-1.525h8.589c0.284,0,0.515-0.379,0.515-0.665
							c0-0.285-0.231-0.665-0.515-0.665h-8.573l1.58-1.516c0.201-0.202,0.201-0.495,0-0.696c-0.201-0.202-0.527-0.185-0.729,0.018
							l-2.833,2.851l2.833,2.847C18.79,19.364,19.116,19.369,19.317,19.167"/>
					</g>
					<g>
						<path fill="#FFFFFF" d="M23.264,17.723c-0.201,0.202-0.201,0.451,0,0.653l1.596,1.525h-8.589
							c-0.284,0-0.515,0.379-0.515,0.665c0,0.285,0.231,0.665,0.515,0.665h8.573l-1.58,1.516c-0.201,0.202-0.201,0.495,0,0.696
							c0.201,0.202,0.527,0.185,0.729-0.018l2.833-2.851l-2.833-2.847C23.791,17.525,23.466,17.521,23.264,17.723"/>
					</g>
					<path fill="#FFFFFF" d="M12.742,13.906H9.687c-0.275,0-0.497-0.223-0.497-0.497v0c0-0.275,0.223-0.497,0.497-0.497h3.055
						c0.275,0,0.497,0.223,0.497,0.497v0C13.239,13.684,13.017,13.906,12.742,13.906z"/>
					<path fill="#FFFFFF" d="M14.662,16.807H9.687c-0.275,0-0.497-0.223-0.497-0.497l0,0c0-0.275,0.223-0.497,0.497-0.497h4.974
						c0.275,0,0.497,0.223,0.497,0.497l0,0C15.159,16.584,14.937,16.807,14.662,16.807z"/>
					<path fill="#FFFFFF" d="M14.662,19.708H9.687c-0.275,0-0.497-0.223-0.497-0.497l0,0c0-0.275,0.223-0.497,0.497-0.497h4.974
						c0.275,0,0.497,0.223,0.497,0.497l0,0C15.159,19.485,14.937,19.708,14.662,19.708z"/>
					<path fill="#FFFFFF" d="M14.662,22.609H9.687c-0.275,0-0.497-0.223-0.497-0.497l0,0c0-0.275,0.223-0.497,0.497-0.497h4.974
						c0.275,0,0.497,0.223,0.497,0.497l0,0C15.159,22.386,14.937,22.609,14.662,22.609z"/>
				</g>
				<g>
					<path fill="#FFFFFF" d="M20.704,21.714v1.248h0.001c0,1.028-0.836,1.864-1.864,1.864H9.546c-1.028,0-1.864-0.836-1.864-1.864
						V10.57c0-1.028,0.836-1.864,1.864-1.864h6.796v4.123h2.582c0.015-0.001,0.029-0.009,0.043-0.009
						c0.017,0,0.029,0.008,0.046,0.009h1.69v2.347h0.919v-3.253l-4.331-4.134H9.546c-1.534,0-2.783,1.249-2.783,2.783v12.391
						c0,1.534,1.249,2.783,2.783,2.783h9.293c1.534,0,2.783-1.249,2.783-2.783v-1.249H20.704z"/>
					<rect x="20.704" y="17.472" fill="#FFFFFF" width="0.919" height="1.946"/>
				</g>
			</g>
		</g>
		<g>
			<path fill="#FFFFFF" d="M20.688,4.43h-7.745c-1.534,0-2.783,1.249-2.783,2.783v0.575h0.919V7.212
				c0-1.028,0.836-1.864,1.864-1.864h6.796v4.123h2.582c0.015-0.001,0.029-0.009,0.043-0.009c0.017,0,0.029,0.008,0.046,0.009h1.69
				v4.643v1.062h0.919v-1.062V8.565L20.688,4.43z"/>
		</g>
	</g>
</g>
<g id="revision_request_1_" display="none">
	<g display="inline">
		<g>
			<g>
				<path fill="#E3992E" d="M7,31.5c-1.93,0-3.5-1.57-3.5-3.5V4c0-1.93,1.57-3.5,3.5-3.5h15.207L28.5,6.793V28
					c0,1.93-1.57,3.5-3.5,3.5H7z"/>
				<path fill="#FFFFFF" d="M22,1l6,6v21c0,1.657-1.343,3-3,3H7c-1.657,0-3-1.343-3-3V4c0-1.657,1.343-3,3-3H22 M22.414,0H22H7
					C4.794,0,3,1.794,3,4v24c0,2.206,1.794,4,4,4h18c2.206,0,4-1.794,4-4V7V6.586l-0.293-0.293l-6-6L22.414,0L22.414,0z"/>
			</g>
		</g>
		<polygon fill="#B36601" points="22,1 22,7 28,7 		"/>
	</g>
	<g id="fave_icon_-_selected_6_" display="inline">
	</g>
	<g display="inline">
		<g>
			<g>
				<path fill="#EA5E5E" d="M24,31.5c-4.136,0-7.5-3.364-7.5-7.5s3.364-7.5,7.5-7.5s7.5,3.364,7.5,7.5S28.136,31.5,24,31.5"/>
				<path fill="#FFFFFF" d="M24,17c3.866,0,7,3.134,7,7s-3.134,7-7,7s-7-3.134-7-7S20.134,17,24,17 M24,16c-4.411,0-8,3.589-8,8
					s3.589,8,8,8s8-3.589,8-8S28.411,16,24,16"/>
			</g>
		</g>
		<g opacity="0.25">
			<path d="M27.828,25.941h-7.587c-0.553,0-1-0.447-1-1s0.447-1,1-1h7.587c0.553,0,1,0.447,1,1S28.381,25.941,27.828,25.941z"/>
		</g>
		<g>
			<path fill="#FFFFFF" d="M27.828,24.941h-7.587c-0.553,0-1-0.447-1-1s0.447-1,1-1h7.587c0.553,0,1,0.447,1,1
				S28.381,24.941,27.828,24.941z"/>
		</g>
	</g>
</g>
<g id="revision_request" display="none">
	<g display="inline">
		<g>
			<g>
				<path fill="#9370B1" d="M7,31.5c-1.93,0-3.5-1.57-3.5-3.5V4c0-1.93,1.57-3.5,3.5-3.5h15.207L28.5,6.793V28
					c0,1.93-1.57,3.5-3.5,3.5H7z"/>
				<path fill="#FFFFFF" d="M22,1l6,6v21c0,1.657-1.343,3-3,3H7c-1.657,0-3-1.343-3-3V4c0-1.657,1.343-3,3-3H22 M22.414,0H22H7
					C4.794,0,3,1.794,3,4v24c0,2.206,1.794,4,4,4h18c2.206,0,4-1.794,4-4V7V6.586l-0.293-0.293l-6-6L22.414,0L22.414,0z"/>
			</g>
		</g>
		<polygon fill="#735796" points="22,1 22,7 28,7 		"/>
	</g>
	<path display="inline" fill="#333333" d="M6.395,36.815"/>
	<g display="inline">
		<g>
			<g>
				<path fill="#E59A2C" d="M24,31.5c-4.136,0-7.5-3.364-7.5-7.5s3.364-7.5,7.5-7.5s7.5,3.364,7.5,7.5S28.136,31.5,24,31.5"/>
				<path fill="#FFFFFF" d="M24,17c3.866,0,7,3.134,7,7s-3.134,7-7,7s-7-3.134-7-7S20.134,17,24,17 M24,16c-4.411,0-8,3.589-8,8
					s3.589,8,8,8s8-3.589,8-8S28.411,16,24,16"/>
			</g>
		</g>
		
			<line fill="none" stroke="#FFFFFF" stroke-width="2" stroke-linecap="round" stroke-miterlimit="10" x1="20.241" y1="23.941" x2="27.828" y2="23.941"/>
	</g>
	<g display="inline">
		<path fill="#00A389" d="M24,31.5c-4.136,0-7.5-3.364-7.5-7.5s3.364-7.5,7.5-7.5s7.5,3.364,7.5,7.5S28.136,31.5,24,31.5"/>
		<path fill="#FFFFFF" d="M24,17c3.866,0,7,3.134,7,7s-3.134,7-7,7s-7-3.134-7-7S20.134,17,24,17 M24,16c-4.411,0-8,3.589-8,8
			s3.589,8,8,8s8-3.589,8-8S28.411,16,24,16"/>
		<g>
			<path fill="#00795A" d="M22.535,28.285l-2.707-2.707c-0.391-0.391-0.391-1.023,0-1.414s1.023-0.391,1.414,0l1.293,1.293
				l4.293-4.293c0.391-0.391,1.023-0.391,1.414,0s0.391,1.023,0,1.414L22.535,28.285z"/>
		</g>
		<g>
			<path fill="#FFFFFF" d="M22.535,27.316l-2.707-2.707c-0.391-0.391-0.391-1.023,0-1.414s1.023-0.391,1.414,0l1.293,1.293
				l4.293-4.293c0.391-0.391,1.023-0.391,1.414,0s0.391,1.023,0,1.414L22.535,27.316z"/>
		</g>
	</g>
</g>
<g id="revision_request_mt_1_" display="none">
	<g id="Layer_1_16_" display="inline">
		<g>
			<circle fill="#FFFFFF" cx="16" cy="16" r="15.973"/>
			<circle fill="#B36601" cx="16" cy="16" r="14.939"/>
		</g>
	</g>
	<g display="inline">
		<path fill="#FFFFFF" d="M18.944,5.098h-8.43c-1.67,0-3.029,1.359-3.029,3.029v13.487c0,1.67,1.359,3.029,3.029,3.029h10.115
			c1.67,0,3.029-1.359,3.029-3.029V9.598L18.944,5.098z M18.912,6.471l3.281,3.114h-3.281V6.471z M20.63,23.642H10.514
			c-1.119,0-2.029-0.91-2.029-2.029V8.126c0-1.119,0.91-2.029,2.029-2.029h7.397v4.487h4.747v11.028
			C22.659,22.732,21.749,23.642,20.63,23.642z"/>
		<polygon fill="#FFFFFF" points="18.542,6.098 18.542,9.791 23.21,9.791 18.912,5.713 		"/>
	</g>
	<g display="inline">
		<g>
			<g>
				<g>
					<path fill="#EA5E5E" d="M20.552,26.945c-2.932,0-5.316-2.384-5.316-5.316s2.384-5.316,5.316-5.316s5.316,2.384,5.316,5.316
						S23.484,26.945,20.552,26.945"/>
					<path fill="#FFFFFF" d="M20.552,27.444c-3.207,0-5.816-2.608-5.816-5.815s2.609-5.816,5.816-5.816s5.816,2.609,5.816,5.816
						S23.759,27.444,20.552,27.444z M20.552,16.812c-2.655,0-4.816,2.16-4.816,4.816c0,2.655,2.161,4.815,4.816,4.815
						c2.656,0,4.816-2.16,4.816-4.815C25.368,18.973,23.208,16.812,20.552,16.812z"/>
				</g>
			</g>
		</g>
	</g>
	<g display="inline">
		<path fill="#FFFFFF" d="M23.266,22.337h-5.378c-0.414,0-0.75-0.336-0.75-0.75s0.336-0.75,0.75-0.75h5.378
			c0.414,0,0.75,0.336,0.75,0.75S23.68,22.337,23.266,22.337z"/>
	</g>
</g>
<g id="revision_request_mt" display="none">
	<g id="Layer_1_17_" display="inline">
		<g>
			<circle fill="#FFFFFF" cx="16" cy="16" r="15.973"/>
			<circle fill="#9370B1" cx="16" cy="16" r="14.939"/>
		</g>
	</g>
	<g display="inline">
		<path fill="#FFFFFF" d="M18.944,5.098h-8.43c-1.67,0-3.029,1.359-3.029,3.029v13.487c0,1.67,1.359,3.029,3.029,3.029h10.115
			c1.67,0,3.029-1.359,3.029-3.029V9.598L18.944,5.098z M18.912,6.471l3.281,3.114h-3.281V6.471z M20.63,23.642H10.514
			c-1.119,0-2.029-0.91-2.029-2.029V8.126c0-1.119,0.91-2.029,2.029-2.029h7.397v4.487h4.747v11.028
			C22.659,22.732,21.749,23.642,20.63,23.642z"/>
		<polygon fill="#FFFFFF" points="18.542,6.098 18.542,9.791 23.21,9.791 18.912,5.713 		"/>
	</g>
	<g display="inline">
		<g>
			<g>
				<g>
					<path fill="#00A389" d="M20.552,26.945c-2.932,0-5.316-2.384-5.316-5.316s2.384-5.316,5.316-5.316s5.316,2.384,5.316,5.316
						S23.484,26.945,20.552,26.945"/>
					<path fill="#FFFFFF" d="M20.552,27.444c-3.207,0-5.816-2.608-5.816-5.815s2.609-5.816,5.816-5.816s5.816,2.609,5.816,5.816
						S23.759,27.444,20.552,27.444z M20.552,16.812c-2.655,0-4.816,2.16-4.816,4.816c0,2.655,2.161,4.815,4.816,4.815
						c2.656,0,4.816-2.16,4.816-4.815C25.368,18.973,23.208,16.812,20.552,16.812z"/>
				</g>
			</g>
		</g>
	</g>
	<g display="inline">
		<path fill="#FFFFFF" d="M19.556,24.351l-1.859-1.859c-0.293-0.293-0.293-0.768,0-1.061s0.768-0.293,1.061,0l0.799,0.799
			l2.792-2.792c0.293-0.293,0.768-0.293,1.061,0s0.293,0.768,0,1.061L19.556,24.351z"/>
	</g>
</g>
<g id="process_flow" display="none">
	<g display="inline">
		<g>
			<g>
				<path fill="#FFFFFF" d="M0,4.7C0,2.6,2.5,0,5.2,0h21.6C29.5,0,31,2.5,31,5.2v21.6c0,2.7-1.5,4.2-4.2,4.2H5.2
					C2.5,31,0,29.5,0,26.8V4.7L0,4.7z"/>
				<path fill="#666666" d="M0,26.8V4.7C0,2.5,2.1,0,5.2,0h21.6c3,0,5.2,2.2,5.2,5.2v21.6c0,3-2.2,5.2-5.2,5.2H5.2
					C2.2,32,0,29.8,0,26.8z M31,5.2C31,2.8,29.2,1,26.8,1H5.2C2.7,1,1,3,1,4.7v22.1C1,29.2,2.8,31,5.2,31h21.6
					c2.4,0,4.2-1.8,4.2-4.2V5.2z"/>
			</g>
		</g>
		<g>
			<rect x="14" y="5" transform="matrix(0.7071 -0.7071 0.7071 0.7071 -0.4706 13.864)" fill="#E3992E" width="5" height="5"/>
			<path fill="#666666" d="M11.55,7.5l4.95,4.95l4.95-4.95L16.5,2.55L11.55,7.5z M16.5,3.964L20.036,7.5L16.5,11.036L12.964,7.5
				L16.5,3.964z"/>
		</g>
		<rect x="16" y="11" fill="#666666" width="1" height="5"/>
	</g>
	<circle display="inline" fill="#8CC53E" stroke="#666666" stroke-miterlimit="10" cx="8.5" cy="23.5" r="3.5"/>
	<polygon display="inline" fill="#666666" points="23,20 24,20 24,15 8,15 8,19.999 9,19.999 9,16 23,16 	"/>
	<circle display="inline" fill="#00A4D8" stroke="#666666" stroke-miterlimit="10" cx="23.5" cy="23.5" r="3.5"/>
</g>
<g id="Layer_23" display="none">
	<g id="Layer_1_18_" display="inline">
		<g>
			<circle fill="#FFFFFF" cx="16" cy="16" r="15.973"/>
			<circle fill="#83649B" cx="16" cy="16" r="14.939"/>
		</g>
	</g>
	<polygon display="inline" fill="none" points="7.827,1.061 7.827,8.661 15.303,8.661 15.303,17.803 20.369,17.803 20.369,24.261 
		15.303,24.261 8.111,24.261 7.827,24.261 7.827,26.739 26.951,26.739 26.951,1.061 	"/>
	<path display="inline" fill="#FFFFFF" d="M18.181,7.939h-7.745c-1.534,0-2.783,1.249-2.783,2.783v12.391
		c0,1.534,1.249,2.783,2.783,2.783h9.293c1.534,0,2.783-1.249,2.783-2.783v-0.787v-0.462v-2.297v-1.946v-5.549L18.181,7.939z
		 M21.593,19.568v2.297v0.462v0.786h0.001c0,1.028-0.836,1.864-1.864,1.864h-9.294c-1.028,0-1.864-0.836-1.864-1.864V10.721
		c0-1.028,0.836-1.864,1.864-1.864h6.796v4.123h2.582c0.015-0.001,0.029-0.009,0.043-0.009c0.017,0,0.029,0.008,0.046,0.009h1.69
		v4.643V19.568z"/>
	<g display="inline">
		<g>
			<path fill="#FFFFFF" d="M13.338,18.556c0.178-0.179,0.178-0.399,0-0.577l-1.411-1.348h7.592c0.251,0,0.456-0.335,0.456-0.588
				c0-0.252-0.204-0.588-0.456-0.588h-7.579l1.397-1.34c0.178-0.179,0.178-0.437,0-0.616c-0.178-0.179-0.466-0.163-0.644,0.015
				l-2.504,2.52l2.504,2.516C12.872,18.731,13.16,18.734,13.338,18.556"/>
		</g>
		<g>
			<path fill="#FFFFFF" d="M16.827,18.28c-0.178,0.179-0.178,0.399,0,0.577l1.411,1.348h-7.592c-0.251,0-0.456,0.335-0.456,0.588
				c0,0.252,0.204,0.588,0.456,0.588h7.579l-1.397,1.34c-0.178,0.179-0.178,0.437,0,0.616c0.178,0.179,0.466,0.163,0.644-0.015
				l2.504-2.52l-2.504-2.516C17.292,18.105,17.005,18.101,16.827,18.28"/>
		</g>
	</g>
	<g display="inline">
		<defs>
			<polygon id="SVGID_1_" points="10.19,-1 10.19,8.417 19.729,8.417 19.729,19.333 22.167,19.333 22.167,25.896 28.87,25.896 
				28.87,-1 			"/>
		</defs>
		<clipPath id="SVGID_2_">
			<use xlink:href="#SVGID_1_"  overflow="visible"/>
		</clipPath>
		<path clip-path="url(#SVGID_2_)" fill="#FFFFFF" d="M21.431,4.921h-7.745c-1.534,0-2.783,1.249-2.783,2.783v12.391
			c0,1.534,1.249,2.783,2.783,2.783h9.293c1.534,0,2.783-1.249,2.783-2.783v-0.787v-0.462v-2.297v-1.946V9.056L21.431,4.921z
			 M24.843,16.551v2.297v0.462v0.786h0.001c0,1.028-0.836,1.864-1.864,1.864h-9.294c-1.028,0-1.864-0.836-1.864-1.864V7.703
			c0-1.028,0.836-1.864,1.864-1.864h6.796v4.123h2.582c0.015-0.001,0.029-0.009,0.043-0.009c0.017,0,0.029,0.008,0.046,0.009h1.69
			v4.643V16.551z"/>
	</g>
</g>
<g id="Layer_24" display="none">
	<path display="inline" fill="#9370B1" stroke="#FFFFFF" stroke-miterlimit="10" d="M7.199,31.157c-1.887,0-3.423-1.535-3.423-3.423
		V4.265c0-1.887,1.535-3.423,3.423-3.423H22.07l6.154,6.154v20.738c0,1.887-1.535,3.423-3.423,3.423
		C24.801,31.158,7.199,31.158,7.199,31.157z"/>
	<polygon display="inline" fill="#735796" points="21.822,1.455 21.788,7.279 27.61,7.238 	"/>
	<g display="inline">
		<path fill="#735796" d="M12.311,17.401c0.333,0.333,0.777,0.517,1.248,0.517s0.914-0.184,1.248-0.517
			c0.688-0.688,0.688-1.808,0-2.496l-0.048-0.048h7.472c0.973,0,1.765-0.792,1.765-1.765s-0.792-1.765-1.765-1.765h-7.468
			l0.045-0.045c0.688-0.688,0.688-1.808,0-2.496c-0.334-0.332-0.777-0.516-1.249-0.516c-0.472,0-0.915,0.184-1.248,0.517l-3.6,3.6
			l-0.707,0.707l0.707,0.707L12.311,17.401z"/>
		<path fill="#735796" d="M19.688,18.788c-0.333-0.334-0.776-0.518-1.247-0.518s-0.914,0.184-1.248,0.517
			c-0.688,0.688-0.688,1.808,0,2.496l0.048,0.048H9.769c-0.973,0-1.765,0.792-1.765,1.765s0.792,1.765,1.765,1.765h7.468
			l-0.045,0.045c-0.688,0.688-0.688,1.808,0,2.496c0.333,0.333,0.776,0.517,1.248,0.517s0.915-0.184,1.248-0.517l3.6-3.6
			l0.707-0.707l-0.707-0.707L19.688,18.788z"/>
	</g>
	<g display="inline">
		<g>
			<path fill="#DD8100" d="M13.23,16.785c-0.337,0-0.654-0.131-0.894-0.37l-3.953-3.954l3.953-3.954
				c0.238-0.239,0.557-0.37,0.895-0.37s0.656,0.131,0.895,0.37s0.37,0.557,0.37,0.895c0,0.337-0.131,0.655-0.37,0.894l-0.898,0.898
				h8.675c0.697,0,1.265,0.567,1.265,1.265c0,0.697-0.567,1.265-1.265,1.265h-8.679l0.901,0.902c0.493,0.493,0.493,1.295,0,1.789
				C13.885,16.654,13.567,16.785,13.23,16.785z"/>
			<path fill="#FFFFFF" d="M13.23,8.637c0.196,0,0.392,0.074,0.541,0.224c0.299,0.299,0.299,0.783,0,1.081l-1.752,1.752h9.882
				c0.422,0,0.765,0.343,0.765,0.765s-0.343,0.765-0.765,0.765h-9.886l1.756,1.756c0.299,0.299,0.299,0.783,0,1.081
				c-0.149,0.149-0.345,0.224-0.541,0.224s-0.391-0.075-0.541-0.224l-3.6-3.6l3.6-3.6C12.839,8.712,13.035,8.637,13.23,8.637
				 M13.23,7.637c-0.472,0-0.915,0.184-1.248,0.517l-3.6,3.6l-0.707,0.707l0.707,0.707l3.6,3.6c0.333,0.333,0.777,0.517,1.248,0.517
				s0.914-0.184,1.248-0.517c0.688-0.688,0.688-1.808,0-2.496l-0.048-0.048h7.472c0.973,0,1.765-0.792,1.765-1.765
				s-0.792-1.765-1.765-1.765h-7.468l0.045-0.045c0.688-0.688,0.688-1.808,0-2.496C14.145,7.821,13.702,7.637,13.23,7.637
				L13.23,7.637z"/>
		</g>
	</g>
	<g display="inline">
		<g>
			<path fill="#00A4D8" d="M18.111,26.785c-0.338,0-0.656-0.132-0.895-0.37c-0.239-0.239-0.37-0.557-0.37-0.895
				s0.131-0.655,0.37-0.895l0.898-0.898H9.439c-0.698,0-1.265-0.567-1.265-1.265s0.567-1.265,1.265-1.265h8.679l-0.901-0.902
				c-0.239-0.239-0.371-0.557-0.371-0.894c0-0.338,0.132-0.655,0.371-0.895s0.557-0.37,0.895-0.37c0.337,0,0.654,0.131,0.894,0.37
				l3.953,3.954l-3.953,3.953C18.768,26.653,18.449,26.785,18.111,26.785z"/>
			<path fill="#FFFFFF" d="M18.112,18.637c0.196,0,0.391,0.075,0.541,0.224l3.6,3.6l-3.6,3.6c-0.149,0.149-0.345,0.224-0.541,0.224
				c-0.196,0-0.392-0.074-0.541-0.224c-0.299-0.299-0.299-0.783,0-1.081l1.752-1.752H9.441c-0.422,0-0.765-0.343-0.765-0.765
				c0-0.422,0.343-0.765,0.765-0.765h9.886l-1.756-1.756c-0.299-0.299-0.299-0.783,0-1.081
				C17.72,18.712,17.916,18.637,18.112,18.637 M18.112,17.637c-0.471,0-0.914,0.184-1.248,0.517c-0.688,0.688-0.688,1.808,0,2.496
				l0.048,0.048H9.44c-0.973,0-1.765,0.792-1.765,1.765s0.792,1.765,1.765,1.765h7.468l-0.045,0.045
				c-0.688,0.688-0.688,1.808,0,2.496c0.333,0.333,0.776,0.517,1.248,0.517s0.915-0.184,1.248-0.517l3.6-3.6l0.707-0.707
				l-0.707-0.707l-3.6-3.6C19.026,17.821,18.583,17.637,18.112,17.637L18.112,17.637z"/>
		</g>
	</g>
</g>
<g id="Layer_25">
	<g>
		<g>
			<g>
				<g>
					<path fill="#00A389" d="M9.952,27.756c-1.694,0-3.074-1.378-3.074-3.074V3.608c0-1.694,1.378-3.074,3.074-3.074h13.354
						l5.526,5.526v18.622c0,1.694-1.378,3.074-3.074,3.074C25.758,27.757,9.952,27.757,9.952,27.756z"/>
					<path fill="#FFFFFF" d="M9.952,28.289c-1.989,0-3.608-1.618-3.608-3.607V3.608C6.344,1.619,7.963,0,9.952,0h13.574l5.839,5.839
						v18.843c0,1.989-1.618,3.607-3.607,3.607 M17.855,28.291h-5.433 M9.952,1.068c-1.401,0-2.54,1.14-2.54,2.54v21.075
						c0,1.4,1.14,2.54,2.54,2.54h0.005c0.148,0,15.651,0,15.798,0c1.404,0,2.544-1.14,2.544-2.54V6.281l-5.214-5.213H9.952z"/>
				</g>
				<polygon fill="#00795A" points="23.083,1.084 23.052,6.314 28.28,6.277 				"/>
			</g>
			<g>
				<g>
					<path fill="#EEB111" stroke="#FFFFFF" stroke-miterlimit="10" d="M6.242,31.465c-1.694,0-3.074-1.378-3.074-3.074V7.317
						c0-1.694,1.378-3.074,3.074-3.074h13.354l5.526,5.526v18.622c0,1.694-1.378,3.074-3.074,3.074
						C22.048,31.466,6.242,31.466,6.242,31.465z"/>
					<path fill="#FFFFFF" d="M6.242,31.999c-1.989,0-3.608-1.618-3.608-3.607V7.317c0-1.989,1.619-3.608,3.608-3.608h13.574
						l5.839,5.839v18.843c0,1.989-1.618,3.607-3.607,3.607 M14.145,32H8.712 M6.242,4.777c-1.401,0-2.54,1.14-2.54,2.54v21.075
						c0,1.4,1.14,2.54,2.54,2.54h0.005c0.148,0,15.651,0,15.798,0c1.404,0,2.544-1.14,2.544-2.54V9.99l-5.214-5.213H6.242z"/>
				</g>
				<polygon fill="#BF6400" points="19.373,4.794 19.343,10.024 24.571,9.987 				"/>
			</g>
		</g>
		<polyline fill="none" stroke="#D24625" stroke-linecap="round" stroke-miterlimit="10" points="3.702,17.855 24.588,17.855 
			28.51,14.426 		"/>
		<g>
			<path fill="#D24625" d="M13.962,16.72l-0.69-1.812c-0.289-0.698-0.61-1.312-0.962-1.828c-0.819-1.201-1.835-1.946-2.971-1.953
				c-0.747-0.002-1.467,0.343-2.072,0.953c0,0,0,0,0,0c0,0,0,0-0.001,0h0c-0.587,0.582-0.924,1.267-0.923,1.98
				c0.011,1.141,0.802,2.118,2.035,2.907c0.318,0.203,0.671,0.397,1.055,0.58c0,0,1.539,0.836,3.086,1.251
				c-1.801,1.859-2.839,4.801-2.862,6.953c0.007,0.905,0.177,1.723,0.76,2.278c0.106,0.098,0.24,0.146,0.374,0.146
				c0.149,0,0.297-0.06,0.406-0.178c0.206-0.225,0.192-0.574-0.033-0.78c-0.214-0.178-0.409-0.707-0.402-1.465
				c-0.024-1.793,1.004-4.559,2.511-6.159l0.71-0.745c0.241-0.327-0.194,0.101,0,0c0,0-0.243-0.502,0,0
				c0.718,0.787,2.347,3.079,3.469,6.084c0.082,0.222,0.293,0.36,0.517,0.36c0.064,0,0.129-0.011,0.193-0.035
				c0.286-0.106,0.432-0.425,0.325-0.71c-1.169-3.139-2.301-4.834-3.15-5.748c0,0,3.302-1.001,4.496-2.163
				c0.457-0.451,0.726-0.978,0.729-1.581c-0.006-0.774-0.431-1.475-1.101-2.147c-0.673-0.67-1.374-1.095-2.148-1.1
				c-0.966,0.004-1.737,0.691-2.315,1.744c-0.168,0.303-0.325,0.647-0.476,1.026C14.525,14.577,13.928,16.166,13.962,16.72z
				 M12.826,17.548c-1.644-0.401-2.95-0.931-3.852-1.51c-1.088-0.695-1.535-1.415-1.525-1.976c0.001-0.362,0.158-0.754,0.599-1.2
				h0.001c0.46-0.458,0.884-0.628,1.29-0.63c0.603-0.007,1.345,0.426,2.06,1.471c0.606,0.886,1.161,2.184,1.565,3.845H12.826z
				 M15.966,14.087c0.513-0.911,0.97-1.18,1.349-1.175c0.324-0.006,0.798,0.205,1.366,0.777c0.571,0.568,0.783,1.042,0.776,1.366
				c0.005,0.379-0.264,0.836-1.175,1.349c-0.735,0.41-1.846,0.801-3.32,1.144H14.79C15.14,16.003,15.543,14.847,15.966,14.087z"/>
		</g>
	</g>
	<g id="shortcut_overlay_1_" display="none">
		<g id="Shortcut_3_" display="inline">
		</g>
	</g>
	<g id="fave_icon_-_selected_8_">
	</g>
	<g id="fave_icon_-_selected_9_">
	</g>
</g>
</svg>
