<?xml version="1.0" encoding="utf-8"?>
<!-- Generator: Adobe Illustrator 19.1.0, SVG Export Plug-In . SVG Version: 6.00 Build 0)  -->
<svg version="1.1" id="human_x5F_activity" xmlns="http://www.w3.org/2000/svg" xmlns:xlink="http://www.w3.org/1999/xlink" x="0px"
	 y="0px" viewBox="-46 47 32 32" style="enable-background:new -46 47 32 32;" xml:space="preserve">
<style type="text/css">
	.st0{fill:#FFFFFF;}
	.st1{fill:#666666;}
	.st2{fill:#1291CE;}
	.st3{fill:#00A389;}
</style>
<g id="Layer_3_1_">
	<g>
		<g>
			<path class="st0" d="M-41.3,79c-2,0-4.7-2.5-4.7-5.2V52.2c0-2.7,2.5-4.2,5.2-4.2h21.6c2.7,0,4.2,1.5,4.2,4.2v21.6
				c0,2.7-1.5,5.2-4.2,5.2H-41.3L-41.3,79z"/>
			<path class="st1" d="M-19.2,79h-22.1c-2.2,0-4.7-2.1-4.7-5.2V52.2c0-3,2.2-5.2,5.2-5.2h21.6c3,0,5.2,2.2,5.2,5.2v21.6
				C-14,76.8-16.2,79-19.2,79z M-40.8,48c-2.4,0-4.2,1.8-4.2,4.2v21.6c0,2.5,2,4.2,3.7,4.2h22.1c2.4,0,4.2-1.8,4.2-4.2V52.2
				c0-2.4-1.8-4.2-4.2-4.2H-40.8z"/>
		</g>
	</g>
</g>
<g>
	<g id="Layer_2">
	</g>
	<g id="Layer_1_1_">
	</g>
	<g id="Layer_3_2_">
		<g>
			<path class="st2" d="M-19.952,71.513c-0.075-1.08-0.126-1.64-0.498-2.897c-0.266-0.902-0.888-1.566-1.9-2.031
				c-0.864-0.397-1.899-0.595-2.813-0.769c-0.756-0.145-1.47-0.281-1.968-0.505c-0.273-0.122-0.511-0.303-0.707-0.538
				c-0.108-0.129-0.206-0.278-0.292-0.443c0.436-0.357,0.813-0.79,1.131-1.294c0.436-0.694,0.758-1.524,0.961-2.481
				c0.208-0.059,0.411-0.22,0.583-0.462c0.19-0.27,0.334-0.63,0.403-1.015c0.101-0.56,0.038-1.096-0.168-1.451
				c0.019-0.073,0.035-0.147,0.051-0.225c0.096-0.481,0.127-1.037,0.095-1.656c-0.056-1.046-0.274-1.894-0.282-1.929
				c-0.225-0.895-0.896-1.793-1.841-2.465c-0.753-0.533-2.027-1.17-3.821-1.17c-1.794,0-3.068,0.637-3.821,1.172
				c-0.945,0.671-1.616,1.568-1.841,2.463c-0.012,0.046-0.23,0.892-0.287,1.931c-0.034,0.618-0.003,1.175,0.093,1.656
				c0.014,0.075,0.031,0.147,0.049,0.219c-0.208,0.355-0.272,0.892-0.171,1.456c0.07,0.387,0.213,0.748,0.405,1.019
				c0.173,0.243,0.377,0.403,0.586,0.461c0.204,0.956,0.525,1.786,0.961,2.48c0.319,0.506,0.697,0.94,1.135,1.298
				c-0.085,0.163-0.182,0.311-0.289,0.439c-0.196,0.234-0.434,0.415-0.707,0.538c-0.499,0.224-1.213,0.361-1.968,0.505
				c-0.913,0.174-1.949,0.372-2.813,0.769c-1.012,0.464-1.633,1.129-1.9,2.031c-0.367,1.241-0.421,1.802-0.495,2.857
				c-0.04,0.169-0.065,0.344-0.065,0.524v1.12c0,0.017,0.004,0.032,0.005,0.048c0.027,1.266,1.067,2.295,2.34,2.295h17.556
				c1.289,0,2.344-1.055,2.344-2.344v-0.866v-0.254C-19.9,71.831-19.919,71.669-19.952,71.513z"/>
			<path class="st0" d="M-22.244,75.883H-39.8c-1.491,0-2.729-1.214-2.761-2.708l-0.005-1.177c0-0.196,0.024-0.399,0.075-0.618
				c0.062-0.98,0.119-1.586,0.502-2.883c0.302-1.025,0.999-1.775,2.127-2.295c0.914-0.419,1.975-0.621,2.911-0.8
				c0.734-0.141,1.422-0.272,1.875-0.475c0.215-0.096,0.402-0.239,0.555-0.423c0.023-0.028,0.046-0.056,0.067-0.088
				c-0.357-0.335-0.675-0.723-0.946-1.155c-0.428-0.682-0.753-1.488-0.967-2.4c-0.209-0.112-0.402-0.289-0.566-0.521
				c-0.227-0.32-0.396-0.742-0.476-1.188c-0.105-0.588-0.054-1.154,0.141-1.584c-0.008-0.028-0.013-0.056-0.019-0.083
				c-0.102-0.513-0.136-1.106-0.099-1.761c0.06-1.108,0.298-2.007,0.3-2.016c0.247-0.984,0.978-1.97,2.005-2.698
				c0.803-0.57,2.159-1.25,4.065-1.25s3.262,0.68,4.065,1.25c1.026,0.728,1.756,1.714,2.006,2.705c0,0.003,0.235,0.904,0.295,2.009
				c0.035,0.653-0.001,1.245-0.103,1.76c-0.006,0.03-0.013,0.06-0.019,0.089c0.193,0.431,0.243,0.994,0.137,1.578
				c-0.08,0.443-0.249,0.865-0.474,1.184c-0.163,0.232-0.355,0.409-0.563,0.522c-0.216,0.915-0.542,1.722-0.968,2.402
				c-0.27,0.431-0.586,0.818-0.943,1.153c0.023,0.031,0.047,0.062,0.071,0.09c0.155,0.185,0.341,0.327,0.556,0.423
				c0.453,0.203,1.141,0.335,1.869,0.474c0.941,0.179,2.002,0.382,2.915,0.801c1.13,0.518,1.826,1.269,2.129,2.295
				c0.381,1.29,0.437,1.878,0.511,2.96c0.037,0.182,0.055,0.364,0.055,0.541v1.12C-19.479,74.641-20.719,75.883-22.244,75.883z
				 M-31.017,50.603c-1.684,0-2.874,0.595-3.576,1.094c-0.865,0.614-1.476,1.424-1.676,2.224c-0.004,0.013-0.221,0.843-0.276,1.85
				c-0.032,0.585-0.003,1.106,0.085,1.551c0.013,0.068,0.029,0.133,0.045,0.197l0.043,0.168l-0.088,0.149
				c-0.157,0.265-0.201,0.713-0.12,1.168c0.059,0.327,0.178,0.629,0.335,0.85c0.112,0.158,0.24,0.265,0.354,0.297l0.247,0.068
				l0.053,0.251c0.192,0.903,0.497,1.692,0.906,2.343c0.291,0.463,0.643,0.865,1.045,1.196l0.265,0.218l-0.159,0.303
				c-0.099,0.19-0.213,0.362-0.339,0.512c-0.236,0.283-0.524,0.502-0.857,0.651c-0.543,0.244-1.278,0.384-2.055,0.533
				c-0.894,0.171-1.903,0.364-2.723,0.739c-0.895,0.411-1.441,0.99-1.67,1.768c-0.359,1.215-0.409,1.755-0.479,2.766
				c-0.046,0.222-0.063,0.363-0.063,0.495v1.12c0.025,1.078,0.886,1.923,1.922,1.923h17.556c1.061,0,1.923-0.862,1.923-1.923v-1.12
				c0-0.128-0.014-0.263-0.043-0.398l-0.008-0.057c-0.073-1.065-0.122-1.588-0.481-2.807c-0.233-0.79-0.764-1.351-1.672-1.768
				c-0.82-0.375-1.827-0.568-2.716-0.737c-0.785-0.151-1.52-0.292-2.062-0.535c-0.331-0.148-0.619-0.368-0.857-0.651
				c-0.126-0.151-0.241-0.325-0.342-0.519l-0.158-0.303l0.265-0.217c0.399-0.328,0.75-0.728,1.04-1.192
				c0.408-0.649,0.713-1.437,0.906-2.344l0.053-0.248l0.244-0.069c0.113-0.033,0.242-0.142,0.354-0.3
				c0.157-0.222,0.274-0.522,0.333-0.847c0.082-0.453,0.036-0.898-0.118-1.166l-0.087-0.149l0.043-0.167
				c0.018-0.066,0.032-0.133,0.046-0.202c0.088-0.445,0.119-0.967,0.088-1.55c-0.054-1.004-0.267-1.834-0.27-1.842
				c-0.201-0.806-0.813-1.616-1.677-2.23C-28.143,51.198-29.334,50.603-31.017,50.603z"/>
		</g>
	</g>
	<g id="Layer_4">
	</g>
	<g id="Layer_5">
	</g>
	<g id="Layer_7_1_">
	</g>
</g>
<g>
	<g>
		<g>
			<path class="st3" d="M-19.9,77.314c-2.328,0-4.222-1.894-4.222-4.223c0-2.328,1.894-4.222,4.222-4.222s4.222,1.894,4.222,4.222
				C-15.678,75.42-17.572,77.314-19.9,77.314z"/>
			<path class="st0" d="M-19.9,69.291c2.096,0,3.8,1.705,3.8,3.8c0,2.096-1.705,3.8-3.8,3.8s-3.8-1.705-3.8-3.8
				C-23.7,70.996-21.996,69.291-19.9,69.291 M-19.9,68.447c-2.565,0-4.645,2.079-4.645,4.644c0,2.565,2.08,4.645,4.645,4.645
				c2.566,0,4.644-2.079,4.644-4.645C-15.256,70.526-17.334,68.447-19.9,68.447L-19.9,68.447z"/>
		</g>
	</g>
	<path class="st0" d="M-20.591,74.809l-1.617-1.617c-0.139-0.139-0.139-0.363,0-0.501c0.139-0.139,0.362-0.139,0.501,0l1.122,1.122
		l2.395-2.339c0.14-0.136,0.364-0.134,0.501,0.006c0.137,0.14,0.134,0.364-0.006,0.501L-20.591,74.809z"/>
</g>
</svg>
