<?xml version="1.0" encoding="utf-8"?>
<!-- Generator: Adobe Illustrator 19.2.1, SVG Export Plug-In . SVG Version: 6.00 Build 0)  -->
<svg version="1.1" id="Layer_1" xmlns="http://www.w3.org/2000/svg" xmlns:xlink="http://www.w3.org/1999/xlink" x="0px" y="0px"
	 viewBox="0 0 32 32" enable-background="new 0 0 32 32" xml:space="preserve">
<g>
	<g>
		<g>
			<g>
				<path fill="#0072AA" d="M24.284,31.487H6.669c-2.158,0-4.241-1.737-4.241-3.872V4.385c0-2.135,2.083-3.872,4.241-3.872h15.332
					l6.524,6.453v20.649C28.525,29.75,26.443,31.487,24.284,31.487z"/>
				<path fill="#FFFFFF" d="M24.285,32H6.669c-2.532,0-4.754-2.049-4.754-4.385V4.385C1.915,2.049,4.137,0,6.669,0h15.543
					l6.827,6.752v20.863C29.039,29.951,26.817,32,24.285,32z M6.669,1.027c-1.951,0-3.727,1.601-3.727,3.358v23.23
					c0,1.757,1.776,3.358,3.727,3.358h17.616c1.951,0,3.727-1.601,3.727-3.358V7.18L21.79,1.027H6.669z"/>
			</g>
		</g>
	</g>
	<polygon fill="#004B71" points="21.822,1.097 21.822,7.206 27.999,7.206 	"/>
</g>
<g>
	<g>
		<g>
			<g>
				<g>
					<g>
						<path fill="#00A389" d="M26.5,31.607c-2.817,0-5.107-2.29-5.107-5.107s2.29-5.107,5.107-5.107s5.107,2.29,5.107,5.107
							S29.317,31.607,26.5,31.607"/>
						<path fill="#FFFFFF" d="M26.5,32c-3.032,0-5.5-2.468-5.5-5.5s2.468-5.5,5.5-5.5s5.5,2.468,5.5,5.5S29.532,32,26.5,32z
							 M26.5,21.786c-2.6,0-4.714,2.115-4.714,4.714s2.115,4.714,4.714,4.714s4.714-2.115,4.714-4.714S29.1,21.786,26.5,21.786z"/>
					</g>
				</g>
			</g>
		</g>
	</g>
	<g>
		<path fill="#FFFFFF" d="M25.565,28.964l-1.786-1.786c-0.281-0.281-0.281-0.738,0-1.019s0.738-0.281,1.019,0l0.768,0.768
			l2.682-2.682c0.281-0.281,0.738-0.281,1.019,0c0.281,0.281,0.281,0.738,0,1.019L25.565,28.964z"/>
	</g>
</g>
<g>
	<rect x="6.454" y="10.783" fill="#004B71" width="1.473" height="10.21"/>
	<rect x="9.032" y="10.783" fill="#004B71" width="1.473" height="10.21"/>
	<rect x="11.057" y="10.783" fill="#004B71" width="1.473" height="10.21"/>
	<rect x="13.635" y="10.783" fill="#004B71" width="0.737" height="10.21"/>
	<rect x="15.477" y="10.783" fill="#004B71" width="0.737" height="10.21"/>
	<rect x="17.318" y="10.783" fill="#004B71" width="2.026" height="10.21"/>
	<rect x="21.001" y="10.783" fill="#004B71" width="1.841" height="10.21"/>
	<rect x="23.764" y="10.783" fill="#004B71" width="0.737" height="10.21"/>
</g>
<g>
	<rect x="6.085" y="10.337" fill="#FFFFFF" width="1.473" height="10.21"/>
	<rect x="8.664" y="10.337" fill="#FFFFFF" width="1.473" height="10.21"/>
	<rect x="10.689" y="10.337" fill="#FFFFFF" width="1.473" height="10.21"/>
	<rect x="13.267" y="10.337" fill="#FFFFFF" width="0.737" height="10.21"/>
	<rect x="15.109" y="10.337" fill="#FFFFFF" width="0.737" height="10.21"/>
	<rect x="16.95" y="10.337" fill="#FFFFFF" width="2.026" height="10.21"/>
	<rect x="20.633" y="10.337" fill="#FFFFFF" width="1.841" height="10.21"/>
	<rect x="23.395" y="10.337" fill="#FFFFFF" width="0.737" height="10.21"/>
</g>
</svg>
