<?xml version="1.0" encoding="utf-8"?>
<!-- Generator: Adobe Illustrator 20.1.0, SVG Export Plug-In . SVG Version: 6.00 Build 0)  -->
<svg version="1.1" id="Layer_2" xmlns="http://www.w3.org/2000/svg" xmlns:xlink="http://www.w3.org/1999/xlink" x="0px" y="0px"
	 viewBox="0 0 32 32" style="enable-background:new 0 0 32 32;" xml:space="preserve">
<style type="text/css">
	.st0{fill:#C57C15;}
	.st1{fill:#FFFFFF;}
	.st2{fill:#B26602;}
</style>
<title>mime</title>
<g>
	<path class="st0" d="M7,31.5c-1.933,0-3.5-1.567-3.5-3.5V4c0-1.933,1.567-3.5,3.5-3.5h15.207L28.5,6.793V28
		c0,1.933-1.567,3.5-3.5,3.5H7z"/>
	<path class="st1" d="M25,32H7c-2.209,0-4-1.791-4-4V4c0-2.209,1.791-4,4-4h15.414L29,6.586V28C29,30.209,27.209,32,25,32z M7,1
		C5.343,1,4,2.343,4,4v24c0,1.657,1.343,3,3,3h18c1.657,0,3-1.343,3-3V7l-6-6H7z"/>
	<path class="st2" d="M3.685,22.009h2.812c0.276,0,0.5-0.224,0.5-0.5s-0.224-0.5-0.5-0.5H3.685V22.009z"/>
	<polygon class="st2" points="22,1 22,7 28,7 	"/>
	<path class="st2" d="M24.623,18.988c0.969-1.002,0.943-2.6-0.058-3.569c-0.979-0.947-2.532-0.947-3.511,0l-0.9,0.9l3.569,3.569
		L24.623,18.988z"/>
	<polygon class="st2" points="13.91,22.562 13.018,27.024 17.48,26.132 22.834,20.777 19.265,17.208 	"/>
	<path class="st2" d="M19.623,13.988c0.969-1.002,0.943-2.6-0.058-3.569c-0.979-0.947-2.532-0.947-3.511,0l-0.9,0.9l3.569,3.569
		L19.623,13.988z"/>
	<polygon class="st2" points="8.91,17.562 8.018,22.024 12.48,21.132 17.834,15.777 14.265,12.208 	"/>
	<path class="st1" d="M24.623,17.988c0.969-1.002,0.943-2.6-0.058-3.569c-0.979-0.947-2.532-0.947-3.511,0l-0.9,0.9l3.569,3.569
		L24.623,17.988z"/>
	<polygon class="st1" points="13.91,21.562 13.018,26.024 17.48,25.132 22.834,19.777 19.265,16.208 	"/>
	<path class="st1" d="M19.623,12.988c0.969-1.002,0.943-2.6-0.058-3.569c-0.979-0.947-2.532-0.947-3.511,0l-0.9,0.9l3.569,3.569
		L19.623,12.988z"/>
	<polygon class="st1" points="8.91,16.562 8.018,21.024 12.48,20.132 17.834,14.777 14.265,11.208 	"/>
	<path class="st2" d="M11.5,26.019H4.007v1H11.5c0.276,0,0.5-0.224,0.5-0.5S11.776,26.019,11.5,26.019z"/>
	<path class="st1" d="M11.5,26.019c0.276,0,0.5-0.224,0.5-0.5s-0.224-0.5-0.5-0.5H3.415v1H11.5z"/>
	<path class="st1" d="M6.497,21.009c0.276,0,0.5-0.224,0.5-0.5s-0.224-0.5-0.5-0.5H3.305v1H6.497z"/>
	<path class="st1" d="M24.637,17.988c0.969-1.002,0.943-2.6-0.058-3.569c-0.979-0.947-2.532-0.947-3.511,0l-0.9,0.9l3.569,3.569
		L24.637,17.988z"/>
	<polygon class="st1" points="13.924,21.562 13.032,26.024 17.494,25.132 22.848,19.777 19.279,16.208 	"/>
	<path class="st1" d="M19.637,12.988c0.969-1.002,0.943-2.6-0.058-3.569c-0.979-0.947-2.532-0.947-3.511,0l-0.9,0.9l3.569,3.569
		L19.637,12.988z"/>
	<polygon class="st1" points="8.924,16.562 8.032,21.024 12.494,20.132 17.848,14.777 14.279,11.208 	"/>
	<path class="st1" d="M22,1l6,6v21c0,1.657-1.343,3-3,3H7c-1.657,0-3-1.343-3-3V4c0-1.657,1.343-3,3-3H22 M22.414,0H7
		C4.791,0,3,1.791,3,4v24c0,2.209,1.791,4,4,4h18c2.209,0,4-1.791,4-4V6.586l-0.293-0.293l-6-6L22.414,0L22.414,0z"/>
</g>
</svg>
