<?xml version="1.0" encoding="utf-8"?>
<!-- Generator: Adobe Illustrator 19.2.1, SVG Export Plug-In . SVG Version: 6.00 Build 0)  -->
<svg version="1.1" id="Layer_1" xmlns="http://www.w3.org/2000/svg" xmlns:xlink="http://www.w3.org/1999/xlink" x="0px" y="0px"
	 viewBox="0 0 32 32" style="enable-background:new 0 0 32 32;" xml:space="preserve">
<style type="text/css">
	.st0{fill:#FFFFFF;}
	.st1{fill:#676767;}
	.st2{fill:#D66F28;}
	.st3{fill:#333333;}
</style>
<g>
	<g>
		<path class="st0" d="M4.7,32c-2,0-4.7-2.5-4.7-5.2V5.2C0,2.5,2.5,1,5.2,1h21.6C29.5,1,31,2.5,31,5.2v21.6c0,2.7-1.5,5.2-4.2,5.2
			H4.7L4.7,32z"/>
		<path class="st1" d="M26.8,32H4.7C2.5,32,0,29.9,0,26.8V5.2C0,2.2,2.2,0,5.2,0h21.6c3,0,5.2,2.2,5.2,5.2v21.6
			C32,29.8,29.8,32,26.8,32z M5.2,1C2.8,1,1,2.8,1,5.2v21.6C1,29.3,3,31,4.7,31h22.1c2.4,0,4.2-1.8,4.2-4.2V5.2
			C31,2.8,29.2,1,26.8,1H5.2z"/>
	</g>
</g>
<g>
	
		<text transform="matrix(1 0 0 1 -3.5889 -12.0469)" class="st0" style="font-family:'HelveticaNeueLTStd-Lt'; font-size:4.4467px;">314516</text>
</g>
<g>
	
		<text transform="matrix(1 0 0 1 -87.583 -12.0469)" class="st0" style="font-family:'HelveticaNeueLTStd-Lt'; font-size:4.4467px;">004358</text>
</g>
<rect x="5" y="16" class="st2" width="8" height="6"/>
<rect x="19" y="16" class="st2" width="8" height="6"/>
<rect x="8" y="22" class="st3" width="2" height="6"/>
<rect x="22" y="22" class="st3" width="2" height="6"/>
<path class="st3" d="M22,9h-3h-1c-0.6,0-1-0.4-1-1V4h-2v4c0,0.6-0.4,1-1,1h-1h-3c-1.1,0-2,0.9-2,2v5h2v-5h3h2c0.6,0,1-0.4,1-1
	c0,0.6,0.4,1,1,1h2h3v5h2v-5C24,9.9,23.1,9,22,9z"/>
</svg>
