<?xml version="1.0" encoding="utf-8"?>
<!-- Generator: Adobe Illustrator 19.1.0, SVG Export Plug-In . SVG Version: 6.00 Build 0)  -->
<svg version="1.1" id="Layer_1" xmlns="http://www.w3.org/2000/svg" xmlns:xlink="http://www.w3.org/1999/xlink" x="0px" y="0px"
	 viewBox="0 0 32 32" enable-background="new 0 0 32 32" xml:space="preserve">
<g>
	<g>
		<path fill="#E76F2E" stroke="#FFFFFF" stroke-miterlimit="10" d="M7,31.5c-1.93,0-3.5-1.57-3.5-3.5V4c0-1.93,1.57-3.5,3.5-3.5
			h15.207L28.5,6.793V28c0,1.93-1.57,3.5-3.5,3.5H7z"/>
		<polygon fill="#B2410F" points="22,1 22,7 28,7 		"/>
	</g>
	<path fill="#B2410F" d="M24.355,20.196c0.237-0.237,0.238-0.624,0-0.861c-0.187-0.187-0.466-0.226-0.692-0.119l-3.934-3.934
		c-0.01-0.014-0.021-0.028-0.032-0.042l-0.01-0.013l0-1.627h-1.628l-0.012-0.009c-0.014-0.011-0.028-0.022-0.042-0.032l-3.934-3.934
		c0.107-0.226,0.068-0.505-0.119-0.691c-0.237-0.238-0.624-0.238-0.861,0c-0.238,0.237-0.238,0.624,0,0.861
		c0.187,0.187,0.465,0.226,0.691,0.119l2.859,2.86c-2.713-1.211-5.867-0.743-8.107,1.182H7.713v1.219l1.218,0v-0.762
		c2.484-2.129,6.181-2.276,8.827-0.286v1.403h1.404c1.99,2.646,1.843,6.343-0.286,8.827h-0.762v1.219h1.218v-0.823
		c1.925-2.24,2.393-5.394,1.182-8.107l2.859,2.859c-0.107,0.226-0.068,0.505,0.119,0.692C23.731,20.434,24.117,20.434,24.355,20.196
		z M19.279,15.121h-1.111V14.01h1.111V15.121z"/>
	<path fill="#FFFFFF" d="M24.355,19.792c0.237-0.237,0.238-0.624,0-0.861c-0.187-0.187-0.466-0.226-0.692-0.119l-3.934-3.934
		c-0.01-0.014-0.021-0.028-0.032-0.042l-0.01-0.013l0-1.627h-1.628l-0.012-0.009c-0.014-0.011-0.028-0.022-0.042-0.032l-3.934-3.934
		c0.107-0.226,0.068-0.505-0.119-0.691c-0.237-0.238-0.624-0.238-0.861,0c-0.238,0.237-0.238,0.624,0,0.861
		c0.187,0.187,0.465,0.226,0.691,0.119l2.859,2.86c-2.713-1.211-5.867-0.743-8.107,1.182H7.713v1.219l1.218,0v-0.762
		c2.484-2.129,6.181-2.276,8.827-0.286v1.403h1.404c1.99,2.646,1.843,6.343-0.286,8.827h-0.762v1.219h1.218v-0.823
		c1.925-2.24,2.393-5.394,1.182-8.107l2.859,2.859c-0.107,0.226-0.068,0.505,0.119,0.692C23.731,20.029,24.117,20.029,24.355,19.792
		z M19.279,14.716h-1.111v-1.111h1.111V14.716z"/>
</g>
</svg>
