<?xml version="1.0" encoding="utf-8"?>
<!-- Generator: Adobe Illustrator 20.1.0, SVG Export Plug-In . SVG Version: 6.00 Build 0)  -->
<svg version="1.1" id="Layer_2" xmlns="http://www.w3.org/2000/svg" xmlns:xlink="http://www.w3.org/1999/xlink" x="0px" y="0px"
	 viewBox="0 0 32 32" style="enable-background:new 0 0 32 32;" xml:space="preserve">
<style type="text/css">
	.st0{fill:#C57C15;}
	.st1{fill:#FFFFFF;}
</style>
<title>mime</title>
<g>
	<path class="st0" d="M26.647,32H5.353C2.398,31.997,0.003,29.602,0,26.647V5.352C0.003,2.397,2.398,0.003,5.353,0h21.294
		c2.955,0.003,5.35,2.397,5.353,5.352v21.3C31.994,29.605,29.6,31.997,26.647,32z"/>
	<path class="st1" d="M14.499,24H3.501C3.224,24,3,23.776,3,23.5S3.224,23,3.501,23h10.999C14.776,23,15,23.224,15,23.5
		S14.776,24,14.499,24z"/>
	<path class="st1" d="M9.559,19H3.438C3.196,19,3,18.776,3,18.5S3.196,18,3.438,18h6.121c0.242,0,0.438,0.224,0.438,0.5
		S9.801,19,9.559,19z"/>
	<path class="st1" d="M27.637,15.981c0.969-1.002,0.943-2.6-0.058-3.569c-0.979-0.947-2.532-0.947-3.511,0l-0.9,0.9l3.569,3.569
		L27.637,15.981z"/>
	<polygon class="st1" points="16.924,19.555 16.032,24.017 20.494,23.125 25.848,17.77 22.279,14.201 	"/>
	<path class="st1" d="M22.637,10.981c0.969-1.002,0.943-2.6-0.058-3.569c-0.979-0.947-2.532-0.947-3.511,0l-0.9,0.9l3.569,3.569
		L22.637,10.981z"/>
	<polygon class="st1" points="11.924,14.555 11.032,19.017 15.494,18.125 20.848,12.77 17.279,9.201 	"/>
</g>
</svg>
