<?xml version="1.0" encoding="utf-8"?>
<!-- Generator: Adobe Illustrator 19.1.0, SVG Export Plug-In . SVG Version: 6.00 Build 0)  -->
<svg version="1.1" id="Layer_1" xmlns="http://www.w3.org/2000/svg" xmlns:xlink="http://www.w3.org/1999/xlink" x="0px" y="0px"
	 viewBox="-463 265 32 32" enable-background="new -463 265 32 32" xml:space="preserve">
<g>
	<g>
		<path fill="#DD8100" stroke="#FFFFFF" stroke-miterlimit="10" d="M-456,296.5c-1.93,0-3.5-1.57-3.5-3.5v-24
			c0-1.93,1.57-3.5,3.5-3.5h15.207l6.293,6.293V293c0,1.93-1.57,3.5-3.5,3.5H-456z"/>
		<polygon fill="#00795A" points="-441,266 -441,272 -435,272 		"/>
	</g>
	<g>
		<path fill="none" stroke="#FFFFFF" stroke-miterlimit="10" d="M-456,296.5c-1.93,0-3.5-1.57-3.5-3.5v-24c0-1.93,1.57-3.5,3.5-3.5
			h15.207l6.293,6.293V293c0,1.93-1.57,3.5-3.5,3.5H-456z"/>
		<polygon fill="#B2410F" points="-441,266 -441,272 -435,272 		"/>
	</g>
	<g>
		<g>
			<polygon fill="#B2410F" points="-442,283.25 -442,282.001 -443.25,282.001 -443.25,280.75 -444.5,280.75 -444.5,279.5 
				-445.75,279.5 -445.75,278.251 -447,278.251 -447,277.001 -448.251,277.001 -448.251,275.75 -449.501,275.75 -449.501,274.5 
				-450.75,274.5 -450.75,273.251 -452,273.251 -452,287 -450.75,287 -450.75,285.75 -449.501,285.75 -449.501,284.5 
				-448.251,284.5 -448.251,285.75 -447,285.75 -447,288.249 -445.75,288.249 -445.75,290.749 -443.25,290.749 -443.25,288.249 
				-444.5,288.249 -444.5,285.75 -445.75,285.75 -445.75,283.25 			"/>
		</g>
		<g>
			<polygon fill="#FFFFFF" points="-442,282.25 -442,281.001 -443.25,281.001 -443.25,279.75 -444.5,279.75 -444.5,278.5 
				-445.75,278.5 -445.75,277.251 -447,277.251 -447,276.001 -448.251,276.001 -448.251,274.75 -449.501,274.75 -449.501,273.5 
				-450.75,273.5 -450.75,272.251 -452,272.251 -452,286 -450.75,286 -450.75,284.75 -449.501,284.75 -449.501,283.5 
				-448.251,283.5 -448.251,284.75 -447,284.75 -447,287.249 -445.75,287.249 -445.75,289.749 -443.25,289.749 -443.25,287.249 
				-444.5,287.249 -444.5,284.75 -445.75,284.75 -445.75,282.25 			"/>
		</g>
	</g>
</g>
</svg>
