<?xml version="1.0" encoding="utf-8"?>
<!-- Generator: Adobe Illustrator 19.1.0, SVG Export Plug-In . SVG Version: 6.00 Build 0)  -->
<svg version="1.1" id="Layer_1" xmlns="http://www.w3.org/2000/svg" xmlns:xlink="http://www.w3.org/1999/xlink" x="0px" y="0px"
	 viewBox="0 0 32 32" enable-background="new 0 0 32 32" xml:space="preserve">
<g>
	<g>
		<path fill="#8797A1" d="M7,31.5c-1.93,0-3.5-1.57-3.5-3.5V4c0-1.93,1.57-3.5,3.5-3.5h15.207L28.5,6.793V28
			c0,1.93-1.57,3.5-3.5,3.5H7z"/>
		<polygon fill="#00795A" points="22,1 22,7 28,7 		"/>
	</g>
	<g>
		<path fill="none" stroke="#FFFFFF" stroke-miterlimit="10" d="M7,31.5c-1.93,0-3.5-1.57-3.5-3.5V4c0-1.93,1.57-3.5,3.5-3.5h15.207
			L28.5,6.793V28c0,1.93-1.57,3.5-3.5,3.5H7z"/>
		<polygon fill="#4A5962" points="22,1 22,7 28,7 		"/>
	</g>
	<g>
		<rect x="8.538" y="11.523" fill="#4A5962" width="2.984" height="2.984"/>
		<rect x="11.523" y="14.508" fill="#4A5962" width="2.984" height="2.984"/>
		<rect x="14.508" y="11.523" fill="#4A5962" width="2.984" height="2.984"/>
		<rect x="17.492" y="14.508" fill="#4A5962" width="2.984" height="2.984"/>
		<rect x="8.538" y="17.493" fill="#4A5962" width="2.984" height="2.984"/>
		<rect x="11.523" y="20.478" fill="#4A5962" width="2.984" height="2.984"/>
		<rect x="14.508" y="17.493" fill="#4A5962" width="2.984" height="2.984"/>
		<rect x="17.492" y="20.478" fill="#4A5962" width="2.984" height="2.984"/>
		<rect x="8.538" y="23.462" fill="#4A5962" width="2.984" height="2.984"/>
		<rect x="20.477" y="11.523" fill="#4A5962" width="2.984" height="2.984"/>
		<rect x="14.508" y="23.462" fill="#4A5962" width="2.984" height="2.984"/>
		<rect x="20.477" y="23.462" fill="#4A5962" width="2.984" height="2.984"/>
		<rect x="20.477" y="17.493" fill="#4A5962" width="2.984" height="2.984"/>
	</g>
	<g>
		<rect x="8.538" y="10.523" fill="#FFFFFF" width="2.984" height="2.984"/>
		<rect x="11.523" y="13.508" fill="#FFFFFF" width="2.984" height="2.984"/>
		<rect x="14.508" y="10.523" fill="#FFFFFF" width="2.984" height="2.984"/>
		<rect x="17.492" y="13.508" fill="#FFFFFF" width="2.984" height="2.984"/>
		<rect x="8.538" y="16.493" fill="#FFFFFF" width="2.984" height="2.984"/>
		<rect x="11.523" y="19.478" fill="#FFFFFF" width="2.984" height="2.984"/>
		<rect x="14.508" y="16.493" fill="#FFFFFF" width="2.984" height="2.984"/>
		<rect x="17.492" y="19.478" fill="#FFFFFF" width="2.984" height="2.984"/>
		<rect x="8.538" y="22.462" fill="#FFFFFF" width="2.984" height="2.984"/>
		<rect x="20.477" y="10.523" fill="#FFFFFF" width="2.984" height="2.984"/>
		<rect x="14.508" y="22.462" fill="#FFFFFF" width="2.984" height="2.984"/>
		<rect x="20.477" y="22.462" fill="#FFFFFF" width="2.984" height="2.984"/>
		<rect x="20.477" y="16.493" fill="#FFFFFF" width="2.984" height="2.984"/>
	</g>
</g>
</svg>
