<?xml version="1.0" encoding="utf-8"?>
<!-- Generator: Adobe Illustrator 21.0.2, SVG Export Plug-In . SVG Version: 6.00 Build 0)  -->
<!DOCTYPE svg PUBLIC "-//W3C//DTD SVG 1.1//EN" "http://www.w3.org/Graphics/SVG/1.1/DTD/svg11.dtd">
<svg version="1.1" id="Layer_1" xmlns="http://www.w3.org/2000/svg" xmlns:xlink="http://www.w3.org/1999/xlink" x="0px" y="0px"
	 viewBox="0 0 32 32" style="enable-background:new 0 0 32 32;" xml:space="preserve">
<style type="text/css">
	.st0{fill:#627783;}
	.st1{fill:#FFFFFF;}
	.st2{fill:#7B9AB0;}
	.st3{fill:#4A5962;}
</style>
<g id="Layer_2">
</g>
<g id="Layer_1_1_">
</g>
<g id="Layer_3">
</g>
<g id="Layer_4">
</g>
<g id="Layer_5">
	<g>
		<g>
			<path class="st0" d="M18.8,16.6l1.7-5V4.5c0-1.7-1.4-3.1-3.1-3.1H4.6c-1.7,0-3.1,1.4-3.1,3.1v12.7c0,1.7,1.4,3.1,3.1,3.1h7l5.6-3
				C17.2,15.7,17.1,16.6,18.8,16.6z"/>
			<path class="st1" d="M17.3,1.4c1.7,0,3.1,1.4,3.1,3.1v7.1l-5.1,0.7c-1.7,0-0.3,3.6-0.3,5.3l-3.5,2.8h-7c-1.7,0-3.1-1.4-3.1-3.1
				V4.5c0-1.7,1.4-3.1,3.1-3.1L17.3,1.4 M17.3,0.4H4.6c-2.3,0-4.1,1.9-4.1,4.1v12.7c0,2.3,1.9,4.1,4.1,4.1h7h1v-1l3-3
				c0-1.2-2-4.8-0.8-4.8h5.8h1v-1v-7C21.5,2.3,19.6,0.4,17.3,0.4L17.3,0.4z"/>
		</g>
		<g>
			<path class="st2" d="M27.4,11.6h-7L16,15.2c0,1.7,3,5.2,1.3,5.2h-5.8v7.1c0,1.7,1.4,3.1,3.1,3.1h12.7c1.7,0,3.1-1.4,3.1-3.1V14.7
				C30.5,13,29.1,11.6,27.4,11.6z"/>
			<path class="st1" d="M27.4,11.6c1.7,0,3.1,1.4,3.1,3.1v12.7c0,1.7-1.4,3.1-3.1,3.1H14.7c-1.7,0-3.1-1.4-3.1-3.1v-7.1h5.8
				c1.7,0-0.9-2-0.9-3.7l4-5.1L27.4,11.6 M27.4,10.6h-7h-1v1L16,16.4c0,1.2,2.5,3,1.3,3h-5.8h-1v1v7.1c0,2.3,1.9,4.1,4.1,4.1h12.7
				c2.3,0,4.1-1.9,4.1-4.1V14.7C31.5,12.5,29.7,10.6,27.4,10.6L27.4,10.6z"/>
		</g>
	</g>
</g>
<g id="Layer_7">
</g>
<g id="New_Symbol">
	<g id="Layer_2_5_">
	</g>
	<g id="Layer_1_5_">
	</g>
	<g id="Layer_3_5_">
	</g>
	<g id="Layer_4_5_">
	</g>
	<g id="Layer_2_1_">
	</g>
	<g id="Layer_1_2_">
	</g>
	<g id="Layer_3_1_">
	</g>
	<g id="Layer_4_1_">
	</g>
	<g id="Layer_5_1_">
		<g>
			<g>
				<path class="st1" d="M16.5,23c-3.1,0-4.2-0.2-4.7-0.5c-1.2-0.4-1.9-1.3-1.9-2.4s0.1-2.3,0.6-3.1l0.1-0.1l0.1-0.1
					c0.5-0.5,1.2-0.7,1.9-0.9c0.1,0,0.3-0.1,0.4-0.1c0.2-0.1,0.4-0.1,0.6-0.2c-0.2-0.3-0.3-0.6-0.4-0.9c-0.2-0.2-0.4-0.4-0.5-0.7
					c-0.2-0.5-0.2-1.1-0.1-1.5c-0.2-1-0.1-2.2,0.6-3c0.6-1,2-1.5,3.1-1.5c1.2,0,2.4,0.6,3.2,1.5c0.7,0.9,1,1.9,0.8,3
					c0.2,0.7-0.1,1.6-0.6,2.2l0,0c-0.1,0.3-0.3,0.7-0.4,1c0.2,0,0.4,0.1,0.6,0.1c0.5,0.1,0.9,0.2,1.4,0.4c1,0.5,1.7,1.6,1.7,3.2
					c0,0.7,0,1.3-0.2,1.7v0.1v0.1c-0.4,0.8-0.9,1-1.5,1.2l-0.3,0C20,22.9,17.7,23,16.5,23z"/>
				<path class="st3" d="M21.9,19.4c0-0.8-0.2-1.9-1.1-2.3c-0.8-0.4-2.3-0.2-3-1.1c0.6-0.4,0.8-1.1,1.1-1.9c0.4-0.2,0.6-1.1,0.4-1.5
					c0.4-1.9-1.1-3.6-3-3.6c-0.8,0-1.9,0.4-2.3,1.1c-0.6,0.6-0.6,1.7-0.4,2.5c-0.2,0.4-0.2,1.3,0.4,1.5c0.2,0.6,0.4,1.5,1.1,1.9
					c-0.4,0.6-1.3,0.6-1.9,0.8s-1.5,0.4-1.9,0.8c-0.4,0.6-0.4,1.9-0.4,2.5c0,0.8,0.6,1.3,1.3,1.5c0.4,0.4,6.8,0.6,8.5,0
					c0.6-0.2,0.8-0.2,1.1-0.8C21.9,20.5,21.9,19.9,21.9,19.4z"/>
			</g>
		</g>
	</g>
	<g id="Layer_7_1_">
	</g>
</g>
</svg>
