<?xml version="1.0" encoding="utf-8"?>
<!-- Generator: Adobe Illustrator 19.1.0, SVG Export Plug-In . SVG Version: 6.00 Build 0)  -->
<svg version="1.1" id="Layer_1" xmlns="http://www.w3.org/2000/svg" xmlns:xlink="http://www.w3.org/1999/xlink" x="0px" y="0px"
	 viewBox="-463 265 32 32" enable-background="new -463 265 32 32" xml:space="preserve">
<g>
	<path fill="#9370B1" stroke="#FFFFFF" stroke-miterlimit="10" d="M-456,296.5c-1.93,0-3.5-1.57-3.5-3.5v-24
		c0-1.93,1.57-3.5,3.5-3.5h15.207l6.293,6.293V293c0,1.93-1.57,3.5-3.5,3.5H-456z"/>
	<polygon fill="#735796" points="-441,266 -441,272 -435,272 	"/>
	<g>
		
			<rect x="-450.579" y="283.115" transform="matrix(0.7071 0.7071 -0.7071 0.7071 69.8856 399.2552)" fill="#735796" width="7.157" height="1.744"/>
		<polygon fill="#735796" points="-444.302,276.498 -444.31,276.498 -442.52,278.288 -445.476,281.244 -444.242,282.477 
			-441.287,279.521 -439.5,281.309 -439.5,276.498 		"/>
		<polygon fill="#735796" points="-448.517,286.751 -449.751,285.518 -452.711,288.478 -454.5,286.688 -454.5,286.69 
			-454.5,291.502 -449.707,291.502 -449.688,291.5 -451.477,289.711 		"/>
		
			<rect x="-450.579" y="282.115" transform="matrix(0.7071 0.7071 -0.7071 0.7071 69.1785 398.9622)" fill="#FFFFFF" width="7.157" height="1.744"/>
		<polygon fill="#FFFFFF" points="-444.302,275.498 -444.31,275.498 -442.52,277.288 -445.476,280.244 -444.242,281.477 
			-441.287,278.521 -439.5,280.309 -439.5,275.498 		"/>
		<polygon fill="#FFFFFF" points="-448.517,285.751 -449.751,284.518 -452.711,287.478 -454.5,285.688 -454.5,285.69 
			-454.5,290.502 -449.707,290.502 -449.688,290.5 -451.477,288.711 		"/>
	</g>
</g>
</svg>
