<?xml version="1.0" encoding="utf-8"?>
<!-- Generator: Adobe Illustrator 19.2.1, SVG Export Plug-In . SVG Version: 6.00 Build 0)  -->
<svg version="1.1" id="Layer_1" xmlns="http://www.w3.org/2000/svg" xmlns:xlink="http://www.w3.org/1999/xlink" x="0px" y="0px"
	 viewBox="0 0 32 32" style="enable-background:new 0 0 32 32;" xml:space="preserve">
<style type="text/css">
	.st0{fill:#4D585C;}
	.st1{fill:#FFFFFF;}
	.st2{fill:#0073AB;}
	.st3{fill:#9370B1;}
	.st4{fill:#C47D2A;}
</style>
<g id="Layer_7">
</g>
<path class="st0" d="M5.4,0.5c-2.7,0-4.8,2.2-4.8,4.8v21.3c0,2.7,2.2,4.8,4.8,4.8h21.3c2.7,0,4.8-2.2,4.8-4.8V5.4
	c0-2.7-2.2-4.8-4.8-4.8L5.4,0.5L5.4,0.5z"/>
<path class="st1" d="M26.6,32H5.4c-3,0-5.3-2.4-5.4-5.4V5.4C0,2.4,2.4,0,5.4,0h21.3c3,0,5.3,2.4,5.3,5.4v21.3
	C32,29.6,29.6,32,26.6,32z M5.4,1L5.4,1C3,1,1,3,1,5.4v21.3C1,29,3,31,5.4,31h21.3C29,31,31,29,31,26.6V5.4C31,3,29,1,26.7,1L5.4,1
	L5.4,1z"/>
<path class="st1" d="M19,24H9.5C8.7,24,8,23.3,8,22.5v-13C8,8.7,8.7,8,9.5,8H19v1H9.5C9.2,9,9,9.2,9,9.5v13C9,22.8,9.2,23,9.5,23H19
	V24z"/>
<path class="st2" d="M11.5,20.5H5.6C4.7,20.5,4,19.8,4,19V13c0-0.9,0.7-1.5,1.5-1.5h5.9c0.9,0,1.5,0.7,1.5,1.5V19
	C13,19.8,12.3,20.5,11.5,20.5z"/>
<path class="st1" d="M11.5,12.5c0.3,0,0.5,0.2,0.5,0.5v0V19c0,0.3-0.2,0.5-0.5,0.5H5.6C5.3,19.5,5,19.3,5,19V13
	c0-0.3,0.2-0.5,0.5-0.5h0H11.5 M11.5,11.5H5.6C4.7,11.5,4,12.2,4,13V19c0,0.9,0.7,1.5,1.5,1.5h5.9c0.9,0,1.5-0.7,1.5-1.5V13
	C13,12.2,12.3,11.5,11.5,11.5L11.5,11.5L11.5,11.5z"/>
<path class="st3" d="M25.5,13h-5.9c-0.9,0-1.5-0.7-1.5-1.5V5.6C18,4.7,18.7,4,19.6,4h5.9C26.3,4,27,4.7,27,5.6v5.9
	C27,12.3,26.3,13,25.5,13z"/>
<path class="st1" d="M25.5,5C25.8,5,26,5.3,26,5.6v5.9c0,0.3-0.2,0.5-0.5,0.5h-5.9c-0.3,0-0.5-0.2-0.5-0.5V5.6C19,5.3,19.3,5,19.6,5
	H25.5 M25.5,4h-5.9C18.7,4,18,4.7,18,5.6v5.9c0,0.9,0.7,1.5,1.5,1.5h5.9c0.9,0,1.5-0.7,1.5-1.5V5.6C27,4.7,26.3,4,25.5,4L25.5,4
	L25.5,4z"/>
<path class="st4" d="M25.5,28h-5.9c-0.9,0-1.5-0.7-1.5-1.5v-5.9c0-0.9,0.7-1.5,1.5-1.5h5.9c0.9,0,1.5,0.7,1.5,1.5v5.9
	C27,27.3,26.3,28,25.5,28z"/>
<path class="st1" d="M25.5,20c0.3,0,0.5,0.2,0.5,0.5v5.9c0,0.3-0.2,0.5-0.5,0.5h-5.9c-0.3,0-0.5-0.2-0.5-0.5c0,0,0,0,0,0v-5.9
	c0-0.3,0.2-0.5,0.5-0.5L25.5,20 M25.5,19h-5.9c-0.9,0-1.5,0.7-1.5,1.5v5.9c0,0.9,0.7,1.5,1.5,1.5h5.9c0.9,0,1.5-0.7,1.5-1.5v-5.9
	C27,19.7,26.3,19,25.5,19L25.5,19L25.5,19z"/>
</svg>
