<svg id="Layer_2" data-name="Layer 2" xmlns="http://www.w3.org/2000/svg" viewBox="0 0 32 32"><defs><style>.cls-1{fill:#4d575b;}.cls-2{fill:#fff;}.cls-3{fill:#0072aa;}.cls-4{fill:#9370b1;}.cls-5{fill:#c57c15;}</style></defs><title>mime</title><path class="cls-1" d="M5.352,0.509A4.849,4.849,0,0,0,.508,5.353V26.648a4.849,4.849,0,0,0,4.844,4.844h21.3a4.849,4.849,0,0,0,4.844-4.844V5.352A4.849,4.849,0,0,0,26.648.508H5.352Z"/><path class="cls-2" d="M26.648,32H5.352A5.358,5.358,0,0,1,0,26.648V5.353A5.358,5.358,0,0,1,5.352,0h21.3A5.358,5.358,0,0,1,32,5.352v21.3A5.358,5.358,0,0,1,26.648,32ZM5.352,1.017h0A4.341,4.341,0,0,0,1.017,5.353V26.648a4.341,4.341,0,0,0,4.336,4.336h21.3a4.341,4.341,0,0,0,4.336-4.336V5.352a4.341,4.341,0,0,0-4.336-4.336H5.352Z"/><path class="cls-2" d="M19.036,24.02H9.494a1.5,1.5,0,0,1-1.5-1.5V9.514a1.5,1.5,0,0,1,1.5-1.5h9.5v1h-9.5a0.5,0.5,0,0,0-.5.5V22.52a0.5,0.5,0,0,0,.5.5h9.542v1Z"/><path class="cls-3" d="M11.465,20.5H5.55a1.545,1.545,0,0,1-1.543-1.543V13.043A1.545,1.545,0,0,1,5.55,11.5h5.914a1.545,1.545,0,0,1,1.543,1.543v5.914A1.545,1.545,0,0,1,11.465,20.5Z"/><path class="cls-2" d="M11.465,12.5a0.543,0.543,0,0,1,.543.543v5.914a0.543,0.543,0,0,1-.543.543H5.55a0.543,0.543,0,0,1-.543-0.543V13.043A0.543,0.543,0,0,1,5.55,12.5h5.914m0-1H5.55a1.545,1.545,0,0,0-1.543,1.543v5.914A1.545,1.545,0,0,0,5.55,20.5h5.914a1.545,1.545,0,0,0,1.543-1.543V13.043A1.545,1.545,0,0,0,11.465,11.5h0Z"/><path class="cls-4" d="M25.471,13.01H19.557a1.545,1.545,0,0,1-1.543-1.543V5.553A1.545,1.545,0,0,1,19.557,4.01h5.914a1.545,1.545,0,0,1,1.543,1.543v5.914A1.545,1.545,0,0,1,25.471,13.01Z"/><path class="cls-2" d="M25.471,5.01a0.543,0.543,0,0,1,.543.543v5.914a0.543,0.543,0,0,1-.543.543H19.556a0.543,0.543,0,0,1-.543-0.543V5.553a0.543,0.543,0,0,1,.543-0.543h5.914m0-1H19.556a1.545,1.545,0,0,0-1.543,1.543v5.914a1.545,1.545,0,0,0,1.543,1.543h5.914a1.545,1.545,0,0,0,1.543-1.543V5.553A1.545,1.545,0,0,0,25.471,4.01h0Z"/><path class="cls-5" d="M25.46,28.011H19.546A1.545,1.545,0,0,1,18,26.468V20.553a1.545,1.545,0,0,1,1.543-1.543H25.46A1.545,1.545,0,0,1,27,20.553v5.914A1.545,1.545,0,0,1,25.46,28.011Z"/><path class="cls-2" d="M25.46,20.011a0.543,0.543,0,0,1,.543.543v5.914a0.543,0.543,0,0,1-.543.543H19.546A0.543,0.543,0,0,1,19,26.468V20.553a0.543,0.543,0,0,1,.543-0.543H25.46m0-1H19.546A1.545,1.545,0,0,0,18,20.553v5.914a1.545,1.545,0,0,0,1.543,1.543H25.46A1.545,1.545,0,0,0,27,26.468V20.553a1.545,1.545,0,0,0-1.543-1.543h0Z"/></svg>