<?xml version="1.0" encoding="UTF-8"?>
<!-- Generator: Adobe Illustrator 19.2.1, SVG Export Plug-In . SVG Version: 6.00 Build 0)  -->
<svg version="1.1" id="Layer_1" xmlns="http://www.w3.org/2000/svg" xmlns:xlink="http://www.w3.org/1999/xlink" x="0px" y="0px" viewBox="0 0 32 32" enable-background="new 0 0 32 32" xml:space="preserve">
<g id="Layer_2">
</g>
<g id="Layer_1_1_">
	<g>
		<g>
			<g>
				<g>
					<path fill="#0071C5" d="M7,31.5c-1.93,0-3.5-1.57-3.5-3.5V4c0-1.93,1.57-3.5,3.5-3.5h15.207L28.5,6.793V28       c0,1.93-1.57,3.5-3.5,3.5H7z"/>
					<path fill="#FFFFFF" d="M22,1l6,6v21c0,1.657-1.343,3-3,3H7c-1.657,0-3-1.343-3-3V4c0-1.657,1.343-3,3-3H22 M22.414,0H22H7       C4.794,0,3,1.794,3,4v24c0,2.206,1.794,4,4,4h18c2.206,0,4-1.794,4-4V7V6.586l-0.293-0.293l-6-6L22.414,0L22.414,0z"/>
				</g>
			</g>
			<polygon fill="#005B93" points="22,1 22,7 28,7    "/>
		</g>
	</g>
</g>
<g id="Layer_3">
</g>
<g id="Layer_4">
</g>
<g id="Layer_5">
</g>
<g id="Layer_7">
</g>
<g>
	<path fill="#005B93" d="M23.997,11.462l-1.27-1.27c-0.36-0.359-0.848-0.562-1.357-0.562h-4.169   c-0.508-0.001-0.996,0.202-1.355,0.562l-8.272,8.272c-0.75,0.749-0.75,1.964,0,2.713l5.439,5.438c0.75,0.75,1.964,0.75,2.713,0   l8.271-8.271c0.361-0.36,0.563-0.605,0.563-1.11v-4.415C24.559,12.309,24.357,11.822,23.997,11.462z M14.958,24.192   c-0.227,0.227-0.6,0.227-0.827,0l-4.136-4.136c-0.227-0.227-0.227-0.6,0-0.827s0.6-0.227,0.827,0l4.136,4.136   C15.185,23.593,15.185,23.965,14.958,24.192z M16.612,22.538c-0.227,0.227-0.6,0.227-0.827,0l-4.135-4.136   c-0.227-0.227-0.227-0.6,0-0.827s0.6-0.227,0.827,0l4.136,4.136C16.841,21.939,16.841,22.311,16.612,22.538z M18.267,20.884   c-0.227,0.227-0.6,0.227-0.827,0l-4.136-4.136c-0.227-0.227-0.227-0.6,0-0.827c0.227-0.227,0.6-0.227,0.827,0l4.136,4.136   C18.495,20.284,18.495,20.657,18.267,20.884z M21.136,13.957c-0.448-0.083-0.815-0.447-0.903-0.895   c-0.158-0.81,0.539-1.509,1.349-1.354c0.446,0.086,0.812,0.453,0.897,0.901C22.631,13.415,21.941,14.106,21.136,13.957z"/>
	<path fill="#FFFFFF" d="M23.997,10.462l-1.27-1.27c-0.36-0.359-0.848-0.562-1.357-0.562h-4.169   c-0.508-0.001-0.996,0.202-1.355,0.562l-8.272,8.272c-0.75,0.749-0.75,1.964,0,2.713l5.439,5.438c0.75,0.75,1.964,0.75,2.713,0   l8.271-8.271c0.361-0.36,0.563-0.605,0.563-1.11v-4.415C24.559,11.309,24.357,10.822,23.997,10.462z M14.958,23.192   c-0.227,0.227-0.6,0.227-0.827,0l-4.136-4.136c-0.227-0.227-0.227-0.6,0-0.827s0.6-0.227,0.827,0l4.136,4.136   C15.185,22.593,15.185,22.965,14.958,23.192z M16.612,21.538c-0.227,0.227-0.6,0.227-0.827,0l-4.135-4.136   c-0.227-0.227-0.227-0.6,0-0.827s0.6-0.227,0.827,0l4.136,4.136C16.841,20.939,16.841,21.311,16.612,21.538z M18.267,19.884   c-0.227,0.227-0.6,0.227-0.827,0l-4.136-4.136c-0.227-0.227-0.227-0.6,0-0.827c0.227-0.227,0.6-0.227,0.827,0l4.136,4.136   C18.495,19.284,18.495,19.657,18.267,19.884z M21.136,12.957c-0.448-0.083-0.815-0.447-0.903-0.895   c-0.158-0.81,0.539-1.509,1.349-1.354c0.446,0.086,0.812,0.453,0.897,0.901C22.631,12.415,21.941,13.106,21.136,12.957z"/>
</g>
</svg>