<svg id="Layer_2" data-name="Layer 2" xmlns="http://www.w3.org/2000/svg" viewBox="0 0 32 32"><defs><style>.cls-1{fill:#4d575b;}.cls-2{fill:#fff;}.cls-3{fill:#0072aa;}.cls-4{fill:#627784;}</style></defs><title>mime</title><path class="cls-1" d="M5.352,0.509A4.849,4.849,0,0,0,.508,5.353V26.648a4.849,4.849,0,0,0,4.844,4.844h21.3a4.849,4.849,0,0,0,4.844-4.844V5.352A4.849,4.849,0,0,0,26.648.508H5.352Z"/><path class="cls-2" d="M26.648,32H5.352A5.358,5.358,0,0,1,0,26.648V5.353A5.358,5.358,0,0,1,5.352,0h21.3A5.358,5.358,0,0,1,32,5.352v21.3A5.358,5.358,0,0,1,26.648,32ZM5.352,1.017h0A4.341,4.341,0,0,0,1.017,5.353V26.648a4.341,4.341,0,0,0,4.336,4.336h21.3a4.341,4.341,0,0,0,4.336-4.336V5.352a4.341,4.341,0,0,0-4.336-4.336H5.352Z"/><path class="cls-2" d="M20.484,24.011H8.5a1.5,1.5,0,0,1-1.5-1.5v-14a1.5,1.5,0,0,1,1.5-1.5h5.961v1H8.5a0.5,0.5,0,0,0-.5.5v14a0.5,0.5,0,0,0,.5.5H20.484v1Z"/><rect class="cls-3" x="14.469" y="5.504" width="12.021" height="12.021" rx="1.551" ry="1.551"/><path class="cls-2" d="M24.939,18.015H16.021a2.043,2.043,0,0,1-2.04-2.04V7.055a2.043,2.043,0,0,1,2.04-2.04h8.918a2.043,2.043,0,0,1,2.041,2.04v8.919A2.043,2.043,0,0,1,24.939,18.015ZM16.021,5.993a1.062,1.062,0,0,0-1.062,1.062v8.919a1.062,1.062,0,0,0,1.062,1.062h8.918A1.063,1.063,0,0,0,26,15.974V7.055a1.063,1.063,0,0,0-1.063-1.062H16.021Z"/><path class="cls-2" d="M19.174,15.1l-2.879-2.879a0.979,0.979,0,0,1,1.384-1.384l1.5,1.5,4.107-4.107A0.979,0.979,0,1,1,24.665,9.6Z"/><rect class="cls-4" x="20.494" y="20.507" width="6" height="6" rx="0.774" ry="0.774"/><path class="cls-2" d="M25.72,27.006H21.268a1.275,1.275,0,0,1-1.274-1.273V21.281a1.275,1.275,0,0,1,1.274-1.274H25.72a1.275,1.275,0,0,1,1.273,1.274v4.452A1.275,1.275,0,0,1,25.72,27.006Zm-4.452-6a0.279,0.279,0,0,0-.274.274v4.452a0.278,0.278,0,0,0,.274.273H25.72a0.274,0.274,0,0,0,.273-0.273V21.281a0.278,0.278,0,0,0-.273-0.274H21.268Z"/><rect class="cls-4" x="4.515" y="12.53" width="6" height="6" rx="0.774" ry="0.774"/><path class="cls-2" d="M9.741,19.03H5.289a1.275,1.275,0,0,1-1.274-1.273V13.3A1.275,1.275,0,0,1,5.289,12.03H9.741A1.275,1.275,0,0,1,11.014,13.3v4.452A1.275,1.275,0,0,1,9.741,19.03Zm-4.452-6a0.279,0.279,0,0,0-.274.274v4.452a0.278,0.278,0,0,0,.274.273H9.741a0.274,0.274,0,0,0,.273-0.273V13.3a0.278,0.278,0,0,0-.273-0.274H5.289Z"/></svg>