<?xml version="1.0" encoding="utf-8"?>
<!-- Generator: Adobe Illustrator 21.1.0, SVG Export Plug-In . SVG Version: 6.00 Build 0)  -->
<svg version="1.1" id="Layer_1" xmlns="http://www.w3.org/2000/svg" xmlns:xlink="http://www.w3.org/1999/xlink" x="0px" y="0px"
	 viewBox="0 0 32 32" style="enable-background:new 0 0 32 32;" xml:space="preserve">
<style type="text/css">
	.st0{fill:#8CC53E;}
	.st1{fill:#666666;}
</style>
<rect x="1.5" y="11.6" class="st0" width="7.3" height="7.3"/>
<rect x="23.3" y="1.5" class="st0" width="7.3" height="7.3"/>
<rect x="23.3" y="23.3" class="st0" width="7.3" height="7.3"/>
<g>
	<path class="st1" d="M0,20.4h10.2V10.2H0V20.4z M1.5,11.6h7.3v7.3H1.5V11.6z"/>
	<path class="st1" d="M32,10.2V0H21.8v4.4h-7.3v23.3h7.3V32H32V21.8H21.8v4.4H16V5.8h5.8v4.4H32z M23.3,23.3h7.3v7.3h-7.3v-1.5v-1.5
		V23.3z M23.3,1.5h7.3v7.3h-7.3V5.8V4.4V1.5z"/>
</g>
<rect x="8.7" y="14.5" class="st1" width="7.3" height="1.5"/>
</svg>
