<?xml version="1.0" encoding="utf-8"?>
<!-- Generator: Adobe Illustrator 19.2.1, SVG Export Plug-In . SVG Version: 6.00 Build 0)  -->
<svg version="1.1" xmlns="http://www.w3.org/2000/svg" xmlns:xlink="http://www.w3.org/1999/xlink" x="0px" y="0px"
	 viewBox="0 0 32 32" style="enable-background:new 0 0 32 32;" xml:space="preserve">
<style type="text/css">
	.st0{fill:none;}
	.st1{fill:#676767;}
	.st2{fill:#FFFFFF;}
	.st3{fill:#B26828;}
	.st4{fill:#E59A2C;}
	.st5{fill:#DC8327;}
	.st6{fill:#023954;}
	.st7{fill:#D7DFE2;}
	.st8{fill:#333333;}
	.st9{fill:#064B70;}
	.st10{fill:#637885;}
	.st11{fill:#4D585C;}
	.st12{display:none;}
	.st13{display:inline;opacity:0.33;fill:#ED1C24;}
</style>
<g id="Layer_1">
	<g id="fave_icon_-_selected">
	</g>
	<g id="fave_icon_-_selected_1_">
	</g>
	<g id="fave_icon_-_selected_2_">
	</g>
	<path class="st0" d="M26.8,1H5.2C2.8,1,1,2.8,1,5.2v21.6C1,29.3,3,31,4.7,31h22.1c2.4,0,4.2-1.8,4.2-4.2V5.2C31,2.8,29.2,1,26.8,1z
		"/>
	<path class="st1" d="M26.8,0H5.2C2.2,0,0,2.2,0,5.2v21.6C0,29.9,2.5,32,4.7,32h22.1c3,0,5.2-2.2,5.2-5.2V5.2C32,2.2,29.8,0,26.8,0z
		"/>
	<path class="st2" d="M31,26.8c0,2.4-1.8,4.2-4.2,4.2H4.7C3,31,1,29.3,1,26.8V5.2C1,2.8,2.8,1,5.2,1h21.6C29.2,1,31,2.8,31,5.2V26.8
		z"/>
	<path class="st3" d="M23,7h-8c-0.3,0-0.6-0.2-0.8-0.4l-2.7-2.3C11.4,4.1,11.1,4,10.8,4H5.1C4.5,4,4,4.5,4,5.1V20h20V8
		C24,7.4,23.6,7,23,7z"/>
	<path class="st4" d="M22.5,8H5.7C5.3,8,5,8.3,5,8.7V19l18-9.5V8.7C23,8.3,22.9,8,22.5,8z"/>
	<polygon class="st5" points="23,19 23.1,8.8 5,19 	"/>
	<rect x="11" y="21" class="st6" width="18" height="8"/>
	<path class="st2" d="M13,24V13.5c0-1.4,1.1-2.5,2.5-2.5h7.9l3.6,3.6V24H13z"/>
	<path class="st7" d="M26,15l-3-3h-7.5c-0.8,0-1.5,0.7-1.5,1.5V23h12V15z"/>
	<polygon class="st8" points="28,22 27,22 27,23 13,23 13,22 12,22 12,24 28,24 	"/>
	<rect x="11" y="25" class="st9" width="18" height="4"/>
	<g>
		<polygon class="st10" points="23,12 23,12 23,12 		"/>
		<polygon class="st10" points="17.5,12 14,15.5 14,16.9 18.9,12 		"/>
		<polygon class="st10" points="23,12 21.6,12 14,19.6 14,21 23,12 		"/>
		<polygon class="st10" points="24.4,13.4 14.8,23 16.2,23 25.1,14.1 		"/>
		<polygon class="st10" points="26,16 19,23 20.4,23 26,17.4 		"/>
		<polygon class="st10" points="26,21.5 26,20.1 23.1,23 24.5,23 		"/>
	</g>
	<polygon class="st11" points="23,12 23,15 26,15 	"/>
</g>
<g id="Layer_2" class="st12">
	<rect x="3" y="3" class="st13" width="26" height="26"/>
</g>
</svg>
