<?xml version="1.0" encoding="utf-8"?>
<!-- Generator: Adobe Illustrator 21.0.0, SVG Export Plug-In . SVG Version: 6.00 Build 0)  -->
<svg version="1.1" id="Layer_1" xmlns="http://www.w3.org/2000/svg" xmlns:xlink="http://www.w3.org/1999/xlink" x="0px" y="0px"
	 viewBox="0 0 32 32" style="enable-background:new 0 0 32 32;" xml:space="preserve">
<style type="text/css">
	.st0{fill:#4A5962;}
	.st1{fill:#FFFFFF;}
	.st2{fill:#627783;}
	.st3{fill:#7B9AB0;}
</style>
<g id="Layer_2">
</g>
<g id="Layer_1_1_">
</g>
<g id="Layer_3">
</g>
<g id="Layer_4">
</g>
<g id="Layer_7">
</g>
<g>
	<g>
		<path class="st0" d="M3.818,20.5c-1.83,0-3.318-1.489-3.318-3.318V3.818C0.5,1.989,1.989,0.5,3.818,0.5h13.364
			c1.83,0,3.318,1.489,3.318,3.318v13.363c0,1.83-1.489,3.318-3.318,3.318H3.818z"/>
		<path class="st1" d="M17.182,1C18.736,1,20,2.264,20,3.818v13.364C20,18.736,18.736,20,17.182,20H3.818
			C2.264,20,1,18.736,1,17.182V3.818C1,2.264,2.264,1,3.818,1H17.182 M17.182,0H3.818C1.709,0,0,1.709,0,3.818v13.364
			C0,19.291,1.709,21,3.818,21h13.364C19.291,21,21,19.291,21,17.182V3.818C21,1.709,19.291,0,17.182,0L17.182,0z"/>
	</g>
	<path class="st2" d="M12,14.818V20h5.182C18.736,20,20,18.736,20,17.182V12h-5.182C13.264,12,12,13.264,12,14.818z"/>
	<path class="st3" d="M17.182,21H12v7.182C12,29.736,13.264,31,14.818,31h13.364C29.736,31,31,29.736,31,28.182V14.818
		C31,13.264,29.736,12,28.182,12H21v5.182C21,19.291,19.291,21,17.182,21z"/>
	<path class="st1" d="M28.182,11H21V3.818C21,1.709,19.291,0,17.182,0H3.818C1.709,0,0,1.709,0,3.818v13.364
		C0,19.291,1.709,21,3.818,21H11v7.182C11,30.291,12.709,32,14.818,32h13.364C30.291,32,32,30.291,32,28.182V14.818
		C32,12.709,30.291,11,28.182,11z M3.818,20C2.264,20,1,18.736,1,17.182V3.818C1,2.264,2.264,1,3.818,1h13.364
		C18.736,1,20,2.264,20,3.818V11h-5.182C12.709,11,11,12.709,11,14.818V20H3.818z M20,12v5.182C20,18.736,18.736,20,17.182,20H12
		v-5.182C12,13.264,13.264,12,14.818,12H20z M31,28.182C31,29.736,29.736,31,28.182,31H14.818C13.264,31,12,29.736,12,28.182V21
		h5.182C19.291,21,21,19.291,21,17.182V12h7.182C29.736,12,31,13.264,31,14.818V28.182z"/>
</g>
</svg>
