<?xml version="1.0" encoding="utf-8"?>
<!-- Generator: Adobe Illustrator 19.1.0, SVG Export Plug-In . SVG Version: 6.00 Build 0)  -->
<svg version="1.1" id="process_activity" xmlns="http://www.w3.org/2000/svg" xmlns:xlink="http://www.w3.org/1999/xlink" x="0px"
	 y="0px" viewBox="-46 47 32 32" style="enable-background:new -46 47 32 32;" xml:space="preserve">
<style type="text/css">
	.st0{fill:#FFFFFF;}
	.st1{fill:#666666;}
	.st2{fill:none;stroke:#666666;stroke-miterlimit:10;}
	.st3{fill:#1291CE;stroke:#0072AA;stroke-miterlimit:10;}
	.st4{fill:#EBB020;stroke:#DD8100;stroke-miterlimit:10;}
	.st5{fill:#00A389;}
</style>
<g id="Layer_3">
	<g>
		<g>
			<path class="st0" d="M-41.3,79c-2,0-4.7-2.5-4.7-5.2V52.2c0-2.7,2.5-4.2,5.2-4.2h21.6c2.7,0,4.2,1.5,4.2,4.2v21.6
				c0,2.7-1.5,5.2-4.2,5.2H-41.3L-41.3,79z"/>
			<path class="st1" d="M-19.2,79h-22.1c-2.2,0-4.7-2.1-4.7-5.2V52.2c0-3,2.2-5.2,5.2-5.2h21.6c3,0,5.2,2.2,5.2,5.2v21.6
				C-14,76.8-16.2,79-19.2,79z M-40.8,48c-2.4,0-4.2,1.8-4.2,4.2v21.6c0,2.5,2,4.2,3.7,4.2h22.1c2.4,0,4.2-1.8,4.2-4.2V52.2
				c0-2.4-1.8-4.2-4.2-4.2H-40.8z"/>
		</g>
	</g>
</g>
<g id="Layer_7">
</g>
<g>
	<line class="st2" x1="-30" y1="57.419" x2="-30" y2="68.481"/>
	<path class="st3" d="M-23.303,51.778v5.393c0,0.55-0.45,1-1,1h-11.393c-0.55,0-1-0.45-1-1v-5.393c0-0.55,0.45-1,1-1h11.393
		C-23.753,50.778-23.303,51.228-23.303,51.778z"/>
	<path class="st4" d="M-25.479,71.116l-3.814,3.814c-0.389,0.389-1.025,0.389-1.414,0l-3.814-3.814
		c-0.389-0.389-0.389-1.025,0-1.414l3.814-3.814c0.389-0.389,1.025-0.389,1.414,0l3.814,3.814
		C-25.09,70.091-25.09,70.728-25.479,71.116z"/>
</g>
<g id="fave_icon_-_selected">
</g>
<g>
	<g>
		<g>
			<path class="st5" d="M-19.9,77.314c-2.328,0-4.222-1.894-4.222-4.223c0-2.328,1.894-4.222,4.222-4.222s4.222,1.894,4.222,4.222
				C-15.678,75.42-17.572,77.314-19.9,77.314z"/>
			<path class="st0" d="M-19.9,69.291c2.096,0,3.8,1.705,3.8,3.8c0,2.096-1.705,3.8-3.8,3.8s-3.8-1.705-3.8-3.8
				C-23.7,70.996-21.996,69.291-19.9,69.291 M-19.9,68.447c-2.565,0-4.645,2.079-4.645,4.644c0,2.565,2.08,4.645,4.645,4.645
				c2.566,0,4.644-2.079,4.644-4.645C-15.256,70.526-17.334,68.447-19.9,68.447L-19.9,68.447z"/>
		</g>
	</g>
	<path class="st0" d="M-20.591,74.809l-1.617-1.617c-0.139-0.139-0.139-0.363,0-0.501c0.139-0.139,0.362-0.139,0.501,0l1.122,1.122
		l2.395-2.339c0.14-0.136,0.364-0.134,0.501,0.006c0.137,0.14,0.134,0.364-0.006,0.501L-20.591,74.809z"/>
</g>
</svg>
