<?xml version="1.0" encoding="utf-8"?>
<!-- Generator: Adobe Illustrator 19.2.1, SVG Export Plug-In . SVG Version: 6.00 Build 0)  -->
<svg version="1.1" id="Layer_1" xmlns="http://www.w3.org/2000/svg" xmlns:xlink="http://www.w3.org/1999/xlink" x="0px" y="0px"
	 viewBox="0 0 32 32" style="enable-background:new 0 0 32 32;" xml:space="preserve">
<style type="text/css">
	.st0{fill:none;}
	.st1{fill:#676767;}
	.st2{fill:#FFFFFF;}
	.st3{fill:#0374AB;}
	.st4{fill:#DE3826;}
</style>
<path class="st0" d="M26.8,1H5.2C2.8,1,1,2.8,1,5.2v21.6C1,29.3,3,31,4.7,31h22.1c2.4,0,4.2-1.8,4.2-4.2V5.2C31,2.8,29.2,1,26.8,1z"
	/>
<path class="st1" d="M26.8,0H5.2C2.2,0,0,2.2,0,5.2v21.6C0,29.9,2.5,32,4.7,32h22.1c3,0,5.2-2.2,5.2-5.2V5.2C32,2.2,29.8,0,26.8,0z"
	/>
<path class="st2" d="M31,26.8c0,2.4-1.8,4.2-4.2,4.2H4.7C3,31,1,29.3,1,26.8V5.2C1,2.8,2.8,1,5.2,1h21.6C29.2,1,31,2.8,31,5.2V26.8z
	"/>
<path class="st3" d="M28.9,24.9c0-0.7-0.1-1.2-0.2-1.7c-0.1-0.4-0.2-0.8-0.3-1.3c-0.3-0.9-0.9-1.6-1.9-2.1c-0.9-0.4-1.9-0.6-2.8-0.8
	c-0.8-0.1-1.5-0.3-2-0.5c-0.3-0.1-0.5-0.3-0.7-0.6c-0.1-0.1-0.2-0.3-0.3-0.5c0.4-0.4,0.8-0.8,1.1-1.3c0.4-0.7,0.8-1.6,1-2.6
	c0.2-0.1,0.4-0.2,0.6-0.5c0.2-0.3,0.3-0.6,0.4-1c0.1-0.6,0-1.1-0.2-1.5c0-0.1,0-0.2,0.1-0.2c0.1-0.5,0.1-1.1,0.1-1.7
	c-0.1-1.1-0.3-1.9-0.3-2c-0.2-0.9-0.9-1.8-1.9-2.5c-0.8-0.6-2-1.2-3.8-1.2C16,3,14.7,3.7,14,4.2c-1,0.7-1.6,1.6-1.9,2.5
	c0,0-0.2,0.9-0.3,2c0,0.6,0,1.2,0.1,1.7c0,0.1,0,0.2,0,0.2c-0.2,0.4-0.3,0.9-0.2,1.5c0.1,0.4,0.2,0.8,0.4,1c0.2,0.3,0.4,0.4,0.6,0.5
	c0.2,1,0.5,1.8,1,2.6c0.3,0.5,0.7,1,1.1,1.3c-0.1,0.2-0.2,0.3-0.3,0.4c0.1,0.3,0.2,0.6,0.2,0.9c0.1,0.5,0.1,0.9,0.1,1.4
	s0,0.9-0.1,1.4c-0.3,1.3-0.9,2.4-1.7,3.4c-0.6,0.9-1.8,2.8-2.7,4h7.3h9c1.3,0,2.4-1.1,2.4-2.4v-0.9v-0.3C29,25.3,29,25.1,28.9,24.9z
	"/>
<path class="st4" d="M12.9,19.2c-0.2-1-0.7-1.8-1.4-2.5c-0.9-0.9-2.2-1.5-3.5-1.5c-0.7,0-1.3,0.1-1.9,0.4c-0.6,0.3-1.1,0.6-1.6,1.1
	c-0.5,0.5-0.8,1-1.1,1.6S3,19.6,3,20.3s0.1,1.3,0.4,1.9s0.6,1.1,1.1,1.6C5.2,24.9,8,29,8,29s2.8-4.1,3.5-5.2
	c0.7-0.7,1.2-1.6,1.4-2.5c0.1-0.3,0.1-0.7,0.1-1C13,19.9,13,19.6,12.9,19.2z"/>
<circle class="st2" cx="8" cy="20.3" r="2.2"/>
</svg>
