<?xml version="1.0" encoding="utf-8"?>
<!-- Generator: Adobe Illustrator 19.2.1, SVG Export Plug-In . SVG Version: 6.00 Build 0)  -->
<svg version="1.1" id="Layer_1" xmlns="http://www.w3.org/2000/svg" xmlns:xlink="http://www.w3.org/1999/xlink" x="0px" y="0px"
	 viewBox="0 0 32 32" style="enable-background:new 0 0 32 32;" xml:space="preserve">
<style type="text/css">
	.st0{fill:#FFFFFF;}
	.st1{fill:#9370B1;}
	.st2{fill:#745997;}
</style>
<path class="st0" d="M31.8,22.7c-0.1-0.3-0.1-0.7-0.3-1.2c-0.3-1.1-1-1.9-2.2-2.5c-0.9-0.4-1.8-0.6-2.7-0.8c-0.5-0.1-1-0.2-1.4-0.3
	c0.2-0.2,0.3-0.4,0.5-0.7c0.4-0.6,0.7-1.3,0.8-2.1c0.2-0.1,0.3-0.3,0.5-0.5c0.2-0.4,0.4-0.8,0.5-1.3c0.1-0.6,0.1-1.1-0.1-1.6
	c0.1-0.5,0.1-1.1,0.1-1.7c-0.1-1.1-0.3-1.9-0.3-1.9c-0.2-1-1-2.1-2-2.8C24.5,4.7,23.2,4,21.4,4s-3.1,0.7-3.9,1.3
	c-1,0.7-1.7,1.8-2,2.8c0,0-0.2,0.9-0.3,2c0,0.6,0,1.1,0.1,1.7c-0.2,0.5-0.2,1-0.1,1.6c0.1,0.5,0.3,1,0.5,1.3
	c0.1,0.2,0.3,0.4,0.5,0.5c0.2,0.8,0.5,1.5,0.8,2.1c0.1,0.2,0.3,0.5,0.5,0.7c-0.3,0.1-0.9,0.2-1.4,0.3c-0.3,0.1-0.6,0.1-0.9,0.2
	c0,0,0,0,0-0.1c0-0.4-0.1-0.7-0.1-1.1c0-0.2-0.1-0.5-0.2-0.9c-0.2-0.9-0.8-1.5-1.7-1.9c-0.6-0.3-1.4-0.5-1.9-0.6
	c-0.2,0-0.4-0.1-0.5-0.1c0,0,0.1-0.1,0.1-0.1c0.3-0.4,0.5-0.9,0.6-1.5c0.1-0.1,0.2-0.2,0.3-0.3c0.2-0.3,0.3-0.6,0.4-1
	c0.1-0.4,0.1-0.8-0.1-1.2c0.1-0.3,0.1-0.7,0.1-1.1c0-0.7-0.2-1.2-0.2-1.4c-0.2-0.8-0.7-1.6-1.5-2.1C10,4.5,9,4,7.7,4
	C6.3,4,5.4,4.5,4.8,4.9C4,5.5,3.5,6.3,3.3,7c0,0-0.2,0.6-0.2,1.4c0,0.4,0,0.8,0,1.1C3,10,3,10.4,3.1,10.8c0.1,0.4,0.2,0.7,0.4,1
	c0.1,0.1,0.2,0.2,0.3,0.3c0.1,0.5,0.3,1,0.6,1.5c0,0.1,0.1,0.1,0.1,0.2c-0.2,0-0.4,0.1-0.5,0.1C3.4,14,2.7,14.2,2,14.5
	c-0.9,0.4-1.4,1.1-1.7,1.9c-0.2,0.8-0.3,1.2-0.3,1.9l0,0.1c0,0.2,0,0.3,0,0.5l0,0.8c0,0,0,0.1,0,0.2c0,0.3,0.1,0.5,0.2,0.7
	C0.6,21.4,1.4,22,2.4,22H6v2.5C6,25.9,7.1,27,8.5,27h2.6c0,0,0,0.1,0,0.1c0.5,1.1,1.6,1.9,2.8,1.9H29c1.7,0,3-1.4,3-3.1v-1
	c0-0.2,0-0.4-0.1-0.6C31.9,23.7,31.9,23.2,31.8,22.7z M10,22h1.2c-0.1,0.4-0.2,0.7-0.2,1h-1V22z"/>
<path class="st1" d="M9.9,24H9v-0.9V21H7v3.5C7,25.3,7.7,26,8.5,26H9h4v-2H9.9z"/>
<path class="st1" d="M14.3,18.5c0-0.4-0.1-0.7-0.1-1.1c0-0.2-0.1-0.5-0.2-0.8c-0.2-0.6-0.5-1-1.1-1.3c-0.5-0.3-1.1-0.4-1.7-0.5
	c-0.5-0.1-0.9-0.2-1.2-0.3c-0.2-0.1-0.3-0.2-0.4-0.3c-0.1-0.1-0.1-0.2-0.2-0.3c0.3-0.2,0.5-0.5,0.7-0.8c0.3-0.4,0.5-1,0.6-1.6
	c0.1,0,0.2-0.1,0.3-0.3c0.1-0.2,0.2-0.4,0.2-0.6c0.1-0.4,0-0.7-0.1-0.9c0,0,0-0.1,0-0.1c0.1-0.3,0.1-0.7,0.1-1
	c0-0.7-0.2-1.2-0.2-1.2c-0.1-0.6-0.5-1.1-1.1-1.6C9.5,5.4,8.7,5,7.7,5C6.6,5,5.8,5.4,5.4,5.7c-0.6,0.4-1,1-1.1,1.6
	c0,0-0.1,0.6-0.2,1.2c0,0.4,0,0.7,0.1,1c0,0,0,0.1,0,0.1C4.1,9.9,4,10.3,4.1,10.6c0,0.2,0.1,0.5,0.2,0.6c0.1,0.2,0.2,0.3,0.4,0.3
	c0.1,0.6,0.3,1.1,0.6,1.6c0.2,0.3,0.4,0.6,0.7,0.8c-0.1,0.1-0.1,0.2-0.2,0.3c-0.1,0.1-0.3,0.3-0.4,0.3c-0.3,0.1-0.7,0.2-1.2,0.3
	C3.6,15,3,15.1,2.5,15.4c-0.6,0.3-1,0.7-1.1,1.3c-0.2,0.7-0.2,1.1-0.3,1.7c0,0,0,0.1,0,0.1c0,0.1,0,0.2,0,0.3v0.7c0,0,0,0,0,0
	c0,0,0,0.1,0,0.1c0,0.2,0,0.3,0.1,0.4C1.3,20.6,1.8,21,2.4,21h5.2h5.3c0.8,0,1.4-0.7,1.4-1.5V19v-0.2C14.3,18.7,14.3,18.6,14.3,18.5
	z"/>
<g id="Layer_7">
</g>
<path class="st2" d="M31,24.4c0-0.6-0.1-1-0.2-1.5c-0.1-0.3-0.1-0.7-0.3-1.1c-0.2-0.8-0.8-1.4-1.6-1.8c-0.7-0.4-1.6-0.5-2.4-0.7
	c-0.7-0.1-1.3-0.3-1.7-0.5c-0.2-0.1-0.4-0.3-0.6-0.5c-0.1-0.1-0.2-0.3-0.3-0.4c0.4-0.3,0.7-0.7,1-1.2c0.4-0.6,0.7-1.4,0.8-2.3
	c0.2-0.1,0.4-0.2,0.5-0.4c0.2-0.2,0.3-0.6,0.3-0.9c0.1-0.5,0-1-0.1-1.3c0-0.1,0-0.1,0-0.2c0.1-0.4,0.1-0.9,0.1-1.5
	c0-1-0.2-1.7-0.2-1.8c-0.2-0.8-0.8-1.6-1.6-2.2C24.1,5.6,23,5,21.4,5c-1.5,0-2.6,0.6-3.3,1.1c-0.8,0.6-1.4,1.4-1.6,2.2
	c0,0-0.2,0.8-0.2,1.8c0,0.6,0,1.1,0.1,1.5c0,0.1,0,0.1,0,0.2c-0.2,0.3-0.2,0.8-0.1,1.3c0.1,0.4,0.2,0.7,0.3,0.9
	c0.1,0.2,0.3,0.4,0.5,0.4c0.2,0.9,0.5,1.6,0.8,2.3c0.3,0.5,0.6,0.9,1,1.2c-0.1,0.1-0.2,0.3-0.2,0.4c-0.2,0.2-0.4,0.4-0.6,0.5
	c-0.4,0.2-1,0.3-1.7,0.5c-0.8,0.2-1.7,0.3-2.4,0.7c-0.9,0.4-1.4,1-1.6,1.8c-0.3,1-0.4,1.6-0.4,2.4c0,0.1,0,0.1,0,0.2
	c0,0.2-0.1,0.3-0.1,0.5v1c0,0,0,0,0,0c0,0.1,0,0.1,0,0.2c0,0.2,0.1,0.4,0.2,0.6c0.3,0.8,1,1.3,1.8,1.3h7.5H29c1.1,0,2-1,2-2.1v-0.8
	v-0.2C31,24.7,31,24.6,31,24.4z"/>
</svg>
