<?xml version="1.0" encoding="utf-8"?>
<!-- Generator: Adobe Illustrator 19.2.1, SVG Export Plug-In . SVG Version: 6.00 Build 0)  -->
<svg version="1.1" id="Layer_1" xmlns="http://www.w3.org/2000/svg" xmlns:xlink="http://www.w3.org/1999/xlink" x="0px" y="0px"
	 viewBox="0 0 32 32" style="enable-background:new 0 0 32 32;" xml:space="preserve">
<style type="text/css">
	.st0{fill:none;}
	.st1{fill:#676767;}
	.st2{fill:#FFFFFF;}
	.st3{fill:#53883D;}
	.st4{fill:#0072AB;}
	.st5{fill:#DE3826;}
	.st6{fill:#D66F28;}
	.st7{fill:#333333;}
</style>
<path class="st0" d="M26.8,1H5.2C2.8,1,1,2.8,1,5.2v21.6C1,29.3,3,31,4.7,31h22.1c2.4,0,4.2-1.8,4.2-4.2V5.2C31,2.8,29.2,1,26.8,1z"
	/>
<path class="st1" d="M26.8,0H5.2C2.2,0,0,2.2,0,5.2v21.6C0,29.9,2.5,32,4.7,32h22.1c3,0,5.2-2.2,5.2-5.2V5.2C32,2.2,29.8,0,26.8,0z"
	/>
<path class="st2" d="M31,26.8c0,2.4-1.8,4.2-4.2,4.2H4.7C3,31,1,29.3,1,26.8V5.2C1,2.8,2.8,1,5.2,1h21.6C29.2,1,31,2.8,31,5.2V26.8z
	"/>
<rect x="20" y="17" class="st3" width="8" height="5"/>
<rect x="4" y="3" class="st4" width="12" height="6"/>
<rect x="20" y="24" class="st5" width="8" height="5"/>
<rect x="12" y="11" class="st6" width="8" height="5"/>
<rect x="17.5" y="17.5" transform="matrix(4.456506e-011 1 -1 4.456506e-011 37.5001 0.5001)" class="st7" width="2" height="3"/>
<path class="st7" d="M17,25v-9h-2v9c0,1.1,0.9,2,2,2h3v-2H17z"/>
<path class="st7" d="M9,12V9H7v3c0,1.1,0.9,2,2,2h3v-2H9z"/>
</svg>
