<?xml version="1.0" encoding="utf-8"?>
<!-- Generator: Adobe Illustrator 19.2.1, SVG Export Plug-In . SVG Version: 6.00 Build 0)  -->
<svg version="1.1" id="Layer_1" xmlns="http://www.w3.org/2000/svg" xmlns:xlink="http://www.w3.org/1999/xlink" x="0px" y="0px"
	 viewBox="0 0 32 32" style="enable-background:new 0 0 32 32;" xml:space="preserve">
<style type="text/css">
	.st0{fill:#FFFFFF;}
	.st1{fill:#667F6D;}
	.st2{fill:#3D4C42;}
	.st3{fill:#90B299;}
</style>
<g id="Layer_7">
</g>
<path class="st0" d="M5.6,28c-2,0-3.6-1.6-3.6-3.6V3.6C2,1.6,3.6,0,5.6,0h13.5L25,5.8v18.6c0,2-1.6,3.6-3.6,3.6H5.6z"/>
<path class="st1" d="M5.6,1C4.2,1,3,2.2,3,3.6v20.8C3,25.8,4.2,27,5.6,27h15.8c1.4,0,2.6-1.2,2.6-2.6V6.2L18.8,1H5.6z"/>
<polygon class="st2" points="18.8,1 18.8,6.2 24,6.2 "/>
<path class="st0" d="M18.5,32c-1.4,0-2.5-1.1-2.5-2.5v-12c0-1.4,1.1-2.5,2.5-2.5h7.9l3.6,3.6v10.9c0,1.4-1.1,2.5-2.5,2.5H18.5z"/>
<path class="st3" d="M18.5,16c-0.8,0-1.5,0.7-1.5,1.5v12c0,0.8,0.7,1.5,1.5,1.5h9c0.8,0,1.5-0.7,1.5-1.5V19l-3-3H18.5z"/>
<polygon class="st1" points="26,16 26,19 29,19 "/>
</svg>
