<?xml version="1.0" encoding="utf-8"?>
<!-- Generator: Adobe Illustrator 19.2.1, SVG Export Plug-In . SVG Version: 6.00 Build 0)  -->
<svg version="1.1" id="Layer_2" xmlns="http://www.w3.org/2000/svg" xmlns:xlink="http://www.w3.org/1999/xlink" x="0px" y="0px"
	 viewBox="0 0 32 32" style="enable-background:new 0 0 32 32;" xml:space="preserve">
<style type="text/css">
	.st0{fill:#FFFFFF;}
	.st1{fill:#637884;}
	.st2{fill:none;}
	.st3{fill:#05A48A;}
</style>
<path class="st0" d="M30.27,5.994l-0.022-0.118C29.961,4.737,29.071,4,27.978,4h-1.889L25.57,4.009L21.525,0h-0.063h-1.427l0,0
	H9.946C7.721,0,5.911,1.794,5.911,4H3.448c-0.814,0-1.532,0.675-1.58,1.464L0,19.56v10.161C0,30.978,1.032,32,2.301,32h27.399
	C30.968,32,32,30.978,32,29.721V19.705L30.27,5.994z"/>
<path class="st1" d="M23.205,9H8.071C6.4,9,5.045,10.343,5.045,12v1H5.83h4.483H24l3,3v-3L23.205,9z"/>
<path class="st1" d="M23.205,14H8.071c-1.672,0-3.027,1.343-3.027,3v1v1H5.83h4.483h16.928v-1L23.205,14z"/>
<path class="st1" d="M21,1H10.089C8.418,1,7.063,2.343,7.063,4v4H23l2,2V8V5l0,0L21,1z"/>
<path class="st2" d="M2.907,19.618l0.028-0.324C2.895,19.414,2.889,19.521,2.907,19.618z"/>
<polygon class="st2" points="27.404,7.54 27.911,13.429 27.404,7.54 "/>
<polygon class="st3" points="2.935,19.292 3.572,11.893 2.935,19.294 "/>
<path class="st3" d="M29.277,6.118C29.134,5.55,28.703,5,27.986,5h-0.718H26l0,0v2l0.694-0.029c0.287,0,0.574,0.284,0.574,0.569
	l1.005,11.659c0,0.427-0.287,0.801-0.574,0.801H4.301c-0.431,0-0.718-0.375-0.574-0.801L4.732,7.54c0-0.284,0.287-0.569,0.574-0.569
	L6,7V5H3.44C3.153,5,2.866,5.265,2.866,5.55L1,19.625V29.72C1,30.431,1.574,31,2.292,31h27.416C30.426,31,31,30.431,31,29.72v-9.953
	L29.277,6.118z"/>
<g id="fave_icon_-_selected">
</g>
</svg>
