<?xml version="1.0" encoding="utf-8"?>
<!-- Generator: Adobe Illustrator 19.2.1, SVG Export Plug-In . SVG Version: 6.00 Build 0)  -->
<svg version="1.1" id="Layer_2" xmlns="http://www.w3.org/2000/svg" xmlns:xlink="http://www.w3.org/1999/xlink" x="0px" y="0px"
	 viewBox="0 0 32 32" style="enable-background:new 0 0 32 32;" xml:space="preserve">
<style type="text/css">
	.st0{fill:#03A289;}
	.st1{fill:#FFFFFF;}
	.st2{fill-rule:evenodd;clip-rule:evenodd;fill:#186734;}
	.st3{fill:#666766;}
</style>
<path class="st0" d="M7,31.5c-1.9,0-3.5-1.6-3.5-3.5V4c0-1.9,1.6-3.5,3.5-3.5h15.2l6.3,6.3V28c0,1.9-1.6,3.5-3.5,3.5H7z"/>
<path class="st1" d="M22,1l6,6v21c0,1.7-1.3,3-3,3H7c-1.7,0-3-1.3-3-3V4c0-1.7,1.3-3,3-3H22 M22.4,0H22H7C4.8,0,3,1.8,3,4v24
	c0,2.2,1.8,4,4,4h18c2.2,0,4-1.8,4-4V7V6.6l-0.3-0.3l-6-6L22.4,0L22.4,0z"/>
<polygon class="st2" points="22,1 22,7 28,7 "/>
<circle class="st1" cx="8" cy="18.2" r="8"/>
<path class="st3" d="M8,25.2c-3.9,0-7-3.1-7-7c0-3.9,3.1-7,7-7s7,3.1,7,7C15,22,11.9,25.2,8,25.2z"/>
<path class="st1" d="M13,18c0-0.1,0-0.3-0.1-0.4c0,0,0,0,0-0.1c0-0.1-0.1-0.2-0.2-0.3c0,0,0,0,0,0L8.4,13c-0.4-0.4-1-0.4-1.4,0
	s-0.4,1,0,1.4L9.6,17H4c-0.5,0-1,0.5-1,1s0.5,1,1,1h5.6L7,21.6c-0.4,0.4-0.4,1,0,1.4s1,0.4,1.4,0l4.3-4.3c0,0,0,0,0,0
	c0.1-0.1,0.1-0.2,0.2-0.3c0,0,0,0,0-0.1C13,18.3,13,18.1,13,18C13,18,13,18,13,18C13,18,13,18,13,18z"/>
</svg>
