<?xml version="1.0" encoding="utf-8"?>
<!-- Generator: Adobe Illustrator 19.2.1, SVG Export Plug-In . SVG Version: 6.00 Build 0)  -->
<svg version="1.1" id="Layer_4" xmlns="http://www.w3.org/2000/svg" xmlns:xlink="http://www.w3.org/1999/xlink" x="0px" y="0px"
	 viewBox="0 0 32 32" style="enable-background:new 0 0 32 32;" xml:space="preserve">
<style type="text/css">
	.st0{fill:#2F4553;}
	.st1{fill:#FFFFFF;}
	.st2{fill:#526572;}
	.st3{fill:#485D6A;}
</style>
<path class="st0" d="M1.5,27.5v-21c0-1.1,0.9-2,2-2h7.9c0.5,0,0.9,0.2,1.3,0.5l3.7,3.2c0.2,0.2,0.4,0.3,0.6,0.3h10.5
	c1.1,0,2,0.9,2,2v17H1.5z"/>
<path class="st1" d="M11.4,5c0.4,0,0.7,0.1,1,0.4l3.6,3.2C16.3,8.8,16.6,9,17,9h10.5c0.8,0,1.5,0.7,1.5,1.5V27H2V6.5
	C2,5.7,2.7,5,3.5,5H11.4 M11.4,4H3.5C2.1,4,1,5.1,1,6.5V28h29V10.5C30,9.1,28.9,8,27.5,8H17c-0.1,0-0.2-0.1-0.3-0.2l-3.6-3.2l0,0
	l0,0C12.6,4.2,12,4,11.4,4L11.4,4L11.4,4z"/>
<path class="st2" d="M3,26h25V12c0-0.6-0.4-1-1-1H4c-0.6,0-1,0.4-1,1V26z"/>
<polygon class="st3" points="3,26 28,26 28,13 "/>
<path class="st1" d="M18.5,12h-5.9c-0.8,0-1.5,0.7-1.5,1.6v9.8c0,0.9,0.7,1.6,1.5,1.6h6.9c0.8,0,1.5-0.7,1.5-1.6v-8.7L18.5,12z
	 M20.2,23.4c0,0.4-0.3,0.8-0.7,0.8h-6.9c-0.4,0-0.7-0.3-0.7-0.8v-9.8c0-0.4,0.3-0.8,0.7-0.8H17V16h3.2V23.4z"/>
<path class="st3" d="M22,16.1v8c0,1-0.8,1.9-1.8,1.9H28V13L22,16.1z"/>
</svg>
