<?xml version="1.0" encoding="utf-8"?>
<!-- Generator: Adobe Illustrator 19.1.0, SVG Export Plug-In . SVG Version: 6.00 Build 0)  -->
<!DOCTYPE svg PUBLIC "-//W3C//DTD SVG 1.1//EN" "http://www.w3.org/Graphics/SVG/1.1/DTD/svg11.dtd">
<svg version="1.1" id="Layer_1" xmlns="http://www.w3.org/2000/svg" xmlns:xlink="http://www.w3.org/1999/xlink" x="0px" y="0px"
	 viewBox="0 0 24 24" enable-background="new 0 0 24 24" xml:space="preserve">
<g>
	<circle fill="#FFFFFF" cx="12" cy="12" r="11"/>
	<path fill="#DCDCDC" d="M12,23.5C5.659,23.5,0.5,18.341,0.5,12S5.659,0.5,12,0.5S23.5,5.659,23.5,12S18.341,23.5,12,23.5z M12,1.5
		C6.21,1.5,1.5,6.21,1.5,12S6.21,22.5,12,22.5S22.5,17.79,22.5,12S17.79,1.5,12,1.5z"/>
	<path fill="#565656" d="M18.458,11.29H12.71V5.541c0-0.276,0.224-0.5,0.5-0.5s0.5,0.224,0.5,0.5v4.749h4.748
		c0.276,0,0.5,0.224,0.5,0.5S18.734,11.29,18.458,11.29z"/>
	<path fill="#565656" d="M10.79,18.958c-0.276,0-0.5-0.224-0.5-0.5V13.71H5.541c-0.276,0-0.5-0.224-0.5-0.5s0.224-0.5,0.5-0.5h5.749
		v5.748C11.29,18.734,11.066,18.958,10.79,18.958z"/>
</g>
</svg>
