<?xml version="1.0" encoding="utf-8"?>
<!-- Generator: Adobe Illustrator 19.1.0, SVG Export Plug-In . SVG Version: 6.00 Build 0)  -->
<svg version="1.1" id="Layer_1" xmlns="http://www.w3.org/2000/svg" xmlns:xlink="http://www.w3.org/1999/xlink" x="0px" y="0px"
	 viewBox="0 0 24 24" style="enable-background:new 0 0 24 24;" xml:space="preserve">
<style type="text/css">
	.st0{fill:#DD8100;}
	.st1{fill:#FFFFFF;}
</style>
<g>
	<circle class="st0" cx="12" cy="12" r="12"/>
	<g id="O51JZz.tif">
		<g>
			<path class="st1" d="M4.5,14.314c0-2.214,0-4.429,0-6.65c2.227,0,4.453,0,6.68,0c-0.004,0.493-0.008,0.985-0.012,1.478
				c0,0.057,0,0.114,0,0.192c-1.278,0-2.536,0-3.736,0c1.515,1.528,3.049,3.076,4.597,4.637c0.035-0.042,0.07-0.089,0.112-0.131
				c1.949-1.944,3.899-3.888,5.849-5.832c0.114-0.114,0.226-0.229,0.339-0.343c0.01,0,0.02,0,0.029,0
				c0.123,0.13,0.242,0.264,0.369,0.39c0.256,0.253,0.516,0.502,0.774,0.753c0,0.01,0,0.02,0,0.029
				c-0.036,0.032-0.073,0.064-0.107,0.098c-2.42,2.412-4.839,4.825-7.258,7.238c-0.043,0.043-0.088,0.085-0.172,0.166
				c-1.931-1.948-3.85-3.884-5.796-5.847c0,1.297,0,2.553,0,3.825C5.601,14.314,5.05,14.314,4.5,14.314z"/>
		</g>
	</g>
</g>
</svg>
