<?xml version="1.0" encoding="utf-8"?>
<!-- Generator: Adobe Illustrator 19.1.0, SVG Export Plug-In . SVG Version: 6.00 Build 0)  -->
<svg version="1.1" id="Layer_1" xmlns="http://www.w3.org/2000/svg" xmlns:xlink="http://www.w3.org/1999/xlink" x="0px" y="0px"
	 viewBox="0 0 48 48" enable-background="new 0 0 48 48" xml:space="preserve">
<g>
	<path fill="#262626" d="M36.354,38.501c-1.116-1.786-4.854-2.894-8.557-4.479c-3.7-1.581-4.577-2.131-4.577-2.131l-0.036-3.648
		c0,0,1.386-1.095,1.817-4.526c0.865,0.26,1.704-5.202,0.648-4.978c0.217-1.683,0.374-3.195,0.297-3.992
		c-0.275-2.933-3.084-6.021-7.401-6.021c-4.319,0-7.126,3.088-7.4,6.021c-0.08,0.797,0.079,2.309,0.292,3.992
		c-1.056-0.224-0.219,5.238,0.652,4.978c0.427,3.43,1.816,4.526,1.816,4.526l-0.034,3.648c0,0-0.878,0.55-4.578,2.131
		c-3.701,1.585-7.44,2.693-8.553,4.479C-0.262,40.099,0.044,48,0.044,48H38C38,48,37.347,40.099,36.354,38.501z"/>
	<path fill="#535353" d="M47.263,30.229c-1.117-1.786-4.854-3.121-8.557-4.706c-3.699-1.581-4.577-2.244-4.577-2.244l-0.038-3.704
		c0,0,1.389-1.124,1.82-4.555c0.865,0.26,1.705-5.215,0.648-4.992c0.217-1.683,0.375-3.202,0.298-3.999
		c-0.277-2.933-3.085-6.025-7.402-6.025c-3.739,0-6.337,2.314-7.147,4.838c4.704,1.466,7.745,5.508,8.12,9.487
		c0.076,0.807,0.045,1.784-0.119,3.335c0.01,0.031,0.021,0.063,0.031,0.094c0.204,0.658,0.303,1.389,0.303,2.234
		c0,2.043-0.423,4.27-1.453,5.893c-0.305,1.368-0.738,2.458-1.192,3.319c0.445,0.196,0.965,0.425,1.569,0.683
		c0.787,0.337,1.575,0.65,2.336,0.952c3.552,1.418,6.618,3.094,8.269,5.734C40.296,36.772,40.663,38,40.663,38h7.295
		C47.958,38,48.256,31.827,47.263,30.229z"/>
</g>
</svg>
