<?xml version="1.0" encoding="utf-8"?>
<!-- Generator: Adobe Illustrator 19.1.0, SVG Export Plug-In . SVG Version: 6.00 Build 0)  -->
<svg version="1.1" id="Layer_1" xmlns="http://www.w3.org/2000/svg" xmlns:xlink="http://www.w3.org/1999/xlink" x="0px" y="0px"
	 viewBox="0 0 32 32" style="enable-background:new 0 0 32 32;" xml:space="preserve">
<style type="text/css">
	.st0{fill:#00AF9A;}
	.st1{fill:#FFFFFF;}
	.st2{fill:#00896D;}
</style>
<g>
	<g>
		<g>
			<g>
				<path class="st0" d="M7,31.5c-1.93,0-3.5-1.57-3.5-3.5V4c0-1.93,1.57-3.5,3.5-3.5h15.207L28.5,6.793V28c0,1.93-1.57,3.5-3.5,3.5
					H7z"/>
				<path class="st1" d="M22,1l6,6v21c0,1.657-1.343,3-3,3H7c-1.657,0-3-1.343-3-3V4c0-1.657,1.343-3,3-3H22 M22.414,0H22H7
					C4.794,0,3,1.794,3,4v24c0,2.206,1.794,4,4,4h18c2.206,0,4-1.794,4-4V7V6.586l-0.293-0.293l-6-6L22.414,0L22.414,0z"/>
			</g>
		</g>
		<polygon class="st2" points="22,1 22,7 28,7 		"/>
	</g>
	<g>
		<path class="st1" d="M16,8.146c-4.576,0-8.286,3.709-8.286,8.286s3.709,8.286,8.286,8.286s8.286-3.709,8.286-8.286
			S20.576,8.146,16,8.146z M9.556,16.432c0-1.445,0.495-2.766,1.301-3.842l8.986,8.986c-1.077,0.807-2.397,1.301-3.842,1.301
			C12.447,22.877,9.556,19.986,9.556,16.432z M21.144,20.273l-8.986-8.986C13.235,10.48,14.555,9.987,16,9.987
			c3.554,0,6.445,2.891,6.445,6.445C22.445,17.876,21.951,19.198,21.144,20.273z"/>
	</g>
</g>
</svg>
