<?xml version="1.0" encoding="utf-8"?>
<!-- Generator: Adobe Illustrator 19.1.0, SVG Export Plug-In . SVG Version: 6.00 Build 0)  -->
<!DOCTYPE svg PUBLIC "-//W3C//DTD SVG 1.1//EN" "http://www.w3.org/Graphics/SVG/1.1/DTD/svg11.dtd">
<svg version="1.1" id="Layer_1" xmlns="http://www.w3.org/2000/svg" xmlns:xlink="http://www.w3.org/1999/xlink" x="0px" y="0px"
	 viewBox="4 -4 32 32" enable-background="new 4 -4 32 32" xml:space="preserve">
<g>
	<path fill="#FFFFFF" d="M20-4C11.163-4,4,3.163,4,12s7.163,16,16,16s16-7.163,16-16S28.837-4,20-4z M21.481,19.884
		c-0.089,0.204-0.207,0.379-0.355,0.528c-0.148,0.148-0.326,0.265-0.533,0.35s-0.426,0.128-0.655,0.128
		c-0.237,0-0.46-0.043-0.667-0.128s-0.387-0.202-0.539-0.35s-0.27-0.324-0.355-0.528c-0.085-0.204-0.128-0.424-0.128-0.661
		c0-0.229,0.043-0.448,0.128-0.655s0.204-0.385,0.355-0.533c0.152-0.148,0.332-0.266,0.539-0.355
		c0.207-0.089,0.429-0.133,0.667-0.133c0.23,0,0.448,0.044,0.655,0.133s0.385,0.207,0.533,0.355s0.266,0.326,0.355,0.533
		c0.089,0.207,0.133,0.426,0.133,0.655C21.615,19.46,21.57,19.68,21.481,19.884z M24.471,9.739
		c-0.163,0.411-0.369,0.769-0.617,1.072c-0.248,0.304-0.517,0.567-0.806,0.789c-0.289,0.222-0.563,0.431-0.822,0.628
		s-0.483,0.389-0.672,0.578s-0.302,0.402-0.339,0.639l-0.256,1.622h-1.878l-0.189-1.811c-0.007-0.037-0.011-0.068-0.011-0.094
		s0-0.057,0-0.095c0-0.326,0.081-0.609,0.244-0.85s0.367-0.467,0.611-0.678s0.507-0.417,0.789-0.617
		c0.281-0.2,0.544-0.417,0.789-0.65c0.244-0.234,0.448-0.498,0.611-0.795c0.163-0.296,0.244-0.645,0.244-1.044
		c0-0.267-0.05-0.506-0.15-0.717s-0.239-0.393-0.417-0.545c-0.178-0.151-0.391-0.268-0.639-0.35
		c-0.248-0.082-0.517-0.122-0.806-0.122c-0.422,0-0.78,0.046-1.072,0.139c-0.293,0.093-0.541,0.197-0.744,0.311
		c-0.204,0.115-0.376,0.219-0.516,0.311c-0.141,0.092-0.267,0.139-0.378,0.139c-0.266,0-0.459-0.111-0.578-0.333l-0.722-1.145
		C16.4,5.9,16.676,5.689,16.976,5.489c0.3-0.2,0.624-0.374,0.972-0.522s0.726-0.265,1.134-0.35c0.407-0.085,0.848-0.128,1.322-0.128
		c0.645,0,1.231,0.089,1.761,0.266c0.53,0.178,0.983,0.432,1.361,0.761c0.378,0.329,0.67,0.728,0.878,1.194
		c0.207,0.467,0.311,0.989,0.311,1.566C24.715,8.841,24.633,9.328,24.471,9.739z"/>
</g>
</svg>
