<?xml version="1.0" encoding="utf-8"?>
<!-- Generator: Adobe Illustrator 21.0.2, SVG Export Plug-In . SVG Version: 6.00 Build 0)  -->
<!DOCTYPE svg PUBLIC "-//W3C//DTD SVG 1.1//EN" "http://www.w3.org/Graphics/SVG/1.1/DTD/svg11.dtd">
<svg version="1.1" id="Layer_1" xmlns="http://www.w3.org/2000/svg" xmlns:xlink="http://www.w3.org/1999/xlink" x="0px" y="0px"
	 viewBox="0 0 28 28" style="enable-background:new 0 0 28 28;" xml:space="preserve">
<style type="text/css">
	.st0{fill:#FFFFFF;}
	.st1{fill:#C3E5F6;}
	.st2{clip-path:url(#SVGID_2_);}
	.st3{fill:#0072AA;}
</style>
<g id="Layer_2">
	<g id="Admin">
		<g id="_Group_">
			<path class="st0" d="M14,28C6.3,28,0,21.7,0,14S6.3,0,14,0s14,6.3,14,14S21.7,28,14,28z M14,8c-3.3,0-6,2.7-6,6s2.7,6,6,6
				s6-2.7,6-6S17.3,8,14,8z"/>
			<path class="st1" d="M14,6c4.4,0,8,3.6,8,8s-3.6,8-8,8s-8-3.6-8-8S9.6,6,14,6 M14,1.7C7.2,1.7,1.7,7.2,1.7,14S7.2,26.3,14,26.3
				S26.3,20.8,26.3,14S20.8,1.7,14,1.7L14,1.7z"/>
			<g>
				<defs>
					<path id="SVGID_1_" d="M14,6c4.4,0,8,3.6,8,8s-3.6,8-8,8s-8-3.6-8-8S9.6,6,14,6 M14,1.7C7.2,1.7,1.7,7.2,1.7,14
						S7.2,26.3,14,26.3S26.3,20.8,26.3,14S20.8,1.7,14,1.7L14,1.7z"/>
				</defs>
				<clipPath id="SVGID_2_">
					<use xlink:href="#SVGID_1_"  style="overflow:visible;"/>
				</clipPath>
				<g class="st2">
					<path class="st3" d="M14,22v4.3c6.8,0,12.3-5.5,12.3-12.3c0,0,0,0,0,0H22C20.1,18.6,18.3,21.1,14,22z"/>
				</g>
			</g>
		</g>
	</g>
</g>
</svg>
