<?xml version="1.0" encoding="utf-8"?>
<!-- Generator: Adobe Illustrator 19.1.0, SVG Export Plug-In . SVG Version: 6.00 Build 0)  -->
<!DOCTYPE svg PUBLIC "-//W3C//DTD SVG 1.1//EN" "http://www.w3.org/Graphics/SVG/1.1/DTD/svg11.dtd">
<svg version="1.1" id="Layer_1" xmlns="http://www.w3.org/2000/svg" xmlns:xlink="http://www.w3.org/1999/xlink" x="0px" y="0px"
	 viewBox="4 -4 32 32" enable-background="new 4 -4 32 32" xml:space="preserve">
<g>
	<path fill="#FFFFFF" d="M20-4C11.163-4,4,3.163,4,12s7.163,16,16,16s16-7.163,16-16S28.837-4,20-4z M22,20c0,1.1-0.9,2-2,2
		s-2-0.9-2-2V10c0-1.1,0.9-2,2-2s2,0.9,2,2V20z M20,5c-1.105,0-2-0.895-2-2s0.895-2,2-2s2,0.895,2,2S21.105,5,20,5z"/>
</g>
</svg>
