<?xml version="1.0" encoding="utf-8"?>
<!-- Generator: Adobe Illustrator 19.1.0, SVG Export Plug-In . SVG Version: 6.00 Build 0)  -->
<!DOCTYPE svg PUBLIC "-//W3C//DTD SVG 1.1//EN" "http://www.w3.org/Graphics/SVG/1.1/DTD/svg11.dtd">
<svg version="1.1" id="Layer_1" xmlns="http://www.w3.org/2000/svg" xmlns:xlink="http://www.w3.org/1999/xlink" x="0px" y="0px"
	 viewBox="4 -4 32 32" enable-background="new 4 -4 32 32" xml:space="preserve">
<g>
	<g>
		<path fill="#FFFFFF" d="M20-4C11.163-4,4,3.163,4,12s7.163,16,16,16s16-7.163,16-16S28.837-4,20-4z M27,19
			c-0.583,0.583-1.538,0.583-2.121,0l-4.848-4.848l-5.13,5.13c-0.583,0.583-1.538,0.583-2.121,0s-0.583-1.538,0-2.121l5.13-5.13
			l-4.848-4.848c-0.583-0.583-0.583-1.538,0-2.121s1.538-0.583,2.121,0l4.848,4.848l4.567-4.567c0.583-0.583,1.538-0.583,2.121,0
			s0.583,1.538,0,2.121l-4.567,4.567L27,16.879C27.583,17.462,27.583,18.417,27,19z"/>
	</g>
</g>
</svg>
