<?xml version="1.0" encoding="utf-8"?>
<!-- Generator: Adobe Illustrator 19.2.1, SVG Export Plug-In . SVG Version: 6.00 Build 0)  -->
<svg version="1.1" id="Layer_1" xmlns="http://www.w3.org/2000/svg" xmlns:xlink="http://www.w3.org/1999/xlink" x="0px" y="0px"
	 viewBox="0 0 24 24" style="enable-background:new 0 0 24 24;" xml:space="preserve">
<style type="text/css">
	.st0{fill:#D06930;}
	.st1{fill:#FFFFFF;}
</style>
<g>
	<g>
		<g>
			<path class="st0" d="M12,22C6.5,22,2,17.5,2,12C2,6.5,6.5,2,12,2s10,4.5,10,10C22,17.5,17.5,22,12,22z"/>
			<path class="st1" d="M12,3c5,0,9,4,9,9c0,5-4,9-9,9s-9-4-9-9C3,7,7,3,12,3 M12,1C5.9,1,1,5.9,1,12c0,6.1,4.9,11,11,11
				c6.1,0,11-4.9,11-11C23,5.9,18.1,1,12,1L12,1z"/>
		</g>
	</g>
	<path class="st1" d="M10.1,16.8l-4.6-4.6c-0.4-0.4-0.4-1,0-1.4c0.4-0.4,1-0.4,1.4,0l3.2,3.2l6.8-6.6c0.4-0.4,1-0.4,1.4,0
		s0.4,1,0,1.4L10.1,16.8z"/>
</g>
</svg>
