
 <svg id="Layer_1" data-name="Layer 1" xmlns="http://www.w3.org/2000/svg" viewBox="0 0 279 32"> 
<!-- <svg id="Layer_1" data-name="Layer 1" xmlns="http://www.w3.org/2000/svg" width="250" height="40"> -->
<title>header_content_server_li</title><rect x="127" y="3" width="1" height="23" style="fill:#fff"/>
<text xml:space="preserve" text-anchor="start" font-family="Helvetica, Arial, sans-serif" font-size="24" id="svg_1" y="22" x="135" stroke-width="0" stroke="#000" fill="#fff">Request Tracker</text>
<path d="M16.063,14.558c0,3.78-2.176,7.874-8.017,7.874C3.837,22.432,0,20.084,0,14.558c0-4.581,2.892-8.1,8.619-7.788C14.718,7.113,16.063,11.837,16.063,14.558ZM5.183,11.681a5.191,5.191,0,0,0-.744,2.849c0,2.319,1.145,4.419,3.608,4.419,2.377,0,3.55-1.932,3.55-4.223a4.866,4.866,0,0,0-1.231-3.66,3.25,3.25,0,0,0-2.577-.81A2.989,2.989,0,0,0,5.183,11.681Z" style="fill:#fff"/><path d="M55.147,8.459a4.3,4.3,0,0,1,1.489-1.174,7.3,7.3,0,0,1,2.72-.515,5.653,5.653,0,0,1,2.663.572c1.575.83,1.976,2.176,1.976,4.5V22.059H59.614V13.641a5.986,5.986,0,0,0-.2-2.233,2,2,0,0,0-1.976-1.145c-2.319,0-2.319,1.861-2.319,3.722v8.075h-4.41V7.141h4.438Z" style="fill:#fff"/><path d="M48.615,18.2c-.4.851-1.7,4.233-7.445,4.233-4.438,0-7.559-2.715-7.559-7.612,0-3.608,1.775-8.051,7.674-8.051a6.883,6.883,0,0,1,5.383,1.952c1.947,2.09,2.062,5.011,2.119,6.7H38.107a3.366,3.366,0,0,0,3.407,3.722,3.955,3.955,0,0,0,3.78-2.634Zm-4.381-5.526a3.555,3.555,0,0,0-.83-2.119,3.105,3.105,0,0,0-2.148-.83,3.032,3.032,0,0,0-2.233.974,3.905,3.905,0,0,0-.888,1.976Z" style="fill:#fff"/><path d="M109.926,10.238h2.921v-3.1h-2.892V4h-4.381V7.141h-.695l-2.006,3.1h2.7v7.1a5.783,5.783,0,0,0,.63,3.379c.945,1.374,2.606,1.46,4.123,1.46a14.089,14.089,0,0,0,2.319-.229V18.509l-1.575.057c-1.174,0-1.174-.773-1.145-1.689Z" style="fill:#fff"/><path d="M66.189,4H70.57V7.142h4.553l-2.005,3.1H70.541v6.638c-.029.916-.029,1.689,1.145,1.689l1.575-.057v3.436a14.089,14.089,0,0,1-2.319.229c-1.518,0-3.178-.086-4.123-1.46a5.783,5.783,0,0,1-.63-3.379Z" style="fill:#fff"/><path d="M116.905,10.239h-.541V7.6h-1V7.141h2.519V7.6h-.98Zm4.245,0h-.532l.019-1.912.028-.634-.149.522-.634,2.024H119.4l-.625-2.024-.159-.513.037.625.019,1.912h-.522v-3.1h.737l.774,2.444.756-2.444h.737Z" style="fill:#fff"/><path d="M88.926,18.212l-.839,1.3c-.785,1.152-2.263,2.924-6.5,2.924-4.438,0-7.42-2.715-7.42-7.612,0-3.608,1.775-8.051,7.674-8.051a6.883,6.883,0,0,1,5.383,1.952c1.947,2.09,2.062,5.011,2.119,6.7H78.667c-.029,1.861.891,3.722,3.268,3.722,2.405,0,3.1-1.575,3.64-2.634Zm-4.131-5.54a3.555,3.555,0,0,0-.83-2.119,3.105,3.105,0,0,0-2.148-.83,3.032,3.032,0,0,0-2.233.974,3.905,3.905,0,0,0-.888,1.976Z" style="fill:#fff"/><polygon points="103.935 22.061 98.458 14.208 103.026 7.141 98.012 7.141 95.856 10.477 93.529 7.141 88.515 7.141 93.444 14.208 88.368 22.061 93.382 22.061 96.046 17.939 98.922 22.061 103.935 22.061" style="fill:#fff"/><path d="M22.123,8.459a4.784,4.784,0,0,1,3.922-1.689c3.665,0,6.243,2.777,6.243,7.76,0,3.064-1.116,7.9-6.427,7.9a4.771,4.771,0,0,1-3.766-1.689V27h-4.41V7.141h4.438ZM25.1,10.212a2.819,2.819,0,0,0-2.262,1.119,5.26,5.26,0,0,0-.916,3.278,5.014,5.014,0,0,0,1.059,3.438,2.7,2.7,0,0,0,1.976.9c2.148,0,3.092-2.262,3.092-4.447,0-1.839-.544-3.784-2.348-4.21A2.332,2.332,0,0,0,25.1,10.212Z" style="fill:#fff"/></svg>