<?xml version="1.0" encoding="utf-8"?>
<!-- Generator: Adobe Illustrator 19.1.0, SVG Export Plug-In . SVG Version: 6.00 Build 0)  -->
<svg version="1.1" id="Layer_1" xmlns="http://www.w3.org/2000/svg" xmlns:xlink="http://www.w3.org/1999/xlink" x="0px" y="0px"
	 viewBox="0 0 48 48" enable-background="new 0 0 48 48" xml:space="preserve">
<g>
	<path fill="none" d="M23.47,25.02l-9.952,3.832c1.347,3.318,3.039,6.316,4.931,8.801L24,35.515v-9.117L23.47,25.02z"/>
	<path fill="none" d="M43.683,29.786l-1.349,0.519l0.895,0.835C43.394,30.694,43.548,30.243,43.683,29.786z"/>
	<path fill="none" d="M33.974,39.317c0.795-0.362,1.551-0.712,2.332-1.067c-0.724-1.601-1.452-3.193-2.18-4.787L31.77,34.37
		C32.514,36.021,33.261,37.668,33.974,39.317z"/>
	<path fill="none" d="M36.274,24.648c-0.336-1.35-0.732-2.712-1.229-4.08l-2.241,0.862l1.431,1.314L36.274,24.648z"/>
	<path fill="none" d="M26,31.593c0,1.05,0,2.099,0,3.152l1.057-0.407L26,31.593z"/>
	<path fill="none" d="M26,24.049c0,0.915,0,1.833,0,2.748l2.536,6.587c0.642-0.652,1.231-1.304,1.921-1.959
		c0.199,0.46,0.408,0.914,0.612,1.372l2.344-0.901c-0.217-0.477-0.436-0.953-0.652-1.431c1.504-0.13,2.97-0.259,4.456-0.389
		c-0.052-0.563-0.118-1.134-0.201-1.711c-2.434-1.869-5.437-3.73-7.697-5.592L26,24.049z"/>
	<path fill="none" d="M26,18c0,1.405,0,2.802,0,4.202l1.886-0.726C26.744,20.318,26,19.16,26,18z"/>
	<path fill="none" d="M11.912,29.472l-6.757,2.602c1.42,3.305,3.666,6.103,6.444,8.218l5.22-2.009
		C14.945,35.764,13.263,32.801,11.912,29.472z"/>
	<path fill="none" d="M28.376,8.945c-2.143-2.488-4.452-4.314-6.733-5.282c-1.423,0.165-2.822,0.462-4.194,0.923l2.87,7.46
		L28.376,8.945z"/>
	<path fill="none" d="M30.079,8.287l4.59-1.768c-2.915-1.785-6.258-2.85-9.772-3.008C26.681,4.714,28.435,6.313,30.079,8.287z"/>
	<path fill="none" d="M12.891,27.246l9.958-3.835l-3.518-9.138l-8.587,3.308C10.992,20.637,11.706,23.935,12.891,27.246z"/>
	<path fill="none" d="M36.009,18.349l6.754-2.602c-1.423-3.229-3.635-5.968-6.364-8.043l-5.217,2.009
		C33.021,12.188,34.672,15.093,36.009,18.349z"/>
	<path fill="none" d="M9.555,9.417c-1.788,1.778-3.28,3.866-4.338,6.237C4.848,16.492,4.555,17.35,4.3,18.211l4.642-1.788
		C8.839,13.869,9.042,11.495,9.555,9.417z"/>
	<path fill="none" d="M18.711,12.667l-2.87-7.457c-1.351,0.586-2.605,1.313-3.78,2.154c-0.999,2.233-1.489,5.134-1.416,8.408
		L18.711,12.667z"/>
	<path fill="none" d="M9.069,18.225l-5.255,2.023c-0.638,3.391-0.403,6.885,0.71,10.22l6.764-2.602
		C10.096,24.558,9.366,21.292,9.069,18.225z"/>
	<path fill="none" d="M17.922,39.703l-4.59,1.768c2.919,1.788,6.261,2.853,9.776,3.012C21.319,43.283,19.565,41.681,17.922,39.703z"
		/>
	<path fill="none" d="M24,13.397l3.474,3.14l3.91,3.59l3.019-1.162c-1.337-3.246-2.998-6.185-4.855-8.625l-8.604,3.315L24,21.594V18
		V13.397z"/>
	<path fill="none" d="M36.65,19.948c0.838,2.292,1.436,4.562,1.838,6.767l1.877,1.752l0.568,0.53l3.239-1.248
		c0.634-3.38,0.427-6.95-0.758-10.406L36.65,19.948z"/>
	<path fill="none" d="M24,40.225v-2.862l-4.376,1.685c2.143,2.491,4.452,4.318,6.737,5.282c1.42-0.165,2.822-0.462,4.19-0.924
		l-2.621-6.804l-0.442,0.41L24,40.225z"/>
	<path fill="#333333" d="M31.77,34.37l2.356-0.907c-0.238-0.522-0.476-1.045-0.714-1.567l-2.344,0.901
		C31.302,33.322,31.534,33.847,31.77,34.37z"/>
	<path fill="#333333" d="M26,31.593l1.057,2.745L26,34.744c0,0.274,0,0.545,0,0.819c1.051-0.733,1.825-1.458,2.536-2.18L26,26.796
		C26,28.394,26,29.994,26,31.593z"/>
	<path fill="#333333" d="M38.89,29.929c-0.56-0.522-1.196-1.044-1.875-1.565c0.083,0.577,0.149,1.148,0.201,1.711
		C37.772,30.026,38.321,29.978,38.89,29.929z"/>
	<path fill="#333333" d="M46.391,15.379C42.721,5.848,33.631-0.003,23.993,0c-2.867,0-5.782,0.517-8.615,1.609
		C3.012,6.371-3.153,20.255,1.609,32.622C5.279,42.153,14.369,48,24.007,48c2.867,0,5.779-0.517,8.615-1.609
		C44.985,41.629,51.153,27.742,46.391,15.379z M42.763,15.747l-6.754,2.602c-1.337-3.256-2.987-6.161-4.828-8.635l5.217-2.009
		C39.127,9.779,41.34,12.519,42.763,15.747z M34.668,6.519l-4.59,1.768c-1.644-1.974-3.398-3.573-5.182-4.776
		C28.411,3.67,31.753,4.735,34.668,6.519z M21.643,3.663c2.281,0.968,4.59,2.795,6.733,5.282l-8.056,3.101l-2.87-7.46
		C18.821,4.125,20.22,3.828,21.643,3.663z M22.849,23.411l-9.958,3.835c-1.185-3.311-1.899-6.609-2.147-9.665l8.587-3.308
		L22.849,23.411z M12.06,7.364c1.175-0.841,2.429-1.568,3.78-2.154l2.87,7.457l-8.067,3.105C10.572,12.498,11.061,9.597,12.06,7.364
		z M5.217,15.654c1.058-2.371,2.55-4.459,4.338-6.237c-0.513,2.078-0.717,4.452-0.613,7.005L4.3,18.211
		C4.555,17.35,4.848,16.492,5.217,15.654z M3.815,20.248l5.255-2.023c0.296,3.067,1.027,6.333,2.219,9.641l-6.764,2.602
		C3.411,27.132,3.177,23.638,3.815,20.248z M5.155,32.074l6.757-2.602c1.351,3.329,3.032,6.292,4.907,8.811l-5.22,2.009
		C8.821,38.176,6.575,35.378,5.155,32.074z M13.332,41.47l4.59-1.768c1.644,1.978,3.398,3.58,5.186,4.779
		C19.593,44.324,16.251,43.259,13.332,41.47z M44.172,27.749l-3.239,1.248l1.401,1.308l1.349-0.519
		c-0.135,0.457-0.288,0.908-0.454,1.354l0.422,0.394l-0.6,0.052c-1.007,2.535-2.505,4.867-4.446,6.837l0.37,0.82l-1.816,0.826
		l-1.225,0.557c-0.014,0.031-0.026,0.065-0.04,0.096c-1.144,0.817-2.388,1.52-3.725,2.099l-2.879-7.482l-1.361,1.264l2.621,6.804
		c-1.368,0.462-2.77,0.758-4.19,0.924c-2.285-0.965-4.593-2.791-6.737-5.282L24,37.363v-1.799v-0.049l-5.551,2.138
		c-1.892-2.484-3.584-5.482-4.931-8.801l9.952-3.832L24,26.398v-4.804l-3.056-7.938l8.604-3.315c1.857,2.44,3.518,5.379,4.855,8.625
		l-3.019,1.162l1.418,1.302l2.241-0.862c0.498,1.368,0.893,2.731,1.229,4.08l2.214,2.067c-0.402-2.205-1-4.475-1.838-6.767
		l6.764-2.605C44.599,20.799,44.806,24.369,44.172,27.749z"/>
	<path fill="#333333" d="M27.886,21.475L26,22.202c0,0.615,0,1.232,0,1.847l3.318-1.277C28.794,22.34,28.313,21.908,27.886,21.475z"
		/>
	<g>
		<path fill="#333333" d="M26,18c4,3.981,8.61,7.934,12.89,11.929c-2.091,0.181-4.063,0.356-6.13,0.535
			c1.175,2.601,2.369,5.181,3.546,7.785c-0.781,0.355-1.536,0.705-2.332,1.067c-1.137-2.627-2.371-5.242-3.517-7.892
			C29.003,32.806,28,34.168,26,35.564C26,29.698,26,23.877,26,18z"/>
	</g>
	<path fill="#333333" d="M39.059,31.931l-1.695,0.147l-0.032,0.15l0.024-0.009c0.024,1.104-0.021,2.16-0.122,3.168l0.922,2.039
		l0.358,0.793C38.942,36.324,39.127,34.206,39.059,31.931z"/>
</g>
</svg>
