<?xml version="1.0" encoding="utf-8"?>
<!-- Generator: Adobe Illustrator 19.1.0, SVG Export Plug-In . SVG Version: 6.00 Build 0)  -->
<svg version="1.1" id="Layer_1" xmlns="http://www.w3.org/2000/svg" xmlns:xlink="http://www.w3.org/1999/xlink" x="0px" y="0px"
	 viewBox="0 0 48 48" enable-background="new 0 0 48 48" xml:space="preserve">
<g>
	<g>
		<g>
			<g>
				<polygon fill="#0072AA" points="48,48 4,48 4,44 44,44 44,4 4,4 4,30 0,30 0,0 48,0 				"/>
			</g>
		</g>
	</g>
	<g>
		<g>
			<g>
				<path fill="#733781" d="M26.173,14.013l2.253-2.253c1.04-1.04,2.423-1.612,3.894-1.612c1.478,0,2.865,0.576,3.912,1.621
					c1.043,1.044,1.619,2.429,1.62,3.904c0.002,1.474-0.571,2.86-1.612,3.901l-2.253,2.253L26.173,14.013z"/>
			</g>
			<g>
				<polygon fill="#733781" points="7.806,32.38 23.888,16.297 31.702,24.112 15.619,40.194 5.852,42.148 				"/>
			</g>
		</g>
	</g>
</g>
</svg>
