<?xml version="1.0" encoding="utf-8"?>
<!-- Generator: Adobe Illustrator 19.1.0, SVG Export Plug-In . SVG Version: 6.00 Build 0)  -->
<svg version="1.1" id="Layer_1" xmlns="http://www.w3.org/2000/svg" xmlns:xlink="http://www.w3.org/1999/xlink" x="0px" y="0px"
	 viewBox="0 0 24 24" style="enable-background:new 0 0 24 24;" xml:space="preserve">
<style type="text/css">
	.st0{fill:#00A389;}
	.st1{fill:#FFFFFF;}
</style>
<g>
	<circle class="st0" cx="12" cy="12" r="12"/>
	<g id="hKEBSe.tif_3_">
		<g>
			<path class="st1" d="M12.282,11.499c0-0.079,0-0.141,0-0.202c0-1.166,0.001-2.333,0-3.499c0-0.307-0.211-0.523-0.5-0.523
				c-0.29,0-0.498,0.215-0.5,0.523c-0.002,0.333-0.001,0.667-0.001,1c0,1.057-0.001,2.114,0,3.171c0,0.307,0.201,0.529,0.495,0.53
				c1.244,0.004,2.489,0.004,3.733,0c0.273-0.001,0.483-0.224,0.487-0.491c0.004-0.272-0.211-0.497-0.489-0.506
				c-0.125-0.004-0.25-0.001-0.375-0.001C14.191,11.499,13.249,11.499,12.282,11.499z"/>
			<path class="st1" d="M3,10.968c0.091-0.029,0.182-0.08,0.273-0.082c0.453-0.009,0.905-0.004,1.369-0.004
				c0.047-0.212,0.087-0.42,0.138-0.625c0.696-2.809,3.04-4.952,5.892-5.387c3.674-0.56,7.151,1.716,8.093,5.313
				c0.105,0.4,0.14,0.819,0.208,1.229c0.008,0.05,0.019,0.1,0.028,0.15c0,0.302,0,0.604,0,0.906c-0.04,0.277-0.07,0.555-0.123,0.829
				c-0.385,2.008-1.433,3.585-3.126,4.722c-1.255,0.842-2.652,1.24-4.163,1.19c-1.878-0.063-3.502-0.748-4.857-2.056
				c-0.248-0.24-0.266-0.543-0.052-0.758c0.21-0.21,0.507-0.195,0.748,0.039c1.034,1.004,2.267,1.604,3.699,1.739
				c2.162,0.204,3.976-0.527,5.395-2.168c1.041-1.203,1.51-2.628,1.474-4.218c-0.06-2.636-1.946-5.055-4.489-5.76
				c-3.25-0.901-6.531,0.821-7.618,4.001c-0.092,0.269-0.152,0.549-0.235,0.852c0.088,0,0.143,0,0.199,0
				c0.354,0,0.708-0.004,1.062,0.005c0.068,0.002,0.161,0.042,0.193,0.095c0.025,0.041-0.009,0.143-0.048,0.194
				c-0.568,0.732-1.14,1.462-1.716,2.188c-0.141,0.177-0.327,0.172-0.476-0.009c-0.613-0.743-1.223-1.488-1.834-2.233
				C3.024,11.111,3.011,11.103,3,11.093C3,11.052,3,11.01,3,10.968z"/>
			<path class="st1" d="M12.282,11.499c0.967,0,1.909,0,2.851,0c0.125,0,0.25-0.003,0.375,0.001
				c0.278,0.009,0.493,0.234,0.489,0.506c-0.004,0.268-0.214,0.49-0.487,0.491c-1.244,0.004-2.489,0.004-3.733,0
				c-0.294-0.001-0.495-0.222-0.495-0.53c-0.001-1.057,0-2.114,0-3.171c0-0.333-0.001-0.667,0.001-1
				c0.002-0.307,0.21-0.523,0.5-0.523c0.289,0,0.499,0.216,0.5,0.523c0.002,1.166,0,2.333,0,3.499
				C12.282,11.358,12.282,11.42,12.282,11.499z"/>
		</g>
	</g>
</g>
</svg>
