<?xml version="1.0" encoding="utf-8"?>
<!-- Generator: Adobe Illustrator 19.1.0, SVG Export Plug-In . SVG Version: 6.00 Build 0)  -->
<svg version="1.1" id="Layer_1" xmlns="http://www.w3.org/2000/svg" xmlns:xlink="http://www.w3.org/1999/xlink" x="0px" y="0px"
	 viewBox="0 0 32 32" style="enable-background:new 0 0 32 32;" xml:space="preserve">
<style type="text/css">
	.st0{fill:#00A389;}
	.st1{fill:#FFFFFF;}
	.st2{fill:#00795A;}
	.st3{fill:#00418F;stroke:#FFFFFF;stroke-miterlimit:10;}
	.st4{fill:#0072AA;}
</style>
<g>
	<g>
		<g>
			<g>
				<g>
					<path class="st0" d="M24.22,31.487H6.605c-2.158,0-4.241-1.737-4.241-3.872V4.385c0-2.135,2.083-3.872,4.241-3.872h15.332
						l6.524,6.453v20.649C28.461,29.75,26.379,31.487,24.22,31.487z"/>
					<path class="st1" d="M24.221,32H6.605c-2.532,0-4.754-2.049-4.754-4.385V4.385C1.851,2.049,4.073,0,6.605,0h15.543l6.827,6.752
						v20.863C28.974,29.951,26.753,32,24.221,32z M6.605,1.027c-1.951,0-3.727,1.601-3.727,3.358v23.23
						c0,1.757,1.776,3.358,3.727,3.358h17.616c1.951,0,3.727-1.601,3.727-3.358V7.18l-6.221-6.153H6.605z"/>
				</g>
			</g>
		</g>
		<polygon class="st2" points="21.758,1.097 21.758,7.206 27.935,7.206 		"/>
	</g>
</g>
<g>
	<polygon class="st2" points="6.396,22.59 16.635,22.59 25.635,13.59 6.396,13.59 	"/>
</g>
<g>
	<polygon class="st3" points="5.793,21.262 16.032,21.262 25.032,12.262 5.793,12.262 	"/>
</g>
<g>
	<circle class="st4" cx="24.149" cy="25.487" r="6"/>
	<path class="st1" d="M24.148,31.987c-3.584,0-6.5-2.916-6.5-6.5s2.916-6.5,6.5-6.5s6.5,2.916,6.5,6.5S27.732,31.987,24.148,31.987z
		 M24.148,19.987c-3.032,0-5.5,2.468-5.5,5.5s2.468,5.5,5.5,5.5s5.5-2.468,5.5-5.5S27.181,19.987,24.148,19.987z"/>
</g>
<path class="st1" d="M28.149,26.062v-1.15H26.96c-0.077-0.364-0.222-0.702-0.423-1l0.847-0.847l-0.813-0.813l-0.853,0.853
	c-0.298-0.195-0.633-0.337-0.994-0.41v-1.208h-1.15v1.208c-0.361,0.073-0.696,0.215-0.994,0.41l-0.853-0.853l-0.813,0.813
	l0.847,0.847c-0.2,0.299-0.345,0.637-0.423,1h-1.189v1.15h1.18c0.072,0.37,0.215,0.714,0.414,1.019l-0.829,0.829l0.813,0.813
	l0.823-0.823c0.305,0.205,0.651,0.353,1.024,0.428v1.16h1.15v-1.16c0.373-0.076,0.719-0.224,1.024-0.428l0.823,0.823l0.813-0.813
	l-0.829-0.829c0.199-0.305,0.342-0.648,0.414-1.019H28.149z M24.149,27.235c-0.951,0-1.724-0.774-1.724-1.724
	c0-0.951,0.774-1.724,1.724-1.724c0.951,0,1.724,0.774,1.724,1.724C25.873,26.461,25.1,27.235,24.149,27.235z"/>
</svg>
