<?xml version="1.0" encoding="utf-8"?>
<!-- Generator: Adobe Illustrator 19.1.0, SVG Export Plug-In . SVG Version: 6.00 Build 0)  -->
<svg version="1.1" id="Layer_1" xmlns="http://www.w3.org/2000/svg" xmlns:xlink="http://www.w3.org/1999/xlink" x="0px" y="0px"
	 viewBox="0 0 32 32" style="enable-background:new 0 0 32 32;" xml:space="preserve">
<style type="text/css">
	.st0{fill:#9370B1;}
	.st1{fill:#FFFFFF;}
	.st2{fill:#7E5A8B;}
	.st3{fill:#00A389;}
</style>
<g>
	<g>
		<g>
			<g>
				<g>
					<path class="st0" d="M24.808,31.487H7.192c-2.158,0-4.241-1.737-4.241-3.872V4.385c0-2.135,2.083-3.872,4.241-3.872h15.332
						l6.524,6.453v20.649C29.048,29.75,26.966,31.487,24.808,31.487z"/>
					<path class="st1" d="M24.808,32H7.192c-2.532,0-4.754-2.049-4.754-4.385V4.385C2.438,2.049,4.66,0,7.192,0h15.543l6.827,6.752
						v20.863C29.562,29.951,27.34,32,24.808,32z M7.192,1.027c-1.951,0-3.727,1.601-3.727,3.358v23.23
						c0,1.757,1.776,3.358,3.727,3.358h17.616c1.951,0,3.727-1.601,3.727-3.358V7.18l-6.221-6.153H7.192z"/>
				</g>
			</g>
		</g>
		<polygon class="st2" points="22.345,1.097 22.345,7.206 28.522,7.206 		"/>
	</g>
	<g>
		<path class="st1" d="M7.635,24.96c-0.739,0-1.34-0.601-1.34-1.34V12.642c0-0.739,0.601-1.34,1.34-1.34h0.752
			c0.017-0.58,0.494-1.046,1.077-1.046c0.584,0,1.061,0.466,1.078,1.046h1.504v-0.658c0-1.078,0.877-1.956,1.955-1.956h3.997
			c1.079,0,1.956,0.877,1.956,1.956v0.658h1.503c0.017-0.58,0.495-1.046,1.078-1.046s1.06,0.466,1.077,1.046h0.752
			c0.739,0,1.339,0.601,1.339,1.34V23.62c0,0.739-0.601,1.34-1.339,1.34H7.635z M18.32,11.302v-0.658
			c0-0.177-0.144-0.322-0.321-0.322h-3.997c-0.177,0-0.322,0.144-0.322,0.322v0.658H18.32z"/>
		<path class="st2" d="M17.998,8.982c0.916,0,1.661,0.745,1.661,1.661v0.953h2.091v-0.261c0-0.431,0.353-0.784,0.784-0.784
			s0.784,0.353,0.784,0.784v0.261h1.046c0.575,0,1.046,0.471,1.046,1.046v10.979c0,0.575-0.471,1.046-1.046,1.046H7.635
			c-0.575,0-1.046-0.471-1.046-1.046V12.642c0-0.575,0.471-1.046,1.046-1.046h1.046v-0.261c0-0.431,0.353-0.784,0.784-0.784
			s0.784,0.353,0.784,0.784v0.261h2.091v-0.953c0-0.916,0.745-1.661,1.661-1.661H17.998 M13.386,11.596h5.228v-0.953
			c0-0.34-0.276-0.616-0.615-0.616h-3.997c-0.34,0-0.616,0.276-0.616,0.616V11.596 M17.998,8.394h-3.997
			c-1.24,0-2.249,1.009-2.249,2.25v0.364h-0.954c-0.147-0.599-0.689-1.046-1.333-1.046s-1.186,0.446-1.333,1.046H7.635
			c-0.901,0-1.634,0.733-1.634,1.634v10.979c0,0.901,0.733,1.634,1.634,1.634h16.729c0.901,0,1.634-0.733,1.634-1.634V12.642
			c0-0.901-0.733-1.634-1.634-1.634h-0.497c-0.147-0.599-0.689-1.046-1.333-1.046c-0.644,0-1.186,0.446-1.333,1.046h-0.954v-0.364
			C20.248,9.403,19.239,8.394,17.998,8.394L17.998,8.394z M13.974,11.008v-0.364c0-0.015,0.013-0.028,0.028-0.028h3.997
			c0.014,0,0.027,0.013,0.027,0.028v0.364H13.974L13.974,11.008z"/>
	</g>
	<g>
		<g>
			<path class="st3" d="M21.771,27.541c2.601,0,4.716-2.115,4.716-4.716s-2.115-4.716-4.716-4.716s-4.716,2.115-4.716,4.716
				S19.17,27.541,21.771,27.541"/>
			<path class="st1" d="M16.771,22.825c0-2.757,2.243-5,5-5s5,2.243,5,5s-2.243,5-5,5S16.771,25.582,16.771,22.825z M17.338,22.825
				c0,2.444,1.989,4.433,4.433,4.433s4.433-1.989,4.433-4.433s-1.989-4.433-4.433-4.433S17.338,20.381,17.338,22.825z"/>
		</g>
		<path class="st1" d="M24.601,22.04l-1.848-1.848c-0.153-0.153-0.402-0.153-0.555,0c-0.153,0.153-0.153,0.402,0,0.555l0.901,0.901
			h-0.623c-2.246,0-3.534,1.288-3.534,3.533c0,0.217,0.175,0.393,0.392,0.393c0.218,0,0.393-0.176,0.393-0.393
			c0-1.254,0.477-2.749,2.749-2.749h0.623l-0.901,0.901c-0.153,0.153-0.153,0.402,0,0.555c0.077,0.077,0.177,0.115,0.278,0.115
			c0.1,0,0.201-0.038,0.277-0.115L24.601,22.04z"/>
	</g>
</g>
</svg>
