<?xml version="1.0" encoding="utf-8"?>
<!-- Generator: Adobe Illustrator 19.1.0, SVG Export Plug-In . SVG Version: 6.00 Build 0)  -->
<!DOCTYPE svg PUBLIC "-//W3C//DTD SVG 1.1//EN" "http://www.w3.org/Graphics/SVG/1.1/DTD/svg11.dtd">
<svg version="1.1" id="Layer_1" xmlns="http://www.w3.org/2000/svg" xmlns:xlink="http://www.w3.org/1999/xlink" x="0px" y="0px"
	 viewBox="4 -4 32 32" enable-background="new 4 -4 32 32" xml:space="preserve">
<g>
	<g>
		
			<path fill="#FFFFFF" stroke="#0072AA" stroke-width="0.6" stroke-linecap="round" stroke-linejoin="round" stroke-miterlimit="10" d="
			M23.818,17.829l5.181,4.668l5.506-4.419c-0.224-0.147-0.646-0.579-0.934-0.579h-9.144C24.14,17.5,24.043,17.682,23.818,17.829z"/>
		<path fill="#FFFFFF" stroke="#0072AA" stroke-width="0.6" stroke-miterlimit="10" d="M29,23.252c-0.045,0-0.09-0.016-0.127-0.048
			l-5.296-5.112C23.358,18.343,23,18.954,23,19.314v6.144C23,26.246,23.639,27,24.428,27h9.144C34.361,27,35,26.247,35,25.458
			v-6.144c0-0.36-0.138-0.685-0.358-0.936l-5.516,4.826C29.09,23.236,29.045,23.252,29,23.252z"/>
	</g>
</g>
</svg>
