<?xml version="1.0" encoding="utf-8"?>
<!-- Generator: Adobe Illustrator 19.1.0, SVG Export Plug-In . SVG Version: 6.00 Build 0)  -->
<svg version="1.1" id="Layer_1" xmlns="http://www.w3.org/2000/svg" xmlns:xlink="http://www.w3.org/1999/xlink" x="0px" y="0px"
	 viewBox="0 0 48 48" enable-background="new 0 0 48 48" xml:space="preserve">
<g>
	<g>
		<path fill="#FFFFFF" d="M47,38.75c0,1.243-3.007,4.25-4.25,4.25H4.25C3.007,43,0,39.993,0,38.75v-28.5C0,9.007,1.007,8,2.25,8
			h42.5C45.993,8,47,9.007,47,10.25V38.75z"/>
		<path fill="#262626" d="M45,8c0.827,0,1,0.173,1,1v32H2V10c0-1.1,0.9-2,2-2H45 M45,6H3C1.343,6,0,7.343,0,9v31
			c0,1.657,1.343,3,3,3h42c1.657,0,3-1.343,3-3V9C48,7.343,46.657,6,45,6L45,6z"/>
	</g>
	<line fill="none" stroke="#262626" stroke-linejoin="round" stroke-miterlimit="10" x1="10.5" y1="6" x2="10.5" y2="41"/>
	<g>
		<path fill="#262626" d="M8.07,24H3.93c-0.099,0-0.18,0.296-0.18-0.5S3.831,23,3.93,23H8.07c0.099,0,0.18-0.296,0.18,0.5
			S8.169,24,8.07,24z"/>
		<path fill="#262626" d="M8.07,36H3.93c-0.099,0-0.18,0.296-0.18-0.5S3.831,35,3.93,35h4.14c0.099,0,0.18-0.296,0.18,0.5
			S8.169,36,8.07,36z"/>
		<path fill="#262626" d="M8.07,18H3.93c-0.099,0-0.18,0.296-0.18-0.5S3.831,17,3.93,17h4.14c0.099,0,0.18-0.296,0.18,0.5
			S8.169,18,8.07,18z"/>
		<path fill="#262626" d="M8.07,30H3.93c-0.099,0-0.18,0.296-0.18-0.5S3.831,29,3.93,29H8.07c0.099,0,0.18-0.296,0.18,0.5
			S8.169,30,8.07,30z"/>
	</g>
	<polygon fill="#262626" points="47,10 1,10 2.016,6.984 45.891,7.031 	"/>
</g>
<g id="metadata_1_">
	<g>
		<circle fill="#262626" cx="28.5" cy="18.5" r="1.227"/>
		<path fill="#262626" d="M30,30.773C30,31.451,29.451,32,28.773,32h-0.545C27.549,32,27,31.451,27,30.773v-8.545
			C27,21.549,27.549,21,28.227,21h0.545C29.451,21,30,21.549,30,22.227V30.773z"/>
	</g>
	<path fill="#262626" stroke="#262626" stroke-width="0.2455" stroke-miterlimit="10" d="M28.5,13.227
		c6.767,0,12.273,5.506,12.273,12.273S35.267,37.773,28.5,37.773S16.227,32.267,16.227,25.5S21.733,13.227,28.5,13.227 M28.5,12
		C21.044,12,15,18.044,15,25.5S21.044,39,28.5,39S42,32.956,42,25.5S35.956,12,28.5,12L28.5,12z"/>
</g>
</svg>
