<?xml version="1.0" encoding="utf-8"?>
<!-- Generator: Adobe Illustrator 19.1.0, SVG Export Plug-In . SVG Version: 6.00 Build 0)  -->
<svg version="1.1" id="Layer_1" xmlns="http://www.w3.org/2000/svg" xmlns:xlink="http://www.w3.org/1999/xlink" x="0px" y="0px"
	 viewBox="0 0 24 24" style="enable-background:new 0 0 24 24;" xml:space="preserve">
<style type="text/css">
	.st0{fill:#FFFFFF;}
</style>
<g>
	<g>
		<g>
			<g>
				<g>
					<path class="st0" d="M18.75,24H5.25C3.596,24,2,22.654,2,21V3c0-1.654,1.596-3,3.25-3H17l5,5v16C22,22.654,20.404,24,18.75,24z
						 M5.25,1C4.01,1,3,1.76,3,3v18c0,1.24,1.01,2,2.25,2h13.5c1.24,0,2.25-0.76,2.25-2V5l-4-4H5.25z"/>
				</g>
			</g>
			<polygon class="st0" points="17,1 17,5 21,5 			"/>
		</g>
	</g>
	<g>
		<g>
			<g>
				<path class="st0" d="M12,7.763c-2.892,0-5.25,2.353-5.25,5.25c0,2.892,2.358,5.25,5.25,5.25c2.897,0,5.25-2.358,5.25-5.25
					C17.25,10.116,14.897,7.763,12,7.763z M12,17.308c-2.367,0-4.295-1.928-4.295-4.295c0-2.372,1.928-4.295,4.295-4.295
					c2.372,0,4.295,1.923,4.295,4.295C16.295,15.38,14.372,17.308,12,17.308z"/>
				<path class="st0" d="M14.496,14.717c-0.091,0.157-0.258,0.258-0.439,0.258c-0.086,0-0.177-0.024-0.253-0.072l-2.32-1.322v-3.56
					c0-0.277,0.229-0.506,0.506-0.506c0.277,0,0.506,0.229,0.506,0.506v2.973l1.814,1.036c0.115,0.067,0.2,0.177,0.234,0.305
					C14.582,14.464,14.563,14.602,14.496,14.717z"/>
			</g>
		</g>
	</g>
</g>
</svg>
