<?xml version="1.0" encoding="utf-8"?>
<!-- Generator: Adobe Illustrator 19.1.0, SVG Export Plug-In . SVG Version: 6.00 Build 0)  -->
<!DOCTYPE svg PUBLIC "-//W3C//DTD SVG 1.1//EN" "http://www.w3.org/Graphics/SVG/1.1/DTD/svg11.dtd">
<svg version="1.1" id="Layer_1" xmlns="http://www.w3.org/2000/svg" xmlns:xlink="http://www.w3.org/1999/xlink" x="0px" y="0px"
	 viewBox="0 0 24 24" enable-background="new 0 0 24 24" xml:space="preserve">
<g id="Layer_27_copy_2">
	<path fill="#FFFFFF" d="M18.54,23.632c1.053-0.053,1.966-0.616,2.496-1.455C20.238,22.858,19.397,23.346,18.54,23.632z"/>
	<g>
		<path fill="#333333" d="M16.24,16.954c0.196-0.001,0.375-0.081,0.504-0.209c0.129-0.129,0.208-0.307,0.207-0.504
			c0-0.393-0.319-0.712-0.712-0.712h-2.308l0.799-0.799c2.914-2.914,5.441-1.608,7.05,0c0.278,0.278,0.729,0.278,1.007,0
			s0.278-0.729,0-1.007c-2.879-2.879-6.185-2.879-9.064,0l-0.799,0.799v-2.31c0-0.393-0.319-0.712-0.712-0.712
			S11.5,11.819,11.5,12.212v4.741L16.24,16.954z"/>
		<path fill="#333333" d="M18.76,18.046c-0.196,0.001-0.375,0.081-0.504,0.209c-0.129,0.129-0.208,0.307-0.207,0.504
			c0,0.393,0.319,0.712,0.712,0.712h2.308L20.27,20.27c-2.914,2.914-5.441,1.608-7.05,0c-0.278-0.278-0.729-0.278-1.007,0
			s-0.278,0.729,0,1.007c2.879,2.879,6.185,2.879,9.064,0l0.799-0.799v2.31c0,0.393,0.319,0.712,0.712,0.712
			s0.712-0.319,0.712-0.712v-4.741L18.76,18.046z"/>
	</g>
</g>
<g>
	<path fill="#333333" d="M13.591,23H6c-1.657,0-3-1.343-3-3V4c0-1.657,1.343-3,3-3h10l5,5v5.776c0.338,0.175,0.672,0.376,1,0.614V6
		V5.586l-0.293-0.293l-5-5L16.414,0H16H6C3.794,0,2,1.794,2,4v16c0,2.206,1.794,4,4,4h12c1.573,0,2.923-0.92,3.576-2.243v-0.073
		c-1.494,1.473-3.163,2.251-4.831,2.251C15.678,23.935,14.612,23.615,13.591,23z"/>
	<path fill="#FFFFFF" d="M14.244,23.342c0.217,0.102,0.436,0.187,0.656,0.263C14.68,23.529,14.461,23.444,14.244,23.342z"/>
	<path fill="#333333" d="M21.427,15.083c-0.142-0.142-0.285-0.25-0.427-0.372v2.837h1v-2.166
		C21.787,15.33,21.586,15.242,21.427,15.083z"/>
	<g>
		<path fill="#FFFFFF" d="M21.528,15.151c-0.032-0.026-0.072-0.038-0.101-0.068c0.03,0.03,0.068,0.047,0.101,0.072V15.151z"/>
		<path fill="#FFFFFF" d="M17.547,18.759c-0.002-0.322,0.124-0.628,0.354-0.857c0.228-0.228,0.531-0.354,0.854-0.355H21V14.71
			c0.142,0.123,0.285,0.231,0.427,0.372c-1.051-1.05-2.121-1.583-3.181-1.583c-1.029,0-2.074,0.515-3.106,1.528h1.101
			c0.668,0,1.212,0.544,1.212,1.212c0.002,0.322-0.124,0.628-0.354,0.857c-0.228,0.228-0.531,0.354-0.854,0.355H16.24l-4.74,0.001
			l-0.5-0.5v-4.741C11,11.543,11.544,11,12.212,11s1.212,0.543,1.212,1.212v1.104c1.494-1.474,3.163-2.252,4.831-2.252
			c1.108,0,2.216,0.35,3.273,1.013v-0.001c-0.175-0.108-0.351-0.208-0.528-0.299V6l-5-5H6C4.343,1,3,2.343,3,4v16
			c0,1.657,1.343,3,3,3h7.591c0.139,0.084,0.281,0.148,0.422,0.221c-0.743-0.382-1.467-0.906-2.152-1.592
			c-0.229-0.229-0.355-0.534-0.355-0.858c0.001-0.323,0.127-0.628,0.356-0.856c0.227-0.228,0.531-0.354,0.855-0.354
			s0.628,0.126,0.857,0.355c1.051,1.051,2.12,1.583,3.18,1.583c1.03,0,2.075-0.515,3.107-1.528H18.76
			C18.091,19.971,17.547,19.427,17.547,18.759z"/>
	</g>
</g>
</svg>
