<?xml version="1.0" encoding="utf-8"?>
<!-- Generator: Adobe Illustrator 19.1.0, SVG Export Plug-In . SVG Version: 6.00 Build 0)  -->
<svg version="1.1" id="Layer_1" xmlns="http://www.w3.org/2000/svg" xmlns:xlink="http://www.w3.org/1999/xlink" x="0px" y="0px"
	 viewBox="0 0 24 24" style="enable-background:new 0 0 24 24;" xml:space="preserve">
<style type="text/css">
	.st0{fill:#FFFFFF;}
</style>
<g>
	<g>
		<g>
			<path class="st0" d="M18.75,24H5.25C3.596,24,2,22.654,2,21V3c0-1.654,1.596-3,3.25-3H17l5,5v16C22,22.654,20.404,24,18.75,24z
				 M5.25,1C4.01,1,3,1.76,3,3v18c0,1.24,1.01,2,2.25,2h13.5c1.24,0,2.25-0.76,2.25-2V5l-4-4H5.25z"/>
		</g>
	</g>
	<polygon class="st0" points="17,1 17,5 21,5 	"/>
</g>
</svg>
