<svg id="Layer_1" data-name="Layer 1" xmlns="http://www.w3.org/2000/svg" viewBox="0 0 32.58 16"><defs><style>.cls-1{fill:#cc3632;}.cls-2{fill:#fff;}</style></defs><title>specification_CS16_PerspectiveManager</title><g id="header_3" data-name="header 3"><rect class="cls-1" width="32.58" height="16" rx="8" ry="8"/><path class="cls-2" d="M11.454,7.791L8.227,2.877H10.1a0.575,0.575,0,0,1,.283.053,0.473,0.473,0,0,1,.157.171l2.3,3.717q0.035-.091.077-0.178a1.922,1.922,0,0,1,.1-0.178l2.107-3.325a0.456,0.456,0,0,1,.4-0.259h1.806L14.072,7.714,17.425,13H15.542a0.454,0.454,0,0,1-.3-0.1,0.919,0.919,0,0,1-.193-0.224L12.7,8.8a1.344,1.344,0,0,1-.063.158c-0.023.049-.047,0.095-0.07,0.137L10.32,12.677a1.123,1.123,0,0,1-.189.221,0.4,0.4,0,0,1-.28.1H8.087Z"/><path class="cls-2" d="M20.414,11.445h4.053V13H18.531V2.877h1.883v8.568Z"/></g></svg>