<svg id="Layer_1" data-name="Layer 1" xmlns="http://www.w3.org/2000/svg" viewBox="0 0 38.25 16"><defs><style>.cls-1{fill:#d76d00;}.cls-2{fill:#fff;}</style></defs><title>specification_CS16_PerspectiveManager</title><rect class="cls-1" width="38.25" height="16" rx="8" ry="8"/><path class="cls-2" d="M13.418,9.265q0.1,0.242.2,0.487,0.1-.252.2-0.5t0.224-.469l3-5.607a0.774,0.774,0,0,1,.116-0.168,0.358,0.358,0,0,1,.133-0.091,0.592,0.592,0,0,1,.165-0.035q0.091-.007.217-0.007h1.421V13H17.432V6.462q0-.182.011-0.4t0.031-.441l-3.059,5.74a0.806,0.806,0,0,1-.273.3,0.706,0.706,0,0,1-.392.109H13.491a0.706,0.706,0,0,1-.392-0.109,0.806,0.806,0,0,1-.273-0.3L9.725,5.6c0.019,0.154.032,0.3,0.039,0.451s0.01,0.284.01,0.409V13H8.115V2.878H9.536q0.126,0,.217.007a0.588,0.588,0,0,1,.165.035,0.388,0.388,0,0,1,.137.091,0.715,0.715,0,0,1,.119.168L13.2,8.8Q13.316,9.024,13.418,9.265Z"/><path class="cls-2" d="M30.123,7.939a5.468,5.468,0,0,1-.371,2.044,4.59,4.59,0,0,1-2.66,2.646A5.681,5.681,0,0,1,25,13H21.135V2.878H25a5.637,5.637,0,0,1,2.093.375A4.734,4.734,0,0,1,28.709,4.3a4.652,4.652,0,0,1,1.043,1.6A5.469,5.469,0,0,1,30.123,7.939Zm-1.925,0a4.643,4.643,0,0,0-.224-1.495,3.173,3.173,0,0,0-.637-1.12,2.753,2.753,0,0,0-1-.7A3.456,3.456,0,0,0,25,4.376H23.032V11.5H25a3.454,3.454,0,0,0,1.333-.245,2.751,2.751,0,0,0,1-.7,3.173,3.173,0,0,0,.637-1.12A4.643,4.643,0,0,0,28.2,7.939Z"/></svg>