<svg id="Layer_1" data-name="Layer 1" xmlns="http://www.w3.org/2000/svg" viewBox="0 0 176 120"><defs><style>.cls-1{fill:#627783;}.cls-2{fill:#fff;}.cls-3{fill:#bac9ce;}</style></defs><title>specification_CS16_PerspectiveManager</title><path class="cls-1" d="M5.765,0H170.235A5.765,5.765,0,0,1,176,5.765V114.235A5.765,5.765,0,0,1,170.235,120H6a6,6,0,0,1-6-6V5.765A5.765,5.765,0,0,1,5.765,0Z"/><rect class="cls-2" x="64" y="8" width="104" height="48" rx="3" ry="3"/><rect class="cls-2" x="8" y="68" width="160" height="44" rx="3" ry="3"/><rect class="cls-2" x="8" y="8" width="48" height="48" rx="3" ry="3"/><path class="cls-3" d="M164,65a2.006,2.006,0,0,0-2-2H146a2.006,2.006,0,0,0-2,2v3h20V65Z"/><path class="cls-3" d="M142,65a2.006,2.006,0,0,0-2-2H124a2.006,2.006,0,0,0-2,2v3h20V65Z"/><path class="cls-3" d="M120,65a2.006,2.006,0,0,0-2-2H102a2.006,2.006,0,0,0-2,2v3h20V65Z"/><path class="cls-2" d="M98,64a2.006,2.006,0,0,0-2-2H80a2.006,2.006,0,0,0-2,2v5H98V64Z"/></svg>