<svg id="Layer_1" data-name="Layer 1" xmlns="http://www.w3.org/2000/svg" viewBox="0 0 10 40"><defs><style>.cls-1{fill:#7a7a7a;}.cls-2{fill:#f3f4f4;}.cls-3{fill:#fff;}</style></defs><title>specification_CS16_PerspectiveManager</title><path class="cls-1" d="M0.974,1.027V38.973A8.495,8.495,0,0,0,9,30.521V9.479A8.495,8.495,0,0,0,.974,1.027Z"/><path class="cls-2" d="M0.974,1.027A8.495,8.495,0,0,1,9,9.479V30.521A8.495,8.495,0,0,1,.974,38.973V1.027M0,0V40l1.025-.054a9.442,9.442,0,0,0,8.954-9.425V9.479A9.442,9.442,0,0,0,1.025.054L0,0H0Z"/><circle class="cls-3" cx="5.108" cy="21.948" r="0.974"/><circle class="cls-3" cx="5.108" cy="18.052" r="0.974"/></svg>