<svg id="Layer_1" data-name="Layer 1" xmlns="http://www.w3.org/2000/svg" viewBox="0 0 35.502 16"><defs><style>.cls-1{fill:#52860a;}.cls-2{fill:#fff;}</style></defs><title>specification_CS16_PerspectiveManager</title><rect class="cls-1" width="35.502" height="16" rx="8" ry="8"/><path class="cls-2" d="M14.205,4.72a0.521,0.521,0,0,1-.178.217A0.449,0.449,0,0,1,13.785,5a0.613,0.613,0,0,1-.315-0.108q-0.175-.108-0.413-0.242A3.386,3.386,0,0,0,12.5,4.409,2.34,2.34,0,0,0,11.748,4.3a2.21,2.21,0,0,0-.682.094,1.445,1.445,0,0,0-.49.263,1.049,1.049,0,0,0-.3.4,1.32,1.32,0,0,0-.1.514,0.894,0.894,0,0,0,.2.6,1.664,1.664,0,0,0,.528.406,4.9,4.9,0,0,0,.749.3q0.42,0.133.858,0.284a8.284,8.284,0,0,1,.857.35,2.974,2.974,0,0,1,.749.5,2.286,2.286,0,0,1,.529.745,2.592,2.592,0,0,1,.2,1.071,3.491,3.491,0,0,1-.235,1.284,2.962,2.962,0,0,1-.686,1.043,3.23,3.23,0,0,1-1.1.7,4.061,4.061,0,0,1-1.491.255,4.8,4.8,0,0,1-.952-0.095,5,5,0,0,1-.9-0.27,4.687,4.687,0,0,1-.805-0.42,3.966,3.966,0,0,1-.668-0.546l0.546-.9a0.7,0.7,0,0,1,.185-0.164,0.454,0.454,0,0,1,.242-0.066,0.669,0.669,0,0,1,.378.143q0.2,0.144.479,0.318a3.673,3.673,0,0,0,.651.319,2.517,2.517,0,0,0,.9.143,1.845,1.845,0,0,0,1.246-.382,1.369,1.369,0,0,0,.441-1.1,1.018,1.018,0,0,0-.2-0.651,1.613,1.613,0,0,0-.529-0.423,3.955,3.955,0,0,0-.749-0.29q-0.42-.119-0.854-0.259a7.354,7.354,0,0,1-.854-0.336,2.764,2.764,0,0,1-.749-0.511,2.324,2.324,0,0,1-.529-0.788,3,3,0,0,1-.2-1.165,2.785,2.785,0,0,1,.865-2.009,3.181,3.181,0,0,1,1.04-.651,3.785,3.785,0,0,1,1.407-.245,4.724,4.724,0,0,1,1.652.28,3.731,3.731,0,0,1,1.288.784Z"/><path class="cls-2" d="M21.594,9.267q0.1,0.242.2,0.487,0.1-.252.2-0.5t0.224-.469l3-5.607a0.775,0.775,0,0,1,.115-0.168,0.356,0.356,0,0,1,.133-0.091,0.588,0.588,0,0,1,.165-0.035q0.091-.007.217-0.007h1.421V13H25.608V6.463q0-.182.01-0.4t0.031-.441l-3.059,5.74a0.808,0.808,0,0,1-.273.3,0.706,0.706,0,0,1-.392.108H21.667a0.7,0.7,0,0,1-.392-0.108,0.807,0.807,0,0,1-.273-0.3L17.9,5.6q0.028,0.231.038,0.451t0.01,0.41V13H16.291V2.879h1.421q0.126,0,.217.007a0.59,0.59,0,0,1,.165.035,0.388,0.388,0,0,1,.136.091,0.716,0.716,0,0,1,.119.168L21.373,8.8Q21.492,9.026,21.594,9.267Z"/></svg>