<svg id="Layer_1" data-name="Layer 1" xmlns="http://www.w3.org/2000/svg" viewBox="0 0 80 80"><defs><style>.cls-1{fill:#fff;}</style></defs><title>specification_CS16_PerspectiveManager</title><circle cx="40" cy="40" r="39.5" transform="translate(-16.569 40) rotate(-45)"/><path class="cls-1" d="M49.422,51.422a1.994,1.994,0,0,1-1.414-.586L29.163,31.992a2,2,0,0,1,2.828-2.828L50.836,48.008A2,2,0,0,1,49.422,51.422Z"/><path class="cls-1" d="M30.577,51.422a2,2,0,0,1-1.414-3.414L48.008,29.163a2,2,0,0,1,2.828,2.828L31.991,50.837A1.994,1.994,0,0,1,30.577,51.422Z"/></svg>