<svg id="Layer_1" data-name="Layer 1" xmlns="http://www.w3.org/2000/svg" xmlns:xlink="http://www.w3.org/1999/xlink" viewBox="0 0 176 120"><defs><style>.cls-1{fill:#627783;}.cls-2{fill:#fff;}.cls-3{fill:url(#linear-gradient);}.cls-4{fill:url(#linear-gradient-2);}</style><linearGradient id="linear-gradient" x1="89.365" y1="87.645" x2="151.519" y2="87.645" gradientUnits="userSpaceOnUse"><stop offset="0.1" stop-color="#fff"/><stop offset="0.6" stop-color="#3f525b"/></linearGradient><linearGradient id="linear-gradient-2" x1="141.729" y1="21.411" x2="23.838" y2="83.306" xlink:href="#linear-gradient"/></defs><title>specification_CS16_PerspectiveManager</title><rect class="cls-1" width="176" height="120" rx="6" ry="6"/><rect class="cls-2" x="8" y="64" width="48" height="48" rx="3" ry="3"/><rect class="cls-2" x="64" y="64" width="48" height="48" rx="3" ry="3"/><rect class="cls-2" x="8" y="8" width="48" height="48" rx="3" ry="3"/><rect class="cls-2" x="120" y="8" width="48" height="48" rx="3" ry="3"/><rect class="cls-2" x="64" y="8" width="48" height="48" rx="3" ry="3"/><path class="cls-3" d="M134.239,103.268a4,4,0,0,1-2.828-6.828l4.795-4.8H93.365a4,4,0,0,1,0-8h42.841l-4.795-4.795a4,4,0,1,1,5.656-5.656l14.452,14.451L137.068,102.1A3.976,3.976,0,0,1,134.239,103.268Z"/><path class="cls-2" d="M134.239,73.021a2.989,2.989,0,0,1,2.121.879L150.1,87.644,136.36,101.389a3,3,0,1,1-4.243-4.242l6.5-6.5H93.364a3,3,0,0,1,0-6h45.255l-6.5-6.5a3,3,0,0,1,2.121-5.121m0-2a5,5,0,0,0-3.535,8.536l3.087,3.087H93.364a5,5,0,0,0,0,10h40.427L130.7,95.733a5,5,0,1,0,7.072,7.07l13.744-13.745,1.414-1.414-1.414-1.414L137.774,72.486a4.965,4.965,0,0,0-3.535-1.465h0Z"/><path class="cls-4" d="M22.123,75.318A4,4,0,1,1,29.6,72.474l2.313,6.081c6.756-13.383,17.336-24.379,31.48-32.71,20.222-11.91,47.3-17.95,80.468-17.95a4,4,0,0,1,0,8c-31.549,0-57.154,5.617-76.105,16.7C54.79,60.17,45.142,70.119,39.044,82.188l6.6-2.511a4,4,0,0,1,2.844,7.478l-19.1,7.266Z"/><path class="cls-2" d="M143.862,28.9a3,3,0,0,1,0,6c-71.348,0-97.344,28.512-106.807,49.12L46,80.611a3,3,0,1,1,2.133,5.608L29.968,93.13,23.058,74.962a3,3,0,1,1,5.608-2.133L31.8,81.075C42.1,59,69.746,28.9,143.862,28.9m0-2c-33.353,0-60.6,6.086-80.976,18.088C49.277,53,38.926,63.46,32.058,76.122l-1.523-4A5.028,5.028,0,0,0,25.86,68.9a5,5,0,0,0-4.671,6.778L28.1,93.841l0.711,1.87L30.679,95l18.167-6.911a5,5,0,1,0-3.554-9.347l-4.118,1.566C47.22,69.458,56.311,60.44,68.261,53.454c18.8-10.987,44.232-16.559,75.6-16.559a5,5,0,0,0,0-10h0Z"/></svg>