<svg id="Layer_1" data-name="Layer 1" xmlns="http://www.w3.org/2000/svg" viewBox="0 0 10 40"><defs><style>.cls-1{fill:#7a7a7a;}.cls-2{fill:#f3f4f4;}.cls-3{fill:#fff;}</style></defs><title>specification_CS16_PerspectiveManager</title><path class="cls-1" d="M9,1.027V38.973A8.495,8.495,0,0,1,.974,30.521V9.479A8.495,8.495,0,0,1,9,1.027Z"/><path class="cls-2" d="M9,1.027V38.973A8.495,8.495,0,0,1,.974,30.521V9.479A8.495,8.495,0,0,1,9,1.027M9.979,0l-1.025.054A9.442,9.442,0,0,0,0,9.479V30.521a9.442,9.442,0,0,0,8.954,9.425L9.979,40V0h0Z"/><circle class="cls-3" cx="4.871" cy="21.948" r="0.974"/><circle class="cls-3" cx="4.871" cy="18.052" r="0.974"/></svg>