<?xml version="1.0" encoding="utf-8"?>
<!-- Generator: Adobe Illustrator 21.0.0, SVG Export Plug-In . SVG Version: 6.00 Build 0)  -->
<svg version="1.1" id="Layer_1" xmlns="http://www.w3.org/2000/svg" xmlns:xlink="http://www.w3.org/1999/xlink" x="0px" y="0px"
	 viewBox="0 0 24 24" style="enable-background:new 0 0 24 24;" xml:space="preserve">
<style type="text/css">
	.st0{fill:#FFFFFF;}
	.st1{fill:#333333;}
</style>
<g>
	<polygon class="st0" points="12.13,20.935 12.13,20.935 6.223,20.935 6.223,3.209 12.112,3.209 12.13,3.209 18.018,3.209 
		18.018,20.935 	"/>
	<path class="st1" d="M16.181,24H8.284C7.024,24,6,22.976,6,21.717V2.283C6,1.024,7.024,0,8.284,0h7.898
		c1.259,0,2.284,1.024,2.284,2.283v19.433C18.465,22.976,17.441,24,16.181,24z M8.284,0.446c-1.013,0-1.837,0.824-1.837,1.837
		v19.433c0,1.013,0.824,1.837,1.837,1.837h7.898c1.013,0,1.837-0.824,1.837-1.837V2.283c0-1.013-0.824-1.837-1.837-1.837H8.284z"/>
</g>
<path class="st0" d="M14.379,2.035h-4.292c-0.189,0-0.343-0.155-0.343-0.343v0c0-0.189,0.155-0.343,0.343-0.343h4.292
	c0.189,0,0.343,0.155,0.343,0.343v0C14.722,1.88,14.568,2.035,14.379,2.035z"/>
<g>
	<path class="st1" d="M6.223,20.935v0.781c0,1.133,0.927,2.06,2.06,2.06h7.898c1.133,0,2.06-0.927,2.06-2.06v-0.781H6.223z"/>
	<circle class="st0" cx="12.233" cy="22.356" r="0.858"/>
</g>
<path class="st1" d="M6.223,3.209l0-0.942c0-1.133,0.927-2.06,2.06-2.06h7.898c1.133,0,2.06,0.927,2.06,2.06l0,0.942H6.223z"/>
<path class="st0" d="M14.379,2.051h-4.292c-0.189,0-0.343-0.155-0.343-0.343v0c0-0.189,0.155-0.343,0.343-0.343h4.292
	c0.189,0,0.343,0.155,0.343,0.343v0C14.722,1.897,14.568,2.051,14.379,2.051z"/>
</svg>
