<?xml version="1.0" encoding="utf-8"?>
<!-- Generator: Adobe Illustrator 19.2.1, SVG Export Plug-In . SVG Version: 6.00 Build 0)  -->
<svg version="1.1" id="Layer_1" xmlns="http://www.w3.org/2000/svg" xmlns:xlink="http://www.w3.org/1999/xlink" x="0px" y="0px"
	 viewBox="0 0 32 32" style="enable-background:new 0 0 32 32;" xml:space="preserve">
<style type="text/css">
	.st0{fill:#473D2A;stroke:#FFFFFF;stroke-miterlimit:10;}
	.st1{fill:#473D2A;}
	.st2{fill:#FFFFFF;}
	.st3{fill:#DFE7EA;}
	.st4{fill:#E3992E;}
	.st5{fill:#F9C662;}
	.st6{fill:#CD3632;}
	.st7{display:none;}
	.st8{display:inline;}
</style>
<g id="Layer_1_1_">
	<g>
		<path class="st0" d="M4,29C4,29,4,29,4,29c0-0.1,0-0.1,0-0.1V29z"/>
		<g>
			<path class="st1" d="M6.1,31.5c-1.4,0-2.6-1.1-2.6-2.6c0-0.1,0-0.1,0-0.1h0V3.1c0-1.4,1.2-2.6,2.6-2.6H27c0.8,0,1.5,0.7,1.5,1.5
				v28c0,0.8-0.7,1.5-1.5,1.5H6.1z"/>
			<path class="st2" d="M27,1c0.6,0,1,0.4,1,1v24v4c0,0.6-0.4,1-1,1H6.1C5,31,4,30.1,4,28.9c0-0.2,0-0.4,0.1-0.6
				C4,28.5,4,28.6,4,28.8V3.1C4,1.9,4.9,1,6.1,1H27 M6.2,27L6.2,27c-0.1,0-0.1,0-0.1,0C6.1,27,6.1,27,6.2,27L6.2,27
				C6.2,27,6.2,27,6.2,27C6.2,27,6.2,27,6.2,27 M26.5,27c0.2,0,0.3,0,0.5,0h-1C26.2,27,26.4,27,26.5,27 M27,0H6.1C4.4,0,3,1.4,3,3.1
				v25.7h0c0,0,0,0.1,0,0.1C3,30.6,4.4,32,6.1,32H27c1.1,0,2-0.9,2-2v-4V2C29,0.9,28.1,0,27,0L27,0z"/>
		</g>
	</g>
	<g id="Ppt">
	</g>
	<g id="Small_Folder">
	</g>
	<g id="fave_icon_-_selected">
	</g>
	<g id="Shortcut_1_">
	</g>
	<g id="comment_icon_-_selected">
	</g>
	<g id="Comment_icon">
	</g>
	<rect x="6" y="26" class="st2" width="21" height="4"/>
	<rect x="6" y="26" class="st3" width="21" height="2"/>
	<path class="st4" d="M28,2c0-0.6-0.4-1-1-1H6.1C4.9,1,4,1.9,4,3.1v25.7c0-1,0.8-1.8,2.1-1.8H27c0.6,0,1-0.4,1-1V2z"/>
	<rect x="6" y="1" class="st5" width="1" height="26"/>
	<polygon class="st6" points="25,1 25,10 22,8 19,10 19,1 	"/>
</g>
<g id="shortcut_overlay" class="st7">
	<g id="Shortcut" class="st8">
	</g>
</g>
</svg>
