<?xml version="1.0" encoding="utf-8"?>
<!-- Generator: Adobe Illustrator 19.2.1, SVG Export Plug-In . SVG Version: 6.00 Build 0)  -->
<svg version="1.1" id="Layer_1" xmlns="http://www.w3.org/2000/svg" xmlns:xlink="http://www.w3.org/1999/xlink" x="0px" y="0px"
	 viewBox="0 0 32 32" style="enable-background:new 0 0 32 32;" xml:space="preserve">
<style type="text/css">
	.st0{fill:#DD8100;}
	.st1{fill:#E3992E;}
	.st2{fill:#F9C662;}
	.st3{fill:none;stroke:#6B5927;stroke-miterlimit:10;}
	.st4{fill:none;stroke:#473D2A;stroke-linecap:round;stroke-miterlimit:10;}
	.st5{fill:#FFFFFF;}
	.st6{fill:#473D2A;}
	.st7{display:none;}
	.st8{display:inline;}
</style>
<g id="Layer_1_1_">
	<g id="Ppt">
	</g>
	<g id="Small_Folder">
	</g>
	<g id="fave_icon_-_selected">
	</g>
	<g id="Shortcut_1_">
	</g>
	<g id="comment_icon_-_selected">
	</g>
	<g id="Comment_icon">
	</g>
	<g>
		<g>
			<polygon class="st0" points="29.5,23 16,30.6 16,16.7 29.5,9.4 			"/>
			<polygon class="st1" points="2.5,23 16,30.6 16,16.7 2.5,9.4 			"/>
			<polygon class="st2" points="3,9.1 16,16.5 29,9.1 16,1.6 			"/>
		</g>
		<line class="st3" x1="9" y1="12.5" x2="22.1" y2="5"/>
		<g>
			<g>
				<line class="st3" x1="16" y1="30" x2="16" y2="16.7"/>
				<path class="st3" d="M29.5,9.1l-13,7.4c-0.3,0.2-0.6,0.2-0.9,0l-13-7.4"/>
				<path class="st4" d="M29.5,22.5c0,0.3-0.2,0.6-0.5,0.8l-12.6,7.1c-0.3,0.2-0.6,0.2-0.9,0L3,23.2c-0.3-0.2-0.5-0.5-0.5-0.8V9.6
					c0-0.3,0.2-0.6,0.5-0.8l12.6-7.1c0.3-0.2,0.6-0.2,0.9,0L29,8.8c0.3,0.2,0.5,0.5,0.5,0.8V22.5z"/>
			</g>
		</g>
	</g>
	<g>
		<path class="st5" d="M16,1c0.2,0,0.5,0.1,0.7,0.2l12.6,7.1C29.7,8.6,30,9.1,30,9.6v13.2c0,0.5-0.3,1-0.7,1.2l-12.6,7.1
			c-0.2,0.1-0.5,0.2-0.7,0.2c-0.2,0-0.5-0.1-0.7-0.2L2.7,24C2.3,23.7,2,23.2,2,22.7V9.6c0-0.5,0.3-1,0.7-1.2l12.6-7.1
			C15.5,1.1,15.8,1,16,1 M16,0c-0.4,0-0.8,0.1-1.2,0.3L2.2,7.5C1.5,7.9,1,8.7,1,9.6v13.2c0,0.9,0.5,1.7,1.2,2.1L14.8,32
			c0.4,0.2,0.8,0.3,1.2,0.3s0.8-0.1,1.2-0.3l12.6-7.1c0.8-0.4,1.2-1.2,1.2-2.1V9.6c0-0.9-0.5-1.7-1.2-2.1L17.2,0.3
			C16.8,0.1,16.4,0,16,0L16,0z"/>
	</g>
	<g>
		<polygon class="st6" points="13,27.4 14,28 14,22 13,21.4 		"/>
		<polygon class="st6" points="10,25.7 12,26.8 12,20.8 10,19.7 		"/>
		<polygon class="st6" points="8,24.5 9,25.1 9,19.1 8,18.5 		"/>
		<polygon class="st6" points="6,23.4 7,24 7,18 6,17.4 		"/>
		<polygon class="st6" points="4,22.2 5,22.8 5,16.8 4,16.2 		"/>
	</g>
</g>
<g id="shortcut_overlay" class="st7">
	<g id="Shortcut" class="st8">
	</g>
</g>
</svg>
