<?xml version="1.0" encoding="utf-8"?>
<!-- Generator: Adobe Illustrator 19.2.1, SVG Export Plug-In . SVG Version: 6.00 Build 0)  -->
<svg version="1.1" id="Layer_1" xmlns="http://www.w3.org/2000/svg" xmlns:xlink="http://www.w3.org/1999/xlink" x="0px" y="0px"
	 viewBox="0 0 32 32" style="enable-background:new 0 0 32 32;" xml:space="preserve">
<style type="text/css">
	.st0{fill:#7B9AB0;}
	.st1{fill:#9AB3C2;}
	.st2{fill:#627783;}
	.st3{fill:#FFFFFF;}
	.st4{display:none;}
	.st5{display:inline;}
</style>
<g id="Layer_1_1_">
	<path class="st0" d="M11.8,11.8l-1.4,1.4c-1.6,1.6-1.6,4.2,0,5.7l1.4,1.4L16,16L11.8,11.8z"/>
	<path class="st1" d="M20.2,11.8l-1.4-1.4c-1.6-1.6-4.2-1.6-5.7,0l-1.4,1.4L16,16L20.2,11.8z"/>
	<path class="st0" d="M21.6,13.1l-1.4-1.4L16,16l4.2,4.2l1.4-1.4C23.2,17.3,23.2,14.7,21.6,13.1z"/>
	<path class="st2" d="M11.8,20.2l1.4,1.4c1.6,1.6,4.2,1.6,5.7,0l1.4-1.4L16,16L11.8,20.2z"/>
	<g id="Ppt">
	</g>
	<g id="Small_Folder">
	</g>
	<g id="fave_icon_-_selected">
	</g>
	<g id="Shortcut_1_">
	</g>
	<g id="comment_icon_-_selected">
	</g>
	<g id="Comment_icon">
	</g>
	<g>
		<path class="st3" d="M16,9.2c1,0,2.1,0.4,2.9,1.2l2.7,2.7c1.6,1.6,1.6,4.2,0,5.7l-2.7,2.7c-0.8,0.8-1.8,1.2-2.9,1.2
			s-2.1-0.4-2.9-1.2l-2.7-2.7c-1.6-1.6-1.6-4.2,0-5.7l2.7-2.7C13.9,9.6,15,9.2,16,9.2 M16,8.2c-1.4,0-2.6,0.5-3.6,1.5l-2.7,2.7
			c-2,2-2,5.2,0,7.2l2.7,2.7c1,1,2.2,1.5,3.6,1.5s2.6-0.5,3.6-1.5l2.7-2.7c2-2,2-5.2,0-7.2l-2.7-2.7C18.6,8.7,17.4,8.2,16,8.2
			L16,8.2z"/>
	</g>
</g>
<g id="shortcut_overlay" class="st4">
	<g id="Shortcut" class="st5">
	</g>
</g>
</svg>
