<?xml version="1.0" encoding="utf-8"?>
<!-- Generator: Adobe Illustrator 19.2.1, SVG Export Plug-In . SVG Version: 6.00 Build 0)  -->
<svg version="1.1" id="Layer_1" xmlns="http://www.w3.org/2000/svg" xmlns:xlink="http://www.w3.org/1999/xlink" x="0px" y="0px"
	 viewBox="0 0 32 32" style="enable-background:new 0 0 32 32;" xml:space="preserve">
<style type="text/css">
	.st0{fill:#BAC9CE;}
	.st1{fill:#7B9AB0;}
	.st2{fill:#FFFFFF;}
	.st3{fill:#DFE7EA;}
	.st4{fill:#FDE89A;}
	.st5{fill:#C3E5F6;}
	.st6{fill:#627783;}
	.st7{display:none;}
	.st8{display:inline;}
</style>
<g id="Layer_1_1_">
	<g id="Ppt">
	</g>
	<g id="Small_Folder">
	</g>
	<g id="fave_icon_-_selected">
	</g>
	<g id="Shortcut_1_">
	</g>
	<g id="comment_icon_-_selected">
	</g>
	<g id="Comment_icon">
	</g>
	<g>
		<path class="st0" d="M16,29.5C8.6,29.5,2.5,23.4,2.5,16S8.6,2.5,16,2.5S29.5,8.6,29.5,16S23.4,29.5,16,29.5z"/>
		<path class="st1" d="M16,3c7.2,0,13,5.8,13,13s-5.8,13-13,13S3,23.2,3,16S8.8,3,16,3 M16,2C8.3,2,2,8.3,2,16s6.3,14,14,14
			s14-6.3,14-14S23.7,2,16,2L16,2z"/>
	</g>
	<g>
		<path class="st2" d="M16,2c7.7,0,14,6.3,14,14s-6.3,14-14,14S2,23.7,2,16S8.3,2,16,2 M16,1C7.7,1,1,7.7,1,16s6.7,15,15,15
			s15-6.7,15-15S24.3,1,16,1L16,1z"/>
	</g>
	<g>
		<g>
			<path class="st3" d="M16,16L16,16L16,16z"/>
			<polygon class="st1" points="16,16 16,16 16,16 			"/>
		</g>
		<g>
			<path class="st2" d="M29.5,12.4c-0.6-2.4-1.9-4.6-3.6-6.3L16,16L29.5,12.4z"/>
		</g>
		<g>
			<path class="st3" d="M16,16L16,16L16,16z"/>
			<polygon class="st1" points="16,16 16,16 16,16 			"/>
		</g>
		<g>
			<path class="st2" d="M16,16L16,16L2.5,19.6c0.6,2.4,1.9,4.6,3.6,6.3L16,16L16,16z"/>
		</g>
		<g>
			<path class="st4" d="M6.1,25.9c1.7,1.7,3.9,3,6.3,3.6L16,16L6.1,25.9z"/>
		</g>
		<g>
			<path class="st5" d="M16,16l9.9-9.9c-1.7-1.7-3.9-3-6.3-3.6L16,16L16,16z"/>
		</g>
	</g>
	<g>
		<circle class="st6" cx="16" cy="16" r="4"/>
	</g>
	<g>
		<circle class="st1" cx="16" cy="16" r="1.5"/>
		<path class="st2" d="M16,15c0.6,0,1,0.4,1,1c0,0.6-0.4,1-1,1s-1-0.4-1-1S15.4,15,16,15 M16,14c-1.1,0-2,0.9-2,2s0.9,2,2,2
			s2-0.9,2-2S17.1,14,16,14L16,14z"/>
	</g>
	<g>
		<path class="st2" d="M16,3.9c6.7,0,12.1,5.4,12.1,12.1S22.7,28.1,16,28.1S3.9,22.7,3.9,16S9.3,3.9,16,3.9 M16,3C8.8,3,3,8.8,3,16
			s5.8,13,13,13s13-5.8,13-13S23.2,3,16,3L16,3z"/>
	</g>
	<g>
		<path class="st6" d="M16,3c7.2,0,13,5.8,13,13s-5.8,13-13,13S3,23.2,3,16S8.8,3,16,3 M16,2C8.3,2,2,8.3,2,16s6.3,14,14,14
			s14-6.3,14-14S23.7,2,16,2L16,2z"/>
	</g>
</g>
<g id="shortcut_overlay" class="st7">
	<g id="Shortcut" class="st8">
	</g>
</g>
</svg>
