<?xml version="1.0" encoding="utf-8"?>
<!-- Generator: Adobe Illustrator 19.2.1, SVG Export Plug-In . SVG Version: 6.00 Build 0)  -->
<svg version="1.1" id="Layer_1" xmlns="http://www.w3.org/2000/svg" xmlns:xlink="http://www.w3.org/1999/xlink" x="0px" y="0px"
	 viewBox="0 0 32 32" style="enable-background:new 0 0 32 32;" xml:space="preserve">
<style type="text/css">
	.st0{fill:#9AB3C2;}
	.st1{fill:#FFFFFF;}
	.st2{fill:#627783;}
	.st3{fill:#3B4E56;}
	.st4{display:none;}
	.st5{display:inline;}
</style>
<g id="Layer_1_1_">
	<g id="Ppt">
	</g>
	<g id="Small_Folder">
	</g>
	<g id="fave_icon_-_selected">
	</g>
	<g id="Shortcut_1_">
	</g>
	<g id="comment_icon_-_selected">
	</g>
	<g id="Comment_icon">
	</g>
	<g>
		<g>
			<path class="st0" d="M7,31.5c-1.9,0-3.5-1.6-3.5-3.5V4c0-1.9,1.6-3.5,3.5-3.5h15.2l6.3,6.3V28c0,1.9-1.6,3.5-3.5,3.5H7z"/>
			<path class="st1" d="M22,1l6,6v21c0,1.7-1.3,3-3,3H7c-1.7,0-3-1.3-3-3V4c0-1.7,1.3-3,3-3H22 M22.4,0H22H7C4.8,0,3,1.8,3,4v24
				c0,2.2,1.8,4,4,4h18c2.2,0,4-1.8,4-4V7V6.6l-0.3-0.3l-6-6L22.4,0L22.4,0z"/>
		</g>
	</g>
	<polygon class="st2" points="22,1 22,7 28,7 	"/>
	<g>
		<path class="st1" d="M23.5,14h-15C8.2,14,8,13.8,8,13.5S8.2,13,8.5,13h15c0.3,0,0.5,0.2,0.5,0.5S23.8,14,23.5,14z"/>
		<path class="st1" d="M23.5,10h-15C8.2,10,8,9.8,8,9.5S8.2,9,8.5,9h15C23.8,9,24,9.2,24,9.5S23.8,10,23.5,10z"/>
		<path class="st1" d="M18.5,18h-10C8.2,18,8,17.8,8,17.5S8.2,17,8.5,17h10c0.3,0,0.5,0.2,0.5,0.5S18.8,18,18.5,18z"/>
	</g>
	<rect x="8" y="21" class="st3" width="1" height="6"/>
	<rect x="10" y="21" class="st3" width="4" height="6"/>
	<rect x="15" y="21" class="st3" width="1" height="6"/>
	<rect x="23" y="21" class="st3" width="1" height="6"/>
	<rect x="17" y="21" class="st3" width="1" height="6"/>
	<rect x="19" y="21" class="st3" width="3" height="6"/>
</g>
<g id="shortcut_overlay" class="st4">
	<g id="Shortcut" class="st5">
	</g>
</g>
</svg>
