<?xml version="1.0" encoding="utf-8"?>
<!-- Generator: Adobe Illustrator 19.2.1, SVG Export Plug-In . SVG Version: 6.00 Build 0)  -->
<svg version="1.1" id="Layer_1" xmlns="http://www.w3.org/2000/svg" xmlns:xlink="http://www.w3.org/1999/xlink" x="0px" y="0px"
	 viewBox="0 0 32 32" style="enable-background:new 0 0 32 32;" xml:space="preserve">
<style type="text/css">
	.st0{fill:#3C5666;}
	.st1{fill:#FFFFFF;}
	.st2{fill:#798B93;}
	.st3{fill:#627784;}
	.st4{fill:#DFE7EA;}
	.st5{display:none;}
	.st6{display:inline;}
</style>
<g id="Layer_1_1_">
	<g id="Ppt">
	</g>
	<g id="Small_Folder">
	</g>
	<g id="fave_icon_-_selected">
	</g>
	<g id="Shortcut_1_">
	</g>
	<g id="comment_icon_-_selected">
	</g>
	<g id="Comment_icon">
	</g>
	<g>
		<g>
			<path class="st0" d="M1.5,27.5v-21c0-1.1,0.9-2,2-2h7.9c0.5,0,0.9,0.2,1.3,0.5l3.7,3.2c0.3,0.2,0.4,0.3,0.6,0.3h10.5
				c1.1,0,2,0.9,2,2v17H1.5z"/>
			<g>
				<path class="st1" d="M11.4,5c0.4,0,0.7,0.1,1,0.4l3.6,3.2C16.3,8.8,16.6,9,17,9h10.5c0.8,0,1.5,0.7,1.5,1.5V27H2V6.5
					C2,5.7,2.7,5,3.5,5H11.4 M11.4,4H3.5C2.1,4,1,5.1,1,6.5V27v1h1h27h1v-1V10.5C30,9.1,28.9,8,27.5,8H17c0,0-0.1,0-0.3-0.2
					l-3.6-3.2l0,0l0,0C12.6,4.2,12,4,11.4,4L11.4,4z"/>
			</g>
		</g>
	</g>
	<g>
		<path class="st2" d="M3,26h25V12c0-0.6-0.4-1-1-1H4c-0.6,0-1,0.4-1,1V26z"/>
	</g>
	<g>
		<polygon class="st3" points="3,26 28,26 28,13 		"/>
	</g>
	<rect x="10" y="19" class="st4" width="1" height="6"/>
	<rect x="12" y="19" class="st4" width="2" height="6"/>
	<rect x="15" y="19" class="st4" width="1" height="6"/>
	<rect x="17" y="19" class="st4" width="1" height="6"/>
	<rect x="19" y="19" class="st4" width="1" height="6"/>
	<rect x="21" y="19" class="st4" width="5" height="6"/>
</g>
<g id="shortcut_overlay" class="st5">
	<g id="Shortcut" class="st6">
	</g>
</g>
</svg>
