<?xml version="1.0" encoding="utf-8"?>
<!-- Generator: Adobe Illustrator 19.2.1, SVG Export Plug-In . SVG Version: 6.00 Build 0)  -->
<svg version="1.1" id="Layer_1" xmlns="http://www.w3.org/2000/svg" xmlns:xlink="http://www.w3.org/1999/xlink" x="0px" y="0px"
	 viewBox="0 0 32 32" style="enable-background:new 0 0 32 32;" xml:space="preserve">
<style type="text/css">
	.st0{fill:#BAC9CE;}
	.st1{fill:#627783;}
	.st2{fill:#DFE7EA;}
	.st3{fill:#7B9AB0;}
	.st4{fill:#EEB111;}
	.st5{fill:#8B5E3C;}
	.st6{fill:#E08E18;}
	.st7{fill:#FDE89A;}
	.st8{fill:#FFFFFF;}
	.st9{display:none;}
	.st10{display:inline;}
</style>
<g id="Layer_1_1_">
	<g>
		<g>
			<g>
				<path class="st0" d="M5.5,10.8V4.5c0-1.7,1.3-3,3-3h12.7l5.3,5.3v4H5.5z"/>
				<path class="st1" d="M21,2l5,5v3.3H6V4.5C6,3.1,7.1,2,8.5,2H21 M21.4,1H21H8.5C6.6,1,5,2.6,5,4.5v5.8v1h1h20h1v-1V7V6.6
					l-0.3-0.3l-5-5L21.4,1L21.4,1z"/>
			</g>
		</g>
	</g>
	<g id="Ppt">
	</g>
	<g id="Small_Folder">
	</g>
	<g id="fave_icon_-_selected">
	</g>
	<g id="Shortcut_1_">
	</g>
	<g>
		<g>
			<g>
				<path class="st0" d="M5.5,18.5v-11c0-1.7,1.3-3,3-3h12.7l5.3,5.3v8.7H5.5z"/>
				<path class="st1" d="M21,5l5,5v8H6V7.5C6,6.1,7.1,5,8.5,5H21 M21.4,4H21H8.5C6.6,4,5,5.6,5,7.5V18v1h1h20h1v-1v-8V9.6l-0.3-0.3
					l-5-5L21.4,4L21.4,4z"/>
			</g>
		</g>
	</g>
	<g>
		<g>
			<g>
				<path class="st2" d="M5.5,19.5v-9c0-1.7,1.3-3,3-3h12.7l5.3,5.3v6.7H5.5z"/>
				<path class="st1" d="M21,8l5,5v6H6v-8.5C6,9.1,7.1,8,8.5,8H21 M21.4,7H21H8.5C6.6,7,5,8.6,5,10.5V19v1h1h20h1v-1v-6v-0.4
					l-0.3-0.3l-5-5L21.4,7L21.4,7z"/>
			</g>
		</g>
		<polygon class="st3" points="21,8 21,13 26,13 		"/>
	</g>
	<g id="comment_icon_-_selected">
	</g>
	<g id="Comment_icon">
	</g>
	<g>
		<path class="st4" d="M3,30.5c-0.8,0-1.5-0.7-1.5-1.5V19c0-0.8,0.7-1.5,1.5-1.5h26c0.8,0,1.5,0.7,1.5,1.5v10c0,0.8-0.7,1.5-1.5,1.5
			H3z"/>
		<g>
			<path class="st5" d="M29,18c0.6,0,1,0.4,1,1v10c0,0.6-0.4,1-1,1H3c-0.6,0-1-0.4-1-1V19c0-0.6,0.4-1,1-1H29 M29,17H3
				c-1.1,0-2,0.9-2,2v10c0,1.1,0.9,2,2,2h26c1.1,0,2-0.9,2-2V19C31,17.9,30.1,17,29,17L29,17z"/>
		</g>
	</g>
	<path class="st6" d="M18.5,23h-5c-0.6,0-1-0.5-1-1l0,0c0-0.5,0.4-1,1-1h5c0.5,0,1,0.5,1,1l0,0C19.5,22.5,19,23,18.5,23z"/>
	<path class="st7" d="M18.5,22h-5c-0.6,0-1-0.5-1-1l0,0c0-0.5,0.4-1,1-1h5c0.5,0,1,0.5,1,1l0,0C19.5,21.5,19,22,18.5,22z"/>
	<g>
		<path class="st8" d="M21.4,1l0.3,0.3l5,5L27,6.6V7v2.6V10v0.3v1v1.3V13v4h2c1.1,0,2,0.9,2,2v10c0,1.1-0.9,2-2,2H3
			c-1.1,0-2-0.9-2-2V19c0-1.1,0.9-2,2-2h2v-5.7v-0.8v-0.2V7.5v-3C5,2.6,6.6,1,8.5,1H21H21.4 M21.8,0h-0.4H21H8.5C6,0,4,2,4,4.5v3
			v2.8v0.2v0.8V16H3c-1.7,0-3,1.3-3,3v10c0,1.7,1.3,3,3,3h26c1.7,0,3-1.3,3-3V19c0-1.7-1.3-3-3-3h-1v-3v-0.4v-1.3v-1V10V9.6V7V6.6
			V6.2l-0.3-0.3l-0.3-0.3l-5-5l-0.3-0.3L21.8,0L21.8,0z"/>
	</g>
</g>
<g id="shortcut_overlay" class="st9">
	<g id="Shortcut" class="st10">
	</g>
</g>
</svg>
