<?xml version="1.0" encoding="utf-8"?>
<!-- Generator: Adobe Illustrator 19.2.1, SVG Export Plug-In . SVG Version: 6.00 Build 0)  -->
<svg version="1.1" id="Layer_1" xmlns="http://www.w3.org/2000/svg" xmlns:xlink="http://www.w3.org/1999/xlink" x="0px" y="0px"
	 viewBox="0 0 32 32" style="enable-background:new 0 0 32 32;" xml:space="preserve">
<style type="text/css">
	.st0{fill:#FFFFFF;}
	.st1{fill:#3C5666;}
	.st2{fill:#7B9AB0;}
	.st3{display:none;}
	.st4{display:inline;}
</style>
<g id="Layer_1_1_">
	<g id="Ppt">
	</g>
	<g id="Small_Folder">
	</g>
	<g id="fave_icon_-_selected">
	</g>
	<g id="Shortcut_1_">
	</g>
	<g id="comment_icon_-_selected">
	</g>
	<g id="Comment_icon">
	</g>
	<g>
		<path class="st0" d="M6,31.5c-3,0-5.5-2.5-5.5-5.5V3c0-1.4,1.1-2.5,2.5-2.5h16c1.4,0,2.5,1.1,2.5,2.5v8.5H30
			c0.8,0,1.5,0.7,1.5,1.5v13c0,3-2.5,5.5-5.5,5.5H6z"/>
		<path class="st0" d="M19,1c1.1,0,2,0.9,2,2v9h9c0.6,0,1,0.4,1,1v13c0,2.8-2.2,5-5,5h-3c-3.8,0-9,0-9,0H9H6c-2.8,0-5-2.2-5-5V3
			c0-1.1,0.9-2,2-2H19 M19,0H3C1.3,0,0,1.3,0,3v23c0,3.3,2.7,6,6,6h3h5h9h3c3.3,0,6-2.7,6-6V13c0-1.1-0.9-2-2-2h-8V3
			C22,1.3,20.7,0,19,0L19,0z"/>
	</g>
	<path class="st1" d="M30,12v1c0,0.6-0.4,1-1,1s-1-0.4-1-1v-1H15c-0.6,0-1,0.4-1,1v13c0,2.8-2.2,5-5,5h5c0,0,5.2,0,9,0h3
		c2.8,0,5-2.2,5-5V13C31,12.4,30.6,12,30,12z M28.5,28.6c-0.2,0.2-0.5,0.4-0.9,0.3c-0.5-0.1-0.9-0.6-0.8-1.1c0-0.2,0.1-0.3,0.2-0.4
		c0.2-0.3,0.4-0.7,0.4-0.7c0.2-0.4,0.6-0.7,1.1-0.6c0.5,0.1,0.9,0.6,0.8,1.1C29.2,28,28.5,28.6,28.5,28.6z M30,23c0,0.6-0.4,1-1,1
		s-1-0.4-1-1v-1c0-0.6,0.4-1,1-1s1,0.4,1,1V23z M30,18c0,0.6-0.4,1-1,1s-1-0.4-1-1v-1c0-0.6,0.4-1,1-1s1,0.4,1,1V18z"/>
	<g>
		<path class="st2" d="M21,26V3c0-1.1-0.9-2-2-2H3C1.9,1,1,1.9,1,3v23c0,2.8,2.2,5,5,5h20C23.2,31,21,28.8,21,26z"/>
	</g>
	<g>
		<g>
			<path class="st2" d="M17.5,22h-13C4.2,22,4,21.8,4,21.5S4.2,21,4.5,21h13c0.3,0,0.5,0.2,0.5,0.5S17.8,22,17.5,22z"/>
			<path class="st2" d="M17.5,18h-13C4.2,18,4,17.8,4,17.5S4.2,17,4.5,17h13c0.3,0,0.5,0.2,0.5,0.5S17.8,18,17.5,18z"/>
			<path class="st2" d="M14.5,26h-10C4.2,26,4,25.8,4,25.5S4.2,25,4.5,25h10c0.3,0,0.5,0.2,0.5,0.5S14.8,26,14.5,26z"/>
		</g>
		<path class="st2" d="M17.1,14H4.9C4.4,14,4,13.6,4,13.1V5.9C4,5.4,4.4,5,4.9,5h12.2C17.6,5,18,5.4,18,5.9v7.2
			C18,13.6,17.6,14,17.1,14z"/>
	</g>
	<g>
		<g>
			<path class="st0" d="M17.5,21h-13C4.2,21,4,20.8,4,20.5S4.2,20,4.5,20h13c0.3,0,0.5,0.2,0.5,0.5S17.8,21,17.5,21z"/>
			<path class="st0" d="M17.5,17h-13C4.2,17,4,16.8,4,16.5S4.2,16,4.5,16h13c0.3,0,0.5,0.2,0.5,0.5S17.8,17,17.5,17z"/>
			<path class="st0" d="M14.5,25h-10C4.2,25,4,24.8,4,24.5S4.2,24,4.5,24h10c0.3,0,0.5,0.2,0.5,0.5S14.8,25,14.5,25z"/>
		</g>
		<path class="st0" d="M17.1,13H4.9C4.4,13,4,12.6,4,12.1V4.9C4,4.4,4.4,4,4.9,4h12.2C17.6,4,18,4.4,18,4.9v7.2
			C18,12.6,17.6,13,17.1,13z"/>
	</g>
</g>
<g id="shortcut_overlay" class="st3">
	<g id="Shortcut" class="st4">
	</g>
</g>
</svg>
