<?xml version="1.0" encoding="utf-8"?>
<!-- Generator: Adobe Illustrator 19.2.1, SVG Export Plug-In . SVG Version: 6.00 Build 0)  -->
<svg version="1.1" id="Layer_1" xmlns="http://www.w3.org/2000/svg" xmlns:xlink="http://www.w3.org/1999/xlink" x="0px" y="0px"
	 viewBox="0 0 32 32" style="enable-background:new 0 0 32 32;" xml:space="preserve">
<style type="text/css">
	.st0{fill:#344A54;}
	.st1{fill:#FFFFFF;}
	.st2{fill:#6F8084;}
	.st3{clip-path:url(#SVGID_2_);}
	.st4{fill:#DFE7EA;}
	.st5{fill:#231F20;}
	.st6{clip-path:url(#SVGID_4_);}
	.st7{display:none;}
	.st8{display:inline;}
</style>
<g id="Layer_1_1_">
	<g id="Ppt">
	</g>
	<g id="Small_Folder">
	</g>
	<g id="fave_icon_-_selected">
	</g>
	<g id="Shortcut_1_">
	</g>
	<g id="comment_icon_-_selected">
	</g>
	<g id="Comment_icon">
	</g>
	<g>
		<path class="st0" d="M2,25.5c-0.8,0-1.5-0.7-1.5-1.5V5.5h31V24c0,0.8-0.7,1.5-1.5,1.5H2z"/>
		<g>
			<path class="st1" d="M31,6v18c0,0.6-0.4,1-1,1H2c-0.6,0-1-0.4-1-1V6H31 M32,5h-1H1H0v1v18c0,1.1,0.9,2,2,2h28c1.1,0,2-0.9,2-2V6
				V5L32,5z"/>
		</g>
	</g>
	<g>
		<path class="st2" d="M30,23H2c-0.6,0-1-0.4-1-1V6h30v16C31,22.6,30.6,23,30,23z"/>
	</g>
	<g>
		<g>
			<defs>
				<rect id="SVGID_1_" x="23" y="11" width="8" height="8"/>
			</defs>
			<clipPath id="SVGID_2_">
				<use xlink:href="#SVGID_1_"  style="overflow:visible;"/>
			</clipPath>
			<g class="st3">
				<circle class="st4" cx="23" cy="15" r="7"/>
				<circle class="st5" cx="23" cy="15" r="4"/>
				<circle class="st1" cx="23" cy="15" r="2"/>
			</g>
		</g>
	</g>
	<g>
		<g>
			<defs>
				<rect id="SVGID_3_" x="1" y="11" width="8" height="8"/>
			</defs>
			<clipPath id="SVGID_4_">
				<use xlink:href="#SVGID_3_"  style="overflow:visible;"/>
			</clipPath>
			<g class="st6">
				<circle class="st4" cx="9" cy="15" r="7"/>
				<circle class="st5" cx="9" cy="15" r="5"/>
				<circle class="st1" cx="9" cy="15" r="2"/>
			</g>
		</g>
	</g>
	<path class="st1" d="M21,19H11c-0.6,0-1-0.4-1-1v-6c0-0.6,0.4-1,1-1h10c0.6,0,1,0.4,1,1v6C22,18.6,21.6,19,21,19z"/>
	<g>
		<rect x="1" y="6" class="st0" width="30" height="1"/>
		<rect x="1" y="6" class="st0" width="1" height="3"/>
		<rect x="30" y="6" class="st0" width="1" height="3"/>
	</g>
</g>
<g id="shortcut_overlay" class="st7">
	<g id="Shortcut" class="st8">
	</g>
</g>
</svg>
