<?xml version="1.0" encoding="utf-8"?>
<!-- Generator: Adobe Illustrator 18.1.1, SVG Export Plug-In . SVG Version: 6.00 Build 0)  -->
<svg version="1.1" id="Layer_1" xmlns="http://www.w3.org/2000/svg" xmlns:xlink="http://www.w3.org/1999/xlink" x="0px" y="0px"
	 viewBox="0 0 24 24" enable-background="new 0 0 24 24" xml:space="preserve">
<g>
	<g>
		<path fill="#333333" d="M12.4274,20.6887h-0.0241c-4.102-0.0473-7.3925-1.462-10.0594-4.3236
			c-1.0179-1.0927-1.7229-2.194-2.1552-3.3677c-0.249-0.6766-0.2514-1.3313-0.0076-2.0003C0.6053,9.8315,1.3192,8.7156,2.3637,7.586
			C4.338,5.4512,6.6655,4.1099,9.2813,3.5981c4.7842-0.9351,8.9714,0.42,12.385,4.0092c0.8617,0.9057,1.552,1.9416,2.0529,3.0793
			c0.392,0.8939,0.374,1.7873-0.0568,2.7309c-0.6875,1.5065-1.73,2.8483-3.1882,4.102c-1.7688,1.5207-3.7876,2.5008-6.0005,2.9127
			c-0.57,0.1051-1.1344,0.1619-1.5889,0.2083L12.4274,20.6887z M12.1603,4.036c-0.8816,0-1.8034,0.0928-2.7399,0.276
			c-2.461,0.481-4.6555,1.7485-6.5227,3.7673c-0.9914,1.0724-1.6372,2.0789-2.033,3.1669
			c-0.1828,0.5009-0.1809,0.9914,0.0066,1.5004c0.3977,1.0809,1.0534,2.1026,2.0046,3.1224
			c2.5188,2.7034,5.6303,4.0423,9.5121,4.0925c0.1217-0.0142,0.2647-0.0294,0.4237-0.0455
			c0.4403-0.0436,0.9895-0.0994,1.5293-0.1998c2.0851-0.3873,3.9893-1.3124,5.6596-2.7479c1.3759-1.1836,2.3578-2.444,3.0007-3.853
			c0.3437-0.7547,0.3608-1.4331,0.0511-2.1362c-0.4659-1.0605-1.1098-2.0264-1.9127-2.871
			C18.569,5.4062,15.5484,4.036,12.1603,4.036z"/>
	</g>
	<g>
		<circle fill="#333333" cx="12.0003" cy="11.9987" r="4.812"/>
	</g>
</g>
</svg>
