<?xml version="1.0" encoding="utf-8"?>
<!-- Generator: Adobe Illustrator 19.0.0, SVG Export Plug-In . SVG Version: 6.00 Build 0)  -->
<svg version="1.1" id="Layer_1" xmlns="http://www.w3.org/2000/svg" xmlns:xlink="http://www.w3.org/1999/xlink" x="0px" y="0px"
	 viewBox="0 0 24 24" enable-background="new 0 0 24 24" xml:space="preserve">
<path id="XMLID_114_" fill="#FFFFFF" d="M23.7192,10.6866c-0.5009-1.1378-1.1912-2.1736-2.0529-3.0793
	c-3.4136-3.5892-7.6008-4.9443-12.385-4.0092C6.6655,4.1099,4.338,5.4512,2.3637,7.586c-1.0445,1.1296-1.7584,2.2455-2.1826,3.4111
	c-0.2438,0.669-0.2415,1.3237,0.0076,2.0003c0.4323,1.1737,1.1373,2.275,2.1552,3.3677c2.6669,2.8616,5.9574,4.2763,10.0594,4.3236
	h0.0241l0.4574-0.0482c0.4545-0.0464,1.0189-0.1032,1.5889-0.2083c2.213-0.4119,4.2318-1.392,6.0006-2.9127
	c1.4582-1.2537,2.5007-2.5955,3.1882-4.102C24.0932,12.4739,24.1112,11.5805,23.7192,10.6866z M12.0003,16.8107
	c-2.6576,0-4.812-2.1544-4.812-4.812s2.1544-4.812,4.812-4.812s4.812,2.1544,4.812,4.812S14.6579,16.8107,12.0003,16.8107z"/>
</svg>
