<?xml version="1.0" encoding="utf-8"?>
<!-- Generator: Adobe Illustrator 19.1.0, SVG Export Plug-In . SVG Version: 6.00 Build 0)  -->
<!DOCTYPE svg PUBLIC "-//W3C//DTD SVG 1.1//EN" "http://www.w3.org/Graphics/SVG/1.1/DTD/svg11.dtd">
<svg version="1.1" id="Layer_1" xmlns="http://www.w3.org/2000/svg" xmlns:xlink="http://www.w3.org/1999/xlink" x="0px" y="0px"
	 viewBox="0 0 24 24" enable-background="new 0 0 24 24" xml:space="preserve">
<g id="Xls_icon_2">
	<g>
		<g>
			<path fill="#0072AA" d="M19.478,6.912h-0.75V2.46c0-0.611-0.498-1.109-1.109-1.109H6.383c-0.611,0-1.109,0.498-1.109,1.109v4.452
				h-0.75V2.46c0-1.025,0.834-1.859,1.859-1.859h11.236c1.025,0,1.859,0.834,1.859,1.859V6.912z"/>
		</g>
		<g>
			<g>
				<path fill="#FFFFFF" d="M17.777,14.225c0,0,0.186,8.799,1.49,8.799s-16.206,0-14.483,0c1.722,0,1.484-8.799,1.484-8.799H17.777z
					"/>
				<path fill="#0072AA" d="M19.337,23.399H4.665c-0.207,0-0.375-0.168-0.375-0.375s0.168-0.375,0.375-0.375h0.12
					c0.016,0,0.065,0,0.146-0.084c0.842-0.864,1.037-5.568,0.962-8.331c-0.002-0.101,0.036-0.199,0.106-0.271
					c0.07-0.072,0.167-0.113,0.269-0.113h11.509c0.204,0,0.37,0.163,0.375,0.367c0.091,4.26,0.609,8.102,1.136,8.433h0.049
					c0.207,0,0.375,0.168,0.375,0.375c0,0.187-0.137,0.342-0.315,0.37C19.378,23.397,19.358,23.399,19.337,23.399
					C19.338,23.399,19.338,23.399,19.337,23.399z M5.768,22.649h12.711c-0.732-1.488-0.989-4.941-1.068-8.05H6.651
					C6.675,16.096,6.676,20.864,5.768,22.649z"/>
			</g>
		</g>
		<path fill="#0072AA" d="M21.859,6.536H2.142c-1.025,0-1.859,0.834-1.859,1.859v8.237c0,1.025,0.834,1.859,1.859,1.859h3.662
			c-0.131,1.887-0.4,3.588-0.874,4.074c-0.082,0.084-0.13,0.084-0.146,0.084h-0.12c-0.207,0-0.375,0.168-0.375,0.375
			s0.168,0.375,0.375,0.375h14.672c0.001,0,0.001,0,0.001,0c0.021,0,0.04-0.002,0.059-0.005c0.179-0.028,0.315-0.184,0.315-0.37
			c0-0.207-0.168-0.375-0.375-0.375h-0.049c-0.338-0.212-0.671-1.873-0.892-4.158h3.463c1.025,0,1.859-0.834,1.859-1.859V8.395
			C23.719,7.37,22.885,6.536,21.859,6.536z M5.768,22.649c0.908-1.785,0.907-6.554,0.883-8.05h10.76
			c0.079,3.108,0.336,6.562,1.068,8.05H5.768z M22.969,16.632c0,0.611-0.498,1.109-1.109,1.109h-3.529
			c-0.088-1.09-0.151-2.288-0.178-3.524c-0.005-0.204-0.171-0.367-0.375-0.367H6.269c-0.101,0-0.198,0.041-0.269,0.113
			c-0.071,0.072-0.109,0.171-0.106,0.271c0.027,1.005,0.018,2.266-0.044,3.507H2.144c-0.611,0-1.109-0.498-1.109-1.109V8.395
			c0-0.611,0.498-1.109,1.109-1.109h19.717c0.611,0,1.109,0.498,1.109,1.109v8.237H22.969z"/>
		<path fill="#0072AA" d="M19.325,10.569c0,0.397-0.322,0.718-0.718,0.718c-0.397,0-0.718-0.322-0.718-0.718
			c0-0.397,0.322-0.718,0.718-0.718C19.004,9.851,19.325,10.172,19.325,10.569z"/>
	</g>
</g>
</svg>
