<?xml version="1.0" encoding="utf-8"?>
<!-- Generator: Adobe Illustrator 19.1.0, SVG Export Plug-In . SVG Version: 6.00 Build 0)  -->
<!DOCTYPE svg PUBLIC "-//W3C//DTD SVG 1.1//EN" "http://www.w3.org/Graphics/SVG/1.1/DTD/svg11.dtd">
<svg version="1.1" id="Layer_1" xmlns="http://www.w3.org/2000/svg" xmlns:xlink="http://www.w3.org/1999/xlink" x="0px" y="0px"
	 viewBox="4 -4 32 32" enable-background="new 4 -4 32 32" xml:space="preserve">
<g>
	<g id="Layer_3_3_">
		<g>
			<g>
				<path fill="#00A389" d="M24.624,18.375v-2.042c0-0.482,0.393-0.875,0.875-0.875h7c0.482,0,0.875,0.393,0.875,0.875v2.042H24.624
					z"/>
				<g>
					<path fill="#FFFFFF" d="M32.499,15.75c0.322,0,0.583,0.261,0.583,0.583v1.75h-8.167v-1.75c0-0.322,0.261-0.583,0.583-0.583
						H32.499 M32.499,15.167h-7c-0.643,0-1.167,0.523-1.167,1.167v1.75v0.583h0.583h8.167h0.583v-0.583v-1.75
						C33.666,15.69,33.142,15.167,32.499,15.167L32.499,15.167z"/>
				</g>
			</g>
			<g>
				<path fill="#00A389" stroke="#FFFFFF" stroke-width="0.5" stroke-miterlimit="10" d="M34.832,25.083H23.166
					c-0.645,0-1.167-0.522-1.167-1.167v-4.667c0-0.645,0.522-1.167,1.167-1.167h11.667c0.645,0,1.167,0.522,1.167,1.167v4.667
					C35.999,24.561,35.477,25.083,34.832,25.083z"/>
			</g>
			<g>
				<path fill="#00A389" d="M25.499,27.708c-0.482,0-0.875-0.393-0.875-0.875v-4.958h8.75v4.958c0,0.482-0.393,0.875-0.875,0.875
					C32.499,27.708,25.499,27.708,25.499,27.708z"/>
				<g>
					<path fill="#FFFFFF" d="M33.082,22.167v4.667c0,0.322-0.261,0.583-0.583,0.583h-7c-0.322,0-0.583-0.261-0.583-0.583v-4.667
						L33.082,22.167 M33.666,21.583h-0.583h-8.167h-0.583v0.583v4.667c0,0.643,0.523,1.167,1.167,1.167h7
						c0.643,0,1.167-0.523,1.167-1.167v-4.667L33.666,21.583L33.666,21.583z"/>
				</g>
			</g>
			<rect x="31.332" y="19.25" fill="#FFFFFF" width="1.75" height="0.583"/>
		</g>
	</g>
</g>
</svg>
