<?xml version="1.0" encoding="utf-8"?>
<!-- Generator: Adobe Illustrator 19.1.0, SVG Export Plug-In . SVG Version: 6.00 Build 0)  -->
<!DOCTYPE svg PUBLIC "-//W3C//DTD SVG 1.1//EN" "http://www.w3.org/Graphics/SVG/1.1/DTD/svg11.dtd">
<svg version="1.1" id="Layer_1" xmlns="http://www.w3.org/2000/svg" xmlns:xlink="http://www.w3.org/1999/xlink" x="0px" y="0px"
	 viewBox="-7 9 24 24" enable-background="new -7 9 24 24" xml:space="preserve">
<g id="metadata">
</g>
<g id="like_icon">
</g>
<g id="fave_icon">
</g>
<g id="fave_icon_-_selected">
</g>
<g id="comment_icon_-_selected">
</g>
<g id="Comment_icon">
</g>
<g id="fave_icon_-_selected_1_">
</g>
<g id="like_icon_-_selected">
</g>
<g id="copy_x2F_move_icon">
</g>
<g id="download_icon_2">
</g>
<g id="share_icon_2">
</g>
<g id="reserve_icon">
</g>
<g id="edit_icon">
	<g id="edit_icon_2">
	</g>
	<g id="trash_icon">
		<g id="trash">
		</g>
	</g>
	<g id="more_icon">
	</g>
</g>
<g id="metadata_2">
</g>
<path fill="#FFFFFF" d="M12,15H-2v-3c0-0.552,0.448-1,1-1h12c0.552,0,1,0.448,1,1V15z"/>
<path fill="#666666" d="M15,15h-2v-3c0-1.103-0.897-2-2-2H-1c-1.103,0-2,0.897-2,2v3h-2c-1.105,0-2,0.895-2,2v8c0,1.105,0.895,2,2,2
	h2v3c0,1.103,0.897,2,2,2h12c1.103,0,2-0.897,2-2v-3h2c1.105,0,2-0.895,2-2v-8C17,15.895,16.105,15,15,15z M-2,12
	c0-0.552,0.448-1,1-1h12c0.552,0,1,0.448,1,1v3H-2V12z M12,30c0,0.552-0.448,1-1,1H-1c-0.552,0-1-0.448-1-1v-3v-5h14v5V30z"/>
<rect x="9" y="17" fill="#FFFFFF" width="3" height="1"/>
<path fill="#CCCCCC" d="M9.5,25h-9C0.224,25,0,24.776,0,24.5S0.224,24,0.5,24h9c0.276,0,0.5,0.224,0.5,0.5S9.776,25,9.5,25z"/>
<path fill="#CCCCCC" d="M9.5,28h-9C0.224,28,0,27.776,0,27.5S0.224,27,0.5,27h9c0.276,0,0.5,0.224,0.5,0.5S9.776,28,9.5,28z"/>
</svg>
