<?xml version="1.0" encoding="utf-8"?>
<!-- Generator: Adobe Illustrator 19.1.0, SVG Export Plug-In . SVG Version: 6.00 Build 0)  -->
<svg version="1.1" id="Layer_1" xmlns="http://www.w3.org/2000/svg" xmlns:xlink="http://www.w3.org/1999/xlink" x="0px" y="0px"
	 viewBox="0 0 32 32" style="enable-background:new 0 0 32 32;" xml:space="preserve">
<style type="text/css">
	.st0{fill:#00A389;}
	.st1{fill:#FFFFFF;}
	.st2{fill:#00896D;}
</style>
<g>
	<g>
		<g>
			<g>
				<g>
					<path class="st0" d="M24.808,31.487H7.192c-2.158,0-4.241-1.737-4.241-3.872V4.385c0-2.135,2.083-3.872,4.241-3.872h15.332
						l6.524,6.453v20.649C29.048,29.75,26.966,31.487,24.808,31.487z"/>
					<path class="st1" d="M24.808,32H7.192c-2.532,0-4.754-2.049-4.754-4.385V4.385C2.438,2.049,4.66,0,7.192,0h15.543l6.827,6.752
						v20.863C29.562,29.951,27.34,32,24.808,32z M7.192,1.027c-1.951,0-3.727,1.601-3.727,3.358v23.23
						c0,1.757,1.776,3.358,3.727,3.358h17.616c1.951,0,3.727-1.601,3.727-3.358V7.18l-6.221-6.153H7.192z"/>
				</g>
			</g>
		</g>
		<polygon class="st2" points="22.345,1.097 22.345,7.206 28.522,7.206 		"/>
	</g>
</g>
<g>
	<g>
		<path class="st2" d="M15.397,27.099l0.817-1.786l-2.238-1.035l3.141-6.795c2.2,0.36,4.446-0.766,5.428-2.881
			c1.168-2.547,0.059-5.571-2.488-6.739c-2.544-1.181-5.563-0.064-6.744,2.48c-0.977,2.123-0.375,4.554,1.326,5.993l-4.63,10.028
			l2.477,1.146l0.671-1.447L15.397,27.099z M17.136,14.194c-0.951-0.438-1.371-1.564-0.934-2.515c0.438-0.951,1.57-1.364,2.52-0.926
			c0.951,0.438,1.371,1.564,0.926,2.52C19.211,14.224,18.087,14.632,17.136,14.194z"/>
	</g>
</g>
<g>
	<g>
		<path class="st1" d="M15.077,26.495l0.817-1.786l-2.238-1.035l3.141-6.795c2.2,0.36,4.446-0.766,5.428-2.881
			c1.168-2.547,0.059-5.571-2.488-6.739c-2.544-1.181-5.563-0.064-6.744,2.48c-0.977,2.123-0.375,4.554,1.326,5.993L9.69,25.761
			l2.477,1.146l0.671-1.447L15.077,26.495z M16.817,13.59c-0.951-0.438-1.371-1.564-0.934-2.515c0.438-0.951,1.57-1.364,2.52-0.926
			c0.951,0.438,1.371,1.564,0.926,2.52C18.891,13.62,17.767,14.027,16.817,13.59z"/>
	</g>
</g>
</svg>
