<?xml version="1.0" encoding="utf-8"?>
<!-- Generator: Adobe Illustrator 19.1.0, SVG Export Plug-In . SVG Version: 6.00 Build 0)  -->
<svg version="1.1" id="Layer_1" xmlns="http://www.w3.org/2000/svg" xmlns:xlink="http://www.w3.org/1999/xlink" x="0px" y="0px"
	 viewBox="0 0 32 32" style="enable-background:new 0 0 32 32;" xml:space="preserve">
<style type="text/css">
	.st0{fill:#00A389;}
	.st1{fill:#FFFFFF;}
	.st2{fill:#00795A;}
	.st3{fill:none;}
	.st4{fill:#0072AA;stroke:#FFFFFF;stroke-miterlimit:10;}
</style>
<g>
	<g>
		<g>
			<g>
				<g>
					<g>
						<path class="st0" d="M24.338,31.487H6.723c-2.158,0-4.241-1.737-4.241-3.872V4.385c0-2.135,2.083-3.872,4.241-3.872h15.332
							l6.524,6.453v20.649C28.579,29.75,26.497,31.487,24.338,31.487z"/>
						<path class="st1" d="M24.339,32H6.723c-2.532,0-4.754-2.049-4.754-4.385V4.385C1.969,2.049,4.191,0,6.723,0h15.543
							l6.827,6.752v20.863C29.092,29.951,26.871,32,24.339,32z M6.723,1.027c-1.951,0-3.727,1.601-3.727,3.358v23.23
							c0,1.757,1.776,3.358,3.727,3.358h17.616c1.951,0,3.727-1.601,3.727-3.358V7.18l-6.221-6.153H6.723z"/>
					</g>
				</g>
			</g>
			<polygon class="st2" points="21.876,1.097 21.876,7.206 28.053,7.206 			"/>
		</g>
	</g>
	<g>
		<g>
			<path class="st3" d="M15.348,26.266c-0.312,0-0.681,0-1.089,0c0.413,0.049,0.831,0.082,1.258,0.082
				c0.427,0,0.845-0.032,1.258-0.082C16.227,26.266,15.738,26.266,15.348,26.266z"/>
			<path class="st1" d="M16.775,26.266c2.737-0.325,5.153-1.692,6.837-3.698c-0.022-0.012-0.042-0.029-0.065-0.04
				c0,0-4.623-1.525-4.869-2.017c-0.246-0.491-0.492-1.23-0.492-1.23s-0.102-0.718,0.147-1.082c0.115-0.167,0.541-2.212,0.59-2.459
				c0,0,0.315-0.251,0.442-0.885c0.234-1.156-0.147-1.181-0.295-1.23c0,0-0.068-2.256-0.256-3.043
				c-0.232-0.975-0.764-2.324-3.033-2.38c-0.985-0.024-2.204,0.255-2.491,0.384c-0.977,0.442-1.717,2.135-1.643,3.065
				c0.024,0.298,0.084,1.079,0.193,1.58c0.049,0.227,0.068,0.615,0.068,0.615s-0.074-0.148-0.264-0.173
				c-0.341-0.043-0.345,1.329,0.049,1.87c0.394,0.541,0.59,0.983,0.59,0.983s0.197,1.181,0.541,1.574c0.345,0.394,0,1.131,0,1.328
				c0,0.197-0.64,1.278-1.279,1.574c-0.418,0.193-2.477,0.837-3.934,1.775c1.674,1.889,4.008,3.174,6.646,3.488
				c0.408,0,0.778,0,1.089,0C15.738,26.266,16.227,26.266,16.775,26.266z"/>
		</g>
	</g>
	<circle class="st4" cx="23.531" cy="24.987" r="6.5"/>
	<path class="st1" d="M27.864,25.61v-1.245h-1.288c-0.083-0.394-0.241-0.76-0.458-1.084l0.917-0.917l-0.881-0.881l-0.924,0.924
		c-0.323-0.211-0.686-0.365-1.077-0.445v-1.308h-1.245v1.308c-0.391,0.079-0.754,0.233-1.077,0.445l-0.924-0.924l-0.881,0.881
		l0.917,0.917c-0.217,0.323-0.374,0.69-0.458,1.084h-1.288v1.245h1.278c0.078,0.401,0.233,0.773,0.448,1.103l-0.898,0.898
		l0.881,0.881l0.891-0.891c0.33,0.222,0.706,0.382,1.11,0.464v1.256h1.245v-1.256c0.404-0.082,0.779-0.242,1.11-0.464l0.891,0.891
		l0.881-0.881l-0.898-0.898c0.215-0.33,0.371-0.702,0.448-1.103H27.864z M23.531,26.881c-1.03,0-1.868-0.838-1.868-1.868
		c0-1.03,0.838-1.868,1.868-1.868c1.03,0,1.868,0.838,1.868,1.868C25.399,26.043,24.561,26.881,23.531,26.881z"/>
</g>
</svg>
