<?xml version="1.0" encoding="utf-8"?>
<!-- Generator: Adobe Illustrator 21.0.0, SVG Export Plug-In . SVG Version: 6.00 Build 0)  -->
<svg version="1.1" id="Layer_1" xmlns="http://www.w3.org/2000/svg" xmlns:xlink="http://www.w3.org/1999/xlink" x="0px" y="0px"
	 viewBox="0 0 48 48" style="enable-background:new 0 0 48 48;" xml:space="preserve">
<style type="text/css">
	.st0{fill:#8AC23F;}
	.st1{fill:#9BE728;}
	.st2{fill:#FFFFFF;}
</style>
<g id="Layer_7">
</g>
<g>
	<circle class="st0" cx="24" cy="24" r="24"/>
</g>
<g>
	<path class="st1" d="M19.307,32.399h-1.686h-0.362h-1.68v-1.68h3.292c0.053-0.205,0.105-0.41,0.176-0.65
		c0.41-1.386,1.36-2.428,2.825-3.099c0.395-0.181,0.808-0.318,1.221-0.438c-0.054-0.364-0.137-0.74-0.295-1.274
		c-0.213-0.719-0.708-1.248-1.514-1.618c-0.689-0.316-1.514-0.475-2.243-0.613c-0.602-0.115-1.172-0.224-1.57-0.403
		c-0.218-0.098-0.407-0.241-0.563-0.429c-0.086-0.103-0.164-0.222-0.232-0.353c0.348-0.286,0.648-0.63,0.901-1.032
		c0.348-0.553,0.604-1.215,0.766-1.978c0.166-0.047,0.329-0.175,0.464-0.369c0.153-0.215,0.266-0.502,0.321-0.81
		c0.081-0.447,0.03-0.874-0.134-1.157c0.014-0.059,0.029-0.117,0.04-0.179c0.076-0.383,0.102-0.827,0.076-1.32
		c-0.044-0.833-0.218-1.51-0.226-1.538c-0.18-0.713-0.715-1.429-1.468-1.965c-0.6-0.426-1.616-0.934-3.046-0.934
		c-1.431,0-2.443,0.509-3.043,0.935c-0.754,0.535-1.288,1.251-1.467,1.964c-0.01,0.036-0.184,0.709-0.23,1.539
		c-0.027,0.493-0.003,0.936,0.073,1.32c0.012,0.06,0.025,0.117,0.039,0.175c-0.166,0.283-0.216,0.711-0.136,1.161
		c0.056,0.308,0.171,0.597,0.323,0.812c0.137,0.193,0.3,0.321,0.467,0.368c0.163,0.762,0.419,1.424,0.767,1.977
		c0.254,0.404,0.555,0.749,0.905,1.034c-0.068,0.13-0.145,0.248-0.231,0.35c-0.156,0.186-0.346,0.331-0.563,0.429
		c-0.398,0.179-0.966,0.287-1.57,0.403c-0.729,0.14-1.555,0.297-2.243,0.613c-0.807,0.37-1.303,0.9-1.514,1.618
		c-0.292,0.99-0.336,1.437-0.395,2.278C5.52,27.673,5.5,27.811,5.5,27.956v0.893c0,0.013,0.004,0.026,0.004,0.039
		c0.021,1.011,0.85,1.831,1.865,1.831h4.85v1.68v1.68c0,0.928,0.752,1.68,1.68,1.68h1.68h1.68h0.425h1.767h9.567v-3.36H19.307z"/>
	<path class="st2" d="M42.448,33.461c-0.045-0.658-0.091-1.135-0.196-1.681c-0.069-0.356-0.158-0.736-0.306-1.237
		c-0.269-0.909-0.895-1.577-1.914-2.045c-0.869-0.4-1.912-0.599-2.833-0.775c-0.762-0.146-1.48-0.283-1.983-0.509
		c-0.274-0.123-0.514-0.305-0.711-0.541c-0.109-0.13-0.206-0.28-0.294-0.447c0.44-0.36,0.82-0.796,1.139-1.303
		c0.44-0.7,0.763-1.535,0.968-2.499c0.209-0.059,0.414-0.221,0.587-0.465c0.192-0.271,0.336-0.635,0.406-1.023
		c0.102-0.564,0.038-1.104-0.17-1.462c0.018-0.073,0.035-0.148,0.051-0.226c0.096-0.485,0.129-1.045,0.096-1.668
		c-0.055-1.053-0.276-1.908-0.284-1.942c-0.226-0.902-0.903-1.806-1.855-2.482c-0.758-0.539-2.041-1.18-3.847-1.18
		c-1.806,0-3.09,0.642-3.848,1.18c-0.951,0.676-1.627,1.58-1.854,2.482c-0.013,0.047-0.232,0.897-0.29,1.943
		c-0.034,0.622-0.003,1.183,0.093,1.668c0.016,0.075,0.031,0.148,0.049,0.221c-0.209,0.358-0.274,0.899-0.173,1.466
		c0.071,0.39,0.215,0.753,0.409,1.026c0.174,0.245,0.38,0.406,0.589,0.464c0.205,0.963,0.529,1.798,0.968,2.498
		c0.321,0.51,0.702,0.946,1.143,1.307c-0.086,0.164-0.184,0.312-0.291,0.442c-0.198,0.236-0.437,0.418-0.712,0.541
		c-0.502,0.225-1.221,0.363-1.983,0.509c-0.92,0.175-1.963,0.376-2.833,0.775c-1.019,0.468-1.645,1.136-1.914,2.045
		c-0.34,1.153-0.413,1.738-0.481,2.651c-0.006,0.078-0.012,0.143-0.018,0.227c-0.04,0.171-0.065,0.346-0.065,0.529v1.128
		c0,0.017,0.004,0.032,0.006,0.048c0.007,0.318,0.077,0.622,0.199,0.898c0.366,0.831,1.195,1.415,2.158,1.415h8.728h8.955
		c1.299,0,2.362-1.063,2.362-2.362v-0.872v-0.256C42.5,33.782,42.482,33.619,42.448,33.461z"/>
</g>
</svg>
