<?xml version="1.0" encoding="utf-8"?>
<!-- Generator: Adobe Illustrator 19.1.0, SVG Export Plug-In . SVG Version: 6.00 Build 0)  -->
<svg version="1.1" id="Layer_1" xmlns="http://www.w3.org/2000/svg" xmlns:xlink="http://www.w3.org/1999/xlink" x="0px" y="0px"
	 viewBox="0 0 24 24" style="enable-background:new 0 0 24 24;" xml:space="preserve">
<style type="text/css">
	.st0{fill:#06AF9A;}
	.st1{fill:#FFFFFF;}
	.st2{fill:#06896E;}
	.st3{fill:#333333;}
</style>
<g>
	<g>
		<g>
			<g>
				<g>
					<path class="st0" d="M4,23.625c-1.447,0-2.625-1.177-2.625-2.625V3c0-1.447,1.178-2.625,2.625-2.625h11.405l4.72,4.72V21
						c0,1.448-1.177,2.625-2.625,2.625H4z"/>
					<path class="st1" d="M15.25,0.75l4.5,4.5V21c0,1.243-1.007,2.25-2.25,2.25H4c-1.243,0-2.25-1.007-2.25-2.25V3
						c0-1.243,1.007-2.25,2.25-2.25H15.25 M15.56,0h-0.31H4C2.345,0,1,1.345,1,3v18c0,1.654,1.345,3,3,3h13.5c1.654,0,3-1.346,3-3
						V5.25V4.939l-0.22-0.22l-4.5-4.5L15.56,0L15.56,0z"/>
				</g>
			</g>
			<polygon class="st2" points="15.25,0.75 15.25,5.25 19.75,5.25 			"/>
		</g>
		<rect x="3.383" y="4.5" class="st1" width="9.992" height="0.75"/>
		<rect x="3.383" y="6.75" class="st1" width="14.343" height="0.75"/>
		<rect x="3.383" y="19.5" class="st1" width="14.343" height="0.75"/>
		<g>
			<g>
				<path class="st1" d="M3.383,9.54v7.593h7.593V9.54H3.383z M10.53,16.687H3.829V9.986h6.701V16.687z"/>
			</g>
			<g>
				<polygon class="st1" points="10.53,14.513 10.53,16.687 3.829,16.687 3.829,16.469 9.187,12.568 				"/>
			</g>
			<g>
				<path class="st1" d="M5.339,12.562c-0.505,0-0.916-0.411-0.916-0.916s0.411-0.916,0.916-0.916s0.916,0.411,0.916,0.916
					C6.255,12.151,5.844,12.562,5.339,12.562z"/>
			</g>
		</g>
	</g>
	<g>
		<circle class="st1" cx="15.218" cy="17.68" r="5.915"/>
		<path class="st3" d="M15.218,23.97c-3.469,0-6.291-2.822-6.291-6.29s2.822-6.29,6.291-6.29c3.468,0,6.29,2.822,6.29,6.29
			S18.686,23.97,15.218,23.97z M15.218,12.14c-3.055,0-5.541,2.485-5.541,5.54s2.486,5.54,5.541,5.54s5.54-2.485,5.54-5.54
			S18.273,12.14,15.218,12.14z"/>
	</g>
	<g>
		<circle class="st3" cx="9.952" cy="19.97" r="2.273"/>
		<path class="st1" d="M9.952,22.469c-1.379,0-2.5-1.121-2.5-2.5s1.121-2.5,2.5-2.5s2.5,1.121,2.5,2.5S11.331,22.469,9.952,22.469z
			 M9.952,17.924c-1.127,0-2.045,0.918-2.045,2.045s0.918,2.045,2.045,2.045s2.045-0.918,2.045-2.045S11.08,17.924,9.952,17.924z"/>
	</g>
	<g>
		<circle class="st3" cx="20.548" cy="19.97" r="2.273"/>
		<path class="st1" d="M20.548,22.469c-1.379,0-2.5-1.121-2.5-2.5s1.121-2.5,2.5-2.5s2.5,1.121,2.5,2.5S21.927,22.469,20.548,22.469
			z M20.548,17.924c-1.127,0-2.045,0.918-2.045,2.045s0.918,2.045,2.045,2.045c1.127,0,2.045-0.918,2.045-2.045
			S21.676,17.924,20.548,17.924z"/>
	</g>
	<g>
		<circle class="st3" cx="15.218" cy="12.197" r="2.273"/>
		<path class="st1" d="M15.218,14.697c-1.379,0-2.5-1.121-2.5-2.5s1.121-2.5,2.5-2.5s2.5,1.121,2.5,2.5S16.597,14.697,15.218,14.697
			z M15.218,10.151c-1.127,0-2.045,0.918-2.045,2.045s0.918,2.045,2.045,2.045s2.045-0.918,2.045-2.045S16.346,10.151,15.218,10.151
			z"/>
	</g>
</g>
</svg>
