<?xml version="1.0" encoding="utf-8"?>
<!-- Generator: Adobe Illustrator 19.1.0, SVG Export Plug-In . SVG Version: 6.00 Build 0)  -->
<svg version="1.1" id="Layer_1" xmlns="http://www.w3.org/2000/svg" xmlns:xlink="http://www.w3.org/1999/xlink" x="0px" y="0px"
	 viewBox="0 0 24 24" style="enable-background:new 0 0 24 24;" xml:space="preserve">
<style type="text/css">
	.st0{fill:#06AF9A;}
	.st1{fill:#FFFFFF;}
	.st2{fill:#06896E;}
	.st3{fill:#333333;}
	.st4{fill:#F15822;}
</style>
<g>
	<g>
		<g>
			<g>
				<g>
					<path class="st0" d="M4,23.625c-1.447,0-2.625-1.177-2.625-2.625V3c0-1.447,1.178-2.625,2.625-2.625h11.405l4.72,4.72V21
						c0,1.448-1.177,2.625-2.625,2.625H4z"/>
					<path class="st1" d="M15.25,0.75l4.5,4.5V21c0,1.243-1.007,2.25-2.25,2.25H4c-1.243,0-2.25-1.007-2.25-2.25V3
						c0-1.243,1.007-2.25,2.25-2.25H15.25 M15.56,0h-0.31H4C2.345,0,1,1.345,1,3v18c0,1.654,1.345,3,3,3h13.5c1.654,0,3-1.346,3-3
						V5.25V4.939l-0.22-0.22l-4.5-4.5L15.56,0L15.56,0z"/>
				</g>
			</g>
			<polygon class="st2" points="15.25,0.75 15.25,5.25 19.75,5.25 			"/>
		</g>
		<rect x="3.383" y="4.5" class="st1" width="9.992" height="0.75"/>
		<rect x="3.383" y="6.75" class="st1" width="14.343" height="0.75"/>
		<rect x="3.383" y="19.5" class="st1" width="14.343" height="0.75"/>
		<g>
			<g>
				<path class="st1" d="M3.383,9.54v7.593h7.593V9.54H3.383z M10.53,16.687H3.829V9.986h6.701V16.687z"/>
			</g>
			<g>
				<polygon class="st1" points="10.53,14.513 10.53,16.687 3.829,16.687 3.829,16.469 9.187,12.568 				"/>
			</g>
			<g>
				<path class="st1" d="M5.339,12.562c-0.505,0-0.916-0.411-0.916-0.916s0.411-0.916,0.916-0.916s0.916,0.411,0.916,0.916
					C6.255,12.151,5.844,12.562,5.339,12.562z"/>
			</g>
		</g>
	</g>
	<g>
		<circle class="st1" cx="15.738" cy="16.875" r="6.375"/>
		<path class="st3" d="M15.739,23.625c-3.722,0-6.75-3.028-6.75-6.75s3.028-6.75,6.75-6.75s6.75,3.028,6.75,6.75
			S19.461,23.625,15.739,23.625z M15.739,10.875c-3.308,0-6,2.692-6,6s2.692,6,6,6s6-2.692,6-6S19.047,10.875,15.739,10.875z"/>
	</g>
	<circle class="st4" cx="15.738" cy="16.875" r="2"/>
</g>
</svg>
