<?xml version="1.0" encoding="utf-8"?>
<!-- Generator: Adobe Illustrator 19.1.0, SVG Export Plug-In . SVG Version: 6.00 Build 0)  -->
<!DOCTYPE svg PUBLIC "-//W3C//DTD SVG 1.1//EN" "http://www.w3.org/Graphics/SVG/1.1/DTD/svg11.dtd">
<svg version="1.1" id="Layer_1" xmlns="http://www.w3.org/2000/svg" xmlns:xlink="http://www.w3.org/1999/xlink" x="0px" y="0px"
	 viewBox="-2 4 30 30" enable-background="new -2 4 30 30" xml:space="preserve">
<g>
	<path opacity="0.75" fill="#333333" enable-background="new    " d="M7,20.5c-4.136,0-7.5-3.364-7.5-7.5S2.864,5.5,7,5.5
		s7.5,3.364,7.5,7.5S11.136,20.5,7,20.5z"/>
	<path fill="#F7F7F7" d="M7,5c-4.418,0-8,3.582-8,8s3.582,8,8,8s8-3.582,8-8S11.418,5,7,5z M7,20c-1.75,0-3.349-0.65-4.577-1.716
		L9.5,11.207V16c0,0.276,0.224,0.5,0.5,0.5s0.5-0.224,0.5-0.5V9.5H4c-0.276,0-0.5,0.224-0.5,0.5s0.224,0.5,0.5,0.5h4.793
		l-7.077,7.077C0.65,16.349,0,14.75,0,13c0-3.86,3.14-7,7-7s7,3.14,7,7S10.86,20,7,20z"/>
</g>
</svg>
