<?xml version="1.0" encoding="utf-8"?>
<!-- Generator: Adobe Illustrator 19.2.1, SVG Export Plug-In . SVG Version: 6.00 Build 0)  -->
<svg version="1.1" id="Layer_1" xmlns="http://www.w3.org/2000/svg" xmlns:xlink="http://www.w3.org/1999/xlink" x="0px" y="0px"
	 viewBox="0 0 24 24" enable-background="new 0 0 24 24" xml:space="preserve">
<g id="metadata">
</g>
<g id="like_icon">
</g>
<g id="fave_icon">
</g>
<g id="fave_icon_-_selected">
	<path fill="#F9C511" d="M12.517,1.638l3.015,6.11c0.084,0.171,0.247,0.288,0.434,0.316l6.743,0.979
		c0.473,0.069,0.662,0.651,0.319,0.984l-4.879,4.755c-0.136,0.133-0.198,0.323-0.166,0.511l1.152,6.715
		c0.081,0.471-0.414,0.83-0.836,0.608l-6.03-3.171c-0.168-0.089-0.369-0.089-0.536,0l-6.03,3.171
		c-0.423,0.223-0.918-0.137-0.836-0.608l1.152-6.715c0.032-0.187-0.03-0.378-0.166-0.511l-4.879-4.755
		C0.629,9.693,0.818,9.112,1.291,9.042l6.743-0.979c0.188-0.028,0.351-0.145,0.434-0.316l3.015-6.11
		C11.695,1.21,12.306,1.21,12.517,1.638z"/>
</g>
<g id="comment_icon_-_selected">
</g>
<g id="Comment_icon">
</g>
<g id="fave_icon_-_selected_1_">
</g>
<g id="like_icon_-_selected">
</g>
<g id="like_icon_-_selected_1_">
</g>
</svg>
