<?xml version="1.0" encoding="utf-8"?>
<!-- Generator: Adobe Illustrator 19.1.0, SVG Export Plug-In . SVG Version: 6.00 Build 0)  -->
<svg version="1.1" id="Layer_1" xmlns="http://www.w3.org/2000/svg" xmlns:xlink="http://www.w3.org/1999/xlink" x="0px" y="0px"
	 viewBox="0 0 32 32" style="enable-background:new 0 0 32 32;" xml:space="preserve">
<style type="text/css">
	.st0{fill:#0072AA;}
	.st1{fill:#FFFFFF;}
	.st2{fill:#004B71;}
	.st3{fill:#00A389;}
</style>
<g>
	<g>
		<g>
			<g>
				<g>
					<g>
						<path class="st0" d="M25.09,31.487H7.475c-2.158,0-4.241-1.737-4.241-3.872V4.385c0-2.135,2.083-3.872,4.241-3.872h15.332
							l6.524,6.453v20.649C29.331,29.75,27.248,31.487,25.09,31.487z"/>
						<path class="st1" d="M25.09,32H7.475c-2.532,0-4.754-2.049-4.754-4.385V4.385C2.721,2.049,4.942,0,7.475,0h15.543l6.827,6.752
							v20.863C29.844,29.951,27.623,32,25.09,32z M7.475,1.027c-1.951,0-3.727,1.601-3.727,3.358v23.23
							c0,1.757,1.776,3.358,3.727,3.358H25.09c1.951,0,3.727-1.601,3.727-3.358V7.18l-6.221-6.153H7.475z"/>
					</g>
				</g>
			</g>
			<polygon class="st2" points="22.628,1.097 22.628,7.206 28.804,7.206 			"/>
		</g>
	</g>
	<g>
		<g>
			<g>
				<g>
					<path class="st1" d="M22.279,18.661v-3.405h-5.246v-1.882h2.993V7.694h-7.488v5.679h2.993v1.882h-5.246v3.405H7.282v5.679
						h7.498v-5.679h-2.993v-1.883h8.989v1.883h-2.993v5.679h7.498v-5.679H22.279z M14.03,19.423v4.156H8.033v-4.156H14.03z
						 M13.279,12.612V8.456h6.007v4.156H13.279z M24.532,23.579h-5.996v-4.156h5.996V23.579z"/>
				</g>
			</g>
		</g>
	</g>
	<g>
		<circle class="st3" cx="25.282" cy="25.487" r="6"/>
		<path class="st1" d="M25.282,31.987c-3.584,0-6.5-2.916-6.5-6.5s2.916-6.5,6.5-6.5s6.5,2.916,6.5,6.5S28.866,31.987,25.282,31.987
			z M25.282,19.987c-3.032,0-5.5,2.468-5.5,5.5s2.468,5.5,5.5,5.5s5.5-2.468,5.5-5.5S28.314,19.987,25.282,19.987z"/>
	</g>
	<path class="st1" d="M29.282,26.062v-1.15h-1.189c-0.077-0.364-0.222-0.702-0.423-1l0.847-0.847l-0.813-0.813l-0.853,0.853
		c-0.298-0.195-0.633-0.337-0.994-0.41v-1.208h-1.15v1.208c-0.361,0.073-0.696,0.215-0.994,0.41l-0.853-0.853l-0.813,0.813
		l0.847,0.847c-0.2,0.299-0.345,0.637-0.423,1h-1.189v1.15h1.18c0.072,0.37,0.215,0.714,0.414,1.019l-0.829,0.829l0.813,0.813
		l0.823-0.823c0.305,0.205,0.651,0.353,1.024,0.428v1.16h1.15v-1.16c0.373-0.076,0.719-0.224,1.024-0.428l0.823,0.823l0.813-0.813
		l-0.829-0.829c0.199-0.305,0.342-0.648,0.414-1.019H29.282z M25.282,27.235c-0.951,0-1.724-0.774-1.724-1.724
		c0-0.951,0.774-1.724,1.724-1.724s1.724,0.774,1.724,1.724C27.007,26.461,26.233,27.235,25.282,27.235z"/>
</g>
</svg>
