<?xml version="1.0" encoding="utf-8"?>
<!-- Generator: Adobe Illustrator 19.0.0, SVG Export Plug-In . SVG Version: 6.00 Build 0)  -->
<svg version="1.1" id="Layer_1" xmlns="http://www.w3.org/2000/svg" xmlns:xlink="http://www.w3.org/1999/xlink" x="0px" y="0px"
	 viewBox="0 0 24 24" enable-background="new 0 0 24 24" xml:space="preserve">
<g id="XMLID_2_">
	<path id="XMLID_202_" fill="#FFFFFF" d="M19.6589,12.2584V5.5918L14.0672,0H1.2714v21.6641h10.2325
		C12.6615,23.0904,14.4289,24,16.4031,24c3.4832,0,6.3256-2.8424,6.3256-6.3256C22.7286,15.3695,21.4987,13.3643,19.6589,12.2584z
		 M16.4031,22.6873c-2.77,0-5.0232-2.2429-5.0232-5.0129c0-1.0336,0.3204-2.0052,0.8682-2.8114
		c0.093-0.1344,0.186-0.2584,0.2894-0.3824c0.1964-0.2481,0.4238-0.4755,0.6822-0.6821c0,0,0-0.0103,0.0103-0.0103
		c0.8682-0.7132,1.9638-1.137,3.1731-1.137c2.77,0,5.0233,2.2532,5.0233,5.0233C21.4264,20.4444,19.1731,22.6873,16.4031,22.6873z"
		/>
	<g id="XMLID_156_">
		<path id="XMLID_170_" fill="#FFFFFF" d="M15.4104,20.5952l-2.0572-2.0572c-0.2362-0.2362-0.2362-0.6188,0-0.855
			s0.6188-0.2362,0.855,0l1.2022,1.2022l3.1846-3.1846c0.2362-0.2362,0.6188-0.2362,0.855,0c0.2362,0.2362,0.2362,0.6188,0,0.855
			L15.4104,20.5952z"/>
	</g>
</g>
</svg>
