<?xml version="1.0" encoding="utf-8"?>
<!-- Generator: Adobe Illustrator 19.1.0, SVG Export Plug-In . SVG Version: 6.00 Build 0)  -->
<!DOCTYPE svg PUBLIC "-//W3C//DTD SVG 1.1//EN" "http://www.w3.org/Graphics/SVG/1.1/DTD/svg11.dtd">
<svg version="1.1" id="Layer_1" xmlns="http://www.w3.org/2000/svg" xmlns:xlink="http://www.w3.org/1999/xlink" x="0px" y="0px"
	 viewBox="0 0 24 24" enable-background="new 0 0 24 24" xml:space="preserve">
<path fill="#333333" d="M23.175,18.5l0.002-0.007l-6.699-3.88c-0.039-0.026-0.076-0.053-0.121-0.07l-0.007-0.004v0.003
	c-0.07-0.025-0.145-0.042-0.224-0.042c-0.346,0-0.626,0.26-0.626,0.582v7.837c0,0.321,0.28,0.582,0.626,0.582
	c0.143,0,0.268-0.052,0.373-0.127l0.004,0.009l6.691-3.884c0,0,0.306-0.177,0.306-0.498C23.5,18.782,23.366,18.6,23.175,18.5z"/>
<path fill="#333333" d="M15,17.921c-0.901,0.464-1.919,0.732-3,0.732c-3.623,0-6.571-2.948-6.571-6.571
	C5.429,8.458,8.377,5.51,12,5.51s6.571,2.948,6.571,6.571c0,1.002-0.231,1.948-0.634,2.799l1.722,0.997
	c0.442-0.886,0.753-1.848,0.862-2.876H23c0.552,0,1-0.448,1-1S23.552,11,23,11h-2.504c-0.203-1.605-0.845-3.071-1.809-4.273
	l1.798-1.798c0.391-0.391,0.391-1.024,0-1.414s-1.024-0.391-1.414,0l-1.81,1.81C16.056,4.385,14.597,3.759,13,3.573V1
	c0-0.552-0.448-1-1-1s-1,0.448-1,1v2.573C9.403,3.759,7.944,4.385,6.739,5.325l-1.81-1.81c-0.391-0.391-1.024-0.391-1.414,0
	s-0.391,1.024,0,1.414l1.798,1.798C4.35,7.929,3.707,9.395,3.504,11H1c-0.552,0-1,0.448-1,1s0.448,1,1,1h2.48
	c0.174,1.629,0.808,3.117,1.764,4.343l-1.729,1.729c-0.391,0.391-0.391,1.024,0,1.414s1.024,0.391,1.414,0l1.717-1.717
	C7.868,19.749,9.363,20.4,11,20.59V23c0,0.552,0.448,1,1,1s1-0.448,1-1v-2.41c0.698-0.081,1.363-0.262,2-0.501L15,17.921L15,17.921z
	"/>
</svg>
