<?xml version="1.0" encoding="utf-8"?>
<!-- Generator: Adobe Illustrator 19.0.0, SVG Export Plug-In . SVG Version: 6.00 Build 0)  -->
<svg version="1.1" id="Layer_1" xmlns="http://www.w3.org/2000/svg" xmlns:xlink="http://www.w3.org/1999/xlink" x="0px" y="0px"
	 viewBox="0 0 24 24" enable-background="new 0 0 24 24" xml:space="preserve">
<g id="XMLID_108_">
	<path id="XMLID_22_" fill="#FFFFFF" d="M1,5.7418c-0.55,0-1,0.45-1,1v10.5274c0,0.55,0.45,1,1,1h22c0.55,0,1-0.45,1-1V6.7418
		c0-0.55-0.45-1-1-1H1z M8.6418,7.7319c0,0.3275-0.45,0.5954-1,0.5954H7.6135c-0.55,0-1,0.45-1,1v5.3564c0,0.55,0.45,1,1,1h0.0284
		c0.55,0,1,0.2679,1,0.5954s-0.45,0.5954-1,0.5954H4.1509c-0.55,0-1-0.2679-1-0.5954s0.45-0.5954,1-0.5954h0.0284c0.55,0,1-0.45,1-1
		V9.3273c0-0.55-0.45-1-1-1H4.1509c-0.55,0-1-0.2679-1-0.5954c0-0.3275,0.45-0.5954,1-0.5954h3.4909
		C8.1918,7.1364,8.6418,7.4044,8.6418,7.7319z"/>
</g>
</svg>
