<?xml version="1.0" encoding="utf-8"?>
<!-- Generator: Adobe Illustrator 18.1.1, SVG Export Plug-In . SVG Version: 6.00 Build 0)  -->
<svg version="1.1" id="Layer_1" xmlns="http://www.w3.org/2000/svg" xmlns:xlink="http://www.w3.org/1999/xlink" x="0px" y="0px"
	 viewBox="0 0 24 24" enable-background="new 0 0 24 24" xml:space="preserve">
<g>
	<g>
		<path fill="#FFFFFF" d="M1,0C0.4,0,0,0.4,0,1v22c0,0.5,0.4,1,1,1h22c0.5,0,1-0.5,1-1V1c0-0.6-0.5-1-1-1H1z M10,18.6
			c-0.4,0.4-1,0.4-1.4,0l-4.8-4.8c-0.4-0.4-0.4-1,0-1.4l1.5-1.5c0.4-0.4,1-0.4,1.4,0l1.9,1.9c0.4,0.4,1,0.4,1.4,0l7.4-7.4
			c0.4-0.4,1-0.4,1.4,0l1.5,1.5c0.4,0.4,0.4,1,0,1.4L10,18.6z"/>
	</g>
</g>
</svg>
