<svg id="Layer_1" data-name="Layer 1" xmlns="http://www.w3.org/2000/svg" viewBox="0 0 7 7"><defs><style>.cls-1{fill:none;}.cls-2{fill:#df3324;}</style></defs><title>required7</title><rect class="cls-1" x="-135" y="-223" width="1366" height="768"/><rect class="cls-1" x="-135" y="-223" width="1366" height="768"/><rect class="cls-1" x="-135" y="-223" width="1366" height="768"/><path class="cls-2" d="M2.892,7V5.113a3.1,3.1,0,0,1,.025-.4,1.8,1.8,0,0,1,.088-.371,1.369,1.369,0,0,1-.268.256c-.1.076-.213.153-.33.228L.779,5.773.17,4.742l1.64-.948a2.5,2.5,0,0,1,.366-.185,1.744,1.744,0,0,1,.376-.1,1.188,1.188,0,0,1-.376-.1,3.43,3.43,0,0,1-.366-.2L.17,2.248l.6-1.031,1.64.969q.175.114.335.232a1.413,1.413,0,0,1,.273.262,1.457,1.457,0,0,1-.1-.371,3.108,3.108,0,0,1-.025-.4V0H4.108V1.887a3.3,3.3,0,0,1-.026.417,1.481,1.481,0,0,1-.1.376,1.483,1.483,0,0,1,.268-.262,3.756,3.756,0,0,1,.341-.232l1.628-.948L6.83,2.268l-1.639.939a2.847,2.847,0,0,1-.365.19,1.566,1.566,0,0,1-.376.108,2.321,2.321,0,0,1,.742.288l1.639.959-.6,1.031L4.594,4.825c-.125-.075-.237-.151-.341-.228a1.66,1.66,0,0,1-.279-.256,2.015,2.015,0,0,1,.134.762V7Z"/></svg>