<?xml version="1.0" encoding="utf-8"?>
<!-- Generator: Adobe Illustrator 19.2.0, SVG Export Plug-In . SVG Version: 6.00 Build 0)  -->
<!DOCTYPE svg PUBLIC "-//W3C//DTD SVG 1.1//EN" "http://www.w3.org/Graphics/SVG/1.1/DTD/svg11.dtd">
<svg version="1.1" id="Layer_1" xmlns="http://www.w3.org/2000/svg" xmlns:xlink="http://www.w3.org/1999/xlink" x="0px" y="0px"
	 viewBox="0 0 24 24" enable-background="new 0 0 24 24" xml:space="preserve">
<g>
	<path fill="#004A70" d="M7,10V6.702C7,4.105,9.105,2,11.702,2h0.596c2.1,0,3.868,1.387,4.467,3.291C16.897,5.711,17.281,6,17.722,6
		h0c0.696,0,1.17-0.684,0.955-1.346C17.806,1.961,15.27,0,12.298,0h-0.596C8.016,0,5,3.016,5,6.702V10H4c-0.552,0-1,0.448-1,1v12
		c0,0.552,0.448,1,1,1h16c0.552,0,1-0.448,1-1V11c0-0.552-0.448-1-1-1H7z"/>
</g>
<g id="metadata">
</g>
<g id="like_icon">
</g>
<g id="fave_icon">
</g>
<g id="fave_icon_-_selected">
</g>
<g id="comment_icon_-_selected">
</g>
<g id="Comment_icon">
</g>
<g id="fave_icon_-_selected_1_">
</g>
<g id="like_icon_-_selected">
</g>
<g id="copy_x2F_move_icon">
</g>
<g id="download_icon_2">
</g>
<g id="share_icon_2">
</g>
<g id="reserve_icon">
</g>
<g id="edit_icon">
	<g id="edit_icon_2">
	</g>
	<g id="trash_icon">
		<g id="trash">
		</g>
	</g>
</g>
<g id="metadata_2">
</g>
<g>
	<path fill="#FFFFFF" d="M15.536,20.536L15.536,20.536c-0.389,0.389-1.025,0.389-1.414,0l-5.657-5.657
		c-0.389-0.389-0.389-1.025,0-1.414l0,0c0.389-0.389,1.025-0.389,1.414,0l5.657,5.657C15.924,19.51,15.924,20.147,15.536,20.536z"/>
	<path fill="#FFFFFF" d="M8.464,20.536L8.464,20.536c-0.389-0.389-0.389-1.025,0-1.414l5.657-5.657c0.389-0.389,1.025-0.389,1.414,0
		l0,0c0.389,0.389,0.389,1.025,0,1.414l-5.657,5.657C9.49,20.924,8.853,20.924,8.464,20.536z"/>
</g>
</svg>
