<?xml version="1.0" encoding="utf-8"?>
<!-- Generator: Adobe Illustrator 18.1.1, SVG Export Plug-In . SVG Version: 6.00 Build 0)  -->
<svg version="1.1" id="Layer_1" xmlns="http://www.w3.org/2000/svg" xmlns:xlink="http://www.w3.org/1999/xlink" x="0px" y="0px"
	 viewBox="0 0 24 24" enable-background="new 0 0 24 24" xml:space="preserve">
<symbol  id="New_Symbol_9" viewBox="-60.616 -71.7165 137.2322 127.4326">
	<g>
		<path fill="none" stroke="#333333" stroke-width="6" stroke-miterlimit="10" d="M56.6162-68.7165c-1.65,0-4.35,0-6,0H-34.616
			c-1.65,0-4.35,0-6,0h-14c-1.65,0-3,1.35-3,3v67.885c0,1.65,0,4.35,0,6v14c0,1.65,1.35,3,3,3H70.6162c1.65,0,3-1.35,3-3v-14
			c0-1.65,0-4.35,0-6v-67.885c0-1.65-1.35-3-3-3H56.6162z"/>
	</g>
	<path fill="none" stroke="#333333" stroke-width="6" stroke-miterlimit="10" d="M-1.7578-22.3577
		c-20.8186,0.9255-39.9955,4.5472-55.9797,10.1254"/>
	<path fill="none" stroke="#333333" stroke-width="6" stroke-miterlimit="10" d="M73.8167-12.7268
		c-16.1256-5.4371-35.3747-8.9126-56.2143-9.6965"/>
	<path fill="none" stroke="#333333" stroke-width="6" stroke-miterlimit="10" d="M-19.7823,25.1792v6.3524
		c0,11.6514,9.82,21.1844,21.8222,21.1844h11.9204c12.0022,0,21.8222-9.533,21.8222-21.1844v-6.7495"/>
	<path fill="#333333" d="M17.4104-22.5925v-5.4279c0-5.1757-4.2346-9.4103-9.4103-9.4103h0c-5.1757,0-9.4103,4.2346-9.4103,9.4103
		v10.8833c0,5.1757,4.2346,9.4103,9.4103,9.4103h0c5.1757,0,9.4103-4.2346,9.4103-9.4103V-22.5925"/>
</symbol>
<g id="New_Symbol_11">
</g>
<g>
	<g>
		<path fill="#333333" d="M22.95,5.68h-5.57V5.09c0-2.33-1.94-4.23-4.34-4.23h-2.08c-2.4,0-4.34,1.9-4.34,4.23v0.59H1.05
			C0.47,5.68,0,6.15,0,6.73V22.1c0,0.57,0.47,1.04,1.05,1.04h21.9c0.58,0,1.05-0.47,1.05-1.04V6.73C24,6.15,23.53,5.68,22.95,5.68z
			 M7.67,5.09c0-1.75,1.47-3.18,3.29-3.18h2.08c1.82,0,3.29,1.43,3.29,3.18v0.59H7.67V5.09z M22.95,22.1H1.05v-8.62
			c2.73,0.86,6.04,1.39,9.3,1.54v0.48c0,0.91,0.7401,1.65,1.65,1.65s1.65-0.74,1.65-1.65v-0.45c3.27-0.14,6.54-0.65,9.3-1.49V22.1z
			 M22.95,12.46c-2.72,0.87-6.02,1.36-9.3,1.5V13.6c0-0.9-0.7401-1.65-1.65-1.65s-1.65,0.75-1.65,1.65v0.39
			c-3.3-0.15-6.59-0.72-9.3-1.62V6.73h21.9V12.46z"/>
	</g>
</g>
</svg>
