<?xml version="1.0" encoding="utf-8"?>
<!-- Generator: Adobe Illustrator 19.1.0, SVG Export Plug-In . SVG Version: 6.00 Build 0)  -->
<!DOCTYPE svg PUBLIC "-//W3C//DTD SVG 1.1//EN" "http://www.w3.org/Graphics/SVG/1.1/DTD/svg11.dtd">
<svg version="1.1" id="Layer_1" xmlns="http://www.w3.org/2000/svg" xmlns:xlink="http://www.w3.org/1999/xlink" x="0px" y="0px"
	 viewBox="0 0 24 24" enable-background="new 0 0 24 24" xml:space="preserve">
<path fill="#FFFFFF" d="M18,1h-3.07c0.038,0.126,0.074,0.253,0.074,0.39c0,0.715-0.54,1.302-1.284,1.396
	c-3.951,0.023-7.226,2.878-7.892,6.6l0.583-0.583c0.266-0.265,0.617-0.411,0.988-0.411c0.372,0,0.723,0.146,0.989,0.41
	c0.265,0.265,0.411,0.616,0.411,0.991s-0.146,0.726-0.41,0.99l-2.98,2.979C5.288,13.884,5.148,13.976,5,14.043V20
	c0,1.657,1.343,3,3,3h12c1.657,0,3-1.343,3-3V6L18,1z"/>
<path fill="#333333" d="M4.42,13.678c0.206,0,0.473-0.106,0.635-0.269l2.98-2.979c0.351-0.351,0.351-0.922,0-1.273
	c-0.171-0.17-0.396-0.264-0.636-0.264S6.935,8.987,6.764,9.157l-1.559,1.56c0.036-4.63,3.813-8.404,8.452-8.427
	c0.5-0.063,0.847-0.445,0.847-0.9s-0.346-0.837-0.806-0.888L13.52,0.5C8.034,0.559,3.543,5.036,3.408,10.529L2.035,9.157
	c-0.171-0.17-0.396-0.264-0.636-0.264S0.935,8.987,0.764,9.157C0.593,9.328,0.5,9.554,0.5,9.794c0,0.239,0.093,0.465,0.262,0.636
	l2.982,2.979C3.911,13.605,4.42,13.678,4.42,13.678z"/>
<path fill="#333333" d="M4.422,13.703c0.206,0,0.473-0.106,0.635-0.269l2.98-2.979c0.351-0.351,0.351-0.922,0-1.273
	c-0.171-0.17-0.396-0.264-0.636-0.264S6.937,9.012,6.766,9.182l-1.559,1.56c0.036-4.63,3.813-8.404,8.452-8.427
	c0.5-0.063,0.847-0.445,0.847-0.9S14.16,0.578,13.7,0.527l-0.178-0.002C8.036,0.584,3.545,5.061,3.41,10.554L2.037,9.182
	c-0.171-0.17-0.396-0.264-0.636-0.264S0.937,9.012,0.766,9.182C0.595,9.353,0.502,9.579,0.502,9.819
	c0,0.239,0.093,0.465,0.262,0.636l2.982,2.979C3.913,13.63,4.422,13.703,4.422,13.703z"/>
<path fill="#333333" d="M13.058,0.027C13.21,0.018,13.36,0.002,13.514,0h-0.575C12.984,0.001,13.016,0.021,13.058,0.027z"/>
<g>
	<polygon fill="#333333" points="13.522,0 13.524,0 13.514,0 	"/>
	<path fill="#333333" d="M23.707,5.293l-5-5L18.414,0h-4.89h0.009l0.171,0.002c0.003,0,0.005,0.002,0.008,0.002l0.04,0.001
		c0.076,0.008,0.139,0.044,0.21,0.064c0.066,0.019,0.134,0.032,0.195,0.059c0.098,0.043,0.182,0.1,0.266,0.162
		c0.032,0.024,0.065,0.046,0.094,0.073c0.084,0.074,0.155,0.155,0.219,0.246c0.015,0.021,0.027,0.043,0.04,0.065
		C14.841,0.776,14.895,0.882,14.93,1H18l5,5v14c0,1.657-1.343,3-3,3H8c-1.657,0-3-1.343-3-3v-5.957c0,0,0,0-0.001,0
		c-0.025,0.012-0.051,0.017-0.077,0.027c-0.142,0.055-0.545,0.103-0.546,0.103c-0.129-0.001-0.25-0.038-0.371-0.073
		c-0.002,0-0.004-0.001-0.005-0.001V20c0,2.206,1.794,4,4,4h12c2.206,0,4-1.794,4-4V5.586L23.707,5.293z"/>
</g>
</svg>
