<?xml version="1.0" encoding="utf-8"?>
<!-- Generator: Adobe Illustrator 19.1.0, SVG Export Plug-In . SVG Version: 6.00 Build 0)  -->
<!DOCTYPE svg PUBLIC "-//W3C//DTD SVG 1.1//EN" "http://www.w3.org/Graphics/SVG/1.1/DTD/svg11.dtd">
<svg version="1.1" id="Layer_1" xmlns="http://www.w3.org/2000/svg" xmlns:xlink="http://www.w3.org/1999/xlink" x="0px" y="0px"
	 viewBox="0 0 24 24" enable-background="new 0 0 24 24" xml:space="preserve">
<path fill="#333333" d="M21,13.345V20c0,1.657-1.343,3-3,3H6c-1.657,0-3-1.343-3-3V7.766C2.944,7.905,2.872,8.033,2.823,8.175
	C2.759,8.69,2.436,9.1,2,9.302V20c0,2.206,1.794,4,4,4h12c2.206,0,4-1.794,4-4v-7.655L21,13.345z"/>
<path fill="#FFFFFF" d="M20.624,13.721c-0.264,0.264-0.614,0.408-0.986,0.408l-0.104-0.009c-0.323-0.002-0.662-0.141-0.92-0.398
	l-2.969-2.97c-0.263-0.263-0.408-0.613-0.408-0.986s0.145-0.723,0.408-0.986c0.264-0.264,0.614-0.408,0.986-0.408
	s0.723,0.145,0.986,0.408l0.58,0.579c-0.663-3.726-3.938-6.572-7.843-6.572C7.099,2.787,4.216,4.775,3,7.766V20c0,1.657,1.343,3,3,3
	h12c1.657,0,3-1.343,3-3v-6.655L20.624,13.721z"/>
<g>
	<path fill="#333333" d="M19.604,13.627c-0.266-0.005-0.478-0.097-0.639-0.258L15.997,10.4c-0.349-0.349-0.349-0.918,0-1.267
		c0.169-0.169,0.395-0.263,0.634-0.263s0.465,0.093,0.634,0.263l1.551,1.552C18.78,6.05,14.998,2.29,10.354,2.29
		c-3.643,0-6.86,2.32-8.021,5.779C2.293,8.576,1.898,8.942,1.42,8.942c-0.509,0-0.922-0.413-0.922-0.922l0.018-0.123L0.529,7.9
		L0.515,7.881C0.526,7.79,0.567,7.667,0.636,7.553c1.33-4.186,5.251-7.055,9.718-7.055c5.57,0,10.117,4.463,10.252,10.001
		l1.366-1.365c0.169-0.169,0.395-0.263,0.634-0.263s0.465,0.093,0.634,0.263c0.349,0.349,0.349,0.918,0,1.267l-2.968,2.969
		c-0.169,0.169-0.395,0.263-0.634,0.263L19.604,13.627z"/>
</g>
</svg>
