<?xml version="1.0" encoding="utf-8"?>
<!-- Generator: Adobe Illustrator 19.1.0, SVG Export Plug-In . SVG Version: 6.00 Build 0)  -->
<!DOCTYPE svg PUBLIC "-//W3C//DTD SVG 1.1//EN" "http://www.w3.org/Graphics/SVG/1.1/DTD/svg11.dtd">
<svg version="1.1" id="Layer_1" xmlns="http://www.w3.org/2000/svg" xmlns:xlink="http://www.w3.org/1999/xlink" x="0px" y="0px"
	 viewBox="0 0 24 24" enable-background="new 0 0 24 24" xml:space="preserve">
<g id="ROT_x5F_right_1_">
	<g>
		<path fill="#333333" d="M10.953,0h-0.477c0.145,0.002,0.287,0.018,0.431,0.025C10.922,0.017,10.937,0.008,10.953,0z"/>
		<g>
			<polygon fill="#333333" points="10.476,0 10.475,0 10.475,0 			"/>
		</g>
	</g>
	<g>
		<path fill="#333333" d="M19.607,13.673l-0.086-0.011c-0.206,0-0.414-0.09-0.576-0.253l-2.98-2.979
			c-0.351-0.351-0.351-0.922,0-1.273c0.171-0.17,0.396-0.264,0.636-0.264s0.465,0.094,0.636,0.264l1.559,1.56
			c-0.036-4.63-3.813-8.404-8.452-8.427c-0.5-0.063-0.847-0.445-0.847-0.9s0.346-0.837,0.806-0.888L10.48,0.5
			c5.486,0.059,9.977,4.536,10.112,10.029l1.373-1.372c0.171-0.17,0.396-0.264,0.636-0.264s0.465,0.094,0.636,0.264
			c0.17,0.171,0.263,0.397,0.263,0.637c0,0.239-0.093,0.465-0.262,0.636l-2.982,2.979c-0.171,0.171-0.396,0.264-0.636,0.264
			C19.62,13.673,19.607,13.673,19.607,13.673z"/>
	</g>
</g>
<path fill="#FFFFFF" d="M8.997,1.39c0-0.143,0.033-0.275,0.077-0.403c0,0.002-0.001,0.004-0.002,0.005
	C9.071,0.995,9.069,0.997,9.069,1H4C2.343,1,1,2.343,1,4v16c0,1.657,1.343,3,3,3h12c1.657,0,3-1.343,3-3v-5.951
	c0.046,0.021,0.09,0.021,0.136,0.036c0.034,0.009,0.066,0.016,0.103,0.024c0.061,0.014,0.122,0.035,0.18,0.042
	c-0.273-0.009-0.583-0.143-0.828-0.39l-2.979-2.978c-0.546-0.546-0.546-1.435,0-1.98c0.266-0.265,0.617-0.411,0.989-0.411
	c0.373,0,0.725,0.146,0.99,0.41l0.582,0.583c-0.665-3.721-3.934-6.577-7.831-6.596C9.538,2.692,8.997,2.105,8.997,1.39z"/>
<path fill="#333333" d="M19.62,14.173h-0.044c0,0-0.124-0.015-0.128-0.015c-0.067,0-0.139-0.033-0.21-0.049
	c-0.037-0.008-0.069-0.015-0.103-0.024C19.09,14.07,19.046,14.07,19,14.049V20c0,1.657-1.343,3-3,3H4c-1.657,0-3-1.343-3-3V4
	c0-1.657,1.343-3,3-3h5.069C9.07,0.997,9.072,0.995,9.072,0.992c0.032-0.104,0.079-0.197,0.133-0.289
	c0.023-0.04,0.046-0.079,0.073-0.117C9.33,0.514,9.384,0.449,9.449,0.388C9.507,0.332,9.573,0.286,9.64,0.24
	c0.053-0.034,0.1-0.072,0.158-0.1c0.138-0.067,0.286-0.118,0.448-0.136h0.002l0,0L10.475,0H4C1.794,0,0,1.794,0,4v16
	c0,2.206,1.794,4,4,4h12c2.206,0,4-1.794,4-4v-5.902C19.876,14.133,19.753,14.173,19.62,14.173L19.62,14.173z"/>
</svg>
