<?xml version="1.0" encoding="utf-8"?>
<!-- Generator: Adobe Illustrator 21.0.0, SVG Export Plug-In . SVG Version: 6.00 Build 0)  -->
<svg version="1.1" id="Layer_1" xmlns="http://www.w3.org/2000/svg" xmlns:xlink="http://www.w3.org/1999/xlink" x="0px" y="0px"
	 viewBox="0 0 24 24" style="enable-background:new 0 0 24 24;" xml:space="preserve">
<style type="text/css">
	.st0{fill:#FFFFFF;}
	.st1{fill:#333333;}
</style>
<g>
	<g>
		<g>
			<g>
				<path class="st0" d="M21.354,23.511H3.011c-1.253,0-2.272-1.019-2.272-2.273v-7.859c0-1.253,1.019-2.273,2.272-2.273h18.344
					c1.253,0,2.272,1.019,2.272,2.273v7.859C23.627,22.491,22.607,23.511,21.354,23.511z"/>
			</g>
			<g>
				<g>
					<path class="st1" d="M21.381,23.884H19.84c-0.206,0-0.373-0.167-0.373-0.373s0.167-0.373,0.373-0.373h1.515
						c0.206,0,0.386,0.167,0.386,0.373S21.587,23.884,21.381,23.884z M18.325,23.884h-1.515c-0.206,0-0.373-0.167-0.373-0.373
						s0.167-0.373,0.373-0.373h1.515c0.206,0,0.373,0.167,0.373,0.373S18.531,23.884,18.325,23.884z M15.294,23.884h-1.515
						c-0.206,0-0.373-0.167-0.373-0.373s0.167-0.373,0.373-0.373h1.515c0.206,0,0.373,0.167,0.373,0.373S15.5,23.884,15.294,23.884z
						 M12.265,23.884H10.75c-0.206,0-0.373-0.167-0.373-0.373s0.167-0.373,0.373-0.373h1.515c0.207,0,0.374,0.167,0.374,0.373
						S12.471,23.884,12.265,23.884z M9.235,23.884H7.719c-0.206,0-0.373-0.167-0.373-0.373s0.167-0.373,0.373-0.373h1.515
						c0.206,0,0.373,0.167,0.373,0.373S9.441,23.884,9.235,23.884z M6.204,23.884H4.69c-0.206,0-0.373-0.167-0.373-0.373
						s0.167-0.373,0.373-0.373h1.515c0.206,0,0.373,0.167,0.373,0.373S6.41,23.884,6.204,23.884z M3.175,23.884H3.01
						c-0.531,0-1.043-0.157-1.482-0.455c-0.171-0.116-0.215-0.348-0.099-0.519c0.115-0.17,0.346-0.216,0.518-0.099
						c0.314,0.214,0.682,0.327,1.063,0.327h0.164c0.206,0,0.373,0.167,0.373,0.373S3.381,23.884,3.175,23.884z M22.779,23.38
						c-0.109,0-0.217-0.048-0.291-0.139c-0.129-0.16-0.104-0.396,0.056-0.525c0.331-0.267,0.566-0.641,0.661-1.053
						c0.045-0.201,0.24-0.331,0.447-0.28c0.201,0.046,0.327,0.246,0.28,0.447c-0.131,0.574-0.458,1.095-0.919,1.467
						C22.945,23.353,22.862,23.38,22.779,23.38z M0.847,22.304c-0.158,0-0.305-0.101-0.355-0.259
						c-0.084-0.259-0.126-0.531-0.126-0.806v-0.812c0-0.206,0.167-0.373,0.373-0.373s0.373,0.167,0.373,0.373v0.811
						c0,0.197,0.031,0.393,0.09,0.579c0.063,0.196-0.045,0.406-0.241,0.469C0.922,22.299,0.884,22.304,0.847,22.304z M23.627,20.61
						c-0.206,0-0.373-0.167-0.373-0.373v-1.515c0-0.206,0.167-0.373,0.373-0.373S24,18.515,24,18.721v1.515
						C24,20.442,23.833,20.61,23.627,20.61z M0.738,19.285c-0.206,0-0.373-0.167-0.373-0.373v-1.515
						c0-0.206,0.167-0.373,0.373-0.373s0.373,0.167,0.373,0.373v1.515C1.111,19.118,0.944,19.285,0.738,19.285z M23.627,17.579
						c-0.206,0-0.373-0.167-0.373-0.373v-1.515c0-0.206,0.167-0.373,0.373-0.373S24,15.485,24,15.691v1.515
						C24,17.412,23.833,17.579,23.627,17.579z M0.738,16.255c-0.206,0-0.373-0.167-0.373-0.373v-1.515
						c0-0.206,0.167-0.373,0.373-0.373s0.373,0.167,0.373,0.373v1.515C1.111,16.088,0.944,16.255,0.738,16.255z M23.627,14.549
						c-0.206,0-0.373-0.167-0.373-0.373v-0.798c0-0.202-0.031-0.4-0.093-0.588c-0.064-0.196,0.043-0.407,0.238-0.471
						c0.195-0.064,0.407,0.042,0.471,0.238c0.086,0.264,0.13,0.54,0.13,0.822v0.798C24,14.382,23.833,14.549,23.627,14.549z
						 M0.799,13.23c-0.029,0-0.057-0.003-0.086-0.01c-0.201-0.048-0.325-0.248-0.278-0.449C0.57,12.198,0.9,11.679,1.363,11.31
						c0.162-0.127,0.396-0.102,0.525,0.059c0.128,0.161,0.102,0.396-0.059,0.525c-0.333,0.265-0.57,0.638-0.667,1.049
						C1.121,13.115,0.968,13.23,0.799,13.23z M22.615,11.862c-0.072,0-0.144-0.02-0.208-0.063c-0.312-0.209-0.675-0.32-1.052-0.32
						h-0.178c-0.206,0-0.373-0.167-0.373-0.373s0.167-0.373,0.373-0.373h0.178c0.526,0,1.033,0.155,1.468,0.446
						c0.171,0.115,0.217,0.347,0.102,0.518C22.853,11.804,22.735,11.862,22.615,11.862z M19.663,11.479h-1.515
						c-0.206,0-0.373-0.167-0.373-0.373s0.167-0.373,0.373-0.373h1.515c0.206,0,0.373,0.167,0.373,0.373
						S19.869,11.479,19.663,11.479z M16.633,11.479h-1.515c-0.206,0-0.373-0.167-0.373-0.373s0.167-0.373,0.373-0.373h1.515
						c0.206,0,0.373,0.167,0.373,0.373S16.839,11.479,16.633,11.479z M13.602,11.479h-1.515c-0.206,0-0.373-0.167-0.373-0.373
						s0.167-0.373,0.373-0.373h1.515c0.206,0,0.373,0.167,0.373,0.373S13.808,11.479,13.602,11.479z M10.572,11.479H9.057
						c-0.206,0-0.373-0.167-0.373-0.373s0.167-0.373,0.373-0.373h1.515c0.206,0,0.373,0.167,0.373,0.373
						S10.778,11.479,10.572,11.479z M7.542,11.479H6.027c-0.206,0-0.373-0.167-0.373-0.373s0.167-0.373,0.373-0.373h1.515
						c0.206,0,0.373,0.167,0.373,0.373S7.748,11.479,7.542,11.479z M4.512,11.479H3.01c-0.206,0-0.38-0.167-0.38-0.373
						s0.161-0.373,0.367-0.373h1.515c0.206,0,0.373,0.167,0.373,0.373S4.718,11.479,4.512,11.479z"/>
				</g>
			</g>
		</g>
		<g>
			<path class="st1" d="M20.462,23.39c-0.206,0-0.373-0.167-0.373-0.373v-1.294c0-0.206,0.167-0.373,0.373-0.373
				s0.373,0.167,0.373,0.373v1.294C20.835,23.223,20.668,23.39,20.462,23.39z M20.462,20.803c-0.206,0-0.373-0.167-0.373-0.373
				v-1.294c0-0.206,0.167-0.373,0.373-0.373s0.373,0.167,0.373,0.373v1.294C20.835,20.636,20.668,20.803,20.462,20.803z
				 M20.462,18.215c-0.206,0-0.373-0.167-0.373-0.373v-1.294c0-0.206,0.167-0.373,0.373-0.373s0.373,0.167,0.373,0.373v1.294
				C20.835,18.048,20.668,18.215,20.462,18.215z M20.462,15.628c-0.206,0-0.373-0.167-0.373-0.373v-1.294
				c0-0.206,0.167-0.373,0.373-0.373s0.373,0.167,0.373,0.373v1.294C20.835,15.461,20.668,15.628,20.462,15.628z M20.462,13.041
				c-0.206,0-0.373-0.167-0.373-0.374v-1.294c0-0.206,0.167-0.373,0.373-0.373s0.373,0.167,0.373,0.373v1.294
				C20.835,12.874,20.668,13.041,20.462,13.041z"/>
		</g>
	</g>
	<g>
		<g>
			<polygon class="st0" points="6.1,20.834 6.1,20.834 0.222,20.834 0.222,3.194 6.082,3.194 6.1,3.194 11.96,3.194 11.96,20.834 
							"/>
			<path class="st1" d="M10.132,23.884h-7.86C1.019,23.884,0,22.864,0,21.611L0,2.272C0,1.019,1.019,0,2.273,0l7.86,0
				c1.253,0,2.273,1.019,2.273,2.272v19.339C12.405,22.864,11.385,23.884,10.132,23.884z M2.273,0.444
				c-1.008,0-1.828,0.82-1.828,1.828v19.339c0,1.008,0.82,1.828,1.828,1.828h7.86c1.008,0,1.828-0.82,1.828-1.828V2.272
				c0-1.008-0.82-1.828-1.828-1.828H2.273z"/>
		</g>
		<path class="st0" d="M8.338,2.025H4.067c-0.188,0-0.342-0.154-0.342-0.342v0c0-0.188,0.154-0.342,0.342-0.342h4.271
			c0.188,0,0.342,0.154,0.342,0.342v0C8.68,1.871,8.526,2.025,8.338,2.025z"/>
		<g>
			<path class="st1" d="M0.222,20.834v0.777c0,1.128,0.923,2.05,2.05,2.05h7.86c1.128,0,2.05-0.923,2.05-2.05v-0.777H0.222z"/>
			<circle class="st0" cx="6.202" cy="22.248" r="0.854"/>
		</g>
		<path class="st1" d="M0.222,3.194l0-0.938c0-1.128,0.923-2.05,2.05-2.05h7.86c1.128,0,2.05,0.923,2.05,2.05l0,0.938H0.222z"/>
		<path class="st0" d="M8.338,2.041H4.067c-0.188,0-0.342-0.154-0.342-0.342v0c0-0.188,0.154-0.342,0.342-0.342h4.271
			c0.188,0,0.342,0.154,0.342,0.342v0C8.68,1.888,8.526,2.041,8.338,2.041z"/>
	</g>
	<path class="st1" d="M19.033,9.201l2.677-2.677c0.222-0.222,0.222-0.582,0-0.804s-0.582-0.222-0.804,0l-1.305,1.305V6.123
		c0-3.253-1.865-5.118-5.117-5.118c-0.314,0-0.569,0.253-0.569,0.568c0,0.316,0.255,0.569,0.569,0.569
		c1.816,0,3.982,0.691,3.982,3.982v0.902L17.161,5.72c-0.222-0.222-0.582-0.222-0.804,0c-0.112,0.112-0.167,0.256-0.167,0.403
		c0,0.145,0.055,0.291,0.167,0.401L19.033,9.201z"/>
	<path class="st1" d="M21.658,19.321v-4.271c0-0.188,0.154-0.342,0.342-0.342h0c0.188,0,0.342,0.154,0.342,0.342v4.271
		c0,0.188-0.154,0.342-0.342,0.342h0C21.811,19.662,21.658,19.509,21.658,19.321z"/>
</g>
</svg>
