<?xml version="1.0" encoding="utf-8"?>
<!-- Generator: Adobe Illustrator 19.2.1, SVG Export Plug-In . SVG Version: 6.00 Build 0)  -->
<svg version="1.1" id="Layer_1" xmlns="http://www.w3.org/2000/svg" xmlns:xlink="http://www.w3.org/1999/xlink" x="0px" y="0px"
	 viewBox="0 0 32 32" style="enable-background:new 0 0 32 32;" xml:space="preserve">
<style type="text/css">
	.st0{opacity:0;fill:#333333;}
	.st1{fill:#333333;}
</style>
<rect y="0" class="st0" width="32" height="32"/>
<path class="st1" d="M28.8,20.9c-0.4-0.4-0.9-0.4-1.3,0L24,24.5V24C24,12.4,14.6,3,3,3v2c10.5,0,19,8.5,19,19v0.2l-3.3-3.4
	c-0.4-0.4-1-0.4-1.4,0c-0.4,0.4-0.4,1.1,0,1.5l5.7,5.7l5.7-5.7C29.2,21.9,29.2,21.3,28.8,20.9z"/>
<path class="st1" d="M12,22H8v-2v-2H6H4v-4l-2-2v6v2v2v2h2h10L12,22z M4,22v-2h2v2H4z"/>
</svg>
