<?xml version="1.0" encoding="utf-8"?>
<!-- Generator: Adobe Illustrator 21.0.0, SVG Export Plug-In . SVG Version: 6.00 Build 0)  -->
<svg version="1.1" id="Layer_1" xmlns="http://www.w3.org/2000/svg" xmlns:xlink="http://www.w3.org/1999/xlink" x="0px" y="0px"
	 viewBox="0 0 24 24" style="enable-background:new 0 0 24 24;" xml:space="preserve">
<style type="text/css">
	.st0{fill:#FFFFFF;}
	.st1{fill:#333333;}
</style>
<g>
	<g>
		<g>
			<g>
				<path class="st0" d="M12.985,0.369h7.699c1.227,0,2.226,0.998,2.226,2.226v17.969c0,1.227-0.999,2.226-2.226,2.226h-7.699
					c-1.227,0-2.226-0.998-2.226-2.226V2.595C10.759,1.368,11.757,0.369,12.985,0.369z"/>
			</g>
			<g>
				<g>
					<path class="st1" d="M20.696,23.159h-1.484c-0.204,0-0.369-0.165-0.369-0.369s0.165-0.369,0.369-0.369h1.471
						c0.204,0,0.376,0.165,0.376,0.369S20.9,23.159,20.696,23.159z M17.728,23.159h-1.484c-0.204,0-0.369-0.165-0.369-0.369
						s0.165-0.369,0.369-0.369h1.484c0.204,0,0.369,0.165,0.369,0.369S17.932,23.159,17.728,23.159z M14.761,23.159h-1.485
						c-0.204,0-0.369-0.165-0.369-0.369s0.165-0.369,0.369-0.369h1.485c0.204,0,0.369,0.165,0.369,0.369
						S14.964,23.159,14.761,23.159z M11.849,22.847c-0.064,0-0.129-0.016-0.188-0.052c-0.498-0.297-0.887-0.757-1.097-1.296
						c-0.074-0.189,0.02-0.404,0.211-0.478c0.188-0.074,0.404,0.02,0.478,0.211c0.15,0.387,0.429,0.716,0.786,0.929
						c0.175,0.105,0.233,0.332,0.128,0.507C12.097,22.783,11.975,22.847,11.849,22.847z M22.069,22.673
						c-0.109,0-0.215-0.048-0.288-0.139c-0.127-0.16-0.101-0.391,0.059-0.518c0.325-0.26,0.557-0.624,0.651-1.025
						c0.047-0.199,0.248-0.323,0.444-0.275c0.199,0.047,0.321,0.246,0.275,0.444c-0.133,0.562-0.456,1.071-0.911,1.433
						C22.232,22.647,22.15,22.673,22.069,22.673z M10.759,20.269c-0.204,0-0.369-0.165-0.369-0.369v-1.484
						c0-0.204,0.165-0.369,0.369-0.369s0.369,0.165,0.369,0.369V19.9C11.128,20.104,10.962,20.269,10.759,20.269z M22.91,19.965
						c-0.204,0-0.369-0.165-0.369-0.369v-1.485c0-0.204,0.165-0.369,0.369-0.369c0.204,0,0.369,0.165,0.369,0.369v1.485
						C23.279,19.8,23.113,19.965,22.91,19.965z M10.759,17.301c-0.204,0-0.369-0.165-0.369-0.369v-1.484
						c0-0.204,0.165-0.369,0.369-0.369s0.369,0.165,0.369,0.369v1.484C11.128,17.136,10.962,17.301,10.759,17.301z M22.91,16.997
						c-0.204,0-0.369-0.165-0.369-0.369v-1.485c0-0.204,0.165-0.369,0.369-0.369c0.204,0,0.369,0.165,0.369,0.369v1.485
						C23.279,16.832,23.113,16.997,22.91,16.997z M10.759,14.334c-0.204,0-0.369-0.165-0.369-0.369V12.48
						c0-0.204,0.165-0.369,0.369-0.369s0.369,0.165,0.369,0.369v1.485C11.128,14.168,10.962,14.334,10.759,14.334z M22.91,14.029
						c-0.204,0-0.369-0.165-0.369-0.369v-1.484c0-0.204,0.165-0.369,0.369-0.369c0.204,0,0.369,0.165,0.369,0.369v1.484
						C23.279,13.863,23.113,14.029,22.91,14.029z M10.759,11.365c-0.204,0-0.369-0.165-0.369-0.369V9.512
						c0-0.204,0.165-0.369,0.369-0.369s0.369,0.165,0.369,0.369v1.484C11.128,11.2,10.962,11.365,10.759,11.365z M22.91,11.061
						c-0.204,0-0.369-0.165-0.369-0.369V9.208c0-0.204,0.165-0.369,0.369-0.369c0.204,0,0.369,0.165,0.369,0.369v1.484
						C23.279,10.896,23.113,11.061,22.91,11.061z M10.759,8.397c-0.204,0-0.369-0.165-0.369-0.369V6.544
						c0-0.204,0.165-0.369,0.369-0.369s0.369,0.165,0.369,0.369v1.484C11.128,8.232,10.962,8.397,10.759,8.397z M22.91,8.093
						c-0.204,0-0.369-0.165-0.369-0.369V6.239c0-0.204,0.165-0.369,0.369-0.369c0.204,0,0.369,0.165,0.369,0.369v1.484
						C23.279,7.927,23.113,8.093,22.91,8.093z M10.759,5.429c-0.204,0-0.369-0.165-0.369-0.369V3.576
						c0-0.204,0.165-0.369,0.369-0.369s0.369,0.165,0.369,0.369V5.06C11.128,5.264,10.962,5.429,10.759,5.429z M22.91,5.125
						c-0.204,0-0.369-0.165-0.369-0.369V3.272c0-0.204,0.165-0.369,0.369-0.369c0.204,0,0.369,0.165,0.369,0.369v1.484
						C23.279,4.96,23.113,5.125,22.91,5.125z M10.816,2.465c-0.027,0-0.055-0.003-0.083-0.01c-0.199-0.046-0.323-0.244-0.277-0.442
						c0.129-0.562,0.45-1.074,0.903-1.439c0.158-0.127,0.39-0.103,0.519,0.056c0.128,0.159,0.103,0.391-0.056,0.519
						c-0.325,0.262-0.554,0.627-0.647,1.029C11.136,2.35,10.984,2.465,10.816,2.465z M22.764,2.175
						c-0.149,0-0.289-0.091-0.345-0.238c-0.147-0.386-0.424-0.717-0.78-0.932c-0.175-0.105-0.231-0.332-0.126-0.507
						c0.106-0.175,0.333-0.229,0.507-0.125c0.498,0.3,0.885,0.763,1.089,1.303c0.072,0.19-0.023,0.404-0.214,0.476
						C22.852,2.167,22.808,2.175,22.764,2.175z M20.405,0.738h-1.484c-0.204,0-0.369-0.165-0.369-0.369S18.717,0,18.921,0h1.484
						c0.204,0,0.369,0.165,0.369,0.369S20.609,0.738,20.405,0.738z M17.437,0.738h-1.484c-0.204,0-0.369-0.165-0.369-0.369
						S15.749,0,15.953,0h1.484c0.204,0,0.369,0.165,0.369,0.369S17.64,0.738,17.437,0.738z M14.468,0.738h-1.484
						c-0.204,0-0.382-0.165-0.382-0.369S12.755,0,12.959,0h1.51c0.204,0,0.369,0.165,0.369,0.369S14.672,0.738,14.468,0.738z"/>
				</g>
			</g>
		</g>
		<g>
			<g>
				<line class="st0" x1="10.895" y1="3.47" x2="22.836" y2="3.47"/>
			</g>
			<g>
				<path class="st1" d="M22.414,3.839h-1.28c-0.204,0-0.369-0.165-0.369-0.369S20.931,3.1,21.135,3.1h1.28
					c0.204,0,0.369,0.165,0.369,0.369S22.618,3.839,22.414,3.839z M19.855,3.839h-1.28c-0.204,0-0.369-0.165-0.369-0.369
					S18.371,3.1,18.575,3.1h1.28c0.204,0,0.369,0.165,0.369,0.369S20.059,3.839,19.855,3.839z M17.294,3.839h-1.28
					c-0.204,0-0.369-0.165-0.369-0.369S15.811,3.1,16.014,3.1h1.28c0.204,0,0.369,0.165,0.369,0.369S17.498,3.839,17.294,3.839z
					 M14.735,3.839h-1.28c-0.204,0-0.369-0.165-0.369-0.369S13.251,3.1,13.455,3.1h1.28c0.204,0,0.369,0.165,0.369,0.369
					S14.938,3.839,14.735,3.839z M12.175,3.839h-1.28c-0.204,0-0.369-0.165-0.369-0.369S10.691,3.1,10.895,3.1h1.28
					c0.204,0,0.369,0.165,0.369,0.369S12.378,3.839,12.175,3.839z"/>
			</g>
		</g>
	</g>
	<g>
		<g>
			<polygon class="st0" points="2.987,17.825 2.987,17.825 2.987,12.067 20.267,12.067 20.267,17.807 20.267,17.825 20.267,23.565 
				2.987,23.565 			"/>
			<path class="st1" d="M0,21.774v-7.699c0-1.227,0.998-2.226,2.226-2.226h18.943c1.227,0,2.226,0.999,2.226,2.226v7.699
				c0,1.227-0.998,2.226-2.226,2.226H2.226C0.998,24,0,23.001,0,21.774z M22.96,14.075c0-0.988-0.803-1.791-1.791-1.791H2.226
				c-0.988,0-1.791,0.803-1.791,1.791v7.699c0,0.988,0.803,1.791,1.791,1.791h18.943c0.988,0,1.791-0.803,1.791-1.791V14.075z"/>
		</g>
		<path class="st0" d="M21.412,20.017v-4.184c0-0.184,0.151-0.335,0.335-0.335l0,0c0.184,0,0.335,0.151,0.335,0.335v4.184
			c0,0.184-0.151,0.335-0.335,0.335l0,0C21.563,20.351,21.412,20.201,21.412,20.017z"/>
		<g>
			<path class="st1" d="M2.987,12.067H2.226c-1.105,0-2.008,0.904-2.008,2.008v7.699c0,1.105,0.904,2.008,2.008,2.008h0.762V12.067z
				"/>
			<circle class="st0" cx="1.603" cy="17.925" r="0.837"/>
		</g>
		<path class="st1" d="M20.267,12.067l0.919,0c1.105,0,2.008,0.904,2.008,2.008v7.699c0,1.105-0.904,2.008-2.008,2.008l-0.919,0
			V12.067z"/>
		<path class="st0" d="M21.396,20.017v-4.184c0-0.184,0.151-0.335,0.335-0.335l0,0c0.184,0,0.335,0.151,0.335,0.335v4.184
			c0,0.184-0.151,0.335-0.335,0.335l0,0C21.546,20.351,21.396,20.201,21.396,20.017z"/>
	</g>
	<path class="st1" d="M9.749,5.397L7.127,2.775c-0.217-0.217-0.57-0.217-0.787,0s-0.217,0.57,0,0.787L7.618,4.84H6.734
		c-3.186,0-5.014,1.827-5.014,5.012c0,0.308,0.248,0.558,0.556,0.558c0.309,0,0.558-0.25,0.558-0.558c0-1.779,0.677-3.9,3.9-3.9
		h0.884L6.339,7.231c-0.217,0.217-0.217,0.57,0,0.787c0.109,0.109,0.251,0.163,0.394,0.163c0.142,0,0.285-0.054,0.393-0.163
		L9.749,5.397z"/>
	<path class="st1" d="M18.926,2.216h-4.184c-0.184,0-0.335-0.151-0.335-0.335v0c0-0.184,0.151-0.335,0.335-0.335h4.184
		c0.184,0,0.335,0.151,0.335,0.335v0C19.261,2.066,19.11,2.216,18.926,2.216z"/>
</g>
</svg>
