<?xml version="1.0" encoding="utf-8"?>
<!-- Generator: Adobe Illustrator 19.1.0, SVG Export Plug-In . SVG Version: 6.00 Build 0)  -->
<svg version="1.1" id="Layer_1" xmlns="http://www.w3.org/2000/svg" xmlns:xlink="http://www.w3.org/1999/xlink" x="0px" y="0px"
	 viewBox="0 0 48 48" enable-background="new 0 0 48 48" xml:space="preserve">
<g>
	<path fill="#535353" d="M14,11V5.853L0.967,20.605l4.347,5.009L14,35.357v-7.376c0-1.936,0.396-3.711,0.949-4.656
		c0.88-1.504,3.388-3.834,5.932-3.834c3.395,0,6.391-3.49,6.391-8.49H14z"/>
	<path fill="#262626" d="M31,5.798v8.851c0,4.888-2.598,8.851-6.474,8.851c-2.905,0-5.334,2.069-6.244,5.296
		C17.931,30.041,18.052,33,18.052,34h0.593h4.613h3.627H31l0,0v7.202l10.743-11.691l4.971-6.011L31,5.798z"/>
</g>
</svg>
