<?xml version="1.0" encoding="utf-8"?>
<!-- Generator: Adobe Illustrator 19.1.0, SVG Export Plug-In . SVG Version: 6.00 Build 0)  -->
<svg version="1.1" id="Layer_1" xmlns="http://www.w3.org/2000/svg" xmlns:xlink="http://www.w3.org/1999/xlink" x="0px" y="0px"
	 viewBox="0 0 32 32" style="enable-background:new 0 0 32 32;" xml:space="preserve">
<style type="text/css">
	.st0{fill:#0071C5;}
	.st1{fill:#FFFFFF;}
	.st2{fill:#005B93;}
	.st3{fill:none;}
</style>
<g id="Layer_1_1_">
	<g>
		<g>
			<g>
				<g>
					<path class="st0" d="M7.118,31.5c-1.93,0-3.5-1.57-3.5-3.5V4c0-1.93,1.57-3.5,3.5-3.5h15.207l6.293,6.293V28
						c0,1.93-1.57,3.5-3.5,3.5H7.118z"/>
					<path class="st1" d="M22.118,1l6,6v21c0,1.657-1.343,3-3,3h-18c-1.657,0-3-1.343-3-3V4c0-1.657,1.343-3,3-3H22.118 M22.532,0
						h-0.414h-15c-2.206,0-4,1.794-4,4v24c0,2.206,1.794,4,4,4h18c2.206,0,4-1.794,4-4V7V6.586l-0.293-0.293l-6-6L22.532,0L22.532,0
						z"/>
				</g>
			</g>
			<polygon class="st2" points="22.118,1 22.118,7 28.118,7 			"/>
		</g>
		<g>
			<polygon class="st3" points="19.263,15.905 12.973,15.905 10.003,19.855 22.232,19.855 			"/>
		</g>
	</g>
</g>
<path class="st2" d="M21.864,22.143c-0.917,0.099-2.787,0.217-3.819-0.307c-1.14-0.579-1.716-1.535-1.894-2.656l5.713,0.026v-2.899
	l-5.236-0.062c1.471-2.391,2.995-2.57,5.87-2.534v1.779l3.741-3.16l-3.741-3.238v1.746c-5.767-0.008-6.597,1.666-8.071,3.616
	c-1.245,1.646-3.666,1.734-3.666,1.734c-0.414-0.348-1.041-0.56-1.623-0.56c-1.315,0-2.382,1.066-2.382,2.382
	c0,1.315,1.066,2.382,2.382,2.382c0.746,0,1.526-0.378,1.967-0.915c0.376,0.011,2.476,0.136,3.021,2.115
	c0.571,2.073,3.46,3.955,7.738,3.604V22.143z"/>
<path class="st1" d="M21.485,21.474c-0.917,0.099-2.787,0.217-3.819-0.307c-1.14-0.579-1.716-1.535-1.894-2.656l5.713,0.026v-2.899
	l-5.236-0.062c1.471-2.391,2.995-2.57,5.87-2.534v1.779l3.741-3.16l-3.741-3.238v1.746c-5.767-0.008-6.597,1.666-8.071,3.616
	c-1.245,1.646-3.666,1.734-3.666,1.734c-0.414-0.348-1.041-0.56-1.623-0.56c-1.315,0-2.382,1.066-2.382,2.382
	c0,1.315,1.066,2.382,2.382,2.382c0.746,0,1.526-0.378,1.967-0.915c0.376,0.011,2.476,0.136,3.021,2.115
	c0.571,2.073,3.46,3.955,7.738,3.604V21.474z"/>
</svg>
