<?xml version="1.0" encoding="utf-8"?>
<!-- Generator: Adobe Illustrator 18.1.1, SVG Export Plug-In . SVG Version: 6.00 Build 0)  -->
<svg version="1.1" xmlns="http://www.w3.org/2000/svg" xmlns:xlink="http://www.w3.org/1999/xlink" x="0px" y="0px"
	 viewBox="0 0 24 24" enable-background="new 0 0 24 24" xml:space="preserve">
<g id="scan">
	<path fill="#333333" d="M0,15v4.916C0,21.202,0.685,24,4.414,24H6v-2.871C6,19.843,6.839,18,9.58,18h5.031
		C17.8,18,18,20.382,18,21.668V24h1.822C22.113,24,24,22.423,24,20.05V15H0z"/>
	<rect x="8" y="22" fill="#333333" width="8" height="2"/>
	<path fill="#333333" d="M23.882,5.824l0.002-0.008L1.402,0.043L1.392,0.08C1.271,0.029,1.139,0,1,0C0.448,0,0,0.448,0,1
		c0,0.523,0.406,0.94,0.919,0.984L16.56,6H3.259C1.404,6,0,7.293,0,8.731V13h24c0,0,0-6.599,0-7C24,5.851,23.976,5.814,23.882,5.824
		z"/>
</g>
<g id="stop" display="none">
	<g display="inline">
		<g>
			<g>
				<path fill="#333333" d="M12,24C5.383,24,0,18.617,0,12S5.383,0,12,0s12,5.383,12,12S18.617,24,12,24z M12,0.96
					C5.912,0.96,0.96,5.912,0.96,12c0,6.087,4.952,11.04,11.04,11.04c6.087,0,11.04-4.953,11.04-11.04
					C23.04,5.912,18.087,0.96,12,0.96z"/>
			</g>
		</g>
		<g>
			<path fill="#333333" d="M17.553,15.897l-3.854-3.854l3.631-3.631c0.464-0.464,0.464-1.223,0-1.686
				c-0.464-0.464-1.223-0.464-1.686,0l-3.631,3.631L8.159,6.503c-0.464-0.464-1.223-0.464-1.686,0c-0.463,0.464-0.464,1.223,0,1.686
				l3.854,3.854l-4.078,4.078c-0.464,0.464-0.464,1.223,0,1.686c0.464,0.464,1.223,0.464,1.686,0l4.078-4.078l3.854,3.854
				c0.464,0.464,1.223,0.464,1.686,0C18.017,17.12,18.017,16.361,17.553,15.897z"/>
		</g>
	</g>
</g>
<g id="configure_x5F_scaner" display="none">
	<path display="inline" fill="#333333" d="M23,11h-2.504c-0.203-1.605-0.845-3.071-1.809-4.273l1.798-1.798
		c0.391-0.391,0.391-1.024,0-1.414s-1.024-0.391-1.414,0l-1.81,1.81C16.056,4.385,14.597,3.759,13,3.573V1c0-0.552-0.448-1-1-1
		s-1,0.448-1,1v2.573C9.403,3.759,7.944,4.385,6.739,5.325l-1.81-1.81c-0.391-0.391-1.024-0.391-1.414,0s-0.391,1.024,0,1.414
		l1.798,1.798C4.35,7.929,3.707,9.395,3.504,11H1c-0.552,0-1,0.448-1,1s0.448,1,1,1h2.48c0.174,1.629,0.808,3.117,1.764,4.343
		l-1.729,1.729c-0.391,0.391-0.391,1.024,0,1.414s1.024,0.391,1.414,0l1.717-1.717c1.222,0.98,2.717,1.631,4.354,1.821V23
		c0,0.552,0.448,1,1,1s1-0.448,1-1v-2.41c1.637-0.191,3.132-0.841,4.355-1.821l1.716,1.717c0.391,0.391,1.024,0.391,1.414,0
		s0.391-1.024,0-1.414l-1.728-1.728c0.956-1.226,1.59-2.714,1.764-4.343H23c0.552,0,1-0.448,1-1S23.552,11,23,11z M12,18.653
		c-3.623,0-6.571-2.948-6.571-6.571C5.429,8.458,8.377,5.51,12,5.51s6.571,2.948,6.571,6.571C18.572,15.705,15.624,18.653,12,18.653
		z"/>
</g>
<g id="Layer_4" display="none">
	<g display="inline">
		<circle fill="#333333" cx="11.976" cy="7.02" r="4.828"/>
		<path fill="#333333" d="M23,0H1C0.448,0,0,0.448,0,1v22c0,0.552,0.448,1,1,1h22c0.552,0,1-0.448,1-1V1C24,0.448,23.552,0,23,0z
			 M23,1v18.674c-2.414-3.497-6.445-5.798-11.024-5.798C7.424,13.876,3.419,16.15,1,19.61V1H23z"/>
	</g>
</g>
<g id="Layer_9" display="none">
	<rect display="inline" fill="#333333" width="24" height="24"/>
</g>
<g id="Fit_page_to_window" display="none">
	<path display="inline" fill="#FFFFFF" d="M24,24H0V0h24V24z M1,23h22V1H1V23z"/>
	<polygon display="inline" fill="#FFFFFF" points="21.993,2.006 15.131,2 17.708,4.577 14.428,7.857 16.163,9.55 19.422,6.291 
		22,8.869 	"/>
	<polygon display="inline" fill="#FFFFFF" points="2.007,2.006 8.869,2 6.292,4.577 9.572,7.857 7.837,9.55 4.578,6.291 2,8.869 	
		"/>
	<polygon display="inline" fill="#FFFFFF" points="21.993,21.994 15.131,22 17.708,19.423 14.428,16.143 16.163,14.45 
		19.422,17.709 22,15.131 	"/>
	<polygon display="inline" fill="#FFFFFF" points="2.007,21.994 8.869,22 6.292,19.423 9.572,16.143 7.837,14.45 4.578,17.709 
		2,15.131 	"/>
</g>
<g id="Zoom_in_page">
</g>
<g id="Zoom_out">
</g>
<g id="full_resolution">
</g>
</svg>
