<?xml version="1.0" encoding="utf-8"?>
<!-- Generator: Adobe Illustrator 19.1.0, SVG Export Plug-In . SVG Version: 6.00 Build 0)  -->
<!DOCTYPE svg PUBLIC "-//W3C//DTD SVG 1.1//EN" "http://www.w3.org/Graphics/SVG/1.1/DTD/svg11.dtd">
<svg version="1.1" id="Layer_1" xmlns="http://www.w3.org/2000/svg" xmlns:xlink="http://www.w3.org/1999/xlink" x="0px" y="0px"
	 viewBox="-689.7 24.8 19 19" style="enable-background:new -689.7 24.8 19 19;" xml:space="preserve">
<style type="text/css">
	.st0{fill:#333333;}
</style>
<g>
	<g>
		<g>
			<path class="st0" d="M-671.2,43.8c-0.1,0-0.3,0-0.4-0.1l-5.3-5.3c-0.2-0.2-0.2-0.5,0-0.7s0.5-0.2,0.7,0l5.3,5.3
				c0.2,0.2,0.2,0.5,0,0.7C-670.9,43.8-671.1,43.8-671.2,43.8z"/>
		</g>
		<g>
			<path class="st0" d="M-682,40.3c-4.3,0-7.7-3.5-7.7-7.7s3.5-7.7,7.7-7.7s7.7,3.5,7.7,7.7S-677.7,40.3-682,40.3z M-682,25.8
				c-3.7,0-6.7,3-6.7,6.7c0,3.7,3,6.7,6.7,6.7s6.7-3,6.7-6.7C-675.2,28.9-678.3,25.8-682,25.8z"/>
		</g>
	</g>
</g>
</svg>
