<?xml version="1.0" encoding="utf-8"?>
<!-- Generator: Adobe Illustrator 19.1.0, SVG Export Plug-In . SVG Version: 6.00 Build 0)  -->
<!DOCTYPE svg PUBLIC "-//W3C//DTD SVG 1.1//EN" "http://www.w3.org/Graphics/SVG/1.1/DTD/svg11.dtd">
<svg version="1.1" id="Layer_1" xmlns="http://www.w3.org/2000/svg" xmlns:xlink="http://www.w3.org/1999/xlink" x="0px" y="0px"
	 viewBox="-3 5 16 16" enable-background="new -3 5 16 16" xml:space="preserve">
<path fill="#FFFFFF" d="M12.862,20.196l-4.43-4.43c0.989-1.142,1.592-2.627,1.592-4.254C10.024,7.921,7.103,5,3.512,5
	C-0.079,5-3,7.921-3,11.512s2.921,6.512,6.512,6.512c1.627,0,3.112-0.604,4.255-1.593l4.43,4.43C12.289,20.953,12.409,21,12.529,21
	c0.12,0,0.241-0.046,0.333-0.138C13.046,20.678,13.046,20.38,12.862,20.196z M3.512,17.083c-3.072,0-5.571-2.499-5.571-5.571
	S0.44,5.941,3.512,5.941s5.571,2.499,5.571,5.571S6.584,17.083,3.512,17.083z"/>
</svg>
