<?xml version="1.0" encoding="utf-8"?>
<!-- Generator: Adobe Illustrator 19.1.0, SVG Export Plug-In . SVG Version: 6.00 Build 0)  -->
<svg version="1.1" id="Layer_1" xmlns="http://www.w3.org/2000/svg" xmlns:xlink="http://www.w3.org/1999/xlink" x="0px" y="0px"
	 viewBox="0 0 24 24" enable-background="new 0 0 24 24" xml:space="preserve">
<g>
	<path fill="#333333" d="M12.448,3.016l2.614,5.297c0.073,0.148,0.214,0.25,0.377,0.274l5.845,0.849
		c0.41,0.06,0.574,0.564,0.277,0.853l-4.23,4.123c-0.117,0.115-0.171,0.28-0.143,0.443l0.998,5.821
		c0.07,0.409-0.358,0.72-0.725,0.528l-5.229-2.749c-0.145-0.077-0.319-0.077-0.465,0l-5.229,2.749
		c-0.366,0.192-0.795-0.119-0.725-0.528l0.999-5.821c0.027-0.163-0.026-0.328-0.144-0.443l-4.23-4.123
		C2.141,10,2.306,9.496,2.716,9.436l5.846-0.849c0.162-0.024,0.303-0.126,0.376-0.274l2.614-5.297
		C11.735,2.644,12.265,2.644,12.448,3.016"/>
</g>
</svg>
