<?xml version="1.0" encoding="utf-8"?>
<!-- Generator: Adobe Illustrator 21.0.0, SVG Export Plug-In . SVG Version: 6.00 Build 0)  -->
<svg version="1.1" id="Layer_1" xmlns="http://www.w3.org/2000/svg" xmlns:xlink="http://www.w3.org/1999/xlink" x="0px" y="0px"
	 viewBox="0 0 18 18" style="enable-background:new 0 0 18 18;" xml:space="preserve">
<style type="text/css">
	.st0{fill:#333333;}
</style>
<path class="st0" d="M15.853,15.146l-3.761-3.761c0.835-0.994,1.339-2.273,1.339-3.669C13.431,4.564,10.867,2,7.715,2
	C4.564,2,2,4.564,2,7.716s2.564,5.716,5.715,5.716c1.396,0,2.676-0.505,3.67-1.339l3.761,3.761C15.244,15.952,15.372,16,15.5,16
	s0.256-0.049,0.354-0.147C16.049,15.658,16.049,15.341,15.853,15.146z M7.715,12.43c-2.6,0-4.714-2.115-4.714-4.714
	s2.115-4.714,4.714-4.714s4.715,2.115,4.715,4.714S10.315,12.43,7.715,12.43z"/>
</svg>
