<?xml version="1.0" encoding="utf-8"?>
<!-- Generator: Adobe Illustrator 19.1.0, SVG Export Plug-In . SVG Version: 6.00 Build 0)  -->
<!DOCTYPE svg PUBLIC "-//W3C//DTD SVG 1.1//EN" "http://www.w3.org/Graphics/SVG/1.1/DTD/svg11.dtd">
<svg version="1.1" id="Layer_1" xmlns="http://www.w3.org/2000/svg" xmlns:xlink="http://www.w3.org/1999/xlink" x="0px" y="0px"
	 viewBox="0 0 24 24" enable-background="new 0 0 24 24" xml:space="preserve">
<g>
	<g>
		<rect x="0.96" fill="#FFFFFF" width="23.04" height="23.04"/>
		<path fill="#00806F" d="M24,24H0V0h24V24z M0.96,23.04h22.08V0.96H0.96V23.04z"/>
	</g>
	<g>
		<g>
			<path fill="#00806F" d="M9.52,21H8v-0.96h1.04V19H10v1.52C10,20.785,9.785,21,9.52,21z"/>
		</g>
		<g>
			<path fill="#00806F" d="M5,21H3.48C3.215,21,3,20.785,3,20.52V19h0.96v1.04H5V21z"/>
		</g>
		<g>
			<path fill="#00806F" d="M3.96,6H3V4.48C3,4.215,3.215,4,3.48,4H5v0.96H3.96V6z"/>
		</g>
		<rect x="3" y="16" fill="#00806F" width="1" height="2"/>
		<rect x="6" y="20" fill="#00806F" width="1" height="1"/>
		<rect x="6" y="4" fill="#00806F" width="1" height="1"/>
		<rect x="3" y="13" fill="#00806F" width="1" height="2"/>
		<rect x="3" y="10" fill="#00806F" width="1" height="2"/>
		<rect x="3" y="7" fill="#00806F" width="1" height="2"/>
		<g>
			<path fill="#00806F" d="M9.04,4.96H8V4h1.52C9.785,4,10,4.215,10,4.48V6H9.04V4.96z"/>
		</g>
		<rect x="9" y="16" fill="#00806F" width="1" height="2"/>
		<rect x="9" y="13" fill="#00806F" width="1" height="2"/>
		<rect x="9" y="10" fill="#00806F" width="1" height="2"/>
		<rect x="9" y="7" fill="#00806F" width="1" height="2"/>
	</g>
	<g>
		<g>
			<g>
				<path fill="#00806F" d="M20.52,21H19v-0.96h1.04V19H21v1.52C21,20.785,20.785,21,20.52,21z"/>
			</g>
			<g>
				<path fill="#00806F" d="M14,21h-1.52C12.215,21,12,20.785,12,20.52V19h0.96v1.04H14V21z"/>
			</g>
			<rect x="12" y="16" fill="#00806F" width="1" height="2"/>
			<rect x="15" y="10" fill="#00806F" width="3" height="1"/>
			<g>
				<path fill="#00806F" d="M12.96,12H12v-1.52c0-0.265,0.215-0.48,0.48-0.48H14v0.96h-1.04V12z"/>
			</g>
			<rect x="12" y="13" fill="#00806F" width="1" height="2"/>
			<rect x="12" y="10" fill="#00806F" width="1" height="2"/>
			<rect x="20" y="16" fill="#00806F" width="1" height="2"/>
			<rect x="20" y="13" fill="#00806F" width="1" height="2"/>
		</g>
		<g>
			<path fill="#00806F" d="M20.04,10.96H19V10h1.52c0.265,0,0.48,0.215,0.48,0.48V12h-0.96V10.96z"/>
		</g>
		<rect x="15" y="20" fill="#00806F" width="3" height="1"/>
	</g>
	<g>
		<g>
			<rect x="15" y="4" fill="#00806F" width="3" height="1"/>
			<g>
				<path fill="#00806F" d="M12.96,6H12V4.48C12,4.215,12.215,4,12.48,4H14v0.96h-1.04V6z"/>
			</g>
			<rect x="12" y="4" fill="#00806F" width="1" height="2"/>
		</g>
		<g>
			<path fill="#00806F" d="M20.04,4.96H19V4h1.52C20.785,4,21,4.215,21,4.48V6h-0.96V4.96z"/>
		</g>
		<g>
			<path fill="#00806F" d="M14,9h-1.52C12.215,9,12,8.785,12,8.52V7h0.96v1.04H14V9z"/>
		</g>
		<rect x="15" y="8" fill="#00806F" width="3" height="1"/>
		<g>
			<path fill="#00806F" d="M20.04,7H21v1.52C21,8.785,20.785,9,20.52,9H19V8.04h1.04V7z"/>
		</g>
	</g>
</g>
</svg>
