<?xml version="1.0" encoding="utf-8"?>
<!-- Generator: Adobe Illustrator 19.1.0, SVG Export Plug-In . SVG Version: 6.00 Build 0)  -->
<svg version="1.1" id="Layer_1" xmlns="http://www.w3.org/2000/svg" xmlns:xlink="http://www.w3.org/1999/xlink" x="0px" y="0px"
	 viewBox="0 0 32 32" style="enable-background:new 0 0 32 32;" xml:space="preserve">
<style type="text/css">
	.st0{fill:#00A389;}
	.st1{fill:#FFFFFF;}
	.st2{fill:#00795A;}
	.st3{fill:#E3992E;}
</style>
<g>
	<g>
		<g>
			<g>
				<g>
					<g>
						<path class="st0" d="M23.385,31.487H5.77c-2.158,0-4.241-1.737-4.241-3.872V4.385c0-2.135,2.083-3.872,4.241-3.872h15.332
							l6.524,6.453v20.649C27.625,29.75,25.543,31.487,23.385,31.487z"/>
						<path class="st1" d="M23.385,32H5.769c-2.532,0-4.754-2.049-4.754-4.385V4.385C1.016,2.049,3.237,0,5.769,0h15.543
							l6.827,6.752v20.863C28.139,29.951,25.917,32,23.385,32z M5.769,1.027c-1.951,0-3.727,1.601-3.727,3.358v23.23
							c0,1.757,1.776,3.358,3.727,3.358h17.616c1.951,0,3.727-1.601,3.727-3.358V7.18l-6.221-6.153H5.769z"/>
					</g>
				</g>
			</g>
			<polygon class="st2" points="20.922,1.097 20.922,7.206 27.099,7.206 			"/>
		</g>
	</g>
	<g>
		<g>
			<g>
				<rect x="12.277" y="8.603" class="st2" width="1.41" height="2.86"/>
			</g>
			<g>
				<polygon class="st2" points="19.107,8.603 19.107,11.463 17.687,11.463 17.697,8.603 				"/>
			</g>
			<g>
				<path class="st2" d="M19.987,14.603v3.67c0,0.43-0.36,0.78-0.79,0.78h-7.03c-0.42,0-0.78-0.36-0.78-0.79l0.01-3.66H19.987z"/>
			</g>
			<g>
				<polygon class="st2" points="21.097,11.463 21.097,13.593 10.277,13.583 10.287,11.463 				"/>
			</g>
		</g>
	</g>
	<g>
		<path class="st2" d="M8.073,26.567c-0.041-0.316-0.02-0.654,0.083-0.995c0.24-0.794,0.832-1.259,1.645-1.257
			c1.204,0.003,2.408,0.034,3.612,0.036c1.754,0.004,2.763-1.224,2.801-3.385c0.005-0.261,0.018-0.523,0.007-0.783
			c-0.002-0.054-0.002-0.105-0.001-0.153l-1.008-0.011c0.005,0.615,0.016,1.241-0.086,1.834c-0.141,0.815-0.781,1.307-1.537,1.305
			c-1.31-0.003-2.621-0.051-3.931-0.031c-1.585,0.023-2.697,1.626-2.549,3.439H8.073z"/>
	</g>
	<g>
		<g>
			<g>
				<rect x="11.687" y="8.02" class="st1" width="1.41" height="2.86"/>
			</g>
			<g>
				<polygon class="st1" points="18.517,8.02 18.517,10.88 17.097,10.88 17.107,8.02 				"/>
			</g>
			<g>
				<path class="st1" d="M19.397,14.02v3.67c0,0.43-0.36,0.78-0.79,0.78h-7.03c-0.42,0-0.78-0.36-0.78-0.79l0.01-3.66H19.397z"/>
			</g>
			<g>
				<polygon class="st1" points="20.507,10.88 20.507,13.01 9.687,13 9.697,10.88 				"/>
			</g>
		</g>
	</g>
	<g>
		<path class="st3" d="M25.041,18.469c1.195,1.827,5.22,1.319,5.443,2.578v4.757c0,2.606-2.924,4.816-5.442,5.614h0l-0.001,0h0
			l-0.001,0c-2.518-0.797-5.442-3.008-5.442-5.614v-4.757C19.822,19.788,23.847,20.295,25.041,18.469L25.041,18.469L25.041,18.469z"
			/>
		<path class="st1" d="M25.12,31.918l-0.231-0.023c-2.877-0.912-5.79-3.297-5.79-6.091v-4.757c0.17-1.007,1.261-1.242,2.523-1.516
			c1.161-0.251,2.477-0.536,3.001-1.336l0.418-0.64l0.418,0.64c0.524,0.8,1.84,1.085,3.001,1.336
			c1.264,0.273,2.354,0.509,2.517,1.429l0.008,4.844c0,2.794-2.913,5.179-5.79,6.091L25.12,31.918z M25.041,19.232
			c-0.831,0.763-2.13,1.043-3.207,1.276c-0.635,0.137-1.697,0.367-1.743,0.625l0.008,4.67c0,2.242,2.519,4.271,4.942,5.089
			c2.425-0.817,4.943-2.847,4.943-5.089v-4.757c-0.038-0.171-1.101-0.401-1.735-0.538C27.171,20.275,25.872,19.995,25.041,19.232z"
			/>
	</g>
	<g>
		<path class="st1" d="M6.52,26.033c-0.133-1.066,0.17-2.04,0.784-2.716c0.473-0.521,1.099-0.812,1.764-0.822l0.664-0.005
			c0.565,0,1.131,0.009,1.697,0.018c0.524,0.009,1.048,0.018,1.571,0.019c0.761,0,1.357-0.508,1.488-1.265
			c0.097-0.562,0.092-1.162,0.086-1.742l0-0.051l0.05-0.082l1.008,0.011c0.047,0.099,0.047,0.147,0.05,0.201
			c0.008,0.19,0.003,0.381-0.002,0.572l-0.005,0.213c-0.038,2.183-1.074,3.435-2.842,3.435c-0.611-0.001-1.213-0.01-1.815-0.018
			c-0.602-0.009-1.204-0.017-1.805-0.019c-0.783,0-1.362,0.445-1.597,1.221c-0.097,0.319-0.124,0.647-0.082,0.974l0.007,0.057H6.52z
			"/>
		<path class="st1" d="M14.623,19.437l1.008,0.011c-0.002,0.048-0.002,0.099,0.001,0.153c0.01,0.26-0.003,0.522-0.007,0.783
			c-0.037,2.158-1.044,3.385-2.793,3.385c-0.003,0-0.005,0-0.008,0c-1.204-0.003-2.408-0.033-3.612-0.036c-0.002,0-0.004,0-0.005,0
			c-0.81,0-1.4,0.465-1.639,1.257c-0.103,0.341-0.125,0.679-0.083,0.995H6.52c-0.148-1.813,0.964-3.415,2.549-3.439
			c0.219-0.003,0.438-0.005,0.657-0.005c1.091,0,2.183,0.034,3.274,0.036c0.001,0,0.003,0,0.004,0c0.754,0,1.393-0.492,1.533-1.305
			C14.639,20.678,14.628,20.052,14.623,19.437 M14.522,19.335l0.001,0.102l0.001,0.08c0.005,0.579,0.011,1.178-0.086,1.736
			c-0.126,0.731-0.703,1.222-1.435,1.222c-0.529-0.001-1.055-0.01-1.58-0.018c-0.566-0.009-1.132-0.018-1.697-0.018
			c-0.22,0-0.439,0.001-0.659,0.005c-0.679,0.01-1.318,0.308-1.8,0.838c-0.623,0.686-0.932,1.674-0.847,2.709l0.008,0.092H6.52
			h0.962h0.114l-0.015-0.113c-0.042-0.32-0.015-0.64,0.08-0.953c0.228-0.753,0.791-1.186,1.544-1.186
			c0.601,0.002,1.198,0.01,1.794,0.018c0.608,0.008,1.216,0.017,1.824,0.018c1.808,0,2.863-1.27,2.901-3.483l0.005-0.209
			c0.005-0.19,0.01-0.386,0.002-0.579c-0.002-0.051-0.002-0.099-0.001-0.145l0.004-0.103l-0.103-0.001l-1.008-0.011L14.522,19.335
			L14.522,19.335z"/>
	</g>
</g>
</svg>
