<?xml version="1.0" encoding="utf-8"?>
<!-- Generator: Adobe Illustrator 19.1.0, SVG Export Plug-In . SVG Version: 6.00 Build 0)  -->
<svg version="1.1" id="Layer_1" xmlns="http://www.w3.org/2000/svg" xmlns:xlink="http://www.w3.org/1999/xlink" x="0px" y="0px"
	 viewBox="0 0 32 32" style="enable-background:new 0 0 32 32;" xml:space="preserve">
<style type="text/css">
	.st0{fill:#00AF9A;}
	.st1{fill:#FFFFFF;}
	.st2{fill:#00896D;}
	.st3{fill:#E3992E;stroke:#FFFFFF;stroke-miterlimit:10;}
</style>
<g>
	<g>
		<g>
			<g>
				<path class="st0" d="M5.98,31.5c-1.93,0-3.5-1.57-3.5-3.5V4c0-1.93,1.57-3.5,3.5-3.5h15.207l6.293,6.293V28
					c0,1.93-1.57,3.5-3.5,3.5H5.98z"/>
				<path class="st1" d="M20.98,1l6,6v21c0,1.657-1.343,3-3,3h-18c-1.657,0-3-1.343-3-3V4c0-1.657,1.343-3,3-3H20.98 M21.394,0
					H20.98h-15c-2.206,0-4,1.794-4,4v24c0,2.206,1.794,4,4,4h18c2.206,0,4-1.794,4-4V7V6.586l-0.293-0.293l-6-6L21.394,0L21.394,0z"
					/>
			</g>
		</g>
		<polygon class="st2" points="20.98,1 20.98,7 26.98,7 		"/>
	</g>
	<g>
		<g>
			<path class="st2" d="M14.187,27.099l0.817-1.786l-2.238-1.035l3.141-6.795c2.2,0.36,4.446-0.766,5.428-2.881
				c1.168-2.547,0.059-5.571-2.488-6.739c-2.544-1.181-5.563-0.064-6.744,2.48c-0.977,2.123-0.375,4.554,1.326,5.993L8.8,26.365
				l2.477,1.146l0.671-1.447L14.187,27.099z M15.926,14.194c-0.951-0.438-1.371-1.564-0.934-2.515
				c0.438-0.951,1.57-1.364,2.52-0.926c0.951,0.438,1.371,1.564,0.926,2.52C18.001,14.224,16.877,14.632,15.926,14.194z"/>
		</g>
	</g>
	<g>
		<g>
			<path class="st1" d="M13.867,26.495l0.817-1.786l-2.238-1.035l3.141-6.795c2.2,0.36,4.446-0.766,5.428-2.881
				c1.168-2.547,0.059-5.571-2.488-6.739c-2.544-1.181-5.563-0.064-6.744,2.48c-0.977,2.123-0.375,4.554,1.326,5.993L8.48,25.761
				l2.477,1.146l0.671-1.447L13.867,26.495z M15.607,13.59c-0.951-0.438-1.371-1.564-0.934-2.515c0.438-0.951,1.57-1.364,2.52-0.926
				c0.951,0.438,1.371,1.564,0.926,2.52C17.681,13.62,16.557,14.027,15.607,13.59z"/>
		</g>
	</g>
	<path class="st3" d="M24.577,18.469c1.195,1.827,5.22,1.319,5.443,2.578v4.757c0,2.606-2.924,4.816-5.442,5.614h0l-0.001,0h0
		l-0.001,0c-2.518-0.797-5.442-3.008-5.442-5.614v-4.757C19.357,19.788,23.382,20.295,24.577,18.469L24.577,18.469L24.577,18.469z"
		/>
</g>
</svg>
