<?xml version="1.0" encoding="utf-8"?>
<!-- Generator: Adobe Illustrator 19.1.0, SVG Export Plug-In . SVG Version: 6.00 Build 0)  -->
<!DOCTYPE svg PUBLIC "-//W3C//DTD SVG 1.1//EN" "http://www.w3.org/Graphics/SVG/1.1/DTD/svg11.dtd">
<svg version="1.1" id="Layer_1" xmlns="http://www.w3.org/2000/svg" xmlns:xlink="http://www.w3.org/1999/xlink" x="0px" y="0px"
	 viewBox="0 0 24 24" enable-background="new 0 0 24 24" xml:space="preserve">
<g>
	<g id="separate_x5F_doc_copy">
		<path fill="#FFFFFF" d="M17.964,23.203c2.853,0,5.175-2.322,5.175-5.175c0.001-2.854-2.321-5.175-5.175-5.175
			s-5.175,2.321-5.175,5.175C12.789,20.881,15.11,23.203,17.964,23.203z"/>
		<path fill="#333333" d="M20.251,12.442c0-3.381,0-6.761,0-7.32c0-1.173-1.086-2.305-2.18-2.305c-0.502,0-1.608,0-2.926,0
			c0-0.238,0-0.418,0-0.512C15.145,1.132,14.06,0,12.966,0C11.186,0,1.893,0,1.893,0C0.848,0,0,0.848,0,1.893v15.146
			c0,1.045,0.848,1.893,1.893,1.893h3.213v0.924c0,1.045,0.848,1.893,1.893,1.893h6.324l0,0C14.424,23.119,16.11,24,18,24
			c3.308,0,6-2.692,6-6C24,15.488,22.446,13.335,20.251,12.442z M5.106,4.71c0-0.037,0.009-0.072,0.011-0.108H3.313v0.947h1.793
			v3.444H3.313V9.94h1.793v3.444H3.313v0.947h1.793v3.655H1.893c-0.522,0-0.947-0.425-0.947-0.947V1.893
			c0-0.522,0.425-0.947,0.947-0.947c0,0,10.278,0,10.732,0l0.001,0.001c0.005,0,0.01-0.001,0.015-0.001
			c0.861,0,1.558,0.698,1.558,1.558c0,0.066-0.012,0.13-0.02,0.194l0.02,0.023c0,0.026,0,0.063,0,0.096c-3.245,0-7.2,0-7.2,0
			C5.954,2.817,5.106,3.665,5.106,4.71z M6.998,20.803c-0.522,0-0.947-0.425-0.947-0.947V4.71c0-0.522,0.425-0.947,0.947-0.947
			c0,0,10.278,0,10.732,0l0.001,0.001c0.005,0,0.01-0.001,0.015-0.001c0.861,0,1.558,0.698,1.558,1.558
			c0,0.066-0.012,0.13-0.02,0.194l0.02,0.023c0,0.643,0,3.568,0,6.609l0,0C18.884,12.053,18.448,12,18,12
			c-0.363,0-0.718,0.038-1.063,0.1l0,0v-0.291H8.418v0.947h6.674c-1.329,0.74-2.351,1.969-2.815,3.444l0,0H8.418v0.947h3.65
			C12.028,17.426,12,17.71,12,18c0,1.012,0.254,1.966,0.699,2.803C12.699,20.803,6.998,20.803,6.998,20.803z M17.964,23.203
			c-2.854,0-5.175-2.322-5.175-5.175c0-2.854,2.321-5.175,5.175-5.175s5.176,2.321,5.175,5.175
			C23.139,20.881,20.817,23.203,17.964,23.203z"/>
		<path fill="#FFFFFF" d="M15.092,12.756H8.418v-0.947h8.519V12.1l0,0c0.345-0.062,0.7-0.1,1.063-0.1
			c0.448,0,0.884,0.053,1.304,0.147l0,0c0-3.041,0-5.966,0-6.609l-0.02-0.023c0.008-0.064,0.02-0.128,0.02-0.194
			c0-0.86-0.697-1.558-1.558-1.558c-0.005,0-0.01,0.001-0.015,0.001L17.73,3.763c-0.454,0-10.732,0-10.732,0
			c-0.522,0-0.947,0.425-0.947,0.947v15.146c0,0.522,0.425,0.947,0.947,0.947h5.701C12.254,19.966,12,19.012,12,18
			c0-0.29,0.028-0.574,0.068-0.853h-3.65V16.2h3.859l0,0C12.742,14.725,13.763,13.496,15.092,12.756z"/>
		<rect x="8.418" y="7.418" fill="#333333" width="8.519" height="0.947"/>
		<g>
			<path fill="#333333" d="M20.777,19.949l-1.927-1.927l1.815-1.815c0.232-0.232,0.232-0.611,0-0.843
				c-0.232-0.232-0.611-0.232-0.843,0l-1.815,1.815l-1.927-1.927c-0.232-0.232-0.611-0.232-0.843,0s-0.232,0.611,0,0.843
				l1.927,1.927l-2.039,2.039c-0.232,0.232-0.232,0.611,0,0.843s0.611,0.232,0.843,0l2.039-2.039l1.927,1.927
				c0.232,0.232,0.611,0.232,0.843,0C21.008,20.56,21.008,20.18,20.777,19.949z"/>
		</g>
	</g>
	<g>
		<path fill="#FFFFFF" d="M6.999,2.817c0,0,3.955,0,7.2,0c0-0.033,0-0.07,0-0.096l-0.02-0.023c0.008-0.064,0.02-0.128,0.02-0.194
			c0-0.86-0.697-1.558-1.558-1.558c-0.005,0-0.01,0.001-0.015,0.001l-0.001-0.001c-0.454,0-10.732,0-10.732,0
			c-0.522,0-0.947,0.425-0.947,0.947v15.146c0,0.522,0.425,0.947,0.947,0.947h3.213v-3.655H3.313v-0.947h1.793V9.94H3.313V8.993
			h1.793V5.549H3.313V4.602h1.804C5.115,4.638,5.106,4.673,5.106,4.71C5.106,3.665,5.954,2.817,6.999,2.817z"/>
	</g>
</g>
</svg>
