<?xml version="1.0" encoding="utf-8"?>
<!-- Generator: Adobe Illustrator 19.1.0, SVG Export Plug-In . SVG Version: 6.00 Build 0)  -->
<!DOCTYPE svg PUBLIC "-//W3C//DTD SVG 1.1//EN" "http://www.w3.org/Graphics/SVG/1.1/DTD/svg11.dtd">
<svg version="1.1" id="Layer_1" xmlns="http://www.w3.org/2000/svg" xmlns:xlink="http://www.w3.org/1999/xlink" x="0px" y="0px"
	 viewBox="0 0 24 24" enable-background="new 0 0 24 24" xml:space="preserve">
<g id="ROT_x5F_left">
	<g>
		<g>
			<path fill="#333333" d="M23.457,5.293l-5-5L18.164,0h-5.475c0.029,0.001,0.048,0.014,0.076,0.017
				c0.055-0.002,0.108-0.009,0.163-0.01l0.027-0.004l0.051,0.008V0.003l0.009,0.009l0.045,0.004C13.569,0.071,13.953,0.494,13.954,1
				h3.796l5,5v14c0,1.657-1.343,3-3,3h-12c-1.657,0-3-1.343-3-3v-7.178l-0.273,0.273c-0.179,0.179-0.413,0.281-0.71,0.288
				L3.75,13.385V20c0,2.206,1.794,4,4,4h12c2.206,0,4-1.794,4-4V5.586L23.457,5.293z"/>
			<g>
				<g>
					<rect x="6.75" y="13" fill="#333333" width="14" height="1"/>
				</g>
				<rect x="6.75" y="7" fill="#333333" width="11" height="1"/>
			</g>
			<rect x="6.75" y="16" fill="#333333" width="14" height="1"/>
		</g>
	</g>
	<g>
		<path fill="#333333" d="M0.397,9.054c0.195-0.195,0.512-0.195,0.707,0L3.19,11.14c-0.021-0.245-0.035-0.492-0.035-0.742
			c0-5.418,4.377-9.827,9.78-9.891c0.007,0,0.013-0.004,0.019-0.004c0.004,0,0.007,0.002,0.011,0.002
			c0.014,0,0.027-0.002,0.041-0.002v0.01c0.251,0.027,0.448,0.232,0.448,0.49s-0.198,0.463-0.448,0.49v0.01
			c-4.885,0.026-8.851,4.005-8.851,8.895c0,0.287,0.019,0.57,0.048,0.85l2.194-2.194c0.195-0.195,0.512-0.195,0.707,0
			s0.195,0.512,0,0.707l-2.98,2.98c-0.098,0.098-0.226,0.146-0.354,0.146c-0.007,0-0.013-0.004-0.02-0.004
			c-0.007,0-0.013,0.004-0.02,0.004c-0.128,0-0.256-0.049-0.354-0.146l-2.98-2.98C0.201,9.565,0.201,9.249,0.397,9.054z"/>
	</g>
	<g>
		<g>
			<polygon fill="#FFFFFF" points="12.982,0.007 12.955,0.003 12.928,0.007 12.92,0.008 			"/>
			<polygon fill="#FFFFFF" points="13.01,0.007 13.006,0.003 13.006,0.007 			"/>
			<path fill="#FFFFFF" d="M13.686,0.33c0.013,0.014,0.022,0.031,0.034,0.045C13.708,0.36,13.699,0.344,13.686,0.33z"/>
			<path fill="#FFFFFF" d="M4.164,13.304c0.11-0.045,0.205-0.113,0.29-0.194C4.368,13.192,4.271,13.258,4.164,13.304z"/>
			<path fill="#FFFFFF" d="M13.893,0.68c-0.01-0.028-0.021-0.054-0.033-0.081C13.872,0.625,13.883,0.652,13.893,0.68z"/>
			<path fill="#FFFFFF" d="M17.75,1h-3.796c0-0.002-0.001-0.004-0.001-0.006c0,0.003,0.001,0.006,0.001,0.008
				c0,0.343-0.176,0.649-0.448,0.828v0.16l-0.497,0.012c-4.501,0.024-8.182,3.62-8.348,8.08l1.382-1.382
				c0.189-0.189,0.44-0.293,0.707-0.293c0.268,0,0.519,0.104,0.708,0.293c0.371,0.371,0.377,0.959,0.041,1.352
				c0.01-0.018,0.023-0.036,0.035-0.053H17.75v1h-11v-0.178l-2,2V20c0,1.657,1.343,3,3,3h12c1.657,0,3-1.343,3-3V6L17.75,1z M6.75,8
				V7h11v1H6.75z M20.75,17h-14v-1h14V17z M20.75,14h-14v-1h14V14z"/>
		</g>
		<path fill="#333333" d="M0.397,9.054c0.195-0.195,0.512-0.195,0.707,0L3.19,11.14c-0.021-0.245-0.035-0.492-0.035-0.742
			c0-5.418,4.377-9.827,9.78-9.891c0.007,0,0.013-0.004,0.019-0.004c0.004,0,0.007,0.002,0.011,0.002
			c0.014,0,0.027-0.002,0.041-0.002v0.01c0.251,0.027,0.448,0.232,0.448,0.49s-0.198,0.463-0.448,0.49v0.01
			c-4.885,0.026-8.851,4.005-8.851,8.895c0,0.287,0.019,0.57,0.048,0.85l2.194-2.194c0.195-0.195,0.512-0.195,0.707,0
			s0.195,0.512,0,0.707l-2.98,2.98c-0.098,0.098-0.226,0.146-0.354,0.146c-0.007,0-0.013-0.004-0.02-0.004
			c-0.007,0-0.013,0.004-0.02,0.004c-0.128,0-0.256-0.049-0.354-0.146l-2.98-2.98C0.201,9.565,0.201,9.249,0.397,9.054z"/>
	</g>
	<path fill="#333333" d="M7.534,10c-0.028,0.037-0.043,0.081-0.077,0.115L6.75,10.822V11h11v-1H7.534z"/>
</g>
</svg>
