<?xml version="1.0" encoding="utf-8"?>
<!-- Generator: Adobe Illustrator 19.1.0, SVG Export Plug-In . SVG Version: 6.00 Build 0)  -->
<svg version="1.1" id="Layer_1" xmlns="http://www.w3.org/2000/svg" xmlns:xlink="http://www.w3.org/1999/xlink" x="0px" y="0px"
	 viewBox="0 0 32 32" style="enable-background:new 0 0 32 32;" xml:space="preserve">
<style type="text/css">
	.st0{fill:#9370B1;}
	.st1{fill:#FFFFFF;}
	.st2{fill:#7E5A8B;}
	.st3{fill:#333333;}
</style>
<g>
	<g>
		<g>
			<g>
				<path class="st0" d="M25.414,31.487H7.799c-2.158,0-4.241-1.737-4.241-3.872V4.385c0-2.135,2.083-3.872,4.241-3.872H23.13
					l6.524,6.453v20.649C29.655,29.75,27.572,31.487,25.414,31.487z"/>
				<path class="st1" d="M25.414,32H7.798c-2.532,0-4.754-2.049-4.754-4.385V4.385C3.045,2.049,5.266,0,7.798,0h15.543l6.827,6.752
					v20.863C30.168,29.951,27.947,32,25.414,32z M7.798,1.027c-1.951,0-3.727,1.601-3.727,3.358v23.23
					c0,1.757,1.776,3.358,3.727,3.358h17.616c1.951,0,3.727-1.601,3.727-3.358V7.18L22.92,1.027H7.798z"/>
			</g>
		</g>
	</g>
	<polygon class="st2" points="22.951,1.097 22.951,7.206 29.128,7.206 	"/>
</g>
<g>
	<g>
		<polygon class="st2" points="9.658,11.867 10.654,10.642 13.036,9.9 14.844,9.723 17.886,9.12 21.405,9.928 24.198,10.726 
			25.324,12.024 25.216,25.801 24.133,26.831 21.145,27.387 17.951,28.12 15.049,27.462 11.606,26.924 9.733,25.95 9.549,25.235 		
			"/>
		<path class="st2" d="M25.802,12.176c0.109-1.163-1.113-1.923-2.236-2.255c-0.842-0.259-1.706-0.444-2.581-0.573
			c-0.072-0.011-0.143-0.022-0.215-0.032c-1.08-0.146-2.177-0.203-3.274-0.195c-1.097-0.008-2.194,0.049-3.274,0.195
			c-0.072,0.01-0.143,0.021-0.215,0.032c-0.875,0.128-1.739,0.314-2.581,0.573c-1.123,0.332-2.232,1.006-2.236,2.255
			c0.077,4.292-0.013,8.594,0,12.892c-0.113,1.176,1.142,1.931,2.278,2.261c0.831,0.239,1.68,0.418,2.539,0.547
			c0.101,0.015,0.203,0.031,0.304,0.045c1.052,0.141,2.117,0.203,3.183,0.199c1.066,0.004,2.132-0.059,3.183-0.2
			c0.102-0.014,0.203-0.03,0.304-0.045c0.859-0.128,1.708-0.307,2.539-0.547c1.136-0.33,2.303-1.101,2.278-2.261
			C25.815,20.77,25.768,16.456,25.802,12.176z M12.11,10.58c0.624-0.165,1.258-0.314,1.899-0.411
			c1.146-0.173,2.312-0.257,3.479-0.257c0.003,0,0.006,0,0.009,0c0.003,0,0.006,0,0.009,0c1.167,0,2.333,0.084,3.479,0.257
			c0.64,0.097,1.275,0.235,1.899,0.4c0.769,0.249,1.799,0.553,1.973,1.35c-0.129,0.651-0.911,0.947-1.529,1.182
			c-0.767,0.224-1.55,0.396-2.343,0.519c-1.149,0.179-2.318,0.256-3.488,0.25c-1.17,0.007-2.339-0.07-3.488-0.249
			c-0.793-0.123-1.576-0.293-2.343-0.517c-0.617-0.235-1.399-0.529-1.528-1.18C10.311,11.128,11.341,10.829,12.11,10.58z
			 M24.756,25.822c-0.911,0.861-2.356,1.02-3.608,1.241c-0.055,0.007-0.11,0.012-0.164,0.019c-1.155,0.146-2.321,0.216-3.488,0.212
			c-1.167,0.004-2.333-0.066-3.488-0.212c-0.055-0.007-0.11-0.012-0.164-0.019c-1.252-0.221-2.697-0.38-3.608-1.241
			c-0.203-1.191-0.029-2.406-0.097-3.605c1.102,0.766,2.503,1.042,3.868,1.222c0.055,0.007,0.11,0.015,0.164,0.022
			c1.05,0.121,2.107,0.183,3.164,0.19c0.053,0,0.106,0.002,0.16,0.002c0.053,0,0.106-0.002,0.16-0.002
			c1.057-0.007,2.114-0.07,3.164-0.19c0.055-0.007,0.11-0.015,0.164-0.022c1.365-0.179,2.767-0.456,3.868-1.222
			C24.785,23.416,24.958,24.632,24.756,25.822z M10.14,17.746c1.099,0.768,2.502,1.041,3.868,1.223
			c0.05,0.007,0.101,0.014,0.151,0.021c1.04,0.119,2.088,0.181,3.136,0.19c0.067,0,0.134,0.002,0.201,0.002
			c0.067,0,0.134-0.002,0.201-0.002c1.048-0.008,2.096-0.07,3.136-0.19c0.05-0.006,0.101-0.014,0.151-0.021
			c1.366-0.182,2.77-0.455,3.868-1.223c-0.065,1.199,0.1,2.409-0.09,3.6c-0.563,0.598-1.477,0.811-2.298,1.015
			c-0.49,0.101-0.984,0.179-1.48,0.245c-1.063,0.143-2.138,0.211-3.215,0.215c-0.091,0-0.182,0.002-0.272,0.002
			c-0.091,0-0.182-0.002-0.272-0.002c-1.077-0.004-2.152-0.072-3.215-0.215c-0.496-0.066-0.991-0.144-1.48-0.245
			c-0.821-0.204-1.735-0.416-2.298-1.015C10.04,20.155,10.205,18.945,10.14,17.746z M24.756,16.882
			c-0.576,0.595-1.49,0.807-2.314,1.012c-0.482,0.099-0.969,0.175-1.458,0.24c-1.065,0.143-2.141,0.21-3.219,0.214
			c-0.089,0-0.179,0.002-0.269,0.002c-0.089,0-0.179-0.001-0.269-0.002c-1.078-0.004-2.155-0.071-3.219-0.214
			c-0.488-0.065-0.976-0.141-1.458-0.24c-0.824-0.204-1.738-0.416-2.314-1.012c-0.206-1.191-0.026-2.406-0.097-3.608
			c1.1,0.768,2.505,1.041,3.868,1.223c0.057,0.008,0.114,0.016,0.171,0.023c1.037,0.118,2.082,0.179,3.127,0.186
			c0.064,0,0.127,0.002,0.191,0.002c0.064,0,0.127-0.002,0.191-0.002c1.045-0.008,2.09-0.068,3.127-0.186
			c0.057-0.007,0.114-0.016,0.171-0.023c1.363-0.182,2.768-0.456,3.868-1.223C24.781,14.476,24.962,15.692,24.756,16.882z"/>
	</g>
	<g>
		<polygon class="st1" points="8.998,11.137 9.994,9.913 12.376,9.171 14.184,8.994 17.226,8.391 20.745,9.198 23.538,9.996 
			24.664,11.295 24.556,25.072 23.473,26.101 20.485,26.658 17.291,27.391 14.389,26.732 10.947,26.194 9.073,25.22 8.889,24.506 		
			"/>
		<path class="st0" d="M25.142,11.447c0.109-1.163-1.113-1.923-2.236-2.255c-0.842-0.259-1.706-0.444-2.581-0.573
			c-0.072-0.011-0.143-0.022-0.215-0.032c-1.08-0.146-2.177-0.203-3.274-0.195c-1.097-0.008-2.194,0.049-3.274,0.195
			c-0.072,0.01-0.143,0.021-0.215,0.032c-0.875,0.128-1.739,0.314-2.581,0.573c-1.123,0.332-2.232,1.006-2.236,2.255
			c0.077,4.292-0.013,8.594,0,12.892C8.418,25.516,9.674,26.27,10.81,26.6c0.831,0.239,1.68,0.418,2.539,0.547
			c0.101,0.015,0.203,0.031,0.304,0.045c1.052,0.141,2.117,0.203,3.183,0.199c1.066,0.004,2.132-0.059,3.183-0.2
			c0.102-0.014,0.203-0.03,0.304-0.045c0.859-0.128,1.708-0.307,2.539-0.547c1.136-0.33,2.303-1.101,2.278-2.261
			C25.155,20.04,25.109,15.726,25.142,11.447z M11.45,9.851c0.624-0.165,1.258-0.314,1.899-0.411
			c1.146-0.173,2.312-0.257,3.479-0.257c0.003,0,0.006,0,0.009,0c0.003,0,0.006,0,0.009,0c1.167,0,2.333,0.084,3.479,0.257
			c0.64,0.097,1.275,0.235,1.899,0.4c0.769,0.249,1.799,0.553,1.973,1.35c-0.129,0.651-0.911,0.947-1.529,1.182
			c-0.767,0.224-1.55,0.396-2.343,0.519c-1.149,0.179-2.318,0.256-3.488,0.25c-1.17,0.007-2.339-0.07-3.488-0.249
			c-0.793-0.123-1.576-0.293-2.343-0.517c-0.617-0.235-1.399-0.529-1.528-1.18C9.651,10.398,10.681,10.1,11.45,9.851z
			 M24.096,25.093c-0.911,0.861-2.356,1.02-3.608,1.241c-0.055,0.007-0.11,0.012-0.164,0.019c-1.155,0.146-2.321,0.216-3.488,0.212
			c-1.167,0.004-2.333-0.066-3.488-0.212c-0.055-0.007-0.11-0.012-0.164-0.019c-1.252-0.221-2.697-0.38-3.608-1.241
			c-0.203-1.191-0.029-2.406-0.097-3.605c1.102,0.766,2.503,1.042,3.868,1.222c0.055,0.007,0.11,0.015,0.164,0.022
			c1.05,0.121,2.107,0.183,3.164,0.19c0.053,0,0.106,0.002,0.16,0.002c0.053,0,0.106-0.002,0.16-0.002
			c1.057-0.007,2.114-0.07,3.164-0.19c0.055-0.007,0.11-0.015,0.164-0.022c1.365-0.179,2.767-0.456,3.868-1.222
			C24.125,22.687,24.299,23.903,24.096,25.093z M9.48,17.016c1.099,0.768,2.502,1.041,3.868,1.223
			c0.05,0.007,0.101,0.014,0.151,0.021c1.04,0.119,2.088,0.181,3.136,0.19c0.067,0,0.134,0.002,0.201,0.002
			c0.067,0,0.134-0.002,0.201-0.002c1.048-0.008,2.096-0.07,3.136-0.19c0.05-0.006,0.101-0.014,0.151-0.021
			c1.366-0.182,2.77-0.455,3.868-1.223c-0.065,1.199,0.1,2.409-0.09,3.6c-0.563,0.598-1.477,0.811-2.298,1.015
			c-0.49,0.101-0.984,0.179-1.48,0.245c-1.063,0.143-2.138,0.211-3.215,0.215c-0.091,0-0.182,0.002-0.272,0.002
			c-0.091,0-0.182-0.002-0.272-0.002c-1.077-0.004-2.152-0.072-3.215-0.215c-0.496-0.066-0.991-0.144-1.48-0.245
			c-0.821-0.204-1.735-0.416-2.298-1.015C9.381,19.425,9.545,18.215,9.48,17.016z M24.096,16.153
			c-0.576,0.595-1.49,0.807-2.314,1.012c-0.482,0.099-0.969,0.175-1.458,0.24c-1.065,0.143-2.141,0.21-3.219,0.214
			c-0.089,0-0.179,0.002-0.269,0.002c-0.089,0-0.179-0.001-0.269-0.002c-1.078-0.004-2.155-0.071-3.219-0.214
			c-0.488-0.065-0.976-0.141-1.458-0.24c-0.824-0.204-1.738-0.416-2.314-1.012C9.37,14.962,9.55,13.747,9.48,12.545
			c1.1,0.768,2.505,1.041,3.868,1.223c0.057,0.008,0.114,0.016,0.171,0.023c1.037,0.118,2.082,0.179,3.127,0.186
			c0.064,0,0.127,0.002,0.191,0.002c0.064,0,0.127-0.002,0.191-0.002c1.045-0.008,2.09-0.068,3.127-0.186
			c0.057-0.007,0.114-0.016,0.171-0.023c1.363-0.182,2.768-0.456,3.868-1.223C24.122,13.747,24.302,14.962,24.096,16.153z"/>
	</g>
	<g>
		<g>
			<path class="st3" d="M13.064,28.941c2.601,0,4.716-2.115,4.716-4.716s-2.115-4.716-4.716-4.716s-4.716,2.115-4.716,4.716
				S10.463,28.941,13.064,28.941"/>
			<path class="st1" d="M8.064,24.225c0-2.757,2.243-5,5-5s5,2.243,5,5s-2.243,5-5,5S8.064,26.982,8.064,24.225z M8.631,24.225
				c0,2.444,1.989,4.433,4.433,4.433s4.433-1.989,4.433-4.433s-1.989-4.433-4.433-4.433S8.631,21.781,8.631,24.225z"/>
		</g>
		<path class="st1" d="M15.982,23.893l-1.021,2.406c-0.085,0.2-0.315,0.293-0.515,0.208c-0.2-0.085-0.293-0.315-0.208-0.515
			l0.498-1.172l-0.577,0.233c-2.082,0.841-3.759,0.13-4.6-1.952c-0.081-0.201,0.015-0.43,0.217-0.511
			c0.202-0.082,0.43,0.016,0.512,0.217c0.47,1.163,1.472,2.37,3.578,1.519l0.577-0.233l-1.172-0.498
			c-0.2-0.085-0.293-0.315-0.208-0.515c0.042-0.1,0.121-0.173,0.215-0.211c0.093-0.037,0.2-0.04,0.3,0.003L15.982,23.893z"/>
	</g>
</g>
</svg>
