<?xml version="1.0" encoding="utf-8"?>
<!-- Generator: Adobe Illustrator 19.1.0, SVG Export Plug-In . SVG Version: 6.00 Build 0)  -->
<svg version="1.1" id="Layer_1" xmlns="http://www.w3.org/2000/svg" xmlns:xlink="http://www.w3.org/1999/xlink" x="0px" y="0px"
	 viewBox="0 0 24 24" style="enable-background:new 0 0 24 24;" xml:space="preserve">
<style type="text/css">
	.st0{fill:#00A389;}
	.st1{fill:#FFFFFF;}
	.st2{fill:#9370B1;}
	.st3{fill:none;stroke:#FFFFFF;stroke-linecap:round;stroke-linejoin:round;}
</style>
<g>
	<g>
		<g>
			<g>
				<path class="st0" d="M17.953,15.434c-1.041,0-1.968,0.457-2.616,1.171l-7.235-3.992c0.143-0.384,0.233-0.796,0.233-1.229
					c0-0.434-0.09-0.845-0.233-1.23l7.235-3.992c0.648,0.714,1.575,1.171,2.616,1.171c1.957,0,3.543-1.586,3.543-3.543
					s-1.586-3.543-3.543-3.543c-1.957,0-3.543,1.586-3.543,3.543c0,0.185,0.027,0.364,0.054,0.542L6.867,8.524
					C6.283,8.099,5.569,7.84,4.791,7.84c-1.957,0-3.543,1.586-3.543,3.544c0,1.957,1.586,3.543,3.543,3.543
					c0.778,0,1.492-0.258,2.076-0.683l7.598,4.192c-0.027,0.177-0.054,0.355-0.054,0.541c0,1.958,1.586,3.544,3.543,3.544
					s3.543-1.586,3.543-3.544C21.497,17.021,19.91,15.434,17.953,15.434"/>
				<path class="st1" d="M17.953,22.77c-2.091,0-3.791-1.701-3.791-3.792c0-0.141,0.014-0.279,0.032-0.408l-7.312-4.035
					c-0.627,0.419-1.347,0.641-2.091,0.641C2.7,15.176,1,13.475,1,11.385c0-2.091,1.7-3.792,3.791-3.792
					c0.744,0,1.464,0.221,2.091,0.64l7.312-4.034c-0.018-0.131-0.032-0.266-0.032-0.408c0-2.09,1.7-3.791,3.791-3.791
					s3.791,1.701,3.791,3.791s-1.7,3.791-3.791,3.791c-0.993,0-1.951-0.402-2.663-1.109l-6.886,3.799
					c0.118,0.374,0.178,0.748,0.178,1.113c0,0.366-0.06,0.739-0.178,1.113l6.886,3.799c0.711-0.708,1.671-1.111,2.663-1.111
					c2.091,0,3.791,1.701,3.791,3.792S20.044,22.77,17.953,22.77z M6.848,13.951l7.887,4.352l-0.026,0.171
					c-0.025,0.164-0.051,0.331-0.051,0.504c0,1.818,1.479,3.297,3.296,3.297c1.817,0,3.296-1.479,3.296-3.297
					c0-1.818-1.479-3.297-3.296-3.297c-0.931,0-1.795,0.388-2.432,1.09l-0.131,0.145l-7.594-4.19l0.074-0.199
					c0.144-0.386,0.216-0.77,0.216-1.143c0-0.373-0.072-0.757-0.216-1.144l-0.074-0.2l7.594-4.189l0.131,0.145
					c0.637,0.703,1.501,1.089,2.432,1.089c1.817,0,3.296-1.478,3.296-3.296s-1.479-3.296-3.296-3.296
					c-1.817,0-3.296,1.478-3.296,3.296c0,0.173,0.026,0.337,0.051,0.503l0.026,0.171l-0.151,0.085L6.848,8.816L6.721,8.724
					c-0.571-0.416-1.239-0.636-1.93-0.636c-1.817,0-3.296,1.479-3.296,3.297c0,1.817,1.479,3.296,3.296,3.296
					c0.691,0,1.359-0.22,1.93-0.637L6.848,13.951z"/>
			</g>
		</g>
	</g>
	<g>
		<g>
			<g>
				<path class="st2" d="M18.032,23.712c-2.637,0-4.782-2.145-4.782-4.782s2.145-4.782,4.782-4.782s4.782,2.145,4.782,4.782
					S20.669,23.712,18.032,23.712L18.032,23.712z"/>
				<path class="st1" d="M12.963,18.931c0-2.795,2.274-5.069,5.069-5.069s5.069,2.274,5.069,5.069S20.827,24,18.032,24
					S12.963,21.726,12.963,18.931z M13.538,18.931c0,2.478,2.016,4.494,4.494,4.494s4.494-2.016,4.494-4.494
					s-2.016-4.494-4.494-4.494S13.538,16.453,13.538,18.931z"/>
			</g>
		</g>
		<g>
			<g>
				<line class="st3" x1="16.98" y1="18.931" x2="21.398" y2="18.931"/>
				<g>
					<polygon class="st1" points="17.339,16.258 17.339,21.603 14.667,18.931 					"/>
				</g>
			</g>
		</g>
	</g>
</g>
</svg>
