<?xml version="1.0" encoding="utf-8"?>
<!-- Generator: Adobe Illustrator 19.1.0, SVG Export Plug-In . SVG Version: 6.00 Build 0)  -->
<svg version="1.1" id="Layer_1" xmlns="http://www.w3.org/2000/svg" xmlns:xlink="http://www.w3.org/1999/xlink" x="0px" y="0px"
	 viewBox="0 0 32 32" style="enable-background:new 0 0 32 32;" xml:space="preserve">
<style type="text/css">
	.st0{fill:#0072AA;}
	.st1{fill:#FFFFFF;}
	.st2{fill:#004B71;}
	.st3{fill:none;stroke:#0072AA;stroke-miterlimit:10;}
</style>
<g>
	<g>
		<g>
			<g>
				<g>
					<path class="st0" d="M24.808,31.487H7.192c-2.158,0-4.241-1.737-4.241-3.872V4.385c0-2.135,2.083-3.872,4.241-3.872h15.332
						l6.524,6.453v20.649C29.048,29.75,26.966,31.487,24.808,31.487z"/>
					<path class="st1" d="M24.808,32H7.192c-2.532,0-4.754-2.049-4.754-4.385V4.385C2.438,2.049,4.66,0,7.192,0h15.543l6.827,6.752
						v20.863C29.562,29.951,27.34,32,24.808,32z M7.192,1.027c-1.951,0-3.727,1.601-3.727,3.358v23.23
						c0,1.757,1.776,3.358,3.727,3.358h17.616c1.951,0,3.727-1.601,3.727-3.358V7.18l-6.221-6.153H7.192z"/>
				</g>
			</g>
		</g>
		<polygon class="st2" points="22.345,1.097 22.345,7.206 28.522,7.206 		"/>
	</g>
</g>
<g>
	<g>
		<path class="st1" d="M17.629,20.859c0,0.55-0.45,1-1,1H7.812c-0.55,0-1-0.45-1-1V8.806c0-0.55,0.45-1,1-1h8.818c0.55,0,1,0.45,1,1
			V20.859z"/>
		<path class="st3" d="M17.629,20.859c0,0.55-0.45,1-1,1H7.812c-0.55,0-1-0.45-1-1V8.806c0-0.55,0.45-1,1-1h8.818c0.55,0,1,0.45,1,1
			V20.859z"/>
	</g>
	<g>
		<path class="st1" d="M21.221,23.507c0,0.55-0.45,1-1,1h-8.818c-0.55,0-1-0.45-1-1V11.455c0-0.55,0.45-1,1-1h8.818
			c0.55,0,1,0.45,1,1V23.507z"/>
		<path class="st3" d="M21.221,23.507c0,0.55-0.45,1-1,1h-8.818c-0.55,0-1-0.45-1-1V11.455c0-0.55,0.45-1,1-1h8.818
			c0.55,0,1,0.45,1,1V23.507z"/>
	</g>
	<g>
		<path class="st1" d="M24.812,26.156c0,0.55-0.45,1-1,1h-8.818c-0.55,0-1-0.45-1-1V14.103c0-0.55,0.45-1,1-1h8.818
			c0.55,0,1,0.45,1,1V26.156z"/>
		<path class="st3" d="M24.812,26.156c0,0.55-0.45,1-1,1h-8.818c-0.55,0-1-0.45-1-1V14.103c0-0.55,0.45-1,1-1h8.818
			c0.55,0,1,0.45,1,1V26.156z"/>
	</g>
</g>
</svg>
