<?xml version="1.0" encoding="utf-8"?>
<!-- Generator: Adobe Illustrator 19.2.0, SVG Export Plug-In . SVG Version: 6.00 Build 0)  -->
<!DOCTYPE svg PUBLIC "-//W3C//DTD SVG 1.1//EN" "http://www.w3.org/Graphics/SVG/1.1/DTD/svg11.dtd">
<svg version="1.1" id="Layer_1" xmlns="http://www.w3.org/2000/svg" xmlns:xlink="http://www.w3.org/1999/xlink" x="0px" y="0px"
	 viewBox="0 0 24 24" enable-background="new 0 0 24 24" xml:space="preserve">
<g id="metadata">
</g>
<g id="like_icon">
</g>
<g id="fave_icon">
</g>
<g id="fave_icon_-_selected">
</g>
<g id="comment_icon_-_selected">
</g>
<g id="Comment_icon">
</g>
<g id="fave_icon_-_selected_1_">
</g>
<g id="like_icon_-_selected">
</g>
<g id="copy_x2F_move_icon">
</g>
<g id="download_icon_2">
</g>
<g id="share_icon_2">
</g>
<g id="reserve_icon">
</g>
<g id="edit_icon">
	<g id="edit_icon_2">
	</g>
	<g id="trash_icon">
		<g id="trash">
		</g>
	</g>
	<g id="more_icon">
	</g>
</g>
<g id="metadata_2">
</g>
<g>
	<path fill="#333333" d="M12,24C5.383,24,0,18.617,0,12C0,7.322,2.756,3.04,7.021,1.091c0.502-0.229,1.096-0.009,1.325,0.493
		C8.576,2.087,8.355,2.68,7.853,2.909C4.297,4.534,2,8.103,2,12c0,5.514,4.486,10,10,10c5.514,0,10-4.486,10-10
		c0-3.897-2.297-7.465-5.853-9.091c-0.502-0.229-0.723-0.822-0.493-1.325c0.229-0.502,0.82-0.724,1.325-0.493
		C21.244,3.04,24,7.322,24,12C24,18.617,18.617,24,12,24z"/>
</g>
<path fill="#333333" d="M12,14.222L12,14.222c-1.1,0-2-0.9-2-2V2c0-1.1,0.9-2,2-2h0c1.1,0,2,0.9,2,2v10.222
	C14,13.322,13.1,14.222,12,14.222z"/>
</svg>
