<?xml version="1.0" encoding="utf-8"?>
<!-- Generator: Adobe Illustrator 19.1.0, SVG Export Plug-In . SVG Version: 6.00 Build 0)  -->
<svg version="1.1" id="Layer_1" xmlns="http://www.w3.org/2000/svg" xmlns:xlink="http://www.w3.org/1999/xlink" x="0px" y="0px"
	 viewBox="0 0 48 48" enable-background="new 0 0 48 48" xml:space="preserve">
<g>
	<g>
		<g>
			<rect y="44" fill="#333333" width="48" height="4"/>
		</g>
	</g>
	<g>
		<path fill="#733781" d="M40.445,11.02c2.077-2.097,2.072-5.502-0.011-7.605l0,0c-2.083-2.103-5.455-2.108-7.532-0.011
			l-1.896,1.915l7.542,7.616L40.445,11.02z"/>
		<polygon fill="#733781" points="3.807,32.646 1.922,42.165 11.35,40.262 36.664,14.838 29.121,7.223 		"/>
	</g>
</g>
<g>
	<g>
		<g>
			<path fill="#CF6830" d="M36.25,46c-5.514,0-10-4.486-10-10.001c0-5.514,4.486-9.999,10-9.999s10,4.485,10,9.999
				C46.25,41.514,41.764,46,36.25,46z"/>
			<path fill="#FFFFFF" d="M36.25,27c4.963,0,9,4.037,9,8.999c0,4.963-4.037,9.001-9,9.001s-9-4.038-9-9.001
				C27.25,31.037,31.287,27,36.25,27 M36.25,25c-6.074,0-11,4.925-11,10.999c0,6.076,4.926,11.001,11,11.001
				c6.078,0,11-4.924,11-11.001C47.25,29.925,42.328,25,36.25,25L36.25,25z"/>
		</g>
	</g>
	<path fill="#FFFFFF" d="M34.324,40.849l-4.564-4.565c-0.391-0.391-0.391-1.024,0-1.414c0.391-0.391,1.023-0.391,1.414,0
		l3.167,3.167l6.759-6.603c0.395-0.385,1.028-0.378,1.414,0.017c0.386,0.395,0.378,1.028-0.017,1.414L34.324,40.849z"/>
</g>
</svg>
