<?xml version="1.0" encoding="utf-8"?>
<!-- Generator: Adobe Illustrator 19.1.0, SVG Export Plug-In . SVG Version: 6.00 Build 0)  -->
<!DOCTYPE svg PUBLIC "-//W3C//DTD SVG 1.1//EN" "http://www.w3.org/Graphics/SVG/1.1/DTD/svg11.dtd">
<svg version="1.1" id="Layer_1" xmlns="http://www.w3.org/2000/svg" xmlns:xlink="http://www.w3.org/1999/xlink" x="0px" y="0px"
	 viewBox="0 0 24 24" enable-background="new 0 0 24 24" xml:space="preserve">
<g>
	<g>
		<path fill="#00806F" d="M22.043,1C22.569,1,23,1.429,23,1.957v20.087C23,22.569,22.57,23,22.043,23H1.957
			C1.431,23,1,22.57,1,22.043V1.957C1,1.431,1.43,1,1.957,1L22.043,1 M22.043,0H1.957C0.877,0,0,0.877,0,1.957v20.087
			C0,23.122,0.877,24,1.957,24h20.087C23.123,24,24,23.122,24,22.043V1.957C24,0.877,23.123,0,22.043,0L22.043,0z"/>
	</g>
	<g>
		<rect x="3" y="2.999" fill="#00806F" width="18" height="5"/>
		<path fill="#00806F" d="M10,11v9H4v-9H10 M11,10H3v11h8V10L11,10z"/>
		<path fill="#00806F" d="M20,11v1h-7v-1H20 M21,10h-9v3h9V10L21,10z"/>
		<path fill="#00806F" d="M20,15v1h-7v-1H20 M21,14h-9v3h9V14L21,14z"/>
		<path fill="#00806F" d="M20,19v1h-7v-1H20 M21,18h-9v3h9V18L21,18z"/>
	</g>
</g>
</svg>
