<?xml version="1.0" encoding="utf-8"?>
<!-- Generator: Adobe Illustrator 19.2.1, SVG Export Plug-In . SVG Version: 6.00 Build 0)  -->
<svg version="1.1" id="Layer_1" xmlns="http://www.w3.org/2000/svg" xmlns:xlink="http://www.w3.org/1999/xlink" x="0px" y="0px"
	 viewBox="0 0 32 32" style="enable-background:new 0 0 32 32;" xml:space="preserve">
<style type="text/css">
	.st0{fill:#FFFFFF;}
	.st1{fill:#333333;}
</style>
<path class="st0" d="M7,31.5c-1.9,0-3.5-1.6-3.5-3.5V4c0-1.9,1.6-3.5,3.5-3.5h15.2l6.3,6.3V28c0,1.9-1.6,3.5-3.5,3.5H7z"/>
<path class="st1" d="M22,1l6,6v21c0,1.7-1.3,3-3,3H7c-1.7,0-3-1.3-3-3V4c0-1.7,1.3-3,3-3H22 M22.4,0H22H7C4.8,0,3,1.8,3,4v24
	c0,2.2,1.8,4,4,4h18c2.2,0,4-1.8,4-4V7V6.6l-0.3-0.3l-6-6L22.4,0L22.4,0z"/>
<polygon class="st1" points="22,1 22,7 28,7 "/>
<path class="st1" d="M24,10l-7.5,0c-0.5,0-1,0.4-1,1c0,0.5,0.3,0.9,0.9,0.9l4.1-0.1L16.3,16c0,0,0,0,0,0l-6.5,6.5l0.1-4.1
	c0-0.5-0.4-0.9-0.9-0.9c-0.5,0-0.9,0.5-0.9,1L8,26l7.5,0c0.5,0,1-0.4,1-1c0-0.5-0.3-0.9-0.9-0.9l-4.1,0.1l4.3-4.3c0,0,0,0,0,0
	l6.5-6.5l-0.1,4.1c0,0.5,0.4,0.9,0.9,0.9c0.5,0,0.9-0.5,0.9-1L24,10z"/>
</svg>
