<?xml version="1.0" encoding="utf-8"?>
<!-- Generator: Adobe Illustrator 19.1.0, SVG Export Plug-In . SVG Version: 6.00 Build 0)  -->
<!DOCTYPE svg PUBLIC "-//W3C//DTD SVG 1.1//EN" "http://www.w3.org/Graphics/SVG/1.1/DTD/svg11.dtd">
<svg version="1.1" id="Layer_1" xmlns="http://www.w3.org/2000/svg" xmlns:xlink="http://www.w3.org/1999/xlink" x="0px" y="0px"
	 viewBox="3 -3 18 18" enable-background="new 3 -3 18 18" xml:space="preserve">
<path fill="#666666" d="M6.149,6.96c-0.284-0.283-0.44-0.66-0.44-1.061s0.156-0.777,0.44-1.061c0.284-0.284,0.66-0.44,1.061-0.44
	s0.777,0.156,1.061,0.44l2.213,2.214V0.689c0-0.827,0.673-1.5,1.5-1.5c0.828,0,1.5,0.673,1.5,1.5v6.394l2.245-2.244
	c0.283-0.284,0.66-0.44,1.061-0.44s0.777,0.156,1.061,0.44s0.439,0.66,0.439,1.061c0,0.4-0.156,0.777-0.439,1.06L12,12.811
	L6.149,6.96z"/>
</svg>
