<?xml version="1.0" encoding="utf-8"?>
<!-- Generator: Adobe Illustrator 19.1.0, SVG Export Plug-In . SVG Version: 6.00 Build 0)  -->
<!DOCTYPE svg PUBLIC "-//W3C//DTD SVG 1.1//EN" "http://www.w3.org/Graphics/SVG/1.1/DTD/svg11.dtd">
<svg version="1.1" id="Layer_1" xmlns="http://www.w3.org/2000/svg" xmlns:xlink="http://www.w3.org/1999/xlink" x="0px" y="0px"
	 viewBox="3 -3 18 18" enable-background="new 3 -3 18 18" xml:space="preserve">
<path fill="#627783" d="M12.017,12.811c-0.827,0-1.5-0.673-1.5-1.5V4.917L8.272,7.161C7.988,7.444,7.611,7.601,7.211,7.601
	c-0.4,0-0.777-0.156-1.061-0.439c-0.284-0.283-0.44-0.66-0.44-1.061S5.866,5.324,6.15,5.04l5.851-5.85l5.851,5.851
	c0.283,0.283,0.439,0.66,0.439,1.061c0,0.4-0.156,0.777-0.439,1.061s-0.661,0.438-1.061,0.438s-0.777-0.156-1.061-0.439
	l-2.214-2.213v6.362C13.517,12.137,12.844,12.811,12.017,12.811z"/>
</svg>
