<?xml version="1.0" encoding="utf-8"?>
<!-- Generator: Adobe Illustrator 19.1.0, SVG Export Plug-In . SVG Version: 6.00 Build 0)  -->
<!DOCTYPE svg PUBLIC "-//W3C//DTD SVG 1.1//EN" "http://www.w3.org/Graphics/SVG/1.1/DTD/svg11.dtd">
<svg version="1.1" id="Layer_1" xmlns="http://www.w3.org/2000/svg" xmlns:xlink="http://www.w3.org/1999/xlink" x="0px" y="0px"
	 viewBox="0 0 24 24" enable-background="new 0 0 24 24" xml:space="preserve">
<g id="Layer_30">
	<g>
		<g>
			<path fill="#333333" d="M11.976,6c-0.276,0-0.5-0.224-0.5-0.5v-5c0-0.276,0.224-0.5,0.5-0.5s0.5,0.224,0.5,0.5v5
				C12.476,5.776,12.252,6,11.976,6z"/>
			<path fill="#333333" d="M10.768,5.81c-0.128,0-0.256-0.049-0.354-0.146L6.879,2.128c-0.195-0.195-0.195-0.512,0-0.707
				s0.512-0.195,0.707,0l3.536,3.535c0.195,0.195,0.195,0.512,0,0.707C11.024,5.761,10.896,5.81,10.768,5.81z"/>
			<path fill="#333333" d="M13.232,5.81c-0.128,0-0.256-0.049-0.354-0.146c-0.195-0.195-0.195-0.512,0-0.707l3.536-3.535
				c0.195-0.195,0.512-0.195,0.707,0s0.195,0.512,0,0.707l-3.535,3.535C13.489,5.761,13.36,5.81,13.232,5.81z"/>
		</g>
		<g>
			<path fill="#333333" d="M11.976,24c-0.276,0-0.5-0.224-0.5-0.5v-5c0-0.276,0.224-0.5,0.5-0.5s0.5,0.224,0.5,0.5v5
				C12.476,23.776,12.252,24,11.976,24z"/>
			<path fill="#333333" d="M7.232,22.077c-0.128,0-0.256-0.049-0.354-0.146c-0.195-0.195-0.195-0.512,0-0.707l3.536-3.535
				c0.195-0.195,0.512-0.195,0.707,0s0.195,0.512,0,0.707l-3.536,3.535C7.488,22.028,7.36,22.077,7.232,22.077z"/>
			<path fill="#333333" d="M16.768,22.077c-0.128,0-0.256-0.049-0.354-0.146l-3.536-3.535c-0.195-0.195-0.195-0.512,0-0.707
				s0.512-0.195,0.708,0l3.535,3.535c0.195,0.195,0.195,0.512,0,0.707C17.024,22.028,16.896,22.077,16.768,22.077z"/>
		</g>
	</g>
	<path fill="#333333" d="M8.024,15.032H1.906V9.037h0.052h6.066c0.553,0,1.001-0.448,1.001-1.001S8.577,7.035,8.024,7.035H0v10
		h8.024c0.553,0,1.001-0.448,1.001-1.001S8.577,15.032,8.024,15.032z"/>
	<path fill="#333333" d="M15.976,15.032h6.118V9.037h-0.052h-6.066c-0.553,0-1.001-0.448-1.001-1.001s0.448-1.001,1.001-1.001H24v10
		h-8.024c-0.553,0-1.001-0.448-1.001-1.001S15.423,15.032,15.976,15.032z"/>
</g>
</svg>
