<?xml version="1.0" encoding="utf-8"?>
<!-- Generator: Adobe Illustrator 21.0.0, SVG Export Plug-In . SVG Version: 6.00 Build 0)  -->
<svg version="1.1" id="Layer_1" xmlns="http://www.w3.org/2000/svg" xmlns:xlink="http://www.w3.org/1999/xlink" x="0px" y="0px"
	 viewBox="0 0 24 24" enable-background="new 0 0 24 24" xml:space="preserve">
<g id="metadata_2">
</g>
<g>
	<g>
		<g>
			<path fill="#FFFFFF" d="M18.594,2.659H3.12c-1.54,0-2.793,1.253-2.793,2.793v9.453c0,1.54,1.253,2.793,2.793,2.793h15.474
				c1.54,0,2.793-1.253,2.793-2.793V5.452C21.387,3.912,20.134,2.659,18.594,2.659z"/>
		</g>
		<path fill="#0072AA" d="M1.892,4.053l8.965,6.478L19.82,4.05c-0.33-0.289-0.756-0.47-1.226-0.47H3.12
			C2.648,3.58,2.222,3.763,1.892,4.053z"/>
		<g>
			<polygon fill="#0072AA" points="20.343,4.81 20.343,4.809 20.343,4.809 			"/>
			<path fill="#0072AA" d="M1.369,4.812L1.369,4.812L1.369,4.812z"/>
			<path fill="#0072AA" d="M20.448,5.275l-9.591,6.935L1.266,5.28C1.259,5.337,1.249,5.393,1.249,5.452v9.453
				c0,1.029,0.842,1.872,1.872,1.872h15.474c1.029,0,1.872-0.842,1.872-1.872V5.452h-0.001C20.465,5.391,20.454,5.334,20.448,5.275z
				"/>
		</g>
	</g>
	<g>
		<g>
			<g id="Layer_1_4_">
				<g id="Ppt">
				</g>
				<g id="Small_Folder">
				</g>
				<g id="fave_icon_-_selected">
				</g>
				<g id="Shortcut_1_">
					<g>
						<g>
							<path fill="#9370B0" d="M17.605,21c-2.877,0-5.217-2.34-5.217-5.217s2.34-5.217,5.217-5.217s5.217,2.34,5.217,5.217
								S20.481,21,17.605,21z"/>
							<path fill="#FFFFFF" d="M17.605,10.735c2.788,0,5.048,2.26,5.048,5.048s-2.26,5.048-5.048,5.048s-5.048-2.26-5.048-5.048
								S14.817,10.735,17.605,10.735 M17.605,9.801c-3.298,0-5.982,2.684-5.982,5.982s2.684,5.982,5.982,5.982
								s5.982-2.684,5.982-5.982S20.903,9.801,17.605,9.801L17.605,9.801z"/>
						</g>
					</g>
				</g>
				<g id="comment_icon_-_selected">
				</g>
				<g id="Comment_icon">
				</g>
			</g>
			<path fill="#FFFFFF" d="M21.311,18.692c-0.025-0.362-0.042-0.549-0.167-0.97c-0.089-0.302-0.297-0.524-0.636-0.68
				c-0.289-0.133-0.636-0.199-0.942-0.258c-0.253-0.049-0.492-0.094-0.659-0.169c-0.091-0.041-0.171-0.102-0.237-0.18
				c-0.036-0.043-0.069-0.093-0.098-0.148c0.146-0.12,0.272-0.264,0.379-0.433c0.146-0.232,0.254-0.51,0.322-0.83
				c0.07-0.02,0.138-0.074,0.195-0.155c0.064-0.09,0.112-0.211,0.135-0.34c0.034-0.188,0.013-0.367-0.056-0.486
				c0.006-0.025,0.012-0.049,0.017-0.075c0.032-0.161,0.043-0.347,0.032-0.554c-0.019-0.35-0.092-0.634-0.094-0.646
				c-0.075-0.3-0.3-0.6-0.616-0.825c-0.252-0.179-0.678-0.392-1.279-0.392s-1.027,0.213-1.279,0.392
				c-0.316,0.225-0.541,0.525-0.616,0.824c-0.004,0.016-0.077,0.298-0.096,0.646c-0.011,0.207-0.001,0.393,0.031,0.554
				c0.005,0.025,0.01,0.049,0.016,0.073c-0.07,0.119-0.091,0.299-0.057,0.487c0.023,0.129,0.071,0.25,0.136,0.341
				c0.058,0.081,0.126,0.135,0.196,0.154c0.068,0.32,0.176,0.598,0.322,0.83c0.107,0.17,0.233,0.315,0.38,0.434
				c-0.028,0.055-0.061,0.104-0.097,0.147c-0.066,0.078-0.145,0.139-0.237,0.18c-0.167,0.075-0.406,0.121-0.659,0.169
				c-0.306,0.058-0.652,0.125-0.942,0.258c-0.339,0.155-0.547,0.378-0.636,0.68c-0.123,0.415-0.141,0.603-0.166,0.956
				c-0.013,0.057-0.022,0.115-0.022,0.175v0.375c0,0.006,0.001,0.011,0.002,0.016c0.009,0.424,0.357,0.768,0.783,0.768l1.251,0.748
				l1.517,0.18c0.11,0.037,0.23,0.037,0.34,0l1.8-0.349l0.968-0.58c0.432,0,0.785-0.353,0.785-0.785v-0.29v-0.085
				C21.328,18.799,21.322,18.745,21.311,18.692z"/>
		</g>
		<g>
			<path fill="#9370B0" d="M17.605,11.171c2.543,0,4.612,2.069,4.612,4.612s-2.069,4.612-4.612,4.612s-4.612-2.069-4.612-4.612
				S15.062,11.171,17.605,11.171 M17.605,10.738c-2.782,0-5.045,2.263-5.045,5.045s2.263,5.045,5.045,5.045s5.045-2.263,5.045-5.045
				S20.387,10.738,17.605,10.738L17.605,10.738z"/>
		</g>
	</g>
</g>
</svg>
