<?xml version="1.0" encoding="utf-8"?>
<!-- Generator: Adobe Illustrator 19.2.1, SVG Export Plug-In . SVG Version: 6.00 Build 0)  -->
<svg version="1.1" id="Layer_1" xmlns="http://www.w3.org/2000/svg" xmlns:xlink="http://www.w3.org/1999/xlink" x="0px" y="0px"
	 viewBox="0 0 16 16" style="enable-background:new 0 0 16 16;" xml:space="preserve">
<style type="text/css">
	.st0{fill:#7BB932;}
	.st1{fill:#3E6028;}
</style>
<g id="Layer_5">
	<g id="Inherit_icon">
		<g>
			<path class="st0" d="M6.1,14.5c-2.5,0-4.6-2.1-4.6-4.6V6.1c0-2.5,2.1-4.6,4.6-4.6h8.4v8.4c0,2.5-2.1,4.6-4.6,4.6H6.1z"/>
			<path class="st1" d="M14,2v7.9c0,2.3-1.8,4.1-4.1,4.1H6.1C3.8,14,2,12.2,2,9.9V6.1C2,3.8,3.8,2,6.1,2H14 M15,1H6.1
				C3.3,1,1,3.3,1,6.1v3.8C1,12.7,3.3,15,6.1,15h3.8c2.8,0,5.1-2.3,5.1-5.1V1L15,1z"/>
		</g>
	</g>
</g>
</svg>
