<?xml version="1.0" encoding="utf-8"?>
<!-- Generator: Adobe Illustrator 19.2.1, SVG Export Plug-In . SVG Version: 6.00 Build 0)  -->
<svg version="1.1" id="Layer_1" xmlns="http://www.w3.org/2000/svg" xmlns:xlink="http://www.w3.org/1999/xlink" x="0px" y="0px"
	 viewBox="0 0 16 16" style="enable-background:new 0 0 16 16;" xml:space="preserve">
<style type="text/css">
	.st0{clip-path:url(#SVGID_2_);fill:#1D8519;}
	.st1{clip-path:url(#SVGID_4_);fill:#FFFFFF;}
	.st2{fill:#E67035;}
	.st3{fill:#FFFFFF;}
</style>
<g>
	<g>
		<defs>
			<rect id="SVGID_1_" width="16" height="16"/>
		</defs>
		<clipPath id="SVGID_2_">
			<use xlink:href="#SVGID_1_"  style="overflow:visible;"/>
		</clipPath>
		<path class="st0" d="M8,15.6c-4.2,0-7.6-3.4-7.6-7.6S3.8,0.4,8,0.4s7.6,3.4,7.6,7.6S12.2,15.6,8,15.6z"/>
	</g>
	<g>
		<defs>
			<rect id="SVGID_3_" width="16" height="16"/>
		</defs>
		<clipPath id="SVGID_4_">
			<use xlink:href="#SVGID_3_"  style="overflow:visible;"/>
		</clipPath>
		<path class="st1" d="M8,0C3.6,0,0,3.6,0,8s3.6,8,8,8s8-3.6,8-8S12.4,0,8,0z M8,5.7c1.3,0,2.3,1,2.3,2.3s-1,2.3-2.3,2.3
			S5.7,9.3,5.7,8S6.7,5.7,8,5.7z M8,15.1c-3.9,0-7.1-3.2-7.1-7.1H3c0,2.8,2.2,5,5,5s5-2.2,5-5s-2.2-5-5-5V0.9c3.9,0,7.1,3.2,7.1,7.1
			S11.9,15.1,8,15.1z"/>
	</g>
</g>
<g>
	<g>
		<g>
			<path class="st2" d="M10.4,11.3c0-0.3,0.1-0.6,0.4-0.8c0.2-0.2,0.5-0.4,0.8-0.4c0.7,0,1.1,0.6,1.1,1.1v0.6
				c0.5-0.5,0.7-1.1,0.7-1.8c0-0.9-0.5-1.8-1.3-2.2L12,7.7v-2l0.5,0.2c1.8,0.7,3,2.3,3,4.3c0,1-0.4,2-1,2.8c0.6,0.1,1,0.6,1,1.1
				c0,0.7-0.6,1.1-1.1,1.1h-3.8L10.4,11.3z"/>
			<path class="st3" d="M14.4,16H10l-0.1-4.6c0-0.5,0.2-0.9,0.5-1.3c0.3-0.4,0.8-0.5,1.2-0.5c0.6,0,1.1,0.4,1.4,0.8
				c0-0.1,0-0.3,0-0.4c0-0.7-0.6-1.6-1.3-2c-0.6-0.4-0.7-1.2-0.6-1.9c0-0.4,0.2-0.9,0.5-1.2c0.6-0.4,1.2,0.1,1.7,0.4
				c0.4,0.3,0.7,0.6,1,1C14.9,7,15.5,7.6,15.9,9C16,9.3,16,9.7,16,10c0,1-0.3,1.9-0.8,2.8c0.5,0.3,0.8,0.8,0.8,1.4
				C16,15.3,15.2,16,14.4,16z M10.9,15h3.5c0.3,0,0.7-0.3,0.7-0.7c0-0.3-0.3-0.6-0.7-0.7h-1l0.7-0.8c0.6-0.8,1-1.8,1-2.7
				c0-1.8-1.5-3.6-3-4.3V7c1,0.6,2,1.9,2,3c0,0.8-0.3,1.7-0.9,2.3l-0.8,0.9v-1.8c0-0.3-0.3-0.7-0.7-0.7c-0.2,0-0.4,0.1-0.5,0.3
				C11,11.2,11,11.4,11,11.5L10.9,15z"/>
		</g>
	</g>
</g>
</svg>
