<?xml version="1.0" encoding="utf-8"?>
<!-- Generator: Adobe Illustrator 19.1.0, SVG Export Plug-In . SVG Version: 6.00 Build 0)  -->
<svg version="1.1" id="Layer_1" xmlns="http://www.w3.org/2000/svg" xmlns:xlink="http://www.w3.org/1999/xlink" x="0px" y="0px"
	 viewBox="0 0 24 24" style="enable-background:new 0 0 24 24;" xml:space="preserve">
<style type="text/css">
	.st0{fill:#FFFFFF;}
	.st1{fill:#E08E18;}
</style>
<g id="Layer_5">
</g>
<g>
	<path class="st0" d="M12,22C6.486,22,2,17.514,2,12C2,6.486,6.486,2,12,2c5.514,0,10,4.486,10,10C22,17.514,17.514,22,12,22z"/>
	<g>
		<path class="st0" d="M12,3c4.963,0,9,4.037,9,9s-4.037,9-9,9s-9-4.037-9-9S7.037,3,12,3 M12,1C5.935,1,1,5.935,1,12
			s4.935,11,11,11s11-4.935,11-11S18.065,1,12,1L12,1z"/>
	</g>
</g>
<g>
	<g>
		<g>
			<path class="st1" d="M12,2c5.514,0,10,4.486,10,10s-4.486,10-10,10S2,17.514,2,12S6.486,2,12,2 M12,1C5.925,1,1,5.925,1,12
				s4.925,11,11,11s11-4.925,11-11S18.075,1,12,1L12,1z"/>
		</g>
	</g>
	<path class="st1" d="M14.952,14.794c-0.123,0.214-0.35,0.35-0.597,0.35c-0.117,0-0.24-0.032-0.344-0.097l-3.154-1.798V8.409
		c0-0.376,0.311-0.688,0.688-0.688h0c0.376,0,0.688,0.311,0.688,0.688v4.043l2.466,1.408c0.156,0.091,0.273,0.24,0.318,0.415
		C15.069,14.45,15.043,14.638,14.952,14.794z"/>
	<g>
		<path class="st1" d="M5.094,16.128c-0.38,0-0.744-0.218-0.911-0.587C3.676,14.425,3.42,13.233,3.42,12
			c0-4.731,3.849-8.58,8.58-8.58c4.731,0,8.58,3.849,8.58,8.58c0,0.552-0.447,1-1,1s-1-0.448-1-1c0-3.628-2.952-6.58-6.58-6.58
			c-3.628,0-6.58,2.952-6.58,6.58c0,0.947,0.196,1.86,0.584,2.715c0.228,0.503,0.005,1.096-0.498,1.324
			C5.372,16.1,5.232,16.128,5.094,16.128z"/>
	</g>
	<polygon class="st1" points="21.831,10.963 19.5,14.102 17.248,10.946 	"/>
	<g>
		<path class="st1" d="M11.853,20.268c-0.385-0.009-0.679-0.32-0.679-0.705l0,0c0.009-0.376,0.321-0.679,0.706-0.67l0,0
			c0.376,0,0.679,0.321,0.669,0.697l0,0c0,0.375-0.312,0.678-0.678,0.678l0,0C11.862,20.268,11.862,20.268,11.853,20.268z
			 M13.97,19.351c-0.137-0.357,0.047-0.751,0.404-0.88l0,0c0.357-0.128,0.752,0.046,0.88,0.404l0,0
			c0.128,0.357-0.046,0.751-0.404,0.889l0,0c-0.082,0.028-0.156,0.037-0.238,0.037l0,0C14.328,19.801,14.071,19.636,13.97,19.351z
			 M8.883,19.654c-0.357-0.137-0.522-0.541-0.385-0.889l0,0c0.147-0.357,0.55-0.523,0.898-0.376l0,0
			c0.349,0.138,0.523,0.541,0.376,0.889l0,0c-0.11,0.266-0.367,0.431-0.632,0.431l0,0C9.048,19.709,8.966,19.691,8.883,19.654z
			 M16.491,18.151c-0.256-0.294-0.229-0.724,0.056-0.972l0,0c0.284-0.256,0.724-0.229,0.971,0.064l0,0
			c0.248,0.285,0.22,0.715-0.064,0.962l0,0c-0.129,0.119-0.294,0.175-0.449,0.175l0,0C16.812,18.38,16.62,18.298,16.491,18.151z
			 M6.326,18.013c-0.275-0.266-0.284-0.696-0.028-0.971l0,0c0.257-0.275,0.697-0.285,0.972-0.028l0,0
			c0.275,0.257,0.284,0.696,0.027,0.972l0,0c-0.137,0.146-0.32,0.21-0.504,0.21l0,0C6.628,18.196,6.463,18.142,6.326,18.013z
			 M18.408,16.116c-0.339-0.175-0.468-0.596-0.294-0.927l0,0c0.174-0.339,0.586-0.476,0.926-0.293l0,0
			c0.339,0.174,0.467,0.586,0.294,0.926l0,0c-0.129,0.238-0.367,0.366-0.614,0.366l0,0C18.618,16.189,18.508,16.162,18.408,16.116z"
			/>
	</g>
</g>
<g>
	<g>
		<path class="st0" d="M12,1c6.065,0,11,4.935,11,11s-4.935,11-11,11S1,18.065,1,12S5.935,1,12,1 M12,0C5.373,0,0,5.373,0,12
			s5.373,12,12,12s12-5.373,12-12S18.627,0,12,0L12,0z"/>
	</g>
</g>
</svg>
