<?xml version="1.0" encoding="utf-8"?>
<!-- Generator: Adobe Illustrator 19.1.0, SVG Export Plug-In . SVG Version: 6.00 Build 0)  -->
<svg version="1.1" id="Layer_1" xmlns="http://www.w3.org/2000/svg" xmlns:xlink="http://www.w3.org/1999/xlink" x="0px" y="0px"
	 viewBox="0 0 24 24" style="enable-background:new 0 0 24 24;" xml:space="preserve">
<style type="text/css">
	.st0{fill:#FFFFFF;}
	.st1{fill:#E08E18;}
	.st2{fill:#0D9571;}
</style>
<g>
	<path class="st0" d="M12,22.5C6.21,22.5,1.5,17.79,1.5,12C1.5,6.21,6.21,1.5,12,1.5c5.79,0,10.5,4.71,10.5,10.5
		C22.5,17.79,17.79,22.5,12,22.5z"/>
	<path class="st1" d="M12,2c5.514,0,10,4.486,10,10s-4.486,10-10,10S2,17.514,2,12S6.486,2,12,2 M12,1C5.935,1,1,5.935,1,12
		s4.935,11,11,11s11-4.935,11-11S18.065,1,12,1L12,1z"/>
</g>
<g>
	<g>
		<path class="st0" d="M12,1c6.065,0,11,4.935,11,11s-4.935,11-11,11S1,18.065,1,12S5.935,1,12,1 M12,0C5.373,0,0,5.373,0,12
			s5.373,12,12,12s12-5.373,12-12S18.627,0,12,0L12,0z"/>
	</g>
</g>
<g>
	<g>
		<path class="st1" d="M13.118,12.859c-0.169-0.077-0.318-0.19-0.44-0.337c-0.068-0.082-0.13-0.177-0.184-0.282
			c0.275-0.228,0.513-0.502,0.713-0.823c0.275-0.441,0.478-0.969,0.606-1.577c0.131-0.038,0.26-0.139,0.368-0.294
			c0.12-0.172,0.211-0.401,0.254-0.646C14.5,8.545,14.46,8.205,14.33,7.979c0.012-0.047,0.023-0.094,0.032-0.143
			c0.06-0.306,0.081-0.66,0.06-1.052c-0.035-0.664-0.173-1.204-0.178-1.226c-0.142-0.569-0.565-1.14-1.162-1.566
			c-0.475-0.34-1.279-0.745-2.411-0.745S8.736,3.651,8.261,3.991C7.665,4.418,7.242,4.989,7.099,5.558
			C7.092,5.587,6.954,6.124,6.918,6.785C6.896,7.177,6.916,7.531,6.976,7.837c0.009,0.048,0.02,0.094,0.031,0.139
			C6.876,8.202,6.836,8.543,6.899,8.901c0.044,0.246,0.135,0.476,0.256,0.648c0.109,0.154,0.238,0.256,0.37,0.293
			c0.128,0.607,0.331,1.135,0.606,1.576c0.201,0.322,0.44,0.597,0.716,0.825c-0.054,0.104-0.115,0.198-0.182,0.279
			c-0.297,0.356-0.802,0.337-1.229,0.433c-0.509,0.115-1.014,0.257-1.498,0.452C5.145,13.725,4.11,14.29,4.11,15.274
			c0,1.441,2.929,3.138,6.543,3.138c3.614,0,6.543-1.697,6.543-3.138C17.196,14.182,15.509,13.247,13.118,12.859z"/>
		<path class="st0" d="M10.653,18.912c-3.686,0-7.043-1.733-7.043-3.638c0-0.975,0.72-1.76,2.141-2.332
			c0.462-0.185,0.977-0.341,1.575-0.476c0.113-0.025,0.23-0.044,0.349-0.062c0.22-0.034,0.382-0.062,0.493-0.118
			c-0.169-0.183-0.324-0.385-0.46-0.604c-0.268-0.43-0.475-0.934-0.616-1.5C6.963,10.096,6.847,9.98,6.746,9.837
			c-0.162-0.23-0.283-0.531-0.339-0.848c-0.069-0.388-0.041-0.766,0.076-1.07C6.417,7.575,6.396,7.184,6.419,6.757
			c0.041-0.748,0.198-1.331,0.2-1.336c0.167-0.667,0.66-1.342,1.352-1.837c0.535-0.382,1.437-0.838,2.702-0.838
			c1.265,0,2.167,0.456,2.701,0.838c0.69,0.494,1.185,1.168,1.356,1.852l0,0c0,0,0.154,0.586,0.191,1.322
			c0.023,0.427,0.001,0.82-0.066,1.166c0.115,0.304,0.143,0.681,0.074,1.065c-0.057,0.314-0.176,0.614-0.337,0.845
			c-0.102,0.143-0.217,0.26-0.343,0.346c-0.142,0.568-0.349,1.073-0.617,1.502c-0.14,0.224-0.297,0.431-0.472,0.617
			c0.035,0.03,0.073,0.057,0.114,0.079c2.73,0.458,4.422,1.564,4.422,2.896C17.696,17.179,14.339,18.912,10.653,18.912z
			 M10.672,3.746c-1,0-1.705,0.354-2.12,0.651C8.051,4.756,7.699,5.223,7.584,5.679C7.581,5.695,7.451,6.192,7.417,6.812
			c-0.019,0.35-0.002,0.662,0.05,0.929l0.075,0.311L7.439,8.228C7.386,8.32,7.341,8.529,7.391,8.814
			c0.031,0.172,0.094,0.335,0.172,0.447c0.048,0.068,0.087,0.095,0.099,0.1l0.292,0.081l0.06,0.296
			c0.116,0.549,0.298,1.026,0.541,1.416c0.171,0.274,0.376,0.511,0.61,0.703l0.312,0.258L9.29,12.474
			c-0.072,0.139-0.154,0.263-0.243,0.369c-0.346,0.416-0.831,0.491-1.221,0.55c-0.096,0.015-0.19,0.029-0.281,0.05
			C7,13.565,6.535,13.705,6.124,13.87C5.12,14.275,4.61,14.747,4.61,15.274c0,1.037,2.595,2.638,6.043,2.638
			c3.449,0,6.043-1.601,6.043-2.638c0-0.66-1.257-1.532-3.658-1.922l-0.129-0.039c-0.239-0.11-0.446-0.27-0.615-0.473
			c-0.088-0.105-0.171-0.23-0.243-0.371l-0.186-0.358l0.311-0.257c0.233-0.193,0.438-0.429,0.608-0.703
			c0.243-0.389,0.424-0.865,0.541-1.415l0.062-0.295l0.29-0.083c0.008-0.003,0.047-0.031,0.096-0.101
			c0.078-0.111,0.142-0.274,0.172-0.446c0.051-0.283,0.006-0.492-0.048-0.585l-0.101-0.175l0.074-0.305
			c0.055-0.276,0.071-0.588,0.053-0.937c-0.032-0.621-0.161-1.121-0.162-1.126c-0.116-0.462-0.469-0.929-0.969-1.287
			C12.376,4.1,11.672,3.746,10.672,3.746z"/>
	</g>
</g>
<g>
	<g>
		<path class="st2" d="M12.311,20.273L8.917,16.88c-0.391-0.391-0.391-1.023,0-1.414s1.023-0.391,1.414,0l2.087,2.087l6.124-5.227
			c0.42-0.355,1.05-0.31,1.41,0.111c0.358,0.42,0.309,1.052-0.111,1.41L12.311,20.273z"/>
		<path class="st0" d="M12.297,20.613L8.74,17.057c-0.487-0.487-0.487-1.28,0-1.768c0.487-0.488,1.28-0.488,1.768,0l1.923,1.924
			l5.949-5.077c0.526-0.448,1.316-0.381,1.762,0.139c0.448,0.525,0.386,1.315-0.139,1.763L12.297,20.613z M9.624,15.423
			c-0.192,0-0.384,0.073-0.53,0.22c-0.292,0.292-0.292,0.769,0,1.061l3.23,3.23l7.354-6.276c0.152-0.13,0.245-0.312,0.261-0.512
			c0.016-0.199-0.048-0.394-0.178-0.546c-0.268-0.312-0.743-0.349-1.059-0.083l-6.299,5.375l-2.25-2.25
			C10.008,15.496,9.816,15.423,9.624,15.423z"/>
	</g>
</g>
</svg>
