<?xml version="1.0" encoding="utf-8"?>
<!-- Generator: Adobe Illustrator 19.2.1, SVG Export Plug-In . SVG Version: 6.00 Build 0)  -->
<svg version="1.1" id="Layer_1" xmlns="http://www.w3.org/2000/svg" xmlns:xlink="http://www.w3.org/1999/xlink" x="0px" y="0px"
	 viewBox="0 0 16 16" style="enable-background:new 0 0 16 16;" xml:space="preserve">
<style type="text/css">
	.st0{fill:#00A187;}
	.st1{fill:#FFFFFF;}
	.st2{opacity:0.3;fill:none;}
</style>
<g>
	<g>
		<circle class="st0" cx="8" cy="8" r="7.5"/>
		<path class="st1" d="M8,1c3.9,0,7,3.1,7,7c0,3.9-3.1,7-7,7c-3.9,0-7-3.1-7-7C1,4.1,4.1,1,8,1 M8,0C3.6,0,0,3.6,0,8
			c0,4.4,3.6,8,8,8c4.4,0,8-3.6,8-8C16,3.6,12.4,0,8,0L8,0z"/>
	</g>
</g>
<rect class="st2" width="16" height="16"/>
<path class="st1" d="M12.3,4.8c-0.3-0.3-0.8-0.3-1.1,0L6.8,9.3L4.7,7.1c-0.3-0.3-0.7-0.3-1.1,0s-0.3,0.8,0,1.1l3.2,3.2l5.6-5.6
	C12.6,5.6,12.6,5.1,12.3,4.8z"/>
</svg>
