<?xml version="1.0" encoding="utf-8"?>
<!-- Generator: Adobe Illustrator 19.2.1, SVG Export Plug-In . SVG Version: 6.00 Build 0)  -->
<svg version="1.1" id="Layer_1" xmlns="http://www.w3.org/2000/svg" xmlns:xlink="http://www.w3.org/1999/xlink" x="0px" y="0px"
	 viewBox="0 0 16 16" style="enable-background:new 0 0 16 16;" xml:space="preserve">
<style type="text/css">
	.st0{clip-path:url(#SVGID_2_);}
	.st1{fill:#FFFFFF;}
	.st2{fill:#CD3632;}
	.st3{fill:#008EB9;}
</style>
<g>
	<defs>
		<rect id="SVGID_1_" width="16" height="16"/>
	</defs>
	<clipPath id="SVGID_2_">
		<use xlink:href="#SVGID_1_"  style="overflow:visible;"/>
	</clipPath>
	<g class="st0">
		<g>
			<path class="st1" d="M7.9,15.9C3.5,15.9,0,12.3,0,7.9S3.6,0,7.9,0s7.9,3.6,7.9,7.9C15.9,12.3,12.3,15.9,7.9,15.9z M7.9,0.5
				c-4.1,0-7.4,3.3-7.4,7.4s3.3,7.4,7.4,7.4s7.4-3.3,7.4-7.4S12,0.5,7.9,0.5z"/>
		</g>
	</g>
	<g class="st0">
		<g>
			<g>
				<g>
					<g>
						<path class="st1" d="M8,0.1c-4.4,0-7.9,3.6-7.9,7.9S3.7,16,8,16S16,12.4,16,8.1S12.4,0.1,8,0.1L8,0.1z"/>
					</g>
				</g>
			</g>
		</g>
		<g>
			<g>
				<g>
					<g>
						<path class="st2" d="M15,8c0,3.9-3.1,7-7,7c-3.9,0-7-3.1-7-7c0-3.9,3.1-7,7-7C11.9,1,15,4.1,15,8z"/>
					</g>
				</g>
			</g>
			<g>
				<path class="st1" d="M5.2,12c-0.3,0-0.6-0.1-0.8-0.3c-0.5-0.5-0.5-1.2,0-1.7L10,4.3c0.5-0.5,1.2-0.5,1.7,0
					c0.5,0.5,0.5,1.2,0,1.7L6,11.7C5.8,11.9,5.5,12,5.2,12z"/>
			</g>
		</g>
	</g>
	<g class="st0">
		<path class="st3" d="M7.9,15.6c-0.2,0-0.4-0.2-0.4-0.4v-1c0,0,0-0.1,0-0.1c0.1-0.9,0.9-1.6,1.9-1.6h0.3C9.3,11.7,9,10.9,9,10.1
			c0-1.6,1-2.7,2.5-2.7S14,8.5,14,10.1c0,0.8-0.2,1.6-0.6,2.3h0.3c0.9,0,1.7,0.7,1.9,1.6c0,0,0,0.1,0,0.1v1c0,0.2-0.2,0.4-0.5,0.4
			H7.9z"/>
		<path class="st1" d="M11.5,7.9c1.1,0,2,0.7,2,2.2c0,1-0.4,2.2-1.1,2.7h1.2c0.8,0,1.4,0.6,1.4,1.3h0v1H7.9v-1h0
			c0-0.7,0.7-1.3,1.4-1.3h1.2c-0.6-0.6-1.1-1.7-1.1-2.7C9.5,8.6,10.4,7.9,11.5,7.9 M11.5,7c-1.7,0-2.9,1.3-2.9,3.1
			c0,0.6,0.1,1.3,0.4,1.9c-1,0.2-1.8,0.9-1.9,1.9C7,14,7,14,7,14.1v1C7,15.6,7.4,16,7.9,16h7.2c0.5,0,0.9-0.4,0.9-0.9v-1
			c0-0.1,0-0.2,0-0.2c-0.1-1-0.9-1.7-1.9-1.9c0.2-0.6,0.4-1.2,0.4-1.9C14.4,8.3,13.2,7,11.5,7L11.5,7z"/>
	</g>
</g>
</svg>
