<?xml version="1.0" encoding="utf-8"?>
<!-- Generator: Adobe Illustrator 21.0.2, SVG Export Plug-In . SVG Version: 6.00 Build 0)  -->
<!DOCTYPE svg PUBLIC "-//W3C//DTD SVG 1.1//EN" "http://www.w3.org/Graphics/SVG/1.1/DTD/svg11.dtd">
<svg version="1.1" id="Layer_1" xmlns="http://www.w3.org/2000/svg" xmlns:xlink="http://www.w3.org/1999/xlink" x="0px" y="0px"
	 viewBox="0 0 16 16" style="enable-background:new 0 0 16 16;" xml:space="preserve">
<style type="text/css">
	.st0{fill:#D24625;}
	.st1{fill:#FFFFFF;}
	.st2{fill:none;}
</style>
<g>
	<g>
		<circle class="st0" cx="8" cy="8" r="7.5"/>
		<path class="st1" d="M8,1c3.9,0,7,3.1,7,7s-3.1,7-7,7s-7-3.1-7-7S4.1,1,8,1 M8,0C3.6,0,0,3.6,0,8s3.6,8,8,8s8-3.6,8-8S12.4,0,8,0
			L8,0z"/>
	</g>
</g>
<rect class="st2" width="16" height="16"/>
<path class="st1" d="M12.3,4.8c-0.3-0.3-0.8-0.3-1.1,0L6.8,9.3L4.7,7.1C4.4,6.8,4,6.8,3.6,7.1s-0.3,0.8,0,1.1l3.2,3.2l5.6-5.6
	C12.6,5.6,12.6,5.1,12.3,4.8z"/>
</svg>
