<?xml version="1.0" encoding="utf-8"?>
<!-- Generator: Adobe Illustrator 19.1.0, SVG Export Plug-In . SVG Version: 6.00 Build 0)  -->
<svg version="1.1" xmlns="http://www.w3.org/2000/svg" xmlns:xlink="http://www.w3.org/1999/xlink" x="0px" y="0px"
	 viewBox="0 0 24 24" style="enable-background:new 0 0 24 24;" xml:space="preserve">
<style type="text/css">
	.st0{fill:#FFFFFF;}
	.st1{fill:#E08E18;}
	.st2{fill:#A9A9A9;}
</style>
<g id="Layer_1">
	<g>
		<path class="st0" d="M12,22.5C6.21,22.5,1.5,17.79,1.5,12C1.5,6.21,6.21,1.5,12,1.5c5.79,0,10.5,4.71,10.5,10.5
			C22.5,17.79,17.79,22.5,12,22.5z"/>
		<path class="st1" d="M12,2c5.514,0,10,4.486,10,10s-4.486,10-10,10S2,17.514,2,12S6.486,2,12,2 M12,1C5.935,1,1,5.935,1,12
			s4.935,11,11,11s11-4.935,11-11S18.065,1,12,1L12,1z"/>
	</g>
	<g>
		<path class="st0" d="M12,22.5C6.21,22.5,1.5,17.79,1.5,12C1.5,6.21,6.21,1.5,12,1.5c5.79,0,10.5,4.71,10.5,10.5
			C22.5,17.79,17.79,22.5,12,22.5z"/>
		<path class="st2" d="M12,2c5.514,0,10,4.486,10,10s-4.486,10-10,10S2,17.514,2,12S6.486,2,12,2 M12,1C5.935,1,1,5.935,1,12
			s4.935,11,11,11s11-4.935,11-11S18.065,1,12,1L12,1z"/>
	</g>
	<g>
		<g>
			<path class="st0" d="M12,1c6.065,0,11,4.935,11,11s-4.935,11-11,11S1,18.065,1,12S5.935,1,12,1 M12,0C5.373,0,0,5.373,0,12
				s5.373,12,12,12s12-5.373,12-12S18.627,0,12,0L12,0z"/>
		</g>
	</g>
</g>
<g id="Layer_2">
	<g>
		<path class="st0" d="M12,19.25c-3.998,0-7.25-3.252-7.25-7.25c0-3.998,3.252-7.25,7.25-7.25c3.998,0,7.25,3.252,7.25,7.25
			C19.25,15.998,15.998,19.25,12,19.25z"/>
		<path class="st1" d="M12,5.75c3.446,0,6.25,2.804,6.25,6.25s-2.804,6.25-6.25,6.25S5.75,15.446,5.75,12S8.554,5.75,12,5.75
			 M12,3.75c-4.549,0-8.25,3.701-8.25,8.25s3.701,8.25,8.25,8.25s8.25-3.701,8.25-8.25S16.549,3.75,12,3.75L12,3.75z"/>
	</g>
	<g>
		<g>
			<path class="st1" d="M13.667,15.583c-0.46,0-0.833-0.373-0.833-0.833v-5.5c0-0.46,0.373-0.833,0.833-0.833S14.5,8.79,14.5,9.25
				v5.5C14.5,15.21,14.127,15.583,13.667,15.583z"/>
		</g>
		<g>
			<path class="st1" d="M10.333,15.583c-0.46,0-0.833-0.373-0.833-0.833v-5.5c0-0.46,0.373-0.833,0.833-0.833
				s0.833,0.373,0.833,0.833v5.5C11.167,15.21,10.794,15.583,10.333,15.583z"/>
		</g>
	</g>
</g>
</svg>
