<?xml version="1.0" encoding="utf-8"?>
<!-- Generator: Adobe Illustrator 19.1.0, SVG Export Plug-In . SVG Version: 6.00 Build 0)  -->
<svg version="1.1" xmlns="http://www.w3.org/2000/svg" xmlns:xlink="http://www.w3.org/1999/xlink" x="0px" y="0px"
	 viewBox="0 0 14 14" enable-background="new 0 0 14 14" xml:space="preserve">
<symbol  id="Removal_icon" viewBox="-7 -7 14 14">
	<g>
		<path fill="#FDBA24" d="M0-6.5c-3.584,0-6.5,2.916-6.5,6.5S-3.584,6.5,0,6.5S6.5,3.584,6.5,0S3.584-6.5,0-6.5z"/>
		<path fill="#F48C17" d="M0,6c3.308,0,6-2.692,6-6S3.308-6,0-6s-6,2.692-6,6S-3.308,6,0,6 M0,7c-3.866,0-7-3.134-7-7v0
			c0-3.866,3.134-7,7-7c3.866,0,7,3.134,7,7v0C7,3.866,3.866,7,0,7L0,7z"/>
	</g>
	<g>
		<path fill="#323133" d="M-1-4c0,0.552,0.448,1,1,1s1-0.448,1-1S0.552-5,0-5S-1-4.553-1-4z"/>
		<path fill="#323133" d="M-1-1v5c0,0.552,0.448,1,1,1h0c0.552,0,1-0.448,1-1v-5c0-0.552-0.448-1-1-1h0C-0.552-2-1-1.553-1-1z"/>
	</g>
</symbol>
<g id="Layer_2" display="none">
</g>
<g id="Layer_1">
</g>
<g id="Layer_3">
</g>
<g id="Layer_4">
</g>
<g id="Layer_5">
	<g id="Inherit_icon">
		
			<use xlink:href="#Removal_icon"  width="14" height="14" id="XMLID_17_" x="-7" y="-7" transform="matrix(1 0 0 -1 7 6.9996)" overflow="visible"/>
	</g>
</g>
</svg>
