<?xml version="1.0" encoding="utf-8"?>
<!-- Generator: Adobe Illustrator 19.2.1, SVG Export Plug-In . SVG Version: 6.00 Build 0)  -->
<svg version="1.1" id="Layer_1" xmlns="http://www.w3.org/2000/svg" xmlns:xlink="http://www.w3.org/1999/xlink" x="0px" y="0px"
	 viewBox="0 0 16 16" style="enable-background:new 0 0 16 16;" xml:space="preserve">
<style type="text/css">
	.st0{clip-path:url(#SVGID_2_);}
	.st1{fill:#FFFFFF;}
	.st2{fill:#666666;}
</style>
<g>
	<defs>
		<rect id="SVGID_1_" x="0" width="16" height="16"/>
	</defs>
	<clipPath id="SVGID_2_">
		<use xlink:href="#SVGID_1_"  style="overflow:visible;"/>
	</clipPath>
	<g class="st0">
		<g>
			<g>
				<g>
					<g>
						<path class="st1" d="M8,0C3.6,0,0,3.6,0,8s3.6,8,8,8s8-3.6,8-8S12.4,0,8,0L8,0z"/>
					</g>
				</g>
			</g>
		</g>
		<g>
			<g>
				<g>
					<g>
						<path class="st2" d="M15,8c0,3.9-3.1,7-7,7c-3.9,0-7-3.1-7-7c0-3.9,3.1-7,7-7C11.9,1,15,4.1,15,8z"/>
					</g>
				</g>
			</g>
		</g>
	</g>
	<g class="st0">
		<path class="st1" d="M5.6,11.3c-0.2,0-0.4-0.1-0.5-0.2c-0.3-0.3-0.3-0.8,0-1.1L10,5c0.3-0.3,0.8-0.3,1.1,0s0.3,0.8,0,1.1L6.1,11
			C6,11.2,5.8,11.3,5.6,11.3z"/>
	</g>
	<g class="st0">
		<path class="st1" d="M10.5,11.3c-0.2,0-0.4-0.1-0.5-0.2L5.1,6.1C4.8,5.8,4.8,5.3,5.1,5s0.8-0.3,1.1,0l4.9,4.9
			c0.3,0.3,0.3,0.8,0,1.1C10.9,11.2,10.7,11.3,10.5,11.3z"/>
	</g>
</g>
</svg>
