<?xml version="1.0" encoding="utf-8"?>
<!-- Generator: Adobe Illustrator 19.2.1, SVG Export Plug-In . SVG Version: 6.00 Build 0)  -->
<svg version="1.1" id="Layer_1" xmlns="http://www.w3.org/2000/svg" xmlns:xlink="http://www.w3.org/1999/xlink" x="0px" y="0px"
	 viewBox="0 0 16 16" style="enable-background:new 0 0 16 16;" xml:space="preserve">
<style type="text/css">
	.st0{clip-path:url(#SVGID_2_);}
	.st1{fill:#E67035;}
	.st2{fill:#FFFFFF;}
	.st3{fill:#C95427;}
</style>
<g>
	<defs>
		<rect id="SVGID_1_" x="0" y="0" width="16" height="16"/>
	</defs>
	<clipPath id="SVGID_2_">
		<use xlink:href="#SVGID_1_"  style="overflow:visible;"/>
	</clipPath>
	<g class="st0">
		<g>
			<g>
				<path class="st1" d="M8,15.6c-4.2,0-7.6-3.4-7.6-7.6S3.8,0.4,8,0.4s7.6,3.4,7.6,7.6S12.2,15.6,8,15.6z"/>
				<path class="st2" d="M8,0.9c3.9,0,7.1,3.2,7.1,7.1s-3.2,7.1-7.1,7.1S0.9,11.9,0.9,8S4.1,0.9,8,0.9 M8,0C3.6,0,0,3.6,0,8
					s3.6,8,8,8s8-3.6,8-8S12.4,0,8,0L8,0z"/>
			</g>
		</g>
		<path class="st3" d="M8,13c-2.8,0-5-2.2-5-5s2.2-5,5-5s5,2.2,5,5C13,10.8,10.8,13,8,13z M8,5.7c-1.3,0-2.3,1-2.3,2.3
			c0,1.3,1,2.3,2.3,2.3s2.3-1,2.3-2.3S9.3,5.7,8,5.7z"/>
	</g>
</g>
</svg>
