<?xml version="1.0" encoding="utf-8"?>
<!-- Generator: Adobe Illustrator 19.2.1, SVG Export Plug-In . SVG Version: 6.00 Build 0)  -->
<svg version="1.1" id="Layer_1" xmlns="http://www.w3.org/2000/svg" xmlns:xlink="http://www.w3.org/1999/xlink" x="0px" y="0px"
	 viewBox="0 0 16 16" style="enable-background:new 0 0 16 16;" xml:space="preserve">
<style type="text/css">
	.st0{clip-path:url(#SVGID_2_);}
	.st1{fill:#227247;}
	.st2{fill:#FFFFFF;}
</style>
<g>
	<defs>
		<rect id="SVGID_1_" width="16" height="16"/>
	</defs>
	<clipPath id="SVGID_2_">
		<use xlink:href="#SVGID_1_"  style="overflow:visible;"/>
	</clipPath>
	<g class="st0">
		<g>
			<path class="st1" d="M2.5,14.5c-0.8,0-1.5-0.3-1.8-0.9c-0.3-0.5-0.2-1.2,0.2-1.9l5.5-9.2c0.4-0.7,1-1.1,1.6-1.1s1.2,0.4,1.6,1.1
				l5.5,9.2c0.4,0.7,0.5,1.3,0.2,1.9c-0.3,0.5-1,0.9-1.8,0.9H2.5z"/>
			<path class="st2" d="M8,2c0.4,0,0.9,0.3,1.2,0.8l5.5,9.2c0.7,1.1,0.1,2-1.2,2H2.5c-1.3,0-1.8-0.9-1.2-2l5.5-9.2
				C7.1,2.3,7.6,2,8,2 M8,1C7.2,1,6.5,1.5,6,2.3l-5.5,9.2c-0.5,0.8-0.6,1.7-0.2,2.4C0.7,14.6,1.5,15,2.5,15h11.1
				c1,0,1.8-0.4,2.2-1.1c0.4-0.7,0.3-1.6-0.2-2.4L10,2.3C9.5,1.5,8.8,1,8,1L8,1z"/>
		</g>
	</g>
</g>
<path class="st2" d="M10.6,8.2c-0.2-0.2-0.6-0.2-0.8,0l-3.3,3.3L4.9,9.9c-0.2-0.2-0.6-0.2-0.8,0c-0.2,0.2-0.2,0.6,0,0.8L6.5,13
	l4.1-4.1C10.8,8.7,10.8,8.4,10.6,8.2z"/>
</svg>
