<?xml version="1.0" encoding="utf-8"?>
<!-- Generator: Adobe Illustrator 21.0.0, SVG Export Plug-In . SVG Version: 6.00 Build 0)  -->
<!DOCTYPE svg PUBLIC "-//W3C//DTD SVG 1.1//EN" "http://www.w3.org/Graphics/SVG/1.1/DTD/svg11.dtd">
<svg version="1.1" id="Layer_1" xmlns="http://www.w3.org/2000/svg" xmlns:xlink="http://www.w3.org/1999/xlink" x="0px" y="0px"
	 viewBox="0 0 16 16" style="enable-background:new 0 0 16 16;" xml:space="preserve">
<style type="text/css">
	.st0{fill:#FFFFFF;}
	.st1{fill:#C95427;}
</style>
<g>
	<path class="st0" d="M3.6,16C2.7,16,2,15.3,2,14.4V7.6c0-0.7,0.4-1.3,1-1.5V4.9C3,2.2,5.2,0,7.9,0h0.2C10.8,0,13,2.2,13,4.9v1.2
		c0.3,0.1,0.6,0.3,0.7,0.6C14,6.9,14.1,7.3,14,7.7v6.7c0,0.9-0.7,1.6-1.6,1.6H3.6z M10,6V4.7C10,3.8,9.2,3,8.3,3H7.7
		C6.8,3,6,3.8,6,4.7V6H10z"/>
	<path class="st1" d="M12.5,7H12V4.9C12,2.8,10.2,1,8.1,1H7.9C5.8,1,4,2.8,4,4.9V7H3.5C3.2,7,3,7.3,3,7.6v6.8C3,14.7,3.3,15,3.6,15
		h8.8c0.3,0,0.6-0.3,0.6-0.6V7.6C13.1,7.3,12.8,7,12.5,7z M7.7,2h0.6C9.8,2,11,3.2,11,4.7V7H5V4.7C5,3.2,6.2,2,7.7,2z"/>
</g>
<g id="edit_icon_2_7_">
</g>
<g id="trash_icon_7_">
	<g id="trash_7_">
	</g>
</g>
<g id="New_Symbol">
	<g id="Layer_2_5_">
	</g>
	<g id="Layer_1_5_">
	</g>
	<g id="Layer_3_5_">
	</g>
	<g id="Layer_4_5_">
	</g>
	<g id="Layer_2_14_">
	</g>
	<g id="Layer_1_30_">
	</g>
	<g id="Layer_3_13_">
	</g>
	<g id="Layer_4_13_">
	</g>
	<g id="Layer_5_12_">
		<g>
			<g>
				<path class="st0" d="M10.6,12.9c0-0.4-0.1-0.9-0.5-1.1c-0.4-0.2-1.1-0.1-1.4-0.5c0.3-0.2,0.4-0.5,0.5-0.9
					c0.2-0.1,0.3-0.5,0.2-0.7C9.6,8.8,8.9,8,8,8C7.6,8,7.1,8.2,6.9,8.5C6.6,8.8,6.6,9.3,6.7,9.7c-0.1,0.2-0.1,0.6,0.2,0.7
					c0.1,0.3,0.2,0.7,0.5,0.9c-0.2,0.3-0.6,0.3-0.9,0.4c-0.3,0.1-0.7,0.2-0.9,0.4c-0.2,0.3-0.2,0.9-0.2,1.2c0,0.4,0.3,0.6,0.6,0.7
					c0.2,0.2,3.2,0.3,4,0c0.3-0.1,0.4-0.1,0.5-0.4C10.6,13.4,10.6,13.1,10.6,12.9z"/>
			</g>
		</g>
	</g>
	<g id="Layer_7_10_">
	</g>
</g>
</svg>
