<?xml version="1.0" encoding="utf-8"?>
<!-- Generator: Adobe Illustrator 19.1.0, SVG Export Plug-In . SVG Version: 6.00 Build 0)  -->
<svg version="1.1" id="Layer_1" xmlns="http://www.w3.org/2000/svg" xmlns:xlink="http://www.w3.org/1999/xlink" x="0px" y="0px"
	 viewBox="0 0 24 24" style="enable-background:new 0 0 24 24;" xml:space="preserve">
<style type="text/css">
	.st0{fill:#FFFFFF;}
	.st1{fill:#0072AB;}
</style>
<g>
	<path class="st0" d="M12,22.5C6.21,22.5,1.5,17.79,1.5,12C1.5,6.21,6.21,1.5,12,1.5c5.79,0,10.5,4.71,10.5,10.5
		C22.5,17.79,17.79,22.5,12,22.5z"/>
	<path class="st1" d="M12,2c5.514,0,10,4.486,10,10s-4.486,10-10,10S2,17.514,2,12S6.486,2,12,2 M12,1C5.935,1,1,5.935,1,12
		s4.935,11,11,11s11-4.935,11-11S18.065,1,12,1L12,1z"/>
</g>
<g>
	<g>
		<path class="st0" d="M12,1c6.065,0,11,4.935,11,11s-4.935,11-11,11S1,18.065,1,12S5.935,1,12,1 M12,0C5.373,0,0,5.373,0,12
			s5.373,12,12,12s12-5.373,12-12S18.627,0,12,0L12,0z"/>
	</g>
</g>
<path class="st1" d="M18.787,17.2c-0.676-0.313-1.486-0.469-2.2-0.606c-0.591-0.114-1.15-0.222-1.54-0.398
	c-0.213-0.096-0.399-0.239-0.553-0.424c-0.085-0.101-0.161-0.219-0.228-0.349c0.341-0.282,0.637-0.622,0.884-1.02
	c0.341-0.547,0.592-1.202,0.752-1.955c0.163-0.047,0.322-0.173,0.456-0.364c0.149-0.213,0.261-0.497,0.315-0.8
	c0.079-0.442,0.029-0.863-0.131-1.144c0.014-0.058,0.028-0.116,0.04-0.178c0.075-0.379,0.1-0.818,0.074-1.305
	c-0.043-0.824-0.214-1.493-0.221-1.52c-0.176-0.705-0.701-1.414-1.44-1.942c-0.589-0.421-1.586-0.923-2.989-0.923
	s-2.4,0.502-2.989,0.923c-0.739,0.53-1.264,1.237-1.44,1.943c-0.01,0.036-0.18,0.702-0.225,1.521
	C7.324,9.146,7.349,9.585,7.423,9.964c0.012,0.059,0.025,0.116,0.038,0.172c-0.163,0.28-0.213,0.703-0.134,1.147
	c0.055,0.305,0.167,0.59,0.317,0.803c0.135,0.191,0.295,0.317,0.458,0.363c0.159,0.753,0.411,1.408,0.752,1.955
	c0.249,0.399,0.546,0.741,0.888,1.023c-0.067,0.129-0.142,0.245-0.226,0.346c-0.153,0.185-0.339,0.327-0.553,0.424
	c-0.39,0.176-0.949,0.284-1.54,0.398c-0.715,0.138-1.525,0.294-2.2,0.606c-0.419,0.194-0.747,0.435-0.999,0.722
	c-1.525,1.55,4.594,4.57,7.821,4.57c3.228,0,9.019-2.693,7.737-4.575C19.531,17.633,19.204,17.393,18.787,17.2z"/>
<path class="st0" d="M11.943,12.498c-0.2,0-0.369,0.068-0.507,0.202c-0.138,0.134-0.207,0.3-0.207,0.497
	c0,0.222,0.072,0.395,0.214,0.519c0.142,0.124,0.309,0.186,0.499,0.186c0.185,0,0.348-0.062,0.488-0.188
	c0.141-0.125,0.212-0.297,0.212-0.517c0-0.197-0.068-0.363-0.202-0.497C12.307,12.566,12.141,12.498,11.943,12.498z"/>
<path class="st0" d="M14.064,7.459c-0.189-0.288-0.458-0.516-0.806-0.683c-0.348-0.167-0.748-0.251-1.202-0.251
	c-0.488,0-0.916,0.1-1.282,0.3c-0.367,0.2-0.645,0.453-0.836,0.758C9.747,7.888,9.652,8.19,9.652,8.487
	c0,0.144,0.06,0.278,0.181,0.401c0.12,0.124,0.268,0.186,0.443,0.186c0.297,0,0.499-0.177,0.606-0.531
	c0.112-0.338,0.25-0.594,0.413-0.768c0.163-0.174,0.417-0.261,0.761-0.261c0.295,0,0.534,0.086,0.721,0.258
	c0.187,0.172,0.28,0.384,0.28,0.634c0,0.128-0.031,0.248-0.092,0.357c-0.061,0.109-0.137,0.209-0.225,0.298
	c-0.089,0.089-0.234,0.222-0.434,0.397c-0.229,0.2-0.41,0.374-0.545,0.52c-0.135,0.146-0.243,0.315-0.324,0.507
	c-0.081,0.192-0.122,0.42-0.122,0.683c0,0.21,0.056,0.368,0.166,0.474c0.111,0.106,0.248,0.16,0.411,0.16
	c0.313,0,0.499-0.163,0.559-0.488c0.034-0.153,0.06-0.26,0.077-0.322c0.017-0.061,0.042-0.122,0.073-0.183
	c0.031-0.062,0.079-0.128,0.144-0.202c0.064-0.073,0.149-0.159,0.256-0.256c0.386-0.344,0.652-0.589,0.8-0.735
	c0.149-0.146,0.278-0.318,0.386-0.519c0.108-0.2,0.162-0.434,0.162-0.7C14.348,8.06,14.254,7.747,14.064,7.459z"/>
</svg>
