<?xml version="1.0" encoding="utf-8"?>
<!-- Generator: Adobe Illustrator 19.2.1, SVG Export Plug-In . SVG Version: 6.00 Build 0)  -->
<svg version="1.1" id="Layer_1" xmlns="http://www.w3.org/2000/svg" xmlns:xlink="http://www.w3.org/1999/xlink" x="0px" y="0px"
	 viewBox="0 0 16 16" style="enable-background:new 0 0 16 16;" xml:space="preserve">
<style type="text/css">
	.st0{clip-path:url(#SVGID_2_);}
	.st1{fill:#666666;}
	.st2{fill:#FFFFFF;}
</style>
<g>
	<defs>
		<rect id="SVGID_1_" x="0.1" y="0.1" width="15.9" height="15.9"/>
	</defs>
	<clipPath id="SVGID_2_">
		<use xlink:href="#SVGID_1_"  style="overflow:visible;"/>
	</clipPath>
	<g class="st0">
		<path class="st1" d="M1,13.5c-0.3,0-0.5-0.2-0.5-0.5V3C0.5,2,1,1.5,2,1.5h3.4c0.2,0,0.5,0,0.8,0.2l1.3,1.6c0,0,0,0,0,0
			c0,0,0.1,0,0.1,0.1c0,0,0,0,0.1,0.1h4.7c0.8,0,1.3,0.6,1.3,1.5c0,0.3-0.2,0.5-0.5,0.5H3c-0.1,0-0.1,0-0.1,0l-0.1,1l0.1-0.3
			c0.2-0.5,0.6-0.8,1-0.8h10.5c0.3,0,0.6,0.2,0.8,0.5c0.2,0.3,0.3,0.8,0.2,1.1l-2.1,6.1c-0.1,0.2-0.3,0.3-0.5,0.3H1z"/>
		<path class="st2" d="M5.4,2c0.2,0,0.3,0,0.4,0.1L7,3.7C7.1,3.8,7.3,4,7.4,4h4.8C12.7,4,13,4.4,13,5v0H3C2.7,5,2.5,5.1,2.5,5.5
			L2,11l1.4-4.6C3.5,6.2,3.7,6,4,6h10.5c0.4,0,0.7,0.5,0.6,0.9L12.9,13h0H1V3c0-0.6,0.3-1,1-1H5.4 M5.4,1H2C0.8,1,0,1.8,0,3v10
			c0,0.6,0.4,1,1,1h11.9c0.4,0,0.8-0.3,1-0.7l2.1-6.1c0.2-0.5,0.1-1.1-0.2-1.6C15.4,5.2,14.9,5,14.4,5H14c0-1.2-0.8-2-1.8-2H7.8
			c0,0,0,0,0,0L6.6,1.5c0-0.1-0.1-0.1-0.1-0.1C6.1,1,5.6,1,5.4,1L5.4,1z"/>
	</g>
</g>
</svg>
