<?xml version="1.0" encoding="utf-8"?>
<!-- Generator: Adobe Illustrator 19.2.1, SVG Export Plug-In . SVG Version: 6.00 Build 0)  -->
<svg version="1.1" id="Layer_1" xmlns="http://www.w3.org/2000/svg" xmlns:xlink="http://www.w3.org/1999/xlink" x="0px" y="0px"
	 viewBox="0 0 16 16" style="enable-background:new 0 0 16 16;" xml:space="preserve">
<style type="text/css">
	.st0{clip-path:url(#SVGID_2_);}
	.st1{fill:#FFFFFF;}
	.st2{fill:#52870A;}
	.st3{clip-path:url(#SVGID_4_);fill:#8CC53E;}
	.st4{clip-path:url(#SVGID_6_);}
</style>
<g>
	<g>
		<defs>
			<rect id="SVGID_1_" width="16" height="16"/>
		</defs>
		<clipPath id="SVGID_2_">
			<use xlink:href="#SVGID_1_"  style="overflow:visible;"/>
		</clipPath>
		<g class="st0">
			<path class="st1" d="M14.5,11c0,0.9-0.7,1.6-1.6,1.6H3.1c-0.9,0-1.6-0.7-1.6-1.6V5.2c0-0.9,0.7-1.6,1.6-1.6H13
				c0.8,0,1.5,0.7,1.5,1.6V11z"/>
			<path class="st2" d="M12.9,4C13.6,4,14,4.5,14,5.1v5.8c0,0.6-0.5,1.1-1.1,1.1H3.1C2.5,12.1,2,11.6,2,11V5.1C2,4.5,2.5,4,3.1,4H13
				 M13,3H3.1C1.9,3,1,3.9,1,5.1v5.7C1,12,2,13,3.1,13h9.8c1.2,0,2.1-0.9,2.1-2.1V5.1C15.1,4,14.1,3,13,3L13,3z"/>
		</g>
	</g>
	<g>
		<defs>
			<rect id="SVGID_3_" width="16" height="16"/>
		</defs>
		<clipPath id="SVGID_4_">
			<use xlink:href="#SVGID_3_"  style="overflow:visible;"/>
		</clipPath>
		<rect x="2" y="5" class="st3" width="12" height="2"/>
	</g>
	<g>
		<defs>
			<rect id="SVGID_5_" width="16" height="16"/>
		</defs>
		<clipPath id="SVGID_6_">
			<use xlink:href="#SVGID_5_"  style="overflow:visible;"/>
		</clipPath>
		<g class="st4">
			<path class="st1" d="M12.9,3C14,3,15,4,15,5.1v6.3c0,0.9-0.7,1.6-1.6,1.6H3.1C2,13,1,12,1,10.9V5.1C1,4,2,3,3.1,3H12.9 M12.9,2
				H3.1C1.5,2,0,3.5,0,5.1v5.7C0,12.5,1.5,14,3.1,14h10.3c1.4,0,2.6-1.2,2.6-2.6V5.1C16,3.5,14.5,2,12.9,2L12.9,2z"/>
		</g>
	</g>
</g>
</svg>
