<?xml version="1.0" encoding="utf-8"?>
<!-- Generator: Adobe Illustrator 19.1.0, SVG Export Plug-In . SVG Version: 6.00 Build 0)  -->
<svg version="1.1" id="Layer_3" xmlns="http://www.w3.org/2000/svg" xmlns:xlink="http://www.w3.org/1999/xlink" x="0px" y="0px"
	 viewBox="0 0 24 24" style="enable-background:new 0 0 24 24;" xml:space="preserve">
<style type="text/css">
	.st0{fill:#FFFFFF;}
	.st1{fill:#DF3324;}
</style>
<g>
	<path class="st0" d="M12,23.5C5.659,23.5,0.5,18.341,0.5,12C0.5,5.659,5.659,0.5,12,0.5c6.341,0,11.5,5.159,11.5,11.5
		C23.5,18.341,18.341,23.5,12,23.5z"/>
	<path class="st0" d="M12,1c6.065,0,11,4.935,11,11s-4.935,11-11,11S1,18.065,1,12S5.935,1,12,1 M12,0C5.373,0,0,5.373,0,12
		s5.373,12,12,12s12-5.373,12-12S18.627,0,12,0L12,0z"/>
</g>
<g>
	<path class="st1" d="M12,23C5.935,23,1,18.065,1,12c0-3.704,1.847-7.137,4.94-9.182c0.461-0.304,1.081-0.177,1.386,0.282
		C7.63,3.562,7.504,4.182,7.043,4.486C4.512,6.161,3,8.969,3,12c0,4.963,4.038,9,9,9c4.963,0,9-4.037,9-9
		c0-3.033-1.513-5.842-4.047-7.516c-0.461-0.304-0.588-0.925-0.283-1.386c0.304-0.461,0.926-0.587,1.385-0.283
		C21.151,4.86,23,8.293,23,12C23,18.065,18.065,23,12,23z"/>
</g>
<g>
	<path class="st1" d="M12,13.1c-0.607,0-1.1-0.492-1.1-1.1V2c0-0.607,0.493-1.1,1.1-1.1s1.1,0.493,1.1,1.1v10
		C13.1,12.607,12.607,13.1,12,13.1z"/>
</g>
</svg>
