<svg xmlns="http://www.w3.org/2000/svg" viewBox="0 0 16.338 16"><defs><style>.cls-1{fill:#00a086;}.cls-2{fill:#fff;}.cls-3{fill:none;}</style></defs><title>Asset 2</title><g id="Layer_2" data-name="Layer 2"><g id="Layer_1-2" data-name="Layer 1"><circle class="cls-1" cx="8.338" cy="8" r="7.5"/><path class="cls-2" d="M8.338,1a6.957,6.957,0,0,1,7,7,6.957,6.957,0,0,1-7,7,6.957,6.957,0,0,1-7-7,6.957,6.957,0,0,1,7-7m0-1a8,8,0,1,0,8,8,8.024,8.024,0,0,0-8-8Z"/><rect class="cls-3" width="16" height="16"/><path class="cls-2" d="M12.638,4.8a.785.785,0,0,0-1.1,0l-4.4,4.5-2.1-2.2a.782.782,0,0,0-1.1,0,.707.707,0,0,0,0,1.1l3.2,3.2,5.6-5.6A.775.775,0,0,0,12.638,4.8Z"/></g></g></svg>