<?xml version="1.0" encoding="utf-8"?>
<!-- Generator: Adobe Illustrator 19.2.1, SVG Export Plug-In . SVG Version: 6.00 Build 0)  -->
<svg version="1.1" id="Layer_1" xmlns="http://www.w3.org/2000/svg" xmlns:xlink="http://www.w3.org/1999/xlink" x="0px" y="0px"
	 viewBox="0 0 16 16" style="enable-background:new 0 0 16 16;" xml:space="preserve">
<style type="text/css">
	.st0{fill:#FFFFFF;}
	.st1{fill:#004C71;}
	.st2{fill:none;}
</style>
<rect x="2" y="6" class="st0" width="12" height="6"/>
<g>
	<path class="st1" d="M2,12.5c-0.3,0-0.5-0.2-0.5-0.5V6c0-0.3,0.2-0.5,0.5-0.5h2c0.3,0,0.5,0.2,0.5,0.5v6c0,0.3-0.2,0.5-0.5,0.5H2z"
		/>
	<path class="st0" d="M4,6v6H2V6H4 M4,5H2C1.4,5,1,5.4,1,6v6c0,0.6,0.4,1,1,1h2c0.6,0,1-0.4,1-1V6C5,5.4,4.6,5,4,5L4,5z"/>
</g>
<g>
	<path class="st1" d="M7,12.5c-0.3,0-0.5-0.2-0.5-0.5V6c0-0.3,0.2-0.5,0.5-0.5h2c0.3,0,0.5,0.2,0.5,0.5v6c0,0.3-0.2,0.5-0.5,0.5H7z"
		/>
	<path class="st0" d="M9,6v6H7V6H9 M9,5H7C6.4,5,6,5.4,6,6v6c0,0.6,0.4,1,1,1h2c0.6,0,1-0.4,1-1V6C10,5.4,9.6,5,9,5L9,5z"/>
</g>
<g>
	<path class="st1" d="M12,12.5c-0.3,0-0.5-0.2-0.5-0.5V6c0-0.3,0.2-0.5,0.5-0.5h2c0.3,0,0.5,0.2,0.5,0.5v6c0,0.3-0.2,0.5-0.5,0.5H12
		z"/>
	<path class="st0" d="M14,6v6h-2V6H14 M14,5h-2c-0.6,0-1,0.4-1,1v6c0,0.6,0.4,1,1,1h2c0.6,0,1-0.4,1-1V6C15,5.4,14.6,5,14,5L14,5z"
		/>
</g>
<g>
	<path class="st1" d="M1,15.5c-0.3,0-0.5-0.2-0.5-0.5v-2c0-0.3,0.2-0.5,0.5-0.5h14c0.3,0,0.5,0.2,0.5,0.5v2c0,0.3-0.2,0.5-0.5,0.5H1
		z"/>
	<path class="st0" d="M15,13v2H1v-2H15 M15,12H1c-0.6,0-1,0.4-1,1v2c0,0.6,0.4,1,1,1h14c0.6,0,1-0.4,1-1v-2C16,12.4,15.6,12,15,12
		L15,12z"/>
</g>
<g>
	<path class="st1" d="M1,5.5c-0.2,0-0.4-0.2-0.5-0.4s0-0.5,0.2-0.6l7-4c0.1,0,0.2-0.1,0.2-0.1s0.2,0,0.2,0.1l7,4
		c0.2,0.1,0.3,0.3,0.2,0.6c-0.1,0.2-0.3,0.4-0.5,0.4H1z"/>
	<path class="st0" d="M8,1l7,4H1L8,1 M8,0C7.8,0,7.7,0,7.5,0.1l-7,4C0.1,4.4-0.1,4.8,0,5.3C0.1,5.7,0.5,6,1,6h14
		c0.5,0,0.9-0.3,1-0.7c0.1-0.4-0.1-0.9-0.5-1.1l-7-4C8.3,0,8.2,0,8,0L8,0z"/>
</g>
<rect x="0" y="0" transform="matrix(4.490612e-11 1 -1 4.490612e-11 16 -3.592486e-10)" class="st2" width="16" height="16"/>
</svg>
