<?xml version="1.0" encoding="utf-8"?>
<!-- Generator: Adobe Illustrator 19.1.0, SVG Export Plug-In . SVG Version: 6.00 Build 0)  -->
<svg version="1.1" id="Layer_1" xmlns="http://www.w3.org/2000/svg" xmlns:xlink="http://www.w3.org/1999/xlink" x="0px" y="0px"
	 viewBox="0 0 24 24" style="enable-background:new 0 0 24 24;" xml:space="preserve">
<style type="text/css">
	.st0{fill:none;stroke:#DF3324;stroke-width:2;stroke-linecap:round;stroke-miterlimit:10;}
	.st1{fill:#FFFFFF;}
	.st2{fill:#DF3324;}
</style>
<g>
	<path class="st0" d="M19.05,7.2"/>
</g>
<g>
	<path class="st0" d="M25.45,0.8"/>
</g>
<g>
	<path class="st1" d="M12,22C6.486,22,2,17.514,2,12C2,6.486,6.486,2,12,2c5.514,0,10,4.486,10,10C22,17.514,17.514,22,12,22z"/>
	<path class="st2" d="M12,3c4.963,0,9,4.037,9,9s-4.037,9-9,9s-9-4.037-9-9S7.037,3,12,3 M12,1C5.935,1,1,5.935,1,12s4.935,11,11,11
		s11-4.935,11-11S18.065,1,12,1L12,1z"/>
</g>
<g>
	<g>
		<path class="st1" d="M12,1c6.065,0,11,4.935,11,11s-4.935,11-11,11S1,18.065,1,12S5.935,1,12,1 M12,0C5.373,0,0,5.373,0,12
			s5.373,12,12,12s12-5.373,12-12S18.627,0,12,0L12,0z"/>
	</g>
</g>
<g>
	<path class="st2" d="M8,17.5c-0.384,0-0.768-0.146-1.061-0.439c-0.586-0.586-0.586-1.535,0-2.121l8-8
		c0.586-0.586,1.535-0.586,2.121,0c0.586,0.585,0.586,1.536,0,2.121l-8,8C8.768,17.354,8.384,17.5,8,17.5z"/>
</g>
</svg>
