<?xml version="1.0" encoding="utf-8"?>
<!-- Generator: Adobe Illustrator 19.1.0, SVG Export Plug-In . SVG Version: 6.00 Build 0)  -->
<svg version="1.1" id="Layer_1" xmlns="http://www.w3.org/2000/svg" xmlns:xlink="http://www.w3.org/1999/xlink" x="0px" y="0px"
	 viewBox="0 0 24 24" style="enable-background:new 0 0 24 24;" xml:space="preserve">
<style type="text/css">
	.st0{fill:#FFFFFF;}
	.st1{fill:#E08E18;}
</style>
<g>
	<path class="st0" d="M12,22C6.486,22,2,17.514,2,12C2,6.486,6.486,2,12,2c5.514,0,10,4.486,10,10C22,17.514,17.514,22,12,22z"/>
	<path class="st1" d="M12,3c4.963,0,9,4.037,9,9s-4.037,9-9,9s-9-4.037-9-9S7.037,3,12,3 M12,1C5.935,1,1,5.935,1,12s4.935,11,11,11
		s11-4.935,11-11S18.065,1,12,1L12,1z"/>
</g>
<g>
	<g>
		<path class="st0" d="M12,1c6.065,0,11,4.935,11,11s-4.935,11-11,11S1,18.065,1,12S5.935,1,12,1 M12,0C5.373,0,0,5.373,0,12
			s5.373,12,12,12s12-5.373,12-12S18.627,0,12,0L12,0z"/>
	</g>
</g>
<g>
	<g>
		<path class="st1" d="M14,16.3c-0.552,0-1-0.447-1-1V8.7c0-0.552,0.448-1,1-1s1,0.448,1,1v6.6C15,15.853,14.552,16.3,14,16.3z"/>
	</g>
	<g>
		<path class="st1" d="M10,16.3c-0.552,0-1-0.447-1-1V8.7c0-0.552,0.448-1,1-1s1,0.448,1,1v6.6C11,15.853,10.552,16.3,10,16.3z"/>
	</g>
</g>
</svg>
