<?xml version="1.0" encoding="utf-8"?>
<!-- Generator: Adobe Illustrator 19.2.1, SVG Export Plug-In . SVG Version: 6.00 Build 0)  -->
<svg version="1.1" id="Layer_1" xmlns="http://www.w3.org/2000/svg" xmlns:xlink="http://www.w3.org/1999/xlink" x="0px" y="0px"
	 viewBox="0 0 16 16" style="enable-background:new 0 0 16 16;" xml:space="preserve">
<style type="text/css">
	.st0{clip-path:url(#SVGID_2_);}
	.st1{fill:#FFFFFF;}
	.st2{clip-path:url(#SVGID_4_);}
	.st3{fill:#004C71;}
	.st4{clip-path:url(#SVGID_6_);}
	.st5{clip-path:url(#SVGID_8_);}
	.st6{clip-path:url(#SVGID_10_);}
	.st7{clip-path:url(#SVGID_12_);}
	.st8{clip-path:url(#SVGID_14_);}
	.st9{fill:#E67035;}
</style>
<g>
	<g>
		<g>
			<defs>
				<rect id="SVGID_1_" width="16" height="16"/>
			</defs>
			<clipPath id="SVGID_2_">
				<use xlink:href="#SVGID_1_"  style="overflow:visible;"/>
			</clipPath>
			<g class="st0">
				<rect x="2" y="6" class="st1" width="12" height="6"/>
			</g>
		</g>
	</g>
	<g>
		<g>
			<defs>
				<rect id="SVGID_3_" width="16" height="16"/>
			</defs>
			<clipPath id="SVGID_4_">
				<use xlink:href="#SVGID_3_"  style="overflow:visible;"/>
			</clipPath>
			<g class="st2">
				<path class="st3" d="M2,12.5c-0.3,0-0.5-0.2-0.5-0.5V6c0-0.3,0.2-0.5,0.5-0.5h2c0.3,0,0.5,0.2,0.5,0.5v6c0,0.3-0.2,0.5-0.5,0.5
					H2z"/>
				<path class="st1" d="M4,6v6H2V6H4 M4,5H2C1.4,5,1,5.4,1,6v6c0,0.6,0.4,1,1,1h2c0.6,0,1-0.4,1-1V6C5,5.4,4.6,5,4,5L4,5z"/>
			</g>
		</g>
	</g>
	<g>
		<g>
			<defs>
				<rect id="SVGID_5_" width="16" height="16"/>
			</defs>
			<clipPath id="SVGID_6_">
				<use xlink:href="#SVGID_5_"  style="overflow:visible;"/>
			</clipPath>
			<g class="st4">
				<path class="st3" d="M7,12.5c-0.3,0-0.5-0.2-0.5-0.5V6c0-0.3,0.2-0.5,0.5-0.5h2c0.3,0,0.5,0.2,0.5,0.5v6c0,0.3-0.2,0.5-0.5,0.5
					H7z"/>
				<path class="st1" d="M9,6v6H7V6H9 M9,5H7C6.4,5,6,5.4,6,6v6c0,0.6,0.4,1,1,1h2c0.6,0,1-0.4,1-1V6C10,5.4,9.6,5,9,5L9,5z"/>
			</g>
		</g>
	</g>
	<g>
		<g>
			<defs>
				<rect id="SVGID_7_" width="16" height="16"/>
			</defs>
			<clipPath id="SVGID_8_">
				<use xlink:href="#SVGID_7_"  style="overflow:visible;"/>
			</clipPath>
			<g class="st5">
				<path class="st3" d="M12,12.5c-0.3,0-0.5-0.2-0.5-0.5V6c0-0.3,0.2-0.5,0.5-0.5h2c0.3,0,0.5,0.2,0.5,0.5v6c0,0.3-0.2,0.5-0.5,0.5
					H12z"/>
				<path class="st1" d="M14,6v6h-2V6H14 M14,5h-2c-0.6,0-1,0.4-1,1v6c0,0.6,0.4,1,1,1h2c0.6,0,1-0.4,1-1V6C15,5.4,14.6,5,14,5L14,5
					z"/>
			</g>
		</g>
	</g>
	<g>
		<g>
			<defs>
				<rect id="SVGID_9_" width="16" height="16"/>
			</defs>
			<clipPath id="SVGID_10_">
				<use xlink:href="#SVGID_9_"  style="overflow:visible;"/>
			</clipPath>
			<g class="st6">
				<path class="st3" d="M1,15.5c-0.3,0-0.5-0.2-0.5-0.5v-2c0-0.3,0.2-0.5,0.5-0.5h14c0.3,0,0.5,0.2,0.5,0.5v2
					c0,0.3-0.2,0.5-0.5,0.5H1z"/>
				<path class="st1" d="M15,13v2H1v-2H15 M15,12H1c-0.6,0-1,0.4-1,1v2c0,0.6,0.4,1,1,1h14c0.6,0,1-0.4,1-1v-2
					C16,12.4,15.6,12,15,12L15,12z"/>
			</g>
		</g>
	</g>
	<g>
		<g>
			<defs>
				<rect id="SVGID_11_" width="16" height="16"/>
			</defs>
			<clipPath id="SVGID_12_">
				<use xlink:href="#SVGID_11_"  style="overflow:visible;"/>
			</clipPath>
			<g class="st7">
				<path class="st3" d="M1,5.5c-0.2,0-0.4-0.2-0.5-0.4s0-0.5,0.2-0.6l7-4c0.1,0,0.2-0.1,0.2-0.1s0.2,0,0.2,0.1l7,4
					c0.2,0.1,0.3,0.3,0.2,0.6c-0.1,0.2-0.3,0.4-0.5,0.4H1z"/>
				<path class="st1" d="M8,1l7,4H1L8,1 M8,0C7.8,0,7.7,0,7.5,0.1l-7,4C0.1,4.4-0.1,4.8,0,5.3C0.1,5.7,0.5,6,1,6h14
					c0.5,0,0.9-0.3,1-0.7c0.1-0.4-0.1-0.9-0.5-1.1l-7-4C8.3,0,8.2,0,8,0L8,0z"/>
			</g>
		</g>
	</g>
	<g>
		<g>
			<defs>
				<rect id="SVGID_13_" width="16" height="16"/>
			</defs>
			<clipPath id="SVGID_14_">
				<use xlink:href="#SVGID_13_"  style="overflow:visible;"/>
			</clipPath>
			<g class="st8">
				<g>
					<g>
						<path class="st9" d="M10.4,11.3c0-0.3,0.1-0.6,0.4-0.8c0.2-0.2,0.5-0.4,0.8-0.4c0.7,0,1.1,0.6,1.1,1.1v0.6
							c0.5-0.5,0.7-1.1,0.7-1.8c0-0.9-0.5-1.8-1.3-2.2L12,7.7v-2l0.5,0.2c1.8,0.7,3,2.3,3,4.3c0,1-0.4,2-1,2.8c0.6,0.1,1,0.6,1,1.1
							c0,0.7-0.6,1.1-1.1,1.1h-3.8L10.4,11.3z"/>
						<path class="st1" d="M14.4,16H10l-0.1-4.6c0-0.5,0.2-0.9,0.5-1.3c0.3-0.4,0.8-0.5,1.2-0.5c0.6,0,1.1,0.4,1.4,0.8
							c0-0.1,0-0.3,0-0.4c0-0.7-0.6-1.6-1.3-2c-0.6-0.4-0.7-1.2-0.6-1.9c0-0.4,0.2-0.9,0.5-1.2c0.6-0.4,1.2,0.1,1.7,0.4
							c0.4,0.3,0.7,0.6,1,1c0.6,0.7,1.2,1.3,1.6,2.7c0.1,0.3,0.1,0.7,0.1,1c0,1-0.3,1.9-0.8,2.8c0.5,0.3,0.8,0.8,0.8,1.4
							C16,15.3,15.2,16,14.4,16z M10.9,15h3.5c0.3,0,0.7-0.3,0.7-0.7c0-0.3-0.3-0.6-0.7-0.7l-1,0l0.7-0.8c0.6-0.8,1-1.8,1-2.7
							c0-1.8-1.5-3.6-3-4.3V7c1,0.6,2,1.9,2,3c0,0.8-0.3,1.7-0.9,2.3l-0.8,0.9v-1.8c0-0.3-0.3-0.7-0.7-0.7c-0.2,0-0.4,0.1-0.5,0.3
							c-0.2,0.2-0.2,0.4-0.2,0.5L10.9,15z"/>
					</g>
				</g>
			</g>
		</g>
	</g>
</g>
</svg>
