<?xml version="1.0" encoding="utf-8"?>
<!-- Generator: Adobe Illustrator 19.2.1, SVG Export Plug-In . SVG Version: 6.00 Build 0)  -->
<svg version="1.1" id="Layer_1" xmlns="http://www.w3.org/2000/svg" xmlns:xlink="http://www.w3.org/1999/xlink" x="0px" y="0px"
	 viewBox="0 0 16 16" style="enable-background:new 0 0 16 16;" xml:space="preserve">
<style type="text/css">
	.st0{clip-path:url(#SVGID_2_);}
	.st1{clip-path:url(#SVGID_4_);}
	.st2{fill:#227247;}
	.st3{fill:#FFFFFF;}
	.st4{clip-path:url(#SVGID_6_);fill:#FFFFFF;}
	.st5{clip-path:url(#SVGID_8_);}
	.st6{fill:#E67035;}
</style>
<g>
	<g>
		<g>
			<defs>
				<rect id="SVGID_1_" width="16" height="16"/>
			</defs>
			<clipPath id="SVGID_2_">
				<use xlink:href="#SVGID_1_"  style="overflow:visible;"/>
			</clipPath>
			<g class="st0">
				<g>
					<g>
						<defs>
							<rect id="SVGID_3_" width="16" height="16"/>
						</defs>
						<clipPath id="SVGID_4_">
							<use xlink:href="#SVGID_3_"  style="overflow:visible;"/>
						</clipPath>
						<g class="st1">
							<g>
								<path class="st2" d="M2.5,14.5c-0.8,0-1.5-0.3-1.8-0.9c-0.3-0.5-0.2-1.2,0.2-1.9l5.5-9.2c0.4-0.7,1-1.1,1.6-1.1
									s1.2,0.4,1.6,1.1l5.5,9.2c0.4,0.7,0.5,1.3,0.2,1.9c-0.3,0.5-1,0.9-1.8,0.9H2.5z"/>
								<path class="st3" d="M8,2c0.4,0,0.9,0.3,1.2,0.8l5.5,9.2c0.7,1.1,0.1,2-1.2,2h-11c-1.3,0-1.8-0.9-1.2-2l5.5-9.2
									C7.1,2.3,7.6,2,8,2 M8,1C7.2,1,6.5,1.5,6,2.3l-5.5,9.2c-0.5,0.8-0.6,1.7-0.2,2.4C0.7,14.6,1.5,15,2.5,15h11.1
									c1,0,1.8-0.4,2.2-1.1c0.4-0.7,0.3-1.6-0.2-2.4L10,2.3C9.5,1.5,8.8,1,8,1L8,1z"/>
							</g>
						</g>
					</g>
					<g>
						<g>
							<defs>
								<rect id="SVGID_5_" width="16" height="16"/>
							</defs>
							<clipPath id="SVGID_6_">
								<use xlink:href="#SVGID_5_"  style="overflow:visible;"/>
							</clipPath>
							<path class="st4" d="M10.6,8.2C10.4,8,10,8,9.8,8.2l-3.3,3.3L4.9,9.9c-0.2-0.2-0.6-0.2-0.8,0c-0.2,0.2-0.2,0.6,0,0.8L6.5,13
								l4.1-4.1C10.8,8.7,10.8,8.4,10.6,8.2z"/>
						</g>
						<g>
							<g>
								<defs>
									<rect id="SVGID_7_" width="16" height="16"/>
								</defs>
								<clipPath id="SVGID_8_">
									<use xlink:href="#SVGID_7_"  style="overflow:visible;"/>
								</clipPath>
								<g class="st5">
									<g>
										<g>
											<path class="st6" d="M10.4,11.3c0-0.3,0.1-0.6,0.4-0.8c0.2-0.2,0.5-0.4,0.8-0.4c0.7,0,1.1,0.6,1.1,1.1v0.6
												c0.5-0.5,0.7-1.1,0.7-1.8c0-0.9-0.5-1.8-1.3-2.2L12,7.7v-2l0.5,0.2c1.8,0.7,3,2.3,3,4.3c0,1-0.4,2-1,2.8
												c0.6,0.1,1,0.6,1,1.1c0,0.7-0.6,1.1-1.1,1.1h-3.8L10.4,11.3z"/>
											<path class="st3" d="M14.4,16H10l-0.1-4.6c0-0.5,0.2-0.9,0.5-1.3c0.3-0.4,0.8-0.5,1.2-0.5c0.6,0,1.1,0.4,1.4,0.8
												c0-0.1,0-0.3,0-0.4c0-0.7-0.6-1.6-1.3-2c-0.6-0.4-0.7-1.2-0.6-1.9c0-0.4,0.2-0.9,0.5-1.2c0.6-0.4,1.2,0.1,1.7,0.4
												c0.4,0.3,0.7,0.6,1,1c0.6,0.7,1.2,1.3,1.6,2.7c0.1,0.3,0.1,0.7,0.1,1c0,1-0.3,1.9-0.8,2.8c0.5,0.3,0.8,0.8,0.8,1.4
												C16,15.3,15.2,16,14.4,16z M10.9,15h3.5c0.3,0,0.7-0.3,0.7-0.7c0-0.3-0.3-0.6-0.7-0.7l-1,0l0.7-0.8c0.6-0.8,1-1.8,1-2.7
												c0-1.8-1.5-3.6-3-4.3V7c1,0.6,2,1.9,2,3c0,0.8-0.3,1.7-0.9,2.3l-0.8,0.9v-1.8c0-0.3-0.3-0.7-0.7-0.7
												c-0.2,0-0.4,0.1-0.5,0.3c-0.2,0.2-0.2,0.4-0.2,0.5L10.9,15z"/>
										</g>
									</g>
								</g>
							</g>
						</g>
					</g>
				</g>
			</g>
		</g>
	</g>
</g>
</svg>
