<?xml version="1.0" encoding="utf-8"?>
<!-- Generator: Adobe Illustrator 19.1.0, SVG Export Plug-In . SVG Version: 6.00 Build 0)  -->
<svg version="1.1" xmlns="http://www.w3.org/2000/svg" xmlns:xlink="http://www.w3.org/1999/xlink" x="0px" y="0px"
	 viewBox="0 0 14 14" enable-background="new 0 0 14 14" xml:space="preserve">
<symbol  id="Inherit_icon_2" viewBox="-7 -7 14 14">
	<g>
		<path opacity="0.95" fill-rule="evenodd" clip-rule="evenodd" fill="#0B5F99" d="M0-6.5c-3.584,0-6.5,2.916-6.5,6.5
			c0,3.584,2.916,6.5,6.5,6.5c3.584,0,6.5-2.916,6.5-6.5C6.5-3.584,3.584-6.5,0-6.5z"/>
		<path fill="#F3F4F5" d="M0,6c3.309,0,6-2.691,6-6S3.309-6,0-6s-6,2.691-6,6S-3.309,6,0,6 M0,7c-3.866,0-7-3.134-7-7s3.134-7,7-7
			s7,3.134,7,7S3.866,7,0,7L0,7z"/>
	</g>
	<line fill="none" stroke="#F3F4F5" stroke-miterlimit="10" x1="-4.375" y1="4.375" x2="2.625" y2="-2.625"/>
	<polyline fill="none" stroke="#F3F4F5" stroke-linecap="round" stroke-miterlimit="10" points="2.625,2.625 2.625,-2.625 
		-2.625,-2.625 	"/>
</symbol>
<g id="Layer_2" display="none">
</g>
<g id="Layer_1">
</g>
<g id="Layer_3">
</g>
<g id="Layer_4">
</g>
<g id="Layer_5">
	<g id="Inherit_icon">
		<use xlink:href="#Inherit_icon_2"  width="14" height="14" x="-7" y="-7" transform="matrix(1 0 0 -1 7 7)" overflow="visible"/>
	</g>
</g>
</svg>
