<?xml version="1.0" encoding="utf-8"?>
<!-- Generator: Adobe Illustrator 19.2.1, SVG Export Plug-In . SVG Version: 6.00 Build 0)  -->
<svg version="1.1" id="Layer_1" xmlns="http://www.w3.org/2000/svg" xmlns:xlink="http://www.w3.org/1999/xlink" x="0px" y="0px"
	 viewBox="0 0 16 16" style="enable-background:new 0 0 16 16;" xml:space="preserve">
<style type="text/css">
	.st0{clip-path:url(#SVGID_2_);}
	.st1{fill:#9370B1;}
	.st2{fill:#6D4C91;}
	.st3{fill:#FFFFFF;}
	.st4{clip-path:url(#SVGID_4_);fill:#6D4C91;}
	.st5{clip-path:url(#SVGID_6_);}
</style>
<g>
	<g>
		<g>
			<defs>
				<rect id="SVGID_1_" width="16" height="16"/>
			</defs>
			<clipPath id="SVGID_2_">
				<use xlink:href="#SVGID_1_"  style="overflow:visible;"/>
			</clipPath>
			<g class="st0">
				<g>
					<g>
						<path class="st1" d="M8.3,14.8c-0.1,0-0.2,0-0.4-0.1l-6.2-3.1c-0.3-0.2-0.5-0.4-0.5-0.5V5c0-0.3,0-0.7,0.2-0.8l6.3-2.9
							c0.2,0,0.3-0.1,0.5-0.1s0.3,0,0.4,0.1l5.6,2.9c0.3,0.2,0.5,0.4,0.5,0.7v5.7c0,0.3-0.2,0.6-0.5,0.7l-5.6,3.3
							C8.5,14.7,8.4,14.8,8.3,14.8z"/>
						<path class="st2" d="M8.2,2C8.3,2,8.3,2,8.2,2C8.3,2,8.3,2,8.2,2h0.1l5.6,2.8C14,4.9,14,4.9,14,4.9c0,0.2,0,0.3,0,0.5
							c0,0.4,0,0.8,0,1.3c0,0.5,0,1,0,1.6c0,0.5,0.1,2.3,0,2.4c0,0-0.4,0.2-0.5,0.3c-0.2,0.1-0.3,0.2-0.5,0.3
							c-0.4,0.2-0.8,0.5-1.3,0.7c-0.5,0.3-0.9,0.5-1.4,0.8c-0.4,0.2-0.8,0.5-1.2,0.7c-0.2,0.1-0.5,0.3-0.7,0.4c0,0-0.1,0.1-0.1,0
							c-0.1-0.1-0.2-0.1-0.4-0.2c-0.3-0.2-0.6-0.3-0.9-0.5c-0.4-0.2-0.8-0.4-1.2-0.6c-0.4-0.2-0.9-0.5-1.3-0.7
							c-0.4-0.2-0.8-0.4-1.2-0.6C3,11.3,2.7,11.2,2.4,11c-0.1-0.1-0.3-0.1-0.3-0.2c0-0.1,0-1.9,0-2.4c0-0.5,0-1.1,0-1.6
							C2,6.4,2,6,2,5.5C2,5.4,2,5.2,2,5c0,0,0-0.1,0-0.2L8.2,2 M8.2,0.5c-0.3,0-0.6,0.1-0.7,0.2L1.1,3.6C0.5,3.9,0.5,4.7,0.5,5v6
							c0,0.4,0.3,0.8,0.9,1.2l6.1,3.1c0.2,0.1,0.4,0.2,0.7,0.2c0.3,0,0.5-0.1,0.8-0.2l5.6-3.3c0.5-0.3,0.8-0.8,0.8-1.4V4.9
							c0-0.5-0.3-1.1-0.9-1.4L9,0.7C8.8,0.6,8.5,0.5,8.2,0.5L8.2,0.5z"/>
					</g>
				</g>
				<g>
					<path class="st3" d="M8.2,1c0.5-0.1,1,0.3,1.4,0.5c0.5,0.3,1.1,0.5,1.6,0.8c1.1,0.6,2.1,1.1,3.2,1.7c0.2,0.1,0.4,0.2,0.5,0.4
						C15,4.6,15,4.8,15,5c0,1.8,0,3.6,0,5.3c0,0.2,0,0.5-0.1,0.7c-0.1,0.2-0.3,0.3-0.5,0.4c-1.7,1-3.5,2.1-5.2,3.1
						c-0.3,0.2-0.6,0.3-0.9,0.3c-0.4,0-0.7-0.1-1-0.3c-1.9-1-3.7-1.9-5.6-2.9c-0.2-0.1-0.4-0.2-0.5-0.4C1,11.1,1,10.9,1,10.7
						c0-2,0-4,0-6c0-0.2,0-0.3,0.1-0.5C1.2,4.1,1.4,4,1.5,3.9c1.1-0.5,2.3-1,3.4-1.5C5.5,2.1,6,1.9,6.6,1.6C7.1,1.4,7.6,1,8.2,1
						 M8.2,0c-0.4,0-0.7,0.1-1,0.2C6,0.8,4.8,1.3,3.5,1.9C2.9,2.2,2.3,2.4,1.7,2.7c-0.4,0.2-1,0.3-1.3,0.7C0.1,3.8,0,4.5,0,5v6
						c0,0.3,0.1,1,1.1,1.6l6.1,3.1c0.2,0.1,0.5,0.3,1,0.3c0.4,0,0.7-0.1,1-0.3l5.6-3.3c0.7-0.4,1.1-1.1,1.1-1.8V4.9
						c0-0.7-0.4-1.4-1.1-1.8L9.2,0.3C8.9,0.1,8.6,0,8.2,0z"/>
				</g>
			</g>
		</g>
	</g>
	<g>
		<g>
			<defs>
				<rect id="SVGID_3_" width="16" height="16"/>
			</defs>
			<clipPath id="SVGID_4_">
				<use xlink:href="#SVGID_3_"  style="overflow:visible;"/>
			</clipPath>
			<path class="st4" d="M14.6,4.2L8.5,7.5c0,0-0.1,0-0.1,0.1L1.5,4H1.4C1,4.2,1,4.6,1,4.9c0,0,7,3.6,7,3.6C8,8.7,8,9,8,9.2
				c0,0.6,0,1.1,0,1.7c0,0.7,0,1.3,0,2c0,0.5,0,1,0,1.5c0,0.1,0,0.2,0,0.3c0,0,0,0.1,0,0.1c0.1,0.2,0.4,0.1,0.5,0.1
				c0.1,0,0.2-0.1,0.3-0.1c0.1,0,0.2-0.1,0.2-0.2c0-0.1,0-0.3,0-0.3c0-0.1,0-0.2,0-0.3c0-0.6,0-1,0-1.6c0-0.6,0-1.3,0-1.9
				c0-0.5,0-1,0-1.5c0,0,0-0.5,0-0.5c0,0,6-3.3,6-3.3V4.9C15,4.6,14.8,4.4,14.6,4.2z"/>
		</g>
	</g>
	<g>
		<g>
			<defs>
				<rect id="SVGID_5_" width="16" height="16"/>
			</defs>
			<clipPath id="SVGID_6_">
				<use xlink:href="#SVGID_5_"  style="overflow:visible;"/>
			</clipPath>
			<g class="st5">
				<path class="st3" d="M10.2,5.9c-0.3-0.3-0.6-0.3-0.9,0L5.5,9.8L3.6,8C3.3,7.7,2.9,7.7,2.7,8c-0.3,0.3-0.3,0.6,0,0.9l2.8,2.7
					l4.7-4.8C10.4,6.6,10.4,6.2,10.2,5.9z"/>
			</g>
		</g>
	</g>
</g>
</svg>
