<?xml version="1.0" encoding="utf-8"?>
<!-- Generator: Adobe Illustrator 19.1.0, SVG Export Plug-In . SVG Version: 6.00 Build 0)  -->
<svg version="1.1" xmlns="http://www.w3.org/2000/svg" xmlns:xlink="http://www.w3.org/1999/xlink" x="0px" y="0px"
	 viewBox="0 0 14 14" enable-background="new 0 0 14 14" xml:space="preserve">
<g id="Layer_2" display="none">
</g>
<g id="Layer_1">
</g>
<g id="Layer_3">
</g>
<g id="Layer_4">
</g>
<g id="Layer_5">
	<g id="Inherit_icon">
		<g>
			<path fill-rule="evenodd" clip-rule="evenodd" fill="#7BB932" d="M7,13.5c-3.584,0-6.5-2.916-6.5-6.5S3.416,0.5,7,0.5
				s6.5,2.916,6.5,6.5S10.584,13.5,7,13.5z"/>
			<g>
				<path fill="#3E6028" d="M7,1c3.308,0,6,2.692,6,6s-2.692,6-6,6s-6-2.692-6-6C1,3.692,3.692,1,7,1 M7,0C3.134,0,0,3.134,0,7v0
					c0,3.866,3.134,7,7,7c3.866,0,7-3.134,7-7v0C14,3.134,10.866,0,7,0L7,0z"/>
			</g>
		</g>
		<g>
			<line fill="none" stroke="#F3F4F4" stroke-linecap="round" stroke-miterlimit="10" x1="7" y1="3.479" x2="7" y2="10.521"/>
			<line fill="none" stroke="#F3F4F4" stroke-linecap="round" stroke-miterlimit="10" x1="3.951" y1="5.24" x2="10.049" y2="8.76"/>
			<line fill="none" stroke="#F3F4F4" stroke-linecap="round" stroke-miterlimit="10" x1="3.951" y1="8.76" x2="10.049" y2="5.24"/>
		</g>
	</g>
</g>
</svg>
