<?xml version="1.0" encoding="utf-8"?>
<!-- Generator: Adobe Illustrator 21.0.0, SVG Export Plug-In . SVG Version: 6.00 Build 0)  -->
<svg version="1.1" id="Layer_1" xmlns="http://www.w3.org/2000/svg" xmlns:xlink="http://www.w3.org/1999/xlink" x="0px" y="0px"
	 viewBox="0 0 24 24" enable-background="new 0 0 24 24" xml:space="preserve">
<g>
	<g>
		<path fill="#00A187" d="M8.972,21.787v-2.843c-0.646-0.177-1.266-0.435-1.851-0.767l-2.01,2.01L2.064,17.14l2.008-2.008
			c-0.334-0.586-0.592-1.207-0.77-1.853H0.464V8.971h2.837c0.178-0.647,0.436-1.268,0.77-1.853L2.063,5.11L5.11,2.063l2.01,2.01
			c0.586-0.333,1.206-0.59,1.851-0.767V0.464h4.308v2.848c0.643,0.178,1.262,0.435,1.844,0.768l2.017-2.016l3.047,3.047L18.169,7.13
			c0.331,0.583,0.588,1.201,0.764,1.841h2.855v4.308h-2.854c-0.176,0.642-0.433,1.258-0.765,1.842l2.019,2.019l-3.047,3.047
			l-2.016-2.016c-0.584,0.333-1.202,0.592-1.844,0.769v2.848L8.972,21.787L8.972,21.787z"/>
		<path fill="#FFFFFF" d="M12.817,0.927v2.746c0.858,0.195,1.659,0.534,2.38,0.99l1.945-1.945l2.391,2.392l-1.947,1.947
			c0.454,0.721,0.792,1.521,0.986,2.378h2.753v3.381h-2.753c-0.193,0.857-0.531,1.657-0.986,2.378l1.947,1.947l-2.392,2.392
			l-1.944-1.944c-0.72,0.456-1.522,0.796-2.38,0.991v2.743H9.435v-2.741c-0.86-0.193-1.663-0.532-2.386-0.988L5.11,19.533
			l-2.391-2.392l1.936-1.936c-0.458-0.724-0.798-1.528-0.993-2.389H0.927V9.434h2.735c0.195-0.861,0.534-1.665,0.993-2.388
			L2.718,5.11l2.391-2.392l1.939,1.938c0.723-0.455,1.526-0.795,2.386-0.988V0.927H12.817 M21.324,12.815v0.002V12.815 M13.744,0
			h-0.927H9.435H8.508v0.927V2.96C8.059,3.104,7.625,3.284,7.204,3.501L5.766,2.063L5.11,1.407L4.455,2.063L2.064,4.455L1.407,5.11
			l0.655,0.655L3.497,7.2C3.28,7.621,3.099,8.058,2.955,8.507H0.927H0v0.927v3.381v0.927h0.927h2.028
			c0.145,0.45,0.325,0.886,0.543,1.307l-1.435,1.435l-0.655,0.655l0.655,0.655l2.391,2.392l0.655,0.655l0.655-0.655l1.438-1.438
			c0.42,0.217,0.856,0.397,1.304,0.541v2.033v0.927h0.927h3.381h0.927v-0.927v-2.04c0.446-0.144,0.88-0.324,1.298-0.541l1.444,1.444
			l0.655,0.655l0.655-0.655l2.392-2.392l0.655-0.655l-0.655-0.655l-1.446-1.446c0.215-0.417,0.395-0.85,0.538-1.295h2.045h0.927
			v-0.925v-0.002V9.434V8.507h-0.927h-2.045c-0.143-0.445-0.323-0.877-0.538-1.295l1.447-1.447l0.655-0.655l-0.655-0.655
			l-2.391-2.392L17.14,1.408l-0.655,0.655l-1.444,1.444c-0.418-0.216-0.851-0.397-1.298-0.54v-2.04L13.744,0L13.744,0z"/>
	</g>
	<path fill="#FFFFFF" d="M15.402,7.968c-0.35-0.35-0.972-0.35-1.321,0.002l-4.032,4.124L8.195,10.15
		c-0.355-0.356-0.841-0.362-1.3-0.019c-0.197,0.147-0.311,0.349-0.327,0.58c-0.019,0.264,0.095,0.548,0.306,0.759l3.174,3.174
		l5.451-5.451c0.121-0.12,0.189-0.311,0.189-0.524C15.687,8.404,15.583,8.148,15.402,7.968z"/>
</g>
<g>
	<g>
		<g id="Layer_1_4_">
			<g id="Ppt">
			</g>
			<g id="Small_Folder">
			</g>
			<g id="fave_icon_-_selected">
			</g>
			<g id="Shortcut_1_">
				<g>
					<g>
						<path fill="#9370B0" d="M17.711,22.867c-2.877,0-5.217-2.34-5.217-5.217s2.34-5.217,5.217-5.217s5.217,2.34,5.217,5.217
							S20.587,22.867,17.711,22.867z"/>
						<path fill="#FFFFFF" d="M17.711,12.602c2.788,0,5.048,2.26,5.048,5.048s-2.26,5.048-5.048,5.048s-5.048-2.26-5.048-5.048
							S14.923,12.602,17.711,12.602 M17.711,11.668c-3.298,0-5.982,2.684-5.982,5.982s2.684,5.982,5.982,5.982
							s5.982-2.684,5.982-5.982S21.009,11.668,17.711,11.668L17.711,11.668z"/>
					</g>
				</g>
			</g>
			<g id="comment_icon_-_selected">
			</g>
			<g id="Comment_icon">
			</g>
		</g>
		<path fill="#FFFFFF" d="M21.417,20.559c-0.025-0.362-0.042-0.549-0.167-0.97c-0.089-0.302-0.297-0.524-0.636-0.68
			c-0.289-0.133-0.636-0.199-0.942-0.258c-0.253-0.049-0.492-0.094-0.659-0.169c-0.091-0.041-0.171-0.102-0.237-0.18
			c-0.036-0.043-0.069-0.093-0.098-0.148c0.146-0.12,0.272-0.264,0.379-0.433c0.146-0.232,0.254-0.51,0.322-0.83
			c0.07-0.02,0.138-0.074,0.195-0.155c0.064-0.09,0.112-0.211,0.135-0.34c0.034-0.188,0.013-0.367-0.056-0.486
			c0.006-0.025,0.012-0.049,0.017-0.075c0.032-0.161,0.043-0.347,0.032-0.554c-0.019-0.35-0.092-0.634-0.094-0.646
			c-0.075-0.3-0.3-0.6-0.616-0.825c-0.252-0.179-0.678-0.392-1.279-0.392s-1.027,0.213-1.279,0.392
			c-0.316,0.225-0.541,0.525-0.616,0.824c-0.004,0.016-0.077,0.298-0.096,0.646c-0.011,0.207-0.001,0.393,0.031,0.554
			c0.005,0.025,0.01,0.049,0.016,0.073c-0.07,0.119-0.091,0.299-0.057,0.487c0.023,0.129,0.071,0.25,0.136,0.341
			c0.058,0.081,0.126,0.135,0.196,0.154c0.068,0.32,0.176,0.598,0.322,0.83c0.107,0.17,0.233,0.315,0.38,0.434
			c-0.028,0.055-0.061,0.104-0.097,0.147c-0.066,0.078-0.145,0.139-0.237,0.18c-0.167,0.075-0.406,0.121-0.659,0.169
			c-0.306,0.058-0.652,0.125-0.942,0.258c-0.339,0.155-0.547,0.378-0.636,0.68c-0.123,0.415-0.141,0.603-0.166,0.956
			c-0.013,0.057-0.022,0.115-0.022,0.175v0.375c0,0.006,0.001,0.011,0.002,0.016c0.009,0.424,0.357,0.768,0.783,0.768l1.251,0.748
			l1.517,0.18c0.11,0.037,0.23,0.037,0.34,0l1.8-0.349l0.968-0.58c0.432,0,0.785-0.353,0.785-0.785v-0.29v-0.085
			C21.434,20.666,21.428,20.612,21.417,20.559z"/>
	</g>
	<g>
		<path fill="#9370B0" d="M17.711,13.038c2.543,0,4.612,2.069,4.612,4.612s-2.069,4.612-4.612,4.612s-4.612-2.069-4.612-4.612
			S15.168,13.038,17.711,13.038 M17.711,12.605c-2.782,0-5.045,2.263-5.045,5.045s2.263,5.045,5.045,5.045s5.045-2.263,5.045-5.045
			S20.493,12.605,17.711,12.605L17.711,12.605z"/>
	</g>
</g>
</svg>
