<?xml version="1.0" encoding="utf-8"?>
<!-- Generator: Adobe Illustrator 19.2.1, SVG Export Plug-In . SVG Version: 6.00 Build 0)  -->
<svg version="1.1" id="Layer_1" xmlns="http://www.w3.org/2000/svg" xmlns:xlink="http://www.w3.org/1999/xlink" x="0px" y="0px"
	 viewBox="0 0 16 16" style="enable-background:new 0 0 16 16;" xml:space="preserve">
<style type="text/css">
	.st0{clip-path:url(#SVGID_2_);}
	.st1{fill:#E67035;}
	.st2{fill:#FFFFFF;}
</style>
<g>
	<g>
		<g>
			<defs>
				<rect id="SVGID_1_" width="16" height="16"/>
			</defs>
			<clipPath id="SVGID_2_">
				<use xlink:href="#SVGID_1_"  style="overflow:visible;"/>
			</clipPath>
			<g class="st0">
				<g>
					<path class="st1" d="M7.4,9.4c0-0.5,0.2-0.9,0.5-1.2C8.2,7.8,8.6,7.6,9,7.6c0.9,0,1.8,0.7,1.8,1.8v0.7c0.7-0.7,1.1-1.7,1.1-2.7
						c0-1.4-0.7-2.7-2-3.3L9.6,4V0.7L10.3,1c2.8,1,4.6,3.6,4.6,6.5c0,1.6-0.6,3.1-1.6,4.3c0.8,0.1,1.5,0.8,1.5,1.8
						c0,0.9-0.7,1.8-1.8,1.8H7.2L7.4,9.4z"/>
					<path class="st2" d="M10.1,1.6c2.4,0.9,4.2,3.2,4.2,6c0,2-0.9,3.6-2.3,4.8h1.1c0.7,0,1.2,0.6,1.2,1.2c0,0.7-0.6,1.2-1.2,1.2
						H7.8V9.5c0-0.3,0.1-0.7,0.4-0.8l0,0C8.4,8.5,8.7,8.3,9,8.3c0.7,0,1.2,0.6,1.2,1.2v1.9c1.3-0.7,2.2-2.1,2.2-3.8
						s-0.9-3.1-2.3-3.8L10.1,1.6 M9,0v1.6v2v0.7l0.6,0.3c1.1,0.7,1.8,1.7,1.8,2.9c0,0.4-0.1,0.7-0.2,1C10.9,7.7,10.1,7.1,9,7.1
						c-0.6,0-1.2,0.3-1.6,0.7C7,8.2,6.8,8.8,6.8,9.4v5.3v1.1h1.1h5.3c1.3,0,2.3-1,2.3-2.3c0-0.8-0.5-1.6-1.2-2
						c0.7-1.1,1.1-2.5,1.1-3.9c0-3.1-2-6-4.9-7L9,0L9,0z"/>
				</g>
				<g>
					<path class="st1" d="M5.8,15C3,14,1.1,11.3,1.1,8.5c0-1.6,0.6-3.1,1.6-4.3C1.8,4.1,1.1,3.3,1.1,2.5c0-0.9,0.7-1.8,1.8-1.8h5.9
						v5.9c0,0.5-0.2,0.9-0.5,1.2C7.8,8.2,7.4,8.4,7,8.4c-1,0-1.8-0.8-1.8-1.8V5.9C4.5,6.5,4.1,7.4,4.1,8.5c0,1.4,0.8,2.7,2.1,3.4
						l0.3,0.2v3.2L5.8,15z"/>
					<path class="st2" d="M8.2,1.3v5.3c0,0.3-0.1,0.7-0.4,0.8l0,0C7.5,7.6,7.3,7.8,7,7.8c-0.7,0-1.2-0.6-1.2-1.2V4.7
						C4.5,5.5,3.5,6.9,3.5,8.5c0,1.7,1,3.2,2.4,3.9v2c-2.5-0.8-4.3-3.2-4.3-6c0-2,0.9-3.6,2.3-4.8h-1C2.2,3.6,1.7,3,1.7,2.4
						s0.6-1.2,1.2-1.2L8.2,1.3 M9.2,0.2H8.1H2.8c-1.2,0-2.2,1-2.2,2.3c0,0.8,0.5,1.6,1.2,2C1,5.7,0.6,7.1,0.6,8.5c0,3.2,2,6,5,7
						L7.1,16v-1.6v-2v-0.7l-0.6-0.3c-1.2-0.7-1.9-1.8-1.9-3c0-0.4,0.1-0.7,0.2-1C5.1,8.3,6,8.9,7,8.9c0.7,0,1.2-0.3,1.6-0.7
						c0.5-0.5,0.7-1,0.7-1.6V1.4V0.2H9.2z"/>
				</g>
			</g>
		</g>
	</g>
</g>
</svg>
