<?xml version="1.0" encoding="utf-8"?>
<!-- Generator: Adobe Illustrator 19.2.1, SVG Export Plug-In . SVG Version: 6.00 Build 0)  -->
<svg version="1.1" id="Layer_1" xmlns="http://www.w3.org/2000/svg" xmlns:xlink="http://www.w3.org/1999/xlink" x="0px" y="0px"
	 viewBox="0 0 16 16" style="enable-background:new 0 0 16 16;" xml:space="preserve">
<style type="text/css">
	.st0{clip-path:url(#SVGID_2_);}
	.st1{fill:#FFFFFF;}
	.st2{fill:#333333;}
</style>
<g>
	<defs>
		<rect id="SVGID_1_" width="16" height="16"/>
	</defs>
	<clipPath id="SVGID_2_">
		<use xlink:href="#SVGID_1_"  style="overflow:visible;"/>
	</clipPath>
	<g class="st0">
		<g>
			<path class="st1" d="M3.7,15.5c-1.2,0-2.2-1-2.2-2.2V2.7c0-1.2,1-2.2,2.2-2.2h8.6c1.2,0,2.2,1,2.2,2.2v10.5c0,1.2-1,2.2-2.2,2.2
				H3.7z"/>
			<path class="st1" d="M12.3,1C13.2,1,14,1.8,14,2.7v10.5c0,1-0.8,1.7-1.7,1.7H3.7C2.8,15,2,14.2,2,13.3V2.7C2,1.8,2.8,1,3.7,1
				H12.3 M12.3,0H3.7C2.2,0,1,1.2,1,2.7v10.5C1,14.8,2.2,16,3.7,16h8.6c1.5,0,2.7-1.2,2.7-2.7V2.7C15,1.2,13.8,0,12.3,0L12.3,0z"/>
		</g>
		<g>
			<path class="st1" d="M3.7,14.2c-0.5,0-0.9-0.4-0.9-0.9V2.7c0-0.5,0.4-0.9,0.9-0.9h8.6c0.5,0,0.9,0.4,0.9,0.9v10.5
				c0,0.5-0.4,0.9-0.9,0.9H3.7z"/>
			<path class="st2" d="M12.9,2C13,2,13,2,12.9,2L13,13.9c0,0,0,0.1-0.1,0.1H3.1C3,14,3,14,3,13.9V2.1C3,2,3,2,3.1,2H12.9 M12.3,1
				H3.7C2.8,1,2,1.8,2,2.7v10.5c0,1,0.8,1.7,1.7,1.7h8.6c0.9,0,1.7-0.8,1.7-1.7V2.7C14,1.8,13.2,1,12.3,1L12.3,1z"/>
		</g>
		<rect x="5" y="4" class="st2" width="6" height="2"/>
		<rect x="5" y="7" class="st2" width="6" height="2"/>
		<rect x="5" y="10" class="st2" width="6" height="2"/>
	</g>
</g>
</svg>
