<?xml version="1.0" encoding="utf-8"?>
<!-- Generator: Adobe Illustrator 19.2.1, SVG Export Plug-In . SVG Version: 6.00 Build 0)  -->
<svg version="1.1" id="Layer_1" xmlns="http://www.w3.org/2000/svg" xmlns:xlink="http://www.w3.org/1999/xlink" x="0px" y="0px"
	 viewBox="0 0 16 16" style="enable-background:new 0 0 16 16;" xml:space="preserve">
<style type="text/css">
	.st0{clip-path:url(#SVGID_2_);}
	.st1{fill:#FFFFFF;}
	.st2{clip-path:url(#SVGID_4_);}
	.st3{fill:#CD3632;}
	.st4{fill:#999999;}
</style>
<g>
	<g>
		<g>
			<defs>
				<rect id="SVGID_1_" width="16" height="16"/>
			</defs>
			<clipPath id="SVGID_2_">
				<use xlink:href="#SVGID_1_"  style="overflow:visible;"/>
			</clipPath>
			<g class="st0">
				<g>
					<path class="st1" d="M7.9,15.9c-4.4,0-7.9-3.6-7.9-8S3.6,0,7.9,0s7.9,3.6,7.9,7.9C15.9,12.3,12.3,15.9,7.9,15.9z M7.9,0.5
						c-4.1,0-7.4,3.3-7.4,7.4s3.3,7.4,7.4,7.4s7.4-3.3,7.4-7.4S12,0.5,7.9,0.5z"/>
				</g>
			</g>
		</g>
	</g>
	<g>
		<g>
			<defs>
				<rect id="SVGID_3_" width="16" height="16"/>
			</defs>
			<clipPath id="SVGID_4_">
				<use xlink:href="#SVGID_3_"  style="overflow:visible;"/>
			</clipPath>
			<g class="st2">
				<g>
					<g>
						<g>
							<g>
								<path class="st1" d="M8,0.1C3.6,0.1,0.1,3.7,0.1,8s3.6,8,7.9,8s8-3.6,8-7.9S12.4,0.1,8,0.1L8,0.1z"/>
							</g>
						</g>
					</g>
				</g>
				<g>
					<g>
						<g>
							<g>
								<g>
									<path class="st1" d="M8,14.5c-3.6,0-6.5-2.9-6.5-6.5S4.4,1.5,8,1.5s6.5,2.9,6.5,6.5S11.6,14.5,8,14.5z"/>
									<path class="st3" d="M8,2c3.4,0,6,2.6,6,6s-2.6,6-6,6s-6-2.6-6-6S4.6,2,8,2 M8,1C4.1,1,1,4.1,1,8s3.1,7,7,7s7-3.1,7-7
										S11.9,1,8,1L8,1z"/>
								</g>
							</g>
						</g>
					</g>
				</g>
			</g>
		</g>
	</g>
</g>
<g>
	<path class="st4" d="M7.2,12.4V10c0-0.2,0-0.3,0-0.5c0-0.2,0.1-0.3,0.1-0.5C7.3,9.2,7.2,9.3,7,9.4C6.9,9.5,6.8,9.6,6.6,9.7l-2,1.2
		L3.8,9.6l2-1.2C6,8.3,6.2,8.2,6.3,8.1C6.5,8.1,6.7,8,6.8,8C6.7,8,6.5,7.9,6.3,7.9C6.2,7.8,6,7.7,5.9,7.6l-2-1.2l0.7-1.3l2,1.2
		c0.1,0.1,0.3,0.2,0.4,0.3C7.2,6.7,7.3,6.9,7.4,7C7.3,6.8,7.3,6.7,7.3,6.5c0-0.2,0-0.3,0-0.5V3.6h1.5V6c0,0.2,0,0.4,0,0.5
		c0,0.2-0.1,0.3-0.1,0.5c0.1-0.1,0.2-0.2,0.3-0.3c0.1-0.1,0.3-0.2,0.4-0.3l2-1.2l0.8,1.3l-2,1.2C10,7.7,9.8,7.8,9.7,7.9
		C9.5,7.9,9.3,8,9.2,8c0.3,0.1,0.6,0.2,0.9,0.4l2,1.2l-0.7,1.3l-2-1.2C9.2,9.6,9.1,9.5,8.9,9.4C8.8,9.3,8.7,9.2,8.6,9
		c0.1,0.3,0.2,0.6,0.2,1v2.4H7.2z"/>
</g>
<g>
	<path class="st3" d="M3.4,13.1c-0.1,0-0.2,0-0.3-0.1c-0.2-0.2-0.2-0.5,0-0.7l9.2-9.2c0.2-0.2,0.5-0.2,0.7,0c0.2,0.2,0.2,0.5,0,0.7
		l-9.2,9.2C3.6,13,3.5,13.1,3.4,13.1z"/>
</g>
</svg>
