<?xml version="1.0" encoding="utf-8"?>
<!-- Generator: Adobe Illustrator 19.2.1, SVG Export Plug-In . SVG Version: 6.00 Build 0)  -->
<svg version="1.1" id="Layer_1" xmlns="http://www.w3.org/2000/svg" xmlns:xlink="http://www.w3.org/1999/xlink" x="0px" y="0px"
	 viewBox="0 0 16 16" style="enable-background:new 0 0 16 16;" xml:space="preserve">
<style type="text/css">
	.st0{fill:#0072AA;}
	.st1{fill:#FFFFFF;}
	.st2{fill:#EAF6FC;stroke:#0072AA;stroke-miterlimit:10;}
</style>
<g>
	<path class="st0" d="M8,10.9c-1.6,0-3-1.3-3-3c0-1.6,1.3-3,3-3c1.6,0,2.9,1.3,2.9,3C11,9.6,9.6,10.9,8,10.9z"/>
	<path class="st0" d="M8,3.4C3.6,3.4,0.9,7,0.9,8s2.7,4.6,7.1,4.6S15.1,9,15.1,8S12.4,3.4,8,3.4z M8,11.7c-3.9,0-6.1-3.2-6.2-3.7
		C1.9,7.5,4.1,4.3,8,4.3s6,3.1,6.2,3.7C14,8.6,11.9,11.7,8,11.7z"/>
	<path class="st1" d="M9.7,7.5C9.6,7.4,9.4,7.4,9.3,7.4c-0.2,0-0.4,0.1-0.6,0.1c-0.1,0-0.2,0-0.2,0.1c0-0.1,0.1-0.2,0.1-0.3
		c0.1-0.4,0.2-0.7,0-1C8.4,6.1,8.2,6,8,6C6.9,6,6.1,6.9,6.1,8S7,10,8,10c1.1,0,1.9-0.9,1.9-2C9.9,7.8,9.8,7.6,9.7,7.5z"/>
	<path class="st1" d="M8,2.5C3.2,2.5,0,6.4,0,8s3.2,5.5,8,5.5s8-3.9,8-5.5S12.8,2.5,8,2.5z M8,12.6C3.6,12.6,0.9,9,0.9,8
		S3.6,3.4,8,3.4S15.1,7,15.1,8C15.1,8.9,12.4,12.6,8,12.6z"/>
	<path class="st2" d="M8,4.3C4.1,4.3,1.9,7.5,1.8,8C1.9,8.5,4,11.7,8,11.7c3.9,0,6-3.1,6.2-3.7C14,7.4,11.9,4.3,8,4.3z M8,10.9
		c-1.6,0-3-1.3-3-3c0-1.6,1.3-3,3-3c1.6,0,2.9,1.3,2.9,3C11,9.6,9.6,10.9,8,10.9z"/>
	<path class="st1" d="M8,9.9c-1.1,0-1.9-0.9-1.9-2s0.9-2,1.9-2c0.2,0,0.4,0.1,0.5,0.2c0.2,0.3,0.1,0.6,0,1c0,0.1-0.1,0.2-0.1,0.3
		c0.1,0,0.2,0,0.2-0.1C8.8,7.2,9,7.2,9.2,7.2s0.3,0,0.4,0.1c0.1,0.1,0.2,0.3,0.2,0.4C9.9,9.1,9.1,9.9,8,9.9z"/>
</g>
</svg>
