<?xml version="1.0" encoding="utf-8"?>
<!-- Generator: Adobe Illustrator 19.1.0, SVG Export Plug-In . SVG Version: 6.00 Build 0)  -->
<svg version="1.1" id="Layer_1" xmlns="http://www.w3.org/2000/svg" xmlns:xlink="http://www.w3.org/1999/xlink" x="0px" y="0px"
	 viewBox="0 0 32 32" style="enable-background:new 0 0 32 32;" xml:space="preserve">
<style type="text/css">
	.st0{fill:#0072AA;}
	.st1{fill:#FFFFFF;}
	.st2{fill:#004B71;}
	.st3{fill:#00A389;}
</style>
<g>
	<g>
		<g>
			<g>
				<path class="st0" d="M5.486,31.5c-1.93,0-3.5-1.57-3.5-3.5V4c0-1.93,1.57-3.5,3.5-3.5h15.207l6.293,6.293V28
					c0,1.93-1.57,3.5-3.5,3.5H5.486z"/>
				<path class="st1" d="M20.486,1l6,6v21c0,1.657-1.343,3-3,3h-18c-1.657,0-3-1.343-3-3V4c0-1.657,1.343-3,3-3H20.486 M20.9,0
					h-0.414h-15c-2.206,0-4,1.794-4,4v24c0,2.206,1.794,4,4,4h18c2.206,0,4-1.794,4-4V7V6.586l-0.293-0.293l-6-6L20.9,0L20.9,0z"/>
			</g>
		</g>
		<polygon class="st2" points="20.486,1 20.486,7 26.486,7 		"/>
	</g>
	<g>
		<polygon class="st2" points="14.108,7.775 12.474,7.775 11.569,8.68 14.668,11.779 16.389,10.057 		"/>
		<polygon class="st2" points="8.662,10.21 7.507,11.365 7.507,12.645 11.889,12.645 11.889,10.21 		"/>
		<polygon class="st2" points="6.533,15.782 6.533,17.416 7.438,18.32 10.536,15.222 8.815,13.5 		"/>
		<polygon class="st2" points="8.968,21.227 10.123,22.383 11.402,22.383 11.402,18 8.968,18 		"/>
		<polygon class="st2" points="14.54,23.356 16.173,23.356 17.078,22.452 13.979,19.353 12.258,21.075 		"/>
		<polygon class="st2" points="19.985,20.922 21.14,19.767 21.14,18.487 16.758,18.487 16.758,20.922 		"/>
		<polygon class="st2" points="22.114,15.35 22.114,13.716 21.209,12.812 18.111,15.91 19.832,17.632 		"/>
		<polygon class="st2" points="19.68,9.904 18.524,8.749 17.245,8.749 17.245,13.131 19.68,13.131 		"/>
	</g>
	<g>
		<polygon class="st1" points="14.108,7.209 12.474,7.209 11.569,8.114 14.668,11.213 16.389,9.491 		"/>
		<polygon class="st1" points="8.662,9.644 7.507,10.799 7.507,12.079 11.889,12.079 11.889,9.644 		"/>
		<polygon class="st1" points="6.533,15.216 6.533,16.85 7.438,17.754 10.536,14.656 8.815,12.934 		"/>
		<polygon class="st1" points="8.968,20.661 10.123,21.817 11.402,21.817 11.402,17.435 8.968,17.435 		"/>
		<polygon class="st1" points="14.54,22.791 16.173,22.791 17.078,21.886 13.979,18.787 12.258,20.509 		"/>
		<polygon class="st1" points="19.985,20.356 21.14,19.201 21.14,17.921 16.758,17.921 16.758,20.356 		"/>
		<polygon class="st1" points="22.114,14.784 22.114,13.15 21.209,12.246 18.111,15.344 19.832,17.066 		"/>
		<polygon class="st1" points="19.68,9.339 18.524,8.183 17.245,8.183 17.245,12.565 19.68,12.565 		"/>
	</g>
	<g>
		<circle class="st3" cx="23.514" cy="25" r="6.5"/>
		<path class="st1" d="M23.514,32c-3.859,0-7-3.141-7-7s3.141-7,7-7s7,3.141,7,7S27.373,32,23.514,32z M23.514,19
			c-3.309,0-6,2.691-6,6s2.691,6,6,6s6-2.691,6-6S26.823,19,23.514,19z"/>
	</g>
	<path class="st1" d="M27.847,25.623v-1.245h-1.288c-0.083-0.394-0.241-0.76-0.458-1.084l0.917-0.917l-0.881-0.881l-0.924,0.924
		c-0.323-0.211-0.686-0.365-1.077-0.445v-1.308h-1.245v1.308c-0.391,0.079-0.754,0.233-1.077,0.445l-0.924-0.924l-0.881,0.881
		l0.917,0.917c-0.217,0.323-0.374,0.69-0.458,1.084H19.18v1.245h1.278c0.078,0.401,0.233,0.773,0.448,1.103l-0.898,0.898
		l0.881,0.881l0.891-0.891c0.33,0.222,0.706,0.382,1.11,0.464v1.256h1.245v-1.256c0.404-0.082,0.779-0.242,1.11-0.464l0.891,0.891
		l0.881-0.881l-0.898-0.898c0.215-0.33,0.371-0.702,0.448-1.103L27.847,25.623z M23.514,26.894c-1.03,0-1.868-0.838-1.868-1.868
		c0-1.03,0.838-1.868,1.868-1.868s1.868,0.838,1.868,1.868C25.382,26.056,24.544,26.894,23.514,26.894z"/>
</g>
</svg>
