<?xml version="1.0" encoding="utf-8"?>
<!-- Generator: Adobe Illustrator 19.1.0, SVG Export Plug-In . SVG Version: 6.00 Build 0)  -->
<!DOCTYPE svg PUBLIC "-//W3C//DTD SVG 1.1//EN" "http://www.w3.org/Graphics/SVG/1.1/DTD/svg11.dtd">
<svg version="1.1" id="Layer_1" xmlns="http://www.w3.org/2000/svg" xmlns:xlink="http://www.w3.org/1999/xlink" x="0px" y="0px"
	 viewBox="0 0 24 24" enable-background="new 0 0 24 24" xml:space="preserve">
<g id="metadata">
</g>
<g id="fave_icon">
</g>
<g id="fave_icon_-_selected">
</g>
<g id="comment_icon_-_selected">
</g>
<g id="Comment_icon">
</g>
<g id="fave_icon_-_selected_1_">
</g>
<g>
	<g id="like_icon">
		<g>
			<path fill="#FFFFFF" d="M12.5,23.272c-0.449,0-2.584-0.072-4.068-0.408c-0.535-0.12-0.976-0.281-1.444-0.451
				c-0.696-0.254-1.417-0.516-2.558-0.678l-0.943-0.004C2.667,21.724,2,21.05,2,20.231v-8.425c0-0.812,0.66-1.484,1.472-1.5
				l2.577,0.009c1.553,0,2.531-1.244,2.976-1.986c0.307-0.513,0.665-1.044,1.035-1.59c0.512-0.758,1.042-1.541,1.476-2.345
				c0.419-0.773,0.55-1.455,0.551-1.462c0.135-0.434,0.21-0.756,0.273-1.024c0.16-0.677,0.326-1.376,1.127-1.376
				c0.217,0,0.462,0.056,0.795,0.182c1.328,0.5,1.699,2.573,1.282,4.207c-0.542,2.03-0.606,2.154-0.633,2.207l-0.523,1.347
				c-0.076,0.195-0.067,0.384,0.025,0.52c0.123,0.18,0.389,0.278,0.751,0.278h5.156c1.318,0,2.45,0.912,2.632,2.122
				c0.149,0.992-0.315,1.96-1.139,2.481c0.11,0.284,0.167,0.587,0.167,0.896c0,0.443-0.121,0.881-0.351,1.263
				c-0.091,0.153-0.091,0.322,0,0.476c0.229,0.382,0.35,0.818,0.35,1.262c0,0.779-0.377,1.525-1.008,1.995
				c-0.085,0.063-0.126,0.191-0.095,0.297c0.111,0.372,0.133,0.758,0.065,1.146c-0.204,1.175-1.327,2.062-2.613,2.062H12.5V23.272z"
				/>
			<g>
				<path fill="#333333" d="M13.487,1.032c0.153,0,0.352,0.049,0.619,0.149c0.969,0.365,1.359,2.107,0.973,3.615
					c0,0-0.527,1.973-0.593,2.1l-0.545,1.396c-0.278,0.712,0.117,1.48,1.242,1.48h5.156l0,0c1.02,0,1.986,0.687,2.137,1.696
					c0.15,0.999-0.454,1.88-1.323,2.185c0.218,0.32,0.346,0.706,0.346,1.12c0,0.368-0.103,0.711-0.279,1.005
					c-0.187,0.312-0.187,0.677,0,0.989c0.177,0.295,0.28,0.638,0.28,1.006c0,0.652-0.319,1.23-0.807,1.593
					c-0.255,0.19-0.366,0.537-0.275,0.841c0.085,0.285,0.107,0.596,0.051,0.917c-0.171,0.986-1.12,1.648-2.121,1.648H12.5
					c-0.352,0-2.492-0.065-3.958-0.396c-1.29-0.29-2.084-0.858-4.042-1.136l-1.009-0.009c-0.549-0.004-0.991-0.451-0.991-1v-8.425
					c0-0.545,0.437-0.99,0.982-1l2.565,0.008c1.481,0,2.645-0.959,3.406-2.229c0.733-1.223,1.762-2.548,2.522-3.953
					c0.466-0.861,0.603-1.61,0.603-1.61C12.99,1.738,12.906,1.032,13.487,1.032 M13.487,0.032L13.487,0.032
					c-1.197,0-1.457,1.102-1.613,1.761c-0.064,0.27-0.136,0.575-0.248,0.925l-0.02,0.061l-0.012,0.063
					c0,0.002-0.122,0.617-0.499,1.314c-0.422,0.781-0.945,1.554-1.451,2.302C9.27,7.016,8.914,7.543,8.597,8.072
					c-0.39,0.651-1.24,1.743-2.548,1.743L3.486,9.807c-1.104,0.02-1.985,0.917-1.985,2v8.425c0,1.093,0.889,1.99,1.983,2
					l0.941,0.008c1.053,0.155,1.734,0.403,2.392,0.643c0.462,0.168,0.94,0.342,1.506,0.47c1.531,0.345,3.719,0.42,4.178,0.42h5.848
					c1.525,0,2.861-1.065,3.106-2.477c0.072-0.414,0.059-0.826-0.038-1.227c0.682-0.566,1.084-1.413,1.084-2.296
					c0-0.534-0.146-1.059-0.421-1.519c0.275-0.423,0.421-0.948,0.421-1.481c0-0.239-0.028-0.475-0.084-0.704
					c0.788-0.657,1.209-1.691,1.05-2.749c-0.218-1.452-1.562-2.547-3.126-2.547h-5.156c-0.193,0-0.298-0.039-0.333-0.06
					c0.006-0.004,0.01-0.026,0.022-0.056l0.537-1.375c0.06-0.145,0.185-0.541,0.635-2.227c0.484-1.893,0.021-4.203-1.587-4.809
					C14.066,0.097,13.766,0.032,13.487,0.032L13.487,0.032L13.487,0.032z"/>
			</g>
		</g>
	</g>
	<g id="like_icon_-_selected">
	</g>
</g>
</svg>
