<?xml version="1.0" encoding="utf-8"?>
<!-- Generator: Adobe Illustrator 19.1.0, SVG Export Plug-In . SVG Version: 6.00 Build 0)  -->
<!DOCTYPE svg PUBLIC "-//W3C//DTD SVG 1.1//EN" "http://www.w3.org/Graphics/SVG/1.1/DTD/svg11.dtd">
<svg version="1.1" id="Layer_1" xmlns="http://www.w3.org/2000/svg" xmlns:xlink="http://www.w3.org/1999/xlink" x="0px" y="0px"
	 viewBox="0 0 24 24" enable-background="new 0 0 24 24" xml:space="preserve">
<g>
	<path fill="#333333" d="M9,1c0.551,0,1,0.449,1,1v7c0,0.551-0.449,1-1,1H2c-0.551,0-1-0.449-1-1V2c0-0.551,0.449-1,1-1H9 M9,0H2
		C0.9,0,0,0.9,0,2v7c0,1.1,0.9,2,2,2h7c1.1,0,2-0.9,2-2V2C11,0.9,10.1,0,9,0L9,0z"/>
	<path fill="#333333" d="M22,14c0.551,0,1,0.449,1,1v7c0,0.551-0.449,1-1,1h-7c-0.551,0-1-0.449-1-1v-7c0-0.551,0.449-1,1-1H22
		 M22,13h-7c-1.1,0-2,0.9-2,2v7c0,1.1,0.9,2,2,2h7c1.1,0,2-0.9,2-2v-7C24,13.9,23.1,13,22,13L22,13z"/>
	<path fill="#333333" d="M22,1c0.551,0,1,0.449,1,1v7c0,0.551-0.449,1-1,1h-7c-0.551,0-1-0.449-1-1V2c0-0.551,0.449-1,1-1H22 M22,0
		h-7c-1.1,0-2,0.9-2,2v7c0,1.1,0.9,2,2,2h7c1.1,0,2-0.9,2-2V2C24,0.9,23.1,0,22,0L22,0z"/>
	<path fill="#333333" d="M9,14c0.551,0,1,0.449,1,1v7c0,0.551-0.449,1-1,1H2c-0.551,0-1-0.449-1-1v-7c0-0.551,0.449-1,1-1H9 M9,13H2
		c-1.1,0-2,0.9-2,2v7c0,1.1,0.9,2,2,2h7c1.1,0,2-0.9,2-2v-7C11,13.9,10.1,13,9,13L9,13z"/>
</g>
</svg>
