<?xml version="1.0" encoding="utf-8"?>
<!-- Generator: Adobe Illustrator 19.1.0, SVG Export Plug-In . SVG Version: 6.00 Build 0)  -->
<!DOCTYPE svg PUBLIC "-//W3C//DTD SVG 1.1//EN" "http://www.w3.org/Graphics/SVG/1.1/DTD/svg11.dtd">
<svg version="1.1" id="Layer_1" xmlns="http://www.w3.org/2000/svg" xmlns:xlink="http://www.w3.org/1999/xlink" x="0px" y="0px"
	 viewBox="0 0 24 24" enable-background="new 0 0 24 24" xml:space="preserve">
<g id="metadata">
</g>
<g id="like_icon">
</g>
<g id="fave_icon">
</g>
<g id="fave_icon_-_selected">
</g>
<g id="comment_icon_-_selected">
</g>
<g id="Comment_icon">
</g>
<g id="fave_icon_-_selected_1_">
</g>
<g id="like_icon_-_selected">
	<path fill="#333333" stroke="#333333" stroke-width="2" stroke-miterlimit="10" d="M21.977,11.566
		c-0.152-1.009-1.118-1.696-2.137-1.696h-5.156c-1.125,0-1.521-0.768-1.242-1.48l0.545-1.396c0.066-0.128,0.593-2.1,0.593-2.1
		c0.386-1.508-0.004-3.25-0.974-3.615c-1.277-0.481-1.007,0.217-1.527,1.842c0,0-0.137,0.748-0.603,1.61
		c-0.76,1.405-1.789,2.73-2.522,3.953c-0.761,1.27-1.925,2.229-3.406,2.229l-2.565-0.008C2.437,10.915,2,11.359,2,11.905v8.425
		c0,0.549,0.442,0.995,0.991,1L4,21.338c1.958,0.277,2.752,0.846,4.042,1.137c1.466,0.331,3.606,0.396,3.958,0.396h5.848
		c1,0,1.95-0.662,2.121-1.648c0.056-0.321,0.033-0.633-0.051-0.917c-0.091-0.305,0.02-0.651,0.275-0.841
		C20.681,19.101,21,18.523,21,17.871c0-0.368-0.103-0.711-0.279-1.005c-0.187-0.312-0.187-0.677,0-0.989
		C20.897,15.581,21,15.238,21,14.871c0-0.414-0.128-0.8-0.346-1.12C21.523,13.446,22.127,12.565,21.977,11.566z"/>
</g>
</svg>
