<?xml version="1.0" encoding="utf-8"?>
<!-- Generator: Adobe Illustrator 19.1.0, SVG Export Plug-In . SVG Version: 6.00 Build 0)  -->
<svg version="1.1" id="Layer_1" xmlns="http://www.w3.org/2000/svg" xmlns:xlink="http://www.w3.org/1999/xlink" x="0px" y="0px"
	 viewBox="0 0 32 32" style="enable-background:new 0 0 32 32;" xml:space="preserve">
<style type="text/css">
	.st0{fill:#00A389;}
	.st1{fill:#FFFFFF;}
	.st2{fill:#00795A;}
	.st3{fill:#E3992E;}
</style>
<g>
	<g>
		<g>
			<g>
				<g>
					<g>
						<path class="st0" d="M24.183,31.487H6.568c-2.158,0-4.241-1.737-4.241-3.872V4.385c0-2.135,2.083-3.872,4.241-3.872h15.332
							l6.524,6.453v20.649C28.424,29.75,26.341,31.487,24.183,31.487z"/>
						<path class="st1" d="M24.183,32H6.568c-2.532,0-4.754-2.049-4.754-4.385V4.385C1.814,2.049,4.035,0,6.568,0H22.11l6.827,6.752
							v20.863C28.937,29.951,26.716,32,24.183,32z M6.568,1.027c-1.951,0-3.727,1.601-3.727,3.358v23.23
							c0,1.757,1.776,3.358,3.727,3.358h17.616c1.951,0,3.727-1.601,3.727-3.358V7.18l-6.221-6.153H6.568z"/>
					</g>
				</g>
			</g>
			<polygon class="st2" points="21.72,1.097 21.72,7.206 27.897,7.206 			"/>
		</g>
	</g>
	<g>
		<g>
			<g>
				<polygon class="st1" points="12.268,8.614 13.422,7.459 15.263,7.459 17.795,9.991 15.72,12.066 				"/>
				<path class="st2" d="M15.159,7.709l2.282,2.282l-1.721,1.721l-3.099-3.099l0.905-0.905H15.159 M15.366,7.209h-0.207h-1.634
					h-0.207l-0.146,0.146l-0.905,0.905l-0.354,0.354l0.354,0.354l3.099,3.099l0.354,0.354l0.354-0.354l1.721-1.721l0.354-0.354
					l-0.354-0.354l-2.282-2.282L15.366,7.209L15.366,7.209z"/>
			</g>
			<g>
				<polygon class="st1" points="8.309,12.829 8.309,11.196 9.61,9.894 13.191,9.894 13.191,12.829 				"/>
				<path class="st2" d="M12.941,10.144v2.435H8.559v-1.279l1.155-1.155H12.941 M13.441,9.644h-0.5H9.714H9.507L9.36,9.79
					l-1.155,1.155l-0.146,0.146v0.207v1.279v0.5h0.5h4.382h0.5v-0.5v-2.435V9.644L13.441,9.644z"/>
			</g>
			<g>
				<polygon class="st1" points="7.335,17.453 7.335,15.612 9.867,13.081 11.941,15.156 8.489,18.607 				"/>
				<path class="st2" d="M9.867,13.434l1.721,1.721l-3.099,3.099L7.585,17.35v-1.634L9.867,13.434 M9.867,12.727l-0.354,0.354
					l-2.282,2.282l-0.146,0.146v0.207v1.634v0.207l0.146,0.146l0.905,0.905l0.354,0.354l0.354-0.354l3.099-3.099l0.354-0.354
					l-0.354-0.354l-1.721-1.721L9.867,12.727L9.867,12.727z"/>
			</g>
			<g>
				<polygon class="st1" points="11.071,22.566 9.77,21.265 9.77,17.685 12.704,17.685 12.704,22.566 				"/>
				<path class="st2" d="M12.454,17.935v4.382h-1.279l-1.155-1.155v-3.227H12.454 M12.954,17.435h-0.5h-2.435h-0.5v0.5v3.227v0.207
					l0.146,0.146l1.155,1.155l0.146,0.146h0.207h1.279h0.5v-0.5v-4.382V17.435L12.954,17.435z"/>
			</g>
			<g>
				<polygon class="st1" points="15.488,23.54 12.956,21.009 15.031,18.934 18.483,22.386 17.329,23.54 				"/>
				<path class="st2" d="M15.031,19.287l3.099,3.099l-0.905,0.905h-1.634l-2.282-2.282L15.031,19.287 M15.031,18.58l-0.354,0.354
					l-1.721,1.721l-0.354,0.354l0.354,0.354l2.282,2.282l0.146,0.146h0.207h1.634h0.207l0.146-0.146l0.905-0.905l0.354-0.354
					l-0.354-0.354l-3.099-3.099L15.031,18.58L15.031,18.58z"/>
			</g>
			<g>
				<polygon class="st1" points="17.56,21.106 17.56,18.172 22.442,18.172 22.442,19.805 21.141,21.106 				"/>
				<path class="st2" d="M22.192,18.421v1.279l-1.155,1.155H17.81v-2.435H22.192 M22.692,17.921h-0.5H17.81h-0.5v0.5v2.435v0.5h0.5
					h3.227h0.207l0.146-0.146l1.155-1.155l0.146-0.146v-0.207v-1.279V17.921L22.692,17.921z"/>
			</g>
			<g>
				<polygon class="st1" points="18.809,15.844 22.262,12.392 23.416,13.547 23.416,15.388 20.884,17.919 				"/>
				<path class="st2" d="M22.261,12.746l0.905,0.905v1.634l-2.282,2.282l-1.721-1.721L22.261,12.746 M22.261,12.039l-0.354,0.354
					l-3.099,3.099l-0.354,0.354l0.354,0.354l1.721,1.721l0.354,0.354l0.354-0.354l2.282-2.282l0.146-0.146v-0.207V13.65v-0.207
					l-0.146-0.146l-0.905-0.905L22.261,12.039L22.261,12.039z"/>
			</g>
			<g>
				<polygon class="st1" points="18.047,13.315 18.047,8.433 19.68,8.433 20.981,9.735 20.981,13.315 				"/>
				<path class="st2" d="M19.576,8.683l1.155,1.155v3.227h-2.435V8.683H19.576 M19.783,8.183h-0.207h-1.279h-0.5v0.5v4.382v0.5h0.5
					h2.435h0.5v-0.5V9.839V9.631l-0.146-0.146L19.93,8.33L19.783,8.183L19.783,8.183z"/>
			</g>
		</g>
	</g>
	<g>
		<g>
			<g>
				<g>
					<path class="st3" d="M21.256,31.489c-0.577,0-0.98-0.567-0.982-1.076l0.018-2.2c-1.848-0.153-3.604-1.159-3.604-3.167v-3.46
						c0-2.113,1.65-3.832,3.679-3.832h6.691c2.035,0,3.63,1.684,3.63,3.832v3.46c0,1.937-1.425,3.188-3.63,3.188h-2.611l-2.459,2.82
						C21.865,31.2,21.627,31.489,21.256,31.489z"/>
					<path class="st1" d="M27.057,18.254c1.792,0,3.129,1.526,3.129,3.332v3.459c0,1.683-1.218,2.688-3.129,2.688h-2.839
						l-2.608,2.991c-0.064,0.074-0.198,0.264-0.354,0.264c-0.256,0-0.481-0.304-0.482-0.577l0.021-2.678h-0.077
						c-1.744,0-3.532-0.86-3.532-2.688v-3.459c0-1.776,1.389-3.332,3.179-3.332H27.057 M27.057,17.254h-6.691
						c-2.304,0-4.179,1.943-4.179,4.332v3.459c0,1.909,1.44,3.311,3.601,3.623l-0.014,1.735c0.004,0.865,0.683,1.585,1.482,1.585
						c0.609,0,0.978-0.449,1.099-0.597l2.318-2.659h2.384c2.47,0,4.129-1.482,4.129-3.688v-3.459
						C31.186,19.157,29.372,17.254,27.057,17.254L27.057,17.254z"/>
				</g>
			</g>
		</g>
	</g>
</g>
</svg>
