<?xml version="1.0" encoding="utf-8"?>
<!-- Generator: Adobe Illustrator 21.0.0, SVG Export Plug-In . SVG Version: 6.00 Build 0)  -->
<svg version="1.1" id="Layer_1" xmlns="http://www.w3.org/2000/svg" xmlns:xlink="http://www.w3.org/1999/xlink" x="0px" y="0px"
	 viewBox="0 0 24 24" style="enable-background:new 0 0 24 24;" xml:space="preserve">
<style type="text/css">
	.st0{fill:#FFFFFF;}
	.st1{fill:#333333;}
</style>
<g>
	<path class="st0" d="M19.759,23.748H5.831c-0.603,0-1.096-0.493-1.096-1.096V1.392c0-0.603,0.493-1.096,1.096-1.096h13.928
		c0.603,0,1.096,0.493,1.096,1.096v21.26C20.855,23.255,20.362,23.748,19.759,23.748z"/>
	<path class="st1" d="M19.759,24.022H5.831c-0.755,0-1.37-0.615-1.37-1.37V1.392c0-0.755,0.615-1.37,1.37-1.37h13.928
		c0.755,0,1.37,0.615,1.37,1.37v21.26C21.129,23.408,20.514,24.022,19.759,24.022z M5.831,0.57c-0.453,0-0.822,0.369-0.822,0.822
		v21.26c0,0.453,0.369,0.822,0.822,0.822h13.928c0.453,0,0.822-0.369,0.822-0.822V1.392c0-0.453-0.369-0.822-0.822-0.822H5.831z"/>
</g>
<g>
	<path class="st1" d="M20.855,2.523H4.735V1.352c0-0.603,0.493-1.096,1.096-1.096h13.928c0.603,0,1.096,0.493,1.096,1.096V2.523z"/>
</g>
<g>
	<g>
		<path class="st1" d="M20.855,21.481H4.735v1.171c0,0.603,0.493,1.096,1.096,1.096h13.928c0.603,0,1.096-0.493,1.096-1.096V21.481z
			"/>
	</g>
	<g>
		<circle class="st0" cx="12.795" cy="22.615" r="0.677"/>
	</g>
</g>
<g>
	<circle class="st0" cx="12.795" cy="1.389" r="0.274"/>
</g>
</svg>
