<?xml version="1.0" encoding="utf-8"?>
<!-- Generator: Adobe Illustrator 19.1.0, SVG Export Plug-In . SVG Version: 6.00 Build 0)  -->
<svg version="1.1" id="Layer_1" xmlns="http://www.w3.org/2000/svg" xmlns:xlink="http://www.w3.org/1999/xlink" x="0px" y="0px"
	 viewBox="0 0 48 48" enable-background="new 0 0 48 48" xml:space="preserve">
<g>
	<rect x="19" y="6" fill="#868686" stroke="#262626" stroke-width="2" stroke-miterlimit="10" width="16" height="6"/>
	<g>
		<path fill="#FFFFFF" d="M47,46H1V5c0-1.731,1.398-2.062,5-2h14v8l15.733,1H47V46z"/>
		<path fill="#262626" d="M48,47H0V5c0-1.143,0.502-2.149,1.243-2.994C2.125,1,3.452,1.008,6,1h14v10h15.745H48V47z M2,45h44V13
			H35.733H18V3H6C4.54,3.002,3.302,2.785,2.646,3.432C2.112,3.957,2,4.574,2,5V45z"/>
	</g>
</g>
</svg>
