<?xml version="1.0" encoding="utf-8"?>
<!-- Generator: Adobe Illustrator 19.1.0, SVG Export Plug-In . SVG Version: 6.00 Build 0)  -->
<svg version="1.1" id="Layer_1" xmlns="http://www.w3.org/2000/svg" xmlns:xlink="http://www.w3.org/1999/xlink" x="0px" y="0px"
	 viewBox="0 0 32 32" style="enable-background:new 0 0 32 32;" xml:space="preserve">
<style type="text/css">
	.st0{fill:#0072AA;}
	.st1{fill:#FFFFFF;}
	.st2{fill:#004B71;}
	.st3{fill:#00A389;stroke:#FFFFFF;stroke-miterlimit:10;}
	.st4{fill:#FFFFFF;stroke:#FFFFFF;stroke-width:0.3;stroke-miterlimit:10;}
</style>
<g>
	<g>
		<g>
			<g>
				<g>
					<g>
						<path class="st0" d="M24.046,31.487H6.431c-2.158,0-4.241-1.737-4.241-3.872V4.385c0-2.135,2.083-3.872,4.241-3.872h15.332
							l6.524,6.453v20.649C28.286,29.75,26.204,31.487,24.046,31.487z"/>
						<path class="st1" d="M24.046,32H6.43c-2.532,0-4.754-2.049-4.754-4.385V4.385C1.676,2.049,3.898,0,6.43,0h15.543L28.8,6.752
							v20.863C28.8,29.951,26.578,32,24.046,32z M6.43,1.027c-1.951,0-3.727,1.601-3.727,3.358v23.23
							c0,1.757,1.776,3.358,3.727,3.358h17.616c1.951,0,3.727-1.601,3.727-3.358V7.18l-6.221-6.153H6.43z"/>
					</g>
				</g>
			</g>
			<polygon class="st2" points="21.583,1.097 21.583,7.206 27.76,7.206 			"/>
		</g>
	</g>
	<g>
		<path class="st1" d="M23.635,12.747c-1.376-3.574-4.785-5.768-8.399-5.767c-1.075,0-2.168,0.194-3.231,0.603
			c-4.637,1.786-6.949,6.992-5.163,11.63c1.376,3.574,4.785,5.767,8.399,5.767c1.075,0,2.167-0.194,3.231-0.603
			C23.108,22.59,25.421,17.383,23.635,12.747z M19.699,22.251c-0.429,0.306-0.896,0.57-1.397,0.787l-1.082-2.811l3.026-1.166
			C20.274,20.309,20.085,21.409,19.699,22.251z M13.597,21.623l3.02-1.163l1.078,2.797c-0.513,0.173-1.039,0.284-1.571,0.346
			C15.267,23.242,14.401,22.557,13.597,21.623z M14.904,23.66c-1.318-0.06-2.571-0.459-3.666-1.129l1.721-0.663
			C13.575,22.61,14.233,23.211,14.904,23.66z M7.935,18.405c-0.417-1.251-0.505-2.561-0.266-3.832l1.971-0.759
			c0.111,1.15,0.385,2.375,0.832,3.615L7.935,18.405z M10.761,9.741c0.441-0.315,0.911-0.588,1.417-0.808l1.076,2.796l-3.025,1.164
			C10.203,11.666,10.386,10.578,10.761,9.741z M13.858,11.497L12.782,8.7c0.514-0.173,1.039-0.284,1.573-0.346
			c0.855,0.363,1.721,1.048,2.525,1.981L13.858,11.497z M17.319,10.857c0.696,0.915,1.319,2.017,1.821,3.234l-3.728,1.436
			l-1.319-3.427L17.319,10.857z M15.574,8.296c1.318,0.06,2.571,0.459,3.665,1.128l-1.721,0.663
			C16.901,9.347,16.244,8.747,15.574,8.296z M10.267,13.572l3.22-1.241l1.319,3.427l-3.734,1.438
			C10.628,15.955,10.36,14.718,10.267,13.572z M15.039,16.362l1.345,3.494l-3.228,1.243c-0.709-0.932-1.344-2.056-1.849-3.3
			L15.039,16.362z M16.988,19.625l-1.345-3.494l3.737-1.438c0.46,1.264,0.735,2.525,0.83,3.693L16.988,19.625z M19.982,14.46
			l2.537-0.977c0.444,1.296,0.522,2.635,0.284,3.902l-1.965,0.757C20.725,16.972,20.443,15.722,19.982,14.46z M22.274,12.885
			l-2.533,0.976c-0.501-1.221-1.12-2.31-1.81-3.238l1.956-0.753C20.911,10.647,21.741,11.674,22.274,12.885z M9.821,10.511
			c-0.192,0.779-0.269,1.669-0.23,2.627l-1.741,0.671c0.096-0.323,0.206-0.645,0.344-0.959C8.591,11.961,9.151,11.178,9.821,10.511z
			 M8.171,19.007l2.534-0.976c0.507,1.248,1.137,2.359,1.84,3.304l-1.958,0.753C9.546,21.296,8.704,20.246,8.171,19.007z
			 M20.651,21.456c0.194-0.783,0.273-1.676,0.232-2.639l1.736-0.668C22.254,19.391,21.583,20.533,20.651,21.456z"/>
	</g>
	<g>
		<circle class="st3" cx="23.824" cy="24.922" r="6.5"/>
		<g>
			<path class="st4" d="M28.618,22.662l-3.32,1.409l0.965-2.096l-0.504-0.218l-1.381,3.001l3.117,1.091l0.193-0.514l-2.179-0.762
				l3.321-1.41c0.141-0.06,0.208-0.221,0.15-0.359C28.921,22.665,28.759,22.602,28.618,22.662z"/>
			<path class="st4" d="M18.854,27.101c0.059,0.138,0.22,0.202,0.362,0.142l3.321-1.41l-0.966,2.097l0.504,0.218l1.381-3
				l-3.118-1.091l-0.193,0.514l2.178,0.762l-3.32,1.409C18.862,26.803,18.795,26.963,18.854,27.101z"/>
		</g>
	</g>
</g>
</svg>
