<?xml version="1.0" encoding="utf-8"?>
<!-- Generator: Adobe Illustrator 19.1.0, SVG Export Plug-In . SVG Version: 6.00 Build 0)  -->
<svg version="1.1" id="Layer_1" xmlns="http://www.w3.org/2000/svg" xmlns:xlink="http://www.w3.org/1999/xlink" x="0px" y="0px"
	 viewBox="0 0 24 24" style="enable-background:new 0 0 24 24;" xml:space="preserve">
<style type="text/css">
	.st0{fill:#0374AB;}
	.st1{fill:#FFFFFF;}
	.st2{fill:#014C71;}
	.st3{fill:#046798;}
	.st4{fill:#F2F2F2;}
</style>
<g>
	<g>
		<g>
			<g>
				<g>
					<g>
						<path class="st0" d="M18.777,23.615H5.565c-1.618,0-3.181-1.303-3.181-2.904V3.289c0-1.601,1.562-2.904,3.181-2.904h11.499
							l4.893,4.84v15.487C21.957,22.312,20.395,23.615,18.777,23.615z"/>
						<path class="st1" d="M18.777,24H5.565C3.666,24,2,22.463,2,20.711V3.289C2,1.537,3.666,0,5.565,0h11.656l5.12,5.064v15.647
							C22.342,22.463,20.676,24,18.777,24z M5.565,0.77c-1.463,0-2.795,1.201-2.795,2.519v17.423c0,1.318,1.332,2.518,2.795,2.518
							h13.212c1.463,0,2.795-1.201,2.795-2.518V5.385L16.907,0.77H5.565z"/>
					</g>
				</g>
			</g>
			<polygon class="st2" points="16.929,0.823 16.929,5.405 21.562,5.405 			"/>
		</g>
	</g>
</g>
<g>
	<g>
		<path class="st3" d="M11.368,18.8H4.466V6.6h6.903V18.8z"/>
	</g>
	<g>
		<path class="st3" d="M19.876,12.941h-7.224V6.6h7.224V12.941z"/>
	</g>
	<g>
		<path class="st3" d="M19.876,18.8h-7.224v-4.816h7.224V18.8z"/>
	</g>
</g>
<g>
	<g>
		<g>
			<g>
				<path class="st2" d="M18.508,12.002c-0.263-0.613-0.635-1.16-1.094-1.652c-1.794-1.882-4.038-2.604-6.532-2.112
					c-1.39,0.274-2.615,0.985-3.655,2.112c-0.558,0.591-0.941,1.193-1.171,1.827c-0.153,0.416-0.153,0.832,0,1.247
					c0.241,0.635,0.613,1.225,1.16,1.816c1.401,1.499,3.14,2.254,5.329,2.276l0.252-0.022c0.241-0.033,0.525-0.055,0.821-0.109
					c1.171-0.219,2.243-0.744,3.173-1.543c0.766-0.667,1.324-1.379,1.685-2.177C18.738,13.096,18.749,12.549,18.508,12.002z
					 M17.48,13.206c-0.295,0.657-0.755,1.247-1.411,1.805c-0.777,0.667-1.674,1.105-2.648,1.291
					c-0.274,0.044-0.536,0.077-0.733,0.099l-0.197,0.011c-1.827-0.022-3.293-0.657-4.475-1.926c-0.438-0.47-0.744-0.941-0.919-1.433
					c-0.066-0.175-0.066-0.328-0.011-0.503c0.186-0.492,0.481-0.963,0.941-1.455c0.886-0.952,1.915-1.554,3.064-1.773
					c0.449-0.087,0.886-0.131,1.302-0.131c1.587,0,3.009,0.646,4.224,1.915c0.372,0.394,0.678,0.843,0.886,1.335
					C17.611,12.691,17.611,12.932,17.48,13.206z"/>
			</g>
		</g>
	</g>
	<path class="st2" d="M14.21,10.92L12,13.003v-2.964c-1,0.032-2.592,1.251-2.592,2.762c0,1.532,1.311,2.779,2.843,2.779
		c1.532,0,2.736-1.247,2.736-2.779C14.988,12.071,14.67,11.414,14.21,10.92z"/>
</g>
<g>
	<g>
		<g>
			<g>
				<path class="st4" d="M18.248,11.414c-0.263-0.613-0.635-1.16-1.094-1.652c-1.794-1.882-4.038-2.604-6.532-2.112
					c-1.39,0.274-2.615,0.985-3.655,2.112c-0.558,0.591-0.941,1.193-1.171,1.827c-0.153,0.416-0.153,0.832,0,1.247
					c0.241,0.635,0.613,1.225,1.16,1.816c1.401,1.499,3.14,2.254,5.329,2.276l0.252-0.022c0.241-0.033,0.525-0.055,0.821-0.109
					c1.171-0.219,2.243-0.744,3.173-1.543c0.766-0.667,1.324-1.379,1.685-2.177C18.478,12.508,18.489,11.961,18.248,11.414z
					 M17.219,12.617c-0.295,0.657-0.755,1.247-1.411,1.805c-0.777,0.667-1.674,1.105-2.648,1.291
					c-0.274,0.044-0.536,0.077-0.733,0.099l-0.197,0.011c-1.827-0.022-3.293-0.657-4.475-1.926c-0.438-0.47-0.744-0.941-0.919-1.433
					c-0.066-0.175-0.066-0.328-0.011-0.503c0.186-0.492,0.481-0.963,0.941-1.455c0.886-0.952,1.915-1.554,3.064-1.773
					c0.449-0.087,0.886-0.131,1.302-0.131c1.587,0,3.009,0.646,4.224,1.915c0.372,0.394,0.678,0.843,0.886,1.335
					C17.351,12.103,17.351,12.344,17.219,12.617z"/>
			</g>
		</g>
	</g>
	<path class="st4" d="M14.08,10.332L12,12.414V9.45c-2,0.032-2.722,1.251-2.722,2.762c0,1.532,1.246,2.779,2.778,2.779
		c1.532,0,2.769-1.247,2.769-2.779C14.825,11.483,14.539,10.826,14.08,10.332z"/>
</g>
</svg>
