<?xml version="1.0" encoding="utf-8"?>
<!-- Generator: Adobe Illustrator 19.1.0, SVG Export Plug-In . SVG Version: 6.00 Build 0)  -->
<svg version="1.1" id="Layer_1" xmlns="http://www.w3.org/2000/svg" xmlns:xlink="http://www.w3.org/1999/xlink" x="0px" y="0px"
	 viewBox="0 0 24 24" style="enable-background:new 0 0 24 24;" xml:space="preserve">
<style type="text/css">
	.st0{fill:#333333;}
	.st1{fill:#BC3433;}
</style>
<g>
	<g>
		<path class="st0" d="M20.88,17.92V21c0,1.24-0.89,2-2.13,2H13.4L12,23.28L12.056,23H5.25c-1.24,0-2.37-0.76-2.37-2V3
			c0-1.241,1.13-2,2.37-2H17l3.88,4v6.255c0-0.063,1-0.066,1-0.007V5L17,0H5.25C3.596,0,1.88,1.346,1.88,3v18
			c0,1.654,1.716,3,3.37,3h13.5c1.654,0,3.13-1.346,3.13-3v-4.08L20.88,17.92z"/>
	</g>
	<polygon class="st0" points="17,1 17,5 21,5 	"/>
</g>
<g>
	<g>
		<path class="st0" d="M8.143,16.042c0,0.11-0.09,0.2-0.2,0.2H5.506c-0.11,0-0.2-0.09-0.2-0.2v-2.85c0-0.11,0.09-0.2,0.2-0.2h2.436
			c0.11,0,0.2,0.09,0.2,0.2V16.042z"/>
	</g>
	<g>
		<path class="st0" d="M8.143,20.042c0,0.11-0.09,0.2-0.2,0.2H5.506c-0.11,0-0.2-0.09-0.2-0.2v-2.85c0-0.11,0.09-0.2,0.2-0.2h2.436
			c0.11,0,0.2,0.09,0.2,0.2V20.042z"/>
	</g>
</g>
<g>
	<path class="st0" d="M19,11.192c0,0.11-0.09,0.2-0.2,0.2H5.506c-0.11,0-0.2-0.09-0.2-0.2V6.743c0-0.11,0.09-0.2,0.2-0.2H18.8
		c0.11,0,0.2,0.09,0.2,0.2V11.192z"/>
</g>
<rect x="9.875" y="12.991" class="st0" width="8.198" height="0.5"/>
<rect x="9.875" y="15.241" class="st0" width="5.82" height="0.5"/>
<rect x="9.875" y="17.491" class="st0" width="4.065" height="0.5"/>
<rect x="9.875" y="19.491" class="st0" width="2.033" height="0.5"/>
<g>
	<g>
		<path class="st0" d="M19.23,13.422l2.683,2.683l0.535-0.536c0.357-0.357,0.554-0.833,0.553-1.338
			c-0.001-0.505-0.198-0.982-0.557-1.34c-0.359-0.359-0.835-0.557-1.341-0.557c-0.001,0-0.002,0-0.003,0
			c-0.505,0-0.978,0.196-1.335,0.553L19.23,13.422z"/>
	</g>
	<g>
		<path class="st0" d="M13.356,19.294l-0.671,3.354l3.354-0.671l4.501-4.501l-2.683-2.683L13.356,19.294z"/>
	</g>
</g>
</svg>
