<?xml version="1.0" encoding="utf-8"?>
<!-- Generator: Adobe Illustrator 19.1.0, SVG Export Plug-In . SVG Version: 6.00 Build 0)  -->
<svg version="1.1" id="Layer_1" xmlns="http://www.w3.org/2000/svg" xmlns:xlink="http://www.w3.org/1999/xlink" x="0px" y="0px"
	 viewBox="0 0 48 48" enable-background="new 0 0 48 48" xml:space="preserve">
<g>
	<g>
		<path fill="#FFFFFF" d="M33.352,1.5c0,0-19.137-0.656-22.605-0.656S5.795,4.242,5.42,6.211S5.382,44.426,5.382,44.426l3.825,2.994
			l30.201-0.179l3.155-3.694l0.188-33.516L33.352,1.5z"/>
		<g>
			<path fill="#666666" d="M37.5,48h-27C7.192,48,4,45.308,4,42V6c0-3.308,3.192-6,6.5-6H34l10,10v32C44,45.308,40.808,48,37.5,48z
				 M10.5,2C8.019,2,6,3.519,6,6v36c0,2.481,2.019,4,4.5,4h27c2.481,0,4.5-1.519,4.5-4V10l-8-8H10.5z"/>
		</g>
		<g>
			<path fill="#333333" d="M22,36H10V14h12V36z M12,34h8V16h-8V34z"/>
		</g>
		<g>
			<path fill="#333333" d="M38,24H26V14h12V24z M28,22h8v-6h-8V22z"/>
		</g>
		<g>
			<path fill="#333333" d="M38,36H26v-8h12V36z M28,34h8v-4h-8V34z"/>
		</g>
		<rect x="12" y="16" fill="#EEB111" width="8" height="18"/>
		<rect x="28" y="16" fill="#8CC53E" width="8" height="6"/>
		<rect x="28" y="30" fill="#9370B1" width="8" height="4"/>
	</g>
	<polygon fill="#999999" points="34,2 34,10 42,10 	"/>
</g>
<g>
	<g>
		<g>
			<path fill="#CF6830" d="M36.25,46c-5.514,0-10-4.486-10-10.001c0-5.514,4.486-9.999,10-9.999s10,4.485,10,9.999
				C46.25,41.514,41.764,46,36.25,46z"/>
			<path fill="#FFFFFF" d="M36.25,27c4.963,0,9,4.037,9,8.999c0,4.963-4.037,9.001-9,9.001s-9-4.038-9-9.001
				C27.25,31.037,31.287,27,36.25,27 M36.25,25c-6.074,0-11,4.925-11,10.999c0,6.076,4.926,11.001,11,11.001
				c6.078,0,11-4.924,11-11.001C47.25,29.925,42.328,25,36.25,25L36.25,25z"/>
		</g>
	</g>
	<path fill="#FFFFFF" d="M34.324,40.849l-4.564-4.565c-0.391-0.391-0.391-1.024,0-1.414c0.391-0.391,1.023-0.391,1.414,0
		l3.167,3.167l6.759-6.603c0.395-0.385,1.028-0.378,1.414,0.017c0.386,0.395,0.378,1.028-0.017,1.414L34.324,40.849z"/>
</g>
</svg>
