<?xml version="1.0" encoding="utf-8"?>
<!-- Generator: Adobe Illustrator 19.1.0, SVG Export Plug-In . SVG Version: 6.00 Build 0)  -->
<svg version="1.1" id="Layer_1" xmlns="http://www.w3.org/2000/svg" xmlns:xlink="http://www.w3.org/1999/xlink" x="0px" y="0px"
	 viewBox="0 0 48 48" enable-background="new 0 0 48 48" xml:space="preserve">
<g>
	<g>
		<path fill="#FFFFFF" d="M33.352,1.5c0,0-19.137-0.656-22.605-0.656S5.795,4.242,5.42,6.211S5.382,44.426,5.382,44.426l3.825,2.994
			l30.201-0.179l3.155-3.694l0.188-33.516L33.352,1.5z"/>
		<g>
			<path fill="#666666" d="M37.5,48h-27C7.192,48,4,45.308,4,42V6c0-3.308,3.192-6,6.5-6H34l10,10v32C44,45.308,40.808,48,37.5,48z
				 M10.5,2C8.019,2,6,3.519,6,6v36c0,2.481,2.019,4,4.5,4h27c2.481,0,4.5-1.519,4.5-4V10l-8-8H10.5z"/>
		</g>
		<g>
			<path fill="#333333" d="M22,36H10V14h12V36z M12,34h8V16h-8V34z"/>
		</g>
		<g>
			<path fill="#333333" d="M38,24H26V14h12V24z M28,22h8v-6h-8V22z"/>
		</g>
		<g>
			<path fill="#333333" d="M38,36H26v-8h12V36z M28,34h8v-4h-8V34z"/>
		</g>
		<rect x="12" y="16" fill="#EEB111" width="8" height="18"/>
		<rect x="28" y="16" fill="#8CC53E" width="8" height="6"/>
		<rect x="28" y="30" fill="#9370B1" width="8" height="4"/>
	</g>
	<polygon fill="#999999" points="34,2 34,10 42,10 	"/>
</g>
</svg>
