<?xml version="1.0" encoding="utf-8"?>
<!-- Generator: Adobe Illustrator 19.1.0, SVG Export Plug-In . SVG Version: 6.00 Build 0)  -->
<svg version="1.1" id="Layer_1" xmlns="http://www.w3.org/2000/svg" xmlns:xlink="http://www.w3.org/1999/xlink" x="0px" y="0px"
	 viewBox="0 0 48 48" enable-background="new 0 0 48 48" xml:space="preserve">
<g>
	<g>
		<g>
			<path fill="#FFFFFF" d="M33.352,1.5c0,0-19.137-0.656-22.605-0.656S5.795,4.242,5.42,6.211S5.382,44.426,5.382,44.426
				l3.825,2.994l30.201-0.179l3.155-3.694l0.188-33.516L33.352,1.5z"/>
			<g>
				<path fill="#666666" d="M37.5,48h-27C7.192,48,4,45.308,4,42V6c0-3.308,3.192-6,6.5-6H34l10,10v32C44,45.308,40.808,48,37.5,48z
					 M10.5,2C8.019,2,6,3.519,6,6v36c0,2.481,2.019,4,4.5,4h27c2.481,0,4.5-1.519,4.5-4V10l-8-8H10.5z"/>
			</g>
		</g>
		<polygon fill="#999999" points="34,2 34,10 42,10 		"/>
	</g>
	<g>
		<g>
			<g>
				<g>
					<path fill="#CCCCCC" d="M22,36H10V14h12V36z M12,34h8V16h-8V34z"/>
				</g>
				<g>
					<path fill="#CCCCCC" d="M38,24H26V14h12V24z M28,22h8v-6h-8V22z"/>
				</g>
				<g>
					<path fill="#CCCCCC" d="M38,36H26v-8h12V36z M28,34h8v-4h-8V34z"/>
				</g>
				<rect x="12" y="16" fill="#FFFFC8" width="8" height="18"/>
				<rect x="28" y="16" fill="#E7F1D9" width="8" height="6"/>
				<rect x="28" y="30" fill="#E5D6E9" width="8" height="4"/>
			</g>
		</g>
		<g>
			<g>
				<g>
					<path fill="#733781" d="M24.7,16.533l2.527-2.528c1.166-1.166,2.718-1.808,4.369-1.808c1.658,0,3.215,0.646,4.389,1.819
						c1.17,1.171,1.816,2.725,1.818,4.38c0.002,1.653-0.641,3.209-1.809,4.377l-2.527,2.528L24.7,16.533z"/>
					<path fill="#FFFFFF" d="M31.597,13.118c1.351,0,2.704,0.516,3.736,1.549h0c2.061,2.061,2.066,5.398,0.01,7.454l-1.876,1.876
						l-7.464-7.464l1.876-1.876C28.905,13.631,30.25,13.118,31.597,13.118 M31.597,11.275c-1.897,0-3.68,0.738-5.021,2.078
						L24.7,15.23l-1.303,1.303l1.303,1.303l7.464,7.464l1.303,1.303L34.77,25.3l1.876-1.876c1.343-1.343,2.081-3.13,2.078-5.031
						c-0.003-1.899-0.744-3.685-2.089-5.03C35.289,12.017,33.5,11.275,31.597,11.275L31.597,11.275z"/>
				</g>
				<g>
					<polygon fill="#733781" points="12.092,29.14 24.137,17.096 32.904,25.863 20.859,37.908 9.9,40.1 					"/>
					<path fill="#FFFFFF" d="M24.137,18.399l7.464,7.464L20.405,37.059l-9.33,1.866l1.866-9.33L24.137,18.399 M24.137,15.792
						l-1.303,1.303L11.638,28.292l-0.395,0.395l-0.109,0.547l-1.866,9.33l-0.542,2.711l2.711-0.542l9.33-1.866l0.547-0.109
						l0.395-0.395l11.196-11.196l1.303-1.303l-1.303-1.303l-7.464-7.464L24.137,15.792L24.137,15.792z"/>
				</g>
			</g>
		</g>
	</g>
</g>
<g>
	<g>
		<g>
			<path fill="#CF6830" d="M36.25,46c-5.514,0-10-4.486-10-10.001c0-5.514,4.486-9.999,10-9.999s10,4.485,10,9.999
				C46.25,41.514,41.764,46,36.25,46z"/>
			<path fill="#FFFFFF" d="M36.25,27c4.963,0,9,4.037,9,8.999c0,4.963-4.037,9.001-9,9.001s-9-4.038-9-9.001
				C27.25,31.037,31.287,27,36.25,27 M36.25,25c-6.074,0-11,4.925-11,10.999c0,6.076,4.926,11.001,11,11.001
				c6.078,0,11-4.924,11-11.001C47.25,29.925,42.328,25,36.25,25L36.25,25z"/>
		</g>
	</g>
	<path fill="#FFFFFF" d="M34.324,40.849l-4.564-4.565c-0.391-0.391-0.391-1.024,0-1.414c0.391-0.391,1.023-0.391,1.414,0
		l3.167,3.167l6.759-6.603c0.395-0.385,1.028-0.378,1.414,0.017c0.386,0.395,0.378,1.028-0.017,1.414L34.324,40.849z"/>
</g>
</svg>
