<?xml version="1.0" encoding="utf-8"?>
<!-- Generator: Adobe Illustrator 19.1.0, SVG Export Plug-In . SVG Version: 6.00 Build 0)  -->
<svg version="1.1" id="Layer_1" xmlns="http://www.w3.org/2000/svg" xmlns:xlink="http://www.w3.org/1999/xlink" x="0px" y="0px"
	 viewBox="0 0 24 24" style="enable-background:new 0 0 24 24;" xml:space="preserve">
<style type="text/css">
	.st0{fill:#0374AB;}
	.st1{fill:#FFFFFF;}
	.st2{fill:#014C71;}
	.st3{fill:#046798;}
	.st4{fill:#EB502E;}
</style>
<g>
	<g>
		<g>
			<g>
				<g>
					<g>
						<path class="st0" d="M18.777,23.615H5.566c-1.618,0-3.181-1.303-3.181-2.904V3.289c0-1.601,1.562-2.904,3.181-2.904h11.499
							l4.893,4.84v15.487C21.958,22.312,20.395,23.615,18.777,23.615z"/>
						<path class="st1" d="M18.777,24H5.566C3.667,24,2,22.463,2,20.711V3.289C2,1.537,3.666,0,5.566,0h11.656l5.12,5.064v15.647
							C22.342,22.463,20.677,24,18.777,24z M5.566,0.77c-1.463,0-2.795,1.201-2.795,2.519v17.423c0,1.318,1.332,2.518,2.795,2.518
							h13.212c1.463,0,2.795-1.201,2.795-2.518V5.385L16.907,0.77H5.566z"/>
					</g>
				</g>
			</g>
			<polygon class="st2" points="16.93,0.823 16.93,5.405 21.562,5.405 			"/>
		</g>
	</g>
</g>
<g>
	<g>
		<path class="st3" d="M11.368,18.8H4.466V6.6h6.903V18.8z"/>
	</g>
	<g>
		<path class="st3" d="M19.876,12.941h-7.224V6.6h7.224V12.941z"/>
	</g>
	<g>
		<path class="st3" d="M19.876,18.8h-7.224v-4.816h7.224V18.8z"/>
	</g>
</g>
<g>
	<g>
		<path class="st2" d="M8.017,17.843c-0.412,0-0.581-0.292-0.375-0.65l5.063-8.769c0.206-0.357,0.544-0.357,0.75,0l5.062,8.769
			c0.206,0.357,0.038,0.65-0.375,0.65H8.017z"/>
	</g>
	<g>
		<path class="st2" d="M18.142,18.218H8.017c-0.334,0-0.605-0.138-0.744-0.378c-0.138-0.24-0.122-0.544,0.044-0.833l5.063-8.769
			c0.167-0.289,0.422-0.455,0.699-0.455h0.001c0.278,0,0.532,0.166,0.699,0.456l5.062,8.768c0.168,0.289,0.184,0.593,0.045,0.833
			C18.748,18.08,18.476,18.218,18.142,18.218z M7.945,17.465c0.015,0,0.04,0.003,0.072,0.003h10.125
			c0.045,0,0.076-0.007,0.093-0.012c-0.01-0.007-0.02-0.036-0.042-0.075L13.13,8.612c-0.023-0.04-0.044-0.063-0.056-0.074
			c-0.001,0.012-0.021,0.035-0.045,0.075l-5.062,8.768c-0.023,0.04-0.032,0.069-0.036,0.086C7.934,17.466,7.939,17.465,7.945,17.465
			z"/>
	</g>
</g>
<g>
	<g>
		<g>
			<path class="st1" d="M7.027,16.914c-0.412,0-0.581-0.292-0.375-0.65l5.062-8.769c0.206-0.357,0.544-0.357,0.75,0l5.062,8.769
				c0.206,0.357,0.038,0.65-0.375,0.65H7.027z"/>
		</g>
		<g>
			<path class="st1" d="M17.151,17.289H7.026c-0.334,0-0.605-0.138-0.744-0.378c-0.138-0.24-0.122-0.544,0.044-0.833l5.063-8.769
				c0.167-0.289,0.422-0.455,0.699-0.455c0.001,0,0.001,0,0.001,0c0.278,0,0.532,0.166,0.699,0.456l5.062,8.768
				c0.168,0.289,0.184,0.593,0.045,0.833C17.757,17.152,17.485,17.289,17.151,17.289z M6.955,16.536c0.015,0,0.04,0.003,0.072,0.003
				h10.125c0.045,0,0.076-0.007,0.093-0.012c-0.01-0.007-0.02-0.036-0.042-0.075l-5.062-8.769c-0.023-0.04-0.044-0.063-0.056-0.074
				c-0.001,0.012-0.021,0.035-0.045,0.075l-5.062,8.768c-0.023,0.04-0.032,0.069-0.036,0.086
				C6.944,16.537,6.948,16.536,6.955,16.536z"/>
		</g>
	</g>
	<g>
		<path class="st4" d="M11.512,15.298c0-0.079,0.015-0.154,0.043-0.225c0.029-0.071,0.07-0.132,0.122-0.182
			c0.052-0.051,0.114-0.092,0.185-0.122c0.071-0.03,0.147-0.045,0.229-0.045c0.078,0,0.154,0.015,0.225,0.045
			c0.071,0.031,0.132,0.071,0.182,0.122c0.051,0.051,0.092,0.111,0.122,0.182c0.03,0.071,0.045,0.146,0.045,0.225
			c0,0.081-0.015,0.157-0.045,0.226c-0.031,0.07-0.071,0.13-0.122,0.181c-0.051,0.051-0.111,0.091-0.182,0.12
			s-0.146,0.044-0.225,0.044c-0.081,0-0.157-0.015-0.229-0.044s-0.133-0.069-0.185-0.12c-0.052-0.051-0.093-0.111-0.122-0.181
			C11.527,15.455,11.512,15.379,11.512,15.298z M12.544,10.309v2.178c0,0.231-0.012,0.458-0.034,0.68s-0.053,0.458-0.092,0.706
			h-0.636c-0.038-0.248-0.069-0.484-0.092-0.706s-0.034-0.448-0.034-0.68v-2.178H12.544z"/>
	</g>
</g>
</svg>
