<?xml version="1.0" encoding="utf-8"?>
<!-- Generator: Adobe Illustrator 19.1.0, SVG Export Plug-In . SVG Version: 6.00 Build 0)  -->
<svg version="1.1" id="Layer_1" xmlns="http://www.w3.org/2000/svg" xmlns:xlink="http://www.w3.org/1999/xlink" x="0px" y="0px"
	 viewBox="0 0 48 48" enable-background="new 0 0 48 48" xml:space="preserve">
<g>
	<g>
		<g>
			<polygon fill="#FFFFFF" points="46,44 0,44 0,6 38.225,6 46,16.333 			"/>
			<path fill="#666666" d="M48,44H0V4h38.715L48,15.991V44z M2,42h44V16.675L37.734,6H2V42z"/>
		</g>
		<g>
			<g>
				<rect x="26" y="16" fill="#627783" width="16" height="2"/>
				<rect x="26" y="24" fill="#627783" width="16" height="2"/>
				<rect x="26" y="32" fill="#627783" width="16" height="2"/>
			</g>
			<g>
				<path fill="#8CA9BD" d="M22,14v4h-6v16h-4V18H6v-4H22z"/>
			</g>
		</g>
	</g>
	<g>
		<g>
			<g>
				<path fill="#733781" d="M24.7,16.533l2.527-2.528c1.166-1.166,2.718-1.808,4.369-1.808c1.658,0,3.215,0.646,4.389,1.819
					c1.17,1.171,1.816,2.725,1.818,4.38c0.002,1.653-0.641,3.209-1.809,4.377l-2.527,2.528L24.7,16.533z"/>
				<path fill="#FFFFFF" d="M31.597,13.118c1.351,0,2.704,0.516,3.736,1.549h0c2.061,2.061,2.066,5.398,0.01,7.454l-1.876,1.876
					l-7.464-7.464l1.876-1.876C28.905,13.631,30.25,13.118,31.597,13.118 M31.597,11.275c-1.897,0-3.68,0.738-5.021,2.078
					L24.7,15.23l-1.303,1.303l1.303,1.303l7.464,7.464l1.303,1.303L34.77,25.3l1.876-1.876c1.343-1.343,2.081-3.13,2.078-5.031
					c-0.003-1.899-0.744-3.685-2.089-5.03C35.289,12.017,33.5,11.275,31.597,11.275L31.597,11.275z"/>
			</g>
			<g>
				<polygon fill="#733781" points="12.092,29.14 24.137,17.096 32.904,25.863 20.859,37.908 9.9,40.1 				"/>
				<path fill="#FFFFFF" d="M24.137,18.399l7.464,7.464L20.405,37.059l-9.33,1.866l1.866-9.33L24.137,18.399 M24.137,15.792
					l-1.303,1.303L11.638,28.292l-0.395,0.395l-0.109,0.547l-1.866,9.33l-0.542,2.711l2.711-0.542l9.33-1.866l0.547-0.109
					l0.395-0.395l11.196-11.196l1.303-1.303l-1.303-1.303l-7.464-7.464L24.137,15.792L24.137,15.792z"/>
			</g>
		</g>
	</g>
</g>
</svg>
