<?xml version="1.0" encoding="utf-8"?>
<!-- Generator: Adobe Illustrator 19.1.0, SVG Export Plug-In . SVG Version: 6.00 Build 0)  -->
<svg version="1.1" id="Layer_1" xmlns="http://www.w3.org/2000/svg" xmlns:xlink="http://www.w3.org/1999/xlink" x="0px" y="0px"
	 viewBox="0 0 32 32" style="enable-background:new 0 0 32 32;" xml:space="preserve">
<style type="text/css">
	.st0{fill:#0072AA;}
	.st1{fill:#FFFFFF;}
	.st2{fill:#004B71;}
</style>
<g>
	<g>
		<g>
			<g>
				<path class="st0" d="M6.879,31.5c-1.93,0-3.5-1.57-3.5-3.5V4c0-1.93,1.57-3.5,3.5-3.5h15.207l6.293,6.293V28
					c0,1.93-1.57,3.5-3.5,3.5H6.879z"/>
				<path class="st1" d="M21.879,1l6,6v21c0,1.657-1.343,3-3,3h-18c-1.657,0-3-1.343-3-3V4c0-1.657,1.343-3,3-3H21.879 M22.293,0
					h-0.414h-15c-2.206,0-4,1.794-4,4v24c0,2.206,1.794,4,4,4h18c2.206,0,4-1.794,4-4V7V6.586l-0.293-0.293l-6-6L22.293,0L22.293,0z
					"/>
			</g>
		</g>
		<polygon class="st2" points="21.879,1 21.879,7 27.879,7 		"/>
	</g>
</g>
<g>
	<g>
		<rect x="16.879" y="12.976" class="st1" width="8" height="1"/>
		<rect x="16.879" y="16.976" class="st1" width="8" height="1"/>
		<rect x="16.879" y="20.976" class="st1" width="8" height="1"/>
	</g>
	<g>
		<path class="st1" d="M14.879,11.976v2h-3v8h-2v-8h-3v-2H14.879z"/>
	</g>
</g>
</svg>
