<?xml version="1.0" encoding="utf-8"?>
<!-- Generator: Adobe Illustrator 19.1.0, SVG Export Plug-In . SVG Version: 6.00 Build 0)  -->
<svg version="1.1" id="Layer_1" xmlns="http://www.w3.org/2000/svg" xmlns:xlink="http://www.w3.org/1999/xlink" x="0px" y="0px"
	 viewBox="0 0 48 48" enable-background="new 0 0 48 48" xml:space="preserve">
<g>
	<g>
		<g>
			<path fill="#333333" d="M44.567,16c-0.382,0-0.742-0.149-1.013-0.42L40,12.026l-3.555,3.555c-0.27,0.27-0.63,0.42-1.013,0.42
				s-0.743-0.149-1.013-0.42C34.149,15.31,34,14.95,34,14.568s0.149-0.742,0.42-1.013L37.975,10L34.42,6.445
				C34.149,6.175,34,5.815,34,5.433c0-0.382,0.149-0.742,0.42-1.013C34.691,4.149,35.05,4,35.433,4s0.742,0.149,1.013,0.42L40,7.975
				l3.555-3.555C43.825,4.149,44.185,4,44.567,4s0.742,0.149,1.013,0.42C45.851,4.691,46,5.05,46,5.433
				c0,0.383-0.149,0.742-0.42,1.013L42.025,10l3.555,3.555c0.271,0.271,0.42,0.63,0.42,1.013s-0.149,0.742-0.42,1.013
				C45.31,15.851,44.95,16,44.567,16z"/>
		</g>
	</g>
</g>
<g>
	<path fill="#0072AA" d="M42,16.854V18h-6.567H26v-2h6.323C32.118,15.555,32,15.072,32,14.568c0-0.917,0.357-1.779,1.006-2.427
		l2.14-2.14l-2-2H4v32h40V17.945c-0.7-0.116-1.348-0.438-1.86-0.95L42,16.854z M22,18h-6v16h-4V18H6v-4h16V18z M42,34H26v-2h16V34z
		 M42,26H26v-2h16V26z"/>
	<polygon fill="#0072AA" points="40,14.854 38.854,16 41.146,16 	"/>
	<path fill="#FFFFFF" d="M44,17.945V40H4V8h29.146l-0.139-0.139C32.494,7.349,32.172,6.701,32.055,6H2v36h44V17.677
		C45.555,17.882,45.072,18,44.567,18C44.374,18,44.186,17.976,44,17.945z"/>
	<path fill="#0072AA" d="M46,17.677V42H2V6h30.055C32.025,5.814,32,5.626,32,5.433C32,4.928,32.118,4.445,32.323,4H0v40h48V15.991
		l-0.211-0.272c-0.169,0.473-0.43,0.91-0.795,1.275C46.703,17.286,46.364,17.509,46,17.677z"/>
	<path fill="#00A4D8" d="M35.433,18H42v-1.146L41.146,16h-2.291l-0.995,0.995C37.211,17.643,36.35,18,35.433,18z"/>
	<path fill="#00A4D8" d="M26,18h9.433c-0.917,0-1.779-0.357-2.427-1.005c-0.292-0.292-0.515-0.631-0.683-0.995H26V18z"/>
	<rect x="26" y="24" fill="#00A4D8" width="16" height="2"/>
	<rect x="26" y="32" fill="#00A4D8" width="16" height="2"/>
	<polygon fill="#00A4D8" points="6,18 12,18 12,34 16,34 16,18 22,18 22,14 6,14 	"/>
	<g>
		<g>
			<polygon fill="#005D82" points="32,23 25,23 25,16 20,16 20,23 13,23 13,28 20,28 20,35 25,35 25,28 32,28 			"/>
			<polygon fill="#FFFFFF" points="32,21 25,21 25,15 20,15 20,21 13,21 13,26 20,26 20,33 25,33 25,26 32,26 			"/>
		</g>
	</g>
</g>
</svg>
