<?xml version="1.0" encoding="utf-8"?>
<!-- Generator: Adobe Illustrator 19.1.0, SVG Export Plug-In . SVG Version: 6.00 Build 0)  -->
<svg version="1.1" id="Ebene_1" xmlns="http://www.w3.org/2000/svg" xmlns:xlink="http://www.w3.org/1999/xlink" x="0px" y="0px"
	 viewBox="-1 -171 48 48" style="enable-background:new -1 -171 48 48;" xml:space="preserve">
<style type="text/css">
	.st0{fill:none;stroke:#333333;stroke-miterlimit:10;}
	.st1{fill:none;stroke:#FFFFFF;stroke-miterlimit:10;}
	.st2{fill:#FFFFFF;}
	.st3{fill:#333333;}
	.st4{fill:#333333;stroke:#333333;stroke-miterlimit:10;}
	.st5{fill:#FFFDFD;}
</style>
<path class="st0" d="M46.5-127c0,1.9-1.6,3.5-3.5,3.5H3c-1.9,0-3.5-1.6-3.5-3.5v-40c0-1.9,1.6-3.5,3.5-3.5h40c1.9,0,3.5,1.6,3.5,3.5
	V-127z"/>
<g>
	<path class="st3" d="M20.7-159.4c0.8,0.7,2.6,2.1,2.6,4.9c0,2.7-1.5,3.9-3.1,5.1c-0.5,0.5-1,1-1,1.8s0.5,1.2,1,1.6l1.3,1
		c1.6,1.3,3.1,2.6,3.1,5c0,3.4-3.3,6.8-9.6,6.8c-5.3,0-7.9-2.5-7.9-5.1c0-1.3,0.7-3.1,2.8-4.4c2.3-1.4,5.4-1.6,7-1.7
		c-0.5-0.7-1.1-1.3-1.1-2.5c0-0.6,0.2-1,0.4-1.4c-0.4,0-0.8,0.1-1.2,0.1c-3.9,0-6.1-2.8-6.1-5.6c0-1.7,0.8-3.5,2.4-4.8
		c2.1-1.7,4.6-2,6.6-2h7.5l-2.3,1.3L20.7-159.4L20.7-159.4z M18.1-143.4c-0.3,0-0.5,0-0.8,0c-0.3,0-2.3,0.1-3.9,0.6
		c-0.8,0.3-3.1,1.2-3.1,3.7c0,2.6,2.5,4.4,6.5,4.4c3.5,0,5.4-1.7,5.4-3.9C22.1-140.5,20.9-141.5,18.1-143.4 M19.1-150.3
		c0.8-0.8,0.9-2,0.9-2.6c0-2.6-1.6-6.6-4.6-6.6c-0.9,0-2,0.5-2.6,1.2c-0.6,0.8-0.8,1.7-0.8,2.7c0,2.4,1.4,6.4,4.6,6.4
		C17.6-149.3,18.5-149.7,19.1-150.3"/>
	<polygon class="st3" points="39,-155.1 33.4,-155.1 33.4,-160.7 32.1,-160.7 32.1,-155.1 26.5,-155.1 26.5,-153.8 32.1,-153.8 
		32.1,-148.1 33.4,-148.1 33.4,-153.8 39,-153.8 	"/>
</g>
</svg>
