<?xml version="1.0" encoding="utf-8"?>
<!-- Generator: Adobe Illustrator 19.1.0, SVG Export Plug-In . SVG Version: 6.00 Build 0)  -->
<svg version="1.1" id="Ebene_1" xmlns="http://www.w3.org/2000/svg" xmlns:xlink="http://www.w3.org/1999/xlink" x="0px" y="0px"
	 viewBox="-69 -103 48 48" style="enable-background:new -69 -103 48 48;" xml:space="preserve">
<style type="text/css">
	.st0{fill:none;stroke:#333333;stroke-miterlimit:10;}
	.st1{fill:none;stroke:#FFFFFF;stroke-miterlimit:10;}
	.st2{fill:#FFFFFF;}
	.st3{fill:#333333;}
	.st4{fill:#333333;stroke:#333333;stroke-miterlimit:10;}
	.st5{fill:#FFFDFD;}
</style>
<path class="st1" d="M-21.5-59c0,1.9-1.6,3.5-3.5,3.5h-40c-1.9,0-3.5-1.6-3.5-3.5v-40c0-1.9,1.6-3.5,3.5-3.5h40
	c1.9,0,3.5,1.6,3.5,3.5V-59z"/>
<path class="st2" d="M-53.7-63.7v-20.6h-6.9v20.6L-53.7-63.7z M-57.2-87.2c2.4,0,3.9-1.6,3.9-3.6s-1.5-3.6-3.8-3.6s-3.9,1.5-3.9,3.6
	S-59.5-87.2-57.2-87.2L-57.2-87.2L-57.2-87.2z M-50-63.7h6.9v-11.5c0-0.6,0-1.2,0.2-1.7c0.5-1.2,1.6-2.5,3.5-2.5
	c2.5,0,3.5,1.9,3.5,4.7v11h6.9v-11.8c0-6.3-3.4-9.3-7.9-9.3c-3.7,0-5.3,2.1-6.2,3.5l0,0v-3H-50C-49.9-82.3-50-63.7-50-63.7L-50-63.7
	z"/>
</svg>
