<?xml version="1.0" encoding="utf-8"?>
<!-- Generator: Adobe Illustrator 19.1.0, SVG Export Plug-In . SVG Version: 6.00 Build 0)  -->
<svg version="1.1" id="Ebene_1" xmlns="http://www.w3.org/2000/svg" xmlns:xlink="http://www.w3.org/1999/xlink" x="0px" y="0px"
	 viewBox="-69 -35 48 48" style="enable-background:new -69 -35 48 48;" xml:space="preserve">
<style type="text/css">
	.st0{fill:none;stroke:#333333;stroke-miterlimit:10;}
	.st1{fill:none;stroke:#FFFFFF;stroke-miterlimit:10;}
	.st2{fill:#FFFFFF;}
	.st3{fill:#333333;}
	.st4{fill:#333333;stroke:#333333;stroke-miterlimit:10;}
	.st5{fill:#FFFDFD;}
</style>
<path class="st1" d="M-21.5,9c0,1.9-1.6,3.5-3.5,3.5h-40c-1.9,0-3.5-1.6-3.5-3.5v-40c0-1.9,1.6-3.5,3.5-3.5h40
	c1.9,0,3.5,1.6,3.5,3.5V9z"/>
<path class="st2" d="M-48.8,5v-15h-4v-5.4h4V-20c0-3.6,2.3-7,7.7-7c2.2,0,3.8,0.2,3.8,0.2l-0.1,5c0,0-1.7,0-3.5,0
	c-1.9,0-2.3,0.9-2.3,2.4v3.9h5.9l-0.3,5.4h-5.6v15L-48.8,5"/>
</svg>
