<?xml version="1.0" encoding="utf-8"?>
<!-- Generator: Adobe Illustrator 19.1.0, SVG Export Plug-In . SVG Version: 6.00 Build 0)  -->
<svg version="1.1" id="Ebene_1" xmlns="http://www.w3.org/2000/svg" xmlns:xlink="http://www.w3.org/1999/xlink" x="0px" y="0px"
	 viewBox="-69 169 48 48" style="enable-background:new -69 169 48 48;" xml:space="preserve">
<style type="text/css">
	.st0{fill:none;stroke:#333333;stroke-miterlimit:10;}
	.st1{fill:none;stroke:#FFFFFF;stroke-miterlimit:10;}
	.st2{fill:#FFFFFF;}
	.st3{fill:#333333;}
	.st4{fill:#333333;stroke:#333333;stroke-miterlimit:10;}
	.st5{fill:#FFFDFD;}
</style>
<path class="st1" d="M-21.5,213c0,1.9-1.6,3.5-3.5,3.5h-40c-1.9,0-3.5-1.6-3.5-3.5v-40c0-1.9,1.6-3.5,3.5-3.5h40
	c1.9,0,3.5,1.6,3.5,3.5V213z"/>
<path class="st2" d="M-29,190.4c-0.4,0-3.8-0.3-4.2-0.4l0.1,8.9l1.9,0.2 M-31.1,200.5l-1.1-0.1l-1.2-0.1v2.1l1,0.1l1,0.1
	 M-35.2,188.1c-0.8,0.2-7.9,5.8-8.4,7.1c-0.1,0.5,0,5,0.1,5.7c0.5,0.1,3.9,0,4.5,0.1l-0.1,1.4c-0.6,0-4.9,0-7.4,0
	c-1.3,0-5.3,0.1-6.5,0.1l0.2-1.3c0.7,0,3.5,0.1,4.1-0.5c0.3-0.3,0.2-4.7,0.1-5.4c-0.3-0.8-6.5-8.7-8.2-9.9H-61v-2h14.3v0.1l0,0v0.3
	v1.5H-51c1.9,2.8,4.7,6.2,5.8,7.8l5.7-5.2h-3.4l-0.5-2h12.5L-31,186l0,0l-0.9,1.3l0,0l-0.4,0.5h-2.3C-34.8,188-35,188.1-35.2,188.1z
	"/>
</svg>
