<?xml version="1.0" encoding="utf-8"?>
<!-- Generator: Adobe Illustrator 19.1.0, SVG Export Plug-In . SVG Version: 6.00 Build 0)  -->
<svg version="1.1" id="Ebene_1" xmlns="http://www.w3.org/2000/svg" xmlns:xlink="http://www.w3.org/1999/xlink" x="0px" y="0px"
	 viewBox="-69 -171 48 48" style="enable-background:new -69 -171 48 48;" xml:space="preserve">
<style type="text/css">
	.st0{fill:none;stroke:#333333;stroke-miterlimit:10;}
	.st1{fill:none;stroke:#FFFFFF;stroke-miterlimit:10;}
	.st2{fill:#FFFFFF;}
	.st3{fill:#333333;}
	.st4{fill:#333333;stroke:#333333;stroke-miterlimit:10;}
	.st5{fill:#FFFDFD;}
</style>
<path class="st1" d="M-21.5-127c0,1.9-1.6,3.5-3.5,3.5h-40c-1.9,0-3.5-1.6-3.5-3.5v-40c0-1.9,1.6-3.5,3.5-3.5h40
	c1.9,0,3.5,1.6,3.5,3.5V-127z"/>
<g>
	<path class="st2" d="M-47.3-159.4c0.8,0.7,2.6,2.1,2.6,4.9c0,2.7-1.5,3.9-3.1,5.1c-0.5,0.5-1,1-1,1.8s0.5,1.2,1,1.6l1.3,1
		c1.6,1.3,3.1,2.6,3.1,5c0,3.4-3.3,6.8-9.6,6.8c-5.3,0-7.9-2.5-7.9-5.1c0-1.3,0.7-3.1,2.8-4.4c2.3-1.4,5.4-1.6,7-1.7
		c-0.5-0.7-1.1-1.3-1.1-2.5c0-0.6,0.2-1,0.4-1.4c-0.4,0-0.8,0.1-1.2,0.1c-3.9,0-6.1-2.8-6.1-5.6c0-1.7,0.8-3.5,2.4-4.8
		c2.1-1.7,4.6-2,6.6-2h7.5l-2.3,1.3L-47.3-159.4L-47.3-159.4z M-49.9-143.4c-0.3,0-0.5,0-0.8,0c-0.3,0-2.3,0.1-3.9,0.6
		c-0.8,0.3-3.1,1.2-3.1,3.7c0,2.6,2.5,4.4,6.5,4.4c3.5,0,5.4-1.7,5.4-3.9C-45.9-140.5-47.1-141.5-49.9-143.4 M-48.9-150.3
		c0.8-0.8,0.9-2,0.9-2.6c0-2.6-1.6-6.6-4.6-6.6c-1,0-2,0.5-2.6,1.2c-0.6,0.8-0.8,1.7-0.8,2.7c0,2.4,1.4,6.4,4.6,6.4
		C-50.4-149.3-49.5-149.7-48.9-150.3"/>
	<polygon class="st2" points="-29,-155.1 -34.6,-155.1 -34.6,-160.7 -35.9,-160.7 -35.9,-155.1 -41.5,-155.1 -41.5,-153.8 
		-35.9,-153.8 -35.9,-148.1 -34.6,-148.1 -34.6,-153.8 -29,-153.8 	"/>
</g>
</svg>
