<?xml version="1.0" encoding="utf-8"?>
<!-- Generator: Adobe Illustrator 19.1.0, SVG Export Plug-In . SVG Version: 6.00 Build 0)  -->
<svg version="1.1" id="Layer_1" xmlns="http://www.w3.org/2000/svg" xmlns:xlink="http://www.w3.org/1999/xlink" x="0px" y="0px"
	 viewBox="0 0 32 32" enable-background="new 0 0 32 32" xml:space="preserve">
<g id="Layer_1_5_">
	<g>
		<circle fill="#FFFFFF" cx="16" cy="16" r="15.973"/>
		<circle fill="#0072AA" cx="16" cy="16" r="14.939"/>
	</g>
</g>
<g>
	<path fill="#FFFFFF" d="M19.219,14.139v1.109h-6.438v-1.109H19.219 M20.219,13.139h-8.438v3.109h8.438V13.139L20.219,13.139z"/>
</g>
<g>
	<g>
		<rect x="11.781" y="11.107" fill="#FFFFFF" width="4.438" height="1"/>
	</g>
</g>
<g>
	<g>
		<path fill="#FFFFFF" d="M19.219,20.249v1.109h-6.438v-1.109H19.219 M20.219,19.249h-8.438v3.109h8.438V19.249L20.219,19.249z"/>
	</g>
	<g>
		<g>
			<rect x="11.781" y="17.25" fill="#FFFFFF" width="4.438" height="1"/>
		</g>
	</g>
</g>
<path fill="#FFFFFF" d="M19.372,6.228h-8.43c-1.67,0-3.029,1.359-3.029,3.029v13.487c0,1.67,1.359,3.029,3.029,3.029h10.115
	c1.67,0,3.029-1.359,3.029-3.029V10.728L19.372,6.228z M23.087,22.743c0,1.119-0.91,2.029-2.029,2.029H10.942
	c-1.119,0-2.029-0.91-2.029-2.029V9.256c0-1.119,0.91-2.029,2.029-2.029h7.397v4.487h4.747V22.743z"/>
</svg>
