<?xml version="1.0" encoding="utf-8"?>
<!-- Generator: Adobe Illustrator 19.1.0, SVG Export Plug-In . SVG Version: 6.00 Build 0)  -->
<svg version="1.1" id="Layer_1" xmlns="http://www.w3.org/2000/svg" xmlns:xlink="http://www.w3.org/1999/xlink" x="0px" y="0px"
	 viewBox="0 0 32 32" enable-background="new 0 0 32 32" xml:space="preserve">
<g id="Layer_1_11_">
	<g>
		<circle fill="#FFFFFF" cx="16" cy="16" r="15.973"/>
		<circle fill="#188FE0" cx="16" cy="16" r="14.939"/>
	</g>
</g>
<path fill="#FFFFFF" d="M19.372,6.228h-8.43c-1.67,0-3.029,1.359-3.029,3.029v13.487c0,1.67,1.359,3.029,3.029,3.029h10.115
	c1.67,0,3.029-1.359,3.029-3.029V10.728L19.372,6.228z M19.34,7.601l3.281,3.114H19.34V7.601z M21.058,24.772H10.942
	c-1.119,0-2.029-0.91-2.029-2.029V9.256c0-1.119,0.91-2.029,2.029-2.029h7.397v4.487h4.747v11.028
	C23.087,23.862,22.177,24.772,21.058,24.772z"/>
<polygon fill="#FFFFFF" points="18.97,7.228 18.97,10.921 23.638,10.921 19.34,6.843 "/>
<g>
	<path fill="#FFFFFF" d="M13.699,14.162l-1.106-2.38h1.036c0.074,0,0.128,0.01,0.159,0.03c0.031,0.02,0.058,0.053,0.079,0.1
		l0.672,1.61c0.012-0.023,0.024-0.045,0.038-0.066c0.015-0.021,0.029-0.044,0.046-0.07l0.896-1.456
		c0.033-0.054,0.068-0.091,0.107-0.114c0.038-0.022,0.084-0.033,0.138-0.033h1.197l-1.697,2.324l1.229,2.775H15.47
		c-0.074,0-0.133-0.019-0.175-0.056s-0.072-0.079-0.091-0.126l-0.753-1.873c-0.009,0.017-0.02,0.032-0.029,0.046
		c-0.011,0.014-0.021,0.028-0.03,0.042L13.265,16.7c-0.044,0.067-0.096,0.115-0.153,0.142c-0.059,0.027-0.122,0.04-0.189,0.04
		h-1.141L13.699,14.162z"/>
</g>
<g>
	<rect x="11.781" y="21.18" fill="#FFFFFF" width="8.438" height="1"/>
	<polygon fill="#FFFFFF" points="11.781,18.382 11.781,19.382 16.684,19.382 16.684,19.382 16.684,18.382 	"/>
</g>
</svg>
