<?xml version="1.0" encoding="utf-8"?>
<!-- Generator: Adobe Illustrator 19.1.0, SVG Export Plug-In . SVG Version: 6.00 Build 0)  -->
<svg version="1.1" id="Layer_1" xmlns="http://www.w3.org/2000/svg" xmlns:xlink="http://www.w3.org/1999/xlink" x="0px" y="0px"
	 viewBox="0 0 32 32" enable-background="new 0 0 32 32" xml:space="preserve">
<g id="Layer_1_3_">
	<g>
		<circle fill="#FFFFFF" cx="16" cy="16" r="15.973"/>
		<circle fill="#C95427" cx="16" cy="16" r="14.939"/>
	</g>
</g>
<g>
	<g>
		<path fill="#FFFFFF" d="M8.362,20.862v-3.956h-0.96c-1.426,0-2.586-1.122-2.586-2.501v-4.132c0-1.379,1.16-2.502,2.586-2.502
			h9.025c1.425,0,2.586,1.122,2.586,2.502v4.132c0,1.379-1.161,2.501-2.586,2.501h-2.989L8.362,20.862z M7.402,8.942
			c-0.78,0-1.415,0.597-1.415,1.331v4.132c0,0.734,0.635,1.331,1.415,1.331h2.131v2.73l3.503-2.73h3.391
			c0.78,0,1.415-0.597,1.415-1.331v-4.132c0-0.734-0.635-1.331-1.415-1.331H7.402z"/>
	</g>
	<path fill="#FFFFFF" d="M25.893,11.138h-7.649v1.171h7.649c0.781,0,1.416,0.597,1.416,1.331v4.131c0,0.734-0.635,1.331-1.416,1.331
		h-2.13v2.73l-3.504-2.73h-3.391c-0.78,0-1.415-0.597-1.415-1.331v-1.505h-1.171v1.505c0,1.379,1.16,2.502,2.586,2.502h2.988
		l5.078,3.956v-3.956h0.959c1.426,0,2.586-1.123,2.586-2.502V13.64C28.479,12.261,27.319,11.138,25.893,11.138z"/>
</g>
</svg>
