<?xml version="1.0" encoding="utf-8"?>
<!-- Generator: Adobe Illustrator 21.0.2, SVG Export Plug-In . SVG Version: 6.00 Build 0)  -->
<!DOCTYPE svg PUBLIC "-//W3C//DTD SVG 1.1//EN" "http://www.w3.org/Graphics/SVG/1.1/DTD/svg11.dtd">
<svg version="1.1" id="Layer_1" xmlns="http://www.w3.org/2000/svg" xmlns:xlink="http://www.w3.org/1999/xlink" x="0px" y="0px"
	 viewBox="0 0 36 36" style="enable-background:new 0 0 36 36;" xml:space="preserve">
<style type="text/css">
	.st0{fill:#627784;}
	.st1{fill:#3C5666;}
	.st2{fill:#FFFFFF;}
</style>
<g id="my_work_space_HS">
	<g id="Layer_1_3_">
		<g>
			<circle class="st0" cx="18" cy="18" r="18"/>
		</g>
	</g>
	<g>
		<g>
			<path class="st1" d="M15,17.8c0-1.6,1.3-2.8,2.8-2.8H22v-5c0-1.1-0.9-2-2-2H10c-1.1,0-2,0.9-2,2v10c0,1.1,0.9,2,2,2h5V17.8z"/>
			<path class="st1" d="M22,20v-4h-4c-1.1,0-2,0.9-2,2v4h4C21.1,22,22,21.1,22,20z"/>
		</g>
		<g>
			<path class="st2" d="M14,16.8c0-1.6,1.3-2.8,2.8-2.8H21V9c0-1.1-0.9-2-2-2H9C7.9,7,7,7.9,7,9v10c0,1.1,0.9,2,2,2h5V16.8z"/>
			<path class="st2" d="M21,19v-4h-4c-1.1,0-2,0.9-2,2v4h4C20.1,21,21,20.1,21,19z"/>
		</g>
		<path class="st1" d="M27.7,16H23v4.2c0,1.6-1.3,2.8-2.8,2.8H16v5.6c0,1.3,1.1,2.4,2.4,2.4h9.2c1.3,0,2.4-1.1,2.4-2.4V18.5
			C30,17.1,29,16,27.7,16z"/>
		<path class="st2" d="M26.7,15H22v4.2c0,1.6-1.3,2.8-2.8,2.8H15v5.6c0,1.3,1.1,2.4,2.4,2.4h9.2c1.3,0,2.4-1.1,2.4-2.4V17.5
			C29,16.1,28,15,26.7,15z"/>
	</g>
</g>
</svg>
