<?xml version="1.0" encoding="utf-8"?>
<!-- Generator: Adobe Illustrator 21.0.2, SVG Export Plug-In . SVG Version: 6.00 Build 0)  -->
<!DOCTYPE svg PUBLIC "-//W3C//DTD SVG 1.1//EN" "http://www.w3.org/Graphics/SVG/1.1/DTD/svg11.dtd">
<svg version="1.1" id="Layer_1" xmlns="http://www.w3.org/2000/svg" xmlns:xlink="http://www.w3.org/1999/xlink" x="0px" y="0px"
	 viewBox="0 0 36 36" style="enable-background:new 0 0 36 36;" xml:space="preserve">
<style type="text/css">
	.st0{fill:#8CC53E;}
	.st1{fill:#70A024;}
	.st2{fill:#569316;}
	.st3{fill:#FFFFFF;}
</style>
<circle class="st0" cx="18" cy="18" r="18"/>
<path class="st1" d="M28,26H8V14.8C8,14.4,8.4,14,8.8,14h18.3c0.5,0,0.9,0.4,0.9,0.8V26z"/>
<path class="st2" d="M28,26H8l20-11V26z"/>
<path class="st3" d="M27.4,12.1h-8.3c-0.2,0-0.4-0.1-0.5-0.2l-2.9-2.5C15.4,9.2,15,9,14.7,9H8.6C7.7,9,7,9.7,7,10.5V27h22V13.7
	C29,12.8,28.3,12.1,27.4,12.1z M28,26H8V14.8C8,14.4,8.4,14,8.8,14h18.3c0.5,0,0.9,0.4,0.9,0.8V26L28,26z"/>
<path class="st0" d="M28,23c-0.3,0-0.5,0-0.8,0.1l-1.9-2.8c0.4-0.6,0.7-1.4,0.7-2.3c0-2.2-1.8-4-4-4s-4,1.8-4,4
	c0,0.8,0.3,1.6,0.7,2.3l-1.9,2.8C16.5,23,16.3,23,16,23c-2.2,0-4,1.8-4,4s1.8,4,4,4c1.7,0,3.1-1,3.7-2.5h4.6c0.6,1.5,2,2.5,3.7,2.5
	c2.2,0,4-1.8,4-4S30.2,23,28,23z M19.3,24.8l1.9-2.9C21.4,22,21.7,22,22,22c0.3,0,0.5,0,0.8-0.1l1.9,2.8c-0.2,0.2-0.3,0.5-0.4,0.8
	h-4.6C19.6,25.2,19.5,25,19.3,24.8z"/>
<path class="st3" d="M28,24c-0.4,0-0.8,0.1-1.2,0.3l-2.7-4.1c0.6-0.5,0.9-1.3,0.9-2.2c0-1.7-1.3-3-3-3s-3,1.3-3,3
	c0,0.9,0.4,1.6,1,2.2l-2.8,4.1C16.8,24.1,16.4,24,16,24c-1.7,0-3,1.3-3,3s1.3,3,3,3c1.5,0,2.7-1.1,2.9-2.5h6.1
	c0.2,1.4,1.5,2.5,2.9,2.5c1.7,0,3-1.3,3-3S29.7,24,28,24z M20.8,20.7c0.4,0.2,0.8,0.3,1.2,0.3c0.4,0,0.8-0.1,1.2-0.3l2.7,4.1
	c-0.5,0.4-0.8,1-0.9,1.7h-6.1c-0.1-0.6-0.4-1.2-0.9-1.6L20.8,20.7z"/>
</svg>
