<?xml version="1.0" encoding="utf-8"?>
<!-- Generator: Adobe Illustrator 19.2.1, SVG Export Plug-In . SVG Version: 6.00 Build 0)  -->
<svg version="1.1" id="Layer_2" xmlns="http://www.w3.org/2000/svg" xmlns:xlink="http://www.w3.org/1999/xlink" x="0px" y="0px"
	 viewBox="0 0 32 32" style="enable-background:new 0 0 32 32;" xml:space="preserve">
<style type="text/css">
	.st0{fill:#FFFFFF;}
	.st1{fill:#0172AC;}
	.st2{fill:#01A38A;}
	.st3{fill:#F4F4F4;}
</style>
<g id="Layer_3">
	<circle class="st0" cx="16" cy="16" r="16"/>
	<circle class="st1" cx="16" cy="16" r="14.9"/>
	<circle class="st0" cx="16" cy="16" r="16"/>
	<circle class="st2" cx="16" cy="16" r="14.9"/>
</g>
<path class="st3" d="M20,7h-8c-1.1,0-2,0.9-2,2v1.5c2.8,0.3,5,2.6,5,5.5s-2.2,5.2-5,5.5V23c0,1.1,0.9,2,2,2h10c1.1,0,2-0.9,2-2V11
	L20,7z"/>
<circle class="st3" cx="9.5" cy="16" r="4.5"/>
<path class="st2" d="M12,16c0-0.075-0.015-0.149-0.044-0.219c-0.006-0.014-0.017-0.023-0.024-0.037
	c-0.026-0.051-0.054-0.103-0.097-0.146c-0.001-0.001-0.003-0.001-0.004-0.003l-2.43-2.43c-0.22-0.22-0.581-0.22-0.802,0
	s-0.22,0.581,0,0.802l1.466,1.466H7.567C7.255,15.433,7,15.688,7,16c0,0.312,0.255,0.567,0.567,0.567h2.497l-1.466,1.466
	c-0.22,0.22-0.22,0.581,0,0.802s0.581,0.22,0.802,0l2.43-2.43c0.001-0.001,0.003-0.001,0.004-0.003
	c0.043-0.043,0.07-0.094,0.096-0.145c0.007-0.014,0.019-0.024,0.025-0.038C11.984,16.149,12,16.075,12,16L12,16L12,16z"/>
</svg>
