<?xml version="1.0" encoding="utf-8"?>
<!-- Generator: Adobe Illustrator 19.1.0, SVG Export Plug-In . SVG Version: 6.00 Build 0)  -->
<svg version="1.1" xmlns="http://www.w3.org/2000/svg" xmlns:xlink="http://www.w3.org/1999/xlink" x="0px" y="0px"
	 viewBox="0 0 32 32" enable-background="new 0 0 32 32" xml:space="preserve">
<g id="Layer_2">
</g>
<g id="Layer_1">
</g>
<g id="Layer_3">
</g>
<g id="Layer_4">
</g>
<g id="Layer_5">
	<g>
		<g>
			<circle fill="#004A70" cx="16" cy="16" r="15"/>
			<path fill="#FFFFFF" d="M16,31.5C7.453,31.5,0.5,24.547,0.5,16S7.453,0.5,16,0.5S31.5,7.453,31.5,16S24.547,31.5,16,31.5z
				 M16,1.5C8.005,1.5,1.5,8.005,1.5,16S8.005,30.5,16,30.5S30.5,23.995,30.5,16S23.995,1.5,16,1.5z"/>
		</g>
		<g>
			<g>
				<polygon fill="#003854" points="15.977,9.43 5.564,14.501 15.977,19.39 26.436,14.41 				"/>
				<polygon fill="#003854" points="21.229,21.125 21.229,18.454 16.023,20.899 10.816,18.454 10.816,21.035 15.932,23.57 				"/>
				<path fill="#003854" d="M8.326,23.92c-0.276,0-0.5-0.224-0.5-0.5v-8.24c0-0.276,0.224-0.5,0.5-0.5s0.5,0.224,0.5,0.5v8.24
					C8.826,23.696,8.602,23.92,8.326,23.92z"/>
			</g>
			<g>
				<polygon fill="#FFFFFF" points="15.977,8.43 5.564,13.501 15.977,18.39 26.436,13.41 				"/>
				<polygon fill="#FFFFFF" points="21.229,20.125 21.229,17.454 16.023,19.899 10.816,17.454 10.816,20.035 15.932,22.57 				"/>
				<path fill="#FFFFFF" d="M8.326,22.92c-0.276,0-0.5-0.224-0.5-0.5v-8.24c0-0.276,0.224-0.5,0.5-0.5s0.5,0.224,0.5,0.5v8.24
					C8.826,22.696,8.602,22.92,8.326,22.92z"/>
			</g>
		</g>
	</g>
</g>
<g id="Layer_7">
</g>
</svg>
