<?xml version="1.0" encoding="utf-8"?>
<!-- Generator: Adobe Illustrator 19.1.0, SVG Export Plug-In . SVG Version: 6.00 Build 0)  -->
<svg version="1.1" id="Layer_1" xmlns="http://www.w3.org/2000/svg" xmlns:xlink="http://www.w3.org/1999/xlink" x="0px" y="0px"
	 viewBox="0 0 32 32" enable-background="new 0 0 32 32" xml:space="preserve">
<g id="Layer_1_1_">
	<g>
		<circle fill="#FFFFFF" cx="16" cy="16" r="15.973"/>
		<circle fill="#0072AA" cx="16" cy="16" r="14.939"/>
	</g>
</g>
<g>
	<g>
		<rect x="11.781" y="13.185" fill="#FFFFFF" width="5.438" height="1"/>
	</g>
	<g>
		<rect x="11.781" y="15.84" fill="#FFFFFF" width="8.438" height="1"/>
	</g>
	<g>
		<rect x="11.781" y="18.494" fill="#FFFFFF" width="8.438" height="1"/>
	</g>
	<g>
		<rect x="11.781" y="21.149" fill="#FFFFFF" width="8.438" height="1"/>
	</g>
</g>
<path fill="#FFFFFF" d="M19.372,6.228h-8.43c-1.67,0-3.029,1.359-3.029,3.029v13.487c0,1.67,1.359,3.029,3.029,3.029h10.115
	c1.67,0,3.029-1.359,3.029-3.029V10.728L19.372,6.228z M23.087,22.743c0,1.119-0.91,2.029-2.029,2.029H10.942
	c-1.119,0-2.029-0.91-2.029-2.029V9.256c0-1.119,0.91-2.029,2.029-2.029h7.397v4.487h4.747V22.743z"/>
</svg>
