<?xml version="1.0" encoding="utf-8"?>
<!-- Generator: Adobe Illustrator 19.2.0, SVG Export Plug-In . SVG Version: 6.00 Build 0)  -->
<!DOCTYPE svg PUBLIC "-//W3C//DTD SVG 1.1//EN" "http://www.w3.org/Graphics/SVG/1.1/DTD/svg11.dtd">
<svg version="1.1" id="Layer_1" xmlns="http://www.w3.org/2000/svg" xmlns:xlink="http://www.w3.org/1999/xlink" x="0px" y="0px"
	 viewBox="0 0 32 32" enable-background="new 0 0 32 32" xml:space="preserve">
<g id="Layer_2">
</g>
<g id="Layer_1_1_">
</g>
<g id="Layer_3">
</g>
<g id="Layer_4">
</g>
<g id="Layer_5">
	<g>
		<circle fill="#0071C5" cx="16" cy="16" r="15"/>
		<circle fill="none" cx="16" cy="16" r="15"/>
		<g>
			<path fill="#0071C5" d="M16,31.5C7.453,31.5,0.5,24.547,0.5,16S7.453,0.5,16,0.5S31.5,7.453,31.5,16S24.547,31.5,16,31.5z"/>
			<path fill="#FFFFFF" d="M16,32C7.178,32,0,24.822,0,16S7.178,0,16,0s16,7.178,16,16S24.822,32,16,32z M16,1C7.729,1,1,7.729,1,16
				c0,8.271,6.729,15,15,15c8.271,0,15-6.729,15-15C31,7.729,24.271,1,16,1z"/>
		</g>
	</g>
</g>
<g id="Layer_7">
</g>
<g id="Layer_7_1_">
</g>
<path fill="#F5F5F5" d="M5.331,19.103c-0.224,0.759-0.258,1.102-0.303,1.747c-0.024,0.104-0.039,0.21-0.039,0.321v0.685
	c0,0.01,0.003,0.02,0.003,0.03c0.016,0.775,0.652,1.404,1.43,1.404h10.733c0.788,0,1.433-0.645,1.433-1.433v-0.529V21.17
	c0.001-0.101-0.01-0.2-0.031-0.296c-0.046-0.661-0.077-1.002-0.304-1.771c-0.163-0.551-0.543-0.957-1.161-1.241
	c-0.528-0.242-1.161-0.364-1.72-0.47c-0.462-0.088-0.899-0.172-1.204-0.309c-0.167-0.075-0.312-0.185-0.432-0.329
	c-0.066-0.079-0.126-0.17-0.178-0.271c0.267-0.219,0.497-0.483,0.691-0.791c0.267-0.424,0.463-0.932,0.587-1.517
	c0.127-0.036,0.252-0.134,0.356-0.283c0.117-0.165,0.204-0.385,0.246-0.621c0.062-0.343,0.023-0.67-0.103-0.887
	c0.011-0.045,0.022-0.09,0.031-0.137c0.058-0.294,0.078-0.634,0.058-1.012c-0.034-0.639-0.167-1.158-0.173-1.179
	c-0.138-0.547-0.548-1.096-1.126-1.507c-0.46-0.327-1.239-0.716-2.336-0.716c-1.097,0-1.873,0.39-2.333,0.717
	c-0.578,0.41-0.988,0.959-1.125,1.506c-0.008,0.028-0.141,0.544-0.176,1.18c-0.021,0.378-0.002,0.718,0.056,1.012
	c0.009,0.046,0.019,0.09,0.03,0.134c-0.127,0.217-0.166,0.545-0.104,0.89c0.043,0.236,0.131,0.458,0.248,0.623
	c0.105,0.148,0.23,0.246,0.358,0.282c0.125,0.584,0.321,1.092,0.588,1.516c0.195,0.31,0.426,0.574,0.694,0.793
	c-0.052,0.1-0.111,0.19-0.177,0.268c-0.12,0.143-0.265,0.254-0.432,0.329c-0.305,0.137-0.741,0.22-1.204,0.309
	c-0.559,0.107-1.192,0.228-1.72,0.47C5.873,18.146,5.493,18.552,5.331,19.103z"/>
<g>
	<g>
		<path fill="#96D1EF" d="M27.313,20.874c-0.046-0.661-0.077-1.002-0.304-1.771c-0.163-0.551-0.543-0.957-1.161-1.241
			c-0.528-0.242-1.161-0.364-1.72-0.47c-0.462-0.088-0.899-0.172-1.204-0.309c-0.167-0.075-0.312-0.185-0.432-0.329
			c-0.066-0.079-0.126-0.17-0.178-0.271c0.267-0.219,0.497-0.483,0.691-0.791c0.267-0.424,0.463-0.932,0.587-1.517
			c0.127-0.036,0.252-0.134,0.356-0.283c0.117-0.165,0.204-0.385,0.246-0.621c0.062-0.343,0.023-0.67-0.103-0.887
			c0.011-0.045,0.022-0.09,0.031-0.137c0.058-0.294,0.078-0.634,0.058-1.012c-0.034-0.639-0.167-1.158-0.173-1.179
			c-0.138-0.547-0.548-1.096-1.126-1.507c-0.46-0.327-1.239-0.716-2.336-0.716s-1.876,0.39-2.336,0.716
			c-0.578,0.41-0.988,0.959-1.126,1.506c-0.007,0.028-0.141,0.545-0.176,1.18c-0.021,0.378-0.002,0.718,0.056,1.012
			c0.009,0.046,0.019,0.09,0.03,0.134c-0.127,0.217-0.166,0.545-0.104,0.89c0.043,0.236,0.131,0.458,0.248,0.623
			c0.105,0.148,0.23,0.246,0.358,0.282c0.125,0.584,0.321,1.092,0.588,1.516c0.195,0.31,0.426,0.574,0.694,0.793
			c-0.052,0.1-0.111,0.19-0.177,0.268c-0.12,0.143-0.265,0.254-0.432,0.329c-0.078,0.035-0.185,0.06-0.279,0.089
			c0.662,0.401,1.115,0.947,1.323,1.649c0.248,0.84,0.291,1.251,0.338,1.922c0.027,0.145,0.039,0.291,0.038,0.429v0.158v0.529
			c0,0.537-0.18,1.029-0.476,1.432h6.795c0.788,0,1.433-0.645,1.433-1.433v-0.529V21.17C27.345,21.069,27.334,20.97,27.313,20.874z"
			/>
	</g>
</g>
<g id="Layer_7_2_">
</g>
</svg>
