<?xml version="1.0" encoding="utf-8"?>
<!-- Generator: Adobe Illustrator 19.1.0, SVG Export Plug-In . SVG Version: 6.00 Build 0)  -->
<svg version="1.1" xmlns="http://www.w3.org/2000/svg" xmlns:xlink="http://www.w3.org/1999/xlink" x="0px" y="0px"
	 viewBox="0 0 32 32" enable-background="new 0 0 32 32" xml:space="preserve">
<g id="Layer_2">
</g>
<g id="Layer_1">
</g>
<g id="Layer_3">
</g>
<g id="Layer_4">
</g>
<g id="Layer_5">
	<g>
		<circle fill="#0071C5" cx="16" cy="16" r="15"/>
		<path fill="#FFFFFF" d="M16,31.5C7.453,31.5,0.5,24.547,0.5,16S7.453,0.5,16,0.5S31.5,7.453,31.5,16S24.547,31.5,16,31.5z M16,1.5
			C8.005,1.5,1.5,8.005,1.5,16S8.005,30.5,16,30.5S30.5,23.995,30.5,16S23.995,1.5,16,1.5z"/>
	</g>
	<g>
		<g>
			<path fill="#005B93" d="M13.41,28.393c-0.828,0-1.5-0.672-1.5-1.5v-3.682H9.006c-0.828,0-1.5-0.672-1.5-1.5v-7.18
				c0-0.828,0.672-1.5,1.5-1.5s1.5,0.672,1.5,1.5v5.68h2.903c0.828,0,1.5,0.672,1.5,1.5v5.182
				C14.91,27.721,14.238,28.393,13.41,28.393z"/>
			<circle fill="#005B93" cx="9.043" cy="9.377" r="2.11"/>
			<path fill="#FFFFFF" d="M13.41,27.393c-0.828,0-1.5-0.672-1.5-1.5v-3.682H9.006c-0.828,0-1.5-0.672-1.5-1.5v-7.18
				c0-0.828,0.672-1.5,1.5-1.5s1.5,0.672,1.5,1.5v5.68h2.903c0.828,0,1.5,0.672,1.5,1.5v5.182
				C14.91,26.721,14.238,27.393,13.41,27.393z"/>
			<circle fill="#FFFFFF" cx="9.043" cy="8.377" r="2.11"/>
		</g>
		<g>
			<path fill="#005B93" d="M18.59,28.393c-0.828,0-1.5-0.672-1.5-1.5v-5.182c0-0.828,0.672-1.5,1.5-1.5h2.903v-5.68
				c0-0.828,0.672-1.5,1.5-1.5s1.5,0.672,1.5,1.5v7.18c0,0.828-0.672,1.5-1.5,1.5H20.09v3.682
				C20.09,27.721,19.418,28.393,18.59,28.393z"/>
			<circle fill="#005B93" cx="22.957" cy="9.377" r="2.11"/>
			<path fill="#FFFFFF" d="M18.59,27.393c-0.828,0-1.5-0.672-1.5-1.5v-5.182c0-0.828,0.672-1.5,1.5-1.5h2.903v-5.68
				c0-0.828,0.672-1.5,1.5-1.5s1.5,0.672,1.5,1.5v7.18c0,0.828-0.672,1.5-1.5,1.5H20.09v3.682
				C20.09,26.721,19.418,27.393,18.59,27.393z"/>
			<circle fill="#FFFFFF" cx="22.957" cy="8.377" r="2.11"/>
		</g>
		<g>
			<path fill="#005B93" d="M19.04,18.455H12.96c-0.553,0-1-0.447-1-1s0.447-1,1-1h6.081c0.553,0,1,0.447,1,1
				S19.593,18.455,19.04,18.455z"/>
			<path fill="#FFFFFF" d="M19.04,17.455H12.96c-0.553,0-1-0.447-1-1c0-0.553,0.447-1,1-1h6.081c0.553,0,1,0.447,1,1
				C20.04,17.008,19.593,17.455,19.04,17.455z"/>
		</g>
	</g>
</g>
<g id="Layer_7">
</g>
</svg>
