<?xml version="1.0" encoding="utf-8"?>
<!-- Generator: Adobe Illustrator 19.1.0, SVG Export Plug-In . SVG Version: 6.00 Build 0)  -->
<svg version="1.1" id="Layer_1" xmlns="http://www.w3.org/2000/svg" xmlns:xlink="http://www.w3.org/1999/xlink" x="0px" y="0px"
	 viewBox="0 0 32 32" enable-background="new 0 0 32 32" xml:space="preserve">
<g id="Layer_1_6_">
	<g>
		<circle fill="#FFFFFF" cx="16" cy="16" r="15.973"/>
		<circle fill="#9370B1" cx="16" cy="16" r="14.939"/>
	</g>
</g>
<path fill="#FFFFFF" d="M26.031,9.907c0-0.827-0.673-1.5-1.5-1.5H7.469c-0.827,0-1.5,0.673-1.5,1.5v12.186
	c0,0.827,0.673,1.5,1.5,1.5h17.062c0.827,0,1.5-0.673,1.5-1.5 M7.469,9.407h17.062c0.275,0,0.5,0.224,0.5,0.5v1.725H6.969V9.907
	C6.969,9.631,7.193,9.407,7.469,9.407z M24.531,22.593H7.469c-0.276,0-0.5-0.225-0.5-0.5v-9.461h18.062v9.461
	C25.031,22.368,24.807,22.593,24.531,22.593z"/>
<rect x="7.969" y="13.631" fill="#FFFFFF" width="3.481" height="7.961"/>
<rect x="12.449" y="18.112" fill="#FFFFFF" width="11.582" height="3.481"/>
<rect x="12.449" y="13.631" fill="#FFFFFF" width="11.582" height="3.48"/>
</svg>
