<?xml version="1.0" encoding="utf-8"?>
<!-- Generator: Adobe Illustrator 21.0.2, SVG Export Plug-In . SVG Version: 6.00 Build 0)  -->
<!DOCTYPE svg PUBLIC "-//W3C//DTD SVG 1.1//EN" "http://www.w3.org/Graphics/SVG/1.1/DTD/svg11.dtd">
<svg version="1.1" id="Layer_1" xmlns="http://www.w3.org/2000/svg" xmlns:xlink="http://www.w3.org/1999/xlink" x="0px" y="0px"
	 viewBox="0 0 36 36" style="enable-background:new 0 0 36 36;" xml:space="preserve">
<style type="text/css">
	.st0{fill:#627784;}
	.st1{fill:#3C5666;}
	.st2{fill:#FFFFFF;}
</style>
<g id="my_work_space_HS">
	<g id="Layer_1_3_">
		<g>
			<circle class="st0" cx="18" cy="18" r="18"/>
		</g>
	</g>
</g>
<g id="New_Symbol_1_">
	<g id="Layer_2_4_">
	</g>
	<g id="Layer_1_15_">
	</g>
	<g id="Layer_3_3_">
	</g>
	<g id="Layer_4_3_">
	</g>
	<g id="Layer_2_3_">
	</g>
	<g id="Layer_1_14_">
	</g>
	<g id="Layer_3_2_">
	</g>
	<g id="Layer_4_2_">
	</g>
	<g id="Layer_5_3_">
		<g>
			<g>
				<path class="st1" d="M23.9,22.5c0-0.7-0.2-1.7-1-2c-0.7-0.4-2-0.2-2.7-1c0.5-0.4,0.7-1,1-1.7c0.4-0.2,0.5-1,0.4-1.3
					c0.4-1.7-1-3.2-2.7-3.2c-0.7,0-1.7,0.4-2,1c-0.5,0.5-0.5,1.5-0.4,2.2c-0.2,0.4-0.2,1.1,0.4,1.3c0.2,0.5,0.4,1.3,1,1.7
					c-0.4,0.5-1.1,0.5-1.7,0.7c-0.5,0.2-1.3,0.4-1.7,0.7c-0.4,0.5-0.4,1.7-0.4,2.2c0,0.7,0.5,1.1,1.1,1.3c0.4,0.4,6,0.5,7.5,0
					c0.5-0.2,0.7-0.2,1-0.7C23.9,23.4,23.9,22.9,23.9,22.5z"/>
			</g>
		</g>
	</g>
	<g id="Layer_7_5_">
	</g>
</g>
<path class="st1" d="M27.7,16H23v2.3c0.9,0.6,1.4,1.7,1.4,3.1c0,0.7,0,1.3-0.2,1.7v0.1v0.1c-0.5,1-1,1.2-1.7,1.4h-0.1
	c-1,0.3-2.8,0.4-4.2,0.4c-0.9,0-1.5,0-2.1-0.1v3.4c0,1.3,1.1,2.4,2.4,2.4h9.2c1.3,0,2.4-1.1,2.4-2.4v-9.9C30,17.1,29,16,27.7,16z"/>
<path class="st2" d="M26.7,15h-4.6c0,0.1,0,0.2,0,0.4c0.1,0.4,0,0.9-0.1,1.3v1.2c0.2,0.1,0.4,0.1,0.6,0.2c1.1,0.5,1.8,1.7,1.8,3.4
	c0,0.7,0,1.3-0.2,1.7v0.1v0.1c-0.5,1-1,1.2-1.7,1.4h-0.1c-1,0.3-2.8,0.4-4.2,0.4c-1.4,0-2.4-0.1-3.1-0.1v2.5c0,1.3,1.1,2.4,2.4,2.4
	h9.2c1.3,0,2.4-1.1,2.4-2.4V17.5C29,16.1,28,15,26.7,15z"/>
<g id="New_Symbol">
	<g id="Layer_2_5_">
	</g>
	<g id="Layer_1_13_">
	</g>
	<g id="Layer_3_5_">
	</g>
	<g id="Layer_4_5_">
	</g>
	<g id="Layer_2_2_">
	</g>
	<g id="Layer_1_12_">
	</g>
	<g id="Layer_3_1_">
	</g>
	<g id="Layer_4_1_">
	</g>
	<g id="Layer_5_2_">
		<g>
			<g>
				<path class="st2" d="M22.9,21.5c0-0.7-0.2-1.7-1-2c-0.7-0.4-2-0.2-2.7-1c0.5-0.4,0.7-1,1-1.7c0.4-0.2,0.5-1,0.4-1.3
					c0.4-1.7-1-3.2-2.7-3.2c-0.7,0-1.7,0.4-2,1c-0.5,0.5-0.5,1.5-0.4,2.2c-0.2,0.4-0.2,1.1,0.4,1.3c0.2,0.5,0.4,1.3,1,1.7
					c-0.4,0.5-1.1,0.5-1.7,0.7c-0.5,0.2-1.3,0.4-1.7,0.7c-0.4,0.5-0.4,1.7-0.4,2.2c0,0.7,0.5,1.1,1.1,1.3c0.4,0.4,6,0.5,7.5,0
					c0.5-0.2,0.7-0.2,1-0.7C22.9,22.4,22.9,21.9,22.9,21.5z"/>
			</g>
		</g>
	</g>
	<g id="Layer_7_4_">
	</g>
</g>
<path class="st1" d="M20,8H10c-1.1,0-2,0.9-2,2v10c0,1.1,0.9,2,2,2h2.7c0.1-0.7,0.2-1.4,0.6-2l0.1-0.1l0.1-0.1
	c0.4-0.4,1-0.7,1.6-0.9L15,15.4c0-0.7,0.2-1.5,0.8-2.2c0.7-1.1,2.2-1.6,3.2-1.6c1.2,0,2.3,0.5,3.1,1.4v-3C22,8.9,21.1,8,20,8z"/>
<path class="st2" d="M19,7H9C7.9,7,7,7.9,7,9v10c0,1.1,0.9,2,2,2h2.7c0.1-0.7,0.2-1.4,0.6-2l0.1-0.1l0.1-0.1c0.4-0.4,1-0.7,1.6-0.9
	L14,14.4c0-0.7,0.2-1.5,0.8-2.2c0.7-1.1,2.2-1.6,3.2-1.6c1.2,0,2.3,0.5,3.1,1.4V9C21,7.9,20.1,7,19,7z"/>
</svg>
