<?xml version="1.0" encoding="utf-8"?>
<!-- Generator: Adobe Illustrator 19.1.0, SVG Export Plug-In . SVG Version: 6.00 Build 0)  -->
<svg version="1.1" id="Layer_1" xmlns="http://www.w3.org/2000/svg" xmlns:xlink="http://www.w3.org/1999/xlink" x="0px" y="0px"
	 viewBox="0 0 32 32" enable-background="new 0 0 32 32" xml:space="preserve">
<g id="Layer_1_8_">
	<g>
		<circle fill="#FFFFFF" cx="16" cy="16.248" r="15.973"/>
		<circle fill="#8CC53E" cx="16" cy="16.248" r="14.939"/>
	</g>
</g>
<g>
	<g>
		<g>
			<rect x="16" y="19.219" fill="#FFFFFF" width="4.242" height="1"/>
		</g>
		<g>
			<g>
				<rect x="16" y="14.219" fill="#FFFFFF" width="4.242" height="1"/>
			</g>
		</g>
	</g>
	<g>
		<path fill="#FFFFFF" d="M14.7,18.164c-0.169-0.17-0.462-0.168-0.627,0l-1.83,1.829l-0.652-0.653c-0.168-0.167-0.461-0.167-0.627,0
			c-0.084,0.084-0.131,0.196-0.131,0.314s0.047,0.229,0.131,0.313l1.28,1.281l2.455-2.457c0.084-0.084,0.131-0.195,0.131-0.313
			C14.83,18.358,14.784,18.247,14.7,18.164z"/>
	</g>
	<g>
		<path fill="#FFFFFF" d="M14.7,13.164c-0.169-0.17-0.462-0.168-0.627,0l-1.83,1.829l-0.652-0.653c-0.168-0.167-0.461-0.167-0.627,0
			c-0.084,0.084-0.131,0.196-0.131,0.314s0.047,0.229,0.131,0.313l1.28,1.281l2.455-2.457c0.084-0.084,0.131-0.195,0.131-0.313
			C14.83,13.358,14.784,13.247,14.7,13.164z"/>
	</g>
</g>
<path fill="#FFFFFF" d="M19.372,6.228h-8.43c-1.67,0-3.029,1.359-3.029,3.029v13.487c0,1.67,1.359,3.029,3.029,3.029h10.115
	c1.67,0,3.029-1.359,3.029-3.029V10.728L19.372,6.228z M23.087,22.743c0,1.119-0.91,2.029-2.029,2.029H10.942
	c-1.119,0-2.029-0.91-2.029-2.029V9.256c0-1.119,0.91-2.029,2.029-2.029h7.397v4.487h4.747V22.743z"/>
</svg>
