<?xml version="1.0" encoding="utf-8"?>
<!-- Generator: Adobe Illustrator 21.0.0, SVG Export Plug-In . SVG Version: 6.00 Build 0)  -->
<!DOCTYPE svg PUBLIC "-//W3C//DTD SVG 1.1//EN" "http://www.w3.org/Graphics/SVG/1.1/DTD/svg11.dtd">
<svg version="1.1" id="Layer_1" xmlns="http://www.w3.org/2000/svg" xmlns:xlink="http://www.w3.org/1999/xlink" x="0px" y="0px"
	 viewBox="0 0 36 36" style="enable-background:new 0 0 36 36;" xml:space="preserve">
<style type="text/css">
	.st0{fill:#0072AA;}
	.st1{fill:#FFFFFF;}
</style>
<circle class="st0" cx="18" cy="18" r="18"/>
<path class="st1" d="M27.5,26.5l-5.2-5.2c1.1-1.4,1.8-3.2,1.8-5.1c0-4.4-3.6-8-8-8c-2.1,0-4.1,0.8-5.6,2.3c-1.5,1.5-2.3,3.5-2.3,5.6
	c0,4.4,3.6,8,8,8c1.9,0,3.7-0.7,5.1-1.8l5.2,5.2c0.1,0.1,0.3,0.2,0.5,0.2s0.4-0.1,0.5-0.2C27.8,27.3,27.8,26.8,27.5,26.5z
	 M16.2,22.7c-3.6,0-6.5-2.9-6.5-6.5c0-1.7,0.7-3.4,1.9-4.6c1.2-1.2,2.9-1.9,4.6-1.9c3.6,0,6.5,2.9,6.5,6.5S19.8,22.7,16.2,22.7z"/>
</svg>
