<?xml version="1.0" encoding="utf-8"?>
<!-- Generator: Adobe Illustrator 19.1.0, SVG Export Plug-In . SVG Version: 6.00 Build 0)  -->
<svg version="1.1" id="Layer_1" xmlns="http://www.w3.org/2000/svg" xmlns:xlink="http://www.w3.org/1999/xlink" x="0px" y="0px"
	 viewBox="0 0 32 32" enable-background="new 0 0 32 32" xml:space="preserve">
<g id="Layer_1_10_">
	<g>
		<circle fill="#FFFFFF" cx="16" cy="16" r="15.973"/>
		<circle fill="#79308E" cx="16" cy="16" r="14.939"/>
	</g>
</g>
<g>
	<g>
		<path fill="#FFFFFF" d="M16,27.454C9.684,27.454,4.546,22.315,4.546,16C4.546,9.684,9.684,4.546,16,4.546
			c6.315,0,11.454,5.138,11.454,11.454C27.454,22.315,22.315,27.454,16,27.454z M16,5.546C10.235,5.546,5.546,10.235,5.546,16
			S10.235,26.454,16,26.454S26.454,21.765,26.454,16S21.765,5.546,16,5.546z"/>
	</g>
	<path fill="#FFFFFF" d="M11.05,11.067c0.071-0.249,0.146-0.492,0.226-0.728c0.377-1.097,0.858-2.058,1.441-2.83
		c-1.198,0.46-2.275,1.166-3.168,2.058c-0.892,0.893-1.597,1.969-2.058,3.168c0.39-0.294,0.828-0.562,1.306-0.804
		C9.471,11.59,10.228,11.3,11.05,11.067z"/>
	<path fill="#FFFFFF" d="M11.05,20.916c-0.249-0.071-0.492-0.146-0.729-0.227c-1.097-0.376-2.058-0.858-2.83-1.441
		c0.461,1.198,1.166,2.275,2.058,3.168c0.893,0.892,1.97,1.597,3.167,2.057c-0.294-0.389-0.562-0.827-0.804-1.306
		C11.572,22.495,11.283,21.738,11.05,20.916z"/>
	<path fill="#FFFFFF" d="M20.899,11.067c0.249,0.071,0.492,0.145,0.729,0.227c1.098,0.377,2.058,0.858,2.83,1.441
		c-0.46-1.198-1.165-2.276-2.058-3.168c-0.893-0.892-1.969-1.597-3.167-2.058c0.293,0.39,0.562,0.828,0.804,1.305
		C20.376,9.489,20.666,10.246,20.899,11.067z"/>
	<path fill="#FFFFFF" d="M20.899,20.917c-0.071,0.248-0.146,0.492-0.227,0.728c-0.377,1.097-0.858,2.058-1.441,2.83
		c1.198-0.461,2.275-1.165,3.168-2.058c0.893-0.893,1.598-1.97,2.058-3.168c-0.39,0.295-0.827,0.563-1.306,0.805
		C22.477,20.394,21.72,20.683,20.899,20.917z"/>
	<path fill="#FFFFFF" d="M19.432,10.725c0,0-1.451-4.586-4.108-3.705c0,0-1.749,0.544-2.808,3.705
		C12.516,10.725,15.168,10.03,19.432,10.725z"/>
	<path fill="#FFFFFF" d="M12.516,21.275c0,0,1.451,4.586,4.108,3.705c0,0,1.749-0.544,2.808-3.705
		C19.432,21.275,16.78,21.97,12.516,21.275z"/>
	<path fill="#FFFFFF" d="M21.301,12.559c0,0,0.873,2.961,0,6.916c0,0,4.586-1.451,3.705-4.108
		C25.006,15.367,24.462,13.619,21.301,12.559z"/>
	<path fill="#FFFFFF" d="M10.699,19.475c-1.022-3.711,0-6.916,0-6.916c-3.161,1.06-3.705,2.808-3.705,2.808
		C6.114,18.025,10.699,19.475,10.699,19.475z"/>
	<path fill="#FFFFFF" d="M19.83,19.849L19.83,19.849c0.052-0.23,0.097-0.457,0.138-0.682c0.007-0.039,0.015-0.078,0.022-0.117
		c0.671-3.838-0.158-6.913-0.158-6.913l-0.001,0.002c0-0.001,0-0.001,0-0.002c-0.239-0.054-0.475-0.101-0.708-0.143
		c-0.022-0.004-0.044-0.009-0.066-0.013c-3.766-0.665-6.802,0.117-6.932,0.152l-0.001-0.002c0,0.001,0,0.001,0,0.002
		c-0.002,0.001-0.005,0.001-0.005,0.001c-0.134,0.586-0.234,1.21-0.305,1.856c-0.006,0.058-0.012,0.115-0.018,0.172
		c-0.018,0.176-0.034,0.353-0.046,0.533c-0.012,0.169-0.022,0.335-0.029,0.499c-0.002,0.05-0.007,0.099-0.009,0.149l0.003,0.001
		c-0.016,0.457-0.015,0.891-0.001,1.296l-0.003,0.001c0.001,0.043,0.006,0.084,0.007,0.127c0.009,0.213,0.021,0.416,0.035,0.611
		c0.004,0.06,0.009,0.119,0.014,0.178c0.022,0.26,0.048,0.501,0.075,0.723c0.002,0.015,0.004,0.029,0.006,0.044
		c0.088,0.694,0.193,1.182,0.244,1.396c0.009,0.042,0.016,0.086,0.026,0.128c0.003,0.001,0.005,0.001,0.008,0.002
		c0.241,0.054,0.479,0.102,0.714,0.144c0.016,0.003,0.031,0.006,0.047,0.009c3.854,0.682,6.947-0.152,6.947-0.152l-0.003-0.002
		C19.829,19.849,19.83,19.849,19.83,19.849C19.83,19.849,19.83,19.849,19.83,19.849z"/>
</g>
</svg>
