<?xml version="1.0" encoding="utf-8"?>
<!-- Generator: Adobe Illustrator 19.1.0, SVG Export Plug-In . SVG Version: 6.00 Build 0)  -->
<svg version="1.1" id="Layer_1" xmlns="http://www.w3.org/2000/svg" xmlns:xlink="http://www.w3.org/1999/xlink" x="0px" y="0px"
	 viewBox="0 0 32 32" enable-background="new 0 0 32 32" xml:space="preserve">
<g id="Layer_1_4_">
	<g>
		<circle fill="#FFFFFF" cx="16" cy="16" r="15.973"/>
		<circle fill="#00A389" cx="16" cy="16" r="14.939"/>
	</g>
</g>
<g>
	<g>
		<g>
			<path fill="#FFFFFF" d="M24.531,23.593H7.469c-0.827,0-1.5-0.673-1.5-1.5V9.907c0-0.827,0.673-1.5,1.5-1.5h17.062
				c0.827,0,1.5,0.673,1.5,1.5v12.186C26.031,22.92,25.358,23.593,24.531,23.593z M7.469,9.407c-0.276,0-0.5,0.224-0.5,0.5v12.186
				c0,0.275,0.224,0.5,0.5,0.5h17.062c0.275,0,0.5-0.225,0.5-0.5V9.907c0-0.276-0.225-0.5-0.5-0.5H7.469z"/>
		</g>
		<g>
			<rect x="6.469" y="11.631" fill="#FFFFFF" width="19.062" height="1"/>
		</g>
	</g>
	<polygon fill="#FFFFFF" points="18.5,16.728 16.214,16.721 18.045,13.768 15.375,13.755 13.5,17.889 15.696,17.889 14.129,22.245 	
		"/>
</g>
</svg>
