<?xml version="1.0" encoding="utf-8"?>
<!-- Generator: Adobe Illustrator 19.1.0, SVG Export Plug-In . SVG Version: 6.00 Build 0)  -->
<svg version="1.1" id="Layer_1" xmlns="http://www.w3.org/2000/svg" xmlns:xlink="http://www.w3.org/1999/xlink" x="0px" y="0px"
	 viewBox="0 0 32 32" enable-background="new 0 0 32 32" xml:space="preserve">
<g id="Layer_1_7_">
	<g>
		<circle fill="#FFFFFF" cx="16" cy="16" r="15.973"/>
		<circle fill="#D86D00" cx="16" cy="16" r="14.939"/>
	</g>
</g>
<path fill="#FFFFFF" d="M26.031,9.907c0-0.827-0.673-1.5-1.5-1.5H7.469c-0.827,0-1.5,0.673-1.5,1.5v12.186
	c0,0.827,0.673,1.5,1.5,1.5h17.062c0.827,0,1.5-0.673,1.5-1.5 M7.469,9.407h17.062c0.275,0,0.5,0.224,0.5,0.5v1.725H6.969V9.907
	C6.969,9.631,7.193,9.407,7.469,9.407z M24.531,22.593H7.469c-0.276,0-0.5-0.225-0.5-0.5v-9.461h18.062v9.461
	C25.031,22.368,24.807,22.593,24.531,22.593z"/>
<g>
	<path fill="#FFFFFF" d="M16,20.322c-3.005,0-4.608-2.458-4.608-2.936s1.603-2.936,4.608-2.936s4.608,2.458,4.608,2.936
		S19.004,20.322,16,20.322z M16.009,15.515c-1.037,0-1.881,0.84-1.881,1.872s0.844,1.872,1.881,1.872
		c1.027,0,1.863-0.84,1.863-1.872S17.036,15.515,16.009,15.515z M16.009,18.549c-0.631,0-1.144-0.521-1.144-1.162
		c0-0.641,0.513-1.162,1.144-1.162c0.078,0,0.144,0.031,0.188,0.088c0.096,0.125,0.046,0.313-0.017,0.551
		c-0.031,0.118-0.096,0.362-0.064,0.42c0.004,0,0,0,0,0c0.084,0,0.244-0.031,0.371-0.063c0.14-0.035,0.272-0.068,0.378-0.068
		c0.2,0,0.27,0.126,0.27,0.233C17.135,18.028,16.63,18.549,16.009,18.549z"/>
</g>
</svg>
