<?xml version="1.0" encoding="utf-8"?>
<!-- Generator: Adobe Illustrator 19.2.1, SVG Export Plug-In . SVG Version: 6.00 Build 0)  -->
<svg version="1.1" xmlns="http://www.w3.org/2000/svg" xmlns:xlink="http://www.w3.org/1999/xlink" x="0px" y="0px"
	 viewBox="0 0 32 32" style="enable-background:new 0 0 32 32;" xml:space="preserve">
<style type="text/css">
	.st0{fill:#FFFFFF;}
	.st1{fill:#0072AB;}
	.st2{fill:#4D585C;}
	.st3{opacity:0.5;fill:#FFFFFF;}
</style>
<g id="Layer_2">
	<circle class="st0" cx="16" cy="16" r="16"/>
	<circle class="st1" cx="16" cy="16" r="14.9"/>
	<circle class="st0" cx="16" cy="16" r="16"/>
	<circle class="st2" cx="16" cy="16" r="14.9"/>
</g>
<g id="Layer_3">
	<path class="st3" d="M21.5,12c0.3,0,0.5-0.2,0.5-0.5v-4C22,7.2,21.8,7,21.5,7h-4C17.2,7,17,7.2,17,7.5v4c0,0.3,0.2,0.5,0.5,0.5
		H21.5z"/>
	<path class="st3" d="M11.5,18.5c0.3,0,0.5-0.2,0.5-0.5v-4c0-0.3-0.2-0.5-0.5-0.5h-4C7.2,13.5,7,13.7,7,14v4c0,0.3,0.2,0.5,0.5,0.5
		H11.5z"/>
	<path class="st3" d="M17,20.5v4c0,0.3,0.2,0.5,0.5,0.5h4c0.3,0,0.5-0.2,0.5-0.5v-4c0-0.3-0.2-0.5-0.5-0.5h-4
		C17.2,20,17,20.2,17,20.5z"/>
	<path class="st0" d="M17.5,13h4c0.8,0,1.5-0.7,1.5-1.5v-4C23,6.7,22.3,6,21.5,6h-4C16.7,6,16,6.7,16,7.5V9h-5.5C9.7,9,9,9.7,9,10.5
		v2H7.5C6.7,12.5,6,13.2,6,14v4c0,0.8,0.7,1.5,1.5,1.5H9v2c0,0.8,0.7,1.5,1.5,1.5H16v1.5c0,0.8,0.7,1.5,1.5,1.5h4
		c0.8,0,1.5-0.7,1.5-1.5v-4c0-0.8-0.7-1.5-1.5-1.5h-4c-0.8,0-1.5,0.7-1.5,1.5V22h-5.5c-0.3,0-0.5-0.2-0.5-0.5v0v-2h1.5
		c0.8,0,1.5-0.7,1.5-1.5v-4c0-0.8-0.7-1.5-1.5-1.5H10v-2v0c0-0.3,0.2-0.5,0.5-0.5H16v1.5C16,12.3,16.7,13,17.5,13z M17,7.5
		C17,7.2,17.2,7,17.5,7h4C21.8,7,22,7.2,22,7.5v4c0,0.3-0.2,0.5-0.5,0.5h-4c-0.3,0-0.5-0.2-0.5-0.5V7.5z M17,20.5
		c0-0.3,0.2-0.5,0.5-0.5h4c0.3,0,0.5,0.2,0.5,0.5v4c0,0.3-0.2,0.5-0.5,0.5h-4c-0.3,0-0.5-0.2-0.5-0.5V20.5z M12,14v4
		c0,0.3-0.2,0.5-0.5,0.5h-4C7.2,18.5,7,18.3,7,18v-4c0-0.3,0.2-0.5,0.5-0.5h4C11.8,13.5,12,13.7,12,14z"/>
</g>
</svg>
