<?xml version="1.0" encoding="UTF-8" standalone="no"?>
<!-- Generator: Adobe Illustrator 19.1.0, SVG Export Plug-In . SVG Version: 6.00 Build 0)  -->

<svg
   xmlns:dc="http://purl.org/dc/elements/1.1/"
   xmlns:cc="http://creativecommons.org/ns#"
   xmlns:rdf="http://www.w3.org/1999/02/22-rdf-syntax-ns#"
   xmlns:svg="http://www.w3.org/2000/svg"
   xmlns="http://www.w3.org/2000/svg"
   xmlns:sodipodi="http://sodipodi.sourceforge.net/DTD/sodipodi-0.dtd"
   xmlns:inkscape="http://www.inkscape.org/namespaces/inkscape"
   version="1.1"
   id="Layer_1"
   x="0px"
   y="0px"
   viewBox="0 0 32 32"
   enable-background="new 0 0 32 32"
   xml:space="preserve"
   inkscape:version="0.91 r13725"
   sodipodi:docname="title_tasks_or.svg"><metadata
     id="metadata38"><rdf:RDF><cc:Work
         rdf:about=""><dc:format>image/svg+xml</dc:format><dc:type
           rdf:resource="http://purl.org/dc/dcmitype/StillImage" /><dc:title></dc:title></cc:Work></rdf:RDF></metadata><defs
     id="defs36" /><sodipodi:namedview
     pagecolor="#ffffff"
     bordercolor="#666666"
     borderopacity="1"
     objecttolerance="10"
     gridtolerance="10"
     guidetolerance="10"
     inkscape:pageopacity="0"
     inkscape:pageshadow="2"
     inkscape:window-width="2560"
     inkscape:window-height="1018"
     id="namedview34"
     showgrid="false"
     inkscape:zoom="7.375"
     inkscape:cx="-4"
     inkscape:cy="16"
     inkscape:window-x="1592"
     inkscape:window-y="-8"
     inkscape:window-maximized="1"
     inkscape:current-layer="Layer_1" /><g
     id="Layer_1_8_"><g
       id="g4"><circle
         fill="#FFFFFF"
         cx="16"
         cy="16.248"
         r="15.973"
         id="circle6" /><circle
         fill="#8CC53E"
         cx="16"
         cy="16.248"
         r="14.939"
         id="circle8" /></g></g><g
     id="g10"><g
       id="g12"><g
         id="g14"><rect
           x="16"
           y="19.219"
           fill="#FFFFFF"
           width="4.242"
           height="1"
           id="rect16" /></g><g
         id="g18"><g
           id="g20"><rect
             x="16"
             y="14.219"
             fill="#FFFFFF"
             width="4.242"
             height="1"
             id="rect22" /></g></g></g><g
       id="g24"><path
         fill="#FFFFFF"
         d="M14.7,18.164c-0.169-0.17-0.462-0.168-0.627,0l-1.83,1.829l-0.652-0.653c-0.168-0.167-0.461-0.167-0.627,0    c-0.084,0.084-0.131,0.196-0.131,0.314s0.047,0.229,0.131,0.313l1.28,1.281l2.455-2.457c0.084-0.084,0.131-0.195,0.131-0.313    C14.83,18.358,14.784,18.247,14.7,18.164z"
         id="path26" /></g><g
       id="g28"><path
         fill="#FFFFFF"
         d="M14.7,13.164c-0.169-0.17-0.462-0.168-0.627,0l-1.83,1.829l-0.652-0.653c-0.168-0.167-0.461-0.167-0.627,0    c-0.084,0.084-0.131,0.196-0.131,0.314s0.047,0.229,0.131,0.313l1.28,1.281l2.455-2.457c0.084-0.084,0.131-0.195,0.131-0.313    C14.83,13.358,14.784,13.247,14.7,13.164z"
         id="path30" /></g></g><path
     fill="#FFFFFF"
     d="M19.372,6.228h-8.43c-1.67,0-3.029,1.359-3.029,3.029v13.487c0,1.67,1.359,3.029,3.029,3.029h10.115  c1.67,0,3.029-1.359,3.029-3.029V10.728L19.372,6.228z M23.087,22.743c0,1.119-0.91,2.029-2.029,2.029H10.942  c-1.119,0-2.029-0.91-2.029-2.029V9.256c0-1.119,0.91-2.029,2.029-2.029h7.397v4.487h4.747V22.743z"
     id="path32" /><path
     style="fill:#dd8100;fill-opacity:1"
     d="M 13.749153,30.989666 C 11.525639,30.64224 8.8782533,29.519963 7.072565,28.159337 2.1991985,24.487144 0.06969428,18.318915 1.6154672,12.352542 1.9797293,10.946564 3.1583064,8.5380968 4.0683359,7.3400121 9.6315078,0.01590704 20.185363,-0.68650034 26.64061,5.8377238 c 1.811107,1.8304575 3.10358,4.1460144 3.820002,6.8437982 0.294307,1.108252 0.346579,1.605567 0.357351,3.399834 0.0075,1.254333 -0.05787,2.429706 -0.162215,2.915254 -0.695625,3.236986 -2.146323,5.878983 -4.407485,8.026865 -1.850911,1.758185 -4.109104,3.015351 -6.563199,3.65382 -1.489745,0.387578 -4.455684,0.543658 -5.935911,0.312371 z m 8.237563,-5.339056 c 0.81128,-0.289517 1.460264,-0.870929 1.809601,-1.621182 l 0.323067,-0.693835 0.0014,-6.311133 0.0013,-6.311133 -2.369881,-2.2651381 -2.36988,-2.2651381 -4.511476,0.00298 c -4.247705,0.0028 -4.54715,0.019151 -5.1216445,0.2796025 C 8.9900998,6.8097529 8.5855829,7.1810685 8.2105332,7.8779661 7.9216748,8.4147073 7.9186441,8.4991826 7.9186441,16.013559 l 0,7.593221 0.3803764,0.647103 c 0.4092116,0.696159 1.1770172,1.288597 1.8888565,1.457438 0.243447,0.05774 2.883309,0.108556 5.86636,0.112916 4.203834,0.0061 5.538156,-0.03291 5.932479,-0.173627 z"
     id="path3366"
     inkscape:connector-curvature="0" /><path
     style="fill:#dd8100;fill-opacity:1"
     d="M 10.337698,24.595658 C 9.7080002,24.367223 9.4612682,24.1676 9.2113984,23.684405 9.0495475,23.371421 9.0169492,22.076757 9.0169492,15.961721 c 0,-7.1291519 0.00809,-7.3597544 0.2733237,-7.788908 C 9.8070775,7.3366056 10.047648,7.2949153 14.356116,7.2949153 l 3.874454,0 0.03726,2.2033898 0.03726,2.2033899 2.338983,0.0371 2.338983,0.0371 -5.43e-4,5.793409 c -5.42e-4,5.506821 -0.0136,5.814882 -0.26519,6.227503 -0.559435,0.917505 -0.565632,0.918412 -6.513963,0.952807 -4.244876,0.02455 -5.461679,-0.0074 -5.865692,-0.153956 l 3.5e-5,0 z m 3.275692,-4.615984 c 1.267385,-1.292374 1.411929,-1.585736 0.930645,-1.888822 -0.198368,-0.124922 -0.396271,0.01119 -1.251605,0.860814 l -1.015979,1.009199 -0.382933,-0.366873 c -0.463334,-0.443903 -0.924366,-0.479112 -1.050956,-0.08026 -0.0717,0.225912 0.06179,0.441285 0.630298,1.016949 0.396697,0.401686 0.757873,0.730338 0.802614,0.730338 0.04474,0 0.646803,-0.576605 1.337916,-1.281343 z m 6.657796,-0.210182 0,-0.542373 -2.169491,0 -2.169492,0 0,0.451977 c 0,0.248588 0.04068,0.492655 0.0904,0.542373 0.04972,0.04972 1.025989,0.0904 2.169491,0.0904 l 2.079096,0 0,-0.542372 z M 13.61339,14.962725 c 1.267385,-1.292374 1.411929,-1.585736 0.930645,-1.888822 -0.198368,-0.124922 -0.396271,0.01119 -1.251605,0.860814 l -1.015979,1.009199 -0.396006,-0.379397 c -0.426375,-0.408494 -0.780201,-0.426494 -1.016225,-0.0517 -0.123149,0.195553 -0.02425,0.360059 0.591004,0.983051 0.406396,0.411508 0.775509,0.748196 0.82025,0.748196 0.04474,0 0.646803,-0.576605 1.337916,-1.281343 z m 6.657796,-0.210183 0,-0.542373 -2.169491,0 -2.169492,0 0,0.542373 0,0.542373 2.169492,0 2.169491,0 0,-0.542373 z"
     id="path4168"
     inkscape:connector-curvature="0" /></svg>