<?xml version="1.0" encoding="utf-8"?>
<!-- Generator: Adobe Illustrator 19.2.1, SVG Export Plug-In . SVG Version: 6.00 Build 0)  -->
<svg version="1.1" id="Layer_1" xmlns="http://www.w3.org/2000/svg" xmlns:xlink="http://www.w3.org/1999/xlink" x="0px" y="0px"
	 viewBox="0 0 36 36" style="enable-background:new 0 0 36 36;" xml:space="preserve">
<style type="text/css">
	.st0{fill:#00A389;}
	.st1{fill:#FFFFFF;}
</style>
<g>
	<g>
		<g>
			<circle class="st0" cx="18" cy="18" r="18"/>
		</g>
	</g>
	<g>
		<g>
			<path class="st1" d="M27.6,9.1c-0.1-0.4-0.4-0.8-0.9-0.8h-0.5h-2c-0.4,0-0.7,0.3-0.7,0.7v0c0,0.4,0.3,0.7,0.7,0.7h1.6
				c0.2,0,0.4,0.2,0.4,0.4l0.7,8.2c0,0.3-0.2,0.5-0.4,0.5H10.2c-0.3,0-0.5-0.2-0.4-0.5l0.7-8.2c0-0.2,0.2-0.4,0.4-0.4h2
				c0.4,0,0.7-0.3,0.7-0.7v0c0-0.4-0.3-0.7-0.7-0.7H9.6c-0.2,0-0.4,0.2-0.4,0.4l-1.3,9.9v7.1c0,0.5,0.4,0.9,0.9,0.9h19.1
				c0.5,0,0.9-0.4,0.9-0.9v-7L27.6,9.1z"/>
		</g>
	</g>
	<path class="st1" d="M22.3,11.1c-0.3-0.3-0.7-0.3-0.9,0l-2.1,2.2V6.5c0-0.4-0.5-0.7-0.9-0.7c-0.4,0-0.9,0.3-0.9,0.7v6.8l-2.1-2.2
		c-0.3-0.3-0.7-0.3-0.9,0c-0.3,0.3-0.3,0.7,0,1l3.9,4l3.9-4C22.6,11.8,22.6,11.4,22.3,11.1"/>
</g>
</svg>
