<?xml version="1.0" encoding="utf-8"?>
<!-- Generator: Adobe Illustrator 19.2.1, SVG Export Plug-In . SVG Version: 6.00 Build 0)  -->
<svg version="1.1" xmlns="http://www.w3.org/2000/svg" xmlns:xlink="http://www.w3.org/1999/xlink" x="0px" y="0px"
	 viewBox="0 0 32 32" style="enable-background:new 0 0 32 32;" xml:space="preserve">
<style type="text/css">
	.st0{fill:#745997;}
	.st1{fill:#FFFFFF;}
	.st2{fill:#BEAAD0;}
</style>
<g id="Layer_3">
	<g>
		<circle class="st0" cx="16" cy="16" r="15.5"/>
		<path class="st1" d="M16,32C7.2,32,0,24.8,0,16S7.2,0,16,0s16,7.2,16,16S24.8,32,16,32z M16,1C7.7,1,1,7.7,1,16s6.7,15,15,15
			s15-6.7,15-15S24.3,1,16,1z"/>
	</g>
</g>
<g id="Layer_2">
	<path class="st2" d="M12.2,21h-1H11h-1v-1h2c0-0.1,0.1-0.2,0.1-0.4c0.2-0.8,0.8-1.4,1.7-1.8c0.2-0.1,0.5-0.2,0.7-0.3
		c0-0.2-0.1-0.4-0.2-0.8c-0.1-0.4-0.4-0.7-0.9-1c-0.4-0.2-0.9-0.3-1.3-0.4c-0.4-0.1-0.7-0.1-0.9-0.2c-0.1-0.1-0.2-0.1-0.3-0.3
		c-0.1-0.1-0.1-0.1-0.1-0.2c0.2-0.2,0.4-0.4,0.5-0.6c0.2-0.3,0.4-0.7,0.5-1.2c0.1,0,0.2-0.1,0.3-0.2c0.1-0.1,0.2-0.3,0.2-0.5
		c0-0.3,0-0.5-0.1-0.7c0,0,0-0.1,0-0.1c0-0.2,0.1-0.5,0-0.8c0-0.5-0.1-0.9-0.1-0.9c-0.1-0.4-0.4-0.9-0.9-1.2C10.7,8.3,10.1,8,9.3,8
		C8.4,8,7.8,8.3,7.5,8.6C7,8.9,6.7,9.3,6.6,9.7c0,0-0.1,0.4-0.1,0.9c0,0.3,0,0.6,0,0.8c0,0,0,0.1,0,0.1c-0.1,0.2-0.1,0.4-0.1,0.7
		c0,0.2,0.1,0.4,0.2,0.5c0.1,0.1,0.2,0.2,0.3,0.2c0.1,0.5,0.2,0.8,0.5,1.2c0.2,0.2,0.3,0.4,0.5,0.6c0,0.1-0.1,0.1-0.1,0.2
		c-0.1,0.1-0.2,0.2-0.3,0.3c-0.2,0.1-0.6,0.2-0.9,0.2c-0.4,0.1-0.9,0.2-1.3,0.4c-0.5,0.2-0.8,0.5-0.9,1c-0.2,0.6-0.2,0.9-0.2,1.4
		c0,0.1,0,0.2,0,0.2v0.5c0,0,0,0,0,0C4,19.5,4.5,20,5.1,20H8v1v1c0,0.6,0.4,1,1,1h1h1h0.3h1.1H18v-2H12.2z"/>
	<path class="st1" d="M26,21.6c0-0.4-0.1-0.7-0.1-1c0-0.2-0.1-0.4-0.2-0.7c-0.2-0.5-0.5-0.9-1.1-1.2c-0.5-0.2-1.1-0.4-1.7-0.5
		c-0.5-0.1-0.9-0.2-1.2-0.3c-0.2-0.1-0.3-0.2-0.4-0.3c-0.1-0.1-0.1-0.2-0.2-0.3c0.3-0.2,0.5-0.5,0.7-0.8c0.3-0.4,0.5-0.9,0.6-1.5
		c0.1,0,0.2-0.1,0.3-0.3c0.1-0.2,0.2-0.4,0.2-0.6c0.1-0.3,0-0.7-0.1-0.9c0,0,0-0.1,0-0.1c0.1-0.3,0.1-0.6,0.1-1
		c0-0.6-0.2-1.1-0.2-1.2c-0.1-0.5-0.5-1.1-1.1-1.5c-0.5-0.3-1.2-0.7-2.3-0.7c-1.1,0-1.8,0.4-2.3,0.7c-0.6,0.4-1,0.9-1.1,1.5
		c0,0-0.1,0.5-0.2,1.2c0,0.4,0,0.7,0.1,1c0,0,0,0.1,0,0.1c-0.1,0.2-0.2,0.5-0.1,0.9c0,0.2,0.1,0.4,0.2,0.6c0.1,0.1,0.2,0.2,0.4,0.3
		c0.1,0.6,0.3,1.1,0.6,1.5c0.2,0.3,0.4,0.6,0.7,0.8c-0.1,0.1-0.1,0.2-0.2,0.3c-0.1,0.1-0.3,0.2-0.4,0.3c-0.3,0.1-0.7,0.2-1.2,0.3
		c-0.5,0.1-1.2,0.2-1.7,0.5c-0.6,0.3-1,0.7-1.1,1.2c-0.2,0.7-0.2,1-0.3,1.6c0,0,0,0.1,0,0.1c0,0.1,0,0.2,0,0.3v0.7c0,0,0,0,0,0
		c0,0.2,0,0.4,0.1,0.5c0.2,0.5,0.7,0.8,1.3,0.8h5.2h5.3c0.8,0,1.4-0.6,1.4-1.4v-0.5v-0.2C26,21.8,26,21.7,26,21.6z"/>
</g>
</svg>
