<?xml version="1.0" encoding="utf-8"?>
<!-- Generator: Adobe Illustrator 19.1.0, SVG Export Plug-In . SVG Version: 6.00 Build 0)  -->
<svg version="1.1" id="Layer_1" xmlns="http://www.w3.org/2000/svg" xmlns:xlink="http://www.w3.org/1999/xlink" x="0px" y="0px"
	 viewBox="0 0 32 32" enable-background="new 0 0 32 32" xml:space="preserve">
<g id="Layer_1_12_">
	<g>
		<circle fill="#FFFFFF" cx="16" cy="16" r="15.973"/>
		<circle fill="#00A389" cx="16" cy="16" r="14.939"/>
	</g>
</g>
<path fill="#FFFFFF" d="M23.94,24.94H8.06c-0.55,0-1-0.45-1-1V8.06c0-0.55,0.45-1,1-1h15.88c0.55,0,1,0.45,1,1v15.88
	C24.94,24.49,24.49,24.94,23.94,24.94z"/>
<g>
	<path fill="#00A389" d="M22.887,15.726l-5.481-5.481c-0.151-0.151-0.397-0.151-0.548,0v3.222H9.466C9.21,13.466,9,13.676,9,13.932
		v4.136c0,0.256,0.21,0.466,0.466,0.466h7.392v3.222c0.151,0.151,0.397,0.151,0.548,0l5.481-5.481
		C23.038,16.123,23.038,15.877,22.887,15.726z"/>
</g>
</svg>
