<?xml version="1.0" encoding="utf-8"?>
<!-- Generator: Adobe Illustrator 19.2.1, SVG Export Plug-In . SVG Version: 6.00 Build 0)  -->
<svg version="1.1" id="Layer_1" xmlns="http://www.w3.org/2000/svg" xmlns:xlink="http://www.w3.org/1999/xlink" x="0px" y="0px"
	 viewBox="0 0 32 32" enable-background="new 0 0 32 32" xml:space="preserve">
<g id="Layer_1_1_" display="none">
	<g id="Layer_1_11_" display="inline">
		<g>
			<circle fill="#FFFFFF" cx="16" cy="16" r="15.973"/>
			<circle fill="#188FE0" cx="16" cy="16" r="14.939"/>
		</g>
	</g>
	<path display="inline" fill="#FFFFFF" d="M19.372,6.228h-8.43c-1.67,0-3.029,1.359-3.029,3.029v13.487
		c0,1.67,1.359,3.029,3.029,3.029h10.115c1.67,0,3.029-1.359,3.029-3.029V10.728L19.372,6.228z M19.34,7.601l3.281,3.114H19.34
		V7.601z M21.058,24.772H10.942c-1.119,0-2.029-0.91-2.029-2.029V9.256c0-1.119,0.91-2.029,2.029-2.029h7.397v4.487h4.747v11.028
		C23.087,23.862,22.177,24.772,21.058,24.772z"/>
	<polygon display="inline" fill="#FFFFFF" points="18.97,7.228 18.97,10.921 23.638,10.921 19.34,6.843 	"/>
	<g display="inline">
		<path fill="#FFFFFF" d="M13.699,14.162l-1.106-2.38h1.036c0.074,0,0.128,0.01,0.159,0.03c0.031,0.02,0.058,0.053,0.079,0.1
			l0.672,1.61c0.012-0.023,0.024-0.045,0.038-0.066c0.015-0.021,0.029-0.044,0.046-0.07l0.896-1.456
			c0.033-0.054,0.068-0.091,0.107-0.114c0.038-0.022,0.084-0.033,0.138-0.033h1.197l-1.697,2.324l1.229,2.775H15.47
			c-0.074,0-0.133-0.019-0.175-0.056s-0.072-0.079-0.091-0.126l-0.753-1.873c-0.009,0.017-0.02,0.032-0.029,0.046
			c-0.011,0.014-0.021,0.028-0.03,0.042L13.265,16.7c-0.044,0.067-0.096,0.115-0.153,0.142c-0.059,0.027-0.122,0.04-0.189,0.04
			h-1.141L13.699,14.162z"/>
	</g>
	<g display="inline">
		<rect x="11.781" y="21.18" fill="#FFFFFF" width="8.438" height="1"/>
		<polygon fill="#FFFFFF" points="11.781,18.382 11.781,19.382 16.684,19.382 16.684,19.382 16.684,18.382 		"/>
	</g>
	<g display="inline">
		<g>
			<path fill="#FFFFFF" stroke="#FFFFFF" stroke-width="0.1" stroke-miterlimit="10" d="M44.622,16.444
				c0,0.225,0.181,0.407,0.404,0.407c0.222,0,0.402-0.182,0.402-0.407c0-0.224-0.181-0.407-0.402-0.407
				C44.803,16.037,44.622,16.219,44.622,16.444z"/>
			<path fill="#FFFFFF" stroke="#FFFFFF" stroke-width="0.1" stroke-miterlimit="10" d="M46.395,18.216
				c0,0.224,0.181,0.407,0.403,0.407s0.404-0.183,0.404-0.407c0-0.225-0.182-0.408-0.404-0.408S46.395,17.991,46.395,18.216z"/>
			
				<ellipse fill="#FFFFFF" stroke="#FFFFFF" stroke-width="0.1" stroke-miterlimit="10" cx="47.463" cy="20.646" rx="0.436" ry="0.441"/>
			
				<ellipse fill="#FFFFFF" stroke="#FFFFFF" stroke-width="0.1" stroke-miterlimit="10" cx="46.798" cy="23.082" rx="0.52" ry="0.526"/>
			<path fill="#FFFFFF" stroke="#FFFFFF" stroke-width="0.1" stroke-miterlimit="10" d="M44.505,24.875
				c0,0.29,0.233,0.526,0.52,0.526s0.519-0.236,0.519-0.526s-0.233-0.526-0.519-0.526C44.738,24.35,44.505,24.586,44.505,24.875z"/>
			<path fill="#FFFFFF" stroke="#FFFFFF" stroke-width="0.1" stroke-miterlimit="10" d="M42.044,25.566
				c0,0.322,0.259,0.583,0.578,0.583c0.318,0,0.577-0.262,0.577-0.583c0-0.322-0.259-0.583-0.577-0.583
				C42.302,24.983,42.044,25.243,42.044,25.566z"/>
			
				<ellipse fill="#FFFFFF" stroke="#FFFFFF" stroke-width="0.1" stroke-miterlimit="10" cx="40.21" cy="24.875" rx="0.577" ry="0.584"/>
			<path fill="#FFFFFF" stroke="#FFFFFF" stroke-width="0.1" stroke-miterlimit="10" d="M37.759,23.082
				c0,0.367,0.295,0.665,0.658,0.665c0.364,0,0.658-0.298,0.658-0.665c0-0.366-0.295-0.664-0.658-0.664
				C38.054,22.418,37.759,22.716,37.759,23.082z"/>
			<path fill="#FFFFFF" stroke="#FFFFFF" stroke-width="0.1" stroke-miterlimit="10" d="M37.101,20.646
				c0,0.367,0.295,0.664,0.658,0.664c0.364,0,0.658-0.298,0.658-0.664c0-0.368-0.294-0.664-0.658-0.664
				C37.396,19.982,37.101,20.278,37.101,20.646z"/>
			<path fill="#FFFFFF" stroke="#FFFFFF" stroke-width="0.1" stroke-miterlimit="10" d="M37.658,18.216
				c0,0.423,0.339,0.766,0.758,0.766s0.759-0.343,0.759-0.766c0-0.424-0.34-0.767-0.759-0.767S37.658,17.793,37.658,18.216z"/>
			<path fill="#FFFFFF" stroke="#FFFFFF" stroke-width="0.1" stroke-miterlimit="10" d="M39.451,16.444
				c0,0.424,0.339,0.767,0.758,0.767s0.759-0.343,0.759-0.767c0-0.422-0.341-0.766-0.759-0.766S39.451,16.022,39.451,16.444z"/>
			<path fill="#FFFFFF" stroke="#FFFFFF" stroke-width="0.1" stroke-miterlimit="10" d="M41.795,15.773
				c0,0.46,0.37,0.834,0.826,0.834c0.455,0,0.825-0.373,0.825-0.834s-0.37-0.834-0.825-0.834
				C42.165,14.939,41.795,15.312,41.795,15.773z"/>
		</g>
	</g>
	<g display="inline">
		<g>
			<path fill="#FFFFFF" d="M46.253,7.667h-9.382c-1.859,0-3.371,1.513-3.371,3.371v15.011c0,1.859,1.513,3.371,3.371,3.371h11.258
				c1.859,0,3.371-1.513,3.371-3.371V12.675L46.253,7.667z M50.388,26.048c0,1.245-1.013,2.258-2.258,2.258H36.871
				c-1.245,0-2.258-1.013-2.258-2.258V11.037c0-1.245,1.013-2.258,2.258-2.258h8.233v4.994h5.283v12.275
				C50.387,26.048,50.388,26.048,50.388,26.048z"/>
		</g>
	</g>
</g>
<g id="equipment_x5F_tag" display="none">
	<g id="Layer_2_1_" display="inline">
		<g id="Layer_1_2_">
			<g>
				<circle fill="#FFFFFF" cx="16" cy="16" r="15.973"/>
				<circle fill="#188FE0" cx="16" cy="16" r="14.939"/>
			</g>
		</g>
		<g>
			<g>
				<g>
					<path fill="#FFFFFF" d="M15.336,7.583L6.12,16.799c-0.835,0.835-0.835,2.188,0,3.022l6.06,6.059
						c0.835,0.835,2.188,0.835,3.022,0l9.215-9.215c0.402-0.401,0.627-0.674,0.627-1.237v-4.919c0-0.567-0.225-1.11-0.626-1.511
						l-1.415-1.415c-0.401-0.4-0.945-0.626-1.512-0.626h-4.645C16.28,6.956,15.736,7.182,15.336,7.583z M22.727,10.277
						c0.169,0.897-0.6,1.667-1.496,1.501c-0.499-0.092-0.908-0.498-1.006-0.997c-0.176-0.902,0.601-1.681,1.503-1.508
						C22.225,9.369,22.633,9.778,22.727,10.277z"/>
				</g>
			</g>
			<path fill="#188FE0" d="M18.034,18.574l-4.608-4.608c-0.253-0.253-0.668-0.253-0.921,0l0,0c-0.253,0.253-0.253,0.668,0,0.921
				l4.608,4.608c0.253,0.253,0.668,0.253,0.921,0l0,0C18.288,19.242,18.288,18.827,18.034,18.574z"/>
			<path fill="#188FE0" d="M16.191,20.417l-4.608-4.608c-0.253-0.253-0.668-0.253-0.921,0l0,0c-0.253,0.253-0.253,0.668,0,0.921
				l4.607,4.608c0.253,0.253,0.668,0.253,0.921,0l0,0C16.445,21.085,16.445,20.671,16.191,20.417z"/>
			<path fill="#188FE0" d="M14.348,22.26L9.74,17.652c-0.253-0.253-0.668-0.253-0.921,0l0,0c-0.253,0.253-0.253,0.668,0,0.921
				l4.608,4.608c0.253,0.253,0.668,0.253,0.921,0l0,0C14.601,22.928,14.601,22.513,14.348,22.26z"/>
		</g>
	</g>
</g>
<g id="my_work_space_HS" display="none">
	<g id="Layer_1_3_" display="inline">
		<g>
			<circle fill="#FFFFFF" cx="16" cy="16" r="15.973"/>
			<circle fill="#00A4D8" cx="16" cy="16" r="14.939"/>
		</g>
	</g>
	<g display="inline" opacity="0.2">
		<g>
			<path d="M23.758,13.26h-4.18v3.693c0,1.296-1.054,2.35-2.35,2.35h-3.693v4.18c0,1.1,0.9,2,2,2h8.224c1.1,0,2-0.9,2-2V15.26
				C25.758,14.16,24.858,13.26,23.758,13.26z"/>
			<g>
				<path d="M13.184,15.26c0-1.296,1.054-2.35,2.35-2.35h3.344V8.73c0-0.91-0.741-1.65-1.651-1.65H9.003
					c-0.91,0-1.65,0.74-1.65,1.65v8.224c0,0.91,0.74,1.651,1.65,1.651h4.181V15.26z"/>
				<path d="M18.878,16.953V13.61h-3.344c-0.91,0-1.65,0.74-1.65,1.65v3.344h3.343C18.137,18.604,18.878,17.863,18.878,16.953z"/>
			</g>
		</g>
	</g>
	<g display="inline">
		<path fill="#FFFFFF" d="M23.202,12.697h-4.18v3.693c0,1.296-1.054,2.35-2.35,2.35h-3.693v4.18c0,1.1,0.9,2,2,2h8.224
			c1.1,0,2-0.9,2-2v-8.224C25.202,13.597,24.302,12.697,23.202,12.697z"/>
		<g>
			<path fill="#FFFFFF" d="M12.629,14.697c0-1.296,1.054-2.35,2.35-2.35h3.344V8.166c0-0.91-0.741-1.65-1.651-1.65H8.448
				c-0.91,0-1.65,0.74-1.65,1.65v8.224c0,0.91,0.74,1.651,1.65,1.651h4.181V14.697z"/>
			<path fill="#FFFFFF" d="M18.322,16.39v-3.343h-3.344c-0.91,0-1.65,0.74-1.65,1.65v3.344h3.343
				C17.581,18.041,18.322,17.3,18.322,16.39z"/>
		</g>
	</g>
</g>
<g id="overdue_items_HS" display="none">
	<g id="Layer_1_8_" display="inline">
		<g>
			<circle fill="#FFFFFF" cx="16" cy="16" r="15.973"/>
			<circle fill="#EA5E5E" cx="16" cy="16" r="14.939"/>
		</g>
	</g>
	<g display="inline">
		<g>
			<path fill="#FFFFFF" d="M18.93,8.131h-6.44c-1.276,0-2.314,1.038-2.314,2.314v10.302c0,1.276,1.038,2.314,2.314,2.314h7.727
				c1.276,0,2.314-1.038,2.314-2.314v-9.179L18.93,8.131z M21.767,20.747c0,0.855-0.695,1.55-1.55,1.55H12.49
				c-0.855,0-1.55-0.695-1.55-1.55V10.444c0-0.855,0.695-1.55,1.55-1.55h5.65v3.428h3.626L21.767,20.747L21.767,20.747z"/>
			<g>
				<path fill="#FFFFFF" d="M21.805,5.756h-6.44c-1.276,0-2.314,1.038-2.314,2.314v0.428h0.764V8.069c0-0.855,0.695-1.55,1.55-1.55
					h5.65v3.427h3.626v8.425h0.001c0,0.855-0.695,1.55-1.55,1.55h-1.044v0.765h1.043c1.276,0,2.314-1.038,2.314-2.314V9.194
					L21.805,5.756z"/>
			</g>
		</g>
	</g>
	<g display="inline">
		<g>
			<g>
				<circle fill="#EA5E5E" stroke="#FFFFFF" stroke-miterlimit="10" cx="10.612" cy="20.898" r="4.253"/>
			</g>
		</g>
		<polyline fill="none" stroke="#FFFFFF" stroke-width="0.8" stroke-linecap="round" stroke-miterlimit="10" points="10.71,18.375 
			10.71,21.087 12.382,21.721 		"/>
	</g>
</g>
<g id="bulk_load-HS">
	<g id="fave_icon_-_selected">
	</g>
	<g id="Layer_1_4_">
		<g>
			<circle fill="#FFFFFF" cx="16" cy="16" r="15.973"/>
			<circle fill="#EA5E5E" cx="16" cy="16" r="14.939"/>
			<g opacity="0.2">
				<g>
					<g>
						<path d="M19.397,9.301h-6.872c-1.361,0-2.469,1.108-2.469,2.469v10.994c0,1.361,1.108,2.469,2.469,2.469h8.245
							c1.361,0,2.469-1.108,2.469-2.469v-9.795L19.397,9.301z M22.426,22.763c0,0.912-0.742,1.654-1.654,1.654h-8.246
							c-0.912,0-1.654-0.742-1.654-1.654V11.769c0-0.912,0.742-1.654,1.654-1.654h6.03v3.658h3.869L22.426,22.763L22.426,22.763z"/>
						<g>
							<path d="M22.465,6.767h-6.872c-1.361,0-2.469,1.108-2.469,2.469v0.457h0.815V9.235c0-0.912,0.742-1.654,1.654-1.654h6.03
								v3.657h3.869v8.99h0.001c0,0.912-0.742,1.654-1.654,1.654h-1.114v0.816h1.113c1.361,0,2.469-1.108,2.469-2.469v-9.795
								L22.465,6.767z"/>
						</g>
					</g>
				</g>
			</g>
		</g>
	</g>
	<g>
		<g opacity="0.3">
			<g>
				<g>
					<path d="M19.019,22.197H5.293c-0.55,0-1-0.45-1-1V17.53c0-0.55,0.45-1,1-1h13.725c0.55,0,1,0.45,1,1v3.667
						C20.019,21.747,19.569,22.197,19.019,22.197z"/>
				</g>
			</g>
		</g>
		<g>
			<g>
				<g>
					<g>
						<path fill="#FFFFFF" d="M18.928,8.835h-6.872c-1.361,0-2.469,1.108-2.469,2.469v10.994c0,1.361,1.108,2.469,2.469,2.469h8.245
							c1.361,0,2.469-1.108,2.469-2.469v-9.795L18.928,8.835z M21.956,22.297c0,0.912-0.742,1.654-1.654,1.654h-8.246
							c-0.912,0-1.654-0.742-1.654-1.654V11.303c0-0.912,0.742-1.654,1.654-1.654h6.03v3.658h3.869L21.956,22.297L21.956,22.297z"/>
						<g>
							<path fill="#FFFFFF" d="M21.996,6.301h-6.872c-1.361,0-2.469,1.108-2.469,2.469v0.457h0.815V8.769
								c0-0.912,0.742-1.654,1.654-1.654h6.03v3.657h3.869v8.99h0.001c0,0.912-0.742,1.654-1.654,1.654h-1.114v0.816h1.113
								c1.361,0,2.469-1.108,2.469-2.469V9.969L21.996,6.301z"/>
						</g>
					</g>
				</g>
			</g>
			<g>
				<g>
					<path fill="#FFFFFF" d="M18.549,21.731H4.824c-0.55,0-1-0.45-1-1v-3.667c0-0.55,0.45-1,1-1h13.725c0.55,0,1,0.45,1,1v3.667
						C19.549,21.281,19.099,21.731,18.549,21.731z"/>
				</g>
			</g>
		</g>
	</g>
</g>
<g id="bulk_load-MT" display="none">
	<g id="Layer_7" display="inline">
	</g>
	<g id="Layer_7_1_" display="inline">
	</g>
	<g display="inline">
		<g id="Layer_5_1_">
			<g>
				<g>
					<g>
						<path fill="#9370B1" stroke="#FFFFFF" stroke-miterlimit="10" d="M14.368,25.778c-1.454,0-2.636-1.182-2.636-2.636V5.066
							c0-1.454,1.182-2.636,2.636-2.636h11.453l4.74,4.74v15.972c0,1.454-1.182,2.636-2.636,2.636H14.368z"/>
					</g>
				</g>
				<polygon fill="#735796" points="25.597,3.022 25.597,7.386 29.962,7.386 				"/>
			</g>
		</g>
		<g id="Layer_5">
			<g>
				<g>
					<g>
						<path fill="#00A389" stroke="#FFFFFF" stroke-miterlimit="10" d="M10.644,29.709c-1.454,0-2.636-1.182-2.636-2.636V8.998
							c0-1.454,1.182-2.636,2.636-2.636h11.453l4.74,4.74v15.972c0,1.454-1.182,2.636-2.636,2.636H10.644V29.709z"/>
					</g>
				</g>
				<polygon fill="#00795A" points="21.835,6.948 21.835,11.313 26.199,11.313 				"/>
			</g>
		</g>
		<path fill="#00795A" d="M8.509,25.275h11.528c1.055,0,1.914-0.897,1.914-2v-4.82c0-1.103-0.859-2-1.914-2H8.509V25.275z"/>
		<g>
			<g>
				<g>
					<path fill="#EA5E5E" d="M2.439,24.22c-0.799,0-1.45-0.65-1.45-1.45v-4.82c0-0.8,0.651-1.45,1.45-1.45h16.927
						c0.8,0,1.45,0.65,1.45,1.45v4.82c0,0.8-0.65,1.45-1.45,1.45H2.439z"/>
					<path fill="#FFFFFF" d="M19.366,16.949c0.55,0,1,0.45,1,1v4.82c0,0.55-0.45,1-1,1H2.439c-0.55,0-1-0.45-1-1v-4.82
						c0-0.55,0.45-1,1-1H19.366 M19.366,16.049H2.439c-1.048,0-1.9,0.852-1.9,1.9v4.82c0,1.048,0.852,1.9,1.9,1.9h16.926
						c1.048,0,1.9-0.852,1.9-1.9v-4.82C21.266,16.902,20.414,16.049,19.366,16.049L19.366,16.049z"/>
				</g>
			</g>
			<g>
				<g>
					<path fill="#FFFFFF" d="M3.633,23.053c-0.333,0-0.602-0.269-0.602-0.602v-4.199c0-0.333,0.269-0.602,0.602-0.602
						s0.602,0.269,0.602,0.602v4.199C4.235,22.783,3.965,23.053,3.633,23.053z"/>
				</g>
				<g>
					<path fill="#FFFFFF" d="M5.694,23.069c-0.299,0-0.542-0.246-0.542-0.55v-4.26c0-0.303,0.243-0.55,0.542-0.55
						s0.542,0.246,0.542,0.55v4.26C6.236,22.823,5.993,23.069,5.694,23.069z"/>
				</g>
				<g>
					<path fill="#FFFFFF" d="M7.753,23.069c-0.266,0-0.481-0.224-0.481-0.501V18.21c0-0.276,0.216-0.501,0.481-0.501
						c0.266,0,0.481,0.224,0.481,0.501v4.358C8.234,22.845,8.019,23.069,7.753,23.069z"/>
				</g>
				<g>
					<path fill="#FFFFFF" d="M9.547,23.051c-0.233,0-0.421-0.2-0.421-0.446v-4.448c0-0.247,0.189-0.446,0.421-0.446
						s0.421,0.2,0.421,0.446v4.448C9.968,22.851,9.779,23.051,9.547,23.051z"/>
				</g>
				<g>
					<path fill="#FFFFFF" d="M11.229,23.069c-0.2,0-0.361-0.176-0.361-0.394v-4.572c0-0.217,0.161-0.394,0.361-0.394
						s0.361,0.176,0.361,0.394v4.572C11.59,22.893,11.429,23.069,11.229,23.069z"/>
				</g>
				<g>
					<path fill="#FFFFFF" d="M12.615,23.051c-0.166,0-0.301-0.15-0.301-0.335v-4.67c0-0.185,0.135-0.335,0.301-0.335
						s0.301,0.15,0.301,0.335v4.67C12.916,22.901,12.781,23.051,12.615,23.051z"/>
				</g>
				<g>
					<path fill="#FFFFFF" d="M13.862,23.051c-0.133,0-0.241-0.121-0.241-0.27v-4.783c0-0.149,0.108-0.27,0.241-0.27
						s0.241,0.121,0.241,0.27v4.783C14.103,22.93,13.995,23.051,13.862,23.051z"/>
				</g>
				<g>
					<path fill="#FFFFFF" d="M15.049,23.054c-0.1,0-0.181-0.095-0.181-0.212v-4.921c0-0.117,0.081-0.212,0.181-0.212
						c0.1,0,0.181,0.095,0.181,0.212v4.921C15.23,22.96,15.149,23.054,15.049,23.054z"/>
				</g>
				<g>
					<path fill="#FFFFFF" d="M16.148,23.054c-0.067,0-0.12-0.065-0.12-0.145v-5.054c0-0.08,0.053-0.145,0.12-0.145
						c0.067,0,0.12,0.065,0.12,0.145v5.054C16.268,22.989,16.215,23.054,16.148,23.054z"/>
				</g>
				<g>
					<path fill="#FFFFFF" d="M17.145,23.054c-0.033,0-0.06-0.033-0.06-0.074v-5.196c0-0.042,0.027-0.074,0.06-0.074
						c0.033,0,0.06,0.033,0.06,0.074v5.196C17.205,23.022,17.178,23.054,17.145,23.054z"/>
				</g>
			</g>
		</g>
		<g id="Layer_7_2_">
		</g>
	</g>
</g>
<g id="work_package" display="none">
	<g id="shortcut_overlay" display="inline">
		<g id="Shortcut">
		</g>
	</g>
	<g display="inline">
		<g>
			<g id="Layer_1_5_">
				<g id="Ppt">
				</g>
				<g id="Small_Folder">
				</g>
				<g id="fave_icon_-_selected_1_">
				</g>
				<g id="Shortcut_1_">
				</g>
				<g id="comment_icon_-_selected">
				</g>
				<g id="Comment_icon">
				</g>
				<g>
					<path fill="#FFFFFF" d="M16.07,30.982c-0.342,0-0.687-0.109-0.996-0.315L3.079,23.761c-0.635-0.421-0.983-1.012-0.983-1.638
						V9.783c0-0.617,0.347-1.217,0.928-1.604l12.21-6.884c0.257-0.174,0.586-0.277,0.917-0.277c0.342,0,0.687,0.109,0.997,0.317
						l11.989,6.807c0.639,0.421,0.988,1.013,0.988,1.641v12.436c0,0.617-0.347,1.217-0.928,1.604l-12.211,6.884
						C16.729,30.88,16.401,30.982,16.07,30.982z"/>
					<path fill="#FFFFFF" d="M16.151,1.518c0.241,0,0.485,0.077,0.718,0.232L28.89,8.577c0.471,0.312,0.735,0.756,0.735,1.206
						v12.436c0,0.45-0.264,0.894-0.705,1.188L16.741,30.27c-0.21,0.141-0.439,0.212-0.672,0.212c-0.241,0-0.486-0.076-0.718-0.231
						L3.328,23.327c-0.469-0.312-0.732-0.755-0.732-1.204V9.783c0-0.45,0.264-0.894,0.705-1.188l12.178-6.864
						C15.689,1.59,15.918,1.518,16.151,1.518 M16.151,0.518c-0.417,0-0.829,0.124-1.193,0.358L2.81,7.724L2.777,7.742L2.746,7.763
						c-0.721,0.48-1.151,1.235-1.151,2.02v12.34c0,0.797,0.43,1.539,1.179,2.037l0.027,0.018l0.028,0.016l11.998,6.909
						c0.384,0.248,0.813,0.379,1.243,0.379c0.417,0,0.828-0.123,1.191-0.357l12.15-6.848l0.032-0.018l0.031-0.021
						c0.721-0.48,1.151-1.235,1.151-2.02V9.783c0-0.798-0.431-1.541-1.182-2.039l-0.029-0.019l-0.03-0.017l-11.993-6.81
						C17.008,0.649,16.58,0.518,16.151,0.518L16.151,0.518z"/>
				</g>
			</g>
		</g>
		<g>
			<g id="Layer_1_6_">
				<g id="Ppt_1_">
				</g>
				<g id="Small_Folder_1_">
				</g>
				<g id="fave_icon_-_selected_2_">
				</g>
				<g id="Shortcut_2_">
				</g>
				<g id="comment_icon_-_selected_1_">
				</g>
				<g id="Comment_icon_1_">
				</g>
				<g>
					<g>
						<polygon fill="#0072AA" points="29.125,22.701 16.11,30.027 16.11,16.627 29.125,9.59 						"/>
						<polygon fill="#00A4D8" points="3.096,22.701 16.11,30.027 16.11,16.627 3.096,9.59 						"/>
						<polygon fill="#00A4D8" points="3.578,9.3 16.11,16.434 28.643,9.3 16.11,2.07 						"/>
					</g>
					<line fill="none" stroke="#0072AA" stroke-miterlimit="10" x1="9.362" y1="12.578" x2="21.991" y2="5.348"/>
					<g>
						<g>
							
								<line fill="none" stroke="#004B71" stroke-linecap="round" stroke-miterlimit="10" x1="16.11" y1="29.449" x2="16.11" y2="16.627"/>
							<path fill="none" stroke="#004B71" stroke-linecap="round" stroke-miterlimit="10" d="M28.863,9.449l-12.271,6.985
								c-0.289,0.193-0.578,0.193-0.868,0L3.578,9.59"/>
							<path fill="none" stroke="#004B71" stroke-linecap="round" stroke-miterlimit="10" d="M29.125,22.219
								c0,0.289-0.193,0.578-0.482,0.771l-12.147,6.845c-0.289,0.193-0.578,0.193-0.868,0l-12.05-6.942
								c-0.289-0.193-0.482-0.482-0.482-0.771V9.782c0-0.289,0.193-0.578,0.482-0.771l12.147-6.845c0.289-0.193,0.578-0.193,0.868,0
								l12.051,6.845c0.289,0.193,0.482,0.482,0.482,0.771L29.125,22.219L29.125,22.219z"/>
						</g>
					</g>
				</g>
			</g>
			<g opacity="0.4">
				<polygon points="13.218,26.942 14.182,27.521 14.182,21.737 13.218,21.158 				"/>
				<polygon points="10.326,25.304 12.254,26.364 12.254,20.58 10.326,19.519 				"/>
				<polygon points="8.398,24.147 9.362,24.725 9.362,18.941 8.398,18.362 				"/>
				<polygon points="6.47,23.086 7.434,23.665 7.434,17.88 6.47,17.302 				"/>
				<polygon points="4.542,21.929 5.506,22.508 5.506,16.724 4.542,16.145 				"/>
			</g>
		</g>
		<polygon opacity="0.27" fill="#FFFFFF" enable-background="new    " points="20.227,4.796 7.434,12.251 7.434,16.905 
			8.535,16.145 10.085,18.362 10.189,14.04 23.003,6.446 		"/>
	</g>
</g>
<g id="project" display="none">
	<g display="inline">
		<path fill="#D3DEE5" d="M29,23.032c0,0.32-0.169,0.615-0.445,0.775l-3.498,2.032l-8.613,5.003c-0.275,0.16-0.614,0.16-0.889,0
			l-12.11-7.035C3.169,23.647,3,23.352,3,23.032V8.963c0-0.32,0.169-0.615,0.445-0.775l12.11-7.035c0.275-0.16,0.614-0.16,0.889,0
			l12.111,7.035C28.831,8.348,29,8.643,29,8.963V23.032z"/>
		<polygon fill="#8797A1" points="29,23.032 16,31.033 16,16.033 29,8.033 		"/>
		<polygon fill="#EEF2F5" points="3,8.033 16,16.033 29,8.033 16,1.033 		"/>
		<path fill="#4D575B" d="M29.058,7.323l-12.11-7.034c-0.575-0.334-1.321-0.334-1.895,0L2.941,7.323C2.36,7.661,2,8.29,2,8.963
			v14.069c0,0.673,0.36,1.302,0.942,1.64l12.11,7.034c0.288,0.167,0.615,0.256,0.948,0.256s0.66-0.089,0.947-0.255l12.112-7.035
			C29.64,24.334,30,23.705,30,23.032V8.963C30,8.29,29.64,7.661,29.058,7.323z M16,2.052l11.578,6.724l-11.385,6.613
			c-0.119,0.067-0.266,0.069-0.386-0.001L4.422,8.776L16,2.052z M4,22.973V9.687l11.304,6.565c0.042,0.025,0.089,0.036,0.134,0.056
			v13.308L4,22.973z M16.438,29.689V16.361c0.088-0.029,0.176-0.06,0.257-0.107L28,9.687v13.286L16.438,29.689z"/>
	</g>
	<g id="fave_icon_-_selected_3_" display="inline">
	</g>
</g>
<g id="transmittal_HS" display="none">
	<g id="Layer_1_7_" display="inline">
		<g>
			<circle fill="#FFFFFF" cx="16" cy="16" r="15.973"/>
			<circle fill="#83649B" cx="16" cy="16" r="14.939"/>
		</g>
	</g>
	<g display="inline">
		<g>
			<g>
				<path fill="#FFFFFF" d="M19.767,18.631c0.221-0.222,0.221-0.495,0-0.716l-1.75-1.672h9.419c0.312,0,0.565-0.415,0.565-0.729
					c0-0.313-0.253-0.729-0.565-0.729h-9.402l1.733-1.663c0.221-0.222,0.221-0.543,0-0.764c-0.221-0.222-0.578-0.203-0.799,0.019
					l-3.106,3.127l3.106,3.122C19.189,18.848,19.546,18.853,19.767,18.631"/>
			</g>
			<g>
				<path fill="#FFFFFF" d="M24.095,17.049c-0.221,0.222-0.221,0.495,0,0.716l1.75,1.672h-9.419c-0.312,0-0.565,0.415-0.565,0.729
					c0,0.313,0.253,0.729,0.565,0.729h9.402l-1.733,1.663c-0.221,0.222-0.221,0.543,0,0.764c0.221,0.222,0.578,0.203,0.799-0.019
					L28,20.175l-3.106-3.122C24.673,16.832,24.315,16.827,24.095,17.049"/>
			</g>
			<path fill="#FFFFFF" d="M12.556,12.863h-3.35c-0.301,0-0.545-0.244-0.545-0.545l0,0c0-0.301,0.244-0.545,0.545-0.545h3.35
				c0.301,0,0.545,0.244,0.545,0.545l0,0C13.102,12.619,12.857,12.863,12.556,12.863z"/>
			<path fill="#FFFFFF" d="M14.661,16.044H9.207c-0.301,0-0.545-0.244-0.545-0.545l0,0c0-0.301,0.244-0.545,0.545-0.545h5.455
				c0.301,0,0.545,0.244,0.545,0.545l0,0C15.207,15.8,14.963,16.044,14.661,16.044z"/>
			<path fill="#FFFFFF" d="M14.661,19.225H9.207c-0.301,0-0.545-0.244-0.545-0.545l0,0c0-0.301,0.244-0.545,0.545-0.545h5.455
				c0.301,0,0.545,0.244,0.545,0.545l0,0C15.207,18.981,14.963,19.225,14.661,19.225z"/>
			<path fill="#FFFFFF" d="M14.661,22.406H9.207c-0.301,0-0.545-0.244-0.545-0.545l0,0c0-0.301,0.244-0.545,0.545-0.545h5.455
				c0.301,0,0.545,0.244,0.545,0.545l0,0C15.207,22.162,14.963,22.406,14.661,22.406z"/>
		</g>
		<g>
			<path fill="#FFFFFF" d="M21.287,21.425v1.368h0.001c0,1.127-0.917,2.044-2.044,2.044H9.052c-1.127,0-2.044-0.917-2.044-2.044
				V9.205c0-1.127,0.917-2.044,2.044-2.044h7.452v4.521h2.832c0.016-0.001,0.031-0.01,0.048-0.01c0.018,0,0.032,0.009,0.05,0.01
				h1.853v2.574h1.008v-3.567l-4.749-4.534H9.052C7.369,6.154,6,7.523,6,9.206v13.588c0,1.683,1.369,3.052,3.052,3.052h10.191
				c1.682,0,3.052-1.369,3.052-3.052v-1.369C22.295,21.425,21.287,21.425,21.287,21.425z"/>
			<rect x="21.287" y="16.773" fill="#FFFFFF" width="1.008" height="2.134"/>
		</g>
	</g>
</g>
<g id="transmittal_MT" display="none">
	<g display="inline">
		<path fill="#9370B1" stroke="#FFFFFF" stroke-miterlimit="10" d="M4.923,31.157c-1.887,0-3.423-1.535-3.423-3.423V4.265
			c0-1.887,1.535-3.423,3.423-3.423h14.871l6.154,6.154v20.738c0,1.887-1.535,3.423-3.423,3.423
			C22.525,31.157,4.923,31.157,4.923,31.157z"/>
		<polygon fill="#735796" points="19.546,1.455 19.512,7.279 25.334,7.238 		"/>
	</g>
	<g display="inline">
		<path fill="#FFFFFF" d="M14.028,19.216H6.419c-0.345,0-0.625-0.28-0.625-0.625v-0.199c0-0.345,0.28-0.625,0.625-0.625h7.609
			c0.345,0,0.625,0.28,0.625,0.625v0.199C14.653,18.936,14.374,19.216,14.028,19.216z"/>
		<path fill="#FFFFFF" d="M13.799,14.186H6.19c-0.345,0-0.625-0.28-0.625-0.625v-0.199c0-0.345,0.28-0.625,0.625-0.625h7.609
			c0.345,0,0.625,0.28,0.625,0.625v0.199C14.424,13.906,14.144,14.186,13.799,14.186z"/>
		<path fill="#FFFFFF" d="M14.028,24.122H6.419c-0.345,0-0.625-0.28-0.625-0.625v-0.199c0-0.345,0.28-0.625,0.625-0.625h7.609
			c0.345,0,0.625,0.28,0.625,0.625v0.199C14.653,23.842,14.374,24.122,14.028,24.122z"/>
	</g>
	<g display="inline">
		<g>
			<path fill="#DD8100" d="M21.354,17.785c-0.337,0-0.654-0.131-0.894-0.37l-3.953-3.954l3.953-3.954
				c0.238-0.239,0.557-0.37,0.895-0.37s0.656,0.131,0.895,0.37s0.37,0.557,0.37,0.895c0,0.337-0.131,0.655-0.37,0.894l-0.898,0.898
				h8.675c0.697,0,1.265,0.567,1.265,1.265c0,0.697-0.567,1.265-1.265,1.265h-8.679l0.901,0.902c0.493,0.493,0.493,1.295,0,1.789
				C22.009,17.654,21.691,17.785,21.354,17.785z"/>
			<path fill="#FFFFFF" d="M21.354,9.637c0.196,0,0.392,0.074,0.541,0.224c0.299,0.299,0.299,0.783,0,1.081l-1.752,1.752h9.882
				c0.422,0,0.765,0.343,0.765,0.765s-0.343,0.765-0.765,0.765h-9.886l1.756,1.756c0.299,0.299,0.299,0.783,0,1.081
				c-0.149,0.149-0.345,0.224-0.541,0.224s-0.391-0.075-0.541-0.224l-3.6-3.6l3.6-3.6C20.963,9.712,21.159,9.637,21.354,9.637
				 M21.354,8.637c-0.472,0-0.915,0.184-1.248,0.517l-3.6,3.6l-0.707,0.707l0.707,0.707l3.6,3.6
				c0.333,0.333,0.777,0.517,1.248,0.517c0.471,0,0.914-0.184,1.248-0.517c0.688-0.688,0.688-1.808,0-2.496l-0.048-0.048h7.472
				c0.973,0,1.765-0.792,1.765-1.765s-0.792-1.765-1.765-1.765h-7.468l0.045-0.045c0.688-0.688,0.688-1.808,0-2.496
				C22.269,8.821,21.826,8.637,21.354,8.637L21.354,8.637z"/>
		</g>
	</g>
	<g display="inline">
		<g>
			<path fill="#00A4D8" d="M26.235,27.785c-0.338,0-0.656-0.132-0.895-0.37c-0.239-0.239-0.37-0.557-0.37-0.895
				s0.131-0.655,0.37-0.895l0.898-0.898h-8.675c-0.698,0-1.265-0.567-1.265-1.265s0.567-1.265,1.265-1.265h8.679l-0.901-0.902
				c-0.239-0.239-0.371-0.557-0.371-0.894c0-0.338,0.132-0.655,0.371-0.895s0.557-0.37,0.895-0.37c0.337,0,0.654,0.131,0.894,0.37
				l3.953,3.954l-3.953,3.953C26.892,27.653,26.573,27.785,26.235,27.785z"/>
			<path fill="#FFFFFF" d="M26.236,19.637c0.196,0,0.391,0.075,0.541,0.224l3.6,3.6l-3.6,3.6c-0.149,0.149-0.345,0.224-0.541,0.224
				c-0.196,0-0.392-0.074-0.541-0.224c-0.299-0.299-0.299-0.783,0-1.081l1.752-1.752h-9.882c-0.422,0-0.765-0.343-0.765-0.765
				c0-0.422,0.343-0.765,0.765-0.765h9.886l-1.756-1.756c-0.299-0.299-0.299-0.783,0-1.081
				C25.844,19.712,26.04,19.637,26.236,19.637 M26.236,18.637c-0.471,0-0.914,0.184-1.248,0.517c-0.688,0.688-0.688,1.808,0,2.496
				l0.048,0.048h-7.472c-0.973,0-1.765,0.792-1.765,1.765s0.792,1.765,1.765,1.765h7.468l-0.045,0.045
				c-0.688,0.688-0.688,1.808,0,2.496c0.333,0.333,0.776,0.517,1.248,0.517s0.915-0.184,1.248-0.517l3.6-3.6l0.707-0.707
				l-0.707-0.707l-3.6-3.6C27.15,18.821,26.707,18.637,26.236,18.637L26.236,18.637z"/>
		</g>
	</g>
</g>
<g id="x-_ref_-MT" display="none">
	<g display="inline">
		<g>
			<g>
				<g>
					<path fill="#0072AA" d="M7,31.5c-1.93,0-3.5-1.57-3.5-3.5V4c0-1.93,1.57-3.5,3.5-3.5h15.207L28.5,6.793V28
						c0,1.93-1.57,3.5-3.5,3.5H7z"/>
					<path fill="#FFFFFF" d="M22,1l6,6v21c0,1.657-1.343,3-3,3H7c-1.657,0-3-1.343-3-3V4c0-1.657,1.343-3,3-3H22 M22.414,0H22H7
						C4.794,0,3,1.794,3,4v24c0,2.206,1.794,4,4,4h18c2.206,0,4-1.794,4-4V7V6.586l-0.293-0.293l-6-6L22.414,0L22.414,0z"/>
				</g>
			</g>
			<polygon fill="#004B71" points="22,1 22,7 28,7 			"/>
		</g>
	</g>
	<g id="Layer_7_3_" display="inline">
	</g>
	<g display="inline">
		<path fill="#004B71" d="M20.115,18.554h0.07h4.035h0.07c0.557,0,1.043-0.487,1.043-1.044v-4.104c0-0.626-0.487-1.113-1.043-1.113
			h-4.104c-0.626,0-1.113,0.487-1.113,1.113v1.67H13.16c-0.557,0-1.044,0.487-1.044,1.043v1.391h-1.67h-0.07
			c-0.557,0-1.044,0.417-1.044,1.044v4.174c0,0.626,0.487,1.043,1.044,1.043h0.07h1.67v1.391c0,0.557,0.487,1.044,1.044,1.044h5.983
			v1.67v0.07c0,0.557,0.417,1.043,1.043,1.043h4.104c0.557,0,1.043-0.487,1.043-1.043v-0.07V23.84v-0.07
			c0-0.557-0.487-1.043-1.043-1.043h-4.104c-0.626,0-1.043,0.487-1.043,1.043v0.07v1.67H13.16c-0.209,0-0.348-0.139-0.348-0.348
			v-1.391h1.67h0.07c0.557,0,1.043-0.487,0.974-1.043v-4.174c0.07-0.557-0.417-1.044-0.974-1.044h-0.07h-1.67v-1.391
			c0-0.209,0.139-0.348,0.348-0.348h5.913v1.739C19.071,18.136,19.558,18.554,20.115,18.554z"/>
		<g>
			<path fill="#FFFFFF" d="M19.406,25.833h-6.609c-0.557,0-1.043-0.487-1.043-1.043v-9.043c0-0.557,0.487-1.043,1.043-1.043h6.609
				V15.4h-6.609c-0.209,0-0.348,0.139-0.348,0.348v9.043c0,0.209,0.139,0.348,0.348,0.348h6.609V25.833z"/>
			<path fill="#00A389" d="M14.188,23.398h-4.104c-0.626,0-1.113-0.487-1.113-1.043v-4.174c0-0.626,0.487-1.043,1.043-1.043h4.104
				c0.626,0,1.043,0.487,1.043,1.043v4.174C15.232,22.911,14.745,23.398,14.188,23.398z"/>
			<path fill="#FFFFFF" d="M14.188,17.833c0.209,0,0.348,0.139,0.348,0.348l0,0v4.174c0,0.209-0.139,0.348-0.348,0.348h-4.104
				c-0.209,0-0.417-0.139-0.417-0.348v-4.174c0-0.209,0.139-0.348,0.348-0.348l0,0H14.188 M14.188,17.137h-4.104
				c-0.626,0-1.113,0.487-1.113,1.043v4.174c0,0.626,0.487,1.043,1.043,1.043h4.104c0.626,0,1.043-0.487,1.043-1.043V18.18
				C15.232,17.624,14.745,17.137,14.188,17.137L14.188,17.137L14.188,17.137z"/>
			<path fill="#9370B1" d="M23.927,18.181h-4.104c-0.626,0-1.043-0.487-1.043-1.043v-4.104c-0.07-0.626,0.417-1.113,1.043-1.113
				h4.104c0.557,0,1.043,0.487,1.043,1.113v4.104C24.971,17.694,24.484,18.181,23.927,18.181z"/>
			<path fill="#FFFFFF" d="M23.927,12.615c0.209,0,0.348,0.209,0.348,0.417v4.104c0,0.209-0.139,0.348-0.348,0.348h-4.104
				c-0.209,0-0.348-0.139-0.348-0.348v-4.104c-0.07-0.209,0.139-0.417,0.348-0.417H23.927 M23.927,11.92h-4.104
				c-0.626,0-1.113,0.487-1.113,1.113v4.104c0,0.626,0.487,1.043,1.043,1.043h4.104c0.626,0,1.043-0.487,1.043-1.043v-4.104
				C24.971,12.407,24.484,11.92,23.927,11.92L23.927,11.92L23.927,11.92z"/>
			<path fill="#C47D2A" d="M23.927,28.615h-4.104c-0.626,0-1.043-0.487-1.043-1.043v-4.104c0-0.626,0.487-1.043,1.043-1.043h4.104
				c0.626,0,1.043,0.487,1.043,1.043v4.104C24.971,28.128,24.484,28.615,23.927,28.615z"/>
			<path fill="#FFFFFF" d="M23.927,23.05c0.209,0,0.348,0.139,0.348,0.348v4.104c0,0.209-0.139,0.348-0.348,0.348h-4.104
				c-0.209,0-0.348-0.139-0.348-0.348l0,0v-4.104c0-0.209,0.139-0.348,0.348-0.348H23.927 M23.927,22.354h-4.104
				c-0.626,0-1.043,0.487-1.043,1.043v4.104c0,0.626,0.487,1.043,1.043,1.043h4.104c0.626,0,1.043-0.487,1.043-1.043v-4.104
				C24.971,22.841,24.484,22.354,23.927,22.354L23.927,22.354L23.927,22.354z"/>
		</g>
	</g>
	<g display="inline" opacity="0.3">
		<g>
			<path fill="#FFFFFF" d="M9.005,7.704l-1.106-2.38h1.036c0.074,0,0.128,0.01,0.159,0.03s0.058,0.053,0.079,0.1l0.672,1.61
				c0.012-0.023,0.024-0.045,0.038-0.066c0.015-0.021,0.029-0.044,0.046-0.07l0.896-1.456c0.033-0.054,0.068-0.091,0.107-0.114
				c0.038-0.022,0.084-0.033,0.138-0.033h1.197L10.57,7.649l1.229,2.775h-1.023c-0.074,0-0.133-0.019-0.175-0.056
				s-0.072-0.079-0.091-0.126L9.757,8.369c-0.009,0.017-0.02,0.032-0.029,0.046c-0.011,0.014-0.021,0.028-0.03,0.042l-1.127,1.785
				c-0.044,0.067-0.096,0.115-0.153,0.142c-0.059,0.027-0.122,0.04-0.189,0.04H7.088L9.005,7.704z"/>
		</g>
		<g>
			<polygon fill="#FFFFFF" points="7.179,11.936 7.179,12.936 16.419,12.936 16.419,12.936 16.419,11.936 			"/>
		</g>
	</g>
</g>
<g id="overdue-final" display="none">
	<g id="overdue_items_HS_1_" display="inline">
		<g id="Layer_1_9_">
			<g>
				<circle fill="#FFFFFF" cx="16" cy="16" r="15.973"/>
				<circle fill="#1291CE" cx="16" cy="16" r="14.939"/>
			</g>
		</g>
	</g>
	<g display="inline">
		<g>
			<g>
				<path fill="#0072AA" d="M19.43,8.672h-6.44c-1.276,0-2.314,1.038-2.314,2.314v10.302c0,1.276,1.038,2.314,2.314,2.314h7.727
					c1.276,0,2.314-1.038,2.314-2.314v-9.179L19.43,8.672z M22.267,21.288c0,0.855-0.695,1.55-1.55,1.55H12.99
					c-0.855,0-1.55-0.695-1.55-1.55V10.985c0-0.855,0.695-1.55,1.55-1.55h5.65v3.428h3.626L22.267,21.288L22.267,21.288z"/>
				<g>
					<path fill="#0072AA" d="M22.305,6.297h-6.44c-1.276,0-2.314,1.038-2.314,2.314v0.428h0.764V8.61c0-0.855,0.695-1.55,1.55-1.55
						h5.65v3.427h3.626v8.425h0.001c0,0.855-0.695,1.55-1.55,1.55h-1.044v0.765h1.043c1.276,0,2.314-1.038,2.314-2.314V9.735
						L22.305,6.297z"/>
				</g>
			</g>
		</g>
		<circle fill="#0072AA" cx="11.112" cy="21.439" r="4.753"/>
	</g>
	<g display="inline">
		<g>
			<g>
				<path fill="#FFFFFF" d="M18.93,8.131h-6.44c-1.276,0-2.314,1.038-2.314,2.314v10.302c0,1.276,1.038,2.314,2.314,2.314h7.727
					c1.276,0,2.314-1.038,2.314-2.314v-9.179L18.93,8.131z M21.767,20.747c0,0.855-0.695,1.55-1.55,1.55H12.49
					c-0.855,0-1.55-0.695-1.55-1.55V10.444c0-0.855,0.695-1.55,1.55-1.55h5.65v3.428h3.626L21.767,20.747L21.767,20.747z"/>
				<g>
					<path fill="#FFFFFF" d="M21.805,5.756h-6.44c-1.276,0-2.314,1.038-2.314,2.314v0.428h0.764V8.069c0-0.855,0.695-1.55,1.55-1.55
						h5.65v3.427h3.626v8.425h0.001c0,0.855-0.695,1.55-1.55,1.55h-1.044v0.765h1.043c1.276,0,2.314-1.038,2.314-2.314V9.194
						L21.805,5.756z"/>
				</g>
			</g>
		</g>
		<g>
			<g>
				<g>
					<circle fill="#EA5E5E" stroke="#FFFFFF" stroke-miterlimit="10" cx="10.612" cy="20.898" r="4.253"/>
				</g>
			</g>
			<polyline fill="none" stroke="#FFFFFF" stroke-width="0.8" stroke-linecap="round" stroke-miterlimit="10" points="10.71,18.375 
				10.71,21.087 12.382,21.721 			"/>
		</g>
	</g>
</g>
<g>
	<g>
		<path fill="#EA5E5E" d="M5.647,21.135c-0.276,0-0.5-0.224-0.5-0.5v-3.489c0-0.276,0.224-0.5,0.5-0.5s0.5,0.224,0.5,0.5v3.489
			C6.147,20.912,5.923,21.135,5.647,21.135z"/>
	</g>
	<g>
		<path fill="#EA5E5E" d="M7.359,21.149c-0.249,0-0.45-0.205-0.45-0.457v-3.539c0-0.252,0.202-0.457,0.45-0.457
			s0.45,0.205,0.45,0.457v3.539C7.809,20.944,7.608,21.149,7.359,21.149z"/>
	</g>
	<g>
		<path fill="#EA5E5E" d="M9.07,21.149c-0.221,0-0.4-0.186-0.4-0.416v-3.621c0-0.23,0.179-0.416,0.4-0.416s0.4,0.186,0.4,0.416
			v3.621C9.47,20.962,9.291,21.149,9.07,21.149z"/>
	</g>
	<g>
		<path fill="#EA5E5E" d="M10.56,21.134c-0.193,0-0.35-0.166-0.35-0.371v-3.696c0-0.205,0.157-0.371,0.35-0.371
			s0.35,0.166,0.35,0.371v3.696C10.91,20.968,10.754,21.134,10.56,21.134z"/>
	</g>
	<g>
		<path fill="#EA5E5E" d="M11.958,21.149c-0.166,0-0.3-0.147-0.3-0.327v-3.798c0-0.181,0.134-0.327,0.3-0.327s0.3,0.147,0.3,0.327
			v3.798C12.258,21.002,12.124,21.149,11.958,21.149z"/>
	</g>
	<g>
		<path fill="#EA5E5E" d="M13.11,21.134c-0.138,0-0.25-0.125-0.25-0.279v-3.88c0-0.154,0.112-0.279,0.25-0.279
			s0.25,0.125,0.25,0.279v3.88C13.36,21.009,13.247,21.134,13.11,21.134z"/>
	</g>
	<g>
		<path fill="#EA5E5E" d="M14.146,21.134c-0.11,0-0.2-0.101-0.2-0.224v-3.974c0-0.124,0.09-0.224,0.2-0.224s0.2,0.101,0.2,0.224
			v3.974C14.346,21.033,14.256,21.134,14.146,21.134z"/>
	</g>
	<g>
		<path fill="#EA5E5E" d="M15.132,21.137c-0.083,0-0.15-0.079-0.15-0.176v-4.088c0-0.097,0.067-0.176,0.15-0.176
			s0.15,0.079,0.15,0.176v4.088C15.283,21.058,15.215,21.137,15.132,21.137z"/>
	</g>
	<g>
		<path fill="#EA5E5E" d="M16.045,21.137c-0.056,0-0.1-0.054-0.1-0.121v-4.199c0-0.067,0.044-0.121,0.1-0.121
			c0.056,0,0.1,0.054,0.1,0.121v4.199C16.145,21.083,16.101,21.137,16.045,21.137z"/>
	</g>
	<g>
		<path fill="#EA5E5E" d="M16.873,21.137c-0.027,0-0.05-0.027-0.05-0.062v-4.317c0-0.035,0.022-0.062,0.05-0.062
			s0.05,0.027,0.05,0.062v4.317C16.923,21.11,16.901,21.137,16.873,21.137z"/>
	</g>
</g>
</svg>
