<?xml version="1.0" encoding="utf-8"?>
<!-- Generator: Adobe Illustrator 19.1.0, SVG Export Plug-In . SVG Version: 6.00 Build 0)  -->
<svg version="1.1" id="Layer_1" xmlns="http://www.w3.org/2000/svg" xmlns:xlink="http://www.w3.org/1999/xlink" x="0px" y="0px"
	 viewBox="0 0 32 32" enable-background="new 0 0 32 32" xml:space="preserve">
<g id="Layer_1_2_">
	<g>
		<circle fill="#FFFFFF" cx="16" cy="16" r="15.973"/>
		<circle fill="#9370B1" cx="16" cy="16" r="14.939"/>
	</g>
</g>
<g>
	<g>
		<path fill="#FFFFFF" d="M16,26c-0.552,0-1-0.447-1-1V7c0-0.552,0.448-1,1-1c0.553,0,1,0.448,1,1v18C17,25.553,16.553,26,16,26z"/>
	</g>
	<g>
		<path fill="#FFFFFF" d="M25,17H7c-0.552,0-1-0.447-1-1c0-0.552,0.448-1,1-1h18c0.553,0,1,0.448,1,1C26,16.553,25.553,17,25,17z"/>
	</g>
</g>
</svg>
