<?xml version="1.0" encoding="utf-8"?>
<!-- Generator: Adobe Illustrator 19.1.0, SVG Export Plug-In . SVG Version: 6.00 Build 0)  -->
<svg version="1.1" id="Layer_1" xmlns="http://www.w3.org/2000/svg" xmlns:xlink="http://www.w3.org/1999/xlink" x="0px" y="0px"
	 viewBox="0 0 24 24" style="enable-background:new 0 0 24 24;" xml:space="preserve">
<style type="text/css">
	.st0{fill:#00A389;}
	.st1{fill:#FFFFFF;}
</style>
<g>
	<g>
		<g>
			<circle class="st0" cx="12" cy="12" r="12"/>
		</g>
	</g>
	<g id="Layer_3">
		<g>
			<path class="st1" d="M17.6,15.59H6.4c-0.221,0-0.4-0.179-0.4-0.4c0-0.221,0.179-0.4,0.4-0.4h11.2c0.221,0,0.4,0.179,0.4,0.4
				C18,15.411,17.821,15.59,17.6,15.59z"/>
		</g>
		<g>
			<path class="st1" d="M17.6,19.973H6.4c-0.221,0-0.4-0.179-0.4-0.4c0-0.221,0.179-0.4,0.4-0.4h11.2c0.221,0,0.4,0.179,0.4,0.4
				C18,19.794,17.821,19.973,17.6,19.973z"/>
		</g>
		<path class="st1" d="M10.498,11.964L6.93,8.396c-0.313-0.313-0.313-0.818,0-1.131c0.313-0.313,0.818-0.313,1.131,0l2.437,2.437
			l5.44-5.44c0.313-0.313,0.818-0.313,1.131,0c0.313,0.313,0.313,0.818,0,1.131L10.498,11.964z"/>
	</g>
	<g id="Layer_7">
	</g>
</g>
</svg>
