<?xml version="1.0" encoding="utf-8"?>
<!-- Generator: Adobe Illustrator 19.2.1, SVG Export Plug-In . SVG Version: 6.00 Build 0)  -->
<svg version="1.1" id="Layer_2" xmlns="http://www.w3.org/2000/svg" xmlns:xlink="http://www.w3.org/1999/xlink" x="0px" y="0px"
	 viewBox="0 0 36 36" style="enable-background:new 0 0 36 36;" xml:space="preserve">
<style type="text/css">
	.st0{fill:#FFFFFF;}
	.st1{fill:#05A48A;}
</style>
<g>
	<circle class="st0" cx="18" cy="18" r="18"/>
</g>
<g>
	<circle class="st1" cx="18" cy="18" r="16.9"/>
</g>
<g>
	<path class="st0" d="M8.6,10.6l9.4,8.8l9.4-8.9c-0.4-0.3-0.6-0.6-1.2-0.6H9.9C9.3,10,9.1,10.3,8.6,10.6z"/>
	<path class="st0" d="M18,20.9c-0.1,0-0.2,0-0.3-0.1l-10-9.1C7.3,12.1,7,12.8,7,13.4v9.6C7,24.6,8.3,26,9.9,26h16.3
		c1.6,0,2.9-1.4,2.9-2.9v-9.6c0-0.7-0.3-1.3-0.7-1.8l-10,9.1C18.2,20.9,18.1,20.9,18,20.9z"/>
</g>
</svg>
