<?xml version="1.0" encoding="utf-8"?>
<!-- Generator: Adobe Illustrator 19.2.1, SVG Export Plug-In . SVG Version: 6.00 Build 0)  -->
<svg version="1.1" id="Layer_1" xmlns="http://www.w3.org/2000/svg" xmlns:xlink="http://www.w3.org/1999/xlink" x="0px" y="0px"
	 viewBox="0 0 36 36" style="enable-background:new 0 0 36 36;" xml:space="preserve">
<style type="text/css">
	.st0{fill:#627783;}
	.st1{fill:#FFFFFF;}
</style>
<g>
	<g>
		<g>
			<circle class="st0" cx="18" cy="18" r="18"/>
		</g>
	</g>
	<path class="st1" d="M25,25h-14c-0.4,0-0.6-0.1-0.6-0.5s0.3-0.5,0.6-0.5h14c0.4,0,0.6,0.1,0.6,0.5S25.3,25,25,25z"/>
	<path class="st1" d="M25,29h-14c-0.4,0-0.6-0.1-0.6-0.5s0.3-0.5,0.6-0.5h14c0.4,0,0.6,0.1,0.6,0.5S25.3,29,25,29z"/>
	<path class="st1" d="M26.7,11.8c-0.9,0-1.9,0-2.8,0c-0.5,0-0.8,0.3-1,0.8c-0.6,1.4-1.2,2.9-1.8,4.4c-1.5-3.7-3-7.4-4.6-11.2
		c-0.4-1-1.6-1-2,0c-0.8,2-1.6,4-2.5,6.1c-0.7,0-1.4,0-2.1,0c-1.3,0-1.3,2.1,0,2.1c0.9,0,1.9,0,2.8,0c0.5,0,0.8-0.3,1-0.8
		c0.6-1.4,1.2-2.9,1.8-4.4c1.5,3.7,3,7.4,4.6,11.2c0.4,1,1.6,1,2,0c0.8-2,1.6-4,2.5-6.1c0.7,0,1.4,0,2.1,0
		C28.1,13.9,28.1,11.8,26.7,11.8z"/>
</g>
</svg>
