<?xml version="1.0" encoding="utf-8"?>
<!-- Generator: Adobe Illustrator 19.1.0, SVG Export Plug-In . SVG Version: 6.00 Build 0)  -->
<svg version="1.1" xmlns="http://www.w3.org/2000/svg" xmlns:xlink="http://www.w3.org/1999/xlink" x="0px" y="0px"
	 viewBox="0 0 32 32" enable-background="new 0 0 32 32" xml:space="preserve">
<g id="Layer_2">
</g>
<g id="Layer_1">
</g>
<g id="Layer_3">
</g>
<g id="Layer_4">
</g>
<g id="Layer_5">
	<g>
		<circle fill="#00A389" cx="16" cy="16" r="15"/>
		<path fill="#FFFFFF" d="M16,31.5C7.453,31.5,0.5,24.547,0.5,16S7.453,0.5,16,0.5S31.5,7.453,31.5,16S24.547,31.5,16,31.5z M16,1.5
			C8.005,1.5,1.5,8.005,1.5,16S8.005,30.5,16,30.5S30.5,23.995,30.5,16S23.995,1.5,16,1.5z"/>
	</g>
	<g>
		<g>
			<path fill="#FFFFFF" d="M13.797,22.023c-0.256,0-0.512-0.098-0.707-0.293c-0.391-0.391-0.391-1.023,0-1.414L17.406,16
				l-4.316-4.316c-0.391-0.391-0.391-1.023,0-1.414s1.023-0.391,1.414,0l5.73,5.73l-5.73,5.73
				C14.308,21.926,14.053,22.023,13.797,22.023z"/>
		</g>
		<g>
			<path fill="#FFFFFF" d="M7.484,22.023c-0.256,0-0.512-0.098-0.707-0.293c-0.391-0.391-0.391-1.023,0-1.414L11.093,16
				l-4.316-4.316c-0.391-0.391-0.391-1.023,0-1.414s1.023-0.391,1.414,0l5.73,5.73l-5.73,5.73
				C7.995,21.926,7.74,22.023,7.484,22.023z"/>
		</g>
		<g>
			<path fill="#FFFFFF" d="M20.079,22.023c-0.256,0-0.512-0.098-0.707-0.293c-0.391-0.391-0.391-1.023,0-1.414L23.688,16
				l-4.316-4.316c-0.391-0.391-0.391-1.023,0-1.414s1.023-0.391,1.414,0l5.73,5.73l-5.73,5.73
				C20.591,21.926,20.335,22.023,20.079,22.023z"/>
		</g>
	</g>
</g>
<g id="Layer_7">
</g>
</svg>
