<svg id="Layer_2" data-name="Layer 2" xmlns="http://www.w3.org/2000/svg" viewBox="0 0 36 36"><defs><style>.cls-1,.cls-3{fill:#fff;}.cls-2{fill:#627784;}.cls-3{opacity:0.6;}.cls-4{fill:none;}</style></defs><title>mime</title><path class="cls-1" d="M18,36A18,18,0,1,1,36,18,18.02,18.02,0,0,1,18,36Z"/><path class="cls-1" d="M18,1A17,17,0,1,1,1,18,17.019,17.019,0,0,1,18,1m0-1A18,18,0,1,0,36,18,18.02,18.02,0,0,0,18,0h0Z"/><path class="cls-2" d="M18,36A18,18,0,1,1,36,18,18.02,18.02,0,0,1,18,36Z"/><path class="cls-1" d="M18,1A17,17,0,1,1,1,18,17.019,17.019,0,0,1,18,1m0-1A18,18,0,1,0,36,18,18.02,18.02,0,0,0,18,0h0Z"/><rect class="cls-3" x="20.491" y="7.522" width="6" height="6" rx="0.774" ry="0.774"/><rect class="cls-3" x="20.488" y="22.54" width="6" height="6" rx="0.774" ry="0.774"/><rect class="cls-3" x="8.495" y="15" width="6" height="6" rx="0.774" ry="0.774"/><path class="cls-4" d="M9.269,15.5a0.279,0.279,0,0,0-.274.274v4.451a0.279,0.279,0,0,0,.274.274h4.451a0.279,0.279,0,0,0,.274-0.274V15.774a0.279,0.279,0,0,0-.274-0.274H9.269Z"/><path class="cls-4" d="M21.261,23.04h4.453a0.273,0.273,0,0,1,.273.273v4.453a0.273,0.273,0,0,1-.273.273H21.262a0.274,0.274,0,0,1-.274-0.274V23.313A0.273,0.273,0,0,1,21.261,23.04Z"/><path class="cls-4" d="M21.265,8.022h4.452a0.273,0.273,0,0,1,.273.273v4.452a0.274,0.274,0,0,1-.274.274H21.265a0.274,0.274,0,0,1-.274-0.274V8.3A0.274,0.274,0,0,1,21.265,8.022Z"/><path class="cls-1" d="M21.265,14.022h4.452a1.275,1.275,0,0,0,1.273-1.274V8.3a1.275,1.275,0,0,0-1.273-1.274H21.265A1.275,1.275,0,0,0,19.99,8.3V10H12.333a1.341,1.341,0,0,0-1.34,1.34V14.5H9.269a1.275,1.275,0,0,0-1.274,1.274v4.451A1.275,1.275,0,0,0,9.269,21.5h1.724v3.192a1.341,1.341,0,0,0,1.34,1.34h7.654v1.735a1.275,1.275,0,0,0,1.274,1.273h4.452a1.275,1.275,0,0,0,1.273-1.273V23.314a1.275,1.275,0,0,0-1.273-1.274H21.262a1.275,1.275,0,0,0-1.274,1.274v1.717H12.333a0.344,0.344,0,0,1-.34-0.34V21.5h1.727a1.275,1.275,0,0,0,1.274-1.274V15.774A1.275,1.275,0,0,0,13.721,14.5H11.993V11.34a0.344,0.344,0,0,1,.34-0.34H19.99v1.748A1.275,1.275,0,0,0,21.265,14.022Zm-0.277,9.292a0.279,0.279,0,0,1,.274-0.274h4.452a0.278,0.278,0,0,1,.273.274v4.452a0.274,0.274,0,0,1-.273.273H21.262a0.278,0.278,0,0,1-.274-0.273V23.314ZM13.721,15.5a0.279,0.279,0,0,1,.274.274v4.451a0.279,0.279,0,0,1-.274.274H9.269a0.279,0.279,0,0,1-.274-0.274V15.774A0.279,0.279,0,0,1,9.269,15.5h4.451Zm7.27-7.2a0.279,0.279,0,0,1,.274-0.274h4.452a0.278,0.278,0,0,1,.273.274v4.451a0.278,0.278,0,0,1-.273.274H21.265a0.279,0.279,0,0,1-.274-0.274V8.3Z"/></svg>