<?xml version="1.0" encoding="utf-8"?>
<!-- Generator: Adobe Illustrator 19.1.0, SVG Export Plug-In . SVG Version: 6.00 Build 0)  -->
<svg version="1.1" xmlns="http://www.w3.org/2000/svg" xmlns:xlink="http://www.w3.org/1999/xlink" x="0px" y="0px"
	 viewBox="0 0 32 32" enable-background="new 0 0 32 32" xml:space="preserve">
<g id="Layer_2">
</g>
<g id="Layer_1">
</g>
<g id="Layer_3">
</g>
<g id="Layer_4">
</g>
<g id="Layer_5">
	<g>
		<circle fill="#9370B1" cx="15.903" cy="16" r="15"/>
		<path fill="#FFFFFF" d="M15.903,31.498C7.357,31.498,0.404,24.546,0.404,16S7.357,0.502,15.903,0.502S31.401,7.454,31.401,16
			S24.449,31.498,15.903,31.498z M15.903,1.498C7.907,1.498,1.401,8.004,1.401,16s6.505,14.502,14.501,14.502
			S30.404,23.996,30.404,16S23.899,1.498,15.903,1.498z"/>
	</g>
	<g>
		<path fill="#FFFFFF" d="M25.118,22.11c-0.062-0.89-0.104-1.35-0.41-2.386c-0.219-0.743-0.731-1.29-1.565-1.672
			c-0.711-0.327-1.564-0.49-2.317-0.634c-0.623-0.119-1.211-0.231-1.621-0.416c-0.225-0.101-0.421-0.25-0.582-0.443
			c-0.089-0.106-0.169-0.229-0.24-0.365c0.359-0.295,0.67-0.65,0.931-1.066c0.359-0.572,0.624-1.256,0.791-2.043
			c0.171-0.049,0.339-0.181,0.48-0.381c0.157-0.222,0.275-0.519,0.332-0.836c0.083-0.462,0.031-0.903-0.138-1.195
			c0.015-0.06,0.029-0.122,0.042-0.185c0.079-0.396,0.105-0.855,0.078-1.363c-0.045-0.861-0.225-1.56-0.233-1.588
			c-0.185-0.737-0.738-1.477-1.516-2.03c-0.62-0.44-1.669-0.965-3.147-0.965s-2.527,0.525-3.147,0.965
			c-0.778,0.553-1.331,1.292-1.516,2.029c-0.01,0.038-0.19,0.734-0.236,1.59c-0.028,0.509-0.002,0.968,0.076,1.364
			c0.012,0.062,0.026,0.122,0.04,0.18c-0.171,0.292-0.224,0.735-0.141,1.199c0.057,0.319,0.176,0.617,0.334,0.839
			c0.142,0.2,0.31,0.332,0.482,0.379c0.168,0.787,0.432,1.471,0.792,2.042c0.262,0.417,0.574,0.774,0.935,1.069
			c-0.07,0.135-0.15,0.256-0.238,0.361c-0.161,0.193-0.357,0.342-0.582,0.443c-0.411,0.184-0.999,0.297-1.621,0.416
			c-0.752,0.144-1.605,0.307-2.317,0.634c-0.834,0.383-1.345,0.93-1.565,1.672c-0.302,1.023-0.347,1.485-0.408,2.353
			c-0.032,0.139-0.053,0.283-0.053,0.432v0.922c0,0.014,0.004,0.026,0.004,0.04c0.022,1.043,0.879,1.891,1.927,1.891H23.23
			c1.062,0,1.931-0.869,1.931-1.931v-0.713v-0.209C25.161,22.372,25.145,22.239,25.118,22.11z"/>
		<path fill="#9370B1" d="M14.126,23.033h-3.458c-0.359,0-0.652-0.293-0.652-0.652v-1.407c0-0.359,0.293-0.652,0.652-0.652h3.458
			c0.359,0,0.652,0.293,0.652,0.652v1.407C14.778,22.74,14.485,23.033,14.126,23.033z"/>
	</g>
</g>
<g id="Layer_7">
</g>
</svg>
