<?xml version="1.0" encoding="utf-8"?>
<!-- Generator: Adobe Illustrator 19.1.0, SVG Export Plug-In . SVG Version: 6.00 Build 0)  -->
<svg version="1.1" id="Layer_1" xmlns="http://www.w3.org/2000/svg" xmlns:xlink="http://www.w3.org/1999/xlink" x="0px" y="0px"
	 viewBox="-281 406 32 32" enable-background="new -281 406 32 32" xml:space="preserve">
<g>
	<g id="Layer_1_17_">
		<g>
			<circle fill="#FFFFFF" cx="-265" cy="422" r="15.973"/>
			<circle fill="#C14884" cx="-265" cy="422" r="14.939"/>
		</g>
	</g>
	<g>
		<g>
			<g>
				<path fill="#FFFFFF" d="M-262.952,417.264h-4.096c-0.835,0-1.514-0.68-1.514-1.515v-2.498c0-0.835,0.679-1.514,1.514-1.514
					h4.096c0.835,0,1.515,0.679,1.515,1.514v2.498C-261.438,416.584-262.117,417.264-262.952,417.264z M-267.048,412.737
					c-0.284,0-0.514,0.23-0.514,0.514v2.498c0,0.284,0.23,0.515,0.514,0.515h4.096c0.284,0,0.515-0.231,0.515-0.515v-2.498
					c0-0.284-0.23-0.514-0.515-0.514H-267.048z"/>
			</g>
		</g>
		<g>
			<path fill="#FFFFFF" d="M-256.291,415.126h-17.418c-0.825,0-1.5,0.675-1.5,1.5v2.874H-267v-0.879
				c0-0.342,0.279-0.621,0.621-0.621h2.758c0.343,0,0.621,0.279,0.621,0.621v0.879h8.209v-2.874
				C-254.791,415.801-255.466,415.126-256.291,415.126z"/>
		</g>
		<g>
			<g>
				<path fill="#FFFFFF" d="M-263,420.5v0.879c0,0.342-0.278,0.621-0.621,0.621h-2.758c-0.342,0-0.621-0.279-0.621-0.621V420.5
					h-8.209v6.874c0,0.825,0.675,1.5,1.5,1.5h17.418c0.825,0,1.5-0.675,1.5-1.5V420.5H-263z"/>
			</g>
			<g>
				<rect x="-266" y="419" fill="#FFFFFF" width="2" height="2"/>
			</g>
		</g>
	</g>
</g>
</svg>
