<?xml version="1.0" encoding="utf-8"?>
<!-- Generator: Adobe Illustrator 19.1.0, SVG Export Plug-In . SVG Version: 6.00 Build 0)  -->
<svg version="1.1" id="Layer_1" xmlns="http://www.w3.org/2000/svg" xmlns:xlink="http://www.w3.org/1999/xlink" x="0px" y="0px"
	 viewBox="-281 406 32 32" enable-background="new -281 406 32 32" xml:space="preserve">
<g id="Layer_1_14_">
	<g>
		<circle fill="#FFFFFF" cx="-265" cy="422" r="15.973"/>
		<circle fill="#8CC53E" cx="-265" cy="422" r="14.939"/>
	</g>
</g>
<path fill="#FFFFFF" d="M-254.969,415.907c0-0.827-0.673-1.5-1.5-1.5h-17.062c-0.827,0-1.5,0.673-1.5,1.5v12.186
	c0,0.827,0.673,1.5,1.5,1.5h17.062c0.827,0,1.5-0.673,1.5-1.5 M-273.531,415.407h17.062c0.275,0,0.5,0.224,0.5,0.5v1.725h-18.062
	v-1.725C-274.031,415.631-273.807,415.407-273.531,415.407z M-256.469,428.593h-17.062c-0.276,0-0.5-0.225-0.5-0.5v-9.461h18.062
	v9.461C-255.969,428.368-256.193,428.593-256.469,428.593z"/>
<path fill="#FFFFFF" d="M-262.131,419.631h-1h-9.9v7.961h16.062v-7.961H-262.131z M-268.049,426.592h-3.982v-3.481h3.982V426.592z
	 M-268.049,422.111h-3.982v-1.48h3.982V422.111z M-257.969,426.592h-1.886h-2.276h-1h-3.918v-3.481h3.918h1h2.276h1.886V426.592z
	 M-257.969,422.111h-1.886h-2.276h-1h-3.918v-1.48h3.918h1c0,0,1.148,0,2.276,0c0.935,0,1.886,0,1.886,0V422.111z"/>
</svg>
