<?xml version="1.0" encoding="utf-8"?>
<!-- Generator: Adobe Illustrator 19.1.0, SVG Export Plug-In . SVG Version: 6.00 Build 0)  -->
<svg version="1.1" xmlns="http://www.w3.org/2000/svg" xmlns:xlink="http://www.w3.org/1999/xlink" x="0px" y="0px"
	 viewBox="0 0 32 32" enable-background="new 0 0 32 32" xml:space="preserve">
<g id="Layer_2">
</g>
<g id="Layer_1">
</g>
<g id="Layer_3">
</g>
<g id="Layer_4">
</g>
<g id="Layer_5">
	<g>
		<circle fill="#0071C5" cx="16" cy="16" r="15"/>
		<path fill="#FFFFFF" d="M12.498,7.261c0.719-0.512,1.935-1.12,3.639-1.12c1.705,0,2.921,0.608,3.64,1.12
			c0.42,0.299,0.776,0.649,1.071,1.023c0.014-0.231,0.016-0.476,0.003-0.738c-0.046-0.859-0.226-1.562-0.233-1.592
			c-0.169-0.674-0.687-1.357-1.42-1.879c-0.601-0.426-1.619-0.935-3.061-0.935c-1.44,0-2.459,0.509-3.061,0.935
			c-0.732,0.521-1.25,1.204-1.418,1.875c-0.004,0.015-0.189,0.73-0.238,1.598c-0.014,0.263-0.012,0.508,0.002,0.74
			C11.718,7.912,12.076,7.56,12.498,7.261z"/>
		<path fill="#FFFFFF" d="M8.329,20.569c0.811-0.373,1.75-0.553,2.579-0.712c0.04-0.008,0.077-0.015,0.117-0.023
			c-0.063-0.065-0.125-0.132-0.181-0.211c-0.211-0.299-0.367-0.688-0.44-1.096c-0.094-0.523-0.052-1.029,0.114-1.426
			c-0.002-0.012-0.004-0.023-0.007-0.034c-0.007-0.034-0.007-0.075-0.013-0.111c-0.608,0.126-1.228,0.279-1.751,0.52
			c-0.76,0.349-1.203,0.814-1.396,1.468c-0.31,1.05-0.353,1.519-0.414,2.398c-0.035,0.171-0.048,0.274-0.052,0.369
			C7.231,21.246,7.702,20.857,8.329,20.569z"/>
		<path fill="#FFFFFF" d="M21.748,17.108c0.165,0.396,0.206,0.901,0.112,1.421c-0.073,0.409-0.229,0.797-0.438,1.092
			c-0.055,0.08-0.118,0.147-0.181,0.213c0.038,0.007,0.074,0.015,0.112,0.022c0.842,0.161,1.781,0.341,2.593,0.714
			c0.619,0.284,1.086,0.668,1.432,1.127c-0.004-0.082-0.009-0.164-0.027-0.249l-0.01-0.07c-0.063-0.922-0.104-1.374-0.417-2.433
			c-0.192-0.653-0.636-1.119-1.395-1.468c-0.527-0.242-1.153-0.396-1.759-0.521c-0.006,0.036-0.007,0.078-0.014,0.113
			C21.754,17.082,21.751,17.096,21.748,17.108z"/>
		<path fill="#FFFFFF" d="M8.329,24.569c0.811-0.373,1.75-0.553,2.579-0.712c0.642-0.122,1.235-0.236,1.616-0.407
			c0.161-0.072,0.304-0.179,0.424-0.317c-0.286-0.281-0.542-0.602-0.764-0.955c-0.263-0.417-0.467-0.906-0.641-1.425
			c-0.143,0.029-0.287,0.057-0.434,0.085c-0.786,0.151-1.662,0.318-2.363,0.641c-0.76,0.349-1.203,0.814-1.396,1.468
			c-0.31,1.05-0.353,1.519-0.414,2.398c-0.035,0.171-0.048,0.274-0.052,0.369C7.231,25.246,7.702,24.857,8.329,24.569z"/>
		<path fill="#FFFFFF" d="M19.323,23.13c0.12,0.14,0.264,0.247,0.427,0.32c0.381,0.171,0.975,0.285,1.604,0.405
			c0.842,0.161,1.781,0.341,2.593,0.714c0.619,0.284,1.086,0.668,1.432,1.127c-0.004-0.082-0.009-0.164-0.027-0.249l-0.01-0.07
			c-0.063-0.922-0.104-1.374-0.417-2.433c-0.192-0.653-0.636-1.119-1.395-1.468c-0.702-0.322-1.578-0.489-2.352-0.638
			c-0.154-0.029-0.305-0.059-0.453-0.088c-0.174,0.519-0.377,1.008-0.64,1.426C19.862,22.531,19.607,22.85,19.323,23.13z"/>
		<path fill="#FFFFFF" d="M20.848,11.511c-0.016-0.283-0.047-0.547-0.081-0.776c-0.067-0.452-0.145-0.762-0.15-0.782
			c-0.169-0.674-0.687-1.357-1.42-1.879c-0.601-0.426-1.619-0.935-3.061-0.935c-1.44,0-2.459,0.509-3.061,0.935
			c-0.732,0.521-1.25,1.204-1.418,1.875c-0.003,0.01-0.085,0.332-0.155,0.799c-0.034,0.228-0.065,0.488-0.081,0.768
			c-0.001,0.01-0.002,0.02-0.002,0.03c-0.014,0.263-0.012,0.508,0.002,0.74c0.116-0.148,0.24-0.292,0.378-0.43
			c0.13-0.13,0.276-0.249,0.423-0.369c0.093-0.075,0.176-0.158,0.275-0.228c0.719-0.512,1.935-1.12,3.639-1.12
			c1.705,0,2.921,0.608,3.64,1.12c0.097,0.069,0.179,0.15,0.27,0.224c0.147,0.119,0.293,0.238,0.423,0.368
			c0.138,0.138,0.261,0.283,0.378,0.431c0.014-0.231,0.016-0.476,0.003-0.738C20.85,11.534,20.849,11.523,20.848,11.511z"/>
		<path fill="#FFFFFF" d="M24.924,26.945c-0.192-0.653-0.636-1.119-1.395-1.468c-0.702-0.322-1.578-0.489-2.352-0.638
			c-0.7-0.134-1.35-0.259-1.838-0.478c-0.308-0.138-0.575-0.342-0.797-0.606c-0.118-0.141-0.225-0.302-0.316-0.479l-0.188-0.36
			l0.314-0.257c0.337-0.276,0.635-0.618,0.885-1.015c0.207-0.33,0.373-0.716,0.517-1.128c0.053-0.152,0.096-0.317,0.141-0.48
			c0.037-0.138,0.088-0.26,0.119-0.405l0.017-0.078l0.047-0.216l0.289-0.083c0.055-0.015,0.146-0.078,0.238-0.211
			c0.125-0.177,0.224-0.428,0.271-0.691c0.079-0.439,0.007-0.771-0.088-0.935l-0.1-0.174l0.086-0.365
			c0.007-0.036,0.008-0.078,0.014-0.115c0.019-0.11,0.032-0.227,0.042-0.346c0.005-0.052,0.015-0.098,0.019-0.152
			c0.009-0.16,0.005-0.335,0.001-0.51c-0.002-0.072,0.004-0.136,0-0.211c-0.001-0.012-0.002-0.023-0.003-0.035
			c-0.016-0.283-0.047-0.547-0.081-0.776c-0.067-0.452-0.145-0.762-0.15-0.782c-0.04-0.158-0.102-0.316-0.178-0.473
			c-0.084-0.173-0.187-0.343-0.311-0.509c-0.111-0.148-0.24-0.291-0.38-0.43c-0.167-0.165-0.348-0.323-0.551-0.467
			c-0.601-0.426-1.619-0.935-3.061-0.935c-1.44,0-2.459,0.509-3.061,0.935c-0.204,0.145-0.387,0.305-0.555,0.472
			c-0.14,0.139-0.268,0.282-0.379,0.43c-0.124,0.166-0.227,0.338-0.31,0.511c-0.074,0.153-0.136,0.308-0.174,0.462
			c-0.003,0.01-0.085,0.332-0.155,0.799c-0.034,0.228-0.065,0.488-0.081,0.768c-0.001,0.01-0.002,0.02-0.002,0.03
			c-0.004,0.074,0.001,0.138,0,0.209c-0.004,0.175-0.009,0.35,0,0.51c0.003,0.055,0.014,0.101,0.018,0.154
			c0.01,0.118,0.023,0.234,0.041,0.343c0.006,0.035,0.007,0.077,0.013,0.111l0.087,0.365l-0.103,0.176
			c-0.096,0.162-0.169,0.493-0.089,0.935c0.047,0.264,0.146,0.517,0.271,0.693c0.095,0.133,0.186,0.196,0.239,0.212l0.292,0.081
			l0.047,0.218l0.017,0.078c0.031,0.145,0.081,0.267,0.119,0.405c0.044,0.163,0.087,0.327,0.141,0.479
			c0.144,0.412,0.31,0.798,0.517,1.128c0.249,0.396,0.548,0.738,0.889,1.018l0.315,0.258l-0.188,0.361
			c-0.092,0.175-0.197,0.334-0.313,0.473c-0.223,0.266-0.49,0.47-0.798,0.607c-0.488,0.219-1.138,0.344-1.825,0.475
			c-0.786,0.151-1.662,0.318-2.363,0.641c-0.76,0.349-1.203,0.814-1.396,1.468c-0.062,0.209-0.106,0.382-0.149,0.553
			c1.157,0.888,2.449,1.601,3.843,2.11c0.542,0.198,1.096,0.367,1.666,0.5C13.769,30.356,14.867,30.5,16,30.5
			c1.134,0,2.232-0.144,3.291-0.391c0.57-0.133,1.124-0.302,1.666-0.5c1.486-0.543,2.86-1.314,4.074-2.284
			C24.999,27.206,24.964,27.081,24.924,26.945z"/>
		<circle fill="none" cx="16" cy="16" r="15"/>
		<path fill="#0071C5" d="M16,31.5C7.453,31.5,0.5,24.547,0.5,16S7.453,0.5,16,0.5S31.5,7.453,31.5,16S24.547,31.5,16,31.5z M16,1.5
			C8.005,1.5,1.5,8.005,1.5,16S8.005,30.5,16,30.5S30.5,23.995,30.5,16S23.995,1.5,16,1.5z"/>
	</g>
</g>
<g id="Layer_7">
</g>
</svg>
