<?xml version="1.0" encoding="utf-8"?>
<!-- Generator: Adobe Illustrator 19.1.0, SVG Export Plug-In . SVG Version: 6.00 Build 0)  -->
<svg version="1.1" id="Layer_1" xmlns="http://www.w3.org/2000/svg" xmlns:xlink="http://www.w3.org/1999/xlink" x="0px" y="0px"
	 viewBox="-281 406 32 32" enable-background="new -281 406 32 32" xml:space="preserve">
<g>
	<g>
		<g id="Layer_1_18_">
			<g>
				<circle fill="#FFFFFF" cx="-265" cy="422" r="15.973"/>
				<circle fill="#0072AA" cx="-265" cy="422" r="14.939"/>
			</g>
		</g>
	</g>
	<g>
		<g>
			<path fill="#FFFFFF" d="M-258.518,412.527h-1.768h-1.089v0.884c0,0.121-0.059,0.224-0.147,0.294h1.206h1.798
				c0.325,0,0.589,0.264,0.589,0.589v16.5c0,0.325-0.264,0.589-0.589,0.589h-12.964c-0.325,0-0.589-0.264-0.589-0.589v-16.5
				c0-0.325,0.264-0.589,0.589-0.589h1.798h1.207c-0.087-0.07-0.147-0.174-0.147-0.294v-0.884h-1.089h-1.768
				c-0.975,0-1.768,0.793-1.768,1.768v16.5c0,0.975,0.793,1.768,1.768,1.768h12.964c0.975,0,1.768-0.793,1.768-1.768v-16.5
				C-256.75,413.32-257.543,412.527-258.518,412.527z"/>
			<g>
				<path fill="#FFFFFF" d="M-261.759,414.795h-6.482c-0.763,0-1.384-0.621-1.384-1.384v-1.974h9.25v1.974
					C-260.375,414.174-260.996,414.795-261.759,414.795z"/>
			</g>
			<g>
				<g>
					<g>
						<g>
							<line fill="none" stroke="#FFFFFF" stroke-miterlimit="10" x1="-259.967" y1="418.605" x2="-265.209" y2="418.605"/>
						</g>
					</g>
				</g>
				
					<rect x="-269.571" y="417.632" fill="none" stroke="#FFFFFF" stroke-width="0.9" stroke-miterlimit="10" width="2.054" height="1.945"/>
			</g>
			<g>
				<g>
					<g>
						<g>
							<line fill="none" stroke="#FFFFFF" stroke-miterlimit="10" x1="-259.967" y1="422.928" x2="-265.209" y2="422.928"/>
						</g>
					</g>
				</g>
				
					<rect x="-269.571" y="421.955" fill="none" stroke="#FFFFFF" stroke-width="0.9" stroke-miterlimit="10" width="2.054" height="1.945"/>
			</g>
		</g>
		<g>
			<path fill="#FFFFFF" d="M-257.967,431.566l0.782-0.522l0.218-3.685h-5v5h3.715L-257.967,431.566z M-260.967,428.358h3l-3,3
				V428.358z"/>
			<g>
				<g>
					<path fill="#FFFFFF" d="M-265.301,425.695c-0.211-0.213-0.578-0.21-0.784-0.001l-2.289,2.287l-0.816-0.817
						c-0.21-0.208-0.577-0.21-0.784,0c-0.105,0.105-0.164,0.245-0.164,0.393s0.059,0.287,0.164,0.392l1.602,1.603l3.071-3.074
						c0.105-0.105,0.164-0.244,0.164-0.392C-265.139,425.939-265.196,425.8-265.301,425.695z"/>
				</g>
			</g>
		</g>
	</g>
</g>
</svg>
