<?xml version="1.0" encoding="utf-8"?>
<!-- Generator: Adobe Illustrator 21.0.0, SVG Export Plug-In . SVG Version: 6.00 Build 0)  -->
<!DOCTYPE svg PUBLIC "-//W3C//DTD SVG 1.1//EN" "http://www.w3.org/Graphics/SVG/1.1/DTD/svg11.dtd">
<svg version="1.1" id="Layer_1" xmlns="http://www.w3.org/2000/svg" xmlns:xlink="http://www.w3.org/1999/xlink" x="0px" y="0px"
	 viewBox="0 0 36 36" style="enable-background:new 0 0 36 36;" xml:space="preserve">
<style type="text/css">
	.st0{fill:#B36601;}
	.st1{fill:#E3992E;}
	.st2{fill:#DD8100;}
	.st3{fill:#FFFFFF;}
</style>
<g id="fave_icon_-_selected">
</g>
<circle class="st0" cx="18" cy="18" r="18"/>
<path class="st1" d="M28,26H8V14.8C8,14.4,8.4,14,8.8,14h18.3c0.5,0,0.8,0.4,0.8,0.8V26H28z"/>
<path class="st2" d="M28,26H8l19.9-11v11H28z"/>
<path class="st3" d="M27.4,12.1h-8.3c-0.2,0-0.4-0.1-0.5-0.2l-2.9-2.5C15.4,9.2,15,9,14.7,9H8.6C7.7,9,7,9.7,7,10.5V27h22V13.7
	C29,12.8,28.3,12.1,27.4,12.1z M28,26H8V14.8C8,14.4,8.4,14,8.8,14h18.3c0.5,0,0.8,0.4,0.8,0.8V26H28z"/>
<g id="fave_icon_-_selected_1_">
</g>
<g id="fave_icon_-_selected_2_">
</g>
</svg>
