<?xml version="1.0" encoding="utf-8"?>
<!-- Generator: Adobe Illustrator 19.2.1, SVG Export Plug-In . SVG Version: 6.00 Build 0)  -->
<svg version="1.1" id="Layer_1" xmlns="http://www.w3.org/2000/svg" xmlns:xlink="http://www.w3.org/1999/xlink" x="0px" y="0px"
	 viewBox="0 0 36 36" style="enable-background:new 0 0 36 36;" xml:space="preserve">
<style type="text/css">
	.st0{fill:#E08E18;}
	.st1{fill:#FFFFFF;}
</style>
<g>
	<g>
		<g>
			<circle class="st0" cx="18" cy="18" r="18"/>
		</g>
	</g>
	<g>
		<path class="st1" d="M30.7,14.3l-2.5-2.5c0,0,0,0,0,0c-0.5,0.5-1.2,0.8-1.9,0.8c-0.7,0-1.4-0.3-1.9-0.8c0,0,0,0,0,0c0,0,0,0,0,0
			c-1.1-1.1-1.1-2.8,0-3.9c0,0,0,0,0,0l-2.5-2.5c-0.1-0.1-0.3-0.2-0.5-0.2c-0.2,0-0.4,0.1-0.5,0.2l-4.2,4.2l1.6,1.6l-0.7,0.7
			l-1.6-1.6L5.2,20.7C5.1,20.9,5,21.1,5,21.3c0,0.2,0.1,0.4,0.2,0.5l2.5,2.5c0,0,0,0,0,0c1.1-1.1,2.8-1.1,3.9,0c0,0,0,0,0,0
			c0,0,0,0,0,0c1.1,1.1,1.1,2.8,0,3.9c0,0,0,0,0,0l0.1,0.1l2.4,2.4c0.3,0.3,0.8,0.3,1.1,0l10.6-10.6l-1.6-1.6l0.7-0.7l1.6,1.6
			l4.2-4.2C31,15,31,14.6,30.7,14.3z M20.2,14.6L18.6,13l0.7-0.7l1.6,1.6L20.2,14.6z M23,17.4l-1.6-1.6l0.7-0.7l1.6,1.6L23,17.4z"/>
		<path class="st0" d="M14.7,31.1c-0.2,0-0.5-0.1-0.6-0.3l-2.6-2.6l0.1-0.1c0.5-0.5,0.8-1.1,0.8-1.8c0-0.7-0.3-1.3-0.7-1.8h-0.1
			l0-0.1c-1-1-2.6-1-3.7,0l-0.1,0.1l-0.1-0.1l-2.5-2.5c-0.2-0.2-0.3-0.4-0.3-0.6c0-0.2,0.1-0.5,0.3-0.6L15.8,10l1.6,1.6l0.5-0.5
			l-1.6-1.6l4.3-4.3c0.3-0.3,0.9-0.3,1.2,0l2.6,2.6L24.3,8c-0.5,0.5-0.8,1.2-0.8,1.9c0,0.7,0.3,1.4,0.8,1.9c0.5,0.5,1.2,0.8,1.9,0.8
			c0.7,0,1.4-0.3,1.9-0.8c0,0,0,0,0,0l0.1-0.1l2.6,2.6c0.3,0.3,0.3,0.9,0,1.2l-4.3,4.3l-1.6-1.6l-0.5,0.5l1.6,1.6l-0.1,0.1
			L15.4,30.9C15.2,31,15,31.1,14.7,31.1z M11.8,28.2l2.5,2.5c0.2,0.2,0.6,0.2,0.9,0l10.5-10.5L24,18.6l0.9-0.9l1.6,1.6l4.1-4.1
			c0.2-0.2,0.2-0.6,0-0.9l-2.5-2.5c-0.5,0.5-1.2,0.8-2,0.8c-0.8,0-1.5-0.3-2-0.8l0,0c-0.5-0.5-0.8-1.3-0.8-2c0-0.7,0.3-1.4,0.8-2
			l-2.5-2.5c-0.2-0.2-0.7-0.2-0.9,0l-4.1,4.1l1.6,1.6L17.4,12l-1.6-1.6L5.3,20.8c-0.1,0.1-0.2,0.3-0.2,0.4c0,0.2,0.1,0.3,0.2,0.4
			l2.5,2.5c1.1-1,2.8-1,3.9,0l0,0c0,0,0,0,0,0l0,0c0.5,0.5,0.8,1.2,0.8,2C12.6,27,12.3,27.7,11.8,28.2z M23,17.6l-1.8-1.8l0.9-0.9
			l1.8,1.8L23,17.6z M21.6,15.8l1.4,1.4l0.5-0.5l-1.4-1.4L21.6,15.8z M20.2,14.8L18.4,13l0.9-0.9l1.8,1.8L20.2,14.8z M18.8,13
			l1.4,1.4l0.5-0.5l-1.4-1.4L18.8,13z"/>
	</g>
</g>
</svg>
