<?xml version="1.0" encoding="utf-8"?>
<!-- Generator: Adobe Illustrator 19.2.1, SVG Export Plug-In . SVG Version: 6.00 Build 0)  -->
<svg version="1.1" id="Layer_1" xmlns="http://www.w3.org/2000/svg" xmlns:xlink="http://www.w3.org/1999/xlink" x="0px" y="0px"
	 viewBox="0 0 32 32" style="enable-background:new 0 0 32 32;" xml:space="preserve">
<style type="text/css">
	.st0{fill:#FFFFFF;}
	.st1{fill:#667F6D;}
</style>
<circle class="st0" cx="16" cy="16" r="16"/>
<circle class="st1" cx="16" cy="16" r="14.9"/>
<circle class="st0" cx="16" cy="16" r="16"/>
<circle class="st1" cx="16" cy="16" r="14.9"/>
<g id="Layer_7">
</g>
<path class="st0" d="M17.1,15H23V9l-4-4H9C7.9,5,7,5.9,7,7v16c0,1.1,0.9,2,2,2h6v-7.9C15,15.9,16,15,17.1,15z"/>
<path class="st0" d="M17.1,16c-0.6,0-1.1,0.5-1.1,1.1v8.8c0,0.6,0.5,1.1,1.1,1.1h6.8c0.6,0,1.1-0.5,1.1-1.1v-7.7L22.8,16H17.1z"/>
<polygon class="st1" points="19,6 19,9 22,9 "/>
<polygon class="st1" points="22,17 22,19 24,19 "/>
</svg>
