<?xml version="1.0" encoding="UTF-8"?>
<!-- Generator: Adobe Illustrator 19.2.1, SVG Export Plug-In . SVG Version: 6.00 Build 0)  -->
<svg version="1.1" id="Layer_1" xmlns="http://www.w3.org/2000/svg" xmlns:xlink="http://www.w3.org/1999/xlink" x="0px" y="0px" viewBox="0 0 32 32" enable-background="new 0 0 32 32" xml:space="preserve">
<g id="Layer_1_1_" display="none">
	<g id="Layer_1_11_" display="inline">
		<g>
			<circle fill="#FFFFFF" cx="16" cy="16" r="15.973"/>
			<circle fill="#188FE0" cx="16" cy="16" r="14.939"/>
		</g>
	</g>
	<path display="inline" fill="#FFFFFF" d="M19.372,6.228h-8.43c-1.67,0-3.029,1.359-3.029,3.029v13.487   c0,1.67,1.359,3.029,3.029,3.029h10.115c1.67,0,3.029-1.359,3.029-3.029V10.728L19.372,6.228z M19.34,7.601l3.281,3.114H19.34   V7.601z M21.058,24.772H10.942c-1.119,0-2.029-0.91-2.029-2.029V9.256c0-1.119,0.91-2.029,2.029-2.029h7.397v4.487h4.747v11.028   C23.087,23.862,22.177,24.772,21.058,24.772z"/>
	<polygon display="inline" fill="#FFFFFF" points="18.97,7.228 18.97,10.921 23.638,10.921 19.34,6.843  "/>
	<g display="inline">
		<path fill="#FFFFFF" d="M13.699,14.162l-1.106-2.38h1.036c0.074,0,0.128,0.01,0.159,0.03c0.031,0.02,0.058,0.053,0.079,0.1    l0.672,1.61c0.012-0.023,0.024-0.045,0.038-0.066c0.015-0.021,0.029-0.044,0.046-0.07l0.896-1.456    c0.033-0.054,0.068-0.091,0.107-0.114c0.038-0.022,0.084-0.033,0.138-0.033h1.197l-1.697,2.324l1.229,2.775H15.47    c-0.074,0-0.133-0.019-0.175-0.056s-0.072-0.079-0.091-0.126l-0.753-1.873c-0.009,0.017-0.02,0.032-0.029,0.046    c-0.011,0.014-0.021,0.028-0.03,0.042L13.265,16.7c-0.044,0.067-0.096,0.115-0.153,0.142c-0.059,0.027-0.122,0.04-0.189,0.04    h-1.141L13.699,14.162z"/>
	</g>
	<g display="inline">
		<rect x="11.781" y="21.18" fill="#FFFFFF" width="8.438" height="1"/>
		<polygon fill="#FFFFFF" points="11.781,18.382 11.781,19.382 16.684,19.382 16.684,19.382 16.684,18.382   "/>
	</g>
</g>
<g id="Layer_2">
	<g id="Layer_1_2_">
		<g>
			<circle fill="#FFFFFF" cx="16" cy="16" r="15.973"/>
			<circle fill="#0071C5" cx="16" cy="16" r="14.939"/>
		</g>
	</g>
	<g>
		<path fill="#005B93" d="M23.924,10.292l-1.338-1.338c-0.379-0.378-0.894-0.592-1.43-0.592h-4.394    c-0.535-0.001-1.05,0.213-1.428,0.592l-8.718,8.718c-0.79,0.789-0.79,2.07,0,2.859l5.732,5.731c0.79,0.79,2.07,0.79,2.859,0    l8.717-8.717c0.38-0.379,0.593-0.638,0.593-1.17v-4.653C24.516,11.185,24.303,10.671,23.924,10.292z M14.398,23.708    c-0.239,0.239-0.632,0.239-0.872,0l-4.359-4.359c-0.239-0.239-0.239-0.632,0-0.872s0.632-0.239,0.872,0l4.359,4.359    C14.637,23.077,14.637,23.469,14.398,23.708z M16.141,21.965c-0.239,0.239-0.632,0.239-0.872,0l-4.358-4.359    c-0.239-0.239-0.239-0.632,0-0.872c0.239-0.239,0.632-0.239,0.872,0l4.359,4.359C16.382,21.334,16.382,21.726,16.141,21.965z     M17.885,20.222c-0.239,0.239-0.632,0.239-0.872,0l-4.359-4.359c-0.239-0.239-0.239-0.632,0-0.872    c0.239-0.239,0.632-0.239,0.872,0l4.359,4.359C18.125,19.589,18.125,19.983,17.885,20.222z M20.908,12.921    c-0.472-0.087-0.859-0.471-0.952-0.943c-0.167-0.854,0.568-1.59,1.422-1.427c0.47,0.091,0.856,0.477,0.945,0.95    C22.484,12.35,21.757,13.078,20.908,12.921z"/>
		<path fill="#FFFFFF" d="M23.924,9.238L22.585,7.9c-0.379-0.378-0.894-0.592-1.43-0.592h-4.394    c-0.535-0.001-1.05,0.213-1.428,0.592l-8.718,8.718c-0.79,0.789-0.79,2.07,0,2.859l5.732,5.731c0.79,0.79,2.07,0.79,2.859,0    l8.717-8.717c0.38-0.379,0.593-0.638,0.593-1.17v-4.653C24.516,10.131,24.303,9.617,23.924,9.238z M14.398,22.654    c-0.239,0.239-0.632,0.239-0.872,0l-4.359-4.359c-0.239-0.239-0.239-0.632,0-0.872s0.632-0.239,0.872,0l4.359,4.359    C14.637,22.023,14.637,22.415,14.398,22.654z M16.141,20.911c-0.239,0.239-0.632,0.239-0.872,0l-4.358-4.359    c-0.239-0.239-0.239-0.632,0-0.872c0.239-0.239,0.632-0.239,0.872,0l4.359,4.359C16.382,20.28,16.382,20.672,16.141,20.911z     M17.885,19.168c-0.239,0.239-0.632,0.239-0.872,0l-4.359-4.359c-0.239-0.239-0.239-0.632,0-0.872    c0.239-0.239,0.632-0.239,0.872,0l4.359,4.359C18.125,18.536,18.125,18.929,17.885,19.168z M20.908,11.868    c-0.472-0.087-0.859-0.471-0.952-0.943c-0.167-0.854,0.568-1.59,1.422-1.427c0.47,0.091,0.856,0.477,0.945,0.95    C22.484,11.296,21.757,12.025,20.908,11.868z"/>
	</g>
</g>
</svg>