<?xml version="1.0" encoding="utf-8"?>
<!-- Generator: Adobe Illustrator 22.0.1, SVG Export Plug-In . SVG Version: 6.00 Build 0)  -->
<svg version="1.1" id="Layer_1" xmlns="http://www.w3.org/2000/svg" xmlns:xlink="http://www.w3.org/1999/xlink" x="0px" y="0px"
	 viewBox="0 0 36 36" style="enable-background:new 0 0 36 36;" xml:space="preserve">
<style type="text/css">
	.st0{fill:#C14884;}
	.st1{fill:#FFFFFF;}
	.st2{opacity:0.65;}
</style>
<title>Title_tradepartners</title>
<g>
	<circle class="st0" cx="18" cy="18" r="18"/>
	<g>
		<path class="st1" d="M15.5,14.1c0.2-0.2,0.3-0.4,0.4-0.7c0.2-0.4,0.3-0.7,0.4-1.1c0.1,0,0.2-0.1,0.3-0.3c0.1-0.2,0.2-0.4,0.2-0.6
			c0.1-0.3,0-0.6-0.1-0.8c0,0,0-0.1,0-0.1c0.1-0.3,0.1-0.6,0.1-0.9c0-0.4-0.1-0.7-0.2-1.1c-0.2-0.6-0.5-1-1-1.4
			c-1.3-0.9-3-0.9-4.2,0c-0.5,0.3-0.8,0.8-1,1.4c-0.1,0.4-0.1,0.7-0.2,1.1c0,0.3,0,0.6,0.1,0.9c0,0,0,0.1,0,0.1
			c-0.1,0.2-0.2,0.5-0.1,0.8c0,0.2,0.1,0.4,0.2,0.6c0.1,0.1,0.2,0.2,0.3,0.3c0.1,0.3,0.1,0.6,0.3,0.8c0.1,0.4,0.3,0.7,0.6,1
			c0.1,0.1,0.2,0.2,0.3,0.3c0.9,0.8,2.3,0.8,3.2,0C15.3,14.3,15.4,14.2,15.5,14.1z"/>
		<path class="st1" d="M11.7,16.5l-0.2-1.6c-0.1,0.1-0.2,0.2-0.3,0.2c-0.4,0.1-0.8,0.2-1.2,0.3c-0.6,0.1-1.1,0.2-1.7,0.5
			c-0.5,0.2-1,0.7-1.1,1.2c-0.2,0.6-0.3,1.1-0.3,1.7c0,0.1,0,0.2,0,0.3v0.7c0,0,0,0,0,0c0,0.8,0.6,1.4,1.4,1.4h4.2l0.5-5l-0.3-0.7
			L11.7,16.5z"/>
		<path class="st1" d="M20.1,18.8c0-0.6-0.1-1.2-0.3-1.7c-0.2-0.6-0.6-1-1.1-1.2c-0.5-0.2-1.1-0.4-1.7-0.5c-0.4-0.1-0.8-0.2-1.2-0.3
			c-0.1-0.1-0.2-0.1-0.3-0.2l-0.2,1.7l-0.9-1.1L14,16.1l0.5,5h4.2c0.8,0,1.4-0.6,1.4-1.4v-0.7C20.1,19,20.1,18.9,20.1,18.8z"/>
		<g class="st2">
			<path class="st1" d="M24.5,12.8c0.2-0.2,0.3-0.4,0.4-0.7c0.2-0.4,0.3-0.7,0.4-1.1c0.1,0,0.2-0.1,0.3-0.3c0.1-0.2,0.2-0.4,0.2-0.6
				c0.1-0.3,0-0.6-0.1-0.8c0,0,0-0.1,0-0.1c0.1-0.3,0.1-0.6,0.1-0.9c0-0.4-0.1-0.7-0.2-1.1c-0.2-0.6-0.5-1-1-1.4
				c-1.3-0.9-3-0.9-4.2,0c-0.5,0.3-0.8,0.8-1,1.4c-0.1,0.3-0.1,0.7-0.2,1.1c0,0.3,0,0.6,0.1,0.9c0,0,0,0.1,0,0.1
				c-0.1,0.2-0.2,0.5-0.1,0.8c0,0.2,0.1,0.4,0.2,0.6c0.1,0.1,0.2,0.2,0.3,0.3c0.1,0.3,0.1,0.6,0.3,0.8c0.1,0.4,0.3,0.7,0.6,1
				c0.1,0.1,0.2,0.2,0.3,0.3c0.9,0.8,2.3,0.8,3.2,0C24.3,13,24.4,12.9,24.5,12.8z"/>
			<path class="st1" d="M29.1,17.4c0-0.6-0.1-1.2-0.3-1.7c-0.2-0.6-0.6-1-1.1-1.2c-0.5-0.2-1.1-0.4-1.7-0.5
				c-0.4-0.1-0.8-0.2-1.2-0.3c-0.1-0.1-0.2-0.1-0.3-0.2l-0.2,1.7l-0.9-1.1L23,14.8l0.5,5h4.2c0.8,0,1.4-0.6,1.4-1.4v-0.7
				C29.1,17.6,29.1,17.5,29.1,17.4z"/>
			<path class="st1" d="M21.7,14.1l-1,1.1l-0.2-1.6c-0.1,0.1-0.2,0.2-0.3,0.2C19.8,13.9,19.4,14,19,14c-0.5,0.1-1,0.2-1.5,0.4
				c0.6,0.1,1.2,0.3,1.8,0.5c0.8,0.3,1.3,0.9,1.6,1.7c0.2,0.8,0.4,1.6,0.4,2.4c0,0.1,0,0.3,0,0.4v0.3h0.2l0.5-5L21.7,14.1z"/>
		</g>
	</g>
	<g>
		<path class="st1" d="M21.1,21.8c-0.3,0.3-0.3,0.6,0,0.9l2,2h-5.8c-0.4,0-0.6,0.3-0.6,0.6s0.3,0.6,0.6,0.6h5.8l-2,2
			c-0.3,0.3-0.3,0.6,0,0.9c0.3,0.3,0.6,0.3,0.9,0l3.5-3.5L22,21.8C21.7,21.6,21.3,21.6,21.1,21.8z"/>
		<path class="st1" d="M14.9,31.6c0.3-0.3,0.3-0.6,0-0.9l-2-2h5.8c0.4,0,0.6-0.3,0.6-0.6s-0.3-0.6-0.6-0.6h-5.8l2-2
			c0.3-0.3,0.3-0.6,0-0.9c-0.3-0.3-0.6-0.3-0.9,0L10.5,28l3.5,3.5C14.3,31.8,14.7,31.8,14.9,31.6z"/>
	</g>
</g>
</svg>
