<?xml version="1.0" encoding="utf-8"?>
<!-- Generator: Adobe Illustrator 19.2.1, SVG Export Plug-In . SVG Version: 6.00 Build 0)  -->
<svg version="1.1" id="Layer_1" xmlns="http://www.w3.org/2000/svg" xmlns:xlink="http://www.w3.org/1999/xlink" x="0px" y="0px"
	 viewBox="0 0 36 36" style="enable-background:new 0 0 36 36;" xml:space="preserve">
<style type="text/css">
	.st0{fill:#9370B1;}
	.st1{fill:#FFFFFF;}
	.st2{opacity:0.6;fill:#FFFFFF;}
</style>
<g>
	<g>
		<g>
			<circle class="st0" cx="18" cy="18" r="18"/>
		</g>
	</g>
	<g>
		<g>
			<path class="st1" d="M5,21h7v-7H5V21z M6,15h5v5H6V15z"/>
			<path class="st1" d="M27,14V7h-7v3h-5v16h5v3h7v-7h-7v3h-4V11h4v3H27z M21,23h5v5h-5v-1v-1V23z M21,8h5v5h-5v-2v-1V8z"/>
		</g>
		<rect x="11" y="17" class="st1" width="5" height="1"/>
	</g>
	<rect x="21" y="8" class="st2" width="5" height="5"/>
	<rect x="21" y="23" class="st2" width="5" height="5"/>
	<rect x="6" y="15" class="st2" width="5" height="5"/>
</g>
</svg>
