<?xml version="1.0" encoding="UTF-8" standalone="no"?>
<!-- Generator: Adobe Illustrator 19.1.0, SVG Export Plug-In . SVG Version: 6.00 Build 0)  -->

<svg
   xmlns:dc="http://purl.org/dc/elements/1.1/"
   xmlns:cc="http://creativecommons.org/ns#"
   xmlns:rdf="http://www.w3.org/1999/02/22-rdf-syntax-ns#"
   xmlns:svg="http://www.w3.org/2000/svg"
   xmlns="http://www.w3.org/2000/svg"
   xmlns:sodipodi="http://sodipodi.sourceforge.net/DTD/sodipodi-0.dtd"
   xmlns:inkscape="http://www.inkscape.org/namespaces/inkscape"
   version="1.1"
   id="Layer_1"
   x="0px"
   y="0px"
   viewBox="0 0 32 32"
   enable-background="new 0 0 32 32"
   xml:space="preserve"
   inkscape:version="0.91 r13725"
   sodipodi:docname="title_preview_or.svg"><metadata
     id="metadata20"><rdf:RDF><cc:Work
         rdf:about=""><dc:format>image/svg+xml</dc:format><dc:type
           rdf:resource="http://purl.org/dc/dcmitype/StillImage" /><dc:title></dc:title></cc:Work></rdf:RDF></metadata><defs
     id="defs18" /><sodipodi:namedview
     pagecolor="#ffffff"
     bordercolor="#666666"
     borderopacity="1"
     objecttolerance="10"
     gridtolerance="10"
     guidetolerance="10"
     inkscape:pageopacity="0"
     inkscape:pageshadow="2"
     inkscape:window-width="2560"
     inkscape:window-height="1018"
     id="namedview16"
     showgrid="false"
     inkscape:zoom="7.375"
     inkscape:cx="-2.9152542"
     inkscape:cy="16"
     inkscape:window-x="1592"
     inkscape:window-y="-8"
     inkscape:window-maximized="1"
     inkscape:current-layer="Layer_1" /><g
     id="Layer_1_7_"><g
       id="g4"><circle
         fill="#FFFFFF"
         cx="16"
         cy="16"
         r="15.973"
         id="circle6" /><circle
         fill="#D86D00"
         cx="16"
         cy="16"
         r="14.939"
         id="circle8" /></g></g><path
     fill="#FFFFFF"
     d="M26.031,9.907c0-0.827-0.673-1.5-1.5-1.5H7.469c-0.827,0-1.5,0.673-1.5,1.5v12.186  c0,0.827,0.673,1.5,1.5,1.5h17.062c0.827,0,1.5-0.673,1.5-1.5 M7.469,9.407h17.062c0.275,0,0.5,0.224,0.5,0.5v1.725H6.969V9.907  C6.969,9.631,7.193,9.407,7.469,9.407z M24.531,22.593H7.469c-0.276,0-0.5-0.225-0.5-0.5v-9.461h18.062v9.461  C25.031,22.368,24.807,22.593,24.531,22.593z"
     id="path10" /><g
     id="g12"><path
       fill="#FFFFFF"
       d="M16,20.322c-3.005,0-4.608-2.458-4.608-2.936s1.603-2.936,4.608-2.936s4.608,2.458,4.608,2.936   S19.004,20.322,16,20.322z M16.009,15.515c-1.037,0-1.881,0.84-1.881,1.872s0.844,1.872,1.881,1.872   c1.027,0,1.863-0.84,1.863-1.872S17.036,15.515,16.009,15.515z M16.009,18.549c-0.631,0-1.144-0.521-1.144-1.162   c0-0.641,0.513-1.162,1.144-1.162c0.078,0,0.144,0.031,0.188,0.088c0.096,0.125,0.046,0.313-0.017,0.551   c-0.031,0.118-0.096,0.362-0.064,0.42c0.004,0,0,0,0,0c0.084,0,0.244-0.031,0.371-0.063c0.14-0.035,0.272-0.068,0.378-0.068   c0.2,0,0.27,0.126,0.27,0.233C17.135,18.028,16.63,18.549,16.009,18.549z"
       id="path14" /></g><path
     style="fill:#dd8100;fill-opacity:1"
     d="M 13.627119,30.679656 C 10.478514,30.181867 7.5952687,28.660414 5.3296058,26.301158 2.3582651,23.207073 1.0096142,19.629167 1.1887465,15.31566 1.4745602,8.4332639 6.3072094,2.8303863 13.201766,1.3880035 c 1.394535,-0.291745 4.221353,-0.2872618 5.645692,0.00895 4.694439,0.9762889 8.435631,3.86554 10.513238,8.1191738 1.653319,3.3849587 1.947281,7.4324327 0.798848,10.9991227 -0.738335,2.293051 -1.756905,3.982101 -3.489149,5.785904 -3.39944,3.539867 -8.185503,5.146502 -13.043276,4.378498 z M 25.055203,23.51702 c 0.239977,-0.101573 0.558356,-0.321492 0.707509,-0.488711 0.262103,-0.293851 0.272447,-0.523814 0.308843,-6.865636 0.04142,-7.2174536 0.04841,-7.1494658 -0.778981,-7.577327 -0.599015,-0.3097623 -17.9861337,-0.3097623 -18.585148,0 -0.8137623,0.4208129 -0.8091701,0.3787042 -0.8086141,7.4147 4.882e-4,6.191299 0.00998,6.429047 0.273857,6.861859 0.5172855,0.848448 0.2847691,0.828644 9.7977881,0.834483 7.003178,0.0043 8.731428,-0.02982 9.084746,-0.179368 z"
     id="path4156"
     inkscape:connector-curvature="0" /><path
     style="fill:#dd8100;fill-opacity:1"
     d="M 7.0653544,22.266876 C 7.0200875,22.148912 6.9830508,19.952302 6.9830508,17.38552 l 0,-4.666876 9.0169492,0 9.016949,0 0,4.666876 c 0,2.566782 -0.03704,4.763392 -0.0823,4.881356 -0.07389,0.192547 -0.987551,0.21448 -8.934645,0.21448 -7.9470947,0 -8.8607584,-0.02193 -8.9346456,-0.21448 z M 18.279038,19.837579 c 0.899015,-0.446323 1.999377,-1.464736 2.25849,-2.09029 C 20.69912,17.357172 20.68142,17.271271 20.318479,16.684228 19.470522,15.31269 17.802591,14.449612 16,14.449612 c -1.802591,0 -3.470522,0.863078 -4.318478,2.234616 -0.35198,0.569313 -0.377227,0.681189 -0.232547,1.030478 0.204304,0.493232 1.088304,1.420199 1.756832,1.842222 0.957735,0.604591 1.61154,0.760407 2.997583,0.714387 1.095735,-0.03638 1.405761,-0.101165 2.075648,-0.433736 z"
     id="path4158"
     inkscape:connector-curvature="0" /><path
     style="fill:#dd8100;fill-opacity:1"
     d="m 6.9830508,10.711864 c 0,-0.536346 0.068062,-0.990096 0.1627119,-1.0847454 0.2351799,-0.2351798 17.4732953,-0.2351798 17.7084743,0 0.09465,0.094649 0.162712,0.5483994 0.162712,1.0847454 l 0,0.922034 -9.016949,0 -9.0169492,0 0,-0.922034 z"
     id="path4160"
     inkscape:connector-curvature="0" /></svg>