<?xml version="1.0" encoding="utf-8"?>
<!-- Generator: Adobe Illustrator 18.1.0, SVG Export Plug-In . SVG Version: 6.00 Build 0)  -->
<!DOCTYPE svg PUBLIC "-//W3C//DTD SVG 1.1//EN" "http://www.w3.org/Graphics/SVG/1.1/DTD/svg11.dtd">
<svg version="1.1" id="Layer_1" xmlns="http://www.w3.org/2000/svg" xmlns:xlink="http://www.w3.org/1999/xlink" x="0px" y="0px"
	 viewBox="0 0 18 18" enable-background="new 0 0 18 18" xml:space="preserve">
<path fill="#FFFFFF" d="M9.893,8.877l2.829-2.83c0.37-0.37,0.37-0.971,0-1.341c-0.371-0.37-0.971-0.37-1.342,0L8.552,7.536
	L5.722,4.707c-0.37-0.369-0.97-0.37-1.342,0c-0.37,0.37-0.37,0.971,0,1.341l2.829,2.83l-2.829,2.829c-0.37,0.371-0.37,0.971,0,1.342
	c0.186,0.185,0.429,0.277,0.671,0.277s0.485-0.093,0.671-0.277l2.829-2.829l2.829,2.829c0.186,0.185,0.428,0.277,0.671,0.277
	c0.242,0,0.485-0.093,0.671-0.277c0.37-0.371,0.37-0.971,0-1.342L9.893,8.877z"/>
</svg>
