<?xml version="1.0" encoding="utf-8"?>
<!-- Generator: Adobe Illustrator 19.1.0, SVG Export Plug-In . SVG Version: 6.00 Build 0)  -->
<svg version="1.1" id="Layer_1" xmlns="http://www.w3.org/2000/svg" xmlns:xlink="http://www.w3.org/1999/xlink" x="0px" y="0px"
	 viewBox="0 0 48 48" enable-background="new 0 0 48 48" xml:space="preserve">
<polygon fill="#262626" points="48,20 48,4 32,4 32,10 25.6,10 22,10 22,13.8 22,23 16,23 16,17 0,17 0,33 16,33 16,27 22,27 
	22,36.2 22,40 25.6,40 32,40 32,46 48,46 48,30 32,30 32,36 26,36 26,26.6 26,23.4 26,14 32,14 32,20 "/>
</svg>
