<?xml version="1.0" encoding="utf-8"?>
<!-- Generator: Adobe Illustrator 19.2.1, SVG Export Plug-In . SVG Version: 6.00 Build 0)  -->
<svg version="1.1" id="Layer_2" xmlns="http://www.w3.org/2000/svg" xmlns:xlink="http://www.w3.org/1999/xlink" x="0px" y="0px"
	 viewBox="0 0 24 24" enable-background="new 0 0 24 24" xml:space="preserve">
<g>
	<path fill="#6D6F71" d="M19.843,2.911c-0.258-0.134-0.546-0.218-0.856-0.218H1.876c-0.31,0-0.597,0.084-0.856,0.218l9.411,6.099
		L19.843,2.911z"/>
	<g>
		<circle fill="#333333" cx="17.362" cy="17.362" r="6.638"/>
		<path fill="#FFFFFF" d="M20.913,18.742l-0.653-0.67V16.83c0-1.239-0.733-2.302-1.831-2.733c-0.11-0.496-0.547-0.867-1.067-0.867
			c-0.52,0-0.956,0.372-1.067,0.867c-1.099,0.431-1.831,1.494-1.831,2.733v1.242l-0.653,0.67c-0.058,0.059-0.09,0.139-0.09,0.221
			v0.946c0,0.17,0.138,0.307,0.307,0.307h2.053c0.002,0.68,0.599,1.276,1.279,1.276c0.68,0,1.277-0.596,1.279-1.276h2.053
			c0.17,0,0.307-0.138,0.307-0.307v-0.946C21.003,18.881,20.97,18.801,20.913,18.742z M17.363,20.878
			c-0.364,0-0.661-0.343-0.663-0.66h1.326C18.025,20.536,17.726,20.878,17.363,20.878z M20.387,19.603h-6.049v-0.518l0.743-0.762
			c0-0.73,0-1.36,0-1.492c0-1.122,0.743-2.044,1.804-2.268c0-0.114,0-0.196,0-0.218c0-0.265,0.212-0.498,0.478-0.498
			s0.478,0.232,0.478,0.498c0,0.022,0,0.104,0,0.218c1.062,0.224,1.804,1.147,1.804,2.268c0,0.166,0,0.762,0,1.492l0.743,0.762
			V19.603z"/>
	</g>
	<g>
		<path fill="#6D6F71" d="M17.362,9.702c1.261,0,2.449,0.312,3.499,0.854V4.569c0-0.197-0.039-0.384-0.096-0.563l-10.332,6.697
			L0.098,4.007C0.04,4.185,0,4.372,0,4.569v10.575c0,1.032,0.845,1.875,1.875,1.875H9.72C9.901,12.955,13.254,9.702,17.362,9.702z"
			/>
	</g>
</g>
</svg>
