<?xml version="1.0" encoding="utf-8"?>
<!-- Generator: Adobe Illustrator 19.1.0, SVG Export Plug-In . SVG Version: 6.00 Build 0)  -->
<!DOCTYPE svg PUBLIC "-//W3C//DTD SVG 1.1//EN" "http://www.w3.org/Graphics/SVG/1.1/DTD/svg11.dtd">
<svg version="1.1" id="Layer_1" xmlns="http://www.w3.org/2000/svg" xmlns:xlink="http://www.w3.org/1999/xlink" x="0px" y="0px"
	 viewBox="-707 439 24 24" enable-background="new -707 439 24 24" xml:space="preserve">
<g id="edit_icon">
	<path fill="#333333" d="M-688.501,455.004c-1.028,0-1.943,0.451-2.584,1.157l-7.148-3.943c0.141-0.38,0.229-0.786,0.229-1.214
		c0-0.429-0.088-0.835-0.229-1.214l7.148-3.943c0.64,0.706,1.556,1.157,2.584,1.157c1.934-0.002,3.501-1.57,3.501-3.503
		c0-1.933-1.567-3.501-3.501-3.501c-1.934,0-3.501,1.567-3.501,3.501c0,0.183,0.027,0.359,0.054,0.535l-7.505,4.141
		c-0.577-0.42-1.282-0.675-2.051-0.675c-1.933,0-3.501,1.567-3.501,3.501c0,1.934,1.567,3.501,3.501,3.501
		c0.769,0,1.473-0.255,2.051-0.675l7.506,4.141c-0.027,0.176-0.054,0.352-0.054,0.535c0,1.933,1.567,3.501,3.501,3.501
		s3.5-1.568,3.5-3.502S-686.567,455.004-688.501,455.004z"/>
</g>
</svg>
