<svg xmlns="http://www.w3.org/2000/svg" viewBox="0 0 24 24"><defs><style>.cls-1{fill:#fff;}.cls-2{fill:none;}</style></defs><title>toolbarAsset 10</title><g id="Layer_2" data-name="Layer 2"><g id="Layer_1-2" data-name="Layer 1"><g id="edit_icon" data-name="edit icon"><path class="cls-1" d="M17.07,23H6.94A1.94,1.94,0,0,1,5,21.07V2.93A1.94,1.94,0,0,1,6.94,1H17.07A1.94,1.94,0,0,1,19,2.93V21.07A1.94,1.94,0,0,1,17.07,23ZM18,4H6V20H18Z"/><path class="cls-1" d="M16.71,11.29a1,1,0,0,0-1.41,0L13,13.59V8a1,1,0,0,0-2,0v5.59l-2.29-2.3A1,1,0,0,0,7.3,12.7L12,17.41l4.71-4.71A1,1,0,0,0,16.71,11.29Z"/><rect class="cls-2" width="24" height="24"/><rect class="cls-2" width="24" height="24"/></g></g></g></svg>