<svg xmlns="http://www.w3.org/2000/svg" viewBox="0 0 24 24"><defs><style>.cls-1{fill:none;}.cls-2,.cls-3{fill:#fff;}.cls-2{opacity:0.2;}</style></defs><title>toolbarAsset 11</title><g id="Layer_2" data-name="Layer 2"><g id="Layer_1-2" data-name="Layer 1"><g id="edit_icon" data-name="edit icon"><rect class="cls-1" width="24" height="24"/><rect class="cls-1" width="24" height="24"/><path class="cls-2" d="M12.45,3l2.61,5.3a.5.5,0,0,0,.38.27l5.85.85a.5.5,0,0,1,.28.85l-4.23,4.12a.5.5,0,0,0-.14.44l1,5.82a.5.5,0,0,1-.73.53l-5.23-2.75a.5.5,0,0,0-.47,0L6.54,21.2a.5.5,0,0,1-.72-.53l1-5.82a.5.5,0,0,0-.14-.44L2.44,10.29a.5.5,0,0,1,.27-.85l5.85-.85a.5.5,0,0,0,.38-.27L11.55,3A.5.5,0,0,1,12.45,3Z"/><g id="fave_icon" data-name="fave icon"><path class="cls-3" d="M6.31,21.76a1,1,0,0,1-1-1.17l1-5.82L2.09,10.65a1,1,0,0,1,.55-1.71l5.85-.85,2.61-5.3a1,1,0,0,1,.9-.56h0a1,1,0,0,1,.9.56l2.61,5.3,5.85.85a1,1,0,0,1,.55,1.71l-4.23,4.12,1,5.82a1,1,0,0,1-1.45,1.05L12,18.9,6.77,21.65A1,1,0,0,1,6.31,21.76ZM12,17.9a1,1,0,0,1,.47.12l5.23,2.75-1-5.82a1,1,0,0,1,.29-.89l4.23-4.12-5.85-.85a1,1,0,0,1-.75-.55L12,3.24h0L9.39,8.53a1,1,0,0,1-.75.55l-5.85.85L7,14.05a1,1,0,0,1,.29.89l-1,5.82L11.54,18A1,1,0,0,1,12,17.9Z"/></g></g></g></g></svg>