<?xml version="1.0" encoding="utf-8"?>
<!-- Generator: Adobe Illustrator 19.1.0, SVG Export Plug-In . SVG Version: 6.00 Build 0)  -->
<!DOCTYPE svg PUBLIC "-//W3C//DTD SVG 1.1//EN" "http://www.w3.org/Graphics/SVG/1.1/DTD/svg11.dtd">
<svg version="1.1" id="Layer_1" xmlns="http://www.w3.org/2000/svg" xmlns:xlink="http://www.w3.org/1999/xlink" x="0px" y="0px"
	 viewBox="-707 439 24 24" enable-background="new -707 439 24 24" xml:space="preserve">
<g id="edit_icon">
	<g>
		<path fill="#6D6F71" d="M-698,447c0-1.657,1.343-3,3-3h2v-2l-3-3h-9c-1.105,0-2,0.895-2,2v14c0,1.105,0.895,2,2,2h7V447z"/>
	</g>
	<g>
		<g>
			<path fill="#333333" d="M-697,447v14c0,1.105,0.895,2,2,2h10c1.105,0,2-0.895,2-2v-13l-3-3h-9C-696.105,445-697,445.895-697,447z
				"/>
		</g>
	</g>
	<path fill="#FFFFFF" d="M-689,449.001c-0.552,0-1,0.447-1,1v2.403c-3.586-3.95-5.313-5.46-11.008-5.403
		c-0.552,0.004-0.996,0.455-0.992,1.008c0.004,0.55,0.451,0.992,1,0.992c0.002,0,0.005,0,0.008,0c4.972-0.062,6.081,0.95,9.741,5
		H-694c-0.552,0-1,0.447-1,1s0.448,1,1,1h6v-6C-688,449.448-688.448,449.001-689,449.001z"/>
</g>
</svg>
