<svg xmlns="http://www.w3.org/2000/svg" viewBox="0 0 24 24"><defs><style>.cls-1{fill:none;}.cls-2{fill:#fff;}</style></defs><title>toolbarAsset 8</title><g id="Layer_2" data-name="Layer 2"><g id="Layer_1-2" data-name="Layer 1"><g id="edit_icon" data-name="edit icon"><rect class="cls-1" width="24" height="24"/><rect class="cls-1" width="24" height="24"/><path class="cls-2" d="M18,1H5A2,2,0,0,0,3,3V21a2,2,0,0,0,2,2H19a2,2,0,0,0,2-2V4ZM16,17.83a1,1,0,0,1-2,0V13.46L7.88,19.58a1,1,0,0,1-1.43-1.43L12.58,12H8.16a1,1,0,1,1,0-2H16Z"/></g></g></g></svg>