<?xml version="1.0" encoding="utf-8"?>
<!-- Generator: Adobe Illustrator 19.1.0, SVG Export Plug-In . SVG Version: 6.00 Build 0)  -->
<!DOCTYPE svg PUBLIC "-//W3C//DTD SVG 1.1//EN" "http://www.w3.org/Graphics/SVG/1.1/DTD/svg11.dtd">
<svg version="1.1" id="Layer_1" xmlns="http://www.w3.org/2000/svg" xmlns:xlink="http://www.w3.org/1999/xlink" x="0px" y="0px"
	 viewBox="-707 439 24 24" enable-background="new -707 439 24 24" xml:space="preserve">
<g id="edit_icon">
	<g>
		<g>
			<path fill="#333333" d="M-687.888,449H-689v-4c0-3.3-2.7-6-6-6s-6,2.7-6,6v4h-1.112c-0.49,0-0.888,0.418-0.888,0.933v12.134
				c0,0.515,0.398,0.933,0.888,0.933h14.223c0.491,0,0.889-0.418,0.889-0.933v-12.134C-687,449.418-687.398,449-687.888,449z
				 M-699,445c0-2.206,1.794-4,4-4s4,1.794,4,4v4h-8V445z"/>
		</g>
	</g>
</g>
</svg>
