<svg xmlns="http://www.w3.org/2000/svg" viewBox="0 0 24 24"><defs><style>.cls-1{fill:#fff;}.cls-2{fill:none;}</style></defs><title>toolbarAsset 9</title><g id="Layer_2" data-name="Layer 2"><g id="Layer_1-2" data-name="Layer 1"><path class="cls-1" d="M17,20.33A1.67,1.67,0,0,1,15.33,22H3.67A1.67,1.67,0,0,1,2,20.33V3.67A1.67,1.67,0,0,1,3.67,2h9.92l2,2h0l.64-.64.06-.06L14,1H3.67A2.67,2.67,0,0,0,1,3.67V20.33A2.67,2.67,0,0,0,3.67,23H15.33A2.67,2.67,0,0,0,18,20.33V14.43l-1,1Z"/><path class="cls-1" d="M21.24,8.47a2.61,2.61,0,0,0,0-3.7h0a2.61,2.61,0,0,0-3.7,0l-.93.93,3.7,3.7Z"/><polygon class="cls-1" points="6.93 15.37 6 20 10.63 19.07 19.38 10.32 15.68 6.62 6.93 15.37"/><rect class="cls-2" width="24" height="24"/></g></g></svg>