<?xml version="1.0" encoding="utf-8"?>
<!-- Generator: Adobe Illustrator 19.2.1, SVG Export Plug-In . SVG Version: 6.00 Build 0)  -->
<svg version="1.1" id="Layer_1" xmlns="http://www.w3.org/2000/svg" xmlns:xlink="http://www.w3.org/1999/xlink" x="0px" y="0px"
	 viewBox="0 0 24 24" enable-background="new 0 0 24 24" xml:space="preserve">
<g id="edit_icon_1_">
	<g>
		<circle fill="#333333" cx="17" cy="17" r="7"/>
	</g>
	<g>
		<path fill="#6D6F71" d="M9,17c0-3.357,2.069-6.226,5-7.413V3l-3-3H2C0.895,0,0,0.895,0,2v14c0,1.105,0.895,2,2,2h7.069
			C9.028,17.672,9,17.339,9,17z"/>
	</g>
</g>
<g>
	<path fill="#FFFFFF" d="M20.793,18h-7.587c-0.552,0-1-0.447-1-1s0.448-1,1-1h7.587c0.553,0,1,0.447,1,1S21.346,18,20.793,18z"/>
</g>
</svg>
