<?xml version="1.0" encoding="utf-8"?>
<!-- Generator: Adobe Illustrator 21.0.2, SVG Export Plug-In . SVG Version: 6.00 Build 0)  -->
<svg version="1.1" id="Layer_1" xmlns="http://www.w3.org/2000/svg" xmlns:xlink="http://www.w3.org/1999/xlink" x="0px" y="0px"
	 viewBox="0 0 24 24" style="enable-background:new 0 0 24 24;" xml:space="preserve">
<style type="text/css">
	.st0{fill:none;}
	.st1{fill:#FFFFFF;}
</style>
<title>toolbarAsset 12</title>
<g id="Layer_2">
	<g id="Layer_1-2">
		<g id="edit_icon">
			<rect class="st0" width="24" height="24"/>
			<rect class="st0" width="24" height="24"/>
			<path class="st1" d="M12.4,3l2.6,5.3c0.1,0.1,0.2,0.2,0.4,0.3l5.8,0.9c0.3,0,0.5,0.3,0.4,0.6c0,0.1-0.1,0.2-0.1,0.3l-4.2,4.1
				c-0.1,0.1-0.2,0.3-0.1,0.4l1,5.8c0,0.3-0.1,0.5-0.4,0.6c-0.1,0-0.2,0-0.3-0.1l-5.2-2.8c-0.1-0.1-0.3-0.1-0.5,0l-5.2,2.8
				c-0.2,0.1-0.5,0-0.7-0.2c0-0.1-0.1-0.2,0-0.3l1-5.8c0-0.2,0-0.3-0.1-0.4l-4.2-4.1c-0.2-0.2-0.2-0.5,0-0.7
				c0.1-0.1,0.2-0.1,0.3-0.1l5.8-0.9c0.2,0,0.3-0.1,0.4-0.3L11.6,3c0.1-0.2,0.4-0.4,0.7-0.2C12.3,2.8,12.4,2.9,12.4,3z"/>
		</g>
	</g>
</g>
</svg>
