<?xml version="1.0" encoding="utf-8"?>
<!-- Generator: Adobe Illustrator 19.1.0, SVG Export Plug-In . SVG Version: 6.00 Build 0)  -->
<!DOCTYPE svg PUBLIC "-//W3C//DTD SVG 1.1//EN" "http://www.w3.org/Graphics/SVG/1.1/DTD/svg11.dtd">
<svg version="1.1" id="Layer_1" xmlns="http://www.w3.org/2000/svg" xmlns:xlink="http://www.w3.org/1999/xlink" x="0px" y="0px"
	 viewBox="-707 439 24 24" enable-background="new -707 439 24 24" xml:space="preserve">
<g id="edit_icon">
	<g>
		<path fill="#6D6F71" d="M-698,447c0-1.657,1.343-3,3-3h2v-2l-3-3h-9c-1.105,0-2,0.895-2,2v14c0,1.105,0.895,2,2,2h7V447z"/>
	</g>
	<g>
		<g>
			<path fill="#333333" d="M-697,447v14c0,1.105,0.895,2,2,2h10c1.105,0,2-0.895,2-2v-13l-3-3h-9C-696.105,445-697,445.895-697,447z
				"/>
		</g>
	</g>
	<path fill="#FFFFFF" d="M-687,453h-2v-2c0-0.552-0.448-1-1-1s-1,0.448-1,1v2h-2c-0.552,0-1,0.448-1,1s0.448,1,1,1h2v2
		c0,0.552,0.448,1,1,1s1-0.448,1-1v-2h2c0.552,0,1-0.448,1-1S-686.448,453-687,453z"/>
</g>
</svg>
