<?xml version="1.0" encoding="utf-8"?>
<!-- Generator: Adobe Illustrator 19.1.0, SVG Export Plug-In . SVG Version: 6.00 Build 0)  -->
<!DOCTYPE svg PUBLIC "-//W3C//DTD SVG 1.1//EN" "http://www.w3.org/Graphics/SVG/1.1/DTD/svg11.dtd">
<svg version="1.1" id="Layer_1" xmlns="http://www.w3.org/2000/svg" xmlns:xlink="http://www.w3.org/1999/xlink" x="0px" y="0px"
	 viewBox="-707 439 24 24" enable-background="new -707 439 24 24" xml:space="preserve">
<g id="edit_icon">
	<path fill="#333333" d="M-686.737,447.272c-0.587-0.587-1.538-0.587-2.126,0l-4.658,4.657v-11.424c0-0.83-0.672-1.503-1.503-1.503
		s-1.503,0.673-1.503,1.503v11.377l-4.611-4.61c-0.587-0.587-1.538-0.587-2.126,0c-0.588,0.587-0.587,1.538,0,2.126l8.264,8.262
		l8.263-8.262C-686.15,448.81-686.15,447.859-686.737,447.272z"/>
	<path fill="#333333" d="M-684.5,463.002h-21c-0.828,0-1.5-0.672-1.5-1.5l0,0c0-0.828,0.672-1.5,1.5-1.5h21
		c0.828,0,1.5,0.672,1.5,1.5l0,0C-683,462.33-683.672,463.002-684.5,463.002z"/>
</g>
</svg>
