<?xml version="1.0" encoding="utf-8"?>
<!-- Generator: Adobe Illustrator 19.1.0, SVG Export Plug-In . SVG Version: 6.00 Build 0)  -->
<!DOCTYPE svg PUBLIC "-//W3C//DTD SVG 1.1//EN" "http://www.w3.org/Graphics/SVG/1.1/DTD/svg11.dtd">
<svg version="1.1" id="Layer_1" xmlns="http://www.w3.org/2000/svg" xmlns:xlink="http://www.w3.org/1999/xlink" x="0px" y="0px"
	 viewBox="-707 439 24 24" enable-background="new -707 439 24 24" xml:space="preserve">
<g id="edit_icon">
	<g>
		<circle fill="#333333" cx="-690" cy="456" r="7"/>
	</g>
	<path fill="#FFFFFF" d="M-685,454.38l-2.939-2.939c-0.244-0.244-0.639-0.244-0.883,0c-0.244,0.244-0.244,0.639,0,0.883l1.432,1.432
		h-0.99c-3.571,0-5.62,2.049-5.62,5.62c0,0.345,0.279,0.624,0.624,0.624c0.345,0,0.624-0.279,0.624-0.624
		c0-1.994,0.759-4.371,4.371-4.371h0.99l-1.432,1.432c-0.244,0.244-0.244,0.639,0,0.883c0.122,0.122,0.282,0.183,0.441,0.183
		s0.32-0.061,0.441-0.183L-685,454.38z"/>
	<g>
		<path fill="#6D6F71" d="M-698,456c0-3.357,2.069-6.226,5-7.413V442l-3-3h-9c-1.105,0-2,0.895-2,2v14c0,1.105,0.895,2,2,2h7.069
			C-697.972,456.672-698,456.339-698,456z"/>
	</g>
</g>
</svg>
