<?xml version="1.0" encoding="utf-8"?>
<!-- Generator: Adobe Illustrator 19.2.1, SVG Export Plug-In . SVG Version: 6.00 Build 0)  -->
<svg version="1.1" id="Layer_1" xmlns="http://www.w3.org/2000/svg" xmlns:xlink="http://www.w3.org/1999/xlink" x="0px" y="0px"
	 viewBox="0 0 24 24" enable-background="new 0 0 24 24" xml:space="preserve">
<g>
	<g>
		<path fill="#666666" d="M0,20.1V3.525C0,1.875,1.575,0,3.9,0h16.2C22.35,0,24,1.65,24,3.9v16.2c0,2.25-1.65,3.9-3.9,3.9H3.9
			C1.65,24,0,22.35,0,20.1z"/>
	</g>
</g>
<g id="like_icon">
</g>
<g id="fave_icon">
</g>
<g id="fave_icon_-_selected">
</g>
<g id="comment_icon_-_selected">
</g>
<g id="Comment_icon">
</g>
<g id="fave_icon_-_selected_1_">
</g>
<g id="like_icon_-_selected">
</g>
<g id="copy_x2F_move_icon">
</g>
<g id="download_icon_2">
</g>
<g id="share_icon_2">
</g>
<g id="reserve_icon">
</g>
<g id="edit_icon">
	<g id="edit_icon_2">
	</g>
	<g id="trash_icon">
		<g id="trash">
		</g>
	</g>
	<g id="more_icon">
	</g>
</g>
<g id="metadata_2">
</g>
<g id="process_flow">
	<g>
		<g>
			
				<rect x="10.5" y="3.75" transform="matrix(0.7071 -0.7071 0.7071 0.7071 -0.353 10.3978)" fill="#FFFFFF" width="3.75" height="3.75"/>
			<path fill="#FFFFFF" d="M8.663,5.625l3.712,3.712l3.713-3.712l-3.713-3.713L8.663,5.625z"/>
		</g>
		<rect x="12" y="8.25" fill="#FFFFFF" width="0.75" height="3.75"/>
	</g>
	<g>
		<circle fill="#FFFFFF" cx="6.375" cy="17.625" r="2.625"/>
		<path fill="#FFFFFF" d="M6.375,20.75c-1.723,0-3.125-1.402-3.125-3.125S4.652,14.5,6.375,14.5S9.5,15.902,9.5,17.625
			S8.098,20.75,6.375,20.75z"/>
	</g>
	<polygon fill="#FFFFFF" points="17.25,15 18,15 18,11.25 6,11.25 6,14.999 6.75,14.999 6.75,12 17.25,12 	"/>
	<g>
		<circle fill="#FFFFFF" cx="17.625" cy="17.625" r="2.625"/>
		<path fill="#FFFFFF" d="M17.625,20.75c-1.723,0-3.125-1.402-3.125-3.125s1.402-3.125,3.125-3.125s3.125,1.402,3.125,3.125
			S19.348,20.75,17.625,20.75z"/>
	</g>
</g>
</svg>
