<?xml version="1.0" encoding="utf-8"?>
<!-- Generator: Adobe Illustrator 19.2.0, SVG Export Plug-In . SVG Version: 6.00 Build 0)  -->
<!DOCTYPE svg PUBLIC "-//W3C//DTD SVG 1.1//EN" "http://www.w3.org/Graphics/SVG/1.1/DTD/svg11.dtd">
<svg version="1.1" id="Layer_1" xmlns="http://www.w3.org/2000/svg" xmlns:xlink="http://www.w3.org/1999/xlink" x="0px" y="0px"
	 viewBox="0 0 32 32" enable-background="new 0 0 32 32" xml:space="preserve">
<g id="Ppt">
</g>
<g id="Small_Folder">
</g>
<g id="fave_icon_-_selected">
</g>
<g id="Shortcut_1_">
</g>
<g id="comment_icon_-_selected">
</g>
<g id="Comment_icon">
</g>
<g>
	<path fill="#FFFFFF" d="M20.833,3h-8.132c-0.022-0.012-0.067-0.041-0.15-0.106L9.739,0.519C9.308,0.177,8.809,0,8.309,0H2.167
		C0.972,0,0,0.976,0,2.176V18v1h1h21h1v-1V5.167C23,3.972,22.028,3,20.833,3z"/>
	<g>
		<g>
			<path fill="#B36601" d="M0.5,18.5V2.177C0.5,1.252,1.248,0.5,2.167,0.5h6.142c0.388,0,0.776,0.139,1.095,0.391l2.85,2.405
				C12.438,3.441,12.554,3.5,12.667,3.5h8.166c0.919,0,1.667,0.748,1.667,1.667V18.5H0.5z"/>
			<g>
				<path fill="#FFFFFF" d="M8.309,1C8.594,1,8.87,1.106,9.094,1.283l2.837,2.395C12.154,3.855,12.382,4,12.667,4h8.167
					C21.478,4,22,4.522,22,5.167V18H1V2.176C1,1.532,1.522,1,2.167,1H8.309 M8.309,0H2.167C0.972,0,0,0.976,0,2.176V18v1h1h21h1v-1
					V5.167C23,3.972,22.028,3,20.833,3h-8.132c-0.022-0.012-0.067-0.041-0.15-0.106L9.739,0.519C9.308,0.177,8.809,0,8.309,0
					L8.309,0z"/>
			</g>
		</g>
	</g>
	<g>
		<path fill="#E3992E" d="M2,17h19V7c0-0.552-0.448-1-1-1H3C2.448,6,2,6.448,2,7V17z"/>
	</g>
	<g>
		<polygon fill="#DD8100" points="2,17 21,17 21,7 		"/>
	</g>
</g>
<path fill="#FFFFFF" d="M30.668,11.031c-0.43-0.385-2.44-1.98-3.174-2.399C26.769,8.219,25.944,8,25.11,8H11.89
	C9.194,8,7,10.194,7,12.89V25.11c0,0.835,0.219,1.66,0.633,2.386c0.21,0.369,2.051,2.786,2.401,3.176C10.792,31.516,11.873,32,13,32
	h15c2.206,0,4-1.794,4-4V14C32,12.871,31.515,11.789,30.668,11.031z"/>
<g>
	<path fill="#0072AA" d="M26.999,9.501C26.441,9.183,25.797,9,25.11,9H11.89C9.751,9,8,10.751,8,12.89V25.11
		C8,25.797,8.183,26.442,8.502,27c0.141,0.247,1.908,2.593,2.277,3.004C11.326,30.614,12.119,31,13,31h15c1.65,0,3-1.35,3-3V14
		c0-0.882-0.387-1.676-0.999-2.224C29.591,11.408,27.636,9.865,26.999,9.501z"/>
</g>
<path fill="#00A4D8" d="M28,31H13c-1.65,0-3-1.35-3-3V14c0-1.65,1.35-3,3-3h15c1.65,0,3,1.35,3,3v14C31,29.65,29.65,31,28,31z"/>
<g>
	<path fill="#FFFFFF" d="M21.884,15.116c-0.488-0.488-1.279-0.488-1.768,0s-0.488,1.279,0,1.768l2.869,2.869H15
		c-0.69,0-1.25,0.56-1.25,1.25s0.56,1.25,1.25,1.25h7.979l-2.863,2.863c-0.488,0.488-0.488,1.279,0,1.768
		C20.36,27.128,20.68,27.25,21,27.25s0.64-0.122,0.884-0.366L27.768,21L21.884,15.116z"/>
</g>
</svg>
