<?xml version="1.0" encoding="utf-8"?>
<!-- Generator: Adobe Illustrator 19.2.0, SVG Export Plug-In . SVG Version: 6.00 Build 0)  -->
<!DOCTYPE svg PUBLIC "-//W3C//DTD SVG 1.1//EN" "http://www.w3.org/Graphics/SVG/1.1/DTD/svg11.dtd">
<svg version="1.1" id="Layer_1" xmlns="http://www.w3.org/2000/svg" xmlns:xlink="http://www.w3.org/1999/xlink" x="0px" y="0px"
	 viewBox="0 0 32 32" enable-background="new 0 0 32 32" xml:space="preserve">
<g id="Ppt">
</g>
<g id="Small_Folder">
</g>
<g id="fave_icon_-_selected">
</g>
<g id="Shortcut_1_">
</g>
<g id="comment_icon_-_selected">
</g>
<g id="Comment_icon">
</g>
<path fill="#FFFFFF" d="M32,6.451c0-1.143-0.445-2.217-1.253-3.026l-2.171-2.172C27.767,0.445,26.692,0,25.549,0h-7.128
	c-1.143,0-2.218,0.445-3.026,1.254L1.253,15.397c-1.669,1.669-1.668,4.384,0,6.052l9.299,9.298c0.808,0.808,1.883,1.253,3.026,1.253
	c1.143,0,2.218-0.445,3.026-1.254l14.141-14.142C31.432,15.919,32,15.25,32,14L32,6.451z M26.529,7.31
	c-0.249,0.301-0.616,0.473-1.006,0.473c-0.085,0-0.173-0.008-0.26-0.024c-0.502-0.093-0.921-0.509-1.02-1.011
	c-0.079-0.402,0.017-0.793,0.27-1.1c0.25-0.304,0.618-0.478,1.01-0.478c0.088,0,0.177,0.009,0.267,0.026
	c0.502,0.096,0.919,0.514,1.014,1.017C26.879,6.616,26.782,7.005,26.529,7.31z"/>
<g>
	<g>
		<path fill="#7B9AB0" d="M16.102,1.961L1.96,16.104c-1.281,1.281-1.281,3.357,0,4.638l9.299,9.298c1.281,1.281,3.357,1.281,4.638,0
			l14.141-14.142C30.655,15.283,31,14.864,31,14l0-7.549c0-0.87-0.345-1.704-0.96-2.319l-2.171-2.172
			C27.253,1.346,26.419,1,25.549,1h-7.128C17.551,1,16.717,1.346,16.102,1.961z M27.786,6.028c0.306,1.621-1.084,3.014-2.705,2.714
			c-0.902-0.167-1.642-0.901-1.819-1.802c-0.319-1.63,1.087-3.038,2.716-2.726C26.879,4.387,27.616,5.126,27.786,6.028z"/>
	</g>
</g>
<path fill="#31444C" d="M20.243,18.829l-7.071-7.071c-0.389-0.389-1.025-0.389-1.414,0l0,0c-0.389,0.389-0.389,1.025,0,1.414
	l7.071,7.071c0.389,0.389,1.025,0.389,1.414,0l0,0C20.632,19.854,20.632,19.217,20.243,18.829z"/>
<path fill="#31444C" d="M17.415,21.657l-7.071-7.071c-0.389-0.389-1.025-0.389-1.414,0l0,0c-0.389,0.389-0.389,1.025,0,1.414
	L16,23.071c0.389,0.389,1.025,0.389,1.414,0v0C17.804,22.682,17.804,22.046,17.415,21.657z"/>
<path fill="#31444C" d="M14.586,24.485l-7.071-7.071c-0.389-0.389-1.025-0.389-1.414,0l0,0c-0.389,0.389-0.389,1.025,0,1.414
	l7.071,7.071c0.389,0.389,1.025,0.389,1.414,0l0,0C14.975,25.511,14.975,24.874,14.586,24.485z"/>
</svg>
