<?xml version="1.0" encoding="utf-8"?>
<!-- Generator: Adobe Illustrator 19.2.0, SVG Export Plug-In . SVG Version: 6.00 Build 0)  -->
<!DOCTYPE svg PUBLIC "-//W3C//DTD SVG 1.1//EN" "http://www.w3.org/Graphics/SVG/1.1/DTD/svg11.dtd">
<svg version="1.1" id="Layer_1" xmlns="http://www.w3.org/2000/svg" xmlns:xlink="http://www.w3.org/1999/xlink" x="0px" y="0px"
	 viewBox="0 0 32 32" enable-background="new 0 0 32 32" xml:space="preserve">
<path fill="#FFFFFF" d="M30.364,3.876c-0.539-0.483-3.165-2.565-4.088-3.091C25.376,0.271,24.353,0,23.317,0H6.074
	C2.725,0,0,2.725,0,6.074v15.938c0,1.037,0.272,2.061,0.786,2.962c0.236,0.413,2.607,3.548,3.094,4.09
	c0.93,1.036,2.258,1.631,3.642,1.631h19.565c2.709,0,4.913-2.204,4.913-4.913V7.522C32,6.135,31.404,4.806,30.364,3.876z"/>
<g id="Ppt">
</g>
<g id="Small_Folder">
</g>
<g id="fave_icon_-_selected">
</g>
<g id="Shortcut_1_">
</g>
<g id="comment_icon_-_selected">
</g>
<g id="Comment_icon">
</g>
<g>
	<path fill="#0072AA" d="M25.781,1.653C25.053,1.238,24.213,1,23.317,1H6.074C3.283,1,1,3.283,1,6.074v15.938
		c0,0.897,0.239,1.737,0.654,2.466c0.184,0.322,2.488,3.382,2.97,3.918c0.715,0.796,1.749,1.299,2.898,1.299h19.565
		c2.152,0,3.913-1.761,3.913-3.913V7.522c0-1.151-0.505-2.186-1.303-2.901C29.162,4.141,26.613,2.128,25.781,1.653z"/>
</g>
<path fill="#00A4D8" d="M27.087,29.696H7.522c-2.152,0-3.913-1.761-3.913-3.913V7.522c0-2.152,1.761-3.913,3.913-3.913h19.565
	C29.239,3.609,31,5.37,31,7.522v18.261C31,27.935,29.239,29.696,27.087,29.696z"/>
<g>
	<path fill="#FFFFFF" d="M18.261,8.939c-0.586-0.586-1.535-0.586-2.121,0s-0.586,1.535,0,2.121l3.443,3.443H10
		c-0.828,0-1.5,0.672-1.5,1.5s0.672,1.5,1.5,1.5h9.575l-3.436,3.436c-0.586,0.586-0.586,1.535,0,2.121
		c0.293,0.293,0.677,0.439,1.061,0.439s0.768-0.146,1.061-0.439L25.321,16L18.261,8.939z"/>
</g>
</svg>
