<?xml version="1.0" encoding="utf-8"?>
<!-- Generator: Adobe Illustrator 19.2.0, SVG Export Plug-In . SVG Version: 6.00 Build 0)  -->
<!DOCTYPE svg PUBLIC "-//W3C//DTD SVG 1.1//EN" "http://www.w3.org/Graphics/SVG/1.1/DTD/svg11.dtd">
<svg version="1.1" id="Layer_1" xmlns="http://www.w3.org/2000/svg" xmlns:xlink="http://www.w3.org/1999/xlink" x="0px" y="0px"
	 viewBox="0 0 32 32" enable-background="new 0 0 32 32" xml:space="preserve">
<g id="Ppt">
</g>
<g id="Small_Folder">
</g>
<g id="fave_icon_-_selected">
</g>
<g id="Shortcut_1_">
</g>
<g id="comment_icon_-_selected">
</g>
<g id="Comment_icon">
</g>
<g>
	<g>
		<path fill="#00A389" d="M13.578,31.501c-1.009,0-1.958-0.393-2.672-1.106l-9.299-9.299c-1.473-1.474-1.473-3.872,0-5.346
			L15.749,1.607C16.452,0.903,17.426,0.5,18.421,0.5h7.128c1.01,0,1.959,0.394,2.673,1.107l2.171,2.172
			C31.106,4.492,31.5,5.441,31.5,6.451V14c0,1.062-0.459,1.604-1.107,2.252L16.251,30.394
			C15.538,31.107,14.588,31.501,13.578,31.501C13.579,31.501,13.579,31.501,13.578,31.501z M25.523,4.67
			c-0.542,0-1.051,0.241-1.396,0.66c-0.35,0.425-0.483,0.963-0.375,1.515c0.137,0.698,0.721,1.276,1.419,1.406
			c0.119,0.021,0.235,0.032,0.351,0.032c0.539,0,1.047-0.238,1.392-0.654c0.35-0.422,0.484-0.957,0.381-1.508
			c-0.133-0.7-0.713-1.282-1.411-1.416C25.762,4.682,25.642,4.67,25.523,4.67z"/>
	</g>
	<g>
		<path fill="#FFFFFF" d="M25.549,1c0.87,0,1.704,0.346,2.319,0.961l2.171,2.172C30.654,4.747,31,5.581,31,6.451L31,14
			c0,0.864-0.345,1.283-0.961,1.898L15.898,30.04c-0.64,0.641-1.48,0.961-2.319,0.961c-0.839,0-1.679-0.32-2.319-0.961l-9.299-9.298
			c-1.281-1.281-1.281-3.357,0-4.638L16.102,1.961C16.717,1.346,17.551,1,18.421,1H25.549 M25.523,8.783
			c1.421,0,2.541-1.284,2.263-2.755c-0.17-0.902-0.907-1.641-1.808-1.814c-0.154-0.03-0.306-0.044-0.455-0.044
			c-1.424,0-2.55,1.294-2.261,2.77c0.176,0.901,0.916,1.635,1.819,1.802C25.23,8.77,25.378,8.783,25.523,8.783 M25.549,0h-7.128
			c-1.143,0-2.218,0.445-3.026,1.254L1.253,15.397c-1.669,1.669-1.668,4.384,0,6.052l9.299,9.298
			c0.808,0.808,1.883,1.253,3.026,1.253c1.143,0,2.218-0.445,3.026-1.254l14.141-14.142C31.432,15.919,32,15.25,32,14l0-7.549
			c0-1.143-0.445-2.217-1.253-3.026l-2.171-2.172C27.767,0.445,26.692,0,25.549,0L25.549,0z M25.523,7.783
			c-0.085,0-0.173-0.008-0.26-0.024c-0.502-0.093-0.921-0.509-1.019-1.011c-0.079-0.402,0.017-0.793,0.27-1.1
			c0.25-0.304,0.618-0.478,1.009-0.478c0.088,0,0.177,0.009,0.267,0.026c0.502,0.096,0.919,0.515,1.014,1.017
			c0.076,0.402-0.022,0.791-0.274,1.096C26.28,7.611,25.913,7.783,25.523,7.783L25.523,7.783z"/>
	</g>
</g>
</svg>
