<?xml version="1.0" encoding="utf-8"?>
<!-- Generator: Adobe Illustrator 19.1.0, SVG Export Plug-In . SVG Version: 6.00 Build 0)  -->
<!DOCTYPE svg PUBLIC "-//W3C//DTD SVG 1.1//EN" "http://www.w3.org/Graphics/SVG/1.1/DTD/svg11.dtd">
<svg version="1.1" id="Layer_1" xmlns="http://www.w3.org/2000/svg" xmlns:xlink="http://www.w3.org/1999/xlink" x="0px" y="0px"
	 viewBox="-293 385 24 24" enable-background="new -293 385 24 24" xml:space="preserve">
<g>
	<path fill="#FFFFFF" d="M-277,406.5h-8c-1.105,0-2-0.895-2-2v-12h12v12C-275,405.605-275.895,406.5-277,406.5"/>
	<path fill="#FFFFFF" d="M-279,389.5h-4v-1h4V389.5z M-279,387.5h-4c-0.552,0-1,0.448-1,1v1c0,0.552,0.448,1,1,1h4
		c0.552,0,1-0.448,1-1v-1C-278,387.948-278.448,387.5-279,387.5"/>
	<path fill="#FFFFFF" d="M-275,389.5h-12c-0.552,0-1,0.448-1,1v1h14v-1C-274,389.948-274.448,389.5-275,389.5"/>
</g>
</svg>
