<?xml version="1.0" encoding="utf-8"?>
<!-- Generator: Adobe Illustrator 19.1.0, SVG Export Plug-In . SVG Version: 6.00 Build 0)  -->
<svg version="1.1" id="Layer_1" xmlns="http://www.w3.org/2000/svg" xmlns:xlink="http://www.w3.org/1999/xlink" x="0px" y="0px"
	 viewBox="0 0 32 32" style="enable-background:new 0 0 32 32;" xml:space="preserve">
<style type="text/css">
	.st0{fill:#DFE7EA;}
	.st1{fill:#333333;}
	.st2{fill:#FFFFFF;}
</style>
<g>
	<rect class="st0" width="32" height="32"/>
</g>
<g>
	<g>
		<circle class="st1" cx="23.3" cy="24.3" r="7.7"/>
	</g>
</g>
<path class="st1" d="M13.3,24.3c0-2.9,1.2-5.5,3.2-7.3c-0.4-0.2-0.5-0.3-0.5-0.3l-0.2-0.2v-3.2l0.2-0.2c0,0,0.9-0.7,1.1-2.9l0.1-0.6
	l0.4,0.1c0.2-0.5,0.5-1.9,0.4-2.5l-0.4,0.1l0.1-0.7c0.1-1,0.3-2.2,0.2-2.8C17.5,2,15.7,0,12.9,0S8.2,2,8,3.9c0,0.6,0.1,1.7,0.2,2.8
	l0.1,0.7L7.9,7.3C7.8,7.9,8,9.3,8.3,9.8l0.4-0.1l0.1,0.6c0.3,2.2,1.1,2.9,1.1,2.9l0.2,0.2v0.3v2.9l-0.3,0.2c0,0-0.7,0.4-3.4,1.6
	c-0.6,0.3-1.2,0.5-1.8,0.7c-1.9,0.7-3.6,1.5-4.2,2.3C0,22-0.1,25.1,0,27.4h13.9C13.5,26.4,13.3,25.4,13.3,24.3z"/>
<g>
	<path class="st2" d="M27.6,27.4c0,0.3-0.1,0.6-0.3,0.8c-0.4,0.4-1.1,0.4-1.5,0l-2.4-2.4l-2.6,2.6c-0.2,0.2-0.5,0.3-0.8,0.3
		s-0.6-0.1-0.8-0.3c-0.2-0.2-0.3-0.5-0.3-0.8s0.1-0.6,0.3-0.8l2.6-2.6l-2.4-2.4c-0.4-0.4-0.4-1.1,0-1.5c0.2-0.2,0.5-0.3,0.8-0.3
		s0.6,0.1,0.8,0.3l2.4,2.4l2.3-2.3c0.4-0.4,1.1-0.4,1.5,0s0.4,1.1,0,1.5l-2.3,2.3l2.4,2.4C27.5,26.8,27.6,27.1,27.6,27.4z"/>
</g>
</svg>
