<?xml version="1.0" encoding="utf-8"?>
<!-- Generator: Adobe Illustrator 19.0.0, SVG Export Plug-In . SVG Version: 6.00 Build 0)  -->
<svg version="1.1" id="Layer_1" xmlns="http://www.w3.org/2000/svg" xmlns:xlink="http://www.w3.org/1999/xlink" x="0px" y="0px"
	 viewBox="0 0 24 24" enable-background="new 0 0 24 24" xml:space="preserve">
<g id="XMLID_5_">
	<g id="XMLID_9_">
		<path id="XMLID_3_" fill="#FFFFFF" d="M7.4077,9.2847H5.9841v-5.92C5.9841,1.5099,7.3096,0,8.9392,0h6.1217
			c1.6294,0,2.9552,1.5099,2.9552,3.3646h-1.4237c0-1.0525-0.7014-1.9408-1.5315-1.9408H8.9392
			c-0.8301,0-1.5315,0.8884-1.5315,1.9408V9.2847z"/>
	</g>
	<path id="XMLID_6_" fill="#FFFFFF" d="M18.056,8.1377H5.9447c-1.9629,0-3.5596,1.5959-3.5596,3.5592v8.7439
		C2.3851,22.4039,3.9818,24,5.9447,24H18.056c1.9622,0,3.5588-1.5961,3.5588-3.5594v-8.7437
		C21.6149,9.7338,20.0182,8.1377,18.056,8.1377z M12.0004,19.0771c-0.9309,0-1.6853-0.7632-1.6853-1.7045
		c0-0.9414,0.7544-1.7046,1.6853-1.7046c0.9302,0,1.6846,0.7632,1.6846,1.7046C13.6849,18.3139,12.9305,19.0771,12.0004,19.0771z"/>
</g>
</svg>
