<?xml version="1.0" encoding="utf-8"?>
<!-- Generator: Adobe Illustrator 19.2.0, SVG Export Plug-In . SVG Version: 6.00 Build 0)  -->
<!DOCTYPE svg PUBLIC "-//W3C//DTD SVG 1.1//EN" "http://www.w3.org/Graphics/SVG/1.1/DTD/svg11.dtd">
<svg version="1.1" id="Layer_1" xmlns="http://www.w3.org/2000/svg" xmlns:xlink="http://www.w3.org/1999/xlink" x="0px" y="0px"
	 viewBox="0 0 24 24" enable-background="new 0 0 24 24" xml:space="preserve">
<g id="metadata">
</g>
<g id="like_icon">
</g>
<g id="fave_icon">
</g>
<g id="fave_icon_-_selected">
</g>
<g id="comment_icon_-_selected">
</g>
<g id="Comment_icon">
</g>
<g id="fave_icon_-_selected_1_">
</g>
<g id="like_icon_-_selected">
</g>
<g id="copy_x2F_move_icon">
</g>
<g id="download_icon_2">
</g>
<g id="share_icon_2">
</g>
<g id="reserve_icon">
</g>
<g id="edit_icon">
	<g id="edit_icon_2">
	</g>
	<g id="trash_icon">
		<g id="trash">
		</g>
	</g>
</g>
<g id="metadata_2">
</g>
<path fill="#004A70" d="M20,10h-1V6.702C19,3.016,15.984,0,12.298,0h-0.596C8.016,0,5,3.016,5,6.702V10H4c-0.552,0-1,0.448-1,1v12
	c0,0.552,0.448,1,1,1h16c0.552,0,1-0.448,1-1V11C21,10.448,20.552,10,20,10z M7,6.702C7,4.109,9.109,2,11.702,2h0.596
	C14.891,2,17,4.109,17,6.702V10H7V6.702z"/>
<path fill="#FFFFFF" d="M11,21.414l-3.707-3.707c-0.391-0.391-0.391-1.023,0-1.414s1.023-0.391,1.414,0L11,18.586l5.293-5.293
	c0.391-0.391,1.023-0.391,1.414,0s0.391,1.023,0,1.414L11,21.414z"/>
</svg>
