<?xml version="1.0" encoding="utf-8"?>
<!-- Generator: Adobe Illustrator 18.1.1, SVG Export Plug-In . SVG Version: 6.00 Build 0)  -->
<svg version="1.1" xmlns="http://www.w3.org/2000/svg" xmlns:xlink="http://www.w3.org/1999/xlink" x="0px" y="0px"
	 viewBox="0 0 24 24" enable-background="new 0 0 24 24" xml:space="preserve">
<g id="scan" display="none">
	<path display="inline" fill="#333333" d="M0,15v4.916C0,21.202,0.685,24,4.414,24H6v-2.871C6,19.843,6.839,18,9.58,18h5.031
		C17.8,18,18,20.382,18,21.668V24h1.822C22.113,24,24,22.423,24,20.05V15H0z"/>
	<rect x="8" y="22" display="inline" fill="#333333" width="8" height="2"/>
	<path display="inline" fill="#333333" d="M23.882,5.824l0.002-0.008L1.402,0.043L1.392,0.08C1.271,0.029,1.139,0,1,0
		C0.448,0,0,0.448,0,1c0,0.523,0.406,0.94,0.919,0.984L16.56,6H3.259C1.404,6,0,7.293,0,8.731V13h24c0,0,0-6.599,0-7
		C24,5.851,23.976,5.814,23.882,5.824z"/>
</g>
<g id="stop" display="none">
	<g display="inline">
		<g>
			<g>
				<path fill="#333333" d="M12,24C5.383,24,0,18.617,0,12S5.383,0,12,0s12,5.383,12,12S18.617,24,12,24z M12,0.96
					C5.912,0.96,0.96,5.912,0.96,12c0,6.087,4.952,11.04,11.04,11.04c6.087,0,11.04-4.953,11.04-11.04
					C23.04,5.912,18.087,0.96,12,0.96z"/>
			</g>
		</g>
		<g>
			<path fill="#333333" d="M17.553,15.897l-3.854-3.854l3.631-3.631c0.464-0.464,0.464-1.223,0-1.686
				c-0.464-0.464-1.223-0.464-1.686,0l-3.631,3.631L8.159,6.503c-0.464-0.464-1.223-0.464-1.686,0c-0.463,0.464-0.464,1.223,0,1.686
				l3.854,3.854l-4.078,4.078c-0.464,0.464-0.464,1.223,0,1.686c0.464,0.464,1.223,0.464,1.686,0l4.078-4.078l3.854,3.854
				c0.464,0.464,1.223,0.464,1.686,0C18.017,17.12,18.017,16.361,17.553,15.897z"/>
		</g>
	</g>
</g>
<g id="configure_x5F_scaner" display="none">
	<path display="inline" fill="#333333" d="M23,11h-2.504c-0.203-1.605-0.845-3.071-1.809-4.273l1.798-1.798
		c0.391-0.391,0.391-1.024,0-1.414s-1.024-0.391-1.414,0l-1.81,1.81C16.056,4.385,14.597,3.759,13,3.573V1c0-0.552-0.448-1-1-1
		s-1,0.448-1,1v2.573C9.403,3.759,7.944,4.385,6.739,5.325l-1.81-1.81c-0.391-0.391-1.024-0.391-1.414,0s-0.391,1.024,0,1.414
		l1.798,1.798C4.35,7.929,3.707,9.395,3.504,11H1c-0.552,0-1,0.448-1,1s0.448,1,1,1h2.48c0.174,1.629,0.808,3.117,1.764,4.343
		l-1.729,1.729c-0.391,0.391-0.391,1.024,0,1.414s1.024,0.391,1.414,0l1.717-1.717c1.222,0.98,2.717,1.631,4.354,1.821V23
		c0,0.552,0.448,1,1,1s1-0.448,1-1v-2.41c1.637-0.191,3.132-0.841,4.355-1.821l1.716,1.717c0.391,0.391,1.024,0.391,1.414,0
		s0.391-1.024,0-1.414l-1.728-1.728c0.956-1.226,1.59-2.714,1.764-4.343H23c0.552,0,1-0.448,1-1S23.552,11,23,11z M12,18.653
		c-3.623,0-6.571-2.948-6.571-6.571C5.429,8.458,8.377,5.51,12,5.51s6.571,2.948,6.571,6.571C18.572,15.705,15.624,18.653,12,18.653
		z"/>
</g>
<g id="profile" display="none">
	<g display="inline">
		<circle fill="#333333" cx="11.976" cy="7.02" r="4.828"/>
		<path fill="#333333" d="M23,0H1C0.448,0,0,0.448,0,1v22c0,0.552,0.448,1,1,1h22c0.552,0,1-0.448,1-1V1C24,0.448,23.552,0,23,0z
			 M23,1v18.674c-2.414-3.497-6.445-5.798-11.024-5.798C7.424,13.876,3.419,16.15,1,19.61V1H23z"/>
	</g>
</g>
<g id="Layer_9" display="none">
	<rect display="inline" fill="#333333" width="24" height="24"/>
</g>
<g id="Fit_page_to_window" display="none">
	<path display="inline" fill="#FFFFFF" d="M24,24H0V0h24V24z M1,23h22V1H1V23z"/>
	<polygon display="inline" fill="#FFFFFF" points="21.993,2.006 15.131,2 17.708,4.577 14.428,7.857 16.163,9.55 19.422,6.291 
		22,8.869 	"/>
	<polygon display="inline" fill="#FFFFFF" points="2.007,2.006 8.869,2 6.292,4.577 9.572,7.857 7.837,9.55 4.578,6.291 2,8.869 	
		"/>
	<polygon display="inline" fill="#FFFFFF" points="21.993,21.994 15.131,22 17.708,19.423 14.428,16.143 16.163,14.45 
		19.422,17.709 22,15.131 	"/>
	<polygon display="inline" fill="#FFFFFF" points="2.007,21.994 8.869,22 6.292,19.423 9.572,16.143 7.837,14.45 4.578,17.709 
		2,15.131 	"/>
</g>
<g id="Zoom_in_page" display="none">
	<path display="inline" fill="#FFFFFF" d="M23.707,22.327l-5.981-5.98c3.234-3.928,3.018-9.746-0.655-13.418
		C15.118,0.976,12.559,0,10,0S4.882,0.976,2.929,2.929c-3.905,3.905-3.905,10.237,0,14.142C4.882,19.024,7.441,20,10,20
		c2.239,0,4.477-0.747,6.31-2.241l5.983,5.982c0.195,0.195,0.451,0.293,0.707,0.293s0.512-0.098,0.707-0.293
		C24.098,23.351,24.098,22.718,23.707,22.327z M3.636,16.364c-3.509-3.509-3.509-9.219,0-12.728C5.336,1.936,7.596,1,10,1
		s4.664,0.936,6.364,2.636c3.509,3.509,3.509,9.219,0,12.728C14.664,18.064,12.404,19,10,19S5.336,18.064,3.636,16.364z"/>
	<path display="inline" fill="#FFFFFF" d="M15,9H5c-0.553,0-1,0.447-1,1c0,0.553,0.447,1,1,1h10c0.553,0,1-0.447,1-1
		C16,9.447,15.553,9,15,9z"/>
</g>
<g id="Zoom_out" display="none">
	<g id="metadata_3_" display="inline">
	</g>
	<g id="like_icon_3_" display="inline">
	</g>
	<g id="fave_icon_3_" display="inline">
	</g>
	<g id="fave_icon_-_selected_7_" display="inline">
	</g>
	<g id="comment_icon_-_selected_3_" display="inline">
	</g>
	<g id="Comment_icon_3_" display="inline">
	</g>
	<g id="fave_icon_-_selected_6_" display="inline">
	</g>
	<g id="like_icon_-_selected_3_" display="inline">
	</g>
	<path display="inline" fill="none" d="M10.162,19.988c-2.538,0-4.923-0.988-6.718-2.782c-3.704-3.704-3.704-9.731,0-13.436
		c1.795-1.794,4.18-2.782,6.718-2.782s4.923,0.988,6.718,2.782c3.704,3.704,3.704,9.731,0,13.436
		C15.085,19,12.7,19.988,10.162,19.988z"/>
	<path display="inline" fill="#FFFFFF" d="M23.707,22.327l-5.981-5.98c3.234-3.928,3.018-9.746-0.655-13.418
		C15.118,0.976,12.559,0,10,0S4.882,0.976,2.929,2.929c-3.905,3.905-3.905,10.237,0,14.142C4.882,19.024,7.441,20,10,20
		c2.239,0,4.477-0.747,6.31-2.241l5.983,5.982c0.195,0.195,0.451,0.293,0.707,0.293s0.512-0.098,0.707-0.293
		C24.098,23.351,24.098,22.718,23.707,22.327z M3.636,16.364c-3.509-3.509-3.509-9.219,0-12.728C5.336,1.936,7.596,1,10,1
		s4.664,0.936,6.364,2.636c3.509,3.509,3.509,9.219,0,12.728C14.664,18.064,12.404,19,10,19S5.336,18.064,3.636,16.364z"/>
	<path display="inline" fill="#FFFFFF" d="M15,9h-4V5c0-0.553-0.447-1-1-1S9,4.447,9,5v4H5c-0.553,0-1,0.447-1,1
		c0,0.553,0.447,1,1,1h4v4c0,0.553,0.447,1,1,1s1-0.447,1-1v-4h4c0.553,0,1-0.447,1-1C16,9.447,15.553,9,15,9z"/>
</g>
<g id="page" display="none">
	<g display="inline">
		<rect x="6" y="7" fill="#FFFFFF" width="12" height="1"/>
		<rect x="6" y="12" fill="#FFFFFF" width="12" height="1"/>
		<rect x="6" y="17" fill="#FFFFFF" width="12" height="1"/>
	</g>
	<g display="inline">
		<path fill="#FFFFFF" d="M18.709,24H5.196C3.463,24,2,22.535,2,20.802V2.784C2,1.171,3.344,0,5.196,0h11.608L22,4.658v16.144
			C22,22.506,20.462,24,18.709,24z M5.196,1C4.103,1,3,1.552,3,2.784v18.018C3,21.973,4.026,23,5.196,23h13.513
			C19.908,23,21,21.952,21,20.802V5.104L16.421,1H5.196z"/>
	</g>
</g>
<g id="info" display="none">
	<circle display="inline" fill="#FFFFFF" cx="12" cy="6.545" r="1.091"/>
	<path display="inline" fill="#FFFFFF" d="M13.091,9.818v7.636c0,0.602-0.488,1.091-1.091,1.091h0c-0.602,0-1.091-0.488-1.091-1.091
		V9.818c0-0.602,0.488-1.091,1.091-1.091h0C12.602,8.727,13.091,9.216,13.091,9.818z"/>
	<g display="inline">
		<g>
			<path fill="#FFFFFF" d="M12,1c6.065,0,11,4.935,11,11s-4.935,11-11,11S1,18.065,1,12S5.935,1,12,1 M12,0C5.373,0,0,5.373,0,12
				s5.373,12,12,12s12-5.373,12-12S18.627,0,12,0L12,0z"/>
		</g>
	</g>
</g>
<g id="doc_x5F_delete" display="none">
	<path display="inline" fill="#333333" d="M18.709,24H5.196C3.463,24,2,22.535,2,20.802V2.784C2,1.171,3.344,0,5.196,0h11.608
		L22,4.658v16.144C22,22.506,20.462,24,18.709,24z M5.196,1C4.103,1,3,1.552,3,2.784v18.018C3,21.973,4.026,23,5.196,23h13.513
		C19.908,23,21,21.952,21,20.802V5.104L16.421,1H5.196z"/>
	<g display="inline">
		<path fill="#333333" d="M17.075,15.278l-3.491-3.491l3.288-3.288c0.42-0.42,0.42-1.107,0-1.527c-0.42-0.42-1.107-0.42-1.527,0
			l-3.288,3.288L8.566,6.769c-0.42-0.42-1.107-0.42-1.527,0s-0.42,1.107,0,1.527l3.491,3.491l-3.694,3.694
			c-0.42,0.42-0.42,1.107,0,1.527c0.42,0.42,1.107,0.42,1.527,0l3.694-3.694l3.491,3.491c0.42,0.42,1.107,0.42,1.527,0
			S17.494,15.697,17.075,15.278z"/>
	</g>
</g>
<g id="ROT_x5F_180" display="none">
	<g display="inline">
		<g>
			<path fill="#333333" d="M20.163,16.28v4.449c0,1.194-1.078,2.203-2.354,2.203H3.688c-1.192,0-2.525-0.942-2.525-2.203v-9.04h-1
				v9.04c0,1.707,1.647,3.203,3.525,3.203h14.12c1.818,0,3.354-1.467,3.354-3.203V15.28L20.163,16.28z"/>
		</g>
		<path fill="#333333" d="M23.508,9.272c-0.433-0.433-0.833-0.433-1.266,0L20,11.819v-1.761c0-6.306-4-9.939-10-9.986
			c0-0.001,0-0.003,0-0.004c0,0-0.462,0.013-0.487,0.015C3.678,0.39,0.246,3.97,0.246,10.035c0,0.613,0.451,1.11,1.064,1.11
			c0.613,0,1.243-0.497,1.243-1.11c0-3.392,1.124-7.396,7.124-7.737c0-0.007,0.283-0.011,0.3-0.011c3.545,0,8.023,1.348,8.023,7.77
			v1.761l-2.958-2.544c-0.433-0.433-1.344-0.433-1.777,0c-0.218,0.215-0.43,0.5-0.43,0.784c0,0.284,0.057,0.568,0.272,0.786
			l5.2,5.224l5.213-5.226C23.954,10.409,23.941,9.705,23.508,9.272z"/>
	</g>
</g>
<g id="rot_x5F_left" display="none">
	<g display="inline">
		<g>
			<path fill="#333333" d="M3.944,15.895v4.885c0,1.073,0.492,2.22,1.875,2.22h14.21c1.313,0,2.915-1.024,2.915-2.22V3.712
				C22.944,1.839,21.48,1,20.029,1h-3.261V0l3.261,0c2.305,0,3.915,1.526,3.915,3.712V20.78c0,1.813-2.104,3.22-3.915,3.22H5.819
				c-1.72,0-2.875-1.294-2.875-3.22V14.9C3.277,15.233,3.613,15.562,3.944,15.895z"/>
		</g>
		<path fill="#333333" d="M10.832,10.776c0.215-0.218,0.324-0.502,0.324-0.786c0-0.284-0.109-0.568-0.326-0.784
			c-0.433-0.433-1.137-0.433-1.57,0l-2.544,2.544V9.99c0-6.423,4.225-7.77,7.77-7.77c0.613,0,1.11-0.497,1.11-1.11
			S15.099,0,14.487,0c-6.347,0-9.99,3.643-9.99,9.99v1.761L1.95,9.204c-0.433-0.433-1.137-0.433-1.57,0s-0.433,1.137,0,1.57
			L5.606,16L10.832,10.776z"/>
	</g>
</g>
<g id="rot_x5F_right" display="none">
	<g display="inline">
		<g>
			<path fill="#333333" d="M20.056,15.895v4.885c0,1.073-0.492,2.22-1.875,2.22H3.971c-1.313,0-2.915-1.024-2.915-2.22V3.712
				C1.056,1.839,2.52,1,3.971,1h3.261V0H3.971C1.666,0,0.056,1.526,0.056,3.712V20.78c0,1.813,2.104,3.22,3.915,3.22h14.21
				c1.72,0,2.875-1.294,2.875-3.22V14.9C20.723,15.233,20.387,15.562,20.056,15.895z"/>
		</g>
		<path fill="#333333" d="M13.168,10.776c-0.215-0.218-0.324-0.502-0.324-0.786c0-0.284,0.109-0.568,0.326-0.784
			c0.433-0.433,1.137-0.433,1.57,0l2.544,2.544V9.99c0-6.423-4.225-7.77-7.77-7.77c-0.613,0-1.11-0.497-1.11-1.11S8.901,0,9.513,0
			c6.347,0,9.99,3.643,9.99,9.99v1.761l2.546-2.546c0.433-0.433,1.137-0.433,1.57,0c0.433,0.433,0.433,1.137,0,1.57L18.394,16
			L13.168,10.776z"/>
	</g>
</g>
<g id="Convert" display="none">
	<path display="inline" fill="#333333" d="M11.593,9.043c-0.392,0.023-0.973,0.312-0.972,1.015c0.001,0.639,0.509,0.984,0.985,0.984
		h2.986c-2.287,1.421-4.005,3.513-4.751,5.861c-0.858,2.703-1.061,4.394-0.599,5.025c0.158,0.215,0.389,0.334,0.644,0.334H9.9
		c0.873,0,0.995-0.852,1.125-1.754c0.104-0.73,0.248-1.73,0.708-2.938c0.863-2.27,2.868-4.378,5.218-5.538l0.003,4.451
		c-0.033,0.274,0.043,0.533,0.216,0.728c0.13,0.147,0.372,0.323,0.792,0.324c0.611,0,0.989-0.474,0.989-0.913V9.042L11.593,9.043z
		 M9.9,21.76C9.9,21.76,9.9,21.76,9.9,21.76v0.002V21.76z"/>
	<path display="inline" fill="#333333" d="M23.16,16.139c0.858-2.704,1.06-4.395,0.599-5.025c-0.158-0.215-0.389-0.334-0.656-0.334
		c-0.873,0-0.995,0.852-1.125,1.754c-0.104,0.73-0.248,1.73-0.708,2.938c-0.863,2.27-2.868,4.378-5.218,5.538l-0.003-4.45
		c0.033-0.274-0.043-0.533-0.216-0.728c-0.13-0.147-0.372-0.323-0.792-0.324c-0.611,0-0.989,0.474-0.989,0.913V24h7.343l0.015-0.001
		c0.392-0.023,0.973-0.312,0.972-1.015C22.38,22.345,21.872,22,21.396,22H18.41C20.697,20.579,22.414,18.486,23.16,16.139z"/>
	<g display="inline">
		<path fill="#333333" d="M15.427,0H3.485C1.81,0,0,1.146,0,2.999v17.833C0,22.52,1.629,24,3.485,24h4.501v-1H3.485
			C2.313,23,1,22.073,1,20.832V2.999C1,1.764,2.29,1,3.485,1h11.609L20,4.662v3.676l1,0.042v-4.22L15.427,0z"/>
	</g>
</g>
<g id="Layer_16" display="none">
	<path display="inline" fill="#333333" d="M22.991,0H1.009c-0.553,0-1,0.447-1,1s0.447,1,1,1h21.982c0.553,0,1-0.447,1-1
		S23.544,0,22.991,0z"/>
	<path display="inline" fill="#333333" d="M22.991,22H1.009c-0.553,0-1,0.447-1,1s0.447,1,1,1h21.982c0.553,0,1-0.447,1-1
		S23.544,22,22.991,22z"/>
	<g display="inline">
		<path fill="#333333" d="M22.991,8H1.009c-0.553,0-1,0.447-1,1s0.447,1,1,1h21.982c0.553,0,1-0.447,1-1S23.544,8,22.991,8z"/>
		<path fill="#333333" d="M22.991,15H1.009c-0.553,0-1,0.447-1,1s0.447,1,1,1h21.982c0.553,0,1-0.447,1-1S23.544,15,22.991,15z"/>
	</g>
</g>
<g id="Layer_17">
	<g>
		<path fill="#333333" d="M23,9.818h-7.818c-0.552,0-1-0.448-1-1V1c0-0.552,0.448-1,1-1H23c0.552,0,1,0.448,1,1v7.818
			C24,9.371,23.552,9.818,23,9.818z"/>
		<path fill="#333333" d="M8.818,9.818H1c-0.552,0-1-0.448-1-1V1c0-0.552,0.448-1,1-1h7.818c0.552,0,1,0.448,1,1v7.818
			C9.818,9.371,9.37,9.818,8.818,9.818z"/>
		<path fill="#333333" d="M23,24h-7.818c-0.552,0-1-0.448-1-1v-7.818c0-0.552,0.448-1,1-1H23c0.552,0,1,0.448,1,1V23
			C24,23.552,23.552,24,23,24z"/>
		<path fill="#333333" d="M8.818,24H1c-0.552,0-1-0.448-1-1v-7.818c0-0.552,0.448-1,1-1h7.818c0.552,0,1,0.448,1,1V23
			C9.818,23.552,9.37,24,8.818,24z"/>
	</g>
</g>
</svg>
