<?xml version="1.0" encoding="utf-8"?>
<!-- Generator: Adobe Illustrator 20.1.0, SVG Export Plug-In . SVG Version: 6.00 Build 0)  -->
<!DOCTYPE svg PUBLIC "-//W3C//DTD SVG 1.1//EN" "http://www.w3.org/Graphics/SVG/1.1/DTD/svg11.dtd">
<svg version="1.1" id="Layer_1" xmlns="http://www.w3.org/2000/svg" xmlns:xlink="http://www.w3.org/1999/xlink" x="0px" y="0px"
	 viewBox="0 0 24 24" enable-background="new 0 0 24 24" xml:space="preserve">
<g>
	<g>
		<path fill="#7B9AB0" d="M2,0v4c0,1.657,1.343,3,3,3h14c1.657,0,3-1.343,3-3V0H2z"/>
	</g>
	<path fill="#7B9AB0" d="M5,9h13l4,4v11H2V12C2,10.343,3.343,9,5,9z M7.707,19.707c0.391-0.391,0.391-1.023,0-1.414L6.414,17
		l1.293-1.293c0.391-0.391,0.391-1.023,0-1.414s-1.023-0.391-1.414,0L3.586,17l2.707,2.707C6.488,19.902,6.744,20,7,20
		S7.512,19.902,7.707,19.707z M17.707,19.707L20.414,17l-2.707-2.707c-0.391-0.391-1.023-0.391-1.414,0s-0.391,1.023,0,1.414
		L17.586,17l-1.293,1.293c-0.391,0.391-0.391,1.023,0,1.414C16.488,19.902,16.744,20,17,20S17.512,19.902,17.707,19.707z"/>
</g>
</svg>
