<?xml version="1.0" encoding="utf-8"?>
<!-- Generator: Adobe Illustrator 19.1.0, SVG Export Plug-In . SVG Version: 6.00 Build 0)  -->
<!DOCTYPE svg PUBLIC "-//W3C//DTD SVG 1.1//EN" "http://www.w3.org/Graphics/SVG/1.1/DTD/svg11.dtd">
<svg version="1.1" id="Layer_1" xmlns="http://www.w3.org/2000/svg" xmlns:xlink="http://www.w3.org/1999/xlink" x="0px" y="0px"
	 viewBox="0 0 24 24" enable-background="new 0 0 24 24" xml:space="preserve">
<g>
	<rect x="1" y="6" fill="#FFFFFF" width="22" height="16"/>
	<path fill="#666666" d="M18,5h-1h-5h-1H6H5H1V3c0-0.551,0.449-1,1-1h20c0.551,0,1,0.449,1,1v2H18z"/>
	<path fill="#333333" d="M22,1H2C0.9,1,0,1.9,0,3v2v1v5v1v5v1v3c0,1.1,0.9,2,2,2h3h1h5h1h5h1h4c1.1,0,2-0.9,2-2v-3v-1v-5v-1V6V5V3
		C24,1.9,23.1,1,22,1z M1,6h4v5H1V6z M12,12h5v5h-5V12z M11,17H6v-5h5V17z M12,11V6h5v5H12z M11,11H6V6h5V11z M1,12h4v5H1V12z M2,22
		c-0.551,0-1-0.449-1-1v-3h4v4H2z M6,22v-4h5v4H6z M12,22v-4h5v4H12z M23,21c0,0.551-0.449,1-1,1h-4v-4h5V21z M23,17h-5v-5h5V17z
		 M23,11h-5V6h5V11z M18,5h-1h-5h-1H6H5H1V3c0-0.551,0.449-1,1-1h20c0.551,0,1,0.449,1,1v2H18z"/>
</g>
</svg>
