<?xml version="1.0" encoding="utf-8"?>
<!-- Generator: Adobe Illustrator 19.1.0, SVG Export Plug-In . SVG Version: 6.00 Build 0)  -->
<svg version="1.1" id="Layer_1" xmlns="http://www.w3.org/2000/svg" xmlns:xlink="http://www.w3.org/1999/xlink" x="0px" y="0px"
	 viewBox="0 0 48 48" enable-background="new 0 0 48 48" xml:space="preserve">
<g>
	<polygon fill="#262626" points="4.197,6.938 6.713,3.844 12.731,1.969 17.299,1.523 24.985,0 33.874,2.039 40.931,4.055 
		43.776,7.336 43.503,42.141 40.767,44.742 33.218,46.148 25.149,48 17.818,46.336 9.12,44.977 4.388,42.516 3.923,40.711 	"/>
	<path fill="#FFFFFF" d="M44.983,7.719c0.276-2.937-2.813-4.858-5.65-5.698c-2.127-0.654-4.309-1.122-6.52-1.447
		c-0.181-0.027-0.361-0.055-0.542-0.08C29.542,0.125,26.771-0.019,24,0.002c-2.771-0.021-5.542,0.123-8.27,0.493
		c-0.181,0.025-0.361,0.053-0.542,0.08c-2.211,0.324-4.393,0.793-6.52,1.447c-2.837,0.84-5.638,2.541-5.65,5.698
		c0.194,10.844-0.033,21.711,0,32.57c-0.285,2.972,2.886,4.879,5.756,5.712c2.099,0.605,4.245,1.057,6.415,1.381
		c0.256,0.038,0.512,0.079,0.769,0.114C18.615,47.852,21.307,48.009,24,48c2.693,0.009,5.386-0.148,8.042-0.505
		c0.257-0.035,0.513-0.075,0.769-0.114c2.17-0.324,4.315-0.776,6.415-1.381c2.87-0.833,5.817-2.782,5.756-5.712
		C45.015,29.43,44.898,18.531,44.983,7.719z M10.392,3.687c1.576-0.418,3.179-0.793,4.797-1.038C18.084,2.212,21.03,2,23.978,2
		C23.985,2,23.993,2,24,2c0.007,0,0.015,0,0.022,0c2.948,0,5.894,0.212,8.789,0.65c1.618,0.245,3.22,0.593,4.797,1.011
		c1.943,0.628,4.545,1.397,4.984,3.41c-0.325,1.645-2.301,2.393-3.862,2.986c-1.937,0.567-3.916,1-5.919,1.311
		c-2.903,0.451-5.856,0.648-8.812,0.631c-2.955,0.017-5.909-0.178-8.812-0.628c-2.003-0.311-3.982-0.74-5.919-1.307
		C7.709,9.47,5.733,8.728,5.408,7.083C5.847,5.071,8.449,4.316,10.392,3.687z M42.34,42.195c-2.301,2.175-5.951,2.577-9.114,3.135
		c-0.138,0.018-0.277,0.031-0.415,0.048c-2.917,0.369-5.864,0.546-8.812,0.535c-2.948,0.011-5.895-0.167-8.812-0.535
		c-0.138-0.017-0.277-0.03-0.415-0.048c-3.163-0.558-6.813-0.96-9.114-3.135c-0.512-3.008-0.073-6.079-0.244-9.108
		c2.783,1.935,6.324,2.633,9.772,3.086c0.138,0.018,0.277,0.039,0.415,0.056c2.652,0.305,5.322,0.463,7.993,0.481
		c0.135,0.001,0.269,0.005,0.404,0.005c0.135,0,0.269-0.004,0.404-0.005c2.671-0.018,5.341-0.176,7.993-0.481
		c0.138-0.017,0.277-0.038,0.415-0.056c3.448-0.453,6.99-1.151,9.772-3.086C42.413,36.116,42.852,39.187,42.34,42.195z M5.416,21.79
		c2.776,1.941,6.322,2.631,9.772,3.089c0.127,0.017,0.255,0.036,0.382,0.052c2.627,0.301,5.274,0.458,7.922,0.479
		c0.169,0.001,0.338,0.006,0.507,0.006c0.169,0,0.338-0.005,0.507-0.006c2.648-0.021,5.295-0.178,7.922-0.479
		c0.127-0.016,0.255-0.036,0.382-0.052c3.45-0.459,6.997-1.149,9.772-3.089c-0.163,3.029,0.252,6.086-0.228,9.094
		c-1.423,1.511-3.732,2.048-5.805,2.563c-1.237,0.255-2.486,0.451-3.74,0.619c-2.686,0.361-5.402,0.532-8.123,0.542
		c-0.229,0.001-0.459,0.006-0.688,0.005c-0.23,0.001-0.459-0.004-0.688-0.005c-2.721-0.01-5.437-0.182-8.123-0.542
		c-1.254-0.168-2.503-0.364-3.74-0.619c-2.073-0.515-4.382-1.052-5.805-2.563C5.164,27.876,5.579,24.819,5.416,21.79z M42.34,19.609
		c-1.455,1.504-3.764,2.04-5.846,2.556c-1.218,0.25-2.449,0.441-3.683,0.607c-2.69,0.361-5.409,0.531-8.133,0.54
		c-0.226,0.001-0.453,0.005-0.679,0.004c-0.226,0.001-0.453-0.003-0.679-0.004c-2.724-0.009-5.443-0.18-8.133-0.54
		c-1.234-0.165-2.465-0.357-3.683-0.607c-2.081-0.515-4.39-1.052-5.846-2.556c-0.52-3.008-0.065-6.079-0.244-9.115
		c2.779,1.939,6.328,2.631,9.772,3.09c0.144,0.019,0.288,0.041,0.431,0.059c2.619,0.298,5.259,0.452,7.899,0.471
		c0.161,0.001,0.321,0.006,0.482,0.006c0.161,0,0.321-0.005,0.482-0.006c2.64-0.019,5.28-0.173,7.899-0.471
		c0.143-0.018,0.287-0.04,0.431-0.059c3.444-0.459,6.994-1.151,9.772-3.09C42.405,13.53,42.861,16.601,42.34,19.609z"/>
</g>
</svg>
