<?xml version="1.0" encoding="utf-8"?>
<!-- Generator: Adobe Illustrator 19.1.0, SVG Export Plug-In . SVG Version: 6.00 Build 0)  -->
<svg version="1.1" id="Layer_1" xmlns="http://www.w3.org/2000/svg" xmlns:xlink="http://www.w3.org/1999/xlink" x="0px" y="0px"
	 viewBox="0 0 32 32" style="enable-background:new 0 0 32 32;" xml:space="preserve">
<style type="text/css">
	.st0{fill:#262626;}
</style>
<g>
	<g>
		<g>
			<path class="st0" d="M17.312,20.144c-0.387-0.642-1.683-1.04-2.967-1.61c-1.283-0.568-1.587-0.766-1.587-0.766l-0.012-1.311
				c0,0,0.481-0.394,0.63-1.627c0.3,0.093,0.591-1.87,0.225-1.789c0.075-0.605,0.13-1.148,0.103-1.435
				c-0.095-1.054-1.069-2.164-2.566-2.164c-1.498,0-2.471,1.11-2.566,2.164c-0.028,0.286,0.027,0.83,0.101,1.435
				c-0.366-0.081-0.076,1.883,0.226,1.789c0.148,1.233,0.63,1.627,0.63,1.627l-0.012,1.311c0,0-0.304,0.198-1.587,0.766
				c-1.283,0.57-2.58,0.968-2.966,1.61c-0.347,0.574-0.241,3.415-0.241,3.415h13.161C17.882,23.559,17.656,20.719,17.312,20.144z"/>
		</g>
	</g>
	<g>
		<rect x="19.765" y="11.324" class="st0" width="7.529" height="1.882"/>
	</g>
	<g>
		<rect x="19.765" y="16.029" class="st0" width="7.529" height="1.882"/>
	</g>
	<g>
		<rect x="19.765" y="20.735" class="st0" width="7.529" height="1.882"/>
	</g>
	<g>
		<path class="st0" d="M27.294,28.265H4.706C2.111,28.265,0,26.153,0,23.559V9.441c0-2.595,2.111-4.706,4.706-4.706h22.588
			C29.889,4.735,32,6.847,32,9.441v14.118C32,26.153,29.889,28.265,27.294,28.265z M4.706,6.618c-1.557,0-2.824,1.267-2.824,2.824
			v14.118c0,1.557,1.267,2.824,2.824,2.824h22.588c1.557,0,2.824-1.267,2.824-2.824V9.441c0-1.557-1.267-2.824-2.824-2.824H4.706z"
			/>
	</g>
</g>
</svg>
