<?xml version="1.0" encoding="utf-8"?>
<!-- Generator: Adobe Illustrator 20.1.0, SVG Export Plug-In . SVG Version: 6.00 Build 0)  -->
<!DOCTYPE svg PUBLIC "-//W3C//DTD SVG 1.1//EN" "http://www.w3.org/Graphics/SVG/1.1/DTD/svg11.dtd">
<svg version="1.1" id="Layer_1" xmlns="http://www.w3.org/2000/svg" xmlns:xlink="http://www.w3.org/1999/xlink" x="0px" y="0px"
	 viewBox="0 0 24 24" enable-background="new 0 0 24 24" xml:space="preserve">
<g>
	<path fill="#FFFFFF" d="M5,0l13,0l4,4v17c0,1.657-1.343,3-3,3H5c-1.657,0-3-1.343-3-3V3C2,1.343,3.343,0,5,0z M14.707,6.707
		c0.391-0.391,0.391-1.023,0-1.414L12,2.586L9.293,5.293c-0.391,0.391-0.391,1.023,0,1.414s1.023,0.391,1.414,0L12,5.414
		l1.293,1.293C13.488,6.902,13.744,7,14,7S14.512,6.902,14.707,6.707z M7.707,14.707c0.391-0.391,0.391-1.023,0-1.414L6.414,12
		l1.293-1.293c0.391-0.391,0.391-1.023,0-1.414s-1.023-0.391-1.414,0L3.586,12l2.707,2.707C6.488,14.902,6.744,15,7,15
		S7.512,14.902,7.707,14.707z M17.707,14.707L20.414,12l-2.707-2.707c-0.391-0.391-1.023-0.391-1.414,0s-0.391,1.023,0,1.414
		L17.586,12l-1.293,1.293c-0.391,0.391-0.391,1.023,0,1.414C16.488,14.902,16.744,15,17,15S17.512,14.902,17.707,14.707z
		 M14.707,18.707c0.391-0.391,0.391-1.023,0-1.414s-1.023-0.391-1.414,0L12,18.586l-1.293-1.293c-0.391-0.391-1.023-0.391-1.414,0
		s-0.391,1.023,0,1.414L12,21.414L14.707,18.707z"/>
</g>
</svg>
