<?xml version="1.0" encoding="utf-8"?>
<!-- Generator: Adobe Illustrator 19.2.0, SVG Export Plug-In . SVG Version: 6.00 Build 0)  -->
<!DOCTYPE svg PUBLIC "-//W3C//DTD SVG 1.1//EN" "http://www.w3.org/Graphics/SVG/1.1/DTD/svg11.dtd">
<svg version="1.1" id="Layer_1" xmlns="http://www.w3.org/2000/svg" xmlns:xlink="http://www.w3.org/1999/xlink" x="0px" y="0px"
	 viewBox="0 0 32 32" enable-background="new 0 0 32 32" xml:space="preserve">
<g id="Ppt">
</g>
<g id="Small_Folder">
</g>
<g id="fave_icon_-_selected">
</g>
<g id="Shortcut_1_">
</g>
<g id="comment_icon_-_selected">
</g>
<g id="Comment_icon">
</g>
<g>
	<g>
		<g>
			<path fill="#B36601" d="M0.5,18.5V2.177C0.5,1.252,1.248,0.5,2.167,0.5h6.143c0.387,0,0.776,0.139,1.095,0.391l2.849,2.405
				C12.438,3.441,12.554,3.5,12.667,3.5h8.167c0.919,0,1.667,0.748,1.667,1.667V18.5H0.5z"/>
			<g>
				<path fill="#FFFFFF" d="M8.309,1C8.594,1,8.87,1.106,9.094,1.283l2.837,2.395C12.154,3.855,12.382,4,12.667,4h8.167
					C21.478,4,22,4.522,22,5.167V18H1V2.176C1,1.532,1.522,1,2.167,1H8.309 M8.309,0H2.167C0.972,0,0,0.976,0,2.176V18v1h1h21h1v-1
					V5.167C23,3.972,22.028,3,20.833,3h-8.132c-0.022-0.012-0.067-0.041-0.15-0.106L9.739,0.519C9.308,0.177,8.809,0,8.309,0
					L8.309,0z"/>
			</g>
		</g>
	</g>
	<g>
		<path fill="#E3992E" d="M2,17h19V7c0-0.552-0.448-1-1-1H3C2.448,6,2,6.448,2,7V17z"/>
	</g>
	<g>
		<polygon fill="#DD8100" points="2,17 21,17 21,7 		"/>
	</g>
</g>
<g>
	<path fill="#FFFFFF" d="M14.5,31.5c-0.551,0-1-0.448-1-1s0.449-1,1-1h1v-1H8.979c-0.815,0-1.479-0.663-1.479-1.479V15.979
		c0-0.815,0.663-1.479,1.479-1.479H11.5V9.979c0-0.815,0.663-1.479,1.479-1.479h17.043c0.815,0,1.479,0.663,1.479,1.479v11.043
		c0,0.815-0.663,1.479-1.479,1.479H27.5v4.521c0,0.815-0.663,1.479-1.479,1.479H19.5v1h1c0.551,0,1,0.448,1,1s-0.449,1-1,1H14.5z"/>
	<path fill="#FFFFFF" d="M30.021,9C30.56,9,31,9.44,31,9.979v11.043C31,21.56,30.56,22,30.021,22H27v5.021
		C27,27.56,26.56,28,26.021,28H19v2h1.5c0.275,0,0.5,0.225,0.5,0.5c0,0.275-0.225,0.5-0.5,0.5h-6c-0.275,0-0.5-0.225-0.5-0.5
		c0-0.275,0.225-0.5,0.5-0.5H16v-2H8.979C8.44,28,8,27.56,8,27.021V15.979C8,15.44,8.44,15,8.979,15H12V9.979
		C12,9.44,12.44,9,12.979,9H30.021 M30.021,8H12.979C11.888,8,11,8.888,11,9.979V14H8.979C7.888,14,7,14.888,7,15.979v11.043
		C7,28.112,7.888,29,8.979,29H14.5c-0.827,0-1.5,0.673-1.5,1.5s0.673,1.5,1.5,1.5h6c0.827,0,1.5-0.673,1.5-1.5S21.327,29,20.5,29H20
		h6.021C27.112,29,28,28.112,28,27.021V23h2.021C31.112,23,32,22.112,32,21.021V9.979C32,8.888,31.112,8,30.021,8L30.021,8z"/>
</g>
<g>
	<g>
		<rect x="16" y="27.368" fill="#40535B" width="3" height="2.632"/>
		<path fill="#627783" d="M20.5,31h-6c-0.275,0-0.5-0.225-0.5-0.5l0,0c0-0.275,0.225-0.5,0.5-0.5h6c0.275,0,0.5,0.225,0.5,0.5l0,0
			C21,30.775,20.775,31,20.5,31z"/>
		<g>
			<path fill="#40535B" d="M26.021,28H8.979C8.44,28,8,27.56,8,27.021V15.979C8,15.44,8.44,15,8.979,15h17.043
				C26.56,15,27,15.44,27,15.979v11.043C27,27.56,26.56,28,26.021,28z"/>
		</g>
		<rect x="9" y="16" fill="#C3E5F6" width="17" height="11"/>
		<polygon fill="#96D1EF" points="9,27 9,16 26,16 		"/>
	</g>
	<g>
		<g>
			<rect x="20" y="21.368" fill="#40535B" width="3" height="2.632"/>
			<path fill="#627783" d="M24.5,25h-6c-0.275,0-0.5-0.225-0.5-0.5l0,0c0-0.275,0.225-0.5,0.5-0.5h6c0.275,0,0.5,0.225,0.5,0.5l0,0
				C25,24.775,24.775,25,24.5,25z"/>
			<g>
				<path fill="#40535B" d="M30.021,22H12.979C12.44,22,12,21.56,12,21.021V9.979C12,9.44,12.44,9,12.979,9h17.043
					C30.56,9,31,9.44,31,9.979v11.043C31,21.56,30.56,22,30.021,22z"/>
			</g>
		</g>
		<rect x="13" y="10" fill="#C3E5F6" width="17" height="11"/>
		<polygon fill="#96D1EF" points="13,21 13,10 30,10 		"/>
	</g>
</g>
</svg>
