<svg id="Layer_2" data-name="Layer 2" xmlns="http://www.w3.org/2000/svg" viewBox="0 0 32 32"><defs><style>.cls-1{fill:#2e4453;}.cls-2{fill:#fff;}.cls-3{fill:#506471;}.cls-4{fill:#475c69;}</style></defs><title>mime</title><path class="cls-1" d="M1.5,27.493V6.507a2,2,0,0,1,2-2h7.9a2.128,2.128,0,0,1,1.319.46L16.385,8.2A1.011,1.011,0,0,0,17,8.493H27.5a2,2,0,0,1,2,2v17H1.5Z"/><path class="cls-2" d="M11.4,5.007a1.628,1.628,0,0,1,1.009.351l3.648,3.222A1.528,1.528,0,0,0,17,8.993H27.5a1.5,1.5,0,0,1,1.5,1.5v16.5H2V6.507a1.5,1.5,0,0,1,1.5-1.5h7.9m0-1H3.5A2.5,2.5,0,0,0,1,6.507V27.993H30v-17.5a2.5,2.5,0,0,0-2.5-2.5H17A0.713,0.713,0,0,1,16.7,7.81l-3.626-3.2-0.02-.018-0.022-.016a2.635,2.635,0,0,0-1.63-.567h0Z"/><path class="cls-3" d="M3,25.993H28v-14a1,1,0,0,0-1-1H4a1,1,0,0,0-1,1v14Z"/><polygon class="cls-4" points="3.001 25.993 28.001 25.993 28.001 12.993 3.001 25.993"/><rect class="cls-1" x="14.004" y="21.366" width="3" height="2.632"/><path class="cls-1" d="M17.5,25h-4a0.5,0.5,0,0,1-.5-0.5h0a0.5,0.5,0,0,1,.5-0.5h4a0.5,0.5,0,0,1,.5.5h0A0.5,0.5,0,0,1,17.5,25Z"/><path class="cls-1" d="M22.024,22.968H8.985a0.981,0.981,0,0,1-.979-0.979V14.95a0.981,0.981,0,0,1,.979-0.979h13.04A0.981,0.981,0,0,1,23,14.95v7.04A0.981,0.981,0,0,1,22.024,22.968Z"/><rect class="cls-2" x="14.004" y="20.379" width="3" height="2.632"/><path class="cls-2" d="M17.5,24.011h-4a0.5,0.5,0,0,1-.5-0.5h0a0.5,0.5,0,0,1,.5-0.5h4a0.5,0.5,0,0,1,.5.5h0A0.5,0.5,0,0,1,17.5,24.011Z"/><path class="cls-2" d="M22.024,21.981H8.985A0.981,0.981,0,0,1,8.006,21V13.963a0.981,0.981,0,0,1,.979-0.979h13.04a0.981,0.981,0,0,1,.978.979V21A0.981,0.981,0,0,1,22.024,21.981Z"/><rect class="cls-1" x="9.008" y="13.992" width="12.997" height="6.997"/><polygon class="cls-4" points="22.006 13.991 9.009 13.991 9.009 20.988 12.644 20.988 22.006 16.12 22.006 13.991"/></svg>