<?xml version="1.0" encoding="utf-8"?>
<!-- Generator: Adobe Illustrator 19.2.0, SVG Export Plug-In . SVG Version: 6.00 Build 0)  -->
<!DOCTYPE svg PUBLIC "-//W3C//DTD SVG 1.1//EN" "http://www.w3.org/Graphics/SVG/1.1/DTD/svg11.dtd">
<svg version="1.1" id="Layer_1" xmlns="http://www.w3.org/2000/svg" xmlns:xlink="http://www.w3.org/1999/xlink" x="0px" y="0px"
	 viewBox="0 0 32 32" enable-background="new 0 0 32 32" xml:space="preserve">
<g id="Ppt">
</g>
<g id="Small_Folder">
</g>
<g id="fave_icon_-_selected">
</g>
<g id="Shortcut_1_">
</g>
<g id="comment_icon_-_selected">
</g>
<g id="Comment_icon">
</g>
<g>
	<path fill="#FFFFFF" d="M20.833,3h-8.132c-0.022-0.012-0.067-0.041-0.15-0.106L9.739,0.519C9.308,0.177,8.809,0,8.309,0H2.167
		C0.972,0,0,0.976,0,2.176V18v1h1h21h1v-1V5.167C23,3.972,22.028,3,20.833,3z"/>
	<g>
		<g>
			<path fill="#B36601" d="M22,5.167C22,4.522,21.478,4,20.833,4h-8.167c-0.285,0-0.512-0.145-0.736-0.322L9.094,1.283
				C8.87,1.106,8.594,1,8.309,1H2.167C1.522,1,1,1.532,1,2.176V18h21V5.167z"/>
		</g>
	</g>
	<g>
		<path fill="#E3992E" d="M2,17h19V7c0-0.552-0.448-1-1-1H3C2.448,6,2,6.448,2,7V17z"/>
	</g>
	<g>
		<polygon fill="#DD8100" points="2,17 21,17 21,7 		"/>
	</g>
</g>
<path fill="#FFFFFF" d="M31.875,14.509c0-0.851-0.331-1.651-0.933-2.253l-1.447-1.448l-0.054-0.054l-0.003-0.002l-0.314-0.315
	l-0.001-0.001l-0.056-0.056l-1.447-1.448C27.018,8.332,26.217,8,25.366,8h-4.752c-0.851,0-1.651,0.331-2.253,0.933l-9.428,9.429
	c-1.242,1.242-1.242,3.264,0,4.506l1.874,1.874l6.2,6.2c0.602,0.602,1.402,0.933,2.253,0.933c0.851,0,1.651-0.331,2.253-0.933
	l9.428-9.428c0.602-0.602,0.933-1.402,0.933-2.253L31.875,14.509z"/>
<g>
	<path fill="#374951" d="M20.943,11.516l-9.428,9.429c-0.854,0.854-0.854,2.238,0,3.092l6.199,6.199
		c0.854,0.854,2.238,0.854,3.092,0l9.428-9.428c0.41-0.41,0.64-0.966,0.64-1.546l0-4.752c0-0.58-0.23-1.136-0.64-1.546l-1.447-1.448
		c-0.41-0.41-0.966-0.641-1.546-0.641h-4.752C21.909,10.875,21.353,11.105,20.943,11.516z M28.732,14.227
		c0.204,1.08-0.723,2.009-1.803,1.809c-0.601-0.111-1.095-0.601-1.212-1.201c-0.213-1.087,0.725-2.025,1.81-1.817
		C28.128,13.133,28.619,13.626,28.732,14.227z"/>
</g>
<g>
	<g>
		<path fill="#627783" d="M20.068,10.641l-9.427,9.428c-0.854,0.854-0.854,2.238,0,3.092l6.199,6.199
			c0.854,0.854,2.238,0.854,3.092,0l9.427-9.428c0.41-0.41,0.64-0.966,0.64-1.546l0-4.752c0-0.58-0.23-1.136-0.64-1.546
			l-1.447-1.448C27.502,10.231,26.946,10,26.366,10h-4.752C21.034,10,20.478,10.231,20.068,10.641z M27.857,13.352
			c0.204,1.08-0.723,2.009-1.803,1.809c-0.601-0.111-1.095-0.601-1.212-1.201c-0.213-1.086,0.725-2.025,1.81-1.817
			C27.253,12.258,27.743,12.751,27.857,13.352z"/>
	</g>
</g>
<g>
	<path fill="#9AB3C2" d="M19.068,9.64L9.64,19.069c-0.854,0.854-0.854,2.238,0,3.092l6.199,6.199c0.854,0.854,2.238,0.854,3.092,0
		l9.428-9.428c0.41-0.41,0.64-0.966,0.64-1.546l0-4.752c0-0.58-0.23-1.136-0.64-1.546l-1.447-1.448C26.502,9.23,25.946,9,25.366,9
		h-4.752C20.034,9,19.478,9.23,19.068,9.64z M26.857,12.352c0.204,1.08-0.723,2.009-1.803,1.809
		c-0.601-0.111-1.095-0.601-1.212-1.201c-0.213-1.087,0.725-2.025,1.81-1.817C26.253,11.258,26.744,11.751,26.857,12.352z"/>
</g>
<path fill="#31444C" d="M21.907,20.958l-4.743-4.743c-0.261-0.261-0.688-0.261-0.949,0l0,0c-0.261,0.261-0.261,0.688,0,0.949
	l4.743,4.743c0.261,0.261,0.688,0.261,0.949,0l0,0C22.168,21.646,22.168,21.219,21.907,20.958z"/>
<path fill="#31444C" d="M20.01,22.855l-4.743-4.743c-0.261-0.261-0.688-0.261-0.949,0l0,0c-0.261,0.261-0.261,0.688,0,0.949
	l4.743,4.743c0.261,0.261,0.688,0.261,0.949,0l0,0C20.271,23.543,20.271,23.116,20.01,22.855z"/>
<path fill="#31444C" d="M18.113,24.753l-4.743-4.743c-0.261-0.261-0.688-0.261-0.949,0l0,0c-0.261,0.261-0.261,0.688,0,0.949
	l4.743,4.743c0.261,0.261,0.688,0.261,0.949,0l0,0C18.373,25.44,18.373,25.014,18.113,24.753z"/>
</svg>
