<?xml version="1.0" encoding="utf-8"?>
<!-- Generator: Adobe Illustrator 19.1.0, SVG Export Plug-In . SVG Version: 6.00 Build 0)  -->
<svg version="1.1" id="Layer_1" xmlns="http://www.w3.org/2000/svg" xmlns:xlink="http://www.w3.org/1999/xlink" x="0px" y="0px"
	 viewBox="0 0 32 32" style="enable-background:new 0 0 32 32;" xml:space="preserve">
<style type="text/css">
	.st0{fill:#B36600;}
	.st1{fill:#DD8100;}
	.st2{fill:#E3992E;}
	.st3{fill:#FFFFFF;}
	.st4{fill:#333333;}
	.st5{fill:#0072AA;}
	.st6{fill:#004B71;}
	.st7{fill:#00A389;stroke:#FFFFFF;stroke-miterlimit:10;}
</style>
<g>
	<path class="st0" d="M59.365,32H45.216C43.997,32,43,31.003,43,29.784V2.216C43,0.997,43.997,0,45.216,0h14.149
		c1.219,0,2.216,0.997,2.216,2.216v27.568C61.581,31.003,60.584,32,59.365,32z"/>
	<g>
		<path class="st1" d="M59.208,30.278H45.372c-0.55,0-1-0.45-1-1V2.448c0-0.55,0.45-1,1-1h13.836c0.55,0,1,0.45,1,1v26.83
			C60.208,29.828,59.758,30.278,59.208,30.278z"/>
		<path class="st2" d="M58.875,1.448H45.706c-0.733,0-1.333,0.6-1.333,1.333v26.163c0,0.391,0.177,0.735,0.447,0.979l15.09-27.947
			C59.665,1.663,59.301,1.448,58.875,1.448z"/>
	</g>
	<path class="st3" d="M58.328,7.577H46.253c-0.275,0-0.5-0.225-0.5-0.5V6.744c0-0.275,0.225-0.5,0.5-0.5h12.075
		c0.275,0,0.5,0.225,0.5,0.5v0.333C58.828,7.352,58.603,7.577,58.328,7.577z"/>
	<path class="st3" d="M58.328,11.147H46.253c-0.275,0-0.5-0.225-0.5-0.5v-0.333c0-0.275,0.225-0.5,0.5-0.5h12.075
		c0.275,0,0.5,0.225,0.5,0.5v0.333C58.828,10.922,58.603,11.147,58.328,11.147z"/>
	<g>
		<circle class="st3" cx="50.57" cy="28.01" r="1.118"/>
		<circle class="st3" cx="54.011" cy="28.01" r="1.118"/>
	</g>
</g>
<circle class="st3" cx="59.669" cy="22.557" r="7.385"/>
<g>
	<g>
		<g>
			<g>
				<path class="st4" d="M59.671,31.626c-3.711,0-7.101-2.327-8.436-5.792c-0.867-2.252-0.805-4.708,0.174-6.914
					c0.98-2.206,2.76-3.898,5.012-4.766c1.044-0.402,2.136-0.605,3.245-0.605c3.711,0,7.101,2.328,8.436,5.792
					c0.866,2.252,0.805,4.707-0.174,6.914c-0.98,2.205-2.761,3.898-5.013,4.766C61.872,31.422,60.781,31.626,59.671,31.626z
					 M59.666,15.401c-0.88,0-1.748,0.162-2.579,0.482c-1.79,0.689-3.206,2.035-3.985,3.789c-0.779,1.754-0.828,3.706-0.138,5.497
					c1.06,2.754,3.755,4.604,6.707,4.604c0.882,0,1.75-0.162,2.579-0.481c1.791-0.69,3.206-2.036,3.984-3.789
					c0.778-1.754,0.828-3.706,0.138-5.497C65.312,17.251,62.617,15.401,59.666,15.401z"/>
				<path class="st3" d="M59.666,13.799c3.609,0,6.904,2.263,8.202,5.631c0.843,2.191,0.783,4.578-0.169,6.723
					c-0.953,2.145-2.683,3.79-4.874,4.634c-1.014,0.391-2.076,0.589-3.154,0.589c-3.609,0-6.905-2.263-8.202-5.631
					c-0.843-2.191-0.783-4.578,0.169-6.723c0.953-2.145,2.683-3.79,4.874-4.634C57.525,13.997,58.587,13.799,59.666,13.799
					 M59.671,30.024c0.912,0,1.81-0.168,2.669-0.498c1.853-0.714,3.317-2.107,4.124-3.921c0.805-1.815,0.856-3.835,0.143-5.688
					c-1.097-2.85-3.886-4.765-6.939-4.765c-0.912,0-1.81,0.168-2.669,0.498c-1.853,0.714-3.317,2.107-4.124,3.921
					c-0.805,1.815-0.856,3.835-0.143,5.688C53.828,28.109,56.617,30.024,59.671,30.024 M59.666,13.299
					c-1.141,0-2.263,0.209-3.335,0.622c-2.315,0.892-4.144,2.631-5.151,4.898c-1.006,2.267-1.07,4.79-0.179,7.105
					c1.371,3.56,4.855,5.952,8.669,5.952c1.141,0,2.263-0.209,3.334-0.622c2.315-0.892,4.144-2.631,5.151-4.898
					c1.006-2.267,1.07-4.79,0.179-7.105C66.963,15.691,63.48,13.299,59.666,13.299L59.666,13.299z M59.671,29.524
					c-2.848,0-5.45-1.786-6.473-4.445c-0.666-1.728-0.618-3.613,0.133-5.306c0.752-1.693,2.118-2.992,3.846-3.657
					c0.801-0.309,1.639-0.465,2.489-0.465c2.848,0,5.449,1.786,6.473,4.445c0.666,1.728,0.618,3.613-0.133,5.306
					c-0.752,1.693-2.118,2.992-3.846,3.657C61.358,29.367,60.521,29.524,59.671,29.524L59.671,29.524z"/>
			</g>
		</g>
	</g>
	<g>
		<g>
			<g>
				<path class="st4" d="M57.697,15.43L57.697,15.43c1.972,0,4.335,2.42,5.619,5.754c1.466,3.808,1.034,7.667-0.942,8.429
					c-0.228,0.089-0.475,0.133-0.733,0.133c-1.972,0-4.335-2.42-5.619-5.754c-1.466-3.809-1.034-7.669,0.942-8.429
					C57.192,15.474,57.439,15.43,57.697,15.43 M57.697,14.848c-0.325,0-0.641,0.056-0.941,0.171
					c-2.313,0.891-2.885,5.001-1.276,9.182c1.4,3.636,3.989,6.127,6.163,6.127c0.325,0,0.641-0.056,0.941-0.171
					c2.313-0.891,2.885-5.003,1.276-9.182C62.458,17.338,59.869,14.847,57.697,14.848L57.697,14.848z"/>
			</g>
		</g>
	</g>
	<g>
		
			<rect x="51.903" y="22.219" transform="matrix(0.3594 0.9332 -0.9332 0.3594 59.2681 -41.2204)" class="st4" width="15.507" height="0.676"/>
	</g>
	<g>
		<path class="st4" d="M52.106,25.681c-0.137,0-0.266-0.084-0.317-0.221c-0.065-0.175,0.024-0.369,0.199-0.434l15-5.572
			c0.173-0.067,0.37,0.024,0.434,0.199c0.065,0.175-0.024,0.369-0.199,0.434l-15,5.572C52.185,25.674,52.145,25.681,52.106,25.681z"
			/>
	</g>
	<g>
		<path class="st4" d="M51.767,21.609c-0.139,0-0.268-0.086-0.318-0.223c-0.063-0.176,0.028-0.37,0.203-0.433l13.005-4.694
			c0.177-0.061,0.369,0.028,0.433,0.203c0.063,0.176-0.028,0.37-0.203,0.433l-13.005,4.694
			C51.844,21.602,51.805,21.609,51.767,21.609z"/>
	</g>
	<g>
		<path class="st4" d="M54.387,28.939c-0.139,0-0.269-0.086-0.318-0.224c-0.063-0.176,0.029-0.369,0.205-0.432l13.183-4.701
			c0.176-0.065,0.37,0.03,0.432,0.205c0.063,0.176-0.029,0.369-0.205,0.432L54.5,28.919C54.463,28.933,54.424,28.939,54.387,28.939z
			"/>
	</g>
</g>
<g>
	<path class="st4" d="M104.927,10.253C102.481,3.899,96.421-0.002,89.995,0c-1.911,0-3.855,0.345-5.743,1.073
		c-8.244,3.175-12.354,12.431-9.179,20.675C77.519,28.102,83.579,32,90.005,32c1.911,0,3.853-0.345,5.743-1.073
		C103.99,27.753,108.102,18.495,104.927,10.253z M97.93,27.149c-0.763,0.545-1.592,1.013-2.483,1.399l-1.923-4.997l5.38-2.072
		C98.953,23.696,98.617,25.653,97.93,27.149z M87.083,26.032l5.369-2.067l1.916,4.973c-0.912,0.308-1.847,0.505-2.793,0.615
		C90.051,28.911,88.511,27.693,87.083,26.032z M89.405,29.655c-2.343-0.106-4.571-0.815-6.517-2.008l3.06-1.179
		C87.043,27.787,88.213,28.855,89.405,29.655z M77.016,20.312c-0.742-2.224-0.898-4.553-0.473-6.813l3.503-1.349
		c0.197,2.045,0.685,4.222,1.479,6.427L77.016,20.312z M82.04,4.909c0.783-0.561,1.619-1.045,2.52-1.436l1.913,4.971l-5.378,2.07
		C81.048,8.332,81.374,6.398,82.04,4.909z M87.547,8.031l-1.913-4.973c0.914-0.308,1.847-0.505,2.796-0.615
		c1.521,0.645,3.06,1.863,4.489,3.521L87.547,8.031z M93.699,6.894c1.238,1.627,2.345,3.586,3.237,5.75l-6.627,2.552l-2.345-6.092
		L93.699,6.894z M90.597,2.341c2.343,0.106,4.571,0.815,6.515,2.005l-3.06,1.179C92.957,4.209,91.787,3.143,90.597,2.341z
		 M81.163,11.721l5.725-2.205l2.345,6.092l-6.639,2.557C81.804,15.957,81.328,13.758,81.163,11.721z M89.647,16.68l2.391,6.211
		l-5.739,2.21c-1.261-1.656-2.389-3.655-3.287-5.867L89.647,16.68z M93.111,22.481l-2.391-6.211l6.643-2.557
		c0.818,2.247,1.307,4.489,1.475,6.565L93.111,22.481z M98.433,13.299l4.509-1.737c0.79,2.304,0.928,4.684,0.505,6.937l-3.494,1.346
		C99.754,17.765,99.253,15.543,98.433,13.299z M102.509,10.498l-4.503,1.735c-0.891-2.171-1.992-4.107-3.219-5.757l3.478-1.339
		C100.085,6.519,101.56,8.346,102.509,10.498z M80.37,6.278c-0.342,1.385-0.478,2.968-0.409,4.67l-3.095,1.193
		c0.17-0.574,0.365-1.146,0.611-1.705C78.183,8.856,79.178,7.463,80.37,6.278z M77.437,21.383l4.505-1.735
		c0.901,2.219,2.021,4.195,3.271,5.874l-3.48,1.339C79.881,25.451,78.383,23.585,77.437,21.383z M99.623,25.735
		c0.345-1.392,0.485-2.979,0.413-4.691l3.085-1.187C102.472,22.065,101.279,24.095,99.623,25.735z"/>
</g>
<g>
	<g>
		<path class="st0" d="M94.216,31.5c-1.497,0-2.716-1.219-2.716-2.716V11.729c0-1.498,1.219-2.716,2.716-2.716h8.045
			c1.497,0,2.716,1.218,2.716,2.716v17.055c0,1.497-1.219,2.716-2.716,2.716H94.216z"/>
		<path class="st3" d="M102.26,9.513c1.219,0,2.216,0.997,2.216,2.216v17.055c0,1.219-0.997,2.216-2.216,2.216h-8.044
			C92.997,31,92,30.003,92,28.784V11.729c0-1.219,0.997-2.216,2.216-2.216H102.26 M102.26,8.513h-8.044
			C92.443,8.513,91,9.956,91,11.729v17.055C91,30.557,92.443,32,94.216,32h8.044c1.773,0,3.216-1.443,3.216-3.216V11.729
			C105.476,9.956,104.033,8.513,102.26,8.513L102.26,8.513z"/>
	</g>
	<g>
		<path class="st1" d="M102.555,29.844h-8.633c-0.55,0-1-0.45-1-1V11.486c0-0.55,0.45-1,1-1h8.633c0.55,0,1,0.45,1,1v17.358
			C103.555,29.394,103.105,29.844,102.555,29.844z"/>
		<path class="st2" d="M102.659,10.486h-8.843c-0.492,0-0.895,0.403-0.895,0.895v17.567c0,0.262,0.119,0.493,0.3,0.657
			l10.132-18.765C103.19,10.63,102.945,10.486,102.659,10.486z"/>
	</g>
	<path class="st3" d="M102.202,14.601h-7.928c-0.234,0-0.426-0.192-0.426-0.426v-0.044c0-0.234,0.192-0.426,0.426-0.426h7.928
		c0.234,0,0.426,0.192,0.426,0.426v0.044C102.628,14.409,102.436,14.601,102.202,14.601z"/>
	<path class="st3" d="M102.202,16.998h-7.928c-0.234,0-0.426-0.192-0.426-0.426v-0.044c0-0.234,0.192-0.426,0.426-0.426h7.928
		c0.234,0,0.426,0.192,0.426,0.426v0.044C102.628,16.806,102.436,16.998,102.202,16.998z"/>
	<g>
		<circle class="st3" cx="97.083" cy="28.321" r="0.751"/>
		<circle class="st3" cx="99.393" cy="28.321" r="0.751"/>
	</g>
</g>
<g>
	<g>
		<g>
			<g>
				<g>
					<g>
						<path class="st5" d="M24.284,31.487H6.669c-2.158,0-4.241-1.737-4.241-3.872V4.385c0-2.135,2.083-3.872,4.241-3.872h15.332
							l6.524,6.453v20.649C28.525,29.75,26.443,31.487,24.284,31.487z"/>
						<path class="st3" d="M24.285,32H6.669c-2.532,0-4.754-2.049-4.754-4.385V4.385C1.915,2.049,4.137,0,6.669,0h15.543
							l6.827,6.752v20.863C29.039,29.951,26.817,32,24.285,32z M6.669,1.027c-1.951,0-3.727,1.601-3.727,3.358v23.23
							c0,1.757,1.776,3.358,3.727,3.358h17.616c1.951,0,3.727-1.601,3.727-3.358V7.18L21.79,1.027H6.669z"/>
					</g>
				</g>
			</g>
			<polygon class="st6" points="21.822,1.097 21.822,7.206 27.999,7.206 			"/>
		</g>
	</g>
	<g>
		<path class="st3" d="M23.417,13.371c-1.3-3.376-4.519-5.448-7.933-5.447c-1.015,0-2.048,0.183-3.051,0.57
			c-4.38,1.687-6.563,6.604-4.877,10.984c1.3,3.376,4.519,5.446,7.933,5.446c1.015,0,2.047-0.183,3.051-0.57
			C22.919,22.668,25.104,17.75,23.417,13.371z M19.7,22.347c-0.405,0.289-0.846,0.538-1.319,0.743l-1.021-2.654l2.858-1.101
			C20.243,20.513,20.065,21.552,19.7,22.347z M13.937,21.754l2.852-1.098l1.018,2.642c-0.485,0.164-0.981,0.268-1.484,0.327
			C15.514,23.283,14.696,22.636,13.937,21.754z M15.171,23.678c-1.245-0.056-2.429-0.433-3.462-1.067l1.626-0.626
			C13.916,22.686,14.537,23.254,15.171,23.678z M8.589,18.715c-0.394-1.182-0.477-2.419-0.251-3.62l1.861-0.716
			c0.105,1.086,0.364,2.243,0.786,3.415L8.589,18.715z M11.258,10.532c0.416-0.298,0.86-0.555,1.339-0.763l1.016,2.641l-2.857,1.1
			C10.731,12.351,10.904,11.323,11.258,10.532z M14.184,12.191l-1.016-2.642c0.486-0.164,0.981-0.268,1.485-0.327
			c0.808,0.343,1.626,0.99,2.385,1.871L14.184,12.191z M17.452,11.587c0.658,0.864,1.246,1.905,1.719,3.055l-3.521,1.356
			l-1.246-3.236L17.452,11.587z M15.804,9.168c1.245,0.056,2.429,0.433,3.461,1.065l-1.626,0.626
			C17.058,10.16,16.437,9.594,15.804,9.168z M10.792,14.151l3.041-1.172l1.246,3.236l-3.527,1.358
			C11.133,16.401,10.88,15.233,10.792,14.151z M15.299,16.786l1.27,3.3l-3.049,1.174c-0.67-0.88-1.269-1.942-1.746-3.117
			L15.299,16.786z M17.14,19.867l-1.27-3.3l3.529-1.358c0.435,1.194,0.695,2.385,0.783,3.488L17.14,19.867z M19.967,14.989
			l2.396-0.923c0.42,1.224,0.493,2.488,0.268,3.685l-1.856,0.715C20.669,17.362,20.403,16.181,19.967,14.989z M22.132,13.501
			l-2.392,0.922c-0.474-1.153-1.058-2.182-1.71-3.058l1.848-0.712C20.844,11.388,21.628,12.358,22.132,13.501z M10.371,11.26
			c-0.182,0.736-0.254,1.577-0.217,2.481L8.51,14.374c0.09-0.305,0.194-0.609,0.325-0.906C9.209,12.629,9.738,11.889,10.371,11.26z
			 M8.813,19.284l2.393-0.922c0.478,1.179,1.074,2.228,1.738,3.121l-1.849,0.712C10.111,21.445,9.316,20.454,8.813,19.284z
			 M20.599,21.596c0.183-0.74,0.257-1.583,0.22-2.492l1.639-0.631C22.113,19.646,21.479,20.725,20.599,21.596z"/>
	</g>
	<g>
		<circle class="st7" cx="24.91" cy="24.922" r="6.5"/>
		<path class="st3" d="M28.91,25.497v-1.15h-1.189c-0.077-0.364-0.222-0.702-0.423-1l0.847-0.847l-0.813-0.813L26.48,22.54
			c-0.298-0.195-0.633-0.337-0.994-0.41v-1.208h-1.15v1.208c-0.361,0.073-0.696,0.215-0.994,0.41l-0.853-0.853L21.676,22.5
			l0.847,0.847c-0.2,0.299-0.345,0.637-0.423,1H20.91v1.15h1.18c0.072,0.37,0.215,0.714,0.414,1.019l-0.829,0.829l0.813,0.813
			l0.823-0.823c0.305,0.205,0.651,0.353,1.024,0.428v1.16h1.15v-1.16c0.373-0.076,0.719-0.224,1.024-0.428l0.823,0.823l0.813-0.813
			l-0.829-0.829c0.199-0.305,0.342-0.648,0.414-1.019H28.91z M24.91,26.67c-0.951,0-1.724-0.774-1.724-1.724
			c0-0.951,0.774-1.724,1.724-1.724c0.951,0,1.724,0.774,1.724,1.724C26.635,25.897,25.861,26.67,24.91,26.67z"/>
	</g>
</g>
</svg>
