<svg id="Layer_1" data-name="Layer 1" xmlns="http://www.w3.org/2000/svg" viewBox="0 0 64 64"><defs><style>.cls-1{fill:#fff;}.cls-2{fill:#52870a;}.cls-3{fill:#314516;}</style></defs><title>workspaceArtboard 3</title><path class="cls-1" d="M64,32A32,32,0,1,1,32,0,32,32,0,0,1,64,32"/><path class="cls-2" d="M41.89,55H22.11a4.89,4.89,0,0,1-4.95-4.84V21.11H46.84V50.16A4.89,4.89,0,0,1,41.89,55"/><path class="cls-2" d="M36.95,13.84H27.05V11.42h9.89Zm0-4.84H27.05a2.45,2.45,0,0,0-2.47,2.42v2.42a2.45,2.45,0,0,0,2.47,2.42h9.89a2.45,2.45,0,0,0,2.47-2.42V11.42A2.45,2.45,0,0,0,36.95,9"/><path class="cls-2" d="M46.84,13.84H17.16a2.45,2.45,0,0,0-2.47,2.42v2.42H49.32V16.26a2.45,2.45,0,0,0-2.47-2.42"/><path class="cls-3" d="M34.31,46.32l5.43-5.43a1.15,1.15,0,1,0-1.63-1.63L35.46,41.9V40.07c0-6.6-3.79-10.39-10.39-10.39a1.15,1.15,0,0,0,0,2.31c3.68,0,8.08,1.4,8.08,8.08V41.9l-2.65-2.65a1.15,1.15,0,1,0-1.63,1.63Z"/><path class="cls-1" d="M34.31,45.32l5.43-5.43a1.15,1.15,0,1,0-1.63-1.63L35.46,40.9V39.07c0-6.6-3.79-10.39-10.39-10.39a1.15,1.15,0,0,0,0,2.31c3.68,0,8.08,1.4,8.08,8.08V40.9l-2.65-2.65a1.15,1.15,0,1,0-1.63,1.63Z"/></svg>