<svg id="Layer_1" data-name="Layer 1" xmlns="http://www.w3.org/2000/svg" viewBox="0 0 64 64"><defs><style>.cls-1{fill:#fff;}.cls-2{fill:#333;}.cls-3{fill:#565656;}.cls-4{fill:#0072aa;}</style></defs><title>workspaceArtboard 5</title><path class="cls-1" d="M64,32A32,32,0,1,1,32,0,32,32,0,0,1,64,32"/><path class="cls-2" d="M21.73,37.87a4.4,4.4,0,1,0,4.4,4.4A4.4,4.4,0,0,0,21.73,37.87Zm0,5.87a1.47,1.47,0,1,1,1.47-1.47A1.47,1.47,0,0,1,21.73,43.73Z"/><path class="cls-2" d="M41.53,37.87a4.4,4.4,0,1,0,4.4,4.4A4.4,4.4,0,0,0,41.53,37.87Zm0,5.87A1.47,1.47,0,1,1,43,42.27,1.47,1.47,0,0,1,41.53,43.73Z"/><path class="cls-3" d="M25.4,21.73H18.8a8.82,8.82,0,0,0-8.8,8.8v8.8a2.94,2.94,0,0,0,2.93,2.93h2.2A6.6,6.6,0,0,1,25.69,37a.73.73,0,0,0,1.17-.59V23.2A1.47,1.47,0,0,0,25.4,21.73ZM23.93,25.4v3.67a.73.73,0,0,1-.73.73H21.73A12.4,12.4,0,0,0,16.3,31a2.09,2.09,0,0,1-1,.22H13.67a.73.73,0,0,1-.73-.73,5.89,5.89,0,0,1,5.87-5.87h4.4a.73.73,0,0,1,.73.73Z"/><path class="cls-4" d="M34.93,42.27a6.6,6.6,0,1,1,13.2,0h4.4A1.47,1.47,0,0,0,54,40.8v-22a1.47,1.47,0,0,0-1.47-1.47h-22a1.47,1.47,0,0,0-1.47,1.47v22a1.47,1.47,0,0,0,1.47,1.47Z"/></svg>