<?xml version="1.0" encoding="utf-8"?>
<!-- Generator: Adobe Illustrator 19.2.0, SVG Export Plug-In . SVG Version: 6.00 Build 0)  -->
<!DOCTYPE svg PUBLIC "-//W3C//DTD SVG 1.1//EN" "http://www.w3.org/Graphics/SVG/1.1/DTD/svg11.dtd">
<svg version="1.1" id="Layer_1" xmlns="http://www.w3.org/2000/svg" xmlns:xlink="http://www.w3.org/1999/xlink" x="0px" y="0px"
	 viewBox="0 0 32 32" enable-background="new 0 0 32 32" xml:space="preserve">
<g id="Ppt">
</g>
<g id="Small_Folder">
</g>
<g id="fave_icon_-_selected">
</g>
<g id="Shortcut_1_">
</g>
<g id="comment_icon_-_selected">
</g>
<g id="Comment_icon">
</g>
<g>
	<g>
		<g>
			<path fill="#374951" d="M17.385,5.6L5.6,17.386c-1.067,1.067-1.067,2.798,0,3.865L13.35,29c1.067,1.067,2.798,1.067,3.865,0
				L29,17.214c0.513-0.513,0.8-0.862,0.8-1.582l0-6.291c0-0.725-0.288-1.42-0.8-1.932L27.19,5.6
				c-0.513-0.513-1.208-0.801-1.933-0.801h-5.94C18.593,4.799,17.898,5.087,17.385,5.6z M27.122,8.989
				c0.255,1.351-0.904,2.512-2.254,2.261c-0.752-0.139-1.369-0.751-1.516-1.501c-0.266-1.358,0.906-2.532,2.263-2.272
				C26.366,7.622,26.98,8.238,27.122,8.989z"/>
		</g>
	</g>
</g>
<g>
	<g>
		<g>
			<path fill="#627783" d="M15.585,3.8L3.8,15.586c-1.067,1.067-1.067,2.798,0,3.865L11.55,27.2c1.067,1.067,2.798,1.067,3.865,0
				L27.2,15.414c0.513-0.513,0.8-0.862,0.8-1.582l0-6.291c0-0.725-0.288-1.42-0.8-1.932L25.39,3.8
				c-0.513-0.513-1.208-0.801-1.933-0.801h-5.94C16.793,2.999,16.098,3.287,15.585,3.8z M25.322,7.189
				c0.255,1.351-0.904,2.512-2.254,2.261c-0.752-0.139-1.369-0.751-1.516-1.501c-0.266-1.358,0.906-2.532,2.263-2.272
				C24.566,5.822,25.18,6.438,25.322,7.189z"/>
		</g>
	</g>
</g>
<g>
	<g>
		<g>
			<path fill="#7B9AB0" d="M13.585,1.801L1.8,13.587c-1.067,1.067-1.067,2.798,0,3.865L9.55,25.2c1.067,1.067,2.798,1.067,3.865,0
				L25.2,13.415c0.513-0.513,0.8-0.862,0.8-1.582l0-6.291c0-0.725-0.288-1.42-0.8-1.932l-1.809-1.81C22.878,1.288,22.182,1,21.457,1
				h-5.94C14.793,1,14.098,1.288,13.585,1.801z M23.322,5.19c0.255,1.351-0.904,2.512-2.254,2.261
				c-0.752-0.139-1.369-0.751-1.516-1.501c-0.266-1.358,0.906-2.532,2.263-2.272C22.566,3.823,23.18,4.438,23.322,5.19z"/>
		</g>
	</g>
	<path fill="#31444C" d="M17.164,15.976l-5.94-5.94c-0.327-0.327-0.861-0.327-1.188,0l0,0c-0.327,0.327-0.327,0.861,0,1.188
		l5.94,5.94c0.327,0.327,0.861,0.327,1.188,0h0C17.491,16.837,17.491,16.303,17.164,15.976z"/>
	<path fill="#31444C" d="M14.788,18.352l-5.94-5.94c-0.327-0.327-0.861-0.327-1.188,0l0,0c-0.327,0.327-0.327,0.861,0,1.188
		l5.94,5.94c0.327,0.327,0.861,0.327,1.188,0l0,0C15.115,19.213,15.115,18.679,14.788,18.352z"/>
	<path fill="#31444C" d="M12.412,20.728l-5.94-5.94c-0.327-0.327-0.861-0.327-1.188,0l0,0c-0.327,0.327-0.327,0.861,0,1.188
		l5.94,5.94c0.327,0.327,0.861,0.327,1.188,0l0,0C12.739,21.589,12.739,21.054,12.412,20.728z"/>
</g>
</svg>
