<svg id="Layer_1" data-name="Layer 1" xmlns="http://www.w3.org/2000/svg" viewBox="0 0 64 64"><defs><style>.cls-1{fill:#fff;}.cls-2{fill:#9e230b;}.cls-3{fill:#d24625;}</style></defs><title>workspaceArtboard 2</title><path class="cls-1" d="M64,32A32,32,0,1,1,32,0,32,32,0,0,1,64,32"/><path class="cls-2" d="M38,27H26a5,5,0,0,1-5-5V15a5,5,0,0,1,5-5H38a5,5,0,0,1,5,5v7A5,5,0,0,1,38,27ZM26,12a3,3,0,0,0-3,3v7a3,3,0,0,0,3,3H38a3,3,0,0,0,3-3V15a3,3,0,0,0-3-3Z"/><g id="Layer_1-2" data-name="Layer 1"><path class="cls-3" d="M47.58,50.67H16.41a4.25,4.25,0,0,1-4.24-4.24v-25a4.25,4.25,0,0,1,4.24-4.24H47.58a4.25,4.25,0,0,1,4.24,4.24v25A4.25,4.25,0,0,1,47.58,50.67Z"/><path class="cls-1" d="M47.58,52H16.42a5.58,5.58,0,0,1-5.57-5.57v-25a5.58,5.58,0,0,1,5.57-5.57H47.58a5.58,5.58,0,0,1,5.57,5.57v25A5.58,5.58,0,0,1,47.58,52ZM16.42,18.54a2.91,2.91,0,0,0-2.91,2.91v25a2.91,2.91,0,0,0,2.91,2.91H47.58a2.91,2.91,0,0,0,2.91-2.91v-25a2.91,2.91,0,0,0-2.91-2.91Z"/><path class="cls-3" d="M47.58,50.67H16.41a4.25,4.25,0,0,1-4.24-4.24v-25a4.25,4.25,0,0,1,4.24-4.24H47.58a4.25,4.25,0,0,1,4.24,4.24v25A4.25,4.25,0,0,1,47.58,50.67Z"/><path class="cls-2" d="M16.41,50.67H47.58a4.25,4.25,0,0,0,4.24-4.24V46H12.18v.43A4.25,4.25,0,0,0,16.41,50.67Z"/></g><rect class="cls-2" x="29.3" y="25" width="5.4" height="18"/><rect class="cls-2" x="29.3" y="25" width="5.4" height="18" transform="translate(66 2) rotate(90)"/><rect class="cls-1" x="29.3" y="24" width="5.4" height="18"/><rect class="cls-1" x="29.3" y="24" width="5.4" height="18" transform="translate(65 1) rotate(90)"/><path class="cls-1" d="M34.52,14.44a4,4,0,0,1-1.42-.26,3.13,3.13,0,0,0-2.17,0,4,4,0,1,1-2.78-7.48,11.14,11.14,0,0,1,7.81,0,4,4,0,0,1-1.43,7.72Z"/><path class="cls-3" d="M34.52,13.11a2.66,2.66,0,0,1-1-.18,4.46,4.46,0,0,0-3.11,0,2.66,2.66,0,0,1-1.85-5,9.83,9.83,0,0,1,6.87,0,2.66,2.66,0,0,1-1,5.15Z"/></svg>