<svg id="Layer_1" data-name="Layer 1" xmlns="http://www.w3.org/2000/svg" viewBox="0 0 64 64"><defs><style>.cls-1{fill:#fff;}.cls-2{fill:#9e230b;}.cls-3{fill:#5a1800;}</style></defs><title>workspaceArtboard 4</title><path class="cls-1" d="M64,32A32,32,0,1,1,32,0,32,32,0,0,1,64,32"/><path class="cls-2" d="M41.89,55H22.11a4.89,4.89,0,0,1-4.95-4.84V21.11H46.84V50.16A4.89,4.89,0,0,1,41.89,55"/><path class="cls-2" d="M36.95,13.84H27.05V11.42h9.89Zm0-4.84H27.05a2.45,2.45,0,0,0-2.47,2.42v2.42a2.45,2.45,0,0,0,2.47,2.42h9.89a2.45,2.45,0,0,0,2.47-2.42V11.42A2.45,2.45,0,0,0,36.95,9"/><path class="cls-2" d="M46.84,13.84H17.16a2.45,2.45,0,0,0-2.47,2.42v2.42H49.32V16.26a2.45,2.45,0,0,0-2.47-2.42"/><path class="cls-3" d="M37.51,45.14a1.33,1.33,0,0,1-1-.4L32,40.19l-4.56,4.56a1.34,1.34,0,0,1-1.9-1.9l4.56-4.56-4.56-4.56a1.34,1.34,0,0,1,0-1.9,1.34,1.34,0,0,1,1.9,0L32,36.39l4.56-4.56a1.34,1.34,0,0,1,1.9,0,1.34,1.34,0,0,1,0,1.9L33.9,38.29l4.56,4.56a1.34,1.34,0,0,1,0,1.9A1.33,1.33,0,0,1,37.51,45.14Z"/><path class="cls-1" d="M37.51,44.14a1.33,1.33,0,0,1-1-.4L32,39.19l-4.56,4.56a1.34,1.34,0,0,1-1.9-1.9l4.56-4.56-4.56-4.56a1.34,1.34,0,0,1,0-1.9,1.34,1.34,0,0,1,1.9,0L32,35.39l4.56-4.56a1.34,1.34,0,0,1,1.9,0,1.34,1.34,0,0,1,0,1.9L33.9,37.29l4.56,4.56a1.34,1.34,0,0,1,0,1.9A1.33,1.33,0,0,1,37.51,44.14Z"/></svg>