<svg id="Layer_1" data-name="Layer 1" xmlns="http://www.w3.org/2000/svg" viewBox="0 0 64 64"><defs><style>.cls-1{fill:#fff;}.cls-2{fill:#0072aa;}.cls-3{fill:#004a70;}</style></defs><title>workspaceArtboard 6</title><path class="cls-1" d="M64,32A32,32,0,1,1,32,0,32,32,0,0,1,64,32"/><rect class="cls-2" x="11" y="44" width="42" height="5"/><path class="cls-3" d="M14,41V22h6V41a1,1,0,0,1-1,1H15A1,1,0,0,1,14,41Z"/><path class="cls-3" d="M29,41V22h6V41a1,1,0,0,1-1,1H30A1,1,0,0,1,29,41Z"/><path class="cls-3" d="M44,41V22h6V41a1,1,0,0,1-1,1H45A1,1,0,0,1,44,41Z"/><path class="cls-2" d="M11.6,23c-.59,0-1.18-.63-1.48-1.26a1.57,1.57,0,0,1,.59-1.89L32,6.92,53.29,19.85a1.44,1.44,0,0,1,.59,1.89C53.59,22.37,53,23,52.4,23Z"/></svg>