<?xml version="1.0" encoding="utf-8"?>
<!-- Generator: Adobe Illustrator 21.0.0, SVG Export Plug-In . SVG Version: 6.00 Build 0)  -->
<!DOCTYPE svg PUBLIC "-//W3C//DTD SVG 1.1//EN" "http://www.w3.org/Graphics/SVG/1.1/DTD/svg11.dtd">
<svg version="1.1" id="Layer_1" xmlns="http://www.w3.org/2000/svg" xmlns:xlink="http://www.w3.org/1999/xlink" x="0px" y="0px"
	 viewBox="0 0 24 24" style="enable-background:new 0 0 24 24;" xml:space="preserve">
<style type="text/css">
	.st0{fill:#90A3AF;}
	.st1{fill:#627783;}
</style>
<g>
	<g id="Layer_2_14_">
	</g>
	<g id="Layer_1_30_">
	</g>
	<g id="Layer_3_13_">
	</g>
	<g id="Layer_4_13_">
	</g>
	<g id="Layer_5_12_">
		<g>
			<g>
				<path class="st0" d="M24,19.8c0-0.3,0-0.5-0.1-0.7c-0.1-0.6-0.2-1.1-0.4-2c-0.2-0.8-0.8-1.5-1.8-1.9c-0.8-0.4-1.8-0.6-2.6-0.7
					c-0.7-0.1-1.4-0.3-1.8-0.5c-0.3-0.1-0.5-0.3-0.7-0.5c-0.1-0.1-0.2-0.3-0.3-0.4c0.4-0.3,0.8-0.7,1-1.2c0.4-0.6,0.7-1.4,0.9-2.3
					c0.2-0.1,0.4-0.2,0.5-0.4c0.2-0.3,0.3-0.6,0.4-0.9c0.1-0.5,0-1-0.2-1.3c0-0.1,0-0.1,0-0.2c0.1-0.4,0.1-1,0.1-1.5
					c-0.1-1-0.3-1.8-0.3-1.8c-0.2-0.8-0.8-1.7-1.7-2.3C16.5,0.6,15.4,0,13.7,0c-1.7,0-2.8,0.6-3.5,1.1C9.3,1.7,8.6,2.5,8.4,3.4
					c0,0-0.2,0.8-0.3,1.8c0,0.6,0,1.1,0.1,1.5c0,0.1,0,0.1,0,0.2C8.1,7.2,8,7.7,8.1,8.3c0.1,0.4,0.2,0.7,0.4,0.9
					c0.2,0.2,0.4,0.4,0.5,0.4c0.2,0.9,0.5,1.7,0.9,2.3c0.3,0.5,0.6,0.9,1.1,1.2c-0.1,0.2-0.2,0.3-0.3,0.4c-0.2,0.2-0.4,0.4-0.7,0.5
					c-0.5,0.2-1.1,0.3-1.8,0.5c-0.8,0.2-1.8,0.3-2.6,0.7c-0.9,0.4-1.5,1-1.8,1.9c-0.3,0.9-0.3,1.4-0.4,2c0,0.2-0.1,1-0.1,1.2v0.7
					v0.3c0,0,0,0,0,0c0,0.3,0.1,0.7,0.3,1c0.1,0.2,0.3,0.4,0.4,0.6c0.3,0.3,0.8,0.3,1.2,0.4c0.3,0.1,0.7,0.1,1,0.2
					c2.1,0.3,4.6,0.5,7.4,0.5s5.3-0.2,7.4-0.5c0.4-0.1,0.8-0.1,1.1-0.2c0.3-0.1,0.5-0.1,0.8-0.2c0.3-0.1,0.4-0.3,0.6-0.5
					c0.2-0.3,0.4-0.6,0.4-1c0-0.1,0-0.2,0-0.3v-0.3v-0.5v-0.2C24,20.1,24,19.9,24,19.8z"/>
			</g>
		</g>
	</g>
	<g id="Layer_7_10_">
	</g>
</g>
<rect x="3" y="1" class="st1" width="1" height="7"/>
<rect y="4" class="st1" width="7" height="1"/>
</svg>
