<svg id="Layer_1" data-name="Layer 1" xmlns="http://www.w3.org/2000/svg" viewBox="0 0 64 64"><defs><style>.cls-1{fill:#fff;}.cls-2{fill:#7f8080;}.cls-3{fill:#333;}.cls-4{fill:#314516;}.cls-5{fill:#e0e4e6;}.cls-6{fill:#52870a;}.cls-7{fill:#627783;}</style></defs><title>workspaceArtboard 1</title><path class="cls-1" d="M64,32A32,32,0,1,1,32,0,32,32,0,0,1,64,32"/><rect class="cls-2" x="14.03" y="11" width="35.94" height="42" rx="4" ry="4"/><rect class="cls-1" x="17" y="14" width="30" height="36"/><path class="cls-3" d="M24.81,16.5a1.87,1.87,0,0,1-2-1.95V11.94a1.87,1.87,0,0,1,2-1.95h1V9a1.87,1.87,0,0,1,2-1.95h8.81a1.87,1.87,0,0,1,2,1.95V10h.67a1.87,1.87,0,0,1,2,1.95v2.61a1.87,1.87,0,0,1-2,1.95Z"/><path class="cls-1" d="M36.55,7.6A1.38,1.38,0,0,1,38,9V10.5h1.17a1.38,1.38,0,0,1,1.47,1.45v2.61A1.38,1.38,0,0,1,39.19,16H24.81a1.38,1.38,0,0,1-1.47-1.45V11.94a1.38,1.38,0,0,1,1.47-1.45h1.47V9A1.38,1.38,0,0,1,27.74,7.6h8.81m0-1H27.74A2.38,2.38,0,0,0,25.27,9V9.5h-.47a2.38,2.38,0,0,0-2.47,2.45v2.61A2.38,2.38,0,0,0,24.81,17H39.19a2.38,2.38,0,0,0,2.47-2.45V11.94A2.38,2.38,0,0,0,39.19,9.5H39V9A2.38,2.38,0,0,0,36.55,6.6Z"/><g id="Layer_3" data-name="Layer 3"><path class="cls-4" d="M22.7,35.42,21,33.73a.49.49,0,1,1,.7-.7l1,1,2.3-2.3a.49.49,0,0,1,.7.7Z"/><path class="cls-4" d="M22.7,27.42,21,25.73a.49.49,0,1,1,.7-.7l1,1,2.3-2.3a.49.49,0,0,1,.7.7Z"/><path class="cls-4" d="M22.7,43.42,21,41.73a.49.49,0,0,1,.7-.7l1,1,2.3-2.3a.49.49,0,0,1,.7.7Z"/><path class="cls-5" d="M42.5,25.53h-12a.5.5,0,0,1,0-1H42.4a.56.56,0,0,1,.6.5A.54.54,0,0,1,42.5,25.53Z"/><path class="cls-5" d="M42.5,33.53h-12a.5.5,0,0,1,0-1H42.4a.47.47,0,0,1,.5.5A.46.46,0,0,1,42.5,33.53Z"/><path class="cls-5" d="M42.5,41.53h-12a.5.5,0,0,1,0-1H42.4a.47.47,0,0,1,.5.5A.46.46,0,0,1,42.5,41.53Z"/></g><g id="Layer_3-2" data-name="Layer 3"><path class="cls-6" d="M22.7,34.9,21,33.2a.49.49,0,0,1,.7-.7l1,1L25,31.2a.49.49,0,1,1,.7.7Z"/><path class="cls-6" d="M22.7,26.9,21,25.2a.49.49,0,0,1,.7-.7l1,1L25,23.2a.49.49,0,1,1,.7.7Z"/><path class="cls-6" d="M22.7,42.9,21,41.2a.49.49,0,1,1,.7-.7l1,1L25,39.2a.49.49,0,1,1,.7.7Z"/><path class="cls-7" d="M42.5,25h-12a.5.5,0,0,1,0-1H42.4a.56.56,0,0,1,.6.5A.54.54,0,0,1,42.5,25Z"/><path class="cls-7" d="M42.5,33h-12a.5.5,0,0,1,0-1H42.4a.47.47,0,0,1,.5.5A.46.46,0,0,1,42.5,33Z"/><path class="cls-7" d="M42.5,41h-12a.5.5,0,0,1,0-1H42.4a.47.47,0,0,1,.5.5A.46.46,0,0,1,42.5,41Z"/></g></svg>