<?xml version="1.0" encoding="utf-8"?>
<!-- Generator: Adobe Illustrator 19.1.0, SVG Export Plug-In . SVG Version: 6.00 Build 0)  -->
<svg version="1.1" id="Layer_1" xmlns="http://www.w3.org/2000/svg" xmlns:xlink="http://www.w3.org/1999/xlink" x="0px" y="0px"
	 viewBox="0 0 32 32" style="enable-background:new 0 0 32 32;" xml:space="preserve">
<style type="text/css">
	.st0{fill:#0072AA;}
	.st1{fill:#FFFFFF;}
	.st2{fill:#004B71;}
</style>
<g>
	<g>
		<g>
			<g>
				<g>
					<path class="st0" d="M25.372,31.487H7.757c-2.158,0-4.241-1.737-4.241-3.872V4.385c0-2.135,2.083-3.872,4.241-3.872h15.332
						l6.524,6.453v20.649C29.613,29.75,27.531,31.487,25.372,31.487z"/>
					<path class="st1" d="M25.373,32H7.757c-2.532,0-4.754-2.049-4.754-4.385V4.385C3.003,2.049,5.225,0,7.757,0H23.3l6.827,6.752
						v20.863C30.127,29.951,27.905,32,25.373,32z M7.757,1.027c-1.951,0-3.727,1.601-3.727,3.358v23.23
						c0,1.757,1.776,3.358,3.727,3.358h17.616c1.951,0,3.727-1.601,3.727-3.358V7.18l-6.221-6.153H7.757z"/>
				</g>
			</g>
		</g>
		<polygon class="st2" points="22.91,1.097 22.91,7.206 29.087,7.206 		"/>
	</g>
</g>
<g>
	<path class="st2" d="M9.175,17.837l-1.788-3.708H8.68c0.095,0,0.164,0.014,0.207,0.042c0.042,0.027,0.078,0.074,0.107,0.14
		l1.221,2.745c0.037-0.077,0.081-0.154,0.132-0.231l1.688-2.497c0.089-0.132,0.196-0.198,0.325-0.198h1.49l-2.706,3.641l1.996,4.312
		h-1.276c-0.095,0-0.169-0.025-0.223-0.077c-0.053-0.051-0.094-0.108-0.123-0.17l-1.381-3.186c-0.018,0.029-0.036,0.059-0.052,0.088
		c-0.017,0.03-0.034,0.06-0.052,0.089l-2.057,3.009c-0.062,0.091-0.13,0.155-0.203,0.192c-0.074,0.036-0.154,0.055-0.242,0.055
		H6.106L9.175,17.837z"/>
	<path class="st2" d="M20.89,17.573c0,0.659-0.106,1.267-0.319,1.82s-0.509,1.029-0.888,1.428c-0.38,0.397-0.83,0.707-1.351,0.929
		s-1.089,0.333-1.705,0.333h-2.8l0.979-7.954h2.805c0.506,0,0.962,0.086,1.367,0.259c0.404,0.172,0.748,0.411,1.031,0.715
		c0.282,0.304,0.499,0.667,0.651,1.089C20.814,16.614,20.89,17.074,20.89,17.573z M19.428,17.605c0-0.355-0.044-0.678-0.133-0.968
		c-0.088-0.29-0.215-0.537-0.382-0.74c-0.167-0.204-0.371-0.36-0.613-0.47c-0.242-0.11-0.519-0.165-0.83-0.165h-1.37l-0.698,5.682
		h1.369c0.4,0,0.763-0.076,1.089-0.231c0.327-0.153,0.606-0.374,0.839-0.662c0.233-0.288,0.413-0.639,0.539-1.051
		C19.364,18.588,19.428,18.123,19.428,17.605z"/>
	<path class="st2" d="M23.189,19.267l-0.347,2.816h-1.419l0.974-7.954h2.42c0.45,0,0.838,0.054,1.163,0.163
		c0.324,0.108,0.591,0.259,0.8,0.454s0.364,0.424,0.465,0.69c0.101,0.266,0.151,0.559,0.151,0.877c0,0.425-0.067,0.819-0.201,1.18
		s-0.334,0.673-0.602,0.935c-0.268,0.263-0.603,0.468-1.004,0.616s-0.87,0.223-1.405,0.223H23.189z M23.689,15.229l-0.363,2.927
		h1.001c0.279,0,0.521-0.043,0.727-0.127c0.205-0.084,0.376-0.202,0.512-0.354c0.135-0.152,0.235-0.333,0.3-0.542
		c0.063-0.209,0.096-0.44,0.096-0.693c0-0.18-0.025-0.345-0.077-0.495c-0.051-0.15-0.13-0.277-0.236-0.382s-0.239-0.187-0.398-0.245
		c-0.16-0.059-0.35-0.088-0.569-0.088H23.689z"/>
</g>
<g>
	<path class="st1" d="M8.671,17.36l-1.788-3.708h1.292c0.095,0,0.164,0.014,0.207,0.042c0.042,0.027,0.078,0.074,0.107,0.14
		l1.221,2.745c0.037-0.077,0.081-0.154,0.132-0.231l1.688-2.497c0.089-0.132,0.196-0.198,0.325-0.198h1.49l-2.706,3.641l1.996,4.312
		H11.36c-0.095,0-0.169-0.025-0.223-0.077c-0.053-0.051-0.094-0.108-0.123-0.17l-1.381-3.186c-0.018,0.029-0.036,0.059-0.052,0.088
		c-0.017,0.03-0.034,0.06-0.052,0.089l-2.057,3.009c-0.062,0.091-0.13,0.155-0.203,0.192c-0.074,0.036-0.154,0.055-0.242,0.055
		H5.603L8.671,17.36z"/>
	<path class="st1" d="M20.387,17.097c0,0.659-0.106,1.267-0.319,1.82s-0.509,1.029-0.888,1.428c-0.38,0.397-0.83,0.707-1.351,0.929
		s-1.089,0.333-1.705,0.333h-2.8l0.979-7.954h2.805c0.506,0,0.962,0.086,1.367,0.259c0.404,0.172,0.748,0.411,1.031,0.715
		c0.282,0.304,0.499,0.667,0.651,1.089C20.311,16.137,20.387,16.597,20.387,17.097z M18.924,17.129c0-0.355-0.044-0.678-0.133-0.968
		c-0.088-0.29-0.215-0.537-0.382-0.74c-0.167-0.204-0.371-0.36-0.613-0.47c-0.242-0.11-0.519-0.165-0.83-0.165h-1.37l-0.698,5.682
		h1.369c0.4,0,0.763-0.076,1.089-0.231c0.327-0.153,0.606-0.374,0.839-0.662c0.233-0.288,0.413-0.639,0.539-1.051
		C18.86,18.111,18.924,17.646,18.924,17.129z"/>
	<path class="st1" d="M22.686,18.79l-0.347,2.816H20.92l0.974-7.954h2.42c0.45,0,0.838,0.054,1.163,0.163
		c0.324,0.108,0.591,0.259,0.8,0.454s0.364,0.424,0.465,0.69c0.101,0.266,0.151,0.559,0.151,0.877c0,0.425-0.067,0.819-0.201,1.18
		s-0.334,0.673-0.602,0.935c-0.268,0.263-0.603,0.468-1.004,0.616s-0.87,0.223-1.405,0.223H22.686z M23.186,14.753l-0.363,2.927
		h1.001c0.279,0,0.521-0.043,0.727-0.127c0.205-0.084,0.376-0.202,0.512-0.354c0.135-0.152,0.235-0.333,0.3-0.542
		c0.063-0.209,0.096-0.44,0.096-0.693c0-0.18-0.025-0.345-0.077-0.495c-0.051-0.15-0.13-0.277-0.236-0.382s-0.239-0.187-0.398-0.245
		c-0.16-0.059-0.35-0.088-0.569-0.088H23.186z"/>
</g>
</svg>
