<?xml version="1.0" encoding="utf-8"?>
<!-- Generator: Adobe Illustrator 19.1.0, SVG Export Plug-In . SVG Version: 6.00 Build 0)  -->
<!DOCTYPE svg PUBLIC "-//W3C//DTD SVG 1.1//EN" "http://www.w3.org/Graphics/SVG/1.1/DTD/svg11.dtd">
<svg version="1.1" id="Layer_1" xmlns="http://www.w3.org/2000/svg" xmlns:xlink="http://www.w3.org/1999/xlink" x="0px" y="0px"
	 viewBox="0 0 24 24" enable-background="new 0 0 24 24" xml:space="preserve">
<g id="Zoom_in_page">
	<circle fill="#FFFFFF" cx="10.065" cy="9.869" r="9.593"/>
	<path fill="#333333" d="M23.707,22.31l-5.981-5.98c3.234-3.928,3.018-9.746-0.655-13.418C15.118,0.959,12.559-0.017,10-0.017
		S4.882,0.959,2.929,2.912c-3.905,3.905-3.905,10.237,0,14.142c1.953,1.953,4.512,2.929,7.071,2.929c2.239,0,4.477-0.747,6.31-2.241
		l5.983,5.982c0.195,0.195,0.451,0.293,0.707,0.293s0.512-0.098,0.707-0.293C24.098,23.334,24.098,22.701,23.707,22.31z
		 M3.636,16.347c-3.509-3.509-3.509-9.219,0-12.728c1.7-1.7,3.96-2.636,6.364-2.636s4.664,0.936,6.364,2.636
		c3.509,3.509,3.509,9.219,0,12.728c-1.7,1.7-3.96,2.636-6.364,2.636S5.336,18.047,3.636,16.347z"/>
	<path fill="#333333" d="M15,8.983H5c-0.553,0-1,0.447-1,1s0.447,1,1,1h10c0.553,0,1-0.447,1-1S15.553,8.983,15,8.983z"/>
</g>
</svg>
