<?xml version="1.0" encoding="utf-8"?>
<!-- Generator: Adobe Illustrator 20.1.0, SVG Export Plug-In . SVG Version: 6.00 Build 0)  -->
<!DOCTYPE svg PUBLIC "-//W3C//DTD SVG 1.1//EN" "http://www.w3.org/Graphics/SVG/1.1/DTD/svg11.dtd">
<svg version="1.1" id="Layer_1" xmlns="http://www.w3.org/2000/svg" xmlns:xlink="http://www.w3.org/1999/xlink" x="0px" y="0px"
	 viewBox="0 0 24 24" enable-background="new 0 0 24 24" xml:space="preserve">
<g>
	<path fill="#FFFFFF" d="M14,9h-3V6c0-0.552-0.447-1-1-1S9,5.448,9,6v3H6c-0.553,0-1,0.448-1,1s0.447,1,1,1h3v3c0,0.552,0.447,1,1,1
		s1-0.448,1-1v-3h3c0.553,0,1-0.448,1-1S14.553,9,14,9z"/>
	<path fill="#FFFFFF" d="M22.701,21.524l-5.107-5.028C19.091,14.747,20,12.482,20,10c0-5.523-4.477-10-10-10S0,4.477,0,10
		c0,5.523,4.477,10,10,10c2.32,0,4.45-0.797,6.147-2.124l5.152,5.072c0.194,0.192,0.448,0.288,0.701,0.288
		c0.259,0,0.517-0.1,0.713-0.298C23.1,22.544,23.095,21.911,22.701,21.524z M10,18c-4.411,0-8-3.589-8-8s3.589-8,8-8s8,3.589,8,8
		S14.411,18,10,18z"/>
</g>
</svg>
