<?xml version="1.0" standalone="no"?>
<!DOCTYPE svg PUBLIC "-//W3C//DTD SVG 1.1//EN" "http://www.w3.org/Graphics/SVG/1.1/DTD/svg11.dtd" >
<svg xmlns="http://www.w3.org/2000/svg">
<metadata>Generated by IcoMoon</metadata>
<defs>
<font id="icomoon" horiz-adv-x="1024">
<font-face units-per-em="1024" ascent="960" descent="-64" />
<missing-glyph horiz-adv-x="1024" />
<glyph unicode="&#x20;" horiz-adv-x="512" d="" />
<glyph unicode="&#xe900;" d="M128 832v-768c0-47.128 38.205-85.333 85.333-85.333h597.333c47.128 0 85.333 38.205 85.333 85.333v725.333l-128 128h-554.667c-47.128 0-85.333-38.205-85.333-85.333z" />
<glyph unicode="&#xe901;" d="M305.493 490.667c0-23.564 19.103-42.667 42.667-42.667h188.587l-261.547-262.4c-7.807-7.807-12.636-18.593-12.636-30.507 0-23.827 19.316-43.143 43.143-43.143 11.914 0 22.699 4.829 30.507 12.636l261.12 261.12v-186.453c0-23.564 19.103-42.667 42.667-42.667s42.667 19.103 42.667 42.667v334.080h-334.507c-23.564 0-42.667-19.103-42.667-42.667z" />
<glyph unicode="&#xe902;" glyph-name="action_remove_offline24" d="M512 388.267l119.467-119.467c7.867-10.41 20.223-17.067 34.133-17.067 23.564 0 42.667 19.103 42.667 42.667 0 13.911-6.657 26.267-16.959 34.056l-119.574 119.544 119.467 119.467c5.327 7.042 8.533 15.947 8.533 25.6 0 23.564-19.103 42.667-42.667 42.667-9.653 0-18.558-3.206-25.707-8.611l-119.359-119.389-119.467 119.467c-7.69 7.542-18.235 12.197-29.867 12.197s-22.177-4.655-29.874-12.203c-7.479-7.778-12.258-18.214-12.789-29.759-0.013-0.412-0.018-0.777-0.018-1.143 0-11.421 4.931-21.69 12.781-28.795l119.5-119.496-119.467-119.467c-7.486-7.785-12.265-18.221-12.796-29.766-0.013-0.412-0.018-0.777-0.018-1.143 0-11.421 4.931-21.69 12.781-28.795 7.723-7.571 18.268-12.226 29.9-12.226s22.177 4.655 29.874 12.203zM728.32-21.333h-432.213c0 0-0.001 0-0.001 0-45.564 0-82.53 36.816-82.772 82.323v773.997c0.242 45.531 37.208 82.347 82.772 82.347 0 0 0.001 0 0.001 0h432.213c45.382-0.241 82.106-36.965 82.347-82.324v-773.996c-0.241-45.382-36.965-82.106-82.324-82.347zM768 789.333h-512v-682.667h512z" />
<glyph unicode="&#xe903;" d="M815.36 533.333h-47.36v170.667c0 141.385-114.615 256-256 256s-256-114.615-256-256v-170.667h-47.36c-21.077-0.473-37.983-17.671-37.983-38.817 0-0.303 0.003-0.606 0.010-0.907l-0.001-517.928c-0.006-0.257-0.010-0.559-0.010-0.863 0-21.147 16.906-38.345 37.939-38.817l606.764-0.001c21.077 0.473 37.983 17.671 37.983 38.817 0 0.303-0.003 0.606-0.010 0.907l0.001 517.928c0.006 0.257 0.010 0.559 0.010 0.863 0 21.147-16.906 38.345-37.939 38.817zM341.333 704c0 94.257 76.41 170.667 170.667 170.667s170.667-76.41 170.667-170.667v-170.667h-341.333z" />
<glyph unicode="&#xe904;" d="M572.16 234.667l140.373 140.373c9.153 7.872 14.914 19.467 14.914 32.407 0 23.564-19.103 42.667-42.667 42.667-12.94 0-24.535-5.761-32.36-14.858l-140.421-140.43-140.373 140.8c-7.872 9.153-19.467 14.914-32.407 14.914-23.564 0-42.667-19.103-42.667-42.667 0-12.94 5.761-24.535 14.858-32.36l140.43-140.847-140.8-140.373c-9.153-7.872-14.914-19.467-14.914-32.407 0-23.564 19.103-42.667 42.667-42.667 12.94 0 24.535 5.761 32.36 14.858l140.847 140.43 140.373-140.373c7.872-9.153 19.467-14.914 32.407-14.914 23.564 0 42.667 19.103 42.667 42.667 0 12.94-5.761 24.535-14.858 32.36z" />
<glyph unicode="&#xe905;" d="M1024.427 363.093v169.813h-138.155c-9.728 43.008-26.709 83.157-49.493 119.381l97.749 97.749-120.064 120.064-97.664-97.664c-36.181 22.912-76.416 39.936-119.467 49.707v137.856h-169.771v-137.6c-43.179-9.728-83.499-26.752-119.808-49.621l-97.323 97.28-120.064-120.064 97.195-97.195c-22.997-36.309-40.064-76.672-49.835-119.893h-137.301v-169.771h137.301c9.771-43.221 26.837-83.584 49.835-119.936l-97.195-97.195 120.064-120.064 97.323 97.323c36.309-22.912 76.629-39.936 119.808-49.621v-137.643h169.771v137.856c43.051 9.771 83.285 26.837 119.467 49.749l97.621-97.621 120.064 120.064-97.749 97.749c22.827 36.181 39.808 76.373 49.493 119.381h138.197zM725.333 405.333h-213.333c-23.552 0-42.667 19.115-42.667 42.667v256c0 23.552 19.115 42.667 42.667 42.667s42.667-19.115 42.667-42.667v-213.333h170.667c23.552 0 42.667-19.115 42.667-42.667s-19.115-42.667-42.667-42.667z" />
<glyph unicode="&#xe906;" d="M725.333 490.667h-170.667v213.333c0 23.552-19.115 42.667-42.667 42.667s-42.667-19.115-42.667-42.667v-256c0-23.552 19.115-42.667 42.667-42.667h213.333c23.552 0 42.667 19.115 42.667 42.667s-19.115 42.667-42.667 42.667z" />
<glyph unicode="&#xe907;" glyph-name="add" d="M1024 220h-192v196h-93.984v-196h-194.016v-92h194.016v-192h93.984v192h192zM512 96v156h194.016v43.52c-26.24 11.808-54.528 21.888-84.512 29.92 0 0 0 0 0 0-12.128 3.264-24.48 6.208-37.12 8.8-0.32 0.064-0.64 0.16-0.96 0.224-12.896 2.624-26.016 4.928-39.392 6.784v100.64c6.976 4.064 13.664 8.544 20.064 13.408 0 0 0 0 0 0 0.288 0.224 0.576 0.416 0.832 0.64 0 0 0 0 0 0 0.096 0.064 0.16 0.16 0.256 0.224 19.776 15.264 36.448 34.304 49.056 56.032 0 0 0 0 0 0 0 0.032 0.032 0.032 0.032 0.064 7.648 13.216 13.76 27.456 18.080 42.432 0 0 0 0 0 0 4.896 16.928 7.648 34.784 7.648 53.312v160c0 94.464-68.32 172.736-158.176 188.768-0.448 0.096-0.928 0.192-1.376 0.288 0 0 0 0 0 0-10.56 1.792-21.376 2.944-32.448 2.944-106.048 0-192-85.952-192-192v-160c0-18.528 2.752-36.384 7.648-53.312 0 0 0 0 0 0 4.352-14.976 10.432-29.216 18.080-42.432 0-0.032 0.032-0.032 0.032-0.064 0 0 0 0 0 0 12.576-21.728 29.28-40.768 49.056-56.032 0.096-0.064 0.16-0.16 0.256-0.224 0 0 0 0 0 0 0.288-0.224 0.576-0.416 0.832-0.64 0 0 0 0 0 0 6.4-4.864 13.088-9.376 20.064-13.408v-100.64c-200.224-27.936-350.368-141.248-351.84-277.248h705.856v32h-193.984z" />
<glyph unicode="&#xe908;" glyph-name="add_attachment_md24" d="M816.427 482.005l-412.715-412.757c-28.843-28.757-70.059-25.856-92.032-21.717-36.224 6.997-73.6 26.965-100.011 53.461-52.779 52.864-77.568 146.304-31.787 192.085l507.947 507.989c45.653 45.653 100.907 59.349 128.597 31.744l31.701-31.744c27.563-27.648 13.952-82.901-31.701-128.597l-475.904-475.861c-9.088-8.661-23.381-8.661-32.469 0-9.387 8.96-9.771 23.936-1.237 32.981l253.867 254.037c17.323 17.451 17.323 45.781-2.176 65.237-18.048 15.573-45.312 13.483-59.819-3.328l-253.141-253.184c-3.285-2.901-6.357-6.016-9.216-9.259-19.755-22.229-29.653-50.773-27.904-80.469s14.976-56.917 37.205-76.672 50.688-29.525 80.512-27.861c29.653 1.749 56.875 14.976 75.733 36.309l476.459 476.16c86.272 86.315 101.888 182.272 39.68 244.48l-45.099 45.184c-62.805 62.592-162.005 47.701-246.912-37.248l-508.032-507.989c-40.107-40.107-56.789-97.451-46.976-161.408 8.704-56.875 37.589-113.323 79.189-154.923 49.493-49.493 121.003-81.109 188.8-81.109 46.848 0 91.904 15.104 126.635 49.835l412.757 412.757c17.365 17.451 17.365 45.824-2.133 65.195-18.048 15.573-45.312 13.525-59.819-3.328z" />
<glyph unicode="&#xe909;" glyph-name="add_attachment_mo24" d="M816.427 482.005l-412.715-412.757c-28.843-28.757-70.059-25.856-92.032-21.717-36.224 6.997-73.6 26.965-100.011 53.461-52.779 52.864-77.568 146.304-31.787 192.085l507.947 507.989c45.653 45.653 100.907 59.349 128.597 31.744l31.701-31.744c27.563-27.648 13.952-82.901-31.701-128.597l-475.904-475.861c-9.088-8.661-23.381-8.661-32.469 0-9.387 8.96-9.771 23.936-1.237 32.981l253.867 254.037c17.323 17.451 17.323 45.781-2.176 65.237-18.048 15.573-45.312 13.483-59.819-3.328l-253.141-253.184c-3.285-2.901-6.357-6.016-9.216-9.259-19.755-22.229-29.653-50.773-27.904-80.469s14.976-56.917 37.205-76.672 50.688-29.525 80.512-27.861c29.653 1.749 56.875 14.976 75.733 36.309l476.459 476.16c86.272 86.315 101.888 182.272 39.68 244.48l-45.099 45.184c-62.805 62.592-162.005 47.701-246.912-37.248l-508.032-507.989c-40.107-40.107-56.789-97.451-46.976-161.408 8.704-56.875 37.589-113.323 79.189-154.923 49.493-49.493 121.003-81.109 188.8-81.109 46.848 0 91.904 15.104 126.635 49.835l412.757 412.757c17.365 17.451 17.365 45.824-2.133 65.195-18.048 15.573-45.312 13.525-59.819-3.328z" />
<glyph unicode="&#xe90a;" glyph-name="add_attachment24" d="M166.4 55.467c-76.8 76.8-106.667 209.067-34.133 285.867l507.733 507.733c72.533 72.533 157.867 93.867 217.6 38.4l46.933-46.933c55.467-55.467 34.133-140.8-38.4-213.333l-477.867-477.867c-34.133-38.4-89.6-38.4-128-8.533-38.4 34.133-38.4 89.6-8.533 128 4.267 4.267 4.267 4.267 8.533 8.533l256 256c8.533 8.533 21.333 8.533 29.867 4.267 0 0 0 0 0 0 8.533-8.533 8.533-25.6 0-34.133l-251.733-256c-17.067-17.067-17.067-46.933 0-64s42.667-17.067 64 0l473.6 473.6c55.467 55.467 68.267 119.467 29.867 157.867l-29.867 29.867c-38.4 38.4-106.667 21.333-157.867-29.867l-507.733-507.733c-59.733-59.733-25.6-166.4 29.867-221.867s166.4-89.6 221.867-29.867l413.867 413.867c8.533 8.533 21.333 8.533 29.867 4.267 0 0 0 0 0 0 8.533-8.533 8.533-25.6 0-34.133l-409.6-418.133c-76.8-76.8-209.067-42.667-285.867 34.133z" />
<glyph unicode="&#xe90c;" glyph-name="add_item_mo32" d="M800 448h-576M512 160v576" />
<glyph unicode="&#xe90e;" d="M0 960h1024v-1024h-1024v1024z" />
<glyph unicode="&#xe90f;" d="M1024 220h-192v196h-93.984v-196h-194.016v-92h194.016v-192h93.984v192h192z" />
<glyph unicode="&#xe910;" d="M512 96v156h194.016v43.52c-26.24 11.808-54.528 21.888-84.512 29.92 0 0 0 0 0 0-12.128 3.264-24.48 6.208-37.12 8.8-0.32 0.064-0.64 0.16-0.96 0.224-12.896 2.624-26.016 4.928-39.392 6.784v100.64c6.976 4.064 13.664 8.544 20.064 13.408 0 0 0 0 0 0 0.288 0.224 0.576 0.416 0.832 0.64 0 0 0 0 0 0 0.096 0.064 0.16 0.16 0.256 0.224 19.776 15.264 36.448 34.304 49.056 56.032 0 0 0 0 0 0 0 0.032 0.032 0.032 0.032 0.064 7.648 13.216 13.76 27.456 18.080 42.432 0 0 0 0 0 0 4.896 16.928 7.648 34.784 7.648 53.312v160c0 94.464-68.32 172.736-158.176 188.768-0.448 0.096-0.928 0.192-1.376 0.288 0 0 0 0 0 0-10.56 1.792-21.376 2.944-32.448 2.944-106.048 0-192-85.952-192-192v-160c0-18.528 2.752-36.384 7.648-53.312 0 0 0 0 0 0 4.352-14.976 10.432-29.216 18.080-42.432 0-0.032 0.032-0.032 0.032-0.064 0 0 0 0 0 0 12.576-21.728 29.28-40.768 49.056-56.032 0.096-0.064 0.16-0.16 0.256-0.224 0 0 0 0 0 0 0.288-0.224 0.576-0.416 0.832-0.64 0 0 0 0 0 0 6.4-4.864 13.088-9.376 20.064-13.408v-100.64c-200.224-27.936-350.368-141.248-351.84-277.248h705.856v32h-193.984z" />
<glyph unicode="&#xe911;" glyph-name="add_mo" d="M1024 220h-192v196h-93.984v-196h-194.016v-92h194.016v-192h93.984v192h192zM512 96v156h194.016v43.52c-26.24 11.808-54.528 21.888-84.512 29.92 0 0 0 0 0 0-12.128 3.264-24.48 6.208-37.12 8.8-0.32 0.064-0.64 0.16-0.96 0.224-12.896 2.624-26.016 4.928-39.392 6.784v100.64c6.976 4.064 13.664 8.544 20.064 13.408 0 0 0 0 0 0 0.288 0.224 0.576 0.416 0.832 0.64 0 0 0 0 0 0 0.096 0.064 0.16 0.16 0.256 0.224 19.776 15.264 36.448 34.304 49.056 56.032 0 0 0 0 0 0 0 0.032 0.032 0.032 0.032 0.064 7.648 13.216 13.76 27.456 18.080 42.432 0 0 0 0 0 0 4.896 16.928 7.648 34.784 7.648 53.312v160c0 94.464-68.32 172.736-158.176 188.768-0.448 0.096-0.928 0.192-1.376 0.288 0 0 0 0 0 0-10.56 1.792-21.376 2.944-32.448 2.944-106.048 0-192-85.952-192-192v-160c0-18.528 2.752-36.384 7.648-53.312 0 0 0 0 0 0 4.352-14.976 10.432-29.216 18.080-42.432 0-0.032 0.032-0.032 0.032-0.064 0 0 0 0 0 0 12.576-21.728 29.28-40.768 49.056-56.032 0.096-0.064 0.16-0.16 0.256-0.224 0 0 0 0 0 0 0.288-0.224 0.576-0.416 0.832-0.64 0 0 0 0 0 0 6.4-4.864 13.088-9.376 20.064-13.408v-100.64c-200.224-27.936-350.368-141.248-351.84-277.248h705.856v32h-193.984z" />
<glyph unicode="&#xe912;" glyph-name="add_new_page" d="M800-64h-576c-70.571 0-138.667 57.429-138.667 128v768c0 70.571 68.096 128 138.667 128h501.333l213.333-213.333v-682.667c0-70.571-68.096-128-138.667-128zM224 917.333c-52.907 0-96-32.427-96-85.333v-768c0-52.907 43.093-85.333 96-85.333h576c52.907 0 96 32.427 96 85.333v682.667l-170.667 170.667h-501.333zM725.333 917.333v-170.667h170.667zM706.987 444.331h-155.989v155.989c0 21.547-17.451 38.997-38.997 38.997s-38.997-17.451-38.997-38.997v-155.989h-155.989c-21.547 0-38.997-17.451-38.997-38.997s17.451-38.997 38.997-38.997h155.989v-155.989c0-21.547 17.451-38.997 38.997-38.997s38.997 17.451 38.997 38.997v155.989h155.989c21.547 0 38.997 17.451 38.997 38.997s-17.451 38.997-38.997 38.997z" />
<glyph unicode="&#xe913;" d="M960 160c17.673 0 32 14.327 32 32s-14.327 32-32 32h-160v160c0 17.673-14.327 32-32 32s-32-14.327-32-32v-160h-160c-17.673 0-32-14.327-32-32s14.327-32 32-32h160v-160c0-17.673 14.327-32 32-32s32 14.327 32 32v160h160z" />
<glyph unicode="&#xe914;" d="M688 112h-112c-44.183 0-80 35.817-80 80s35.817 80 80 80h112v55.968c-13.401 2.983-25.020 6.747-36.142 11.455-11.576 5.391-22.449 13.763-31.069 24.082-4.888 5.899-9.203 12.359-12.817 19.245l-6.372 12.098 9.984 8.192c15.432 12.837 28.54 27.777 39.065 44.505 16.194 26.373 28.136 56.208 34.559 88.043l2.28 11.163 9.248 2.624c5.684 2.339 10.305 6.3 13.402 11.303 6.288 9.279 10.778 20.128 12.799 31.823 1.177 5.134 1.812 10.466 1.812 15.946 0 10.441-2.304 20.344-6.433 29.228l-3.021 5.204 1.568 6.4c0.64 2.496 1.248 5.056 1.76 7.712 2.405 12.722 3.78 27.356 3.78 42.312 0 5.853-0.211 11.656-0.625 17.403-1.365 24.829-5.019 48.813-10.754 71.977-10.708 32.71-33.133 61.852-62.51 81.355-37.469 26.406-83.363 41.99-132.897 41.99-1.272 0-2.542-0.010-3.809-0.031-0.799 0.018-1.967 0.026-3.138 0.026-49.607 0-95.576-15.58-133.279-42.115-29.23-19.399-51.663-48.559-62.637-82.845-5.52-21.664-9.24-45.747-10.689-70.44-0.416-6.032-0.624-11.816-0.624-17.649 0-14.975 1.373-29.629 4-43.844 0.477-0.892 1.053-3.388 1.757-5.884l1.568-6.4-3.2-5.6c-4.057-8.555-6.426-18.588-6.426-29.174 0-5.345 0.604-10.55 1.747-15.549 1.989-11.764 6.481-22.658 12.896-32.145 2.997-4.793 7.615-8.72 13.098-10.969l9.532-2.628 2.016-9.6c6.737-33.603 18.689-63.448 35.115-90.255 10.359-16.351 23.528-31.333 38.722-43.962l10.131-8.376-6.048-11.488c-3.848-7.4-8.099-13.776-12.948-19.64-8.589-10.291-19.475-18.665-31.864-24.321-22.999-8.991-49.315-16.066-76.584-20.251-40.877-6.217-75.642-15.992-108.527-29.422-27.128-10.705-50.236-35.028-60.167-65.322-10.34-31.864-16.846-67.782-18.272-105.003-1.395-6.33-2.261-12.786-2.421-19.418l-0.002-42.639c0.516-40.156 32.932-72.572 73.039-73.088h511.025c-1.032 4.808-1.626 10.333-1.632 15.996v112.004z" />
<glyph unicode="&#xe915;" d="M848 0c0-0.024 0-0.052 0-0.080 0-5.635-0.583-11.134-1.691-16.44 39.959 1.15 72.042 33.592 72.091 73.539v42.533c-0.097 4.465-0.582 8.753-1.422 12.913l-68.978-0.465v-112z" />
<glyph unicode="&#xe916;" d="M960 160c17.673 0 32 14.327 32 32s-14.327 32-32 32h-160v160c0 17.673-14.327 32-32 32s-32-14.327-32-32v-160h-160c-17.673 0-32-14.327-32-32s14.327-32 32-32h160v-160c0-17.673 14.327-32 32-32s32 14.327 32 32v160h160z" />
<glyph unicode="&#xe917;" d="M688 112h-112c-44.183 0-80 35.817-80 80s35.817 80 80 80h112v55.968c-13.401 2.983-25.020 6.747-36.142 11.455-11.576 5.391-22.449 13.763-31.069 24.082-4.888 5.899-9.203 12.359-12.817 19.245l-6.372 12.098 9.984 8.192c15.432 12.837 28.54 27.777 39.065 44.505 16.194 26.373 28.136 56.208 34.559 88.043l2.28 11.163 9.248 2.624c5.684 2.339 10.305 6.3 13.402 11.303 6.288 9.279 10.778 20.128 12.799 31.823 1.177 5.134 1.812 10.466 1.812 15.946 0 10.441-2.304 20.344-6.433 29.228l-3.021 5.204 1.568 6.4c0.64 2.496 1.248 5.056 1.76 7.712 2.405 12.722 3.78 27.356 3.78 42.312 0 5.853-0.211 11.656-0.625 17.403-1.365 24.829-5.019 48.813-10.754 71.977-10.708 32.71-33.133 61.852-62.51 81.355-37.469 26.406-83.363 41.99-132.897 41.99-1.272 0-2.542-0.010-3.809-0.031-0.799 0.018-1.967 0.026-3.138 0.026-49.607 0-95.576-15.58-133.279-42.115-29.23-19.399-51.663-48.559-62.637-82.845-5.52-21.664-9.24-45.747-10.689-70.44-0.416-6.032-0.624-11.816-0.624-17.649 0-14.975 1.373-29.629 4-43.844 0.477-0.892 1.053-3.388 1.757-5.884l1.568-6.4-3.2-5.6c-4.057-8.555-6.426-18.588-6.426-29.174 0-5.345 0.604-10.55 1.747-15.549 1.989-11.764 6.481-22.658 12.896-32.145 2.997-4.793 7.615-8.72 13.098-10.969l9.532-2.628 2.016-9.6c6.737-33.603 18.689-63.448 35.115-90.255 10.359-16.351 23.528-31.333 38.722-43.962l10.131-8.376-6.048-11.488c-3.848-7.4-8.099-13.776-12.948-19.64-8.589-10.291-19.475-18.665-31.864-24.321-22.999-8.991-49.315-16.066-76.584-20.251-40.877-6.217-75.642-15.992-108.527-29.422-27.128-10.705-50.236-35.028-60.167-65.322-10.34-31.864-16.846-67.782-18.272-105.003-1.395-6.33-2.261-12.786-2.421-19.418l-0.002-42.639c0.516-40.156 32.932-72.572 73.039-73.088h511.025c-1.032 4.808-1.626 10.333-1.632 15.996v112.004z" />
<glyph unicode="&#xe918;" d="M848 0c0-0.024 0-0.052 0-0.080 0-5.635-0.583-11.134-1.691-16.44 39.959 1.15 72.042 33.592 72.091 73.539v42.533c-0.097 4.465-0.582 8.753-1.422 12.913l-68.978-0.465v-112z" />
<glyph unicode="&#xe919;" glyph-name="add_user32" d="M960 160c17.673 0 32 14.327 32 32s-14.327 32-32 32h-160v160c0 17.673-14.327 32-32 32s-32-14.327-32-32v-160h-160c-17.673 0-32-14.327-32-32s14.327-32 32-32h160v-160c0-17.673 14.327-32 32-32s32 14.327 32 32v160h160zM688 112h-112c-44.183 0-80 35.817-80 80s35.817 80 80 80h112v55.968c-13.401 2.983-25.020 6.747-36.142 11.455-11.576 5.391-22.449 13.763-31.069 24.082-4.888 5.899-9.203 12.359-12.817 19.245l-6.372 12.098 9.984 8.192c15.432 12.837 28.54 27.777 39.065 44.505 16.194 26.373 28.136 56.208 34.559 88.043l2.28 11.163 9.248 2.624c5.684 2.339 10.305 6.3 13.402 11.303 6.288 9.279 10.778 20.128 12.799 31.823 1.177 5.134 1.812 10.466 1.812 15.946 0 10.441-2.304 20.344-6.433 29.228l-3.021 5.204 1.568 6.4c0.64 2.496 1.248 5.056 1.76 7.712 2.405 12.722 3.78 27.356 3.78 42.312 0 5.853-0.211 11.656-0.625 17.403-1.365 24.829-5.019 48.813-10.754 71.977-10.708 32.71-33.133 61.852-62.51 81.355-37.469 26.406-83.363 41.99-132.897 41.99-1.272 0-2.542-0.010-3.809-0.031-0.799 0.018-1.967 0.026-3.138 0.026-49.607 0-95.576-15.58-133.279-42.115-29.23-19.399-51.663-48.559-62.637-82.845-5.52-21.664-9.24-45.747-10.689-70.44-0.416-6.032-0.624-11.816-0.624-17.649 0-14.975 1.373-29.629 4-43.844 0.477-0.892 1.053-3.388 1.757-5.884l1.568-6.4-3.2-5.6c-4.057-8.555-6.426-18.588-6.426-29.174 0-5.345 0.604-10.55 1.747-15.549 1.989-11.764 6.481-22.658 12.896-32.145 2.997-4.793 7.615-8.72 13.098-10.969l9.532-2.628 2.016-9.6c6.737-33.603 18.689-63.448 35.115-90.255 10.359-16.351 23.528-31.333 38.722-43.962l10.131-8.376-6.048-11.488c-3.848-7.4-8.099-13.776-12.948-19.64-8.589-10.291-19.475-18.665-31.864-24.321-22.999-8.991-49.315-16.066-76.584-20.251-40.877-6.217-75.642-15.992-108.527-29.422-27.128-10.705-50.236-35.028-60.167-65.322-10.34-31.864-16.846-67.782-18.272-105.003-1.395-6.33-2.261-12.786-2.421-19.418l-0.002-42.639c0.516-40.156 32.932-72.572 73.039-73.088h511.025c-1.032 4.808-1.626 10.333-1.632 15.996v112.004zM848 0c0-0.024 0-0.052 0-0.080 0-5.635-0.583-11.134-1.691-16.44 39.959 1.15 72.042 33.592 72.091 73.539v42.533c-0.097 4.465-0.582 8.753-1.422 12.913l-68.978-0.465v-112z" />
<glyph unicode="&#xe91a;" d="M106.667 256c-47.061 0-85.333 38.272-85.333 85.333v512c0 47.061 38.272 85.333 85.333 85.333h328.832l140.501-140.501v-456.832c0-47.061-38.272-85.333-85.333-85.333h-384z" />
<glyph unicode="&#xe91b;" d="M426.667 917.333l128-128v-448c0-35.371-28.629-64-64-64h-384c-35.371 0-64 28.629-64 64v512c0 35.371 28.629 64 64 64h320zM444.331 960h-337.664c-58.795 0-106.667-47.872-106.667-106.667v-512c0-58.795 47.872-106.667 106.667-106.667h384c58.795 0 106.667 47.872 106.667 106.667v465.664l-153.003 153.003z" />
<glyph unicode="&#xe91c;" d="M277.333 128c-47.061 0-85.333 38.272-85.333 85.333v512c0 47.061 38.272 85.333 85.333 85.333h328.832l140.501-140.501v-456.832c0-47.061-38.272-85.333-85.333-85.333h-384z" />
<glyph unicode="&#xe91d;" d="M597.333 789.333l128-128v-448c0-35.371-28.629-64-64-64h-384c-35.371 0-64 28.629-64 64v512c0 35.371 28.629 64 64 64h320zM614.997 832h-337.664c-58.795 0-106.667-47.872-106.667-106.667v-512c0-58.795 47.872-106.667 106.667-106.667h384c58.795 0 106.667 47.872 106.667 106.667v465.664l-153.003 153.003z" />
<glyph unicode="&#xe91e;" d="M682.667-42.667c-176.469 0-320 143.531-320 320s143.531 320 320 320 320-143.531 320-320-143.531-320-320-320z" />
<glyph unicode="&#xe91f;" d="M682.667 576c164.949 0 298.667-133.717 298.667-298.667s-133.717-298.667-298.667-298.667-298.667 133.717-298.667 298.667 133.717 298.667 298.667 298.667zM682.667 618.667c-188.203 0-341.333-153.131-341.333-341.333s153.131-341.333 341.333-341.333 341.333 153.131 341.333 341.333-153.131 341.333-341.333 341.333z" />
<glyph unicode="&#xe920;" d="M810.667 234.667h-256c-23.552 0-42.667 19.115-42.667 42.667s19.115 42.667 42.667 42.667h256c23.552 0 42.667-19.115 42.667-42.667s-19.115-42.667-42.667-42.667z" />
<glyph unicode="&#xe921;" d="M640 149.333v256c0 23.552 19.115 42.667 42.667 42.667s42.667-19.115 42.667-42.667v-256c0-23.552-19.115-42.667-42.667-42.667s-42.667 19.115-42.667 42.667z" />
<glyph unicode="&#xe922;" glyph-name="admin" d="M718.891 455.936v-78.464c37.12-4.779 45.355-14.165 64.725-26.837l56.149 55.253 52.523-53.163-55.168-54.485c13.056-19.413 22.315-27.989 27.307-65.109h77.269v-74.283h-76.672c-4.651-37.12-14.165-46.507-27.093-66.304l53.675-54.571-53.163-52.523-52.907 53.632c-19.84-13.312-29.525-22.784-66.688-27.691v-75.392h-74.283v75.392c-37.12 4.949-46.848 14.72-66.688 28.032l-54.187-53.291-52.523 53.163 54.016 53.291c-12.928 19.797-22.059 29.184-26.752 66.304h-76.629v74.283h77.269c5.035 37.12 14.635 45.696 27.648 65.109l-54.827 55.765 53.163 52.523 54.869-55.595c19.371 12.672 27.605 21.76 64.725 26.539v78.464h74.24zM681.771 82.347c61.781 0 112.085 50.304 112.085 112.085s-50.304 112.043-112.085 112.043-112.085-50.304-112.085-112.085c0-61.781 50.304-112.043 112.085-112.043zM357.717 124.715c-14.421 0-31.488 0-50.347 0 19.115-2.261 38.443-3.797 58.155-3.797 4.011 0 7.851 0.64 11.861 0.768v3.029c-6.784 0-13.781 0-19.669 0zM464.299 280.747c1.835 4.608 3.712 8.789 5.547 12.928l-61.483 62.421 83.669 82.688c-1.877 5.291-3.072 8.875-3.072 8.875s-4.736 33.195 6.784 50.048c5.333 7.723 25.003 102.272 27.264 113.707 0 0 14.549 11.605 20.437 40.917 10.837 53.461-6.784 54.613-13.653 56.875 0 0-3.157 104.32-11.819 140.715-10.709 45.099-35.328 107.435-140.245 110.037-45.525 1.067-101.888-11.819-115.157-17.792-45.184-20.437-79.403-98.731-75.947-141.696 1.109-13.781 3.883-49.877 8.917-73.045 2.261-10.496 3.157-28.416 3.157-28.416s-3.456 6.827-12.245 7.979c-15.787 2.005-15.957-61.44 2.261-86.443 18.219-25.045 27.307-45.483 27.307-45.483s9.088-54.613 25.003-72.789c15.957-18.219 0-52.309 0-61.397 0-9.131-29.611-59.093-59.136-72.789-19.328-8.917-114.517-38.656-181.888-82.048 77.397-87.339 185.301-146.773 307.285-161.28 18.859 0 35.968 0 50.347 0 5.888 0 12.971 0 19.755-0.043v156.032h86.912z" />
<glyph unicode="&#xe923;" glyph-name="age" d="M839.68 529.536h-104.107v145.067h-32.853v-145.067h-178.347v235.52h-32.853v-235.52h-179.627v145.067h-32.853v-145.067h-94.72c-71.253 0-129.28-53.76-129.28-119.467v-24.32c5.803-34.688 27.093-89.771 69.973-105.941v-287.445c0-26.88 21.333-48.213 48.213-48.213h669.867c26.453 0 48.213 21.333 48.213 48.213v286.933c55.040 20.096 76.117 101.035 77.227 105.173l0.427 25.173c0 66.133-58.027 119.893-129.28 119.893zM848.64-7.637c0-2.987-2.56-5.547-5.547-5.547h-669.867c-2.987 0-5.547 2.56-5.547 5.547v107.947h680.96v-107.947zM167.68 141.696v135.936c27.648 6.229 44.459 25.301 57.6 41.984 14.933 18.773 23.467 28.587 41.813 28.587 17.92 0 26.453-9.813 41.387-28.587 15.787-20.053 35.84-44.8 75.093-44.8s59.307 24.747 75.093 44.8c14.933 18.773 23.467 28.587 41.813 28.587h15.36c17.92 0 26.453-9.813 41.387-28.587 16.213-20.053 35.84-44.8 75.093-44.8 39.68 0 59.307 24.747 75.093 44.8 14.933 18.773 23.893 28.587 41.813 28.587s26.88-9.813 41.813-28.587c13.184-16.768 29.824-35.925 57.6-42.069v-135.851h-680.96zM336.043 763.733c0-31.488-18.901-57.003-42.197-57.003-23.339 0-42.197 25.515-42.197 57.003s42.197 80.171 42.197 80.171 42.197-48.683 42.197-80.171zM551.893 871.68c0-31.488-18.901-57.003-42.197-57.003s-42.197 25.515-42.197 57.003 42.197 80.171 42.197 80.171 42.197-48.683 42.197-80.171zM767.787 763.733c0-31.488-18.901-57.003-42.197-57.003s-42.197 25.515-42.197 57.003 42.197 80.171 42.197 80.171 42.197-48.683 42.197-80.171zM167.68 163.029h680.96v-21.333h-680.96v21.333zM167.68 100.309h680.96v-21.333h-680.96v21.333z" />
<glyph unicode="&#xe924;" d="M1024 448c0-282.77-229.23-512-512-512s-512 229.23-512 512c0 282.77 229.23 512 512 512s512-229.23 512-512z" />
<glyph unicode="&#xe925;" d="M213.333 277.333h384c23.564 0 42.667-19.103 42.667-42.667s-19.103-42.667-42.667-42.667h-384c-23.564 0-42.667 19.103-42.667 42.667s19.103 42.667 42.667 42.667z" />
<glyph unicode="&#xe926;" d="M853.333 597.333c0-106.039-85.961-192-192-192s-192 85.961-192 192c0 106.039 85.961 192 192 192s192-85.961 192-192z" />
<glyph unicode="&#xe927;" d="M426.667 618.667h-213.333c-23.564 0-42.667-19.103-42.667-42.667s19.103-42.667 42.667-42.667h222.293c-5.683 19.174-8.955 41.204-8.96 63.998 0 7.256 0 14.509 0 21.336z" />
<glyph unicode="&#xe928;" d="M480.427 448h-267.093c-23.564 0-42.667-19.103-42.667-42.667s19.103-42.667 42.667-42.667h384c6.728 0.185 13.016 1.899 18.582 4.805-55.002 10.993-101.699 39.88-135.18 80.146z" />
<glyph unicode="&#xe929;" d="M640 488.107l-85.333 87.893c-1.971 4.034-3.124 8.778-3.124 13.791 0 17.673 14.327 32 32 32 5.013 0 9.757-1.153 13.981-3.208l42.477-42.583 105.387 105.387c5.699 5.321 13.376 8.588 21.815 8.588 17.673 0 32-14.327 32-32 0-8.44-3.267-16.116-8.606-21.834z" />
<glyph unicode="&#xe92a;" glyph-name="approve" d="M512-63.957c-282.308 0-512 229.692-512 511.957 0 282.308 229.692 512 512 512s512-229.692 512-512c0-282.266-229.692-511.957-512-511.957zM512 881.229c-238.882 0-433.229-194.347-433.229-433.229s194.347-433.195 433.229-433.195c238.848 0 433.229 194.304 433.229 433.195s-194.381 433.229-433.229 433.229zM410.308 183.962c-20.156 0-40.311 7.689-55.689 23.074l-167.236 167.159c-30.771 30.771-30.771 80.657 0 111.42 30.771 30.771 80.614 30.771 111.386 0l111.539-111.497 314.923 314.923c30.771 30.771 80.614 30.771 111.386 0s30.771-80.614 0-111.386l-370.62-370.62c-15.386-15.386-35.533-23.074-55.689-23.074z" />
<glyph unicode="&#xe92b;" glyph-name="approve_white" d="M512 960c-282.769 0-512-229.231-512-512s229.231-512 512-512 512 229.231 512 512c0 282.769-229.231 512-512 512zM843.55 608.512l-441.724-441.724-221.389 221.389c-22.221 22.221-22.221 58.223 0 80.444 22.221 22.225 58.223 22.225 80.444 0l140.941-140.941 361.28 361.276c22.221 22.225 58.223 22.225 80.444 0 22.225-22.225 22.225-58.223 0.004-80.444z" />
<glyph unicode="&#xe92c;" glyph-name="arrow_back" d="M967.111 503.694h-738.759l349.639 317.895-77.596 81.522-500.395-455.168 500.395-455.054 77.596 81.522-349.867 318.009h738.987c31.46 0 56.889 24.917 56.889 55.637s-25.429 55.637-56.889 55.637z" />
<glyph unicode="&#xe92d;" glyph-name="arrow_back18_md" d="M967.111 503.694h-738.759l349.639 317.895-77.596 81.522-500.395-455.168 500.395-455.054 77.596 81.522-349.867 318.009h738.987c31.46 0 56.889 24.917 56.889 55.637s-25.429 55.637-56.889 55.637z" />
<glyph unicode="&#xe92e;" glyph-name="arrow_back18_mo" d="M967.111 503.694h-738.759l349.639 317.895-77.596 81.522-500.395-455.168 500.395-455.054 77.596 81.522-349.867 318.009h738.987c31.46 0 56.889 24.917 56.889 55.637s-25.429 55.637-56.889 55.637z" />
<glyph unicode="&#xe92f;" d="M512-45.714c-272.238 0-493.714 221.477-493.714 493.714s221.477 493.714 493.714 493.714c272.238 0 493.714-221.477 493.714-493.714s-221.477-493.714-493.714-493.714z" />
<glyph unicode="&#xe930;" d="M512 923.429c262.144 0 475.429-213.285 475.429-475.429s-213.285-475.429-475.429-475.429c-262.144 0-475.429 213.285-475.429 475.429s213.285 475.429 475.429 475.429zM512 960c-282.77 0-512-229.23-512-512s229.23-512 512-512 512 229.23 512 512-229.23 512-512 512v0z" />
<glyph unicode="&#xe931;" d="M585.143 630.857l-182.857-182.857 182.857-182.857" />
<glyph unicode="&#xe932;" d="M512-45.714c-272.274 0-493.714 221.477-493.714 493.714s221.44 493.714 493.714 493.714 493.714-221.477 493.714-493.714-221.477-493.714-493.714-493.714z" />
<glyph unicode="&#xe933;" d="M512 923.429c262.144 0 475.429-213.285 475.429-475.429s-213.285-475.429-475.429-475.429-475.429 213.285-475.429 475.429 213.285 475.429 475.429 475.429zM512 960c-282.77 0-512-229.23-512-512s229.23-512 512-512c282.77 0 512 229.23 512 512s-229.23 512-512 512v0z" />
<glyph unicode="&#xe934;" d="M438.857 630.857l182.857-182.857-182.857-182.857" />
<glyph unicode="&#xe935;" d="M341.184 60.715l-16.896-16.277-309.632 309.653 133.248 133.248 182.635-182.677 546.112 546.731 132.608-132.608z" />
<glyph unicode="&#xe936;" d="M324.16 29.504l-324.587 324.587 148.331 148.352 182.656-182.677 546.112 546.731 147.755-147.776-700.267-689.216zM29.739 354.091l294.699-294.699 9.323 8.981 660.373 650.496-117.461 117.461-546.112-546.709-182.656 182.677-118.165-118.208z" />
<glyph unicode="&#xe937;" d="M21.333 597.333h256v-256h-256v256z" />
<glyph unicode="&#xe938;" d="M256 576v-213.333h-213.333v213.333h213.333zM298.667 618.667h-298.667v-298.667h298.667v298.667z" />
<glyph unicode="&#xe939;" d="M746.667 938.667h256v-256h-256v256z" />
<glyph unicode="&#xe93a;" d="M981.333 917.333v-213.333h-213.333v213.333h213.333zM1024 960h-298.667v-298.667h298.667v298.667z" />
<glyph unicode="&#xe93b;" d="M746.667 213.333h256v-256h-256v256z" />
<glyph unicode="&#xe93c;" d="M981.333 192v-213.333h-213.333v213.333h213.333zM1024 234.667h-298.667v-298.667h298.667v298.667z" />
<glyph unicode="&#xe93d;" d="M768 810.667h-234.667v-768h234.667" />
<glyph unicode="&#xe93e;" d="M298.667 469.333h213.333" />
<glyph unicode="&#xe93f;" d="M32 928h960v-960h-960v960z" />
<glyph unicode="&#xe940;" d="M0 960v-1024h1024v1024h-1024zM981.333-21.333h-938.667v938.667h938.667v-938.667z" />
<glyph unicode="&#xe941;" d="M477.867 789.333h68.245v-682.667h-68.245v682.667z" />
<glyph unicode="&#xe942;" d="M170.667 482.133h682.667v-68.245h-682.667v68.245z" />
<glyph unicode="&#xe943;" d="M719.545 703.864l48.286-48.286-463.405-463.405-48.286 48.286 463.405 463.405z" />
<glyph unicode="&#xe944;" d="M304.425 703.864l463.405-463.405-48.286-48.286-463.405 463.405 48.286 48.286z" />
<glyph unicode="&#xe945;" d="M32 928h960v-960h-960v960z" />
<glyph unicode="&#xe946;" d="M0 960v-1024h1024v1024h-1024zM981.333-21.333h-938.667v938.667h938.667v-938.667z" />
<glyph unicode="&#xe947;" d="M477.867 789.333h68.245v-682.667h-68.245v682.667z" />
<glyph unicode="&#xe948;" d="M170.667 482.133h682.667v-68.245h-682.667v68.245z" />
<glyph unicode="&#xe949;" d="M719.545 703.864l48.286-48.286-463.405-463.405-48.286 48.286 463.405 463.405z" />
<glyph unicode="&#xe94a;" d="M304.425 703.864l463.405-463.405-48.286-48.286-463.405 463.405 48.286 48.286z" />
<glyph unicode="&#xe94b;" d="M773.333-21.333c-117.632 0-213.333 95.701-213.333 213.355 0 117.632 95.701 213.312 213.333 213.312s213.333-95.68 213.333-213.312c0-117.653-95.701-213.355-213.333-213.355z" />
<glyph unicode="&#xe94c;" d="M773.333 384c105.877 0 192-86.123 192-191.979 0-105.877-86.123-192.021-192-192.021s-192 86.144-192 192.021c0 105.856 86.123 191.979 192 191.979zM773.333 426.667c-129.579 0-234.667-105.067-234.667-234.645 0-129.621 105.088-234.688 234.667-234.688 129.664 0 234.667 105.045 234.667 234.688 0 129.579-105.003 234.645-234.667 234.645v0z" />
<glyph unicode="&#xe94d;" d="M732.245 88.555l-97.365 97.387c-8.341 8.341-8.341 21.845 0 30.165 8.341 8.341 21.824 8.341 30.165 0l67.563-67.563 144.192 140.864c8.427 8.213 21.931 8.064 30.165-0.363s8.064-21.931-0.363-30.165l-174.357-170.325z" />
<glyph unicode="&#xe94e;" d="M32 928h960v-960h-960v960z" />
<glyph unicode="&#xe94f;" d="M0 960v-1024h1024v1024h-1024zM981.333-21.333h-938.667v938.667h938.667v-938.667z" />
<glyph unicode="&#xe950;" d="M477.867 789.333h68.245v-682.667h-68.245v682.667z" />
<glyph unicode="&#xe951;" d="M170.667 482.133h682.667v-68.245h-682.667v68.245z" />
<glyph unicode="&#xe952;" d="M719.545 703.864l48.286-48.286-463.405-463.405-48.286 48.286 463.405 463.405z" />
<glyph unicode="&#xe953;" d="M304.425 703.864l463.405-463.405-48.286-48.286-463.405 463.405 48.286 48.286z" />
<glyph unicode="&#xe954;" d="M773.333-21.333c-117.632 0-213.333 95.701-213.333 213.355 0 117.632 95.701 213.312 213.333 213.312s213.333-95.68 213.333-213.312c0-117.653-95.701-213.355-213.333-213.355z" />
<glyph unicode="&#xe955;" d="M773.333 384c105.877 0 192-86.123 192-191.979 0-105.877-86.123-192.021-192-192.021s-192 86.144-192 192.021c0 105.856 86.123 191.979 192 191.979zM773.333 426.667c-129.579 0-234.667-105.067-234.667-234.645 0-129.621 105.088-234.688 234.667-234.688 129.664 0 234.667 105.045 234.667 234.688 0 129.579-105.003 234.645-234.667 234.645v0z" />
<glyph unicode="&#xe956;" d="M704 277.333v-214.656l75.563 106.752 73.771-106.752v214.656z" />
<glyph unicode="&#xe957;" d="M32 928h960v-960h-960v960z" />
<glyph unicode="&#xe958;" d="M0 960v-1024h1024v1024h-1024zM981.333-21.333h-938.667v938.667h938.667v-938.667z" />
<glyph unicode="&#xe959;" d="M477.867 789.333h68.245v-682.667h-68.245v682.667z" />
<glyph unicode="&#xe95a;" d="M170.667 482.133h682.667v-68.245h-682.667v68.245z" />
<glyph unicode="&#xe95b;" d="M719.545 703.864l48.286-48.286-463.405-463.405-48.286 48.286 463.405 463.405z" />
<glyph unicode="&#xe95c;" d="M304.425 703.864l463.405-463.405-48.286-48.286-463.405 463.405 48.286 48.286z" />
<glyph unicode="&#xe95d;" d="M32 928h960v-960h-960v960z" />
<glyph unicode="&#xe95e;" d="M0 960v-1024h1024v1024h-1024zM981.333-21.333h-938.667v938.667h938.667v-938.667z" />
<glyph unicode="&#xe95f;" d="M477.867 789.333h68.245v-682.667h-68.245v682.667z" />
<glyph unicode="&#xe960;" d="M170.667 482.133h682.667v-68.245h-682.667v68.245z" />
<glyph unicode="&#xe961;" d="M719.545 703.864l48.286-48.286-463.405-463.405-48.286 48.286 463.405 463.405z" />
<glyph unicode="&#xe962;" d="M304.425 703.864l463.405-463.405-48.286-48.286-463.405 463.405 48.286 48.286z" />
<glyph unicode="&#xe963;" d="M773.333-21.333c-117.632 0-213.333 95.701-213.333 213.355 0 117.632 95.701 213.312 213.333 213.312s213.333-95.68 213.333-213.312c0-117.653-95.701-213.355-213.333-213.355z" />
<glyph unicode="&#xe964;" d="M773.333 384c105.877 0 192-86.123 192-191.979 0-105.877-86.123-192.021-192-192.021s-192 86.144-192 192.021c0 105.856 86.123 191.979 192 191.979zM773.333 426.667c-129.579 0-234.667-105.067-234.667-234.645 0-129.621 105.088-234.688 234.667-234.688 129.664 0 234.667 105.045 234.667 234.688 0 129.579-105.003 234.645-234.667 234.645v0z" />
<glyph unicode="&#xe965;" d="M773.333 255.104c34.795 0 63.104-28.309 63.104-63.104s-28.309-63.125-63.104-63.125-63.104 28.331-63.104 63.125c0 34.795 28.309 63.104 63.104 63.104zM773.333 297.771c-58.411 0-105.771-47.36-105.771-105.771 0-58.432 47.36-105.792 105.771-105.792 58.453 0 105.771 47.36 105.771 105.792 0 58.411-47.317 105.771-105.771 105.771v0z" />
<glyph unicode="&#xe966;" d="M201.056-48c-61.76 0-112 50.24-112 112v768c0 61.76 50.24 112 112 112h486.624l201.376-201.376v-678.624c0-61.76-50.24-112-112-112h-576z" />
<glyph unicode="&#xe967;" d="M681.056 928l192-192v-672c0-53.024-42.976-96-96-96h-576c-53.024 0-96 42.976-96 96v768c0 53.024 42.976 96 96 96h480zM694.304 960h-493.248c-70.592 0-128-57.408-128-128v-768c0-70.592 57.408-128 128-128h576c70.592 0 128 57.408 128 128v685.248l-210.752 210.752z" />
<glyph unicode="&#xe968;" d="M681.056 928v-192h192z" />
<glyph unicode="&#xe969;" d="M424.16 88.416l28.16 61.568-77.152 35.648 108.256 234.144c75.808-12.416 153.216 26.4 187.040 99.264 40.256 87.776 2.048 191.968-85.728 232.224-87.68 40.672-191.712 2.208-232.384-85.44-33.664-73.152-12.928-156.928 45.696-206.528l-159.552-345.568 85.376-39.488 23.136 49.856 77.152-35.68zM484.096 533.152c-32.768 15.072-47.264 53.92-32.16 86.688s54.080 47.008 86.848 31.904 47.264-53.92 31.904-86.848c-15.104-32.768-53.824-46.848-86.592-31.744z" />
<glyph unicode="&#xe96a;" d="M1001.024 160c0-114.875-93.125-208-208-208s-208 93.125-208 208c0 114.875 93.125 208 208 208s208-93.125 208-208z" />
<glyph unicode="&#xe96b;" d="M931.712 140.064v39.84h-41.216c-2.656 12.608-7.712 24.32-14.656 34.688l29.344 29.344-28.192 28.192-29.568-29.568c-10.336 6.752-21.952 11.68-34.464 14.24v41.856h-39.84v-41.856c-12.512-2.528-24.128-7.456-34.464-14.24l-29.568 29.568-28.192-28.192 29.344-29.344c-6.944-10.336-11.968-22.080-14.656-34.688h-41.216v-39.84h40.896c2.496-12.832 7.456-24.736 14.336-35.296l-28.736-28.736 28.192-28.192 28.512 28.512c10.56-7.104 22.592-12.224 35.52-14.848v-40.192h39.84v40.192c12.928 2.624 24.928 7.744 35.52 14.848l28.512-28.512 28.192 28.192-28.736 28.736c6.88 10.56 11.872 22.464 14.336 35.296h40.96zM793.024 99.392c-32.96 0-59.776 26.816-59.776 59.776s26.816 59.776 59.776 59.776 59.776-26.816 59.776-59.776c0.032-32.96-26.816-59.776-59.776-59.776z" />
<glyph unicode="&#xe96c;" d="M240-48c-124.8 0-224 99.2-224 224s99.2 224 224 224 224-99.2 224-224-99.2-224-224-224z" />
<glyph unicode="&#xe96d;" d="M240 384c115.2 0 208-92.8 208-208s-92.8-208-208-208-208 92.8-208 208 92.8 208 208 208zM240 416c-131.2 0-240-108.8-240-240s108.8-240 240-240 240 108.8 240 240-108.8 240-240 240v0z" />
<glyph unicode="&#xe96e;" d="M80 81.28v11.2c2.208 8.96 8.832 15.648 15.488 22.368 22.112 22.368 44.224 44.736 66.336 67.104l2.208 2.24c11.040 11.2 26.528 11.2 37.568 0 4.416-4.48 8.832-8.96 13.28-13.408 0-2.24 2.208-2.24 2.208-4.48l11.040 8.96c-4.416 4.48-8.832 8.96-13.28 13.408-2.208 2.24-4.416 4.48-6.624 8.96-4.416 11.2-2.208 24.608 6.624 33.568 24.32 24.608 50.848 51.456 75.168 76.064 4.416 6.72 13.28 11.2 19.904 13.408h11.040c4.416-2.24 11.040-4.48 15.488-8.96 15.488-15.648 35.36-35.808 55.264-55.936 11.040-11.2 11.040-26.848 0-38.016-26.528-29.088-55.264-55.936-81.792-82.784-4.416-4.48-11.040-8.96-19.904-8.96-6.624 0-13.28 2.24-19.904 8.96-4.416 4.48-8.832 8.96-13.28 15.648l-11.040-11.2c4.416-4.48 8.832-8.96 13.28-13.408 11.040-8.96 11.040-26.848 2.208-38.016 0 0-2.208-2.24-2.208-2.24-13.536-13.696-27.072-27.392-40.608-41.088-12.704-12.832-24.832-28.32-38.688-39.712-8.768-7.232-25.632-5.408-33.44 2.496-17.696 17.888-35.36 35.808-53.056 51.456-6.656 6.72-11.072 13.44-13.28 22.368zM252.448 204.32l17.696 17.888 28.736-29.088-17.696-17.888 8.832-8.96 70.752 71.584-46.432 46.976-70.752-71.584 8.864-8.928zM175.072 123.808l17.696 20.128-8.832 11.2-68.576-69.376 46.432-46.976 68.544 69.344-8.832 8.96c0 0-19.296-17.312-19.84-17.344-0.576-0.032-17.76 15.104-26.592 24.064v0z" />
<glyph unicode="&#xe96f;" d="M80 96.64v11.2c2.208 8.96 8.832 15.648 15.488 22.368 22.112 22.368 44.224 44.736 66.336 67.104l2.208 2.24c11.040 11.2 26.528 11.2 37.568 0 4.416-4.48 8.832-8.96 13.28-13.408 0-2.24 2.208-2.24 2.208-4.48l11.040 8.96c-4.416 4.48-8.832 8.96-13.28 13.408-2.208 2.24-4.416 4.48-6.624 8.96-4.416 11.2-2.208 24.608 6.624 33.568 24.32 24.608 50.848 51.456 75.168 76.064 4.416 6.72 13.28 11.2 19.904 13.408h11.040c4.416-2.24 11.040-4.48 15.488-8.96 15.488-15.648 35.36-35.808 55.264-55.936 11.040-11.2 11.040-26.848 0-38.016-26.528-29.088-55.264-55.936-81.792-82.784-4.416-4.48-11.040-8.96-19.904-8.96-6.624 0-13.28 2.24-19.904 8.96-4.416 4.48-8.832 8.96-13.28 15.648l-11.040-11.2c4.416-4.48 8.832-8.96 13.28-13.408 11.040-8.96 11.040-26.848 2.208-38.016 0 0-2.208-2.24-2.208-2.24-14.88-15.072-29.792-30.144-44.672-45.216-7.456-7.552-14.848-15.136-22.368-22.624-5.824-5.824-10.336-13.824-18.656-16.32-8.672-2.592-20.544-0.736-27.040 5.856-17.696 17.888-35.36 35.808-53.056 51.456-6.656 6.688-11.072 13.408-13.28 22.368zM252.448 219.68l17.696 17.888 28.736-29.088-17.696-17.888 8.832-8.96 70.752 71.584-46.432 46.976-70.752-71.584 8.864-8.928zM175.072 139.136l17.696 20.128-8.832 11.2-68.544-69.344 46.432-46.976 68.544 69.344-8.832 8.96c0 0-19.328-17.344-19.904-17.344-0.608-0.032-17.728 15.072-26.56 24.032v0z" />
<glyph unicode="&#xe970;" glyph-name="bin" d="M726.4-64h-428.8c-60.8 0-108.8 48-108.8 108.8v646.4h646.4v-646.4c0-60.8-48-108.8-108.8-108.8zM620.8 851.2h-214.4v54.4h214.4v-54.4zM620.8 960h-214.4c-28.8 0-54.4-25.6-54.4-54.4v-54.4c0-28.8 25.6-54.4 54.4-54.4h214.4c28.8 0 54.4 25.6 54.4 54.4v54.4c0 28.8-25.6 54.4-54.4 54.4zM835.2 851.2h-646.4c-28.8 0-54.4-22.4-54.4-54.4v-54.4h755.2v54.4c0 32-25.6 54.4-54.4 54.4z" />
<glyph unicode="&#xe971;" glyph-name="bo" d="M967.104 725.333h-71.104v5.333c0 23.467-8.533 21.333-32 21.333s-32 2.133-32-21.333v-5.333h-128v64.277c0 49.835-33.429 85.056-83.285 85.056h-217.451c-49.835 0-83.264-35.221-83.264-85.056v-64.277h-128v5.333c0 23.467-8.533 21.333-32 21.333s-32 2.133-32-21.333v-5.333h-71.104c-31.296 0-56.896-34.496-56.896-65.771v-585.344c0-31.275 25.6-52.885 56.896-52.885h910.229c31.275 0 56.875 21.611 56.875 52.885v585.344c0 31.275-25.6 65.771-56.896 65.771zM384 789.611c0 18.475 0.789 21.056 19.285 21.056h217.451c18.475 0 19.264-2.581 19.264-21.056v-64.277h-256v64.277z" />
<glyph unicode="&#xe972;" d="M533.333 469.333h-298.667l128-143.424v-86.4c0-14.997 6.336-27.157 21.333-27.157s21.333 12.16 21.333 27.157v86.4l128 143.424z" />
<glyph unicode="&#xe973;" d="M967.104 725.333h-71.104v5.333c0 23.467-8.533 21.333-32 21.333s-32 2.133-32-21.333v-5.333h-128v64.277c0 49.835-33.429 85.056-83.285 85.056h-217.451c-49.835 0-83.264-35.221-83.264-85.056v-64.277h-128v5.333c0 23.467-8.533 21.333-32 21.333s-32 2.133-32-21.333v-5.333h-71.104c-31.296 0-56.896-34.496-56.896-65.771v-585.344c0-31.275 25.6-52.885 56.896-52.885h910.229c31.275 0 56.875 21.611 56.875 52.885v585.344c0 31.275-25.6 65.771-56.896 65.771zM384 789.611c0 18.475 0.789 21.056 19.285 21.056h217.451c18.475 0 19.264-2.581 19.264-21.056v-64.277h-256v64.277z" />
<glyph unicode="&#xe974;" d="M736 560h-448l192-215.125v-129.6c0-22.485 9.515-40.725 32-40.725s32 18.24 32 40.725v129.6l192 215.125z" />
<glyph unicode="&#xe976;" d="M1024 448c0-282.77-229.23-512-512-512s-512 229.23-512 512c0 282.77 229.23 512 512 512s512-229.23 512-512z" />
<glyph unicode="&#xe977;" d="M938.667 448c0-235.641-191.025-426.667-426.667-426.667s-426.667 191.025-426.667 426.667c0 235.641 191.025 426.667 426.667 426.667s426.667-191.025 426.667-426.667z" />
<glyph unicode="&#xe978;" d="M512 362.667v426.667" />
<glyph unicode="&#xe979;" d="M512 277.333v-170.667" />
<glyph unicode="&#xe97b;" glyph-name="caret_down" d="M512 196.892l-324.665 324.665c-22.244 22.244-22.244 58.197 0 80.441s58.197 22.244 80.441 0l244.224-244.224 244.224 244.224c22.244 22.244 58.197 22.244 80.441 0s22.244-58.197 0-80.441l-324.665-324.665z" />
<glyph unicode="&#xe97c;" glyph-name="caret_down_md" d="M512 116.452l-364.885 364.885c-44.43 44.43-44.43 116.452 0 160.882 44.373 44.43 116.508 44.43 160.882 0l204.004-203.947 204.004 203.947c44.43 44.43 116.452 44.43 160.882 0s44.43-116.452 0-160.882l-364.885-364.885z" />
<glyph unicode="&#xe97d;" glyph-name="caret_down_mo" d="M512 116.452l-364.885 364.885c-44.43 44.43-44.43 116.452 0 160.882 44.373 44.43 116.508 44.43 160.882 0l204.004-203.947 204.004 203.947c44.43 44.43 116.452 44.43 160.882 0s44.43-116.452 0-160.882l-364.885-364.885z" />
<glyph unicode="&#xe97e;" glyph-name="caret_down12" d="M512 174.336l-401.664 401.664c-33.365 33.365-33.365 87.296 0 120.661s87.296 33.365 120.661 0l281.003-281.003 281.003 281.003c33.365 33.365 87.296 33.365 120.661 0s33.365-87.296 0-120.661l-401.664-401.664z" />
<glyph unicode="&#xe97f;" glyph-name="caret_down12_md" d="M981.333 645.205c0 34.133-13.312 66.304-37.461 90.539s-56.405 37.461-90.539 37.461-66.304-13.397-90.539-37.547l-250.795-250.795-250.795 250.795c-24.235 24.149-56.405 37.547-90.539 37.547s-66.304-13.397-90.539-37.547-37.461-56.32-37.461-90.453 13.312-66.389 37.461-90.539l431.872-431.872 431.872 431.872c24.149 24.149 37.461 56.32 37.461 90.539z" />
<glyph unicode="&#xe980;" glyph-name="caret_down12_mo" d="M981.333 645.205c0 34.133-13.312 66.304-37.461 90.539s-56.405 37.461-90.539 37.461-66.304-13.397-90.539-37.547l-250.795-250.795-250.795 250.795c-24.235 24.149-56.405 37.547-90.539 37.547s-66.304-13.397-90.539-37.547-37.461-56.32-37.461-90.453 13.312-66.389 37.461-90.539l431.872-431.872 431.872 431.872c24.149 24.149 37.461 56.32 37.461 90.539z" />
<glyph unicode="&#xe981;" glyph-name="caret_down16" d="M102.72 611.264c-12.224 12.288-18.688 27.904-18.688 45.248s6.528 32.96 18.752 45.248c12.288 12.224 27.904 18.752 45.248 18.752s32.96-6.528 45.248-18.752l318.72-318.784 318.72 318.72c12.224 12.224 27.968 18.752 45.248 18.752s33.024-6.528 45.248-18.752c12.224-12.288 18.752-27.904 18.752-45.248s-6.528-32.96-18.752-45.248l-409.216-409.216-409.28 409.28z" />
<glyph unicode="&#xe982;" glyph-name="caret_down16_md" d="M1004.032 656.512c0 34.176-13.312 66.304-37.504 90.496s-56.32 37.504-90.496 37.504-66.304-13.312-90.496-37.504l-273.536-273.536-273.472 273.536c-24.192 24.192-56.32 37.504-90.496 37.504s-66.368-13.312-90.56-37.504-37.504-56.32-37.504-90.496 13.312-66.304 37.504-90.496l454.528-454.528 454.528 454.528c24.128 24.192 37.504 56.32 37.504 90.496z" />
<glyph unicode="&#xe983;" glyph-name="caret_down16_mo" d="M1004.032 656.512c0 34.176-13.312 66.304-37.504 90.496s-56.32 37.504-90.496 37.504-66.304-13.312-90.496-37.504l-273.536-273.536-273.472 273.536c-24.192 24.192-56.32 37.504-90.496 37.504s-66.368-13.312-90.56-37.504-37.504-56.32-37.504-90.496 13.312-66.304 37.504-90.496l454.528-454.528 454.528 454.528c24.128 24.192 37.504 56.32 37.504 90.496z" />
<glyph unicode="&#xe984;" glyph-name="caret_down24" d="M113.749 630.443c0 14.549 5.589 29.141 16.683 40.235 22.229 22.229 58.197 22.229 80.427 0l301.141-301.141 301.099 301.099c22.229 22.229 58.197 22.229 80.427 0s22.229-58.197 0-80.427l-381.525-381.525-381.568 381.525c-11.093 11.093-16.683 25.643-16.683 40.235z" />
<glyph unicode="&#xe985;" glyph-name="caret_down24_li" d="M512 157.397l-471.936 471.936c-25.003 25.003-25.003 65.493 0 90.496 12.501 12.501 28.885 18.773 45.269 18.773s32.768-6.229 45.269-18.731l381.397-381.44 381.397 381.397c12.501 12.501 28.885 18.773 45.269 18.773s32.768-6.229 45.269-18.731c25.003-25.003 25.003-65.493 0-90.496l-471.936-471.979z" />
<glyph unicode="&#xe986;" glyph-name="caret_down24_md" d="M100.267 560.043c-18.816 18.859-29.184 43.819-29.184 70.4s10.368 51.541 29.184 70.357c18.816 18.859 43.776 29.184 70.4 29.184s51.584-10.368 70.4-29.184l270.933-270.933 270.933 270.933c18.816 18.816 43.819 29.184 70.357 29.184 26.581 0 51.584-10.368 70.4-29.184 18.816-18.773 29.227-43.776 29.227-70.357s-10.368-51.584-29.227-70.4l-411.691-411.691-411.733 411.691z" />
<glyph unicode="&#xe987;" glyph-name="caret_down24_mo" d="M100.267 560.043c-18.816 18.859-29.184 43.819-29.184 70.4s10.368 51.541 29.184 70.357c18.816 18.859 43.776 29.184 70.4 29.184s51.584-10.368 70.4-29.184l270.933-270.933 270.933 270.933c18.816 18.816 43.819 29.184 70.357 29.184 26.581 0 51.584-10.368 70.4-29.184 18.816-18.773 29.227-43.776 29.227-70.357s-10.368-51.584-29.227-70.4l-411.691-411.691-411.733 411.691z" />
<glyph unicode="&#xe988;" glyph-name="caret_left12" d="M238.336 448l401.664-401.664c33.365-33.365 87.296-33.365 120.661 0s33.365 87.296 0 120.661l-281.003 281.003 281.003 281.003c33.365 33.365 33.365 87.296 0 120.661s-87.296 33.365-120.661 0l-401.664-401.664z" />
<glyph unicode="&#xe989;" glyph-name="caret_left12_md" d="M709.205-21.333c34.133 0 66.304 13.312 90.539 37.461s37.461 56.405 37.461 90.539-13.397 66.304-37.547 90.539l-250.795 250.795 250.795 250.795c24.149 24.235 37.547 56.405 37.547 90.539s-13.397 66.304-37.547 90.539-56.32 37.461-90.453 37.461-66.389-13.312-90.539-37.461l-431.872-431.872 431.872-431.872c24.149-24.149 56.32-37.461 90.539-37.461z" />
<glyph unicode="&#xe98a;" glyph-name="caret_left12_mo" d="M709.205-21.333c34.133 0 66.304 13.312 90.539 37.461s37.461 56.405 37.461 90.539-13.397 66.304-37.547 90.539l-250.795 250.795 250.795 250.795c24.149 24.235 37.547 56.405 37.547 90.539s-13.397 66.304-37.547 90.539-56.32 37.461-90.453 37.461-66.389-13.312-90.539-37.461l-431.872-431.872 431.872-431.872c24.149-24.149 56.32-37.461 90.539-37.461z" />
<glyph unicode="&#xe98b;" glyph-name="caret_left16" d="M662.016 51.968c12.288-12.224 27.904-18.752 45.248-18.752s32.96 6.528 45.248 18.752c12.224 12.288 18.752 27.904 18.752 45.248s-6.528 32.96-18.752 45.248l-318.72 318.72 318.72 318.72c12.224 12.224 18.752 27.968 18.752 45.248s-6.528 33.024-18.752 45.248c-12.288 12.224-27.904 18.752-45.248 18.752s-32.96-6.528-45.248-18.752l-409.28-409.152 409.28-409.28z" />
<glyph unicode="&#xe98c;" glyph-name="caret_left16_md" d="M720.512-44.032c34.176 0 66.304 13.312 90.496 37.504s37.504 56.32 37.504 90.496-13.312 66.304-37.504 90.496l-273.536 273.536 273.472 273.472c24.192 24.192 37.504 56.32 37.504 90.496s-13.312 66.304-37.504 90.496-56.32 37.504-90.496 37.504-66.304-13.312-90.496-37.504l-454.464-454.464 454.528-454.528c24.192-24.128 56.32-37.504 90.496-37.504z" />
<glyph unicode="&#xe98d;" glyph-name="caret_left16_mo" d="M720.512-44.032c34.176 0 66.304 13.312 90.496 37.504s37.504 56.32 37.504 90.496-13.312 66.304-37.504 90.496l-273.536 273.536 273.472 273.472c24.192 24.192 37.504 56.32 37.504 90.496s-13.312 66.304-37.504 90.496-56.32 37.504-90.496 37.504-66.304-13.312-90.496-37.504l-454.464-454.464 454.528-454.528c24.192-24.128 56.32-37.504 90.496-37.504z" />
<glyph unicode="&#xe98e;" glyph-name="caret_right12" d="M785.664 448l-401.664-401.664c-33.365-33.365-87.296-33.365-120.661 0s-33.365 87.296 0 120.661l281.003 281.003-281.003 281.003c-33.365 33.365-33.365 87.296 0 120.661s87.296 33.365 120.661 0l401.664-401.664z" />
<glyph unicode="&#xe98f;" glyph-name="caret_right12_md" d="M314.795 917.333c-34.133 0-66.304-13.312-90.539-37.461s-37.461-56.405-37.461-90.539 13.312-66.304 37.461-90.539l250.88-250.795-250.795-250.795c-24.149-24.235-37.547-56.405-37.547-90.539s13.312-66.304 37.461-90.539 56.405-37.461 90.539-37.461 66.304 13.312 90.539 37.461l431.872 431.872-431.872 431.872c-24.149 24.149-56.32 37.461-90.539 37.461z" />
<glyph unicode="&#xe990;" glyph-name="caret_right12_mo" d="M314.795-21.333c-34.133 0-66.304 13.312-90.539 37.461s-37.461 56.405-37.461 90.539 13.312 66.304 37.461 90.539l250.88 250.795-250.795 250.795c-24.149 24.235-37.547 56.405-37.547 90.539s13.312 66.304 37.461 90.539 56.405 37.461 90.539 37.461 66.389-13.312 90.539-37.461l431.872-431.872-431.872-431.872c-24.149-24.149-56.32-37.461-90.539-37.461z" />
<glyph unicode="&#xe991;" glyph-name="caret_right16" d="M361.984 51.968c-12.288-12.224-27.904-18.688-45.248-18.688s-32.96 6.528-45.248 18.752c-12.224 12.288-18.752 27.904-18.752 45.248s6.528 32.96 18.752 45.248l318.72 318.72-318.72 318.72c-12.224 12.288-18.752 27.968-18.752 45.312s6.528 32.96 18.752 45.248c12.288 12.224 27.904 18.752 45.248 18.752s32.96-6.528 45.248-18.752l409.28-409.28-409.28-409.28z" />
<glyph unicode="&#xe992;" glyph-name="caret_right16_md" d="M303.488-44.032c-34.176 0-66.304 13.312-90.496 37.504s-37.504 56.32-37.504 90.496 13.312 66.304 37.504 90.496l273.536 273.536-273.536 273.472c-24.192 24.192-37.504 56.32-37.504 90.496s13.312 66.368 37.504 90.56 56.32 37.504 90.496 37.504 66.304-13.312 90.496-37.504l454.528-454.528-454.528-454.528c-24.192-24.128-56.32-37.504-90.496-37.504z" />
<glyph unicode="&#xe993;" glyph-name="caret_right16_mo" d="M303.488-44.032c-34.176 0-66.304 13.312-90.496 37.504s-37.504 56.32-37.504 90.496 13.312 66.304 37.504 90.496l273.536 273.536-273.536 273.472c-24.192 24.192-37.504 56.32-37.504 90.496s13.312 66.368 37.504 90.56 56.32 37.504 90.496 37.504 66.304-13.312 90.496-37.504l454.528-454.528-454.528-454.528c-24.192-24.128-56.32-37.504-90.496-37.504z" />
<glyph unicode="&#xe994;" glyph-name="caret_up" d="M796.444 220.444c-14.564 0-29.127 5.575-40.22 16.668l-244.224 244.224-244.224-244.224c-22.244-22.244-58.197-22.244-80.441 0s-22.244 58.197 0 80.441l324.665 324.665 324.665-324.665c22.244-22.244 22.244-58.197 0-80.441-11.093-11.093-25.657-16.668-40.22-16.668z" />
<glyph unicode="&#xe995;" glyph-name="caret_up_md" d="M796.444 168.448c-29.127 0-58.197 11.093-80.441 33.337l-204.004 203.947-204.004-203.947c-44.373-44.43-116.508-44.43-160.882 0-44.43 44.43-44.43 116.452 0 160.882l364.885 364.885 364.885-364.942c44.43-44.43 44.43-116.452 0-160.882-22.244-22.187-51.314-33.28-80.441-33.28z" />
<glyph unicode="&#xe996;" glyph-name="caret_up_mo" d="M796.444 163.556c-29.127 0-58.197 11.093-80.441 33.337l-204.004 203.947-204.004-203.947c-44.373-44.43-116.508-44.43-160.882 0-44.43 44.43-44.43 116.452 0 160.882l364.885 364.942 364.885-364.942c44.43-44.43 44.43-116.452 0-160.882-22.244-22.244-51.314-33.337-80.441-33.337z" />
<glyph unicode="&#xe997;" glyph-name="caret_up12" d="M512 721.664l-401.664-401.664c-33.365-33.365-33.365-87.296 0-120.661s87.296-33.365 120.661 0l281.003 281.003 281.003-281.003c33.365-33.365 87.296-33.365 120.661 0s33.365 87.296 0 120.661l-401.664 401.664z" />
<glyph unicode="&#xe998;" glyph-name="caret_up12_md" d="M981.333 250.795c0-34.133-13.312-66.304-37.461-90.539s-56.405-37.461-90.539-37.461-66.304 13.397-90.539 37.547l-250.795 250.795-250.795-250.795c-24.235-24.149-56.405-37.547-90.539-37.547s-66.304 13.397-90.539 37.547-37.461 56.32-37.461 90.453 13.312 66.389 37.461 90.539l431.872 431.872 431.872-431.872c24.149-24.149 37.461-56.32 37.461-90.539z" />
<glyph unicode="&#xe999;" glyph-name="caret_up12_mo" d="M981.333 250.795c0-34.133-13.312-66.304-37.461-90.539s-56.405-37.461-90.539-37.461-66.304 13.397-90.539 37.547l-250.795 250.795-250.795-250.795c-24.235-24.149-56.405-37.547-90.539-37.547s-66.304 13.397-90.539 37.547-37.461 56.32-37.461 90.453 13.312 66.389 37.461 90.539l431.872 431.872 431.872-431.872c24.149-24.149 37.461-56.32 37.461-90.539z" />
<glyph unicode="&#xe99a;" glyph-name="caret_up16" d="M102.72 311.232c-12.224-12.288-18.752-27.904-18.752-45.248s6.528-32.96 18.752-45.248c12.288-12.224 27.904-18.752 45.248-18.752s32.96 6.528 45.248 18.752l318.784 318.784 318.72-318.72c12.224-12.224 27.968-18.752 45.248-18.752s33.024 6.528 45.248 18.752c12.224 12.288 18.752 27.904 18.752 45.248s-6.528 32.96-18.752 45.248l-409.216 409.216-409.28-409.28z" />
<glyph unicode="&#xe99b;" glyph-name="caret_up16_md" d="M1004.032 239.488c0-34.176-13.312-66.304-37.504-90.496s-56.32-37.504-90.496-37.504-66.304 13.312-90.496 37.504l-273.536 273.536-273.472-273.472c-24.192-24.192-56.32-37.504-90.496-37.504s-66.304 13.312-90.496 37.504-37.504 56.32-37.504 90.496 13.312 66.304 37.504 90.496l454.464 454.464 454.528-454.528c24.128-24.192 37.504-56.32 37.504-90.496z" />
<glyph unicode="&#xe99c;" glyph-name="caret_up16_mo" d="M1004.032 239.488c0-34.176-13.312-66.304-37.504-90.496s-56.32-37.504-90.496-37.504-66.304 13.312-90.496 37.504l-273.536 273.536-273.472-273.472c-24.192-24.192-56.32-37.504-90.496-37.504s-66.304 13.312-90.496 37.504-37.504 56.32-37.504 90.496 13.312 66.304 37.504 90.496l454.464 454.464 454.528-454.528c24.128-24.192 37.504-56.32 37.504-90.496z" />
<glyph unicode="&#xe99d;" glyph-name="caret_up24" d="M113.749 265.557c0-14.549 5.589-29.141 16.683-40.235 22.229-22.229 58.197-22.229 80.427 0l301.141 301.141 301.099-301.099c22.229-22.229 58.197-22.229 80.427 0s22.229 58.197 0 80.427l-381.525 381.525-381.568-381.568c-11.093-11.051-16.683-25.6-16.683-40.192z" />
<glyph unicode="&#xe99e;" glyph-name="caret_up24_li" d="M512 738.603l-471.936-471.936c-25.003-25.003-25.003-65.493 0-90.496 12.501-12.501 28.885-18.773 45.269-18.773s32.768 6.229 45.269 18.731l381.397 381.44 381.397-381.397c12.501-12.501 28.885-18.731 45.269-18.731s32.768 6.229 45.269 18.731c25.003 25.003 25.003 65.493 0 90.496l-471.936 471.936z" />
<glyph unicode="&#xe99f;" glyph-name="caret_up24_md" d="M100.267 318.293c-18.816-18.859-29.184-43.819-29.184-70.4s10.368-51.541 29.184-70.357c18.816-18.816 43.819-29.184 70.4-29.184s51.584 10.368 70.4 29.184l270.933 270.933 270.933-270.933c18.816-18.816 43.819-29.184 70.357-29.184 26.581 0 51.584 10.368 70.4 29.184 18.816 18.773 29.227 43.776 29.227 70.357s-10.368 51.584-29.227 70.4l-411.691 411.691-411.733-411.691z" />
<glyph unicode="&#xe9a0;" glyph-name="caret_up24_mo" d="M100.267 318.293c-18.816-18.859-29.184-43.819-29.184-70.4s10.368-51.541 29.184-70.357c18.816-18.816 43.819-29.184 70.4-29.184s51.584 10.368 70.4 29.184l270.933 270.933 270.933-270.933c18.816-18.816 43.819-29.184 70.357-29.184 26.581 0 51.584 10.368 70.4 29.184 18.816 18.773 29.227 43.776 29.227 70.357s-10.368 51.584-29.227 70.4l-411.691 411.691-411.733-411.691z" />
<glyph unicode="&#xe9a1;" d="M213.333 448h42.667v-85.333h-42.667v85.333z" />
<glyph unicode="&#xe9a2;" d="M810.667 362.667v85.333h-256v85.333h170.667v341.333h-469.333v-341.333h213.333v-85.333h-256v-42.667h554.667v-42.667h-213.333v-341.333h469.333v341.333h-213.333zM298.667 576v256h384v-256h-384zM981.333 64h-384v256h384v-256z" />
<glyph unicode="&#xe9a3;" d="M0 21.333h469.333v341.333h-469.333v-341.333zM42.667 320h384v-256h-384v256z" />
<glyph unicode="&#xe9a4;" d="M42.667 320h384v-256h-384v256z" />
<glyph unicode="&#xe9a5;" d="M597.333 320h384v-256h-384v256z" />
<glyph unicode="&#xe9a6;" d="M298.667 832h384v-256h-384v256z" />
<glyph unicode="&#xe9a7;" d="M48 80v671.584c0 35.346 28.654 64 64 64h252.8c16.012-0.027 30.725-5.569 42.346-14.826l117.238-103.51c5.102-5.089 11.904-8.477 19.481-9.237l336.135-0.011c35.346 0 64-28.654 64-64v-544z" />
<glyph unicode="&#xe9a8;" d="M364.8 799.584c0.003 0 0.005 0 0.008 0 12.244 0 23.5-4.232 32.385-11.313l116.631-103.023c7.928-7.516 18.412-12.406 30.019-13.239l336.157-0.009c26.51 0 48-21.49 48-48v-528h-864v655.584c0 26.51 21.49 48 48 48h252.8zM364.8 831.584h-252.8c-44.183 0-80-35.817-80-80v-687.584h928v560c0 44.183-35.817 80-80 80h-336c-0.864 0-3.2 0.768-9.76 5.856l-117.344 103.52c-14.197 11.287-32.379 18.118-52.154 18.144z" />
<glyph unicode="&#xe9a9;" d="M96 128h800v448c0 17.673-14.327 32-32 32h-736c-17.673 0-32-14.327-32-32z" />
<glyph unicode="&#xe9aa;" d="M96 128h800v416l-800-416z" />
<glyph unicode="&#xe9ab;" d="M284.46 548.395l82.228 82.228c12.497 12.497 32.758 12.497 45.255 0l82.228-82.228c12.497-12.497 12.497-32.758 0-45.255l-82.228-82.228c-12.497-12.497-32.758-12.497-45.255 0l-82.228 82.228c-12.497 12.497-12.497 32.758 0 45.255z" />
<glyph unicode="&#xe9ac;" d="M431.546 401.313l82.228 82.228c12.497 12.497 32.758 12.497 45.255 0l82.228-82.228c12.497-12.497 12.497-32.758 0-45.255l-82.228-82.228c-12.497-12.497-32.758-12.497-45.255 0l-82.228 82.228c-12.497 12.497-12.497 32.758 0 45.255z" />
<glyph unicode="&#xe9ad;" d="M284.474 254.205l82.228 82.228c12.497 12.497 32.758 12.497 45.255 0l82.228-82.228c12.497-12.497 12.497-32.758 0-45.255l-82.228-82.228c-12.497-12.497-32.758-12.497-45.255 0l-82.228 82.228c-12.497 12.497-12.497 32.758 0 45.255z" />
<glyph unicode="&#xe9ae;" d="M137.388 401.331l82.228 82.228c12.497 12.497 32.758 12.497 45.255 0l82.228-82.228c12.497-12.497 12.497-32.758 0-45.255l-82.228-82.228c-12.497-12.497-32.758-12.497-45.255 0l-82.228 82.228c-12.497 12.497-12.497 32.758 0 45.255z" />
<glyph unicode="&#xe9af;" d="M284.456 580.398l82.228 82.228c12.497 12.497 32.758 12.497 45.255 0l82.228-82.228c12.497-12.497 12.497-32.758 0-45.255l-82.228-82.228c-12.497-12.497-32.758-12.497-45.255 0l-82.228 82.228c-12.497 12.497-12.497 32.758 0 45.255z" />
<glyph unicode="&#xe9b0;" d="M431.542 433.317l82.228 82.228c12.497 12.497 32.758 12.497 45.255 0l82.228-82.228c12.497-12.497 12.497-32.758 0-45.255l-82.228-82.228c-12.497-12.497-32.758-12.497-45.255 0l-82.228 82.228c-12.497 12.497-12.497 32.758 0 45.255z" />
<glyph unicode="&#xe9b1;" d="M284.47 286.208l82.228 82.228c12.497 12.497 32.758 12.497 45.255 0l82.228-82.228c12.497-12.497 12.497-32.758 0-45.255l-82.228-82.228c-12.497-12.497-32.758-12.497-45.255 0l-82.228 82.228c-12.497 12.497-12.497 32.758 0 45.255z" />
<glyph unicode="&#xe9b2;" d="M137.384 433.335l82.228 82.228c12.497 12.497 32.758 12.497 45.255 0l82.228-82.228c12.497-12.497 12.497-32.758 0-45.255l-82.228-82.228c-12.497-12.497-32.758-12.497-45.255 0l-82.228 82.228c-12.497 12.497-12.497 32.758 0 45.255z" />
<glyph unicode="&#xe9b3;" d="M928 406.72v-310.72h-404.16c-2.727 8.669-5.286 19.455-7.147 30.478-3.028 15.937-4.657 32.528-4.692 49.493 0 0.036 0 0.044 0 0.052 0 32.219 5.628 63.124 15.954 91.785 3.513 10.284 7.948 20.541 13.104 30.36 22.075 43.468 55.043 80.026 95.326 106.306 5.217 3.207 9.377 5.767 13.857 8.327 38.402 22.14 84.455 35.201 133.559 35.201 40.674 0 79.254-8.961 113.875-25.017 10.769-4.753 21.275-10.422 31.263-16.826z" />
<glyph unicode="&#xe9b4;" d="M992 176c0-114.875-93.125-208-208-208s-208 93.125-208 208c0 114.875 93.125 208 208 208s208-93.125 208-208z" />
<glyph unicode="&#xe9b5;" d="M784 416c-132.548 0-240-107.452-240-240s107.452-240 240-240c132.548 0 240 107.452 240 240s-107.452 240-240 240zM784 0c-0.006 0-0.012 0-0.019 0-97.202 0-176 78.798-176 176 0 37.326 11.619 71.938 31.439 100.416l244.42-245.376c-27.869-19.427-62.445-31.040-99.733-31.040-0.038 0-0.075 0-0.113 0zM928.96 76.16l-244.8 244.8c27.915 19.465 62.549 31.1 99.9 31.1 97.202 0 176-78.798 176-176 0-37.352-11.635-71.985-31.479-100.475z" />
<glyph unicode="&#xe9b6;" d="M16 196.768c0-61.76 50.24-112 112-112h768c61.76 0 112 50.24 112 112v486.624l-201.376 201.376h-678.624c-61.76 0-112-50.24-112-112v-576z" />
<glyph unicode="&#xe9b7;" d="M992 676.768v-480c0-53.024-42.976-96-96-96h-768c-53.024 0-96 42.976-96 96v576c0 53.024 42.976 96 96 96h672l192-192zM1024 690.016l-210.752 210.752h-685.248c-70.592 0-128-57.408-128-128v-576c0-70.592 57.408-128 128-128h768c70.592 0 128 57.408 128 128v493.248z" />
<glyph unicode="&#xe9b8;" d="M992 676.768h-192v192z" />
<glyph unicode="&#xe9b9;" d="M699.904 194.272c-0.256 0.416-0.544 0.832-0.832 1.312-0.576-0.416-1.152-0.8-1.664-1.152-10.368-7.232-22.144-15.424-36.512-15.424-4.704 0-9.216 0.896-13.44 2.656-20 8.288-23.712 29.376-26.464 44.768-0.032 0.16-0.064 0.32-0.096 0.48l-70.272-193.216 80.768 41.12 33.984-79.52 62.176 170.592c-13.024 5.6-21.248 18.368-27.648 28.384z" />
<glyph unicode="&#xe9ba;" d="M665.376-12.736c-3.2 0-6.080 1.92-7.328 4.832l-30.624 71.648-73.12-37.216c-2.912-1.504-6.432-1.056-8.928 1.12-2.464 2.176-3.328 5.664-2.208 8.704l70.24 193.184c1.216 3.328 4.576 5.696 8.128 5.248 3.584-0.256 6.56-2.88 7.264-6.4 2.656-14.976 5.824-32.768 21.792-39.36 3.296-1.376 6.752-2.048 10.368-2.048 11.808 0 21.984 7.072 31.808 13.92 3.552 2.496 10.336 2.912 12.832-0.672 0.096-0.128 0.832-1.248 1.088-1.632v0c5.888-9.216 13.216-20.704 24.064-25.408 3.904-1.696 5.824-6.080 4.384-10.080l-62.176-170.592c-1.12-3.072-4.032-5.152-7.328-5.248-0.096 0-0.192 0-0.256 0zM631.392 82.752c0.896 0 1.856-0.16 2.72-0.48 2.080-0.768 3.776-2.336 4.64-4.384l26.016-60.896 52.896 145.088c-9.12 5.92-15.68 14.464-20.832 22.208-9.92-6.656-21.696-13.344-35.936-13.344-5.728 0-11.296 1.088-16.512 3.296-13.152 5.44-20.448 15.264-24.768 25.664l-54.528-149.92 62.688 31.872c1.12 0.608 2.368 0.896 3.616 0.896z" />
<glyph unicode="&#xe9bb;" d="M835.968 181.632c-4.224-1.76-8.768-2.656-13.44-2.656-14.368 0-26.144 8.192-36.512 15.456-0.512 0.352-1.088 0.736-1.664 1.152-0.288-0.448-0.576-0.896-0.832-1.312-6.464-10.112-14.816-23.040-28.096-28.576l62.112-170.464 33.984 79.52 80.768-41.12-69.952 192.288c-2.72-15.328-6.56-36.096-26.368-44.288z" />
<glyph unicode="&#xe9bc;" d="M817.568-12.736c-0.064 0-0.16 0-0.224 0-3.296 0.096-6.176 2.176-7.328 5.248l-62.112 170.432c-1.44 4.032 0.512 8.48 4.448 10.112 11.136 4.672 18.496 16.224 24.448 25.536 1.184 1.856 3.488 3.776 5.696 4.192 2.144 0.416 4.8 0.576 6.592-0.704l-3.040-7.648 4.672 6.464c9.856-6.848 20-13.92 31.808-13.92 3.616 0 7.104 0.672 10.368 2.016v0c14.752 6.112 18.496 20.992 21.568 38.336 0.64 3.552 3.552 6.24 7.2 6.56 3.488 0.384 6.976-1.856 8.224-5.216l69.952-192.288c1.12-3.104 0.224-6.56-2.208-8.736-2.464-2.176-6.016-2.624-8.928-1.12l-73.12 37.216-30.624-71.648c-1.312-2.944-4.224-4.832-7.392-4.832zM765.344 161.888l52.8-144.864 26.016 60.896c0.832 2.016 2.528 3.584 4.64 4.384 2.080 0.704 4.416 0.608 6.336-0.416l62.688-31.872-54.336 149.376c-4.384-10.144-11.648-19.808-24.48-25.12-5.216-2.176-10.784-3.296-16.512-3.296-14.304 0-26.112 6.72-35.936 13.344-5.408-8.128-12.064-16.672-21.216-22.432z" />
<glyph unicode="&#xe9bd;" d="M926.72 359.552c4.512 16.928 33.28 31.232 33.28 49.6s-28.768 32.672-33.28 49.6c-4.672 17.504 12.928 44.256 4.064 59.584-8.992 15.552-41.056 13.6-53.664 26.208s-10.688 44.672-26.24 53.664c-15.328 8.864-42.080-8.736-59.584-4.064-16.928 4.512-31.232 33.28-49.6 33.28s-32.672-28.768-49.6-33.28c-17.504-4.672-44.256 12.928-59.584 4.064-15.552-8.992-13.6-41.056-26.208-53.664s-44.672-10.688-53.664-26.24c-8.864-15.328 8.736-42.080 4.064-59.584-4.512-16.928-33.28-31.232-33.28-49.6s28.768-32.672 33.28-49.6c4.672-17.504-12.928-44.256-4.064-59.584 8.992-15.552 41.056-13.6 53.664-26.208s10.688-44.672 26.24-53.664c15.328-8.864 42.080 8.736 59.584 4.064 16.928-4.512 31.232-33.28 49.6-33.28s32.672 28.768 49.6 33.28c17.504 4.672 44.256-12.928 59.584-4.064 15.552 8.992 13.6 41.056 26.208 53.664s44.672 10.688 53.664 26.24c8.864 15.296-8.736 42.080-4.064 59.584z" />
<glyph unicode="&#xe9be;" d="M16 216.992c0-61.76 50.24-112 112-112h768c61.76 0 112 50.24 112 112v486.624l-201.376 201.376h-678.624c-61.76 0-112-50.24-112-112v-576z" />
<glyph unicode="&#xe9bf;" d="M992 696.992v-480c0-53.024-42.976-96-96-96h-768c-53.024 0-96 42.976-96 96v576c0 53.024 42.976 96 96 96h672l192-192zM1024 710.24l-210.752 210.752h-685.248c-70.592 0-128-57.408-128-128v-576c0-70.592 57.408-128 128-128h768c70.592 0 128 57.408 128 128v493.248z" />
<glyph unicode="&#xe9c0;" d="M992 696.992h-192v192z" />
<glyph unicode="&#xe9c1;" d="M691.264 555.776c4.512 16.928 33.28 31.232 33.28 49.6 0 18.336-28.768 32.672-33.28 49.6-4.672 17.504 12.928 44.256 4.064 59.584-8.992 15.552-41.056 13.6-53.664 26.208s-10.688 44.672-26.24 53.664c-15.328 8.864-42.080-8.736-59.584-4.064-16.928 4.512-31.232 33.28-49.6 33.28-18.336 0-32.672-28.768-49.6-33.28-17.504-4.672-44.256 12.928-59.584 4.064-15.552-8.992-13.6-41.056-26.208-53.664s-44.672-10.688-53.664-26.24c-8.832-15.328 8.768-42.080 4.096-59.584-4.512-16.928-33.28-31.232-33.28-49.6 0-18.336 28.768-32.672 33.28-49.6 4.672-17.504-12.928-44.256-4.064-59.584 8.992-15.552 41.056-13.6 53.664-26.208s10.688-44.672 26.24-53.664c15.328-8.864 42.080 8.736 59.584 4.064 16.928-4.512 31.232-33.28 49.6-33.28 18.336 0 32.672 28.768 49.6 33.28 17.504 4.672 44.256-12.928 59.584-4.064 15.552 8.992 13.6 41.056 26.208 53.664s44.672 10.688 53.664 26.24c8.832 15.328-8.768 42.080-4.096 59.584z" />
<glyph unicode="&#xe9c2;" d="M464.48 390.496c-0.256 0.416-0.544 0.832-0.832 1.312-0.576-0.416-1.152-0.8-1.664-1.152-10.368-7.232-22.144-15.424-36.512-15.424-4.704 0-9.216 0.896-13.44 2.656-20 8.288-23.712 29.376-26.464 44.768-0.032 0.16-0.064 0.32-0.096 0.48l-70.272-193.248 80.768 41.12 33.984-79.52 62.176 170.592c-13.056 5.632-21.248 18.4-27.648 28.416z" />
<glyph unicode="&#xe9c3;" d="M600.544 377.856c-4.224-1.76-8.768-2.656-13.44-2.656-14.368 0-26.144 8.192-36.512 15.456-0.512 0.352-1.088 0.736-1.664 1.152-0.288-0.448-0.576-0.896-0.832-1.312-6.464-10.112-14.816-23.040-28.096-28.576l62.112-170.464 33.984 79.52 80.768-41.12-69.952 192.288c-2.72-15.328-6.56-36.096-26.368-44.288z" />
<glyph unicode="&#xe9c4;" d="M1008 183.008c0-114.875-93.125-208-208-208s-208 93.125-208 208c0 114.875 93.125 208 208 208s208-93.125 208-208z" />
<glyph unicode="&#xe9c5;" d="M800-40.992c-123.488 0-224 100.512-224 224s100.512 224 224 224 224-100.512 224-224-100.512-224-224-224zM800 375.008c-105.888 0-192-86.112-192-192s86.112-192 192-192 192 86.112 192 192-86.112 192-192 192z" />
<glyph unicode="&#xe9c6;" d="M928 164.608v36.8h-38.048c-2.464 11.648-7.104 22.464-13.536 32l27.104 27.104-26.016 26.016-27.296-27.296c-9.536 6.24-20.256 10.784-31.808 13.12v38.656h-36.8v-38.656c-11.552-2.336-22.272-6.88-31.808-13.12l-27.296 27.296-26.016-26.016 27.104-27.104c-6.4-9.568-11.040-20.384-13.536-32h-38.048v-36.8h37.76c2.304-11.84 6.88-22.848 13.248-32.608l-26.528-26.528 26.016-26.016 26.336 26.336c9.76-6.56 20.832-11.296 32.768-13.696v-37.12h36.8v37.12c11.936 2.432 23.008 7.168 32.768 13.696l26.336-26.336 26.016 26.016-26.528 26.528c6.368 9.76 10.944 20.736 13.248 32.608h37.76zM800 127.072c-30.432 0-55.168 24.768-55.168 55.168 0 30.432 24.768 55.168 55.168 55.168 30.432 0 55.168-24.768 55.168-55.168 0-30.432-24.736-55.168-55.168-55.168z" />
<glyph unicode="&#xe9c7;" glyph-name="channel_download" d="M785.707 545.301c-19.477 19.392-43.435 19.392-62.891 0l-146.816-153.707v476.117c0 27.392-36.459 49.621-64 49.621-27.477 0-64-22.229-64-49.621v-474.603l-146.005 152.171c-19.477 19.392-47.637 19.392-67.051 0-19.477-19.392-17.792-50.752 1.685-70.165l274.539-272.747 274.112 272.768c19.477 19.413 19.883 50.773 0.427 70.165zM896-64h-782.315c-27.477 0-49.792 25.941-49.792 53.333s22.293 53.333 49.792 53.333h796.651c27.477 0 49.792-23.403 49.792-50.795s-22.357-51.947-49.835-51.947z" />
<glyph unicode="&#xe9c8;" glyph-name="channel_email" d="M69.824 825.216l442.155-398.357 442.197 399.573c-19.136 12.523-27.413 26.901-52.011 26.901h-780.331c-24.597 0-32.853-15.573-52.011-28.117zM511.979 362.496c-3.861 0-7.723 1.323-10.816 4.075l-470.677 411.819c-18.731-21.44-30.485-49.152-30.485-79.872v-524.309c0-67.285 54.549-131.541 121.835-131.541h780.309c67.307 0 121.856 64.256 121.856 131.541v524.309c0 30.72-11.755 58.432-30.507 79.872l-470.699-411.819c-3.115-2.752-6.955-4.075-10.816-4.075z" />
<glyph unicode="&#xe9c9;" d="M177.408 156.672c-52.267 0-127.147 38.443-138.176 124.416-1.792 13.931 6.635 26.859 18.752 28.928 12.309 2.048 23.467-7.573 25.237-21.525 7.979-62.293 66.005-83.136 98.859-80.64 28.203 2.368 80.427 32.107 80.427 96.683 0 14.080 9.963 25.493 22.229 25.493s22.229-11.413 22.229-25.493c0-93.163-70.741-143.232-121.643-147.52-2.603-0.235-5.248-0.341-7.915-0.341z" />
<glyph unicode="&#xe9ca;" d="M800.661 917.333c30.891 0 52.672-27.029 52.672-63.531v-384.469h-576v384.469c0 36.501 44.459 63.531 75.328 63.531h448z" />
<glyph unicode="&#xe9cb;" d="M949.333 725.333h-757.333v-362.667c0-32.32-16.171-60.181-47.317-64.448 13.248-12.032 38.677-20.885 57.984-20.885h746.667c41.259 0 74.667 36.075 74.667 77.333v298.667c0 41.259-33.408 72-74.667 72z" />
<glyph unicode="&#xe9cc;" d="M832 597.333h-96c-20.544 0-32 11.477-32 32s11.456 32 32 32h96c20.523 0 32-11.477 32-32s-11.477-32-32-32z" />
<glyph unicode="&#xe9cd;" d="M778.667 874.667c20.608 0 32 1.941 32-18.667v-130.667h-490.667v130.667c0 20.608 11.392 18.667 32 18.667h416zM768 917.333h-416c-41.173 0-74.667-20.16-74.667-61.333v-152h576v152c0 41.173-33.493 61.333-74.667 61.333z" />
<glyph unicode="&#xe9ce;" d="M352 64c-30.869 0-74.667 9.707-74.667 46.208v359.125h576v-359.125c0-36.501-22.464-46.208-53.333-46.208h-448z" />
<glyph unicode="&#xe9cf;" d="M810.667 469.333v-349.333c0-33.003-15.659-56-42.667-56h-384c-33.003 0-64 22.997-64 56v349.333h512zM853.333 512h-576v-392c0-56 55.659-98.667 106.667-98.667h384c49.003 0 85.333 41.664 85.333 98.667v392z" />
<glyph unicode="&#xe9d0;" d="M384 405.333h362.667v-42.667h-362.667v42.667z" />
<glyph unicode="&#xe9d1;" d="M384 298.667h362.667v-42.667h-362.667v42.667z" />
<glyph unicode="&#xe9d2;" d="M384 192h362.667v-42.667h-362.667v42.667z" />
<glyph unicode="&#xe9d3;" d="M149.333 389.333c0-26.517-18.795-48-42.005-48h-65.323c-23.211 0-42.005 21.483-42.005 48v416c0 26.517 18.795 48 42.005 48h65.323c23.211 0 42.005-21.483 42.005-48v-416z" />
<glyph unicode="&#xe9d4;" d="M0 21.333h1024v-85.333h-1024v85.333z" />
<glyph unicode="&#xe9d5;" d="M469.333 128h85.333v-192h-85.333v192z" />
<glyph unicode="&#xe9d6;" d="M234.667 746.667v119.467c0 32.341-5.333 72.533 27.029 72.533h469.333c65.173 0 58.304-40.192 58.304-72.533v-119.467h-554.667z" />
<glyph unicode="&#xe9d7;" d="M746.667 917.333c21.589 0 42.667-6.144 42.667-27.733v-121.6h-554.667v121.6c0 21.589 13.248 27.733 34.837 27.733h498.496zM768 960h-506.304c-43.157 0-69.696-19.435-69.696-62.571v-156.437l52.736-36.992h547.563l39.701 36.971v156.459c0 43.136-20.16 62.571-63.296 62.571z" />
<glyph unicode="&#xe9d8;" d="M981.333 371.2c0-51.84-42.027-93.867-93.867-93.867h-750.933c-51.84 0-93.867 42.027-93.867 93.867v302.933c0 51.84 42.027 93.867 93.867 93.867h750.933c51.84 0 93.867-42.027 93.867-93.867v-302.933z" />
<glyph unicode="&#xe9d9;" d="M789.333 618.667h-81.771c-21.504 0-39.104 14.784-39.104 32s17.6 32 39.104 32h78.229c21.504 0 39.104-16.213 39.104-33.429s-15.829-30.933-37.333-30.933z" />
<glyph unicode="&#xe9da;" d="M277.333 106.667c-32.341 0-42.667 23.125-42.667 55.467v328.533h554.667v-328.533c0-32.341-10.325-55.467-42.667-55.467h-469.333z" />
<glyph unicode="&#xe9db;" d="M789.333 490.667v-320c0-21.589-5.44-42.667-27.029-42.667h-500.608c-21.589 0-27.029 21.077-27.029 42.667v320h554.667zM832 512h-640v-381.141c0-25.941 28.117-45.525 54.037-45.525h531.904c25.941 0 54.059 19.584 54.059 45.504v381.163z" />
<glyph unicode="&#xe9dc;" d="M320 405.333h384v-42.667h-384v42.667z" />
<glyph unicode="&#xe9dd;" d="M320 298.667h384v-42.667h-384v42.667z" />
<glyph unicode="&#xe9de;" d="M234.667 746.667v119.467c0 32.341-5.333 72.533 27.029 72.533h469.333c65.173 0 58.304-40.192 58.304-72.533v-119.467h-554.667z" />
<glyph unicode="&#xe9df;" d="M746.667 917.333c21.589 0 42.667-6.144 42.667-27.733v-121.6h-554.667v121.6c0 21.589 13.248 27.733 34.837 27.733h498.496zM768 960h-506.304c-43.157 0-69.696-19.435-69.696-62.571v-156.437l52.736-36.992h547.563l39.701 36.971v156.459c0 43.136-20.16 62.571-63.296 62.571z" />
<glyph unicode="&#xe9e0;" d="M981.333 371.2c0-51.84-42.027-93.867-93.867-93.867h-750.933c-51.84 0-93.867 42.027-93.867 93.867v302.933c0 51.84 42.027 93.867 93.867 93.867h750.933c51.84 0 93.867-42.027 93.867-93.867v-302.933z" />
<glyph unicode="&#xe9e1;" d="M789.333 618.667h-81.771c-21.504 0-39.104 14.784-39.104 32s17.6 32 39.104 32h78.229c21.504 0 39.104-16.213 39.104-33.429s-15.829-30.933-37.333-30.933z" />
<glyph unicode="&#xe9e2;" d="M277.333 106.667c-32.341 0-42.667 23.125-42.667 55.467v328.533h554.667v-328.533c0-32.341-10.325-55.467-42.667-55.467h-469.333z" />
<glyph unicode="&#xe9e3;" d="M789.333 490.667v-320c0-21.589-5.44-42.667-27.029-42.667h-500.608c-21.589 0-27.029 21.077-27.029 42.667v320h554.667zM832 512h-640v-381.141c0-25.941 28.117-45.525 54.037-45.525h531.904c25.941 0 54.059 19.584 54.059 45.504v381.163z" />
<glyph unicode="&#xe9e4;" d="M320 405.333h384v-42.667h-384v42.667z" />
<glyph unicode="&#xe9e5;" d="M320 298.667h384v-42.667h-384v42.667z" />
<glyph unicode="&#xe9e6;" d="M1024 304.533c0-35.2-7.744-87.659-33.024-112.533l-231.232-224c-25.301-24.896-57.877-32-93.632-32h-567.019c-35.755 0-99.093 58.133-99.093 93.333v834.667c0 35.2 63.339 96 99.093 96h828.565c35.755 0 96.341-60.8 96.341-96v-559.467z" />
<glyph unicode="&#xe9e7;" d="M704 405.333h-554.667v-384h554.667v384zM405.333 341.333h234.667v-256h-234.667v256z" />
<glyph unicode="&#xe9e8;" d="M704 469.333h-554.667v-405.333h554.667v405.333zM405.333 384h234.667v-256h-234.667v256z" />
<glyph unicode="&#xe9e9;" d="M832 0c0-35.349-28.651-64-64-64h-512c-35.349 0-64 28.651-64 64v896c0 35.349 28.651 64 64 64h512c35.349 0 64-28.651 64-64v-896z" />
<glyph unicode="&#xe9ea;" d="M234.667 853.333h554.667v-768h-554.667v768z" />
<glyph unicode="&#xe9eb;" d="M667.989 693.333h-311.979c-28.736 0-46.677-26.283-46.677-56.384v-217.899c0-30.101 17.941-45.717 46.677-45.717h312c28.736 0 46.677 15.616 46.677 45.717v217.899c-0.021 30.101-17.963 56.384-46.699 56.384v0z" />
<glyph unicode="&#xe9ec;" d="M704 672l-192-192-192 192" />
<glyph unicode="&#xe9ed;" d="M522.667-21.333h-21.333c-17.664 0-32 14.336-32 32v0c0 17.664 14.336 32 32 32h21.333c17.664 0 32-14.336 32-32v0c0-17.664-14.336-32-32-32z" />
<glyph unicode="&#xe9ee;" glyph-name="channel_upload" d="M238.293 348.032c19.477-19.392 43.435-19.392 62.891 0l146.816 153.707v-476.139c0-27.392 36.459-49.621 64-49.621 27.477 0 64 22.229 64 49.621v474.603l146.005-152.171c19.477-19.392 47.637-19.392 67.051 0 19.477 19.392 17.792 50.752-1.685 70.165l-274.539 272.747-274.112-272.747c-19.477-19.413-19.883-50.773-0.427-70.165zM128 960h782.315c27.477 0 49.792-25.941 49.792-53.333s-22.293-53.333-49.792-53.333h-796.629c-27.499 0-49.792 22.059-49.792 49.451s22.357 52.608 49.835 52.608z" />
<glyph unicode="&#xe9ef;" glyph-name="Chat_Off" d="M512 917.333h-341.333c-94.251 0-170.667-76.416-170.667-170.667v-170.667c0-94.251 76.416-170.667 170.667-170.667v-92.245c0-38.059 23.253-47.189 51.712-20.267l118.955 112.512h170.667c94.251 0 170.667 76.416 170.667 170.667v170.667c0 94.251-76.416 170.667-170.667 170.667zM853.333 661.333h-85.333v-85.333c0-141.184-114.816-256-256-256h-136.704l-31.019-29.355c13.995-80.213 83.499-141.312 167.723-141.312h170.667l118.955-112.512c28.459-26.923 51.712-17.835 51.712 20.267v92.245c94.251 0 170.667 76.416 170.667 170.667v170.667c0 94.251-76.416 170.667-170.667 170.667zM344.277 290.645v0l31.019 29.355z" />
<glyph unicode="&#xe9f0;" d="M0 960h1024v-1024h-1024v1024z" />
<glyph unicode="&#xe9f1;" d="M512 917.333h-341.333c-94.251 0-170.667-76.416-170.667-170.667v-170.667c0-94.251 76.416-170.667 170.667-170.667v-92.245c0-38.059 23.253-47.189 51.712-20.267l118.955 112.512h170.667c94.251 0 170.667 76.416 170.667 170.667v170.667c0 94.251-76.416 170.667-170.667 170.667z" />
<glyph unicode="&#xe9f2;" d="M853.333 661.333h-85.333v-85.333c0-141.184-114.816-256-256-256h-136.704l-31.019-29.355c13.995-80.213 83.499-141.312 167.723-141.312h170.667l118.955-112.512c28.459-26.923 51.712-17.835 51.712 20.267v92.245c94.251 0 170.667 76.416 170.667 170.667v170.667c0 94.251-76.416 170.667-170.667 170.667z" />
<glyph unicode="&#xe9f3;" d="M344.277 290.645v0l31.019 29.355z" />
<glyph unicode="&#xe9f4;" d="M0 960h1024v-1024h-1024v1024z" />
<glyph unicode="&#xe9f5;" d="M512 917.333h-341.333c-94.251 0-170.667-76.416-170.667-170.667v-170.667c0-94.251 76.416-170.667 170.667-170.667v-92.245c0-38.059 23.253-47.189 51.712-20.267l118.955 112.512h170.667c94.251 0 170.667 76.416 170.667 170.667v170.667c0 94.251-76.416 170.667-170.667 170.667z" />
<glyph unicode="&#xe9f6;" d="M853.333 661.333h-85.333v-85.333c0-141.184-114.816-256-256-256h-136.704l-31.019-29.355c13.995-80.213 83.499-141.312 167.723-141.312h170.667l118.955-112.512c28.459-26.923 51.712-17.835 51.712 20.267v92.245c94.251 0 170.667 76.416 170.667 170.667v170.667c0 94.251-76.416 170.667-170.667 170.667z" />
<glyph unicode="&#xe9f7;" d="M344.277 290.645v0l31.019 29.355z" />
<glyph unicode="&#xe9f8;" glyph-name="chat_on" d="M682.667 746.667v-170.667c0-94.251-76.416-170.667-170.667-170.667h-170.667l-118.955-112.512c-28.459-26.923-51.712-17.835-51.712 20.267v92.245c-94.251 0-170.667 76.416-170.667 170.667v170.667c0 94.251 76.416 170.667 170.667 170.667h341.333c94.251 0 170.667-76.416 170.667-170.667zM256 442.069l51.371 48.597h204.629c47.061 0 85.333 38.272 85.333 85.333v170.667c0 47.061-38.272 85.333-85.333 85.333h-341.333c-47.061 0-85.333-38.272-85.333-85.333v-170.667c0-47.061 38.272-85.333 85.333-85.333h85.333v-48.597zM853.333 661.333h-85.333v-85.333h85.333c47.061 0 85.333-38.272 85.333-85.333v-170.667c0-47.061-38.272-85.333-85.333-85.333h-85.333v-48.597l-51.371 48.597h-204.629c-47.061 0-85.333 38.272-85.333 85.333h-51.371l-31.019-29.355c13.995-80.213 83.499-141.312 167.723-141.312h170.667l118.955-112.512c28.459-26.923 51.712-17.835 51.712 20.267v92.245c94.251 0 170.667 76.416 170.667 170.667v170.667c0 94.251-76.416 170.667-170.667 170.667z" />
<glyph unicode="&#xe9f9;" d="M0 960h1024v-1024h-1024v1024z" />
<glyph unicode="&#xe9fa;" d="M682.667 746.667v-170.667c0-94.251-76.416-170.667-170.667-170.667h-170.667l-118.955-112.512c-28.459-26.923-51.712-17.835-51.712 20.267v92.245c-94.251 0-170.667 76.416-170.667 170.667v170.667c0 94.251 76.416 170.667 170.667 170.667h341.333c94.251 0 170.667-76.416 170.667-170.667zM256 442.069l51.371 48.597h204.629c47.061 0 85.333 38.272 85.333 85.333v170.667c0 47.061-38.272 85.333-85.333 85.333h-341.333c-47.061 0-85.333-38.272-85.333-85.333v-170.667c0-47.061 38.272-85.333 85.333-85.333h85.333v-48.597z" />
<glyph unicode="&#xe9fb;" d="M853.333 661.333h-85.333v-85.333h85.333c47.061 0 85.333-38.272 85.333-85.333v-170.667c0-47.061-38.272-85.333-85.333-85.333h-85.333v-48.597l-51.371 48.597h-204.629c-47.061 0-85.333 38.272-85.333 85.333h-51.371l-31.019-29.355c13.995-80.213 83.499-141.312 167.723-141.312h170.667l118.955-112.512c28.459-26.923 51.712-17.835 51.712 20.267v92.245c94.251 0 170.667 76.416 170.667 170.667v170.667c0 94.251-76.416 170.667-170.667 170.667z" />
<glyph unicode="&#xe9fc;" d="M0 960h1024v-1024h-1024v1024z" />
<glyph unicode="&#xe9fd;" d="M682.667 746.667v-170.667c0-94.251-76.416-170.667-170.667-170.667h-170.667l-118.955-112.512c-28.459-26.923-51.712-17.835-51.712 20.267v92.245c-94.251 0-170.667 76.416-170.667 170.667v170.667c0 94.251 76.416 170.667 170.667 170.667h341.333c94.251 0 170.667-76.416 170.667-170.667zM256 442.069l51.371 48.597h204.629c47.061 0 85.333 38.272 85.333 85.333v170.667c0 47.061-38.272 85.333-85.333 85.333h-341.333c-47.061 0-85.333-38.272-85.333-85.333v-170.667c0-47.061 38.272-85.333 85.333-85.333h85.333v-48.597z" />
<glyph unicode="&#xe9fe;" d="M853.333 661.333h-85.333v-85.333h85.333c47.061 0 85.333-38.272 85.333-85.333v-170.667c0-47.061-38.272-85.333-85.333-85.333h-85.333v-48.597l-51.371 48.597h-204.629c-47.061 0-85.333 38.272-85.333 85.333h-51.371l-31.019-29.355c13.995-80.213 83.499-141.312 167.723-141.312h170.667l118.955-112.512c28.459-26.923 51.712-17.835 51.712 20.267v92.245c94.251 0 170.667 76.416 170.667 170.667v170.667c0 94.251-76.416 170.667-170.667 170.667z" />
<glyph unicode="&#xe9ff;" d="M1024 49.778c0-62.578-51.2-113.778-113.778-113.778h-796.444c-62.578 0-113.778 51.2-113.778 113.778v796.444c0 62.578 51.2 113.778 113.778 113.778h796.444c62.578 0 113.778-51.2 113.778-113.778v-796.444z" />
<glyph unicode="&#xea00;" d="M910.222 903.111c31.346 0 56.889-25.543 56.889-56.889v-796.444c0-31.346-25.543-56.889-56.889-56.889h-796.444c-31.346 0-56.889 25.543-56.889 56.889v796.444c0 31.346 25.543 56.889 56.889 56.889h796.444zM910.222 960h-796.444c-62.578 0-113.778-51.2-113.778-113.778v-796.444c0-62.578 51.2-113.778 113.778-113.778h796.444c62.578 0 113.778 51.2 113.778 113.778v796.444c0 62.578-51.2 113.778-113.778 113.778v0z" />
<glyph unicode="&#xea01;" d="M910.222-64h-796.444c-62.862 0-113.778 50.916-113.778 113.778v796.444c0 62.862 50.916 113.778 113.778 113.778h796.444c62.862 0 113.778-50.916 113.778-113.778v-796.444c0-62.862-50.916-113.778-113.778-113.778z" />
<glyph unicode="&#xea02;" d="M891.676-40.164h-759.353c-59.904 0-108.487 48.583-108.487 108.487v759.353c0 59.904 48.583 108.487 108.487 108.487h759.41c59.904 0 108.487-48.583 108.487-108.487v-759.41c-0.057-59.904-48.583-108.43-108.544-108.43z" />
<glyph unicode="&#xea03;" d="M910.222 903.111c31.346 0 56.889-25.543 56.889-56.889v-796.444c0-31.346-25.543-56.889-56.889-56.889h-796.444c-31.346 0-56.889 25.543-56.889 56.889v796.444c0 31.346 25.543 56.889 56.889 56.889h796.444zM910.222 960h-796.444c-62.862 0-113.778-50.916-113.778-113.778v-796.444c0-62.862 50.916-113.778 113.778-113.778h796.444c62.862 0 113.778 50.916 113.778 113.778v796.444c0 62.862-50.916 113.778-113.778 113.778v0z" />
<glyph unicode="&#xea04;" d="M406.414 175.559l-200.249 200.249c-22.244 22.244-22.244 58.197 0 80.441s58.197 22.244 80.441 0l119.751-119.751 314.368 314.368c22.244 22.244 58.197 22.244 80.441 0s22.244-58.197 0-80.441l-394.752-394.866z" />
<glyph unicode="&#xea05;" glyph-name="checkbox_checked" d="M896-21.333h-768c-47.147 0-85.333 38.187-85.333 85.333v768c0 47.147 38.187 85.333 85.333 85.333h768c47.147 0 85.333-38.187 85.333-85.333v-768c0-47.147-38.187-85.333-85.333-85.333z" />
<glyph unicode="&#xea06;" d="M113.778-35.556c-47.047 0-85.333 38.286-85.333 85.333v796.444c0 47.047 38.286 85.333 85.333 85.333h796.444c47.047 0 85.333-38.286 85.333-85.333v-796.444c0-47.047-38.286-85.333-85.333-85.333h-796.444z" />
<glyph unicode="&#xea07;" d="M910.222 903.111c31.346 0 56.889-25.486 56.889-56.889v-796.444c0-31.346-25.543-56.889-56.889-56.889h-796.444c-31.346 0-56.889 25.543-56.889 56.889v796.444c0 31.403 25.543 56.889 56.889 56.889h796.444zM910.222 960h-796.444c-62.578 0-113.778-51.2-113.778-113.778v-796.444c0-62.578 51.2-113.778 113.778-113.778h796.444c62.578 0 113.778 51.2 113.778 113.778v796.444c0 62.578-51.2 113.778-113.778 113.778v0z" />
<glyph unicode="&#xea08;" glyph-name="checkbox_focus" d="M870.4 960h-716.8c-84.831 0-153.6-68.769-153.6-153.6v-716.8c0-84.831 68.769-153.6 153.6-153.6h716.8c84.831 0 153.6 68.769 153.6 153.6v716.8c0 84.831-68.769 153.6-153.6 153.6zM921.6 89.6c0.056-0.868 0.087-1.882 0.087-2.903 0-26.722-21.662-48.384-48.384-48.384-1.021 0-2.035 0.032-3.041 0.094l-716.662-0.007c-0.868-0.056-1.882-0.087-2.903-0.087-26.722 0-48.384 21.662-48.384 48.384 0 1.021 0.032 2.035 0.094 3.041l-0.007 716.662c-0.056 0.868-0.087 1.882-0.087 2.903 0 26.722 21.662 48.384 48.384 48.384 1.021 0 2.035-0.032 3.041-0.094l716.662 0.007c0.868 0.056 1.882 0.087 2.903 0.087 26.722 0 48.384-21.662 48.384-48.384 0-1.021-0.032-2.035-0.094-3.041l0.007-716.662z" />
<glyph unicode="&#xea09;" d="M910.222-64h-796.444c-62.862 0-113.778 50.916-113.778 113.778v796.444c0 62.862 50.916 113.778 113.778 113.778h796.444c62.862 0 113.778-50.916 113.778-113.778v-796.444c0-62.862-50.916-113.778-113.778-113.778z" />
<glyph unicode="&#xea0a;" d="M406.414 175.559l-200.249 200.249c-22.244 22.244-22.244 58.197 0 80.441s58.197 22.244 80.441 0l119.751-119.751 314.368 314.368c22.244 22.244 58.197 22.244 80.441 0s22.244-58.197 0-80.441l-394.752-394.866z" />
<glyph unicode="&#xea0b;" d="M113.778-35.556c-47.047 0-85.333 38.286-85.333 85.333v796.444c0 47.047 38.286 85.333 85.333 85.333h796.444c47.047 0 85.333-38.286 85.333-85.333v-796.444c0-47.047-38.286-85.333-85.333-85.333h-796.444z" />
<glyph unicode="&#xea0c;" d="M910.222 903.111c31.346 0 56.889-25.543 56.889-56.889v-796.444c0-31.346-25.543-56.889-56.889-56.889h-796.444c-31.346 0-56.889 25.543-56.889 56.889v796.444c0 31.346 25.543 56.889 56.889 56.889h796.444zM910.222 960h-796.444c-62.578 0-113.778-51.2-113.778-113.778v-796.444c0-62.578 51.2-113.778 113.778-113.778h796.444c62.578 0 113.778 51.2 113.778 113.778v796.444c0 62.578-51.2 113.778-113.778 113.778v0z" />
<glyph unicode="&#xea0d;" d="M415.289 203.378l-199.111 199.111c-22.756 22.756-22.756 56.889 0 79.644s56.889 22.756 79.644 0l119.467-119.467 312.889 312.889c22.756 22.756 56.889 22.756 79.644 0s22.756-56.889 0-79.644l-392.533-392.533z" />
<glyph unicode="&#xea0e;" d="M787.692 100.116h-551.385c-43.449 0.134-78.635 35.32-78.769 78.756v551.397c0.134 43.449 35.32 78.635 78.756 78.769h551.397c43.449-0.134 78.635-35.32 78.769-78.756v-551.397c-0.134-43.449-35.32-78.635-78.756-78.769z" />
<glyph unicode="&#xea0f;" d="M437.169 265.531l-137.846 137.846c-7.223 7.082-11.7 16.942-11.7 27.848 0 21.534 17.457 38.991 38.991 38.991 10.905 0 20.765-4.477 27.842-11.694l82.714-82.714 216.615 216.615c7.027 6.89 16.662 11.143 27.291 11.143 21.534 0 38.991-17.457 38.991-38.991 0-10.629-4.253-20.264-11.149-27.297z" />
<glyph unicode="&#xea10;" d="M787.692 960h-551.385c-130.446-0.157-236.151-105.861-236.308-236.292v-551.4c0.157-130.446 105.861-236.151 236.292-236.308h551.4c130.446 0.157 236.151 105.861 236.308 236.292v551.4c-0.157 130.446-105.861 236.151-236.292 236.308zM945.231 172.308c0-87.006-70.532-157.538-157.538-157.538h-551.385c-87.006 0-157.538 70.532-157.538 157.538v551.385c0 87.006 70.532 157.538 157.538 157.538h551.385c87.006 0 157.538-70.532 157.538-157.538v-551.385z" />
<glyph unicode="&#xea11;" d="M1024 49.778c0-62.578-51.2-113.778-113.778-113.778h-796.444c-62.578 0-113.778 51.2-113.778 113.778v796.444c0 62.578 51.2 113.778 113.778 113.778h796.444c62.578 0 113.778-51.2 113.778-113.778v-796.444z" />
<glyph unicode="&#xea12;" d="M910.222 903.111c31.346 0 56.889-25.543 56.889-56.889v-796.444c0-31.346-25.543-56.889-56.889-56.889h-796.444c-31.346 0-56.889 25.543-56.889 56.889v796.444c0 31.346 25.543 56.889 56.889 56.889h796.444zM910.222 960h-796.444c-62.578 0-113.778-51.2-113.778-113.778v-796.444c0-62.578 51.2-113.778 113.778-113.778h796.444c62.578 0 113.778 51.2 113.778 113.778v796.444c0 62.578-51.2 113.778-113.778 113.778v0z" />
<glyph unicode="&#xea13;" d="M739.556 391.111h-455.111c-34.133 0-56.889 22.756-56.889 56.889s22.756 56.889 56.889 56.889h455.111c34.133 0 56.889-22.756 56.889-56.889s-28.444-56.889-56.889-56.889z" />
<glyph unicode="&#xea14;" d="M113.778-35.556c-47.047 0-85.333 38.286-85.333 85.333v796.444c0 47.047 38.286 85.333 85.333 85.333h796.444c47.047 0 85.333-38.286 85.333-85.333v-796.444c0-47.047-38.286-85.333-85.333-85.333h-796.444z" />
<glyph unicode="&#xea15;" d="M910.222 903.111c31.346 0 56.889-25.543 56.889-56.889v-796.444c0-31.346-25.543-56.889-56.889-56.889h-796.444c-31.346 0-56.889 25.543-56.889 56.889v796.444c0 31.346 25.543 56.889 56.889 56.889h796.444zM910.222 960h-796.444c-62.578 0-113.778-51.2-113.778-113.778v-796.444c0-62.578 51.2-113.778 113.778-113.778h796.444c62.578 0 113.778 51.2 113.778 113.778v796.444c0 62.578-51.2 113.778-113.778 113.778v0z" />
<glyph unicode="&#xea16;" d="M739.556 391.111h-455.111c-34.133 0-56.889 22.756-56.889 56.889s22.756 56.889 56.889 56.889h455.111c34.133 0 56.889-22.756 56.889-56.889s-28.444-56.889-56.889-56.889z" />
<glyph unicode="&#xea17;" d="M870.4 960h-716.8c-84.831 0-153.6-68.769-153.6-153.6v-716.8c0-84.831 68.769-153.6 153.6-153.6h716.8c84.831 0 153.6 68.769 153.6 153.6v716.8c0 84.831-68.769 153.6-153.6 153.6zM921.6 89.6c0.056-0.868 0.087-1.882 0.087-2.903 0-26.722-21.662-48.384-48.384-48.384-1.021 0-2.035 0.032-3.041 0.094l-716.662-0.007c-0.868-0.056-1.882-0.087-2.903-0.087-26.722 0-48.384 21.662-48.384 48.384 0 1.021 0.032 2.035 0.094 3.041l-0.007 716.662c-0.056 0.868-0.087 1.882-0.087 2.903 0 26.722 21.662 48.384 48.384 48.384 1.021 0 2.035-0.032 3.041-0.094l716.662 0.007c0.868 0.056 1.882 0.087 2.903 0.087 26.722 0 48.384-21.662 48.384-48.384 0-1.021-0.032-2.035-0.094-3.041l0.007-716.662z" />
<glyph unicode="&#xea18;" d="M716.8 396.8h-409.6c-0.868-0.056-1.882-0.087-2.903-0.087-26.722 0-48.384 21.662-48.384 48.384 0 1.021 0.032 2.035 0.094 3.041-0.062 0.73-0.094 1.744-0.094 2.765 0 26.722 21.662 48.384 48.384 48.384 1.021 0 2.035-0.032 3.041-0.094l409.462 0.007c0.868 0.056 1.882 0.087 2.903 0.087 26.722 0 48.384-21.662 48.384-48.384 0-1.021-0.032-2.035-0.094-3.041 0.007-28.139-22.916-51.062-51.193-51.062z" />
<glyph unicode="&#xea19;" d="M896-21.333h-768c-47.147 0-85.333 38.187-85.333 85.333v768c0 47.147 38.187 85.333 85.333 85.333h768c47.147 0 85.333-38.187 85.333-85.333v-768c0-47.147-38.187-85.333-85.333-85.333z" />
<glyph unicode="&#xea1a;" d="M769.365 278.272l-175.232 175.232 164.267 164.267c21.888 21.888 21.888 54.741 0 76.672s-54.741 21.888-76.672 0l-164.267-164.267-175.189 175.189c-21.888 21.888-54.741 21.888-76.672 0s-21.888-54.741 0-76.672l175.232-175.232-186.155-186.155c-21.888-21.888-21.888-54.741 0-76.672 21.888-21.888 54.741-21.888 76.672 0l186.155 186.155 175.232-175.232c21.888-21.888 54.741-21.888 76.672 0 21.845 21.931 21.845 54.784-0.043 76.715z" />
<glyph unicode="&#xea1b;" glyph-name="checkmark" d="M369.778 106.667l-278.756 278.756c-22.756 22.756-22.756 56.889 0 79.644s56.889 22.756 79.644 0l199.111-199.111 483.556 483.556c22.756 22.756 56.889 22.756 79.644 0s22.756-56.889 0-79.644l-563.2-563.2z" />
<glyph unicode="&#xea1c;" glyph-name="checkmark_green24" d="M364.089 106.667l-290.133 290.133c-22.756 22.756-22.756 56.889 0 85.333s56.889 22.756 85.333 0l204.8-204.8 500.622 500.622c22.756 22.756 56.889 22.756 85.333 0 22.756-22.756 22.756-56.889 0-85.333l-585.956-585.956z" />
<glyph unicode="&#xea1d;" glyph-name="checkmark_white" d="M352.256 67.328c-22.912 0-45.888 8.768-63.36 26.24l-262.656 262.656c-35.008 35.008-35.008 91.776 0 126.784 34.944 35.008 91.712 35.008 126.72 0l199.296-199.232 518.72 518.656c35.008 35.008 91.712 35.008 126.72 0s35.008-91.776 0-126.72l-582.080-582.080c-17.472-17.536-40.384-26.304-63.36-26.304z" />
<glyph unicode="&#xea1e;" d="M512 38.4c-106.667 0-209.067 42.667-285.867 119.467-157.867 157.867-157.867 413.867 0 571.733 76.8 76.8 179.2 119.467 285.867 119.467s209.067-42.667 285.867-119.467c157.867-157.867 157.867-413.867 0-571.733-76.8-76.8-179.2-119.467-285.867-119.467z" />
<glyph unicode="&#xea1f;" d="M512 832c102.4 0 200.533-38.4 273.067-110.933 149.333-149.333 149.333-392.533 0-546.133-72.533-72.533-170.667-110.933-273.067-110.933s-200.533 38.4-273.067 110.933c-149.333 149.333-149.333 392.533 0 546.133 72.533 72.533 170.667 110.933 273.067 110.933zM512 874.667c-110.933 0-217.6-42.667-302.933-123.733-166.4-166.4-166.4-439.467 0-605.867 85.333-85.333 192-123.733 302.933-123.733s217.6 42.667 302.933 123.733c166.4 166.4 166.4 439.467 0 605.867-85.333 81.067-192 123.733-302.933 123.733v0z" />
<glyph unicode="&#xea20;" d="M725.333 490.667h-170.667v170.667c0 25.6-17.067 42.667-42.667 42.667s-42.667-17.067-42.667-42.667v-170.667h-170.667c-25.6 0-42.667-17.067-42.667-42.667s17.067-42.667 42.667-42.667h170.667v-170.667c0-25.6 17.067-42.667 42.667-42.667s42.667 17.067 42.667 42.667v170.667h170.667c25.6 0 42.667 17.067 42.667 42.667s-17.067 42.667-42.667 42.667z" />
<glyph unicode="&#xea21;" d="M512-42.667c-270.549 0-490.667 220.117-490.667 490.667s220.117 490.667 490.667 490.667c270.549 0 490.667-220.117 490.667-490.667s-220.117-490.667-490.667-490.667z" />
<glyph unicode="&#xea22;" d="M512 917.333c258.773 0 469.333-210.56 469.333-469.333s-210.56-469.333-469.333-469.333-469.333 210.56-469.333 469.333 210.56 469.333 469.333 469.333zM512 960c-282.752 0-512-229.248-512-512s229.248-512 512-512 512 229.248 512 512-229.248 512-512 512v0z" />
<glyph unicode="&#xea23;" d="M512 308.096l-197.931 197.973c-8.32 8.32-8.32 21.845 0 30.165s21.845 8.32 30.165 0l167.765-167.808 167.808 167.808c8.32 8.32 21.845 8.32 30.165 0s8.32-21.845 0-30.165l-197.973-197.973z" />
<glyph unicode="&#xea24;" d="M512 938.667c-270.549 0-490.667-220.117-490.667-490.667s220.117-490.667 490.667-490.667c270.549 0 490.667 220.117 490.667 490.667s-220.117 490.667-490.667 490.667z" />
<glyph unicode="&#xea25;" d="M512-21.333c-258.773 0-469.333 210.56-469.333 469.333s210.56 469.333 469.333 469.333 469.333-210.56 469.333-469.333-210.56-469.333-469.333-469.333zM512-64c282.752 0 512 229.248 512 512s-229.248 512-512 512-512-229.248-512-512 229.248-512 512-512v0z" />
<glyph unicode="&#xea26;" d="M512 587.904l-197.931-197.973c-8.32-8.32-8.32-21.845 0-30.165s21.845-8.32 30.165 0l167.765 167.808 167.808-167.808c8.32-8.32 21.845-8.32 30.165 0s8.32 21.845 0 30.165l-197.973 197.973z" />
<glyph unicode="&#xea27;" d="M512 38.4c-106.667 0-209.067 42.667-285.867 119.467-157.867 157.867-157.867 418.133 0 576 76.8 76.8 179.2 119.467 285.867 119.467s209.067-42.667 285.867-119.467c157.867-157.867 157.867-413.867 0-576-76.8-76.8-179.2-119.467-285.867-119.467z" />
<glyph unicode="&#xea28;" d="M512 832c102.4 0 200.533-38.4 273.067-110.933 149.333-149.333 149.333-392.533 0-546.133-72.533-72.533-170.667-110.933-273.067-110.933s-200.533 38.4-273.067 110.933c-149.333 149.333-149.333 392.533 0 546.133 72.533 72.533 170.667 110.933 273.067 110.933zM512 874.667c-110.933 0-217.6-42.667-302.933-123.733-166.4-166.4-166.4-439.467 0-605.867 85.333-85.333 192-123.733 302.933-123.733s217.6 42.667 302.933 123.733c166.4 166.4 166.4 439.467 0 605.867-85.333 81.067-192 123.733-302.933 123.733v0z" />
<glyph unicode="&#xea29;" d="M541.867 448l187.733 187.733c8.533 8.533 8.533 21.333 0 29.867s-21.333 8.533-29.867 0l-187.733-187.733-187.733 187.733c-8.533 8.533-21.333 8.533-29.867 0s-8.533-21.333 0-29.867l187.733-187.733-187.733-187.733c-8.533-8.533-8.533-21.333 0-29.867 4.267-4.267 8.533-4.267 17.067-4.267s12.8 0 17.067 4.267l183.467 187.733 187.733-187.733c4.267-4.267 8.533-4.267 17.067-4.267s12.8 0 17.067 4.267c8.533 8.533 8.533 21.333 0 29.867l-192 187.733z" />
<glyph unicode="&#xea2a;" d="M512-38.4c-267.933 1.73-484.67 218.467-486.399 486.234 1.729 268.098 218.466 484.835 486.234 486.565 268.098-1.729 484.835-218.466 486.565-486.234-1.729-268.098-218.466-484.835-486.234-486.565z" />
<glyph unicode="&#xea2b;" d="M512 908.8c254.493 0 460.8-206.307 460.8-460.8s-206.307-460.8-460.8-460.8c-254.493 0-460.8 206.307-460.8 460.8-0.003 0.564-0.004 1.231-0.004 1.898 0 253.447 205.459 458.906 458.906 458.906 0.667 0 1.334-0.001 2.001-0.004zM512 960c-282.77 0-512-229.23-512-512s229.23-512 512-512c282.77 0 512 229.23 512 512-0.841 282.43-229.569 511.158-511.919 512h-0.081z" />
<glyph unicode="&#xea2c;" d="M583.68 448l143.36 143.36c9.39 9.207 15.21 22.025 15.21 36.202 0 27.994-22.694 50.688-50.688 50.688-14.177 0-26.995-5.82-36.194-15.202l-143.368-143.368-143.36 143.36c-9.207 9.39-22.025 15.21-36.202 15.21-27.994 0-50.688-22.694-50.688-50.688 0-14.177 5.82-26.995 15.202-36.194l143.368-143.368-143.36-143.36c-9.466-9.035-15.352-21.75-15.352-35.84s5.886-26.806 15.333-35.822c9.362-9.001 21.885-14.736 35.738-15.374 0.507-0.016 0.961-0.022 1.416-0.022 13.692 0 26.001 5.919 34.509 15.337l143.396 143.401 143.36-143.36c9.342-8.983 21.865-14.718 35.719-15.356 0.507-0.016 0.961-0.022 1.416-0.022 13.692 0 26.001 5.919 34.509 15.337 9.503 9.075 15.388 21.791 15.388 35.881s-5.886 26.806-15.333 35.822z" />
<glyph unicode="&#xea2d;" d="M512 42.667c-221.867 0-405.333 183.467-405.333 405.333s183.467 405.333 405.333 405.333 405.333-183.467 405.333-405.333-183.467-405.333-405.333-405.333z" />
<glyph unicode="&#xea2e;" d="M512 832c213.333 0 384-170.667 384-384s-170.667-384-384-384-384 170.667-384 384 170.667 384 384 384zM512 874.667c-234.667 0-426.667-192-426.667-426.667s192-426.667 426.667-426.667 426.667 192 426.667 426.667-192 426.667-426.667 426.667v0z" />
<glyph unicode="&#xea2f;" d="M571.733 448l119.467 119.467c17.067 17.067 17.067 42.667 0 59.733s-42.667 17.067-59.733 0l-119.467-119.467-119.467 119.467c-17.067 17.067-42.667 17.067-59.733 0s-17.067-42.667 0-59.733l119.467-119.467-119.467-119.467c-17.067-17.067-17.067-42.667 0-59.733 8.533-8.533 21.333-12.8 29.867-12.8 12.8 0 21.333 4.267 29.867 12.8l119.467 119.467 119.467-119.467c8.533-8.533 21.333-12.8 29.867-12.8 12.8 0 21.333 4.267 29.867 12.8 17.067 17.067 17.067 42.667 0 59.733l-119.467 119.467z" />
<glyph unicode="&#xea30;" d="M512-45.714c-272.238 0-493.714 221.477-493.714 493.714s221.477 493.714 493.714 493.714 493.714-221.477 493.714-493.714-221.477-493.714-493.714-493.714z" />
<glyph unicode="&#xea31;" d="M512 923.429c262.144 0 475.429-213.285 475.429-475.429s-213.285-475.429-475.429-475.429-475.429 213.285-475.429 475.429 213.285 475.429 475.429 475.429zM512 960c-282.77 0-512-229.23-512-512s229.23-512 512-512c282.77 0 512 229.23 512 512s-229.23 512-512 512v0z" />
<glyph unicode="&#xea32;" d="M812.617 504.32h-244.297v244.297" />
<glyph unicode="&#xea33;" d="M211.383 391.68h244.297v-244.297" />
<glyph unicode="&#xea34;" d="M42.667 448h341.333v-256h-341.333v256z" />
<glyph unicode="&#xea35;" d="M640 448h341.333v-256h-341.333v256z" />
<glyph unicode="&#xea36;" d="M170.667 192h85.333v-256h-85.333v256z" />
<glyph unicode="&#xea37;" d="M768 192h85.333v-256h-85.333v256z" />
<glyph unicode="&#xea38;" d="M768 746.667h-170.667c-25.6 0-42.667 17.067-42.667 42.667v170.667h-85.333v-170.667c0-25.6-17.067-42.667-42.667-42.667h-170.667c-46.933 0-85.333-38.4-85.333-85.333v-213.333h85.333v213.333h213.333c25.6 0 42.667 17.067 42.667 42.667 0-25.6 17.067-42.667 42.667-42.667h213.333v-213.333h85.333v213.333c0 46.933-38.4 85.333-85.333 85.333z" />
<glyph unicode="&#xea39;" glyph-name="close" d="M572.331 448l353.835 353.835c16.683 16.683 16.683 43.648 0 60.331s-43.648 16.683-60.331 0l-353.835-353.835-353.835 353.835c-16.683 16.683-43.648 16.683-60.331 0s-16.683-43.648 0-60.331l353.835-353.835-353.835-353.835c-16.683-16.683-16.683-43.648 0-60.331 8.32-8.32 19.243-12.501 30.165-12.501s21.845 4.181 30.165 12.501l353.835 353.835 353.835-353.835c8.32-8.32 19.243-12.501 30.165-12.501s21.845 4.181 30.165 12.501c16.683 16.683 16.683 43.648 0 60.331l-353.835 353.835z" />
<glyph unicode="&#xea3a;" d="M512-45.714c-272.238 0-493.714 221.477-493.714 493.714s221.477 493.714 493.714 493.714 493.714-221.477 493.714-493.714-221.477-493.714-493.714-493.714z" />
<glyph unicode="&#xea3b;" d="M512 923.429c262.144 0 475.429-213.285 475.429-475.429s-213.285-475.429-475.429-475.429-475.429 213.285-475.429 475.429 213.285 475.429 475.429 475.429zM512 960c-282.77 0-512-229.23-512-512s229.23-512 512-512 512 229.23 512 512-229.23 512-512 512v0z" />
<glyph unicode="&#xea3c;" d="M537.856 448l160.768 160.768c7.131 7.131 7.131 18.725 0 25.856s-18.725 7.131-25.856 0l-160.768-160.768-160.768 160.768c-7.131 7.131-18.725 7.131-25.856 0s-7.131-18.725 0-25.856l160.768-160.768-160.768-160.768c-7.131-7.131-7.131-18.725 0-25.856 3.584-3.584 8.265-5.339 12.946-5.339s9.362 1.792 12.946 5.339l160.768 160.768 160.768-160.768c3.584-3.584 8.265-5.339 12.946-5.339s9.362 1.792 12.946 5.339c7.131 7.131 7.131 18.725 0 25.856l-160.841 160.768z" />
<glyph unicode="&#xea3d;" glyph-name="close24_li" d="M602.496 448l381.397 381.397c25.003 25.003 25.003 65.493 0 90.496s-65.493 25.003-90.496 0l-381.397-381.397-381.397 381.44c-25.003 25.003-65.493 25.003-90.496 0s-25.003-65.493 0-90.496l381.397-381.44-381.397-381.397c-25.003-25.003-25.003-65.493 0-90.496 12.459-12.544 28.843-18.773 45.227-18.773s32.768 6.229 45.269 18.731l381.397 381.44 381.397-381.397c12.501-12.544 28.885-18.773 45.269-18.773s32.768 6.229 45.269 18.731c25.003 25.003 25.003 65.493 0 90.496l-381.44 381.44z" />
</font>
</defs>
</svg>
